<svg width="183" height="236" viewBox="0 0 183 236" fill="none" xmlns="http://www.w3.org/2000/svg">
<g filter="url(#filter0_d)">
<g filter="url(#filter1_b)">
<path d="M19 31.4897L92 0L164 31.4897L179 216.741H4L19 31.4897Z" fill="#FAE5B1"/>
<path d="M4.54212 216.241L19.4741 31.8297L91.9986 0.545129L163.526 31.828L178.458 216.241H4.54212Z" stroke="#FAE5B1"/>
</g>
<rect x="4" y="216.741" width="175" height="11.2593" fill="#CFB278"/>
<g filter="url(#filter2_i)">
<path d="M98.96 138.04V121.36H127.4V138.04H98.96ZM90.32 121.36V138.04H62.36C63.44 132.28 63.8 126.64 63.92 121.36H90.32ZM103.16 77.08C100.76 81.4 97.64 86.08 94.76 89.8H63.92C67.76 85.6 71.12 81.4 74.12 77.08H103.16ZM63.92 97.84H90.32V113.68H63.92V97.84ZM127.4 113.68H98.96V97.84H127.4V113.68ZM136.04 89.8H104.48C108.56 84.64 112.64 78.52 115.4 73.12L109.4 69.16L107.96 69.64H79.04C80.12 67.72 81.2 65.8 82.28 64L72.56 62.32C66.56 74.2 55.16 88.96 39.2 99.88C41.36 101.2 44.12 104.08 45.68 106.24C49.04 103.72 52.28 101.2 55.28 98.44V119.56C55.28 134.8 53.36 153.28 36.44 166.36C38.24 167.68 41.48 170.8 42.56 172.72C52.16 165.28 57.56 155.68 60.56 145.84H127.4V160.72C127.4 163.12 126.56 163.84 124.04 163.84C121.4 164.08 112.04 164.08 102.32 163.72C103.76 166 105.32 169.96 105.8 172.36C118.04 172.36 125.72 172.24 130.16 170.8C134.6 169.48 136.04 166.6 136.04 160.84V89.8Z" fill="#3F3C31"/>
</g>
<path d="M98.96 138.04H97.96V139.04H98.96V138.04ZM98.96 121.36V120.36H97.96V121.36H98.96ZM127.4 121.36H128.4V120.36H127.4V121.36ZM127.4 138.04V139.04H128.4V138.04H127.4ZM90.32 121.36H91.32V120.36H90.32V121.36ZM90.32 138.04V139.04H91.32V138.04H90.32ZM62.36 138.04L61.3771 137.856L61.1551 139.04H62.36V138.04ZM63.92 121.36V120.36H62.9425L62.9203 121.337L63.92 121.36ZM103.16 77.08L104.034 77.5656L104.86 76.08H103.16V77.08ZM94.76 89.8V90.8H95.2505L95.5507 90.4122L94.76 89.8ZM63.92 89.8L63.182 89.1252L61.6508 90.8H63.92V89.8ZM74.12 77.08V76.08H73.597L73.2986 76.5096L74.12 77.08ZM63.92 97.84V96.84H62.92V97.84H63.92ZM90.32 97.84H91.32V96.84H90.32V97.84ZM90.32 113.68V114.68H91.32V113.68H90.32ZM63.92 113.68H62.92V114.68H63.92V113.68ZM127.4 113.68V114.68H128.4V113.68H127.4ZM98.96 113.68H97.96V114.68H98.96V113.68ZM98.96 97.84V96.84H97.96V97.84H98.96ZM127.4 97.84H128.4V96.84H127.4V97.84ZM136.04 89.8H137.04V88.8H136.04V89.8ZM104.48 89.8L103.696 89.1798L102.414 90.8H104.48V89.8ZM115.4 73.12L116.29 73.5751L116.698 72.7783L115.951 72.2854L115.4 73.12ZM109.4 69.16L109.951 68.3254L109.545 68.0576L109.084 68.2113L109.4 69.16ZM107.96 69.64V70.64H108.122L108.276 70.5887L107.96 69.64ZM79.04 69.64L78.1684 69.1497L77.3302 70.64H79.04V69.64ZM82.28 64L83.1375 64.5145L83.8883 63.2631L82.4503 63.0146L82.28 64ZM72.56 62.32L72.7303 61.3346L72.001 61.2086L71.6674 61.8692L72.56 62.32ZM39.2 99.88L38.6353 99.0547L37.3598 99.9274L38.6786 100.733L39.2 99.88ZM45.68 106.24L44.8693 106.825L45.4655 107.651L46.28 107.04L45.68 106.24ZM55.28 98.44H56.28V96.1612L54.6029 97.7041L55.28 98.44ZM36.44 166.36L35.8284 165.569L34.7777 166.381L35.8486 167.166L36.44 166.36ZM42.56 172.72L41.6884 173.21L42.2566 174.22L43.1726 173.51L42.56 172.72ZM60.56 145.84V144.84H59.8194L59.6035 145.548L60.56 145.84ZM127.4 145.84H128.4V144.84H127.4V145.84ZM124.04 163.84V162.84H123.995L123.949 162.844L124.04 163.84ZM102.32 163.72L102.357 162.721L100.462 162.65L101.475 164.254L102.32 163.72ZM105.8 172.36L104.819 172.556L104.98 173.36H105.8V172.36ZM130.16 170.8L129.875 169.841L129.863 169.845L129.851 169.849L130.16 170.8ZM99.96 138.04V121.36H97.96V138.04H99.96ZM98.96 122.36H127.4V120.36H98.96V122.36ZM126.4 121.36V138.04H128.4V121.36H126.4ZM127.4 137.04H98.96V139.04H127.4V137.04ZM89.32 121.36V138.04H91.32V121.36H89.32ZM90.32 137.04H62.36V139.04H90.32V137.04ZM63.3429 138.224C64.4369 132.39 64.7991 126.69 64.9197 121.383L62.9203 121.337C62.8009 126.59 62.4431 132.17 61.3771 137.856L63.3429 138.224ZM63.92 122.36H90.32V120.36H63.92V122.36ZM102.286 76.5944C99.9116 80.868 96.8199 85.5058 93.9693 89.1878L95.5507 90.4122C98.4602 86.6542 101.608 81.932 104.034 77.5656L102.286 76.5944ZM94.76 88.8H63.92V90.8H94.76V88.8ZM64.658 90.4748C68.5265 86.2437 71.9146 82.0089 74.9414 77.6504L73.2986 76.5096C70.3254 80.7911 66.9935 84.9563 63.182 89.1252L64.658 90.4748ZM74.12 78.08H103.16V76.08H74.12V78.08ZM63.92 98.84H90.32V96.84H63.92V98.84ZM89.32 97.84V113.68H91.32V97.84H89.32ZM90.32 112.68H63.92V114.68H90.32V112.68ZM64.92 113.68V97.84H62.92V113.68H64.92ZM127.4 112.68H98.96V114.68H127.4V112.68ZM99.96 113.68V97.84H97.96V113.68H99.96ZM98.96 98.84H127.4V96.84H98.96V98.84ZM126.4 97.84V113.68H128.4V97.84H126.4ZM136.04 88.8H104.48V90.8H136.04V88.8ZM105.264 90.4202C109.375 85.2212 113.494 79.046 116.29 73.5751L114.51 72.6649C111.786 77.994 107.745 84.0588 103.696 89.1798L105.264 90.4202ZM115.951 72.2854L109.951 68.3254L108.849 69.9946L114.849 73.9546L115.951 72.2854ZM109.084 68.2113L107.644 68.6913L108.276 70.5887L109.716 70.1087L109.084 68.2113ZM107.96 68.64H79.04V70.64H107.96V68.64ZM79.9116 70.1303C80.993 68.2078 82.066 66.3003 83.1375 64.5145L81.4225 63.4855C80.334 65.2997 79.247 67.2322 78.1684 69.1497L79.9116 70.1303ZM82.4503 63.0146L72.7303 61.3346L72.3897 63.3054L82.1097 64.9854L82.4503 63.0146ZM71.6674 61.8692C65.7361 73.6132 54.4434 88.2386 38.6353 99.0547L39.7647 100.705C55.8766 89.6813 67.3839 74.7868 73.4526 62.7708L71.6674 61.8692ZM38.6786 100.733C40.685 101.959 43.3535 104.727 44.8693 106.825L46.4907 105.655C44.8865 103.433 42.035 100.441 39.7214 99.0267L38.6786 100.733ZM46.28 107.04C49.6461 104.515 52.9188 101.971 55.9571 99.1759L54.6029 97.7041C51.6412 100.429 48.4339 102.925 45.08 105.44L46.28 107.04ZM54.28 98.44V119.56H56.28V98.44H54.28ZM54.28 119.56C54.28 134.743 52.3559 152.792 35.8284 165.569L37.0516 167.151C54.3641 153.768 56.28 134.857 56.28 119.56H54.28ZM35.8486 167.166C36.6934 167.786 37.9129 168.857 39.0584 170.018C40.2178 171.192 41.2175 172.373 41.6884 173.21L43.4316 172.23C42.8225 171.147 41.6622 169.808 40.4816 168.612C39.2871 167.403 37.9866 166.254 37.0314 165.554L35.8486 167.166ZM43.1726 173.51C52.971 165.917 58.4705 156.122 61.5165 146.132L59.6035 145.548C56.6495 155.238 51.349 164.643 41.9474 171.93L43.1726 173.51ZM60.56 146.84H127.4V144.84H60.56V146.84ZM126.4 145.84V160.72H128.4V145.84H126.4ZM126.4 160.72C126.4 161.858 126.188 162.261 125.99 162.442C125.765 162.648 125.271 162.84 124.04 162.84V164.84C125.329 164.84 126.515 164.672 127.34 163.918C128.192 163.139 128.4 161.982 128.4 160.72H126.4ZM123.949 162.844C121.383 163.077 112.085 163.081 102.357 162.721L102.283 164.719C111.995 165.079 121.417 165.083 124.131 164.836L123.949 162.844ZM101.475 164.254C102.849 166.431 104.363 170.276 104.819 172.556L106.781 172.164C106.277 169.644 104.671 165.569 103.165 163.186L101.475 164.254ZM105.8 173.36C111.916 173.36 116.922 173.33 120.957 173.119C124.979 172.908 128.118 172.514 130.469 171.751L129.851 169.849C127.762 170.526 124.841 170.912 120.853 171.121C116.878 171.33 111.924 171.36 105.8 171.36V173.36ZM130.445 171.759C132.842 171.046 134.559 169.865 135.634 167.98C136.679 166.147 137.04 163.775 137.04 160.84H135.04C135.04 163.665 134.681 165.613 133.896 166.99C133.141 168.315 131.918 169.234 129.875 169.841L130.445 171.759ZM137.04 160.84V89.8H135.04V160.84H137.04Z" fill="#3F3C31"/>
</g>
<defs>
<filter id="filter0_d" x="0" y="0" width="183" height="236" filterUnits="userSpaceOnUse" color-interpolation-filters="sRGB">
<feFlood flood-opacity="0" result="BackgroundImageFix"/>
<feColorMatrix in="SourceAlpha" type="matrix" values="0 0 0 0 0 0 0 0 0 0 0 0 0 0 0 0 0 0 127 0"/>
<feOffset dy="4"/>
<feGaussianBlur stdDeviation="2"/>
<feColorMatrix type="matrix" values="0 0 0 0 0 0 0 0 0 0 0 0 0 0 0 0 0 0 0.25 0"/>
<feBlend mode="normal" in2="BackgroundImageFix" result="effect1_dropShadow"/>
<feBlend mode="normal" in="SourceGraphic" in2="effect1_dropShadow" result="shape"/>
</filter>
<filter id="filter1_b" x="0" y="-4" width="183" height="224.741" filterUnits="userSpaceOnUse" color-interpolation-filters="sRGB">
<feFlood flood-opacity="0" result="BackgroundImageFix"/>
<feGaussianBlur in="BackgroundImage" stdDeviation="2"/>
<feComposite in2="SourceAlpha" operator="in" result="effect1_backgroundBlur"/>
<feBlend mode="normal" in="SourceGraphic" in2="effect1_backgroundBlur" result="shape"/>
</filter>
<filter id="filter2_i" x="34.7777" y="61.2086" width="102.262" height="117.012" filterUnits="userSpaceOnUse" color-interpolation-filters="sRGB">
<feFlood flood-opacity="0" result="BackgroundImageFix"/>
<feBlend mode="normal" in="SourceGraphic" in2="BackgroundImageFix" result="shape"/>
<feColorMatrix in="SourceAlpha" type="matrix" values="0 0 0 0 0 0 0 0 0 0 0 0 0 0 0 0 0 0 127 0" result="hardAlpha"/>
<feOffset dy="4"/>
<feGaussianBlur stdDeviation="2"/>
<feComposite in2="hardAlpha" operator="arithmetic" k2="-1" k3="1"/>
<feColorMatrix type="matrix" values="0 0 0 0 0 0 0 0 0 0 0 0 0 0 0 0 0 0 0.25 0"/>
<feBlend mode="normal" in2="shape" result="effect1_innerShadow"/>
</filter>
</defs>
</svg>
