<svg width="183" height="223" viewBox="0 0 183 223" fill="none" xmlns="http://www.w3.org/2000/svg">
<g filter="url(#filter0_d)">
<g filter="url(#filter1_b)">
<path d="M18.9143 29.4933L91.4971 0L163.086 29.4933L178 203H4L18.9143 29.4933Z" fill="#FAE5B1"/>
<path d="M4.54482 202.5L19.3862 29.8413L91.4958 0.540232L162.614 29.8396L177.455 202.5H4.54482Z" stroke="#FAE5B1"/>
</g>
<rect x="4" y="203" width="174.028" height="11.2593" fill="#CFB278"/>
<g filter="url(#filter2_i)">
<path d="M61.94 91.92C73.7 83.04 83.78 73.08 90.02 64.08C96.98 73.44 107.78 83.4 119.54 91.92H61.94ZM94.58 123.72H135.74V115.92H94.58V99.84H120.26V92.4C126.86 97.2 133.7 101.52 140.3 104.88C141.74 102.24 143.9 99.24 146.06 96.96C127.46 88.68 106.7 72.6 93.98 55.44H85.1C75.74 70.44 56.06 88.08 35.42 98.52C37.34 100.32 39.86 103.44 40.82 105.48C47.66 101.88 54.38 97.56 60.62 93V99.84H85.34V115.92H45.14V123.72H85.34V153.36H39.74V161.28H141.5V153.36H94.58V123.72ZM55.1 129.72C59.78 136.56 64.46 145.8 66.02 151.8L73.7 148.44C72.02 142.44 67.22 133.56 62.3 126.96L55.1 129.72ZM111.14 151.8C115.7 146.16 121.34 137.52 125.78 129.96L117.38 126.72C114.38 133.44 108.86 142.92 104.54 148.8L111.14 151.8Z" fill="#3F3C31"/>
</g>
<path d="M61.94 91.92L61.3374 91.122L58.9562 92.92H61.94V91.92ZM90.02 64.08L90.8225 63.4833L89.9916 62.3659L89.1982 63.5102L90.02 64.08ZM119.54 91.92V92.92H122.625L120.127 91.1102L119.54 91.92ZM94.58 123.72V122.72H93.58V123.72H94.58ZM135.74 123.72V124.72H136.74V123.72H135.74ZM135.74 115.92H136.74V114.92H135.74V115.92ZM94.58 115.92H93.58V116.92H94.58V115.92ZM94.58 99.84V98.84H93.58V99.84H94.58ZM120.26 99.84V100.84H121.26V99.84H120.26ZM120.26 92.4L120.848 91.5913L119.26 90.4362V92.4H120.26ZM140.3 104.88L139.846 105.771L140.712 106.212L141.178 105.359L140.3 104.88ZM146.06 96.96L146.786 97.6477L147.758 96.6214L146.467 96.0464L146.06 96.96ZM93.98 55.44L94.7834 54.8445L94.4835 54.44H93.98V55.44ZM85.1 55.44V54.44H84.5453L84.2516 54.9106L85.1 55.44ZM35.42 98.52L34.9686 97.6277L33.6938 98.2725L34.7361 99.2495L35.42 98.52ZM40.82 105.48L39.9152 105.906L40.3604 106.852L41.2857 106.365L40.82 105.48ZM60.62 93H61.62V91.0307L60.03 92.1926L60.62 93ZM60.62 99.84H59.62V100.84H60.62V99.84ZM85.34 99.84H86.34V98.84H85.34V99.84ZM85.34 115.92V116.92H86.34V115.92H85.34ZM45.14 115.92V114.92H44.14V115.92H45.14ZM45.14 123.72H44.14V124.72H45.14V123.72ZM85.34 123.72H86.34V122.72H85.34V123.72ZM85.34 153.36V154.36H86.34V153.36H85.34ZM39.74 153.36V152.36H38.74V153.36H39.74ZM39.74 161.28H38.74V162.28H39.74V161.28ZM141.5 161.28V162.28H142.5V161.28H141.5ZM141.5 153.36H142.5V152.36H141.5V153.36ZM94.58 153.36H93.58V154.36H94.58V153.36ZM55.1 129.72L54.7421 128.786L53.5596 129.24L54.2747 130.285L55.1 129.72ZM66.02 151.8L65.0522 152.052L65.3471 153.186L66.4208 152.716L66.02 151.8ZM73.7 148.44L74.1008 149.356L74.8974 149.008L74.663 148.17L73.7 148.44ZM62.3 126.96L63.1017 126.362L62.6492 125.755L61.9421 126.026L62.3 126.96ZM111.14 151.8L110.726 152.71L111.431 153.031L111.918 152.429L111.14 151.8ZM125.78 129.96L126.642 130.466L127.239 129.451L126.14 129.027L125.78 129.96ZM117.38 126.72L117.74 125.787L116.854 125.445L116.467 126.312L117.38 126.72ZM104.54 148.8L103.734 148.208L103.005 149.201L104.126 149.71L104.54 148.8ZM62.5426 92.718C74.3583 83.796 84.5236 73.7626 90.8418 64.6498L89.1982 63.5102C83.0364 72.3974 73.0417 82.284 61.3374 91.122L62.5426 92.718ZM89.2175 64.6767C96.2574 74.1441 107.142 84.1725 118.953 92.7298L120.127 91.1102C108.418 82.6275 97.7026 72.7359 90.8225 63.4833L89.2175 64.6767ZM119.54 90.92H61.94V92.92H119.54V90.92ZM94.58 124.72H135.74V122.72H94.58V124.72ZM136.74 123.72V115.92H134.74V123.72H136.74ZM135.74 114.92H94.58V116.92H135.74V114.92ZM95.58 115.92V99.84H93.58V115.92H95.58ZM94.58 100.84H120.26V98.84H94.58V100.84ZM121.26 99.84V92.4H119.26V99.84H121.26ZM119.672 93.2087C126.304 98.0324 133.19 102.382 139.846 105.771L140.754 103.989C134.21 100.658 127.416 96.3676 120.848 91.5913L119.672 93.2087ZM141.178 105.359C142.577 102.793 144.687 99.8636 146.786 97.6477L145.334 96.2723C143.113 98.6164 140.903 101.687 139.422 104.401L141.178 105.359ZM146.467 96.0464C128.015 87.8327 107.395 71.8587 94.7834 54.8445L93.1766 56.0355C106.005 73.3413 126.905 89.5273 145.653 97.8736L146.467 96.0464ZM93.98 54.44H85.1V56.44H93.98V54.44ZM84.2516 54.9106C75.0035 69.7313 55.4733 87.2561 34.9686 97.6277L35.8714 99.4123C56.6468 88.9039 76.4765 71.1487 85.9484 55.9694L84.2516 54.9106ZM34.7361 99.2495C36.6044 101.001 39.0284 104.021 39.9152 105.906L41.7248 105.054C40.6916 102.859 38.0756 99.6389 36.1039 97.7905L34.7361 99.2495ZM41.2857 106.365C48.1768 102.738 54.9383 98.3905 61.21 93.8074L60.03 92.1926C53.8217 96.7295 47.1432 101.022 40.3543 104.595L41.2857 106.365ZM59.62 93V99.84H61.62V93H59.62ZM60.62 100.84H85.34V98.84H60.62V100.84ZM84.34 99.84V115.92H86.34V99.84H84.34ZM85.34 114.92H45.14V116.92H85.34V114.92ZM44.14 115.92V123.72H46.14V115.92H44.14ZM45.14 124.72H85.34V122.72H45.14V124.72ZM84.34 123.72V153.36H86.34V123.72H84.34ZM85.34 152.36H39.74V154.36H85.34V152.36ZM38.74 153.36V161.28H40.74V153.36H38.74ZM39.74 162.28H141.5V160.28H39.74V162.28ZM142.5 161.28V153.36H140.5V161.28H142.5ZM141.5 152.36H94.58V154.36H141.5V152.36ZM95.58 153.36V123.72H93.58V153.36H95.58ZM54.2747 130.285C58.9188 137.072 63.5319 146.205 65.0522 152.052L66.9878 151.548C65.3881 145.395 60.6412 136.048 55.9253 129.155L54.2747 130.285ZM66.4208 152.716L74.1008 149.356L73.2992 147.524L65.6192 150.884L66.4208 152.716ZM74.663 148.17C72.9387 142.012 68.0657 133.021 63.1017 126.362L61.4983 127.558C66.3743 134.099 71.1013 142.868 72.737 148.71L74.663 148.17ZM61.9421 126.026L54.7421 128.786L55.4579 130.654L62.6579 127.894L61.9421 126.026ZM111.918 152.429C116.522 146.733 122.191 138.045 126.642 130.466L124.918 129.454C120.489 136.995 114.878 145.587 110.362 151.171L111.918 152.429ZM126.14 129.027L117.74 125.787L117.02 127.653L125.42 130.893L126.14 129.027ZM116.467 126.312C113.496 132.967 108.012 142.385 103.734 148.208L105.346 149.392C109.708 143.455 115.264 133.913 118.293 127.128L116.467 126.312ZM104.126 149.71L110.726 152.71L111.554 150.89L104.954 147.89L104.126 149.71Z" fill="#3F3C31"/>
</g>
<defs>
<filter id="filter0_d" x="0" y="0" width="182.028" height="222.259" filterUnits="userSpaceOnUse" color-interpolation-filters="sRGB">
<feFlood flood-opacity="0" result="BackgroundImageFix"/>
<feColorMatrix in="SourceAlpha" type="matrix" values="0 0 0 0 0 0 0 0 0 0 0 0 0 0 0 0 0 0 127 0"/>
<feOffset dy="4"/>
<feGaussianBlur stdDeviation="2"/>
<feColorMatrix type="matrix" values="0 0 0 0 0 0 0 0 0 0 0 0 0 0 0 0 0 0 0.25 0"/>
<feBlend mode="normal" in2="BackgroundImageFix" result="effect1_dropShadow"/>
<feBlend mode="normal" in="SourceGraphic" in2="effect1_dropShadow" result="shape"/>
</filter>
<filter id="filter1_b" x="0" y="-4" width="182" height="211" filterUnits="userSpaceOnUse" color-interpolation-filters="sRGB">
<feFlood flood-opacity="0" result="BackgroundImageFix"/>
<feGaussianBlur in="BackgroundImage" stdDeviation="2"/>
<feComposite in2="SourceAlpha" operator="in" result="effect1_backgroundBlur"/>
<feBlend mode="normal" in="SourceGraphic" in2="effect1_backgroundBlur" result="shape"/>
</filter>
<filter id="filter2_i" x="33.6938" y="54.44" width="114.064" height="111.84" filterUnits="userSpaceOnUse" color-interpolation-filters="sRGB">
<feFlood flood-opacity="0" result="BackgroundImageFix"/>
<feBlend mode="normal" in="SourceGraphic" in2="BackgroundImageFix" result="shape"/>
<feColorMatrix in="SourceAlpha" type="matrix" values="0 0 0 0 0 0 0 0 0 0 0 0 0 0 0 0 0 0 127 0" result="hardAlpha"/>
<feOffset dy="4"/>
<feGaussianBlur stdDeviation="2"/>
<feComposite in2="hardAlpha" operator="arithmetic" k2="-1" k3="1"/>
<feColorMatrix type="matrix" values="0 0 0 0 0 0 0 0 0 0 0 0 0 0 0 0 0 0 0.25 0"/>
<feBlend mode="normal" in2="shape" result="effect1_innerShadow"/>
</filter>
</defs>
</svg>
