<svg width="183" height="236" viewBox="0 0 183 236" fill="none" xmlns="http://www.w3.org/2000/svg">
<g filter="url(#filter0_d)">
<g filter="url(#filter1_b)">
<path d="M19 31.4897L92 0L164 31.4897L179 216.741H4L19 31.4897Z" fill="#FAE5B1"/>
<path d="M4.54212 216.241L19.4741 31.8297L91.9986 0.545129L163.526 31.828L178.458 216.241H4.54212Z" stroke="#FAE5B1"/>
</g>
<rect x="4" y="216.741" width="175" height="11.2593" fill="#CFB278"/>
<g filter="url(#filter2_i)">
<path d="M95.96 158.68V120.64H134.96V111.88H95.96V79.24H139.64V70.48H44.6V79.24H86.6V111.88H49.64V120.64H86.6V158.68H38.72V167.44H145.52V158.68H95.96ZM106.88 131.32C114.32 138.28 123.92 148 128.72 153.76L135.44 147.88C130.52 142.24 120.68 133 113.24 126.28L106.88 131.32Z" fill="#3F3C31"/>
</g>
<path d="M95.96 158.68H94.96V159.68H95.96V158.68ZM95.96 120.64V119.64H94.96V120.64H95.96ZM134.96 120.64V121.64H135.96V120.64H134.96ZM134.96 111.88H135.96V110.88H134.96V111.88ZM95.96 111.88H94.96V112.88H95.96V111.88ZM95.96 79.24V78.24H94.96V79.24H95.96ZM139.64 79.24V80.24H140.64V79.24H139.64ZM139.64 70.48H140.64V69.48H139.64V70.48ZM44.6 70.48V69.48H43.6V70.48H44.6ZM44.6 79.24H43.6V80.24H44.6V79.24ZM86.6 79.24H87.6V78.24H86.6V79.24ZM86.6 111.88V112.88H87.6V111.88H86.6ZM49.64 111.88V110.88H48.64V111.88H49.64ZM49.64 120.64H48.64V121.64H49.64V120.64ZM86.6 120.64H87.6V119.64H86.6V120.64ZM86.6 158.68V159.68H87.6V158.68H86.6ZM38.72 158.68V157.68H37.72V158.68H38.72ZM38.72 167.44H37.72V168.44H38.72V167.44ZM145.52 167.44V168.44H146.52V167.44H145.52ZM145.52 158.68H146.52V157.68H145.52V158.68ZM106.88 131.32L106.259 130.536L105.349 131.257L106.197 132.05L106.88 131.32ZM128.72 153.76L127.952 154.4L128.608 155.187L129.379 154.513L128.72 153.76ZM135.44 147.88L136.099 148.633L136.85 147.975L136.194 147.223L135.44 147.88ZM113.24 126.28L113.91 125.538L113.282 124.971L112.619 125.496L113.24 126.28ZM96.96 158.68V120.64H94.96V158.68H96.96ZM95.96 121.64H134.96V119.64H95.96V121.64ZM135.96 120.64V111.88H133.96V120.64H135.96ZM134.96 110.88H95.96V112.88H134.96V110.88ZM96.96 111.88V79.24H94.96V111.88H96.96ZM95.96 80.24H139.64V78.24H95.96V80.24ZM140.64 79.24V70.48H138.64V79.24H140.64ZM139.64 69.48H44.6V71.48H139.64V69.48ZM43.6 70.48V79.24H45.6V70.48H43.6ZM44.6 80.24H86.6V78.24H44.6V80.24ZM85.6 79.24V111.88H87.6V79.24H85.6ZM86.6 110.88H49.64V112.88H86.6V110.88ZM48.64 111.88V120.64H50.64V111.88H48.64ZM49.64 121.64H86.6V119.64H49.64V121.64ZM85.6 120.64V158.68H87.6V120.64H85.6ZM86.6 157.68H38.72V159.68H86.6V157.68ZM37.72 158.68V167.44H39.72V158.68H37.72ZM38.72 168.44H145.52V166.44H38.72V168.44ZM146.52 167.44V158.68H144.52V167.44H146.52ZM145.52 157.68H95.96V159.68H145.52V157.68ZM106.197 132.05C113.626 139 123.191 148.687 127.952 154.4L129.488 153.12C124.649 147.313 115.014 137.56 107.563 130.59L106.197 132.05ZM129.379 154.513L136.099 148.633L134.782 147.127L128.062 153.007L129.379 154.513ZM136.194 147.223C131.229 141.531 121.346 132.254 113.91 125.538L112.57 127.022C120.014 133.746 129.811 142.949 134.686 148.537L136.194 147.223ZM112.619 125.496L106.259 130.536L107.501 132.104L113.861 127.064L112.619 125.496Z" fill="#3F3C31"/>
</g>
<defs>
<filter id="filter0_d" x="0" y="0" width="183" height="236" filterUnits="userSpaceOnUse" color-interpolation-filters="sRGB">
<feFlood flood-opacity="0" result="BackgroundImageFix"/>
<feColorMatrix in="SourceAlpha" type="matrix" values="0 0 0 0 0 0 0 0 0 0 0 0 0 0 0 0 0 0 127 0"/>
<feOffset dy="4"/>
<feGaussianBlur stdDeviation="2"/>
<feColorMatrix type="matrix" values="0 0 0 0 0 0 0 0 0 0 0 0 0 0 0 0 0 0 0.25 0"/>
<feBlend mode="normal" in2="BackgroundImageFix" result="effect1_dropShadow"/>
<feBlend mode="normal" in="SourceGraphic" in2="effect1_dropShadow" result="shape"/>
</filter>
<filter id="filter1_b" x="0" y="-4" width="183" height="224.741" filterUnits="userSpaceOnUse" color-interpolation-filters="sRGB">
<feFlood flood-opacity="0" result="BackgroundImageFix"/>
<feGaussianBlur in="BackgroundImage" stdDeviation="2"/>
<feComposite in2="SourceAlpha" operator="in" result="effect1_backgroundBlur"/>
<feBlend mode="normal" in="SourceGraphic" in2="effect1_backgroundBlur" result="shape"/>
</filter>
<filter id="filter2_i" x="37.72" y="69.48" width="108.8" height="102.96" filterUnits="userSpaceOnUse" color-interpolation-filters="sRGB">
<feFlood flood-opacity="0" result="BackgroundImageFix"/>
<feBlend mode="normal" in="SourceGraphic" in2="BackgroundImageFix" result="shape"/>
<feColorMatrix in="SourceAlpha" type="matrix" values="0 0 0 0 0 0 0 0 0 0 0 0 0 0 0 0 0 0 127 0" result="hardAlpha"/>
<feOffset dy="4"/>
<feGaussianBlur stdDeviation="2"/>
<feComposite in2="hardAlpha" operator="arithmetic" k2="-1" k3="1"/>
<feColorMatrix type="matrix" values="0 0 0 0 0 0 0 0 0 0 0 0 0 0 0 0 0 0 0.25 0"/>
<feBlend mode="normal" in2="shape" result="effect1_innerShadow"/>
</filter>
</defs>
</svg>
