<svg width="179" height="212" viewBox="0 0 179 212" fill="none" xmlns="http://www.w3.org/2000/svg">
<g filter="url(#filter0_d)">
<g filter="url(#filter1_b)">
<path d="M21.9714 28.0405L89.9657 0L157.029 28.0405L171 193H8L21.9714 28.0405Z" fill="#FAE5B1"/>
<path d="M8.54414 192.5L22.4439 28.3865L89.9644 0.541393L156.556 28.3848L170.456 192.5H8.54414Z" stroke="#FAE5B1"/>
</g>
<rect x="8" y="193" width="163" height="11" fill="#CFB278"/>
<g filter="url(#filter2_i)">
<path d="M61.18 102.48C55.54 111.72 46.54 120.84 37.54 126.84C39.82 128.16 43.78 131.04 45.46 132.48C54.1 125.88 63.82 115.56 70.18 105.36L61.18 102.48ZM114.22 119.4C104.98 141.84 83.26 151.2 46.54 154.56C48.34 156.72 50.14 160.32 50.86 163.08C89.62 158.52 113.14 147.6 123.1 122.16L114.22 119.4ZM111.22 106.92C120.1 114.36 130.3 125.28 134.62 132.36L142.3 127.32C137.62 119.88 127.3 109.56 118.3 102.36L111.22 106.92ZM94.18 90.36V74.76H131.14V66.6H94.18V52.68H85.18V90.36H63.1V62.04H54.22V90.36H36.58V98.64H85.18V126C85.18 127.56 84.7 127.92 82.9 128.04C80.98 128.04 74.74 128.04 67.78 127.8C68.86 130.32 70.18 133.44 70.54 135.96C79.78 135.96 85.66 135.96 89.26 134.64C92.98 133.32 94.06 130.92 94.06 126.24V98.64H142.66V90.36H94.18Z" fill="#3F3C31"/>
</g>
<path d="M61.18 102.48L61.4848 101.528L60.736 101.288L60.3264 101.959L61.18 102.48ZM37.54 126.84L36.9853 126.008L35.6475 126.9L37.039 127.705L37.54 126.84ZM45.46 132.48L44.8092 133.239L45.4238 133.766L46.067 133.275L45.46 132.48ZM70.18 105.36L71.0286 105.889L71.7082 104.799L70.4848 104.408L70.18 105.36ZM114.22 119.4L114.517 118.445L113.644 118.174L113.295 119.019L114.22 119.4ZM46.54 154.56L46.4489 153.564L44.553 153.738L45.7718 155.2L46.54 154.56ZM50.86 163.08L49.8924 163.332L50.1122 164.175L50.9768 164.073L50.86 163.08ZM123.1 122.16L124.031 122.525L124.423 121.524L123.397 121.205L123.1 122.16ZM111.22 106.92L110.679 106.079L109.537 106.815L110.578 107.687L111.22 106.92ZM134.62 132.36L133.766 132.881L134.305 133.763L135.169 133.196L134.62 132.36ZM142.3 127.32L142.849 128.156L143.669 127.618L143.146 126.788L142.3 127.32ZM118.3 102.36L118.925 101.579L118.363 101.13L117.759 101.519L118.3 102.36ZM94.18 90.36H93.18V91.36H94.18V90.36ZM94.18 74.76V73.76H93.18V74.76H94.18ZM131.14 74.76V75.76H132.14V74.76H131.14ZM131.14 66.6H132.14V65.6H131.14V66.6ZM94.18 66.6H93.18V67.6H94.18V66.6ZM94.18 52.68H95.18V51.68H94.18V52.68ZM85.18 52.68V51.68H84.18V52.68H85.18ZM85.18 90.36V91.36H86.18V90.36H85.18ZM63.1 90.36H62.1V91.36H63.1V90.36ZM63.1 62.04H64.1V61.04H63.1V62.04ZM54.22 62.04V61.04H53.22V62.04H54.22ZM54.22 90.36V91.36H55.22V90.36H54.22ZM36.58 90.36V89.36H35.58V90.36H36.58ZM36.58 98.64H35.58V99.64H36.58V98.64ZM85.18 98.64H86.18V97.64H85.18V98.64ZM82.9 128.04V129.04H82.9333L82.9665 129.038L82.9 128.04ZM67.78 127.8L67.8145 126.801L66.2405 126.746L66.8609 128.194L67.78 127.8ZM70.54 135.96L69.5501 136.101L69.6727 136.96H70.54V135.96ZM89.26 134.64L88.9256 133.698L88.9157 133.701L89.26 134.64ZM94.06 98.64V97.64H93.06V98.64H94.06ZM142.66 98.64V99.64H143.66V98.64H142.66ZM142.66 90.36H143.66V89.36H142.66V90.36ZM60.3264 101.959C54.7673 111.066 45.8727 120.083 36.9853 126.008L38.0947 127.672C47.2073 121.597 56.3127 112.374 62.0336 103.001L60.3264 101.959ZM37.039 127.705C39.2598 128.991 43.1701 131.834 44.8092 133.239L46.1108 131.721C44.3899 130.246 40.3802 127.329 38.041 125.975L37.039 127.705ZM46.067 133.275C54.7967 126.606 64.6007 116.198 71.0286 105.889L69.3314 104.831C63.0393 114.922 53.4033 125.154 44.853 131.685L46.067 133.275ZM70.4848 104.408L61.4848 101.528L60.8752 103.432L69.8752 106.312L70.4848 104.408ZM113.295 119.019C104.285 140.902 83.105 150.21 46.4489 153.564L46.6311 155.556C83.415 152.19 105.675 142.778 115.145 119.781L113.295 119.019ZM45.7718 155.2C47.4713 157.24 49.2069 160.705 49.8924 163.332L51.8276 162.828C51.0731 159.935 49.2087 156.2 47.3082 153.92L45.7718 155.2ZM50.9768 164.073C89.8223 159.503 113.858 148.509 124.031 122.525L122.169 121.795C112.422 146.691 89.4177 157.537 50.7432 162.087L50.9768 164.073ZM123.397 121.205L114.517 118.445L113.923 120.355L122.803 123.115L123.397 121.205ZM110.578 107.687C119.415 115.091 129.525 125.93 133.766 132.881L135.474 131.839C131.075 124.63 120.785 113.629 111.862 106.153L110.578 107.687ZM135.169 133.196L142.849 128.156L141.751 126.484L134.071 131.524L135.169 133.196ZM143.146 126.788C138.38 119.21 127.961 108.808 118.925 101.579L117.675 103.141C126.639 110.312 136.86 120.55 141.454 127.852L143.146 126.788ZM117.759 101.519L110.679 106.079L111.761 107.761L118.841 103.201L117.759 101.519ZM95.18 90.36V74.76H93.18V90.36H95.18ZM94.18 75.76H131.14V73.76H94.18V75.76ZM132.14 74.76V66.6H130.14V74.76H132.14ZM131.14 65.6H94.18V67.6H131.14V65.6ZM95.18 66.6V52.68H93.18V66.6H95.18ZM94.18 51.68H85.18V53.68H94.18V51.68ZM84.18 52.68V90.36H86.18V52.68H84.18ZM85.18 89.36H63.1V91.36H85.18V89.36ZM64.1 90.36V62.04H62.1V90.36H64.1ZM63.1 61.04H54.22V63.04H63.1V61.04ZM53.22 62.04V90.36H55.22V62.04H53.22ZM54.22 89.36H36.58V91.36H54.22V89.36ZM35.58 90.36V98.64H37.58V90.36H35.58ZM36.58 99.64H85.18V97.64H36.58V99.64ZM84.18 98.64V126H86.18V98.64H84.18ZM84.18 126C84.18 126.351 84.1515 126.559 84.1156 126.684C84.0855 126.789 84.0597 126.805 84.0588 126.805C84.0452 126.817 83.9794 126.868 83.7717 126.92C83.5604 126.973 83.263 127.014 82.8335 127.042L82.9665 129.038C83.8384 128.98 84.7413 128.862 85.3712 128.315C86.0713 127.706 86.18 126.818 86.18 126H84.18ZM82.9 127.04C80.9821 127.04 74.7564 127.04 67.8145 126.801L67.7455 128.799C74.7236 129.04 80.9779 129.04 82.9 129.04V127.04ZM66.8609 128.194C67.9561 130.75 69.2126 133.739 69.5501 136.101L71.53 135.819C71.1474 133.141 69.7639 129.89 68.6991 127.406L66.8609 128.194ZM70.54 136.96C75.1502 136.96 78.9608 136.96 82.0686 136.794C85.1657 136.627 87.6588 136.292 89.6043 135.579L88.9157 133.701C87.2613 134.308 85.0143 134.633 81.9614 134.796C78.9192 134.96 75.1698 134.96 70.54 134.96V136.96ZM89.5944 135.582C91.619 134.864 93.05 133.8 93.9333 132.178C94.7901 130.604 95.06 128.629 95.06 126.24H93.06C93.06 128.531 92.79 130.096 92.1767 131.222C91.59 132.3 90.621 133.096 88.9256 133.698L89.5944 135.582ZM95.06 126.24V98.64H93.06V126.24H95.06ZM94.06 99.64H142.66V97.64H94.06V99.64ZM143.66 98.64V90.36H141.66V98.64H143.66ZM142.66 89.36H94.18V91.36H142.66V89.36Z" fill="#3F3C31"/>
</g>
<defs>
<filter id="filter0_d" x="4" y="0" width="171" height="212" filterUnits="userSpaceOnUse" color-interpolation-filters="sRGB">
<feFlood flood-opacity="0" result="BackgroundImageFix"/>
<feColorMatrix in="SourceAlpha" type="matrix" values="0 0 0 0 0 0 0 0 0 0 0 0 0 0 0 0 0 0 127 0"/>
<feOffset dy="4"/>
<feGaussianBlur stdDeviation="2"/>
<feColorMatrix type="matrix" values="0 0 0 0 0 0 0 0 0 0 0 0 0 0 0 0 0 0 0.25 0"/>
<feBlend mode="normal" in2="BackgroundImageFix" result="effect1_dropShadow"/>
<feBlend mode="normal" in="SourceGraphic" in2="effect1_dropShadow" result="shape"/>
</filter>
<filter id="filter1_b" x="4" y="-4" width="171" height="201" filterUnits="userSpaceOnUse" color-interpolation-filters="sRGB">
<feFlood flood-opacity="0" result="BackgroundImageFix"/>
<feGaussianBlur in="BackgroundImage" stdDeviation="2"/>
<feComposite in2="SourceAlpha" operator="in" result="effect1_backgroundBlur"/>
<feBlend mode="normal" in="SourceGraphic" in2="effect1_backgroundBlur" result="shape"/>
</filter>
<filter id="filter2_i" x="35.58" y="51.68" width="108.089" height="116.495" filterUnits="userSpaceOnUse" color-interpolation-filters="sRGB">
<feFlood flood-opacity="0" result="BackgroundImageFix"/>
<feBlend mode="normal" in="SourceGraphic" in2="BackgroundImageFix" result="shape"/>
<feColorMatrix in="SourceAlpha" type="matrix" values="0 0 0 0 0 0 0 0 0 0 0 0 0 0 0 0 0 0 127 0" result="hardAlpha"/>
<feOffset dy="4"/>
<feGaussianBlur stdDeviation="2"/>
<feComposite in2="hardAlpha" operator="arithmetic" k2="-1" k3="1"/>
<feColorMatrix type="matrix" values="0 0 0 0 0 0 0 0 0 0 0 0 0 0 0 0 0 0 0.25 0"/>
<feBlend mode="normal" in2="shape" result="effect1_innerShadow"/>
</filter>
</defs>
</svg>
