<svg width="183" height="236" viewBox="0 0 183 236" fill="none" xmlns="http://www.w3.org/2000/svg">
<g filter="url(#filter0_d)">
<g filter="url(#filter1_b)">
<path d="M19 31.4897L92 0L164 31.4897L179 216.741H4L19 31.4897Z" fill="#FAE5B1"/>
<path d="M4.54212 216.241L19.4741 31.8297L91.9986 0.545129L163.526 31.828L178.458 216.241H4.54212Z" stroke="#FAE5B1"/>
</g>
<rect x="4" y="216.741" width="175" height="11.2593" fill="#CFB278"/>
<g filter="url(#filter2_i)">
<path d="M134.68 65.68C132.4 69.76 127.96 75.64 124.6 79.24L130 82.6C133.6 79.24 138.04 74.44 142.12 69.76L134.68 65.68ZM143.08 92.56C138.28 88.6 128.8 83.08 121.48 79.72L118 83.08C117.16 78.52 116.68 73.72 116.44 68.8H44.2V76.84H108.88C111.28 97.24 116.92 114.64 135.28 116.8C141.04 117.76 144.28 114.04 145.72 104.2C143.92 103.24 141.76 101.32 140.2 99.64C139.6 105.76 138.64 109.12 136.96 108.88C126.64 108.16 121.12 98.56 118.48 85.84C125.56 89.56 133.72 94.6 137.8 98.32L143.08 92.56ZM130 135.88C133.72 132.76 138.4 127.84 142.72 123.16L135.16 119.2C132.76 123.16 127.96 129.28 124.6 132.76L130 135.88ZM144.4 146.32C139.24 142.12 129.16 136.48 121.48 133L119.2 135.28C118.24 128.56 117.76 121.12 117.64 113.44H91.36V80.68H82.6V113.44H63.04V93.04C67.6 90.28 71.8 87.28 75.16 84.16L67.48 81.28C60.16 87.64 47.08 93.28 35.56 96.64C37.24 98.32 39.88 101.92 40.84 103.6C45.28 102.04 49.96 100 54.52 97.72V113.44H37.24V121.6H54.4C53.68 136.72 50.32 153.16 35.44 166.36C37.6 167.68 40.72 170.44 42.04 172.24C58.6 157.6 62.32 138.88 62.92 121.6H82.6V171.04H91.36V121.6H109.72C111.16 147.88 115.36 169.84 135.88 172.12C142.24 173.32 145.36 168.88 146.8 156.76C145 155.8 142.72 153.76 141.04 151.84C140.56 159.64 139.48 164.32 137.8 164.08C127.48 163.24 122.44 153.52 119.92 139.72C127 143.56 134.92 148.36 139.12 152.08L144.4 146.32Z" fill="#3F3C31"/>
</g>
<path d="M134.68 65.68L135.161 64.8032L134.291 64.3262L133.807 65.1922L134.68 65.68ZM124.6 79.24L123.869 78.5577L123.039 79.4466L124.072 80.0891L124.6 79.24ZM130 82.6L129.472 83.4491L130.122 83.8538L130.682 83.3311L130 82.6ZM142.12 69.76L142.874 70.4171L143.69 69.4806L142.601 68.8832L142.12 69.76ZM143.08 92.56L143.817 93.2357L144.529 92.4591L143.716 91.7886L143.08 92.56ZM121.48 79.72L121.897 78.8112L121.277 78.5263L120.785 79.0006L121.48 79.72ZM118 83.08L117.017 83.2612L117.354 85.0937L118.695 83.7994L118 83.08ZM116.44 68.8L117.439 68.7513L117.392 67.8H116.44V68.8ZM44.2 68.8V67.8H43.2V68.8H44.2ZM44.2 76.84H43.2V77.84H44.2V76.84ZM108.88 76.84L109.873 76.7232L109.769 75.84H108.88V76.84ZM135.28 116.8L135.444 115.814L135.421 115.81L135.397 115.807L135.28 116.8ZM145.72 104.2L146.709 104.345L146.811 103.649L146.191 103.318L145.72 104.2ZM140.2 99.64L140.933 98.9595L139.421 97.332L139.205 99.5424L140.2 99.64ZM136.96 108.88L137.101 107.89L137.066 107.885L137.03 107.882L136.96 108.88ZM118.48 85.84L118.945 84.9548L117.071 83.9698L117.501 86.0432L118.48 85.84ZM137.8 98.32L137.126 99.059L137.863 99.7309L138.537 98.9957L137.8 98.32ZM130 135.88L129.5 136.746L130.106 137.096L130.643 136.646L130 135.88ZM142.72 123.16L143.455 123.838L144.34 122.88L143.184 122.274L142.72 123.16ZM135.16 119.2L135.624 118.314L134.792 117.878L134.305 118.682L135.16 119.2ZM124.6 132.76L123.881 132.065L122.992 132.986L124.1 133.626L124.6 132.76ZM144.4 146.32L145.137 146.996L145.854 146.214L145.031 145.544L144.4 146.32ZM121.48 133L121.893 132.089L121.262 131.803L120.773 132.293L121.48 133ZM119.2 135.28L118.21 135.421L118.493 137.401L119.907 135.987L119.2 135.28ZM117.64 113.44L118.64 113.424L118.625 112.44H117.64V113.44ZM91.36 113.44H90.36V114.44H91.36V113.44ZM91.36 80.68H92.36V79.68H91.36V80.68ZM82.6 80.68V79.68H81.6V80.68H82.6ZM82.6 113.44V114.44H83.6V113.44H82.6ZM63.04 113.44H62.04V114.44H63.04V113.44ZM63.04 93.04L62.5222 92.1845L62.04 92.4764V93.04H63.04ZM75.16 84.16L75.8405 84.8928L77.0261 83.7918L75.5111 83.2237L75.16 84.16ZM67.48 81.28L67.8311 80.3437L67.2736 80.1346L66.8241 80.5251L67.48 81.28ZM35.56 96.64L35.28 95.68L33.6587 96.1529L34.8529 97.3471L35.56 96.64ZM40.84 103.6L39.9718 104.096L40.3852 104.82L41.1715 104.543L40.84 103.6ZM54.52 97.72H55.52V96.102L54.0728 96.8256L54.52 97.72ZM54.52 113.44V114.44H55.52V113.44H54.52ZM37.24 113.44V112.44H36.24V113.44H37.24ZM37.24 121.6H36.24V122.6H37.24V121.6ZM54.4 121.6L55.3989 121.648L55.4488 120.6H54.4V121.6ZM35.44 166.36L34.7764 165.612L33.7655 166.509L34.9186 167.213L35.44 166.36ZM42.04 172.24L41.2336 172.831L41.8815 173.715L42.7023 172.989L42.04 172.24ZM62.92 121.6V120.6H61.9541L61.9206 121.565L62.92 121.6ZM82.6 121.6H83.6V120.6H82.6V121.6ZM82.6 171.04H81.6V172.04H82.6V171.04ZM91.36 171.04V172.04H92.36V171.04H91.36ZM91.36 121.6V120.6H90.36V121.6H91.36ZM109.72 121.6L110.719 121.545L110.667 120.6H109.72V121.6ZM135.88 172.12L136.065 171.137L136.028 171.13L135.99 171.126L135.88 172.12ZM146.8 156.76L147.793 156.878L147.874 156.199L147.271 155.878L146.8 156.76ZM141.04 151.84L141.793 151.181L140.191 149.351L140.042 151.779L141.04 151.84ZM137.8 164.08L137.941 163.09L137.911 163.086L137.881 163.083L137.8 164.08ZM119.92 139.72L120.397 138.841L118.561 137.845L118.936 139.9L119.92 139.72ZM139.12 152.08L138.457 152.829L139.193 153.48L139.857 152.756L139.12 152.08ZM133.807 65.1922C131.573 69.1893 127.185 75.005 123.869 78.5577L125.331 79.9223C128.735 76.275 133.227 70.3307 135.553 66.1678L133.807 65.1922ZM124.072 80.0891L129.472 83.4491L130.528 81.7509L125.128 78.3909L124.072 80.0891ZM130.682 83.3311C134.32 79.9362 138.786 75.1062 142.874 70.4171L141.366 69.1029C137.294 73.7738 132.88 78.5438 129.318 81.8689L130.682 83.3311ZM142.601 68.8832L135.161 64.8032L134.199 66.5568L141.639 70.6368L142.601 68.8832ZM143.716 91.7886C138.825 87.7531 129.26 82.1909 121.897 78.8112L121.063 80.6288C128.34 83.9691 137.735 89.4469 142.444 93.3314L143.716 91.7886ZM120.785 79.0006L117.305 82.3606L118.695 83.7994L122.175 80.4394L120.785 79.0006ZM118.983 82.8988C118.154 78.3936 117.677 73.6396 117.439 68.7513L115.441 68.8487C115.683 73.8004 116.166 78.6464 117.017 83.2612L118.983 82.8988ZM116.44 67.8H44.2V69.8H116.44V67.8ZM43.2 68.8V76.84H45.2V68.8H43.2ZM44.2 77.84H108.88V75.84H44.2V77.84ZM107.887 76.9568C109.09 87.1865 111.117 96.7993 115.222 104.148C119.359 111.554 125.618 116.67 135.163 117.793L135.397 115.807C126.582 114.77 120.841 110.106 116.968 103.172C113.063 96.1807 111.07 86.8935 109.873 76.7232L107.887 76.9568ZM135.116 117.786C136.672 118.046 138.123 118 139.446 117.571C140.779 117.141 141.923 116.342 142.886 115.192C144.781 112.932 145.983 109.31 146.709 104.345L144.731 104.055C144.017 108.93 142.879 112.088 141.354 113.908C140.607 114.798 139.771 115.364 138.831 115.669C137.882 115.975 136.768 116.034 135.444 115.814L135.116 117.786ZM146.191 103.318C144.535 102.435 142.464 100.608 140.933 98.9595L139.467 100.32C141.056 102.032 143.305 104.045 145.249 105.082L146.191 103.318ZM139.205 99.5424C138.906 102.591 138.524 104.867 138.036 106.329C137.79 107.067 137.547 107.505 137.344 107.733C137.173 107.925 137.111 107.891 137.101 107.89L136.819 109.87C137.649 109.989 138.337 109.625 138.837 109.063C139.306 108.537 139.655 107.798 139.934 106.961C140.496 105.273 140.894 102.809 141.195 99.7376L139.205 99.5424ZM137.03 107.882C132.212 107.546 128.503 105.154 125.646 101.268C122.766 97.3507 120.765 91.928 119.459 85.6368L117.501 86.0432C118.835 92.472 120.914 98.2093 124.034 102.452C127.177 106.726 131.388 109.494 136.89 109.878L137.03 107.882ZM118.015 86.7252C125.081 90.4377 133.145 95.4294 137.126 99.059L138.474 97.581C134.295 93.7706 126.039 88.6822 118.945 84.9548L118.015 86.7252ZM138.537 98.9957L143.817 93.2357L142.343 91.8843L137.063 97.6443L138.537 98.9957ZM130.643 136.646C134.419 133.479 139.14 128.512 143.455 123.838L141.985 122.482C137.66 127.168 133.021 132.041 129.357 135.114L130.643 136.646ZM143.184 122.274L135.624 118.314L134.696 120.086L142.256 124.046L143.184 122.274ZM134.305 118.682C131.948 122.571 127.195 128.633 123.881 132.065L125.319 133.455C128.725 129.927 133.572 123.749 136.015 119.718L134.305 118.682ZM124.1 133.626L129.5 136.746L130.5 135.014L125.1 131.894L124.1 133.626ZM145.031 145.544C139.775 141.266 129.606 135.584 121.893 132.089L121.067 133.911C128.714 137.376 138.705 142.974 143.769 147.096L145.031 145.544ZM120.773 132.293L118.493 134.573L119.907 135.987L122.187 133.707L120.773 132.293ZM120.19 135.139C119.238 128.472 118.759 121.075 118.64 113.424L116.64 113.456C116.761 121.165 117.242 128.648 118.21 135.421L120.19 135.139ZM117.64 112.44H91.36V114.44H117.64V112.44ZM92.36 113.44V80.68H90.36V113.44H92.36ZM91.36 79.68H82.6V81.68H91.36V79.68ZM81.6 80.68V113.44H83.6V80.68H81.6ZM82.6 112.44H63.04V114.44H82.6V112.44ZM64.04 113.44V93.04H62.04V113.44H64.04ZM63.5578 93.8955C68.1548 91.1131 72.4152 88.0734 75.8405 84.8928L74.4796 83.4272C71.1848 86.4866 67.0452 89.4469 62.5222 92.1845L63.5578 93.8955ZM75.5111 83.2237L67.8311 80.3437L67.1289 82.2163L74.8089 85.0963L75.5111 83.2237ZM66.8241 80.5251C59.6686 86.7422 46.7556 92.3329 35.28 95.68L35.84 97.6C47.4044 94.2271 60.6514 88.5378 68.1359 82.0349L66.8241 80.5251ZM34.8529 97.3471C36.462 98.9562 39.0498 102.483 39.9718 104.096L41.7082 103.104C40.7102 101.357 38.018 97.6838 36.2671 95.9329L34.8529 97.3471ZM41.1715 104.543C45.6588 102.967 50.3779 100.909 54.9672 98.6144L54.0728 96.8256C49.5421 99.0909 44.9012 101.113 40.5085 102.657L41.1715 104.543ZM53.52 97.72V113.44H55.52V97.72H53.52ZM54.52 112.44H37.24V114.44H54.52V112.44ZM36.24 113.44V121.6H38.24V113.44H36.24ZM37.24 122.6H54.4V120.6H37.24V122.6ZM53.4011 121.552C52.6865 136.559 49.3624 152.673 34.7764 165.612L36.1036 167.108C51.2776 153.647 54.6735 136.881 55.3989 121.648L53.4011 121.552ZM34.9186 167.213C36.9875 168.478 40.0034 171.154 41.2336 172.831L42.8464 171.649C41.4366 169.726 38.2125 166.882 35.9615 165.507L34.9186 167.213ZM42.7023 172.989C59.5639 158.083 63.3155 139.027 63.9194 121.635L61.9206 121.565C61.3245 138.733 57.6361 157.117 41.3777 171.491L42.7023 172.989ZM62.92 122.6H82.6V120.6H62.92V122.6ZM81.6 121.6V171.04H83.6V121.6H81.6ZM82.6 172.04H91.36V170.04H82.6V172.04ZM92.36 171.04V121.6H90.36V171.04H92.36ZM91.36 122.6H109.72V120.6H91.36V122.6ZM108.722 121.655C109.442 134.798 110.855 147.012 114.723 156.246C116.663 160.878 119.238 164.805 122.693 167.724C126.157 170.651 130.457 172.524 135.77 173.114L135.99 171.126C131.043 170.576 127.123 168.849 123.984 166.196C120.834 163.535 118.422 159.902 116.567 155.474C112.845 146.588 111.438 134.682 110.719 121.545L108.722 121.655ZM135.695 173.103C137.407 173.426 138.985 173.385 140.407 172.871C141.838 172.354 143.025 171.389 144.001 170.013C145.912 167.318 147.071 162.956 147.793 156.878L145.807 156.642C145.089 162.684 143.968 166.602 142.369 168.857C141.59 169.956 140.714 170.634 139.727 170.99C138.73 171.35 137.533 171.414 136.065 171.137L135.695 173.103ZM147.271 155.878C145.622 154.999 143.435 153.059 141.793 151.181L140.287 152.499C142.005 154.461 144.378 156.601 146.329 157.642L147.271 155.878ZM140.042 151.779C139.803 155.661 139.417 158.705 138.901 160.728C138.64 161.75 138.365 162.429 138.111 162.818C137.848 163.219 137.787 163.068 137.941 163.09L137.659 165.07C138.653 165.212 139.357 164.566 139.784 163.913C140.22 163.248 140.56 162.315 140.839 161.222C141.403 159.015 141.797 155.819 142.038 151.901L140.042 151.779ZM137.881 163.083C133.074 162.692 129.49 160.254 126.765 156.202C124.012 152.109 122.154 146.387 120.904 139.54L118.936 139.9C120.206 146.853 122.128 152.891 125.105 157.318C128.11 161.786 132.206 164.628 137.719 165.077L137.881 163.083ZM119.443 140.599C126.523 144.439 134.351 149.192 138.457 152.829L139.783 151.331C135.489 147.528 127.477 142.681 120.397 138.841L119.443 140.599ZM139.857 152.756L145.137 146.996L143.663 145.644L138.383 151.404L139.857 152.756Z" fill="#3F3C31"/>
</g>
<defs>
<filter id="filter0_d" x="0" y="0" width="183" height="236" filterUnits="userSpaceOnUse" color-interpolation-filters="sRGB">
<feFlood flood-opacity="0" result="BackgroundImageFix"/>
<feColorMatrix in="SourceAlpha" type="matrix" values="0 0 0 0 0 0 0 0 0 0 0 0 0 0 0 0 0 0 127 0"/>
<feOffset dy="4"/>
<feGaussianBlur stdDeviation="2"/>
<feColorMatrix type="matrix" values="0 0 0 0 0 0 0 0 0 0 0 0 0 0 0 0 0 0 0.25 0"/>
<feBlend mode="normal" in2="BackgroundImageFix" result="effect1_dropShadow"/>
<feBlend mode="normal" in="SourceGraphic" in2="effect1_dropShadow" result="shape"/>
</filter>
<filter id="filter1_b" x="0" y="-4" width="183" height="224.741" filterUnits="userSpaceOnUse" color-interpolation-filters="sRGB">
<feFlood flood-opacity="0" result="BackgroundImageFix"/>
<feGaussianBlur in="BackgroundImage" stdDeviation="2"/>
<feComposite in2="SourceAlpha" operator="in" result="effect1_backgroundBlur"/>
<feBlend mode="normal" in="SourceGraphic" in2="effect1_backgroundBlur" result="shape"/>
</filter>
<filter id="filter2_i" x="33.6587" y="64.3262" width="114.215" height="113.389" filterUnits="userSpaceOnUse" color-interpolation-filters="sRGB">
<feFlood flood-opacity="0" result="BackgroundImageFix"/>
<feBlend mode="normal" in="SourceGraphic" in2="BackgroundImageFix" result="shape"/>
<feColorMatrix in="SourceAlpha" type="matrix" values="0 0 0 0 0 0 0 0 0 0 0 0 0 0 0 0 0 0 127 0" result="hardAlpha"/>
<feOffset dy="4"/>
<feGaussianBlur stdDeviation="2"/>
<feComposite in2="hardAlpha" operator="arithmetic" k2="-1" k3="1"/>
<feColorMatrix type="matrix" values="0 0 0 0 0 0 0 0 0 0 0 0 0 0 0 0 0 0 0.25 0"/>
<feBlend mode="normal" in2="shape" result="effect1_innerShadow"/>
</filter>
</defs>
</svg>
