<svg width="183" height="223" viewBox="0 0 183 223" fill="none" xmlns="http://www.w3.org/2000/svg">
<g filter="url(#filter0_d)">
<g filter="url(#filter1_b)">
<path d="M18.9143 29.4933L91.4971 0L163.086 29.4933L178 203H4L18.9143 29.4933Z" fill="#FAE5B1"/>
<path d="M4.54482 202.5L19.3862 29.8413L91.4958 0.540232L162.614 29.8396L177.455 202.5H4.54482Z" stroke="#FAE5B1"/>
</g>
<rect x="4" y="203" width="174.028" height="11.2593" fill="#CFB278"/>
<g filter="url(#filter2_i)">
<path d="M84.26 144.6L65.54 148.2V113.16H83.42V105.36H65.54V92.76H80.3V85.08H46.7C53.54 77.88 58.58 70.32 62.3 63.84C69.26 70.2 76.94 79.08 80.9 84.72L86.9 77.88C82.22 71.64 72.74 62.16 64.94 55.68H57.02C52.7 65.16 44.9 77.28 33.62 86.4C35.3 87.6 37.94 90.36 39.26 92.16C40.94 90.72 42.62 89.16 44.18 87.6V92.76H57.74V105.36H38.18V113.16H57.74V149.64C49.7 151.08 42.38 152.52 36.62 153.48L38.66 161.52C51.26 159 68.66 155.64 84.86 152.16L84.26 144.6ZM40.58 121.56C43.1 128.64 45.14 137.76 45.5 143.88L52.22 141.96C51.62 136.08 49.46 126.96 46.82 120L40.58 121.56ZM74.9 142.44C77.06 136.8 79.82 128.04 82.1 120.72L75.14 118.56C73.94 125.04 71.18 134.64 69.26 140.4L74.9 142.44ZM98.06 89.76H131.06V103.92H98.06V89.76ZM131.06 68.64V81.96H98.06V68.64H131.06ZM138.26 116.76C134.42 120.84 128.3 126 122.9 130.08C120.5 124.32 118.58 118.2 117.02 111.72H139.58V60.6H89.66V153.12C85.94 153.96 82.58 154.68 79.58 155.28L82.1 163.8C93.14 161.28 107.54 157.68 121.1 154.08L120.26 145.92C112.7 147.72 105.14 149.52 98.06 151.2V111.72H108.98C114.26 136.2 124.22 155.76 141.62 165.36C142.94 163.08 145.58 159.6 147.5 157.92C138.5 153.6 131.54 146.16 126.26 136.8C132.02 132.96 138.98 127.68 144.38 122.76L138.26 116.76Z" fill="#3F3C31"/>
</g>
<path d="M84.26 144.6L85.2569 144.521L85.1685 143.407L84.0712 143.618L84.26 144.6ZM65.54 148.2H64.54V149.411L65.7289 149.182L65.54 148.2ZM65.54 113.16V112.16H64.54V113.16H65.54ZM83.42 113.16V114.16H84.42V113.16H83.42ZM83.42 105.36H84.42V104.36H83.42V105.36ZM65.54 105.36H64.54V106.36H65.54V105.36ZM65.54 92.76V91.76H64.54V92.76H65.54ZM80.3 92.76V93.76H81.3V92.76H80.3ZM80.3 85.08H81.3V84.08H80.3V85.08ZM46.7 85.08L45.975 84.3912L44.3707 86.08H46.7V85.08ZM62.3 63.84L62.9746 63.1018L62.0538 62.2604L61.4327 63.3421L62.3 63.84ZM80.9 84.72L80.0816 85.2946L80.8127 86.3359L81.6518 85.3794L80.9 84.72ZM86.9 77.88L87.6518 78.5394L88.187 77.9293L87.7 77.28L86.9 77.88ZM64.94 55.68L65.579 54.9108L65.3012 54.68H64.94V55.68ZM57.02 55.68V54.68H56.3768L56.11 55.2653L57.02 55.68ZM33.62 86.4L32.9913 85.6224L31.9685 86.4493L33.0388 87.2137L33.62 86.4ZM39.26 92.16L38.4536 92.7514L39.0916 93.6214L39.9108 92.9193L39.26 92.16ZM44.18 87.6H45.18V85.1858L43.4729 86.8929L44.18 87.6ZM44.18 92.76H43.18V93.76H44.18V92.76ZM57.74 92.76H58.74V91.76H57.74V92.76ZM57.74 105.36V106.36H58.74V105.36H57.74ZM38.18 105.36V104.36H37.18V105.36H38.18ZM38.18 113.16H37.18V114.16H38.18V113.16ZM57.74 113.16H58.74V112.16H57.74V113.16ZM57.74 149.64L57.9163 150.624L58.74 150.477V149.64H57.74ZM36.62 153.48L36.4556 152.494L35.3834 152.672L35.6507 153.726L36.62 153.48ZM38.66 161.52L37.6907 161.766L37.9244 162.687L38.8561 162.501L38.66 161.52ZM84.86 152.16L85.07 153.138L85.9261 152.954L85.8569 152.081L84.86 152.16ZM40.58 121.56L40.3375 120.59L39.2684 120.857L39.6379 121.895L40.58 121.56ZM45.5 143.88L44.5017 143.939L44.575 145.184L45.7747 144.842L45.5 143.88ZM52.22 141.96L52.4947 142.922L53.2998 142.691L53.2148 141.858L52.22 141.96ZM46.82 120L47.755 119.645L47.4398 118.814L46.5775 119.03L46.82 120ZM74.9 142.44L74.5599 143.38L75.4828 143.714L75.8339 142.798L74.9 142.44ZM82.1 120.72L83.0548 121.017L83.3524 120.062L82.3964 119.765L82.1 120.72ZM75.14 118.56L75.4364 117.605L74.3616 117.271L74.1567 118.378L75.14 118.56ZM69.26 140.4L68.3113 140.084L68.003 141.009L68.9199 141.34L69.26 140.4ZM98.06 89.76V88.76H97.06V89.76H98.06ZM131.06 89.76H132.06V88.76H131.06V89.76ZM131.06 103.92V104.92H132.06V103.92H131.06ZM98.06 103.92H97.06V104.92H98.06V103.92ZM131.06 68.64H132.06V67.64H131.06V68.64ZM131.06 81.96V82.96H132.06V81.96H131.06ZM98.06 81.96H97.06V82.96H98.06V81.96ZM98.06 68.64V67.64H97.06V68.64H98.06ZM138.26 116.76L138.96 116.046L138.231 115.331L137.532 116.075L138.26 116.76ZM122.9 130.08L121.977 130.465L122.473 131.656L123.503 130.878L122.9 130.08ZM117.02 111.72V110.72H115.751L116.048 111.954L117.02 111.72ZM139.58 111.72V112.72H140.58V111.72H139.58ZM139.58 60.6H140.58V59.6H139.58V60.6ZM89.66 60.6V59.6H88.66V60.6H89.66ZM89.66 153.12L89.8803 154.095L90.66 153.919V153.12H89.66ZM79.58 155.28L79.3839 154.299L78.3106 154.514L78.6211 155.564L79.58 155.28ZM82.1 163.8L81.1411 164.084L81.4073 164.984L82.3225 164.775L82.1 163.8ZM121.1 154.08L121.357 155.047L122.182 154.827L122.095 153.978L121.1 154.08ZM120.26 145.92L121.255 145.818L121.138 144.683L120.028 144.947L120.26 145.92ZM98.06 151.2H97.06V152.465L98.2909 152.173L98.06 151.2ZM98.06 111.72V110.72H97.06V111.72H98.06ZM108.98 111.72L109.958 111.509L109.787 110.72H108.98V111.72ZM141.62 165.36L141.137 166.236L141.995 166.709L142.485 165.861L141.62 165.36ZM147.5 157.92L148.159 158.673L149.299 157.674L147.933 157.018L147.5 157.92ZM126.26 136.8L125.705 135.968L124.933 136.483L125.389 137.291L126.26 136.8ZM144.38 122.76L145.053 123.499L145.836 122.787L145.08 122.046L144.38 122.76ZM84.0712 143.618L65.3512 147.218L65.7289 149.182L84.4488 145.582L84.0712 143.618ZM66.54 148.2V113.16H64.54V148.2H66.54ZM65.54 114.16H83.42V112.16H65.54V114.16ZM84.42 113.16V105.36H82.42V113.16H84.42ZM83.42 104.36H65.54V106.36H83.42V104.36ZM66.54 105.36V92.76H64.54V105.36H66.54ZM65.54 93.76H80.3V91.76H65.54V93.76ZM81.3 92.76V85.08H79.3V92.76H81.3ZM80.3 84.08H46.7V86.08H80.3V84.08ZM47.425 85.7687C54.3357 78.4943 59.421 70.8636 63.1673 64.3379L61.4327 63.3421C57.739 69.7764 52.7443 77.2657 45.975 84.3912L47.425 85.7687ZM61.6254 64.5782C68.5338 70.891 76.165 79.7165 80.0816 85.2946L81.7184 84.1454C77.715 78.4435 69.9862 69.509 62.9746 63.1018L61.6254 64.5782ZM81.6518 85.3794L87.6518 78.5394L86.1482 77.2206L80.1482 84.0606L81.6518 85.3794ZM87.7 77.28C82.9577 70.9569 73.4154 61.421 65.579 54.9108L64.301 56.4492C72.0646 62.8989 81.4823 72.3231 86.1 78.48L87.7 77.28ZM64.94 54.68H57.02V56.68H64.94V54.68ZM56.11 55.2653C51.8364 64.6436 44.1209 76.6239 32.9913 85.6224L34.2487 87.1776C45.6791 77.9361 53.5636 65.6764 57.93 56.0947L56.11 55.2653ZM33.0388 87.2137C34.6113 88.3369 37.1789 91.0132 38.4536 92.7514L40.0664 91.5686C38.7011 89.7068 35.9887 86.863 34.2012 85.5863L33.0388 87.2137ZM39.9108 92.9193C41.6109 91.462 43.3096 89.8846 44.8871 88.3071L43.4729 86.8929C41.9304 88.4354 40.2691 89.978 38.6092 91.4007L39.9108 92.9193ZM43.18 87.6V92.76H45.18V87.6H43.18ZM44.18 93.76H57.74V91.76H44.18V93.76ZM56.74 92.76V105.36H58.74V92.76H56.74ZM57.74 104.36H38.18V106.36H57.74V104.36ZM37.18 105.36V113.16H39.18V105.36H37.18ZM38.18 114.16H57.74V112.16H38.18V114.16ZM56.74 113.16V149.64H58.74V113.16H56.74ZM57.5637 148.656C49.4948 150.101 42.212 151.534 36.4556 152.494L36.7844 154.466C42.548 153.506 49.9052 152.059 57.9163 150.624L57.5637 148.656ZM35.6507 153.726L37.6907 161.766L39.6293 161.274L37.5893 153.234L35.6507 153.726ZM38.8561 162.501C51.4468 159.982 68.8608 156.62 85.07 153.138L84.65 151.182C68.4592 154.66 51.0732 158.018 38.4639 160.539L38.8561 162.501ZM85.8569 152.081L85.2569 144.521L83.2631 144.679L83.8631 152.239L85.8569 152.081ZM39.6379 121.895C42.1346 128.91 44.1486 137.935 44.5017 143.939L46.4983 143.821C46.1314 137.585 44.0654 128.37 41.5221 121.225L39.6379 121.895ZM45.7747 144.842L52.4947 142.922L51.9453 140.998L45.2253 142.918L45.7747 144.842ZM53.2148 141.858C52.6051 135.883 50.4227 126.678 47.755 119.645L45.885 120.355C48.4973 127.242 50.6349 136.277 51.2252 142.062L53.2148 141.858ZM46.5775 119.03L40.3375 120.59L40.8225 122.53L47.0625 120.97L46.5775 119.03ZM75.8339 142.798C78.0076 137.122 80.7776 128.328 83.0548 121.017L81.1452 120.423C78.8624 127.752 76.1124 136.478 73.9661 142.082L75.8339 142.798ZM82.3964 119.765L75.4364 117.605L74.8436 119.515L81.8036 121.675L82.3964 119.765ZM74.1567 118.378C72.9685 124.794 70.2241 134.345 68.3113 140.084L70.2087 140.716C72.1359 134.935 74.9115 125.286 76.1233 118.742L74.1567 118.378ZM68.9199 141.34L74.5599 143.38L75.2401 141.5L69.6001 139.46L68.9199 141.34ZM98.06 90.76H131.06V88.76H98.06V90.76ZM130.06 89.76V103.92H132.06V89.76H130.06ZM131.06 102.92H98.06V104.92H131.06V102.92ZM99.06 103.92V89.76H97.06V103.92H99.06ZM130.06 68.64V81.96H132.06V68.64H130.06ZM131.06 80.96H98.06V82.96H131.06V80.96ZM99.06 81.96V68.64H97.06V81.96H99.06ZM98.06 69.64H131.06V67.64H98.06V69.64ZM137.532 116.075C133.747 120.096 127.677 125.217 122.297 129.282L123.503 130.878C128.923 126.783 135.093 121.584 138.988 117.445L137.532 116.075ZM123.823 129.695C121.447 123.993 119.542 117.924 117.992 111.486L116.048 111.954C117.618 118.476 119.553 124.647 121.977 130.465L123.823 129.695ZM117.02 112.72H139.58V110.72H117.02V112.72ZM140.58 111.72V60.6H138.58V111.72H140.58ZM139.58 59.6H89.66V61.6H139.58V59.6ZM88.66 60.6V153.12H90.66V60.6H88.66ZM89.4397 152.145C85.7259 152.983 82.3741 153.701 79.3839 154.299L79.7761 156.261C82.7859 155.659 86.1541 154.937 89.8803 154.095L89.4397 152.145ZM78.6211 155.564L81.1411 164.084L83.0589 163.516L80.5389 154.996L78.6211 155.564ZM82.3225 164.775C93.3769 162.252 107.789 158.649 121.357 155.047L120.843 153.113C107.291 156.711 92.9031 160.308 81.8775 162.825L82.3225 164.775ZM122.095 153.978L121.255 145.818L119.265 146.022L120.105 154.182L122.095 153.978ZM120.028 144.947C112.468 146.747 104.909 148.547 97.8291 150.227L98.2909 152.173C105.371 150.493 112.932 148.693 120.492 146.893L120.028 144.947ZM99.06 151.2V111.72H97.06V151.2H99.06ZM98.06 112.72H108.98V110.72H98.06V112.72ZM108.002 111.931C113.304 136.513 123.358 156.426 141.137 166.236L142.103 164.484C125.082 155.094 115.216 135.887 109.958 111.509L108.002 111.931ZM142.485 165.861C143.77 163.643 146.345 160.259 148.159 158.673L146.841 157.167C144.815 158.941 142.11 162.517 140.755 164.859L142.485 165.861ZM147.933 157.018C139.164 152.809 132.339 145.541 127.131 136.309L125.389 137.291C130.741 146.779 137.836 154.391 147.067 158.822L147.933 157.018ZM126.815 137.632C132.608 133.77 139.61 128.459 145.053 123.499L143.707 122.021C138.35 126.901 131.432 132.15 125.705 135.968L126.815 137.632ZM145.08 122.046L138.96 116.046L137.56 117.474L143.68 123.474L145.08 122.046Z" fill="#3F3C31"/>
</g>
<defs>
<filter id="filter0_d" x="0" y="0" width="182.028" height="222.259" filterUnits="userSpaceOnUse" color-interpolation-filters="sRGB">
<feFlood flood-opacity="0" result="BackgroundImageFix"/>
<feColorMatrix in="SourceAlpha" type="matrix" values="0 0 0 0 0 0 0 0 0 0 0 0 0 0 0 0 0 0 127 0"/>
<feOffset dy="4"/>
<feGaussianBlur stdDeviation="2"/>
<feColorMatrix type="matrix" values="0 0 0 0 0 0 0 0 0 0 0 0 0 0 0 0 0 0 0.25 0"/>
<feBlend mode="normal" in2="BackgroundImageFix" result="effect1_dropShadow"/>
<feBlend mode="normal" in="SourceGraphic" in2="effect1_dropShadow" result="shape"/>
</filter>
<filter id="filter1_b" x="0" y="-4" width="182" height="211" filterUnits="userSpaceOnUse" color-interpolation-filters="sRGB">
<feFlood flood-opacity="0" result="BackgroundImageFix"/>
<feGaussianBlur in="BackgroundImage" stdDeviation="2"/>
<feComposite in2="SourceAlpha" operator="in" result="effect1_backgroundBlur"/>
<feBlend mode="normal" in="SourceGraphic" in2="effect1_backgroundBlur" result="shape"/>
</filter>
<filter id="filter2_i" x="31.9685" y="54.68" width="117.331" height="116.029" filterUnits="userSpaceOnUse" color-interpolation-filters="sRGB">
<feFlood flood-opacity="0" result="BackgroundImageFix"/>
<feBlend mode="normal" in="SourceGraphic" in2="BackgroundImageFix" result="shape"/>
<feColorMatrix in="SourceAlpha" type="matrix" values="0 0 0 0 0 0 0 0 0 0 0 0 0 0 0 0 0 0 127 0" result="hardAlpha"/>
<feOffset dy="4"/>
<feGaussianBlur stdDeviation="2"/>
<feComposite in2="hardAlpha" operator="arithmetic" k2="-1" k3="1"/>
<feColorMatrix type="matrix" values="0 0 0 0 0 0 0 0 0 0 0 0 0 0 0 0 0 0 0.25 0"/>
<feBlend mode="normal" in2="shape" result="effect1_innerShadow"/>
</filter>
</defs>
</svg>
