<svg width="183" height="236" viewBox="0 0 183 236" fill="none" xmlns="http://www.w3.org/2000/svg">
<g filter="url(#filter0_d)">
<g filter="url(#filter1_b)">
<path d="M164 196.618L91 228L19 196.618L4 12L179 12L164 196.618Z" fill="#FAE5B1"/>
<path d="M178.458 12.5L163.526 196.277L91.0014 227.455L19.4741 196.279L4.54227 12.5L178.458 12.5Z" stroke="#FAE5B1"/>
</g>
<rect x="179" y="12" width="175" height="12" transform="rotate(-180 179 12)" fill="#CFB278"/>
<g filter="url(#filter2_i)">
<path d="M98.96 125.04V108.36H127.4V125.04H98.96ZM90.32 108.36V125.04H62.36C63.44 119.28 63.8 113.64 63.92 108.36H90.32ZM103.16 64.08C100.76 68.4 97.64 73.08 94.76 76.8H63.92C67.76 72.6 71.12 68.4 74.12 64.08H103.16ZM63.92 84.84H90.32V100.68H63.92V84.84ZM127.4 100.68H98.96V84.84H127.4V100.68ZM136.04 76.8H104.48C108.56 71.64 112.64 65.52 115.4 60.12L109.4 56.16L107.96 56.64H79.04C80.12 54.72 81.2 52.8 82.28 51L72.56 49.32C66.56 61.2 55.16 75.96 39.2 86.88C41.36 88.2 44.12 91.08 45.68 93.24C49.04 90.72 52.28 88.2 55.28 85.44V106.56C55.28 121.8 53.36 140.28 36.44 153.36C38.24 154.68 41.48 157.8 42.56 159.72C52.16 152.28 57.56 142.68 60.56 132.84H127.4V147.72C127.4 150.12 126.56 150.84 124.04 150.84C121.4 151.08 112.04 151.08 102.32 150.72C103.76 153 105.32 156.96 105.8 159.36C118.04 159.36 125.72 159.24 130.16 157.8C134.6 156.48 136.04 153.6 136.04 147.84V76.8Z" fill="#3F3C31"/>
</g>
<path d="M98.96 125.04H97.96V126.04H98.96V125.04ZM98.96 108.36V107.36H97.96V108.36H98.96ZM127.4 108.36H128.4V107.36H127.4V108.36ZM127.4 125.04V126.04H128.4V125.04H127.4ZM90.32 108.36H91.32V107.36H90.32V108.36ZM90.32 125.04V126.04H91.32V125.04H90.32ZM62.36 125.04L61.3771 124.856L61.1551 126.04H62.36V125.04ZM63.92 108.36V107.36H62.9425L62.9203 108.337L63.92 108.36ZM103.16 64.08L104.034 64.5656L104.86 63.08H103.16V64.08ZM94.76 76.8V77.8H95.2505L95.5507 77.4122L94.76 76.8ZM63.92 76.8L63.182 76.1252L61.6508 77.8H63.92V76.8ZM74.12 64.08V63.08H73.597L73.2986 63.5096L74.12 64.08ZM63.92 84.84V83.84H62.92V84.84H63.92ZM90.32 84.84H91.32V83.84H90.32V84.84ZM90.32 100.68V101.68H91.32V100.68H90.32ZM63.92 100.68H62.92V101.68H63.92V100.68ZM127.4 100.68V101.68H128.4V100.68H127.4ZM98.96 100.68H97.96V101.68H98.96V100.68ZM98.96 84.84V83.84H97.96V84.84H98.96ZM127.4 84.84H128.4V83.84H127.4V84.84ZM136.04 76.8H137.04V75.8H136.04V76.8ZM104.48 76.8L103.696 76.1798L102.414 77.8H104.48V76.8ZM115.4 60.12L116.29 60.5751L116.698 59.7783L115.951 59.2854L115.4 60.12ZM109.4 56.16L109.951 55.3254L109.545 55.0576L109.084 55.2113L109.4 56.16ZM107.96 56.64V57.64H108.122L108.276 57.5887L107.96 56.64ZM79.04 56.64L78.1684 56.1497L77.3302 57.64H79.04V56.64ZM82.28 51L83.1375 51.5145L83.8883 50.2631L82.4503 50.0146L82.28 51ZM72.56 49.32L72.7303 48.3346L72.001 48.2086L71.6674 48.8692L72.56 49.32ZM39.2 86.88L38.6353 86.0547L37.3598 86.9274L38.6786 87.7333L39.2 86.88ZM45.68 93.24L44.8693 93.8255L45.4655 94.6509L46.28 94.04L45.68 93.24ZM55.28 85.44H56.28V83.1612L54.6029 84.7041L55.28 85.44ZM36.44 153.36L35.8284 152.569L34.7777 153.381L35.8486 154.166L36.44 153.36ZM42.56 159.72L41.6884 160.21L42.2566 161.22L43.1726 160.51L42.56 159.72ZM60.56 132.84V131.84H59.8194L59.6035 132.548L60.56 132.84ZM127.4 132.84H128.4V131.84H127.4V132.84ZM124.04 150.84V149.84H123.995L123.949 149.844L124.04 150.84ZM102.32 150.72L102.357 149.721L100.462 149.65L101.475 151.254L102.32 150.72ZM105.8 159.36L104.819 159.556L104.98 160.36H105.8V159.36ZM130.16 157.8L129.875 156.841L129.863 156.845L129.851 156.849L130.16 157.8ZM99.96 125.04V108.36H97.96V125.04H99.96ZM98.96 109.36H127.4V107.36H98.96V109.36ZM126.4 108.36V125.04H128.4V108.36H126.4ZM127.4 124.04H98.96V126.04H127.4V124.04ZM89.32 108.36V125.04H91.32V108.36H89.32ZM90.32 124.04H62.36V126.04H90.32V124.04ZM63.3429 125.224C64.4369 119.39 64.7991 113.69 64.9197 108.383L62.9203 108.337C62.8009 113.59 62.4431 119.17 61.3771 124.856L63.3429 125.224ZM63.92 109.36H90.32V107.36H63.92V109.36ZM102.286 63.5944C99.9116 67.868 96.8199 72.5058 93.9693 76.1878L95.5507 77.4122C98.4602 73.6542 101.608 68.932 104.034 64.5656L102.286 63.5944ZM94.76 75.8H63.92V77.8H94.76V75.8ZM64.658 77.4748C68.5265 73.2437 71.9146 69.0089 74.9414 64.6504L73.2986 63.5096C70.3254 67.7911 66.9935 71.9563 63.182 76.1252L64.658 77.4748ZM74.12 65.08H103.16V63.08H74.12V65.08ZM63.92 85.84H90.32V83.84H63.92V85.84ZM89.32 84.84V100.68H91.32V84.84H89.32ZM90.32 99.68H63.92V101.68H90.32V99.68ZM64.92 100.68V84.84H62.92V100.68H64.92ZM127.4 99.68H98.96V101.68H127.4V99.68ZM99.96 100.68V84.84H97.96V100.68H99.96ZM98.96 85.84H127.4V83.84H98.96V85.84ZM126.4 84.84V100.68H128.4V84.84H126.4ZM136.04 75.8H104.48V77.8H136.04V75.8ZM105.264 77.4202C109.375 72.2212 113.494 66.046 116.29 60.5751L114.51 59.6649C111.786 64.994 107.745 71.0588 103.696 76.1798L105.264 77.4202ZM115.951 59.2854L109.951 55.3254L108.849 56.9946L114.849 60.9546L115.951 59.2854ZM109.084 55.2113L107.644 55.6913L108.276 57.5887L109.716 57.1087L109.084 55.2113ZM107.96 55.64H79.04V57.64H107.96V55.64ZM79.9116 57.1303C80.993 55.2078 82.066 53.3003 83.1375 51.5145L81.4225 50.4855C80.334 52.2997 79.247 54.2322 78.1684 56.1497L79.9116 57.1303ZM82.4503 50.0146L72.7303 48.3346L72.3897 50.3054L82.1097 51.9854L82.4503 50.0146ZM71.6674 48.8692C65.7361 60.6132 54.4434 75.2386 38.6353 86.0547L39.7647 87.7053C55.8766 76.6813 67.3839 61.7868 73.4526 49.7708L71.6674 48.8692ZM38.6786 87.7333C40.685 88.9594 43.3535 91.7266 44.8693 93.8255L46.4907 92.6545C44.8865 90.4334 42.035 87.4406 39.7214 86.0267L38.6786 87.7333ZM46.28 94.04C49.6461 91.5155 52.9188 88.9711 55.9571 86.1759L54.6029 84.7041C51.6412 87.4289 48.4339 89.9245 45.08 92.44L46.28 94.04ZM54.28 85.44V106.56H56.28V85.44H54.28ZM54.28 106.56C54.28 121.743 52.3559 139.792 35.8284 152.569L37.0516 154.151C54.3641 140.768 56.28 121.857 56.28 106.56H54.28ZM35.8486 154.166C36.6934 154.786 37.9129 155.857 39.0584 157.018C40.2178 158.192 41.2175 159.373 41.6884 160.21L43.4316 159.23C42.8225 158.147 41.6622 156.808 40.4816 155.612C39.2871 154.403 37.9866 153.254 37.0314 152.554L35.8486 154.166ZM43.1726 160.51C52.971 152.917 58.4705 143.122 61.5165 133.132L59.6035 132.548C56.6495 142.238 51.349 151.643 41.9474 158.93L43.1726 160.51ZM60.56 133.84H127.4V131.84H60.56V133.84ZM126.4 132.84V147.72H128.4V132.84H126.4ZM126.4 147.72C126.4 148.858 126.188 149.261 125.99 149.442C125.765 149.648 125.271 149.84 124.04 149.84V151.84C125.329 151.84 126.515 151.672 127.34 150.918C128.192 150.139 128.4 148.982 128.4 147.72H126.4ZM123.949 149.844C121.383 150.077 112.085 150.081 102.357 149.721L102.283 151.719C111.995 152.079 121.417 152.083 124.131 151.836L123.949 149.844ZM101.475 151.254C102.849 153.431 104.363 157.276 104.819 159.556L106.781 159.164C106.277 156.644 104.671 152.569 103.165 150.186L101.475 151.254ZM105.8 160.36C111.916 160.36 116.922 160.33 120.957 160.119C124.979 159.908 128.118 159.514 130.469 158.751L129.851 156.849C127.762 157.526 124.841 157.912 120.853 158.121C116.878 158.33 111.924 158.36 105.8 158.36V160.36ZM130.445 158.759C132.842 158.046 134.559 156.865 135.634 154.98C136.679 153.147 137.04 150.775 137.04 147.84H135.04C135.04 150.665 134.681 152.613 133.896 153.99C133.141 155.315 131.918 156.234 129.875 156.841L130.445 158.759ZM137.04 147.84V76.8H135.04V147.84H137.04Z" fill="#3F3C31"/>
</g>
<defs>
<filter id="filter0_d" x="0" y="0" width="183" height="236" filterUnits="userSpaceOnUse" color-interpolation-filters="sRGB">
<feFlood flood-opacity="0" result="BackgroundImageFix"/>
<feColorMatrix in="SourceAlpha" type="matrix" values="0 0 0 0 0 0 0 0 0 0 0 0 0 0 0 0 0 0 127 0"/>
<feOffset dy="4"/>
<feGaussianBlur stdDeviation="2"/>
<feColorMatrix type="matrix" values="0 0 0 0 0 0 0 0 0 0 0 0 0 0 0 0 0 0 0.25 0"/>
<feBlend mode="normal" in2="BackgroundImageFix" result="effect1_dropShadow"/>
<feBlend mode="normal" in="SourceGraphic" in2="effect1_dropShadow" result="shape"/>
</filter>
<filter id="filter1_b" x="0" y="8" width="183" height="224" filterUnits="userSpaceOnUse" color-interpolation-filters="sRGB">
<feFlood flood-opacity="0" result="BackgroundImageFix"/>
<feGaussianBlur in="BackgroundImage" stdDeviation="2"/>
<feComposite in2="SourceAlpha" operator="in" result="effect1_backgroundBlur"/>
<feBlend mode="normal" in="SourceGraphic" in2="effect1_backgroundBlur" result="shape"/>
</filter>
<filter id="filter2_i" x="34.7777" y="48.2086" width="102.262" height="117.012" filterUnits="userSpaceOnUse" color-interpolation-filters="sRGB">
<feFlood flood-opacity="0" result="BackgroundImageFix"/>
<feBlend mode="normal" in="SourceGraphic" in2="BackgroundImageFix" result="shape"/>
<feColorMatrix in="SourceAlpha" type="matrix" values="0 0 0 0 0 0 0 0 0 0 0 0 0 0 0 0 0 0 127 0" result="hardAlpha"/>
<feOffset dy="4"/>
<feGaussianBlur stdDeviation="2"/>
<feComposite in2="hardAlpha" operator="arithmetic" k2="-1" k3="1"/>
<feColorMatrix type="matrix" values="0 0 0 0 0 0 0 0 0 0 0 0 0 0 0 0 0 0 0.25 0"/>
<feBlend mode="normal" in2="shape" result="effect1_innerShadow"/>
</filter>
</defs>
</svg>
