<svg width="183" height="223" viewBox="0 0 183 223" fill="none" xmlns="http://www.w3.org/2000/svg">
<g filter="url(#filter0_d)">
<g filter="url(#filter1_b)">
<path d="M164.086 184.766L91.5029 214.259L19.9143 184.766L5 11.2593L179 11.2593L164.086 184.766Z" fill="#FAE5B1"/>
<path d="M178.455 11.7593L163.614 184.418L91.5042 213.719L20.3864 184.42L5.54483 11.7593L178.455 11.7593Z" stroke="#FAE5B1"/>
</g>
<rect x="179" y="11.2593" width="174.028" height="11.2593" transform="rotate(-180 179 11.2593)" fill="#CFB278"/>
<g filter="url(#filter2_i)">
<path d="M62.94 72.92C74.7 64.04 84.78 54.08 91.02 45.08C97.98 54.44 108.78 64.4 120.54 72.92H62.94ZM95.58 104.72H136.74V96.92H95.58V80.84H121.26V73.4C127.86 78.2 134.7 82.52 141.3 85.88C142.74 83.24 144.9 80.24 147.06 77.96C128.46 69.68 107.7 53.6 94.98 36.44H86.1C76.74 51.44 57.06 69.08 36.42 79.52C38.34 81.32 40.86 84.44 41.82 86.48C48.66 82.88 55.38 78.56 61.62 74V80.84H86.34V96.92H46.14V104.72H86.34V134.36H40.74V142.28H142.5V134.36H95.58V104.72ZM56.1 110.72C60.78 117.56 65.46 126.8 67.02 132.8L74.7 129.44C73.02 123.44 68.22 114.56 63.3 107.96L56.1 110.72ZM112.14 132.8C116.7 127.16 122.34 118.52 126.78 110.96L118.38 107.72C115.38 114.44 109.86 123.92 105.54 129.8L112.14 132.8Z" fill="#3F3C31"/>
</g>
<path d="M62.94 72.92L62.3374 72.122L59.9562 73.92H62.94V72.92ZM91.02 45.08L91.8225 44.4833L90.9916 43.3659L90.1982 44.5102L91.02 45.08ZM120.54 72.92V73.92H123.625L121.127 72.1102L120.54 72.92ZM95.58 104.72V103.72H94.58V104.72H95.58ZM136.74 104.72V105.72H137.74V104.72H136.74ZM136.74 96.92H137.74V95.92H136.74V96.92ZM95.58 96.92H94.58V97.92H95.58V96.92ZM95.58 80.84V79.84H94.58V80.84H95.58ZM121.26 80.84V81.84H122.26V80.84H121.26ZM121.26 73.4L121.848 72.5913L120.26 71.4362V73.4H121.26ZM141.3 85.88L140.846 86.7712L141.712 87.2121L142.178 86.3588L141.3 85.88ZM147.06 77.96L147.786 78.6477L148.758 77.6214L147.467 77.0464L147.06 77.96ZM94.98 36.44L95.7834 35.8445L95.4835 35.44H94.98V36.44ZM86.1 36.44V35.44H85.5453L85.2516 35.9106L86.1 36.44ZM36.42 79.52L35.9686 78.6277L34.6938 79.2725L35.7361 80.2495L36.42 79.52ZM41.82 86.48L40.9152 86.9058L41.3604 87.8519L42.2857 87.3649L41.82 86.48ZM61.62 74H62.62V72.0307L61.03 73.1926L61.62 74ZM61.62 80.84H60.62V81.84H61.62V80.84ZM86.34 80.84H87.34V79.84H86.34V80.84ZM86.34 96.92V97.92H87.34V96.92H86.34ZM46.14 96.92V95.92H45.14V96.92H46.14ZM46.14 104.72H45.14V105.72H46.14V104.72ZM86.34 104.72H87.34V103.72H86.34V104.72ZM86.34 134.36V135.36H87.34V134.36H86.34ZM40.74 134.36V133.36H39.74V134.36H40.74ZM40.74 142.28H39.74V143.28H40.74V142.28ZM142.5 142.28V143.28H143.5V142.28H142.5ZM142.5 134.36H143.5V133.36H142.5V134.36ZM95.58 134.36H94.58V135.36H95.58V134.36ZM56.1 110.72L55.7421 109.786L54.5596 110.24L55.2747 111.285L56.1 110.72ZM67.02 132.8L66.0522 133.052L66.3471 134.186L67.4208 133.716L67.02 132.8ZM74.7 129.44L75.1008 130.356L75.8974 130.008L75.663 129.17L74.7 129.44ZM63.3 107.96L64.1017 107.362L63.6492 106.755L62.9421 107.026L63.3 107.96ZM112.14 132.8L111.726 133.71L112.431 134.031L112.918 133.429L112.14 132.8ZM126.78 110.96L127.642 111.466L128.239 110.451L127.14 110.027L126.78 110.96ZM118.38 107.72L118.74 106.787L117.854 106.445L117.467 107.312L118.38 107.72ZM105.54 129.8L104.734 129.208L104.005 130.201L105.126 130.71L105.54 129.8ZM63.5426 73.718C75.3583 64.796 85.5236 54.7626 91.8418 45.6498L90.1982 44.5102C84.0364 53.3974 74.0417 63.284 62.3374 72.122L63.5426 73.718ZM90.2175 45.6767C97.2574 55.1441 108.142 65.1725 119.953 73.7298L121.127 72.1102C109.418 63.6275 98.7026 53.7359 91.8225 44.4833L90.2175 45.6767ZM120.54 71.92H62.94V73.92H120.54V71.92ZM95.58 105.72H136.74V103.72H95.58V105.72ZM137.74 104.72V96.92H135.74V104.72H137.74ZM136.74 95.92H95.58V97.92H136.74V95.92ZM96.58 96.92V80.84H94.58V96.92H96.58ZM95.58 81.84H121.26V79.84H95.58V81.84ZM122.26 80.84V73.4H120.26V80.84H122.26ZM120.672 74.2087C127.304 79.0324 134.19 83.3823 140.846 86.7712L141.754 84.9888C135.21 81.6577 128.416 77.3676 121.848 72.5913L120.672 74.2087ZM142.178 86.3588C143.577 83.7931 145.687 80.8636 147.786 78.6477L146.334 77.2723C144.113 79.6164 141.903 82.6869 140.422 85.4011L142.178 86.3588ZM147.467 77.0464C129.015 68.8327 108.395 52.8587 95.7834 35.8445L94.1766 37.0355C107.005 54.3413 127.905 70.5273 146.653 78.8736L147.467 77.0464ZM94.98 35.44H86.1V37.44H94.98V35.44ZM85.2516 35.9106C76.0035 50.7313 56.4733 68.2561 35.9686 78.6277L36.8714 80.4123C57.6468 69.9039 77.4765 52.1487 86.9484 36.9694L85.2516 35.9106ZM35.7361 80.2495C37.6044 82.0011 40.0284 85.0213 40.9152 86.9058L42.7248 86.0542C41.6916 83.8587 39.0756 80.6389 37.1039 78.7905L35.7361 80.2495ZM42.2857 87.3649C49.1768 83.7381 55.9383 79.3905 62.21 74.8074L61.03 73.1926C54.8217 77.7295 48.1432 82.0219 41.3543 85.5951L42.2857 87.3649ZM60.62 74V80.84H62.62V74H60.62ZM61.62 81.84H86.34V79.84H61.62V81.84ZM85.34 80.84V96.92H87.34V80.84H85.34ZM86.34 95.92H46.14V97.92H86.34V95.92ZM45.14 96.92V104.72H47.14V96.92H45.14ZM46.14 105.72H86.34V103.72H46.14V105.72ZM85.34 104.72V134.36H87.34V104.72H85.34ZM86.34 133.36H40.74V135.36H86.34V133.36ZM39.74 134.36V142.28H41.74V134.36H39.74ZM40.74 143.28H142.5V141.28H40.74V143.28ZM143.5 142.28V134.36H141.5V142.28H143.5ZM142.5 133.36H95.58V135.36H142.5V133.36ZM96.58 134.36V104.72H94.58V134.36H96.58ZM55.2747 111.285C59.9188 118.072 64.5319 127.205 66.0522 133.052L67.9878 132.548C66.3881 126.395 61.6412 117.048 56.9253 110.155L55.2747 111.285ZM67.4208 133.716L75.1008 130.356L74.2992 128.524L66.6192 131.884L67.4208 133.716ZM75.663 129.17C73.9387 123.012 69.0657 114.021 64.1017 107.362L62.4983 108.558C67.3743 115.099 72.1013 123.868 73.737 129.71L75.663 129.17ZM62.9421 107.026L55.7421 109.786L56.4579 111.654L63.6579 108.894L62.9421 107.026ZM112.918 133.429C117.522 127.733 123.191 119.045 127.642 111.466L125.918 110.454C121.489 117.995 115.878 126.587 111.362 132.171L112.918 133.429ZM127.14 110.027L118.74 106.787L118.02 108.653L126.42 111.893L127.14 110.027ZM117.467 107.312C114.496 113.967 109.012 123.385 104.734 129.208L106.346 130.392C110.708 124.455 116.264 114.913 119.293 108.128L117.467 107.312ZM105.126 130.71L111.726 133.71L112.554 131.89L105.954 128.89L105.126 130.71Z" fill="#3F3C31"/>
</g>
<defs>
<filter id="filter0_d" x="0.972168" y="0" width="182.028" height="222.259" filterUnits="userSpaceOnUse" color-interpolation-filters="sRGB">
<feFlood flood-opacity="0" result="BackgroundImageFix"/>
<feColorMatrix in="SourceAlpha" type="matrix" values="0 0 0 0 0 0 0 0 0 0 0 0 0 0 0 0 0 0 127 0"/>
<feOffset dy="4"/>
<feGaussianBlur stdDeviation="2"/>
<feColorMatrix type="matrix" values="0 0 0 0 0 0 0 0 0 0 0 0 0 0 0 0 0 0 0.25 0"/>
<feBlend mode="normal" in2="BackgroundImageFix" result="effect1_dropShadow"/>
<feBlend mode="normal" in="SourceGraphic" in2="effect1_dropShadow" result="shape"/>
</filter>
<filter id="filter1_b" x="1" y="7.25926" width="182" height="211" filterUnits="userSpaceOnUse" color-interpolation-filters="sRGB">
<feFlood flood-opacity="0" result="BackgroundImageFix"/>
<feGaussianBlur in="BackgroundImage" stdDeviation="2"/>
<feComposite in2="SourceAlpha" operator="in" result="effect1_backgroundBlur"/>
<feBlend mode="normal" in="SourceGraphic" in2="effect1_backgroundBlur" result="shape"/>
</filter>
<filter id="filter2_i" x="34.6938" y="35.44" width="114.064" height="111.84" filterUnits="userSpaceOnUse" color-interpolation-filters="sRGB">
<feFlood flood-opacity="0" result="BackgroundImageFix"/>
<feBlend mode="normal" in="SourceGraphic" in2="BackgroundImageFix" result="shape"/>
<feColorMatrix in="SourceAlpha" type="matrix" values="0 0 0 0 0 0 0 0 0 0 0 0 0 0 0 0 0 0 127 0" result="hardAlpha"/>
<feOffset dy="4"/>
<feGaussianBlur stdDeviation="2"/>
<feComposite in2="hardAlpha" operator="arithmetic" k2="-1" k3="1"/>
<feColorMatrix type="matrix" values="0 0 0 0 0 0 0 0 0 0 0 0 0 0 0 0 0 0 0.25 0"/>
<feBlend mode="normal" in2="shape" result="effect1_innerShadow"/>
</filter>
</defs>
</svg>
