<svg width="183" height="223" viewBox="0 0 183 223" fill="none" xmlns="http://www.w3.org/2000/svg">
<g filter="url(#filter0_d)">
<g filter="url(#filter1_b)">
<path d="M164.086 184.766L91.5029 214.259L19.9143 184.766L5 11.2593L179 11.2593L164.086 184.766Z" fill="#FAE5B1"/>
<path d="M178.455 11.7593L163.614 184.418L91.5042 213.719L20.3864 184.42L5.54483 11.7593L178.455 11.7593Z" stroke="#FAE5B1"/>
</g>
<rect x="179" y="11.2593" width="174.028" height="11.2593" transform="rotate(-180 179 11.2593)" fill="#CFB278"/>
<g filter="url(#filter2_i)">
<path d="M105.9 78.56H76.98V86.96H145.02V78.56H114.78V61.04H139.26V52.88H114.78V37.28H105.9V52.88H81.18V61.04H105.9V78.56ZM76.62 94.04C74.58 90.8 65.82 77.36 62.7 73.04V68H77.1V59.6H62.7V36.56H54.42V59.6H38.82V68H53.58C49.86 84.32 42.3 103.16 34.62 113.24C36.18 115.4 38.46 119.24 39.42 121.88C44.94 113.84 50.34 101 54.42 87.68V146.12H62.7V83.96C65.94 89.84 69.54 96.8 71.22 100.4L76.62 94.04ZM114.78 133.16V113.48H141.06V105.2H114.78V91.4H105.9V105.2H79.26V113.48H105.9V133.16H71.22V141.68H146.34V133.16H114.78Z" fill="#3F3C31"/>
</g>
<path d="M105.9 78.56V79.56H106.9V78.56H105.9ZM76.98 78.56V77.56H75.98V78.56H76.98ZM76.98 86.96H75.98V87.96H76.98V86.96ZM145.02 86.96V87.96H146.02V86.96H145.02ZM145.02 78.56H146.02V77.56H145.02V78.56ZM114.78 78.56H113.78V79.56H114.78V78.56ZM114.78 61.04V60.04H113.78V61.04H114.78ZM139.26 61.04V62.04H140.26V61.04H139.26ZM139.26 52.88H140.26V51.88H139.26V52.88ZM114.78 52.88H113.78V53.88H114.78V52.88ZM114.78 37.28H115.78V36.28H114.78V37.28ZM105.9 37.28V36.28H104.9V37.28H105.9ZM105.9 52.88V53.88H106.9V52.88H105.9ZM81.18 52.88V51.88H80.18V52.88H81.18ZM81.18 61.04H80.18V62.04H81.18V61.04ZM105.9 61.04H106.9V60.04H105.9V61.04ZM76.62 94.04L77.3823 94.6872L77.8571 94.128L77.4662 93.5072L76.62 94.04ZM62.7 73.04H61.7V73.3633L61.8893 73.6255L62.7 73.04ZM62.7 68V67H61.7V68H62.7ZM77.1 68V69H78.1V68H77.1ZM77.1 59.6H78.1V58.6H77.1V59.6ZM62.7 59.6H61.7V60.6H62.7V59.6ZM62.7 36.56H63.7V35.56H62.7V36.56ZM54.42 36.56V35.56H53.42V36.56H54.42ZM54.42 59.6V60.6H55.42V59.6H54.42ZM38.82 59.6V58.6H37.82V59.6H38.82ZM38.82 68H37.82V69H38.82V68ZM53.58 68L54.555 68.2222L54.8336 67H53.58V68ZM34.62 113.24L33.8246 112.634L33.375 113.224L33.8093 113.825L34.62 113.24ZM39.42 121.88L38.4802 122.222L39.1444 124.048L40.2444 122.446L39.42 121.88ZM54.42 87.68H55.42L53.4639 87.3871L54.42 87.68ZM54.42 146.12H53.42V147.12H54.42V146.12ZM62.7 146.12V147.12H63.7V146.12H62.7ZM62.7 83.96L63.5758 83.4774L61.7 83.96H62.7ZM71.22 100.4L70.3138 100.823L70.9732 102.236L71.9823 101.047L71.22 100.4ZM114.78 133.16H113.78V134.16H114.78V133.16ZM114.78 113.48V112.48H113.78V113.48H114.78ZM141.06 113.48V114.48H142.06V113.48H141.06ZM141.06 105.2H142.06V104.2H141.06V105.2ZM114.78 105.2H113.78V106.2H114.78V105.2ZM114.78 91.4H115.78V90.4H114.78V91.4ZM105.9 91.4V90.4H104.9V91.4H105.9ZM105.9 105.2V106.2H106.9V105.2H105.9ZM79.26 105.2V104.2H78.26V105.2H79.26ZM79.26 113.48H78.26V114.48H79.26V113.48ZM105.9 113.48H106.9V112.48H105.9V113.48ZM105.9 133.16V134.16H106.9V133.16H105.9ZM71.22 133.16V132.16H70.22V133.16H71.22ZM71.22 141.68H70.22V142.68H71.22V141.68ZM146.34 141.68V142.68H147.34V141.68H146.34ZM146.34 133.16H147.34V132.16H146.34V133.16ZM105.9 77.56H76.98V79.56H105.9V77.56ZM75.98 78.56V86.96H77.98V78.56H75.98ZM76.98 87.96H145.02V85.96H76.98V87.96ZM146.02 86.96V78.56H144.02V86.96H146.02ZM145.02 77.56H114.78V79.56H145.02V77.56ZM115.78 78.56V61.04H113.78V78.56H115.78ZM114.78 62.04H139.26V60.04H114.78V62.04ZM140.26 61.04V52.88H138.26V61.04H140.26ZM139.26 51.88H114.78V53.88H139.26V51.88ZM115.78 52.88V37.28H113.78V52.88H115.78ZM114.78 36.28H105.9V38.28H114.78V36.28ZM104.9 37.28V52.88H106.9V37.28H104.9ZM105.9 51.88H81.18V53.88H105.9V51.88ZM80.18 52.88V61.04H82.18V52.88H80.18ZM81.18 62.04H105.9V60.04H81.18V62.04ZM104.9 61.04V78.56H106.9V61.04H104.9ZM77.4662 93.5072C75.4245 90.2644 66.6504 76.8018 63.5107 72.4545L61.8893 73.6255C64.9896 77.9182 73.7356 91.3356 75.7738 94.5728L77.4662 93.5072ZM63.7 73.04V68H61.7V73.04H63.7ZM62.7 69H77.1V67H62.7V69ZM78.1 68V59.6H76.1V68H78.1ZM77.1 58.6H62.7V60.6H77.1V58.6ZM63.7 59.6V36.56H61.7V59.6H63.7ZM62.7 35.56H54.42V37.56H62.7V35.56ZM53.42 36.56V59.6H55.42V36.56H53.42ZM54.42 58.6H38.82V60.6H54.42V58.6ZM37.82 59.6V68H39.82V59.6H37.82ZM38.82 69H53.58V67H38.82V69ZM52.605 67.7778C48.9016 84.0248 41.3845 102.712 33.8246 112.634L35.4154 113.846C43.2155 103.608 50.8184 84.6152 54.555 68.2222L52.605 67.7778ZM33.8093 113.825C35.3404 115.945 37.5637 119.701 38.4802 122.222L40.3598 121.538C39.3563 118.779 37.0196 114.855 35.4307 112.655L33.8093 113.825ZM40.2444 122.446C45.8486 114.283 51.2844 101.331 55.3762 87.9729L53.4639 87.3871C49.3956 100.669 44.0314 113.397 38.5956 121.314L40.2444 122.446ZM53.42 87.68V146.12H55.42V87.68H53.42ZM54.42 147.12H62.7V145.12H54.42V147.12ZM63.7 146.12V83.96H61.7V146.12H63.7ZM61.8242 84.4426C65.059 90.3132 68.6471 97.2514 70.3138 100.823L72.1262 99.9771C70.4329 96.3486 66.821 89.3668 63.5758 83.4774L61.8242 84.4426ZM71.9823 101.047L77.3823 94.6872L75.8577 93.3928L70.4577 99.7528L71.9823 101.047ZM115.78 133.16V113.48H113.78V133.16H115.78ZM114.78 114.48H141.06V112.48H114.78V114.48ZM142.06 113.48V105.2H140.06V113.48H142.06ZM141.06 104.2H114.78V106.2H141.06V104.2ZM115.78 105.2V91.4H113.78V105.2H115.78ZM114.78 90.4H105.9V92.4H114.78V90.4ZM104.9 91.4V105.2H106.9V91.4H104.9ZM105.9 104.2H79.26V106.2H105.9V104.2ZM78.26 105.2V113.48H80.26V105.2H78.26ZM79.26 114.48H105.9V112.48H79.26V114.48ZM104.9 113.48V133.16H106.9V113.48H104.9ZM105.9 132.16H71.22V134.16H105.9V132.16ZM70.22 133.16V141.68H72.22V133.16H70.22ZM71.22 142.68H146.34V140.68H71.22V142.68ZM147.34 141.68V133.16H145.34V141.68H147.34ZM146.34 132.16H114.78V134.16H146.34V132.16Z" fill="#3F3C31"/>
</g>
<defs>
<filter id="filter0_d" x="0.972168" y="1.52588e-05" width="182.028" height="222.259" filterUnits="userSpaceOnUse" color-interpolation-filters="sRGB">
<feFlood flood-opacity="0" result="BackgroundImageFix"/>
<feColorMatrix in="SourceAlpha" type="matrix" values="0 0 0 0 0 0 0 0 0 0 0 0 0 0 0 0 0 0 127 0"/>
<feOffset dy="4"/>
<feGaussianBlur stdDeviation="2"/>
<feColorMatrix type="matrix" values="0 0 0 0 0 0 0 0 0 0 0 0 0 0 0 0 0 0 0.25 0"/>
<feBlend mode="normal" in2="BackgroundImageFix" result="effect1_dropShadow"/>
<feBlend mode="normal" in="SourceGraphic" in2="effect1_dropShadow" result="shape"/>
</filter>
<filter id="filter1_b" x="1" y="7.25928" width="182" height="211" filterUnits="userSpaceOnUse" color-interpolation-filters="sRGB">
<feFlood flood-opacity="0" result="BackgroundImageFix"/>
<feGaussianBlur in="BackgroundImage" stdDeviation="2"/>
<feComposite in2="SourceAlpha" operator="in" result="effect1_backgroundBlur"/>
<feBlend mode="normal" in="SourceGraphic" in2="effect1_backgroundBlur" result="shape"/>
</filter>
<filter id="filter2_i" x="33.375" y="35.56" width="113.965" height="115.56" filterUnits="userSpaceOnUse" color-interpolation-filters="sRGB">
<feFlood flood-opacity="0" result="BackgroundImageFix"/>
<feBlend mode="normal" in="SourceGraphic" in2="BackgroundImageFix" result="shape"/>
<feColorMatrix in="SourceAlpha" type="matrix" values="0 0 0 0 0 0 0 0 0 0 0 0 0 0 0 0 0 0 127 0" result="hardAlpha"/>
<feOffset dy="4"/>
<feGaussianBlur stdDeviation="2"/>
<feComposite in2="hardAlpha" operator="arithmetic" k2="-1" k3="1"/>
<feColorMatrix type="matrix" values="0 0 0 0 0 0 0 0 0 0 0 0 0 0 0 0 0 0 0.25 0"/>
<feBlend mode="normal" in2="shape" result="effect1_innerShadow"/>
</filter>
</defs>
</svg>
