<svg width="179" height="212" viewBox="0 0 179 212" fill="none" xmlns="http://www.w3.org/2000/svg">
<g filter="url(#filter0_d)">
<g filter="url(#filter1_b)">
<path d="M157.029 175.96L89.0343 204L21.9714 175.96L8 11L171 11L157.029 175.96Z" fill="#FAE5B1"/>
<path d="M170.456 11.5L156.556 175.614L89.0356 203.459L22.4441 175.615L8.54414 11.5L170.456 11.5Z" stroke="#FAE5B1"/>
</g>
<rect x="171" y="11" width="163" height="11" transform="rotate(-180 171 11)" fill="#CFB278"/>
<g filter="url(#filter2_i)">
<path d="M61.18 82.48C55.54 91.72 46.54 100.84 37.54 106.84C39.82 108.16 43.78 111.04 45.46 112.48C54.1 105.88 63.82 95.56 70.18 85.36L61.18 82.48ZM114.22 99.4C104.98 121.84 83.26 131.2 46.54 134.56C48.34 136.72 50.14 140.32 50.86 143.08C89.62 138.52 113.14 127.6 123.1 102.16L114.22 99.4ZM111.22 86.92C120.1 94.36 130.3 105.28 134.62 112.36L142.3 107.32C137.62 99.88 127.3 89.56 118.3 82.36L111.22 86.92ZM94.18 70.36V54.76H131.14V46.6H94.18V32.68H85.18V70.36H63.1V42.04H54.22V70.36H36.58V78.64H85.18V106C85.18 107.56 84.7 107.92 82.9 108.04C80.98 108.04 74.74 108.04 67.78 107.8C68.86 110.32 70.18 113.44 70.54 115.96C79.78 115.96 85.66 115.96 89.26 114.64C92.98 113.32 94.06 110.92 94.06 106.24V78.64H142.66V70.36H94.18Z" fill="#3F3C31"/>
</g>
<path d="M61.18 82.48L61.4848 81.5276L60.736 81.288L60.3264 81.959L61.18 82.48ZM37.54 106.84L36.9853 106.008L35.6475 106.9L37.039 107.705L37.54 106.84ZM45.46 112.48L44.8092 113.239L45.4238 113.766L46.067 113.275L45.46 112.48ZM70.18 85.36L71.0286 85.8891L71.7082 84.7991L70.4848 84.4076L70.18 85.36ZM114.22 99.4L114.517 98.4451L113.644 98.1736L113.295 99.0192L114.22 99.4ZM46.54 134.56L46.4489 133.564L44.553 133.738L45.7718 135.2L46.54 134.56ZM50.86 143.08L49.8924 143.332L50.1122 144.175L50.9768 144.073L50.86 143.08ZM123.1 102.16L124.031 102.525L124.423 101.524L123.397 101.205L123.1 102.16ZM111.22 86.92L110.679 86.0793L109.537 86.8145L110.578 87.6865L111.22 86.92ZM134.62 112.36L133.766 112.881L134.305 113.763L135.169 113.196L134.62 112.36ZM142.3 107.32L142.849 108.156L143.669 107.618L143.146 106.788L142.3 107.32ZM118.3 82.36L118.925 81.5791L118.363 81.1299L117.759 81.5193L118.3 82.36ZM94.18 70.36H93.18V71.36H94.18V70.36ZM94.18 54.76V53.76H93.18V54.76H94.18ZM131.14 54.76V55.76H132.14V54.76H131.14ZM131.14 46.6H132.14V45.6H131.14V46.6ZM94.18 46.6H93.18V47.6H94.18V46.6ZM94.18 32.68H95.18V31.68H94.18V32.68ZM85.18 32.68V31.68H84.18V32.68H85.18ZM85.18 70.36V71.36H86.18V70.36H85.18ZM63.1 70.36H62.1V71.36H63.1V70.36ZM63.1 42.04H64.1V41.04H63.1V42.04ZM54.22 42.04V41.04H53.22V42.04H54.22ZM54.22 70.36V71.36H55.22V70.36H54.22ZM36.58 70.36V69.36H35.58V70.36H36.58ZM36.58 78.64H35.58V79.64H36.58V78.64ZM85.18 78.64H86.18V77.64H85.18V78.64ZM82.9 108.04V109.04H82.9333L82.9665 109.038L82.9 108.04ZM67.78 107.8L67.8145 106.801L66.2405 106.746L66.8609 108.194L67.78 107.8ZM70.54 115.96L69.5501 116.101L69.6727 116.96H70.54V115.96ZM89.26 114.64L88.9256 113.698L88.9157 113.701L89.26 114.64ZM94.06 78.64V77.64H93.06V78.64H94.06ZM142.66 78.64V79.64H143.66V78.64H142.66ZM142.66 70.36H143.66V69.36H142.66V70.36ZM60.3264 81.959C54.7673 91.0665 45.8727 100.083 36.9853 106.008L38.0947 107.672C47.2073 101.597 56.3127 92.3735 62.0336 83.001L60.3264 81.959ZM37.039 107.705C39.2598 108.991 43.1701 111.834 44.8092 113.239L46.1108 111.721C44.3899 110.246 40.3802 107.329 38.041 105.975L37.039 107.705ZM46.067 113.275C54.7967 106.606 64.6007 96.1979 71.0286 85.8891L69.3314 84.8309C63.0393 94.9221 53.4033 105.154 44.853 111.685L46.067 113.275ZM70.4848 84.4076L61.4848 81.5276L60.8752 83.4324L69.8752 86.3124L70.4848 84.4076ZM113.295 99.0192C104.285 120.902 83.105 130.21 46.4489 133.564L46.6311 135.556C83.415 132.19 105.675 122.778 115.145 99.7807L113.295 99.0192ZM45.7718 135.2C47.4713 137.24 49.2069 140.705 49.8924 143.332L51.8276 142.828C51.0731 139.935 49.2087 136.2 47.3082 133.92L45.7718 135.2ZM50.9768 144.073C89.8223 139.503 113.858 128.509 124.031 102.525L122.169 101.795C112.422 126.691 89.4177 137.537 50.7432 142.087L50.9768 144.073ZM123.397 101.205L114.517 98.4451L113.923 100.355L122.803 103.115L123.397 101.205ZM110.578 87.6865C119.415 95.0906 129.525 105.93 133.766 112.881L135.474 111.839C131.075 104.63 120.785 93.6294 111.862 86.1535L110.578 87.6865ZM135.169 113.196L142.849 108.156L141.751 106.484L134.071 111.524L135.169 113.196ZM143.146 106.788C138.38 99.2101 127.961 88.8082 118.925 81.5791L117.675 83.1409C126.639 90.3118 136.86 100.55 141.454 107.852L143.146 106.788ZM117.759 81.5193L110.679 86.0793L111.761 87.7607L118.841 83.2007L117.759 81.5193ZM95.18 70.36V54.76H93.18V70.36H95.18ZM94.18 55.76H131.14V53.76H94.18V55.76ZM132.14 54.76V46.6H130.14V54.76H132.14ZM131.14 45.6H94.18V47.6H131.14V45.6ZM95.18 46.6V32.68H93.18V46.6H95.18ZM94.18 31.68H85.18V33.68H94.18V31.68ZM84.18 32.68V70.36H86.18V32.68H84.18ZM85.18 69.36H63.1V71.36H85.18V69.36ZM64.1 70.36V42.04H62.1V70.36H64.1ZM63.1 41.04H54.22V43.04H63.1V41.04ZM53.22 42.04V70.36H55.22V42.04H53.22ZM54.22 69.36H36.58V71.36H54.22V69.36ZM35.58 70.36V78.64H37.58V70.36H35.58ZM36.58 79.64H85.18V77.64H36.58V79.64ZM84.18 78.64V106H86.18V78.64H84.18ZM84.18 106C84.18 106.351 84.1515 106.559 84.1156 106.684C84.0855 106.789 84.0597 106.805 84.0588 106.805C84.0452 106.817 83.9794 106.868 83.7717 106.92C83.5604 106.973 83.263 107.014 82.8335 107.042L82.9665 109.038C83.8384 108.98 84.7413 108.862 85.3712 108.315C86.0713 107.706 86.18 106.818 86.18 106H84.18ZM82.9 107.04C80.9821 107.04 74.7564 107.04 67.8145 106.801L67.7455 108.799C74.7236 109.04 80.9779 109.04 82.9 109.04V107.04ZM66.8609 108.194C67.9561 110.75 69.2126 113.739 69.5501 116.101L71.53 115.819C71.1474 113.141 69.7639 109.89 68.6991 107.406L66.8609 108.194ZM70.54 116.96C75.1502 116.96 78.9608 116.96 82.0686 116.794C85.1657 116.627 87.6588 116.292 89.6043 115.579L88.9157 113.701C87.2613 114.308 85.0143 114.633 81.9614 114.796C78.9192 114.96 75.1698 114.96 70.54 114.96V116.96ZM89.5944 115.582C91.619 114.864 93.05 113.8 93.9333 112.178C94.7901 110.604 95.06 108.629 95.06 106.24H93.06C93.06 108.531 92.79 110.096 92.1767 111.222C91.59 112.3 90.621 113.096 88.9256 113.698L89.5944 115.582ZM95.06 106.24V78.64H93.06V106.24H95.06ZM94.06 79.64H142.66V77.64H94.06V79.64ZM143.66 78.64V70.36H141.66V78.64H143.66ZM142.66 69.36H94.18V71.36H142.66V69.36Z" fill="#3F3C31"/>
</g>
<defs>
<filter id="filter0_d" x="4" y="0" width="171" height="212" filterUnits="userSpaceOnUse" color-interpolation-filters="sRGB">
<feFlood flood-opacity="0" result="BackgroundImageFix"/>
<feColorMatrix in="SourceAlpha" type="matrix" values="0 0 0 0 0 0 0 0 0 0 0 0 0 0 0 0 0 0 127 0"/>
<feOffset dy="4"/>
<feGaussianBlur stdDeviation="2"/>
<feColorMatrix type="matrix" values="0 0 0 0 0 0 0 0 0 0 0 0 0 0 0 0 0 0 0.25 0"/>
<feBlend mode="normal" in2="BackgroundImageFix" result="effect1_dropShadow"/>
<feBlend mode="normal" in="SourceGraphic" in2="effect1_dropShadow" result="shape"/>
</filter>
<filter id="filter1_b" x="4" y="7" width="171" height="201" filterUnits="userSpaceOnUse" color-interpolation-filters="sRGB">
<feFlood flood-opacity="0" result="BackgroundImageFix"/>
<feGaussianBlur in="BackgroundImage" stdDeviation="2"/>
<feComposite in2="SourceAlpha" operator="in" result="effect1_backgroundBlur"/>
<feBlend mode="normal" in="SourceGraphic" in2="effect1_backgroundBlur" result="shape"/>
</filter>
<filter id="filter2_i" x="35.58" y="31.68" width="108.089" height="116.495" filterUnits="userSpaceOnUse" color-interpolation-filters="sRGB">
<feFlood flood-opacity="0" result="BackgroundImageFix"/>
<feBlend mode="normal" in="SourceGraphic" in2="BackgroundImageFix" result="shape"/>
<feColorMatrix in="SourceAlpha" type="matrix" values="0 0 0 0 0 0 0 0 0 0 0 0 0 0 0 0 0 0 127 0" result="hardAlpha"/>
<feOffset dy="4"/>
<feGaussianBlur stdDeviation="2"/>
<feComposite in2="hardAlpha" operator="arithmetic" k2="-1" k3="1"/>
<feColorMatrix type="matrix" values="0 0 0 0 0 0 0 0 0 0 0 0 0 0 0 0 0 0 0.25 0"/>
<feBlend mode="normal" in2="shape" result="effect1_innerShadow"/>
</filter>
</defs>
</svg>
