<svg width="183" height="236" viewBox="0 0 183 236" fill="none" xmlns="http://www.w3.org/2000/svg">
<g filter="url(#filter0_d)">
<g filter="url(#filter1_b)">
<path d="M164 196.618L91 228L19 196.618L4 12L179 12L164 196.618Z" fill="#FAE5B1"/>
<path d="M178.458 12.5L163.526 196.277L91.0014 227.455L19.4741 196.279L4.54227 12.5L178.458 12.5Z" stroke="#FAE5B1"/>
</g>
<rect x="179" y="12" width="175" height="12" transform="rotate(-180 179 12)" fill="#CFB278"/>
<g filter="url(#filter2_i)">
<path d="M135.68 52.68C133.4 56.76 128.96 62.64 125.6 66.24L131 69.6C134.6 66.24 139.04 61.44 143.12 56.76L135.68 52.68ZM144.08 79.56C139.28 75.6 129.8 70.08 122.48 66.72L119 70.08C118.16 65.52 117.68 60.72 117.44 55.8H45.2V63.84H109.88C112.28 84.24 117.92 101.64 136.28 103.8C142.04 104.76 145.28 101.04 146.72 91.2C144.92 90.24 142.76 88.32 141.2 86.64C140.6 92.76 139.64 96.12 137.96 95.88C127.64 95.16 122.12 85.56 119.48 72.84C126.56 76.56 134.72 81.6 138.8 85.32L144.08 79.56ZM131 122.88C134.72 119.76 139.4 114.84 143.72 110.16L136.16 106.2C133.76 110.16 128.96 116.28 125.6 119.76L131 122.88ZM145.4 133.32C140.24 129.12 130.16 123.48 122.48 120L120.2 122.28C119.24 115.56 118.76 108.12 118.64 100.44H92.36V67.68H83.6V100.44H64.04V80.04C68.6 77.28 72.8 74.28 76.16 71.16L68.48 68.28C61.16 74.64 48.08 80.28 36.56 83.64C38.24 85.32 40.88 88.92 41.84 90.6C46.28 89.04 50.96 87 55.52 84.72V100.44H38.24V108.6H55.4C54.68 123.72 51.32 140.16 36.44 153.36C38.6 154.68 41.72 157.44 43.04 159.24C59.6 144.6 63.32 125.88 63.92 108.6H83.6V158.04H92.36V108.6H110.72C112.16 134.88 116.36 156.84 136.88 159.12C143.24 160.32 146.36 155.88 147.8 143.76C146 142.8 143.72 140.76 142.04 138.84C141.56 146.64 140.48 151.32 138.8 151.08C128.48 150.24 123.44 140.52 120.92 126.72C128 130.56 135.92 135.36 140.12 139.08L145.4 133.32Z" fill="#3F3C31"/>
</g>
<path d="M135.68 52.68L136.161 51.8032L135.291 51.3262L134.807 52.1922L135.68 52.68ZM125.6 66.24L124.869 65.5577L124.039 66.4466L125.072 67.0891L125.6 66.24ZM131 69.6L130.472 70.4491L131.122 70.8538L131.682 70.3311L131 69.6ZM143.12 56.76L143.874 57.4171L144.69 56.4806L143.601 55.8832L143.12 56.76ZM144.08 79.56L144.817 80.2357L145.529 79.4591L144.716 78.7886L144.08 79.56ZM122.48 66.72L122.897 65.8112L122.277 65.5263L121.785 66.0006L122.48 66.72ZM119 70.08L118.017 70.2612L118.354 72.0937L119.695 70.7994L119 70.08ZM117.44 55.8L118.439 55.7513L118.392 54.8H117.44V55.8ZM45.2 55.8V54.8H44.2V55.8H45.2ZM45.2 63.84H44.2V64.84H45.2V63.84ZM109.88 63.84L110.873 63.7232L110.769 62.84H109.88V63.84ZM136.28 103.8L136.444 102.814L136.421 102.81L136.397 102.807L136.28 103.8ZM146.72 91.2L147.709 91.3448L147.811 90.6487L147.191 90.3176L146.72 91.2ZM141.2 86.64L141.933 85.9595L140.421 84.332L140.205 86.5424L141.2 86.64ZM137.96 95.88L138.101 94.89L138.066 94.8849L138.03 94.8824L137.96 95.88ZM119.48 72.84L119.945 71.9548L118.071 70.9698L118.501 73.0432L119.48 72.84ZM138.8 85.32L138.126 86.059L138.863 86.7309L139.537 85.9957L138.8 85.32ZM131 122.88L130.5 123.746L131.106 124.096L131.643 123.646L131 122.88ZM143.72 110.16L144.455 110.838L145.34 109.88L144.184 109.274L143.72 110.16ZM136.16 106.2L136.624 105.314L135.792 104.878L135.305 105.682L136.16 106.2ZM125.6 119.76L124.881 119.065L123.992 119.986L125.1 120.626L125.6 119.76ZM145.4 133.32L146.137 133.996L146.854 133.214L146.031 132.544L145.4 133.32ZM122.48 120L122.893 119.089L122.262 118.803L121.773 119.293L122.48 120ZM120.2 122.28L119.21 122.421L119.493 124.401L120.907 122.987L120.2 122.28ZM118.64 100.44L119.64 100.424L119.625 99.44H118.64V100.44ZM92.36 100.44H91.36V101.44H92.36V100.44ZM92.36 67.68H93.36V66.68H92.36V67.68ZM83.6 67.68V66.68H82.6V67.68H83.6ZM83.6 100.44V101.44H84.6V100.44H83.6ZM64.04 100.44H63.04V101.44H64.04V100.44ZM64.04 80.04L63.5222 79.1845L63.04 79.4764V80.04H64.04ZM76.16 71.16L76.8405 71.8928L78.0261 70.7918L76.5111 70.2237L76.16 71.16ZM68.48 68.28L68.8311 67.3437L68.2736 67.1346L67.8241 67.5251L68.48 68.28ZM36.56 83.64L36.28 82.68L34.6587 83.1529L35.8529 84.3471L36.56 83.64ZM41.84 90.6L40.9718 91.0961L41.3852 91.8197L42.1715 91.5435L41.84 90.6ZM55.52 84.72H56.52V83.102L55.0728 83.8256L55.52 84.72ZM55.52 100.44V101.44H56.52V100.44H55.52ZM38.24 100.44V99.44H37.24V100.44H38.24ZM38.24 108.6H37.24V109.6H38.24V108.6ZM55.4 108.6L56.3989 108.648L56.4488 107.6H55.4V108.6ZM36.44 153.36L35.7764 152.612L34.7655 153.509L35.9186 154.213L36.44 153.36ZM43.04 159.24L42.2336 159.831L42.8815 160.715L43.7023 159.989L43.04 159.24ZM63.92 108.6V107.6H62.9541L62.9206 108.565L63.92 108.6ZM83.6 108.6H84.6V107.6H83.6V108.6ZM83.6 158.04H82.6V159.04H83.6V158.04ZM92.36 158.04V159.04H93.36V158.04H92.36ZM92.36 108.6V107.6H91.36V108.6H92.36ZM110.72 108.6L111.719 108.545L111.667 107.6H110.72V108.6ZM136.88 159.12L137.065 158.137L137.028 158.13L136.99 158.126L136.88 159.12ZM147.8 143.76L148.793 143.878L148.874 143.199L148.271 142.878L147.8 143.76ZM142.04 138.84L142.793 138.181L141.191 136.351L141.042 138.779L142.04 138.84ZM138.8 151.08L138.941 150.09L138.911 150.086L138.881 150.083L138.8 151.08ZM120.92 126.72L121.397 125.841L119.561 124.845L119.936 126.9L120.92 126.72ZM140.12 139.08L139.457 139.829L140.193 140.48L140.857 139.756L140.12 139.08ZM134.807 52.1922C132.573 56.1893 128.185 62.005 124.869 65.5577L126.331 66.9223C129.735 63.275 134.227 57.3307 136.553 53.1678L134.807 52.1922ZM125.072 67.0891L130.472 70.4491L131.528 68.7509L126.128 65.3909L125.072 67.0891ZM131.682 70.3311C135.32 66.9362 139.786 62.1062 143.874 57.4171L142.366 56.1029C138.294 60.7738 133.88 65.5438 130.318 68.8689L131.682 70.3311ZM143.601 55.8832L136.161 51.8032L135.199 53.5568L142.639 57.6368L143.601 55.8832ZM144.716 78.7886C139.825 74.7531 130.26 69.1909 122.897 65.8112L122.063 67.6288C129.34 70.9691 138.735 76.4469 143.444 80.3314L144.716 78.7886ZM121.785 66.0006L118.305 69.3606L119.695 70.7994L123.175 67.4394L121.785 66.0006ZM119.983 69.8988C119.154 65.3936 118.677 60.6396 118.439 55.7513L116.441 55.8487C116.683 60.8004 117.166 65.6464 118.017 70.2612L119.983 69.8988ZM117.44 54.8H45.2V56.8H117.44V54.8ZM44.2 55.8V63.84H46.2V55.8H44.2ZM45.2 64.84H109.88V62.84H45.2V64.84ZM108.887 63.9568C110.09 74.1865 112.117 83.7993 116.222 91.1477C120.359 98.5544 126.618 103.67 136.163 104.793L136.397 102.807C127.582 101.77 121.841 97.1055 117.968 90.1723C114.063 83.1807 112.07 73.8935 110.873 63.7232L108.887 63.9568ZM136.116 104.786C137.672 105.046 139.123 105 140.446 104.571C141.779 104.141 142.923 103.342 143.886 102.192C145.781 99.9321 146.983 96.3101 147.709 91.3448L145.731 91.0552C145.017 95.9299 143.879 99.0879 142.354 100.908C141.607 101.798 140.771 102.364 139.831 102.669C138.882 102.975 137.768 103.034 136.444 102.814L136.116 104.786ZM147.191 90.3176C145.535 89.4345 143.464 87.6083 141.933 85.9595L140.467 87.3205C142.056 89.0317 144.305 91.0455 146.249 92.0824L147.191 90.3176ZM140.205 86.5424C139.906 89.5913 139.524 91.8667 139.036 93.3288C138.79 94.0669 138.547 94.5055 138.344 94.7331C138.173 94.9251 138.111 94.8915 138.101 94.89L137.819 96.8699C138.649 96.9885 139.337 96.6249 139.837 96.0632C140.306 95.537 140.655 94.7981 140.934 93.9612C141.496 92.2733 141.894 89.8087 142.195 86.7376L140.205 86.5424ZM138.03 94.8824C133.212 94.5463 129.503 92.154 126.646 88.2676C123.766 84.3507 121.765 78.928 120.459 72.6368L118.501 73.0432C119.835 79.472 121.914 85.2093 125.034 89.4524C128.177 93.726 132.388 96.4937 137.89 96.8776L138.03 94.8824ZM119.015 73.7252C126.081 77.4377 134.145 82.4294 138.126 86.059L139.474 84.581C135.295 80.7706 127.039 75.6822 119.945 71.9548L119.015 73.7252ZM139.537 85.9957L144.817 80.2357L143.343 78.8843L138.063 84.6443L139.537 85.9957ZM131.643 123.646C135.419 120.479 140.14 115.512 144.455 110.838L142.985 109.482C138.66 114.168 134.021 119.041 130.357 122.114L131.643 123.646ZM144.184 109.274L136.624 105.314L135.696 107.086L143.256 111.046L144.184 109.274ZM135.305 105.682C132.948 109.571 128.195 115.633 124.881 119.065L126.319 120.455C129.725 116.927 134.572 110.749 137.015 106.718L135.305 105.682ZM125.1 120.626L130.5 123.746L131.5 122.014L126.1 118.894L125.1 120.626ZM146.031 132.544C140.775 128.266 130.606 122.584 122.893 119.089L122.067 120.911C129.714 124.376 139.705 129.974 144.769 134.096L146.031 132.544ZM121.773 119.293L119.493 121.573L120.907 122.987L123.187 120.707L121.773 119.293ZM121.19 122.139C120.238 115.472 119.759 108.075 119.64 100.424L117.64 100.456C117.761 108.165 118.242 115.648 119.21 122.421L121.19 122.139ZM118.64 99.44H92.36V101.44H118.64V99.44ZM93.36 100.44V67.68H91.36V100.44H93.36ZM92.36 66.68H83.6V68.68H92.36V66.68ZM82.6 67.68V100.44H84.6V67.68H82.6ZM83.6 99.44H64.04V101.44H83.6V99.44ZM65.04 100.44V80.04H63.04V100.44H65.04ZM64.5578 80.8955C69.1548 78.1131 73.4152 75.0734 76.8405 71.8928L75.4796 70.4272C72.1848 73.4866 68.0452 76.4469 63.5222 79.1845L64.5578 80.8955ZM76.5111 70.2237L68.8311 67.3437L68.1289 69.2163L75.8089 72.0963L76.5111 70.2237ZM67.8241 67.5251C60.6686 73.7422 47.7556 79.3329 36.28 82.68L36.84 84.6C48.4044 81.2271 61.6514 75.5378 69.1359 69.0349L67.8241 67.5251ZM35.8529 84.3471C37.462 85.9562 40.0498 89.4827 40.9718 91.0961L42.7082 90.1039C41.7102 88.3573 39.018 84.6838 37.2671 82.9329L35.8529 84.3471ZM42.1715 91.5435C46.6588 89.9668 51.3779 87.9091 55.9672 85.6144L55.0728 83.8256C50.5421 86.0909 45.9012 88.1132 41.5085 89.6565L42.1715 91.5435ZM54.52 84.72V100.44H56.52V84.72H54.52ZM55.52 99.44H38.24V101.44H55.52V99.44ZM37.24 100.44V108.6H39.24V100.44H37.24ZM38.24 109.6H55.4V107.6H38.24V109.6ZM54.4011 108.552C53.6865 123.559 50.3624 139.673 35.7764 152.612L37.1036 154.108C52.2776 140.647 55.6735 123.881 56.3989 108.648L54.4011 108.552ZM35.9186 154.213C37.9875 155.478 41.0034 158.154 42.2336 159.831L43.8464 158.649C42.4366 156.726 39.2125 153.882 36.9615 152.507L35.9186 154.213ZM43.7023 159.989C60.5639 145.083 64.3155 126.027 64.9194 108.635L62.9206 108.565C62.3245 125.733 58.6361 144.117 42.3777 158.491L43.7023 159.989ZM63.92 109.6H83.6V107.6H63.92V109.6ZM82.6 108.6V158.04H84.6V108.6H82.6ZM83.6 159.04H92.36V157.04H83.6V159.04ZM93.36 158.04V108.6H91.36V158.04H93.36ZM92.36 109.6H110.72V107.6H92.36V109.6ZM109.722 108.655C110.442 121.798 111.855 134.012 115.723 143.246C117.663 147.878 120.238 151.805 123.693 154.724C127.157 157.651 131.457 159.524 136.77 160.114L136.99 158.126C132.043 157.576 128.123 155.849 124.984 153.196C121.834 150.535 119.422 146.902 117.567 142.474C113.845 133.588 112.438 121.682 111.719 108.545L109.722 108.655ZM136.695 160.103C138.407 160.426 139.985 160.385 141.407 159.871C142.838 159.354 144.025 158.389 145.001 157.013C146.912 154.318 148.071 149.956 148.793 143.878L146.807 143.642C146.089 149.684 144.968 153.602 143.369 155.857C142.59 156.956 141.714 157.634 140.727 157.99C139.73 158.35 138.533 158.414 137.065 158.137L136.695 160.103ZM148.271 142.878C146.622 141.999 144.435 140.059 142.793 138.181L141.287 139.499C143.005 141.461 145.378 143.601 147.329 144.642L148.271 142.878ZM141.042 138.779C140.803 142.661 140.417 145.705 139.901 147.728C139.64 148.75 139.365 149.429 139.111 149.818C138.848 150.219 138.787 150.068 138.941 150.09L138.659 152.07C139.653 152.212 140.357 151.566 140.784 150.913C141.22 150.248 141.56 149.315 141.839 148.222C142.403 146.015 142.797 142.819 143.038 138.901L141.042 138.779ZM138.881 150.083C134.074 149.692 130.49 147.254 127.765 143.202C125.012 139.109 123.154 133.387 121.904 126.54L119.936 126.9C121.206 133.853 123.128 139.891 126.105 144.318C129.11 148.786 133.206 151.628 138.719 152.077L138.881 150.083ZM120.443 127.599C127.523 131.439 135.351 136.192 139.457 139.829L140.783 138.331C136.489 134.528 128.477 129.681 121.397 125.841L120.443 127.599ZM140.857 139.756L146.137 133.996L144.663 132.644L139.383 138.404L140.857 139.756Z" fill="#3F3C31"/>
</g>
<defs>
<filter id="filter0_d" x="0" y="0" width="183" height="236" filterUnits="userSpaceOnUse" color-interpolation-filters="sRGB">
<feFlood flood-opacity="0" result="BackgroundImageFix"/>
<feColorMatrix in="SourceAlpha" type="matrix" values="0 0 0 0 0 0 0 0 0 0 0 0 0 0 0 0 0 0 127 0"/>
<feOffset dy="4"/>
<feGaussianBlur stdDeviation="2"/>
<feColorMatrix type="matrix" values="0 0 0 0 0 0 0 0 0 0 0 0 0 0 0 0 0 0 0.25 0"/>
<feBlend mode="normal" in2="BackgroundImageFix" result="effect1_dropShadow"/>
<feBlend mode="normal" in="SourceGraphic" in2="effect1_dropShadow" result="shape"/>
</filter>
<filter id="filter1_b" x="0" y="8" width="183" height="224" filterUnits="userSpaceOnUse" color-interpolation-filters="sRGB">
<feFlood flood-opacity="0" result="BackgroundImageFix"/>
<feGaussianBlur in="BackgroundImage" stdDeviation="2"/>
<feComposite in2="SourceAlpha" operator="in" result="effect1_backgroundBlur"/>
<feBlend mode="normal" in="SourceGraphic" in2="effect1_backgroundBlur" result="shape"/>
</filter>
<filter id="filter2_i" x="34.6587" y="51.3262" width="114.215" height="113.389" filterUnits="userSpaceOnUse" color-interpolation-filters="sRGB">
<feFlood flood-opacity="0" result="BackgroundImageFix"/>
<feBlend mode="normal" in="SourceGraphic" in2="BackgroundImageFix" result="shape"/>
<feColorMatrix in="SourceAlpha" type="matrix" values="0 0 0 0 0 0 0 0 0 0 0 0 0 0 0 0 0 0 127 0" result="hardAlpha"/>
<feOffset dy="4"/>
<feGaussianBlur stdDeviation="2"/>
<feComposite in2="hardAlpha" operator="arithmetic" k2="-1" k3="1"/>
<feColorMatrix type="matrix" values="0 0 0 0 0 0 0 0 0 0 0 0 0 0 0 0 0 0 0.25 0"/>
<feBlend mode="normal" in2="shape" result="effect1_innerShadow"/>
</filter>
</defs>
</svg>
