<svg width="183" height="236" viewBox="0 0 183 236" fill="none" xmlns="http://www.w3.org/2000/svg">
<g filter="url(#filter0_d)">
<g filter="url(#filter1_b)">
<path d="M19 31.4897L92 0L164 31.4897L179 216.741H4L19 31.4897Z" fill="#FAE5B1"/>
<path d="M4.54212 216.241L19.4741 31.8297L91.9986 0.545129L163.526 31.828L178.458 216.241H4.54212Z" stroke="#FAE5B1"/>
</g>
<rect x="4" y="216.741" width="175" height="11.2593" fill="#CFB278"/>
<g filter="url(#filter2_i)">
<path d="M44 171.04C52.16 164.2 55.88 152.44 58.16 141.28L50.24 139.12C48.44 149.56 44.24 160.12 36.8 166.48L44 171.04ZM67.4 143.2C69.44 150.88 71 160.6 71.12 167.08L79.04 165.76C78.8 159.28 77.24 149.56 75.08 142L67.4 143.2ZM88.04 142.48C91.16 149.32 94.16 158.44 95 163.96L102.44 161.8C101.48 156.28 98.36 147.4 94.88 140.92L88.04 142.48ZM60.92 114.4H88.88V126.16H60.92V114.4ZM88.88 76.36V88.12H60.92V76.36H88.88ZM88.88 107.08H60.92V95.32H88.88V107.08ZM97.64 126.16V114.4H131.96V107.08H97.64V95.32H131.96V88.12H97.64V76.36H136.04V68.44H52.28V134.08H134.12C132.8 153.16 131.24 160.72 129.08 163.12C128.12 164.08 126.92 164.32 124.76 164.32C122.72 164.32 117.08 164.32 111.2 163.6C112.52 165.88 113.36 169.48 113.6 171.76C119.72 172.24 125.72 172.24 128.84 172C132.2 171.76 134.48 170.92 136.52 168.64C139.88 164.92 141.68 155.08 143.24 130C143.48 128.8 143.6 126.16 143.6 126.16H97.64ZM124.28 154.12C122.48 149.8 118.04 142.96 113.72 138.04L107.24 140.68C111.32 145.72 115.64 152.8 117.44 157.24L124.28 154.12Z" fill="#BA462D"/>
</g>
<path d="M44 171.04L43.4649 171.885L44.0823 172.276L44.6424 171.806L44 171.04ZM58.16 141.28L59.1398 141.48L59.3274 140.562L58.4231 140.315L58.16 141.28ZM50.24 139.12L50.5031 138.155L49.4415 137.866L49.2545 138.95L50.24 139.12ZM36.8 166.48L36.1502 165.72L35.1206 166.6L36.2649 167.325L36.8 166.48ZM67.4 143.2L67.2456 142.212L66.1484 142.383L66.4335 143.457L67.4 143.2ZM71.12 167.08L70.1202 167.099L70.1416 168.257L71.2844 168.066L71.12 167.08ZM79.04 165.76L79.2044 166.746L80.0719 166.602L80.0393 165.723L79.04 165.76ZM75.08 142L76.0415 141.725L75.7988 140.876L74.9256 141.012L75.08 142ZM88.04 142.48L87.8176 141.505L86.6207 141.778L87.1302 142.895L88.04 142.48ZM95 163.96L94.0114 164.11L94.183 165.238L95.2788 164.92L95 163.96ZM102.44 161.8L102.719 162.76L103.579 162.511L103.425 161.629L102.44 161.8ZM94.88 140.92L95.761 140.447L95.4005 139.776L94.6576 139.945L94.88 140.92ZM60.92 114.4V113.4H59.92V114.4H60.92ZM88.88 114.4H89.88V113.4H88.88V114.4ZM88.88 126.16V127.16H89.88V126.16H88.88ZM60.92 126.16H59.92V127.16H60.92V126.16ZM88.88 76.36H89.88V75.36H88.88V76.36ZM88.88 88.12V89.12H89.88V88.12H88.88ZM60.92 88.12H59.92V89.12H60.92V88.12ZM60.92 76.36V75.36H59.92V76.36H60.92ZM88.88 107.08V108.08H89.88V107.08H88.88ZM60.92 107.08H59.92V108.08H60.92V107.08ZM60.92 95.32V94.32H59.92V95.32H60.92ZM88.88 95.32H89.88V94.32H88.88V95.32ZM97.64 126.16H96.64V127.16H97.64V126.16ZM97.64 114.4V113.4H96.64V114.4H97.64ZM131.96 114.4V115.4H132.96V114.4H131.96ZM131.96 107.08H132.96V106.08H131.96V107.08ZM97.64 107.08H96.64V108.08H97.64V107.08ZM97.64 95.32V94.32H96.64V95.32H97.64ZM131.96 95.32V96.32H132.96V95.32H131.96ZM131.96 88.12H132.96V87.12H131.96V88.12ZM97.64 88.12H96.64V89.12H97.64V88.12ZM97.64 76.36V75.36H96.64V76.36H97.64ZM136.04 76.36V77.36H137.04V76.36H136.04ZM136.04 68.44H137.04V67.44H136.04V68.44ZM52.28 68.44V67.44H51.28V68.44H52.28ZM52.28 134.08H51.28V135.08H52.28V134.08ZM134.12 134.08L135.118 134.149L135.192 133.08H134.12V134.08ZM129.08 163.12L129.787 163.827L129.806 163.809L129.823 163.789L129.08 163.12ZM111.2 163.6L111.322 162.607L109.329 162.363L110.335 164.101L111.2 163.6ZM113.6 171.76L112.605 171.865L112.693 172.692L113.522 172.757L113.6 171.76ZM128.84 172L128.769 171.003L128.763 171.003L128.84 172ZM136.52 168.64L135.778 167.97L135.775 167.973L136.52 168.64ZM143.24 130L142.259 129.804L142.246 129.87L142.242 129.938L143.24 130ZM143.6 126.16L144.599 126.205L144.646 125.16H143.6V126.16ZM124.28 154.12L124.695 155.03L125.575 154.628L125.203 153.735L124.28 154.12ZM113.72 138.04L114.471 137.38L114.002 136.845L113.343 137.114L113.72 138.04ZM107.24 140.68L106.863 139.754L105.615 140.262L106.463 141.309L107.24 140.68ZM117.44 157.24L116.513 157.616L116.905 158.583L117.855 158.15L117.44 157.24ZM44.6424 171.806C53.0902 164.725 56.8583 152.647 59.1398 141.48L57.1802 141.08C54.9017 152.233 51.2298 163.675 43.3576 170.274L44.6424 171.806ZM58.4231 140.315L50.5031 138.155L49.9769 140.085L57.8969 142.245L58.4231 140.315ZM49.2545 138.95C47.4723 149.287 43.3349 159.578 36.1502 165.72L37.4498 167.24C45.1451 160.662 49.4077 149.833 51.2255 139.29L49.2545 138.95ZM36.2649 167.325L43.4649 171.885L44.5351 170.195L37.3351 165.635L36.2649 167.325ZM66.4335 143.457C68.459 151.082 70.0021 160.72 70.1202 167.099L72.1198 167.061C71.998 160.48 70.421 150.678 68.3665 142.943L66.4335 143.457ZM71.2844 168.066L79.2044 166.746L78.8756 164.774L70.9556 166.094L71.2844 168.066ZM80.0393 165.723C79.7961 159.155 78.2215 149.355 76.0415 141.725L74.1185 142.275C76.2585 149.765 77.8039 159.405 78.0407 165.797L80.0393 165.723ZM74.9256 141.012L67.2456 142.212L67.5544 144.188L75.2344 142.988L74.9256 141.012ZM87.1302 142.895C90.2272 149.685 93.1899 158.712 94.0114 164.11L95.9886 163.81C95.1301 158.168 92.0928 148.955 88.9498 142.065L87.1302 142.895ZM95.2788 164.92L102.719 162.76L102.161 160.84L94.7212 163L95.2788 164.92ZM103.425 161.629C102.444 155.988 99.2837 147.006 95.761 140.447L93.999 141.393C97.4363 147.794 100.516 156.572 101.455 161.971L103.425 161.629ZM94.6576 139.945L87.8176 141.505L88.2624 143.455L95.1024 141.895L94.6576 139.945ZM60.92 115.4H88.88V113.4H60.92V115.4ZM87.88 114.4V126.16H89.88V114.4H87.88ZM88.88 125.16H60.92V127.16H88.88V125.16ZM61.92 126.16V114.4H59.92V126.16H61.92ZM87.88 76.36V88.12H89.88V76.36H87.88ZM88.88 87.12H60.92V89.12H88.88V87.12ZM61.92 88.12V76.36H59.92V88.12H61.92ZM60.92 77.36H88.88V75.36H60.92V77.36ZM88.88 106.08H60.92V108.08H88.88V106.08ZM61.92 107.08V95.32H59.92V107.08H61.92ZM60.92 96.32H88.88V94.32H60.92V96.32ZM87.88 95.32V107.08H89.88V95.32H87.88ZM98.64 126.16V114.4H96.64V126.16H98.64ZM97.64 115.4H131.96V113.4H97.64V115.4ZM132.96 114.4V107.08H130.96V114.4H132.96ZM131.96 106.08H97.64V108.08H131.96V106.08ZM98.64 107.08V95.32H96.64V107.08H98.64ZM97.64 96.32H131.96V94.32H97.64V96.32ZM132.96 95.32V88.12H130.96V95.32H132.96ZM131.96 87.12H97.64V89.12H131.96V87.12ZM98.64 88.12V76.36H96.64V88.12H98.64ZM97.64 77.36H136.04V75.36H97.64V77.36ZM137.04 76.36V68.44H135.04V76.36H137.04ZM136.04 67.44H52.28V69.44H136.04V67.44ZM51.28 68.44V134.08H53.28V68.44H51.28ZM52.28 135.08H134.12V133.08H52.28V135.08ZM133.122 134.011C132.463 143.542 131.746 150.158 130.931 154.678C130.523 156.937 130.096 158.647 129.649 159.923C129.199 161.208 128.751 161.991 128.337 162.451L129.823 163.789C130.489 163.049 131.046 161.987 131.537 160.584C132.032 159.171 132.482 157.348 132.899 155.032C133.734 150.402 134.457 143.698 135.118 134.149L133.122 134.011ZM128.373 162.413C127.717 163.069 126.886 163.32 124.76 163.32V165.32C126.954 165.32 128.523 165.091 129.787 163.827L128.373 162.413ZM124.76 163.32C122.723 163.32 117.136 163.319 111.322 162.607L111.078 164.593C117.024 165.321 122.717 165.32 124.76 165.32V163.32ZM110.335 164.101C111.556 166.211 112.373 169.655 112.605 171.865L114.595 171.655C114.347 169.305 113.484 165.549 112.065 163.099L110.335 164.101ZM113.522 172.757C119.678 173.24 125.732 173.242 128.917 172.997L128.763 171.003C125.708 171.238 119.762 171.24 113.678 170.763L113.522 172.757ZM128.911 172.997C132.443 172.745 135.001 171.837 137.265 169.307L135.775 167.973C133.959 170.003 131.957 170.775 128.769 171.003L128.911 172.997ZM137.262 169.31C139.149 167.221 140.473 163.576 141.54 157.503C142.615 151.384 143.458 142.607 144.238 130.062L142.242 129.938C141.462 142.473 140.625 151.156 139.57 157.157C138.507 163.204 137.251 166.339 135.778 167.97L137.262 169.31ZM144.221 130.196C144.354 129.527 144.448 128.509 144.507 127.704C144.538 127.292 144.561 126.918 144.576 126.647C144.584 126.512 144.589 126.402 144.593 126.326C144.595 126.288 144.596 126.258 144.597 126.238C144.598 126.227 144.598 126.22 144.599 126.214C144.599 126.211 144.599 126.209 144.599 126.208C144.599 126.207 144.599 126.207 144.599 126.206C144.599 126.206 144.599 126.206 144.599 126.206C144.599 126.206 144.599 126.206 144.599 126.206C144.599 126.205 144.599 126.205 143.6 126.16C142.601 126.115 142.601 126.115 142.601 126.115C142.601 126.115 142.601 126.115 142.601 126.115C142.601 126.115 142.601 126.115 142.601 126.115C142.601 126.115 142.601 126.115 142.601 126.116C142.601 126.117 142.601 126.119 142.601 126.121C142.601 126.126 142.6 126.133 142.6 126.142C142.599 126.161 142.597 126.189 142.596 126.226C142.592 126.298 142.586 126.404 142.579 126.535C142.564 126.797 142.542 127.158 142.513 127.556C142.452 128.371 142.366 129.273 142.259 129.804L144.221 130.196ZM143.6 125.16H97.64V127.16H143.6V125.16ZM125.203 153.735C123.351 149.29 118.842 142.358 114.471 137.38L112.969 138.7C117.238 143.562 121.609 150.31 123.357 154.505L125.203 153.735ZM113.343 137.114L106.863 139.754L107.617 141.606L114.097 138.966L113.343 137.114ZM106.463 141.309C110.497 146.292 114.759 153.288 116.513 157.616L118.367 156.864C116.521 152.312 112.143 145.148 108.017 140.051L106.463 141.309ZM117.855 158.15L124.695 155.03L123.865 153.21L117.025 156.33L117.855 158.15Z" fill="#BA462D"/>
</g>
<defs>
<filter id="filter0_d" x="0" y="0" width="183" height="236" filterUnits="userSpaceOnUse" color-interpolation-filters="sRGB">
<feFlood flood-opacity="0" result="BackgroundImageFix"/>
<feColorMatrix in="SourceAlpha" type="matrix" values="0 0 0 0 0 0 0 0 0 0 0 0 0 0 0 0 0 0 127 0"/>
<feOffset dy="4"/>
<feGaussianBlur stdDeviation="2"/>
<feColorMatrix type="matrix" values="0 0 0 0 0 0 0 0 0 0 0 0 0 0 0 0 0 0 0.25 0"/>
<feBlend mode="normal" in2="BackgroundImageFix" result="effect1_dropShadow"/>
<feBlend mode="normal" in="SourceGraphic" in2="effect1_dropShadow" result="shape"/>
</filter>
<filter id="filter1_b" x="0" y="-4" width="183" height="224.741" filterUnits="userSpaceOnUse" color-interpolation-filters="sRGB">
<feFlood flood-opacity="0" result="BackgroundImageFix"/>
<feGaussianBlur in="BackgroundImage" stdDeviation="2"/>
<feComposite in2="SourceAlpha" operator="in" result="effect1_backgroundBlur"/>
<feBlend mode="normal" in="SourceGraphic" in2="effect1_backgroundBlur" result="shape"/>
</filter>
<filter id="filter2_i" x="35.1206" y="67.44" width="109.526" height="109.718" filterUnits="userSpaceOnUse" color-interpolation-filters="sRGB">
<feFlood flood-opacity="0" result="BackgroundImageFix"/>
<feBlend mode="normal" in="SourceGraphic" in2="BackgroundImageFix" result="shape"/>
<feColorMatrix in="SourceAlpha" type="matrix" values="0 0 0 0 0 0 0 0 0 0 0 0 0 0 0 0 0 0 127 0" result="hardAlpha"/>
<feOffset dy="4"/>
<feGaussianBlur stdDeviation="2"/>
<feComposite in2="hardAlpha" operator="arithmetic" k2="-1" k3="1"/>
<feColorMatrix type="matrix" values="0 0 0 0 0 0 0 0 0 0 0 0 0 0 0 0 0 0 0.25 0"/>
<feBlend mode="normal" in2="shape" result="effect1_innerShadow"/>
</filter>
</defs>
</svg>
