<svg width="183" height="223" viewBox="0 0 183 223" fill="none" xmlns="http://www.w3.org/2000/svg">
<g filter="url(#filter0_d)">
<g filter="url(#filter1_b)">
<path d="M18.9143 29.4933L91.4971 0L163.086 29.4933L178 203H4L18.9143 29.4933Z" fill="#FAE5B1"/>
<path d="M4.54482 202.5L19.3862 29.8413L91.4958 0.540232L162.614 29.8396L177.455 202.5H4.54482Z" stroke="#FAE5B1"/>
</g>
<rect x="4" y="203" width="174.028" height="11.2593" fill="#CFB278"/>
<g filter="url(#filter2_i)">
<path d="M104.9 97.56H75.98V105.96H144.02V97.56H113.78V80.04H138.26V71.88H113.78V56.28H104.9V71.88H80.18V80.04H104.9V97.56ZM75.62 113.04C73.58 109.8 64.82 96.36 61.7 92.04V87H76.1V78.6H61.7V55.56H53.42V78.6H37.82V87H52.58C48.86 103.32 41.3 122.16 33.62 132.24C35.18 134.4 37.46 138.24 38.42 140.88C43.94 132.84 49.34 120 53.42 106.68V165.12H61.7V102.96C64.94 108.84 68.54 115.8 70.22 119.4L75.62 113.04ZM113.78 152.16V132.48H140.06V124.2H113.78V110.4H104.9V124.2H78.26V132.48H104.9V152.16H70.22V160.68H145.34V152.16H113.78Z" fill="#BA462D"/>
</g>
<path d="M104.9 97.56V98.56H105.9V97.56H104.9ZM75.98 97.56V96.56H74.98V97.56H75.98ZM75.98 105.96H74.98V106.96H75.98V105.96ZM144.02 105.96V106.96H145.02V105.96H144.02ZM144.02 97.56H145.02V96.56H144.02V97.56ZM113.78 97.56H112.78V98.56H113.78V97.56ZM113.78 80.04V79.04H112.78V80.04H113.78ZM138.26 80.04V81.04H139.26V80.04H138.26ZM138.26 71.88H139.26V70.88H138.26V71.88ZM113.78 71.88H112.78V72.88H113.78V71.88ZM113.78 56.28H114.78V55.28H113.78V56.28ZM104.9 56.28V55.28H103.9V56.28H104.9ZM104.9 71.88V72.88H105.9V71.88H104.9ZM80.18 71.88V70.88H79.18V71.88H80.18ZM80.18 80.04H79.18V81.04H80.18V80.04ZM104.9 80.04H105.9V79.04H104.9V80.04ZM75.62 113.04L76.3823 113.687L76.8571 113.128L76.4662 112.507L75.62 113.04ZM61.7 92.04H60.7V92.3633L60.8893 92.6255L61.7 92.04ZM61.7 87V86H60.7V87H61.7ZM76.1 87V88H77.1V87H76.1ZM76.1 78.6H77.1V77.6H76.1V78.6ZM61.7 78.6H60.7V79.6H61.7V78.6ZM61.7 55.56H62.7V54.56H61.7V55.56ZM53.42 55.56V54.56H52.42V55.56H53.42ZM53.42 78.6V79.6H54.42V78.6H53.42ZM37.82 78.6V77.6H36.82V78.6H37.82ZM37.82 87H36.82V88H37.82V87ZM52.58 87L53.555 87.2222L53.8336 86H52.58V87ZM33.62 132.24L32.8246 131.634L32.375 132.224L32.8093 132.825L33.62 132.24ZM38.42 140.88L37.4802 141.222L38.1444 143.048L39.2444 141.446L38.42 140.88ZM53.42 106.68H54.42L52.4639 106.387L53.42 106.68ZM53.42 165.12H52.42V166.12H53.42V165.12ZM61.7 165.12V166.12H62.7V165.12H61.7ZM61.7 102.96L62.5758 102.477L60.7 102.96H61.7ZM70.22 119.4L69.3138 119.823L69.9732 121.236L70.9823 120.047L70.22 119.4ZM113.78 152.16H112.78V153.16H113.78V152.16ZM113.78 132.48V131.48H112.78V132.48H113.78ZM140.06 132.48V133.48H141.06V132.48H140.06ZM140.06 124.2H141.06V123.2H140.06V124.2ZM113.78 124.2H112.78V125.2H113.78V124.2ZM113.78 110.4H114.78V109.4H113.78V110.4ZM104.9 110.4V109.4H103.9V110.4H104.9ZM104.9 124.2V125.2H105.9V124.2H104.9ZM78.26 124.2V123.2H77.26V124.2H78.26ZM78.26 132.48H77.26V133.48H78.26V132.48ZM104.9 132.48H105.9V131.48H104.9V132.48ZM104.9 152.16V153.16H105.9V152.16H104.9ZM70.22 152.16V151.16H69.22V152.16H70.22ZM70.22 160.68H69.22V161.68H70.22V160.68ZM145.34 160.68V161.68H146.34V160.68H145.34ZM145.34 152.16H146.34V151.16H145.34V152.16ZM104.9 96.56H75.98V98.56H104.9V96.56ZM74.98 97.56V105.96H76.98V97.56H74.98ZM75.98 106.96H144.02V104.96H75.98V106.96ZM145.02 105.96V97.56H143.02V105.96H145.02ZM144.02 96.56H113.78V98.56H144.02V96.56ZM114.78 97.56V80.04H112.78V97.56H114.78ZM113.78 81.04H138.26V79.04H113.78V81.04ZM139.26 80.04V71.88H137.26V80.04H139.26ZM138.26 70.88H113.78V72.88H138.26V70.88ZM114.78 71.88V56.28H112.78V71.88H114.78ZM113.78 55.28H104.9V57.28H113.78V55.28ZM103.9 56.28V71.88H105.9V56.28H103.9ZM104.9 70.88H80.18V72.88H104.9V70.88ZM79.18 71.88V80.04H81.18V71.88H79.18ZM80.18 81.04H104.9V79.04H80.18V81.04ZM103.9 80.04V97.56H105.9V80.04H103.9ZM76.4662 112.507C74.4245 109.264 65.6504 95.8018 62.5107 91.4545L60.8893 92.6255C63.9896 96.9182 72.7356 110.336 74.7738 113.573L76.4662 112.507ZM62.7 92.04V87H60.7V92.04H62.7ZM61.7 88H76.1V86H61.7V88ZM77.1 87V78.6H75.1V87H77.1ZM76.1 77.6H61.7V79.6H76.1V77.6ZM62.7 78.6V55.56H60.7V78.6H62.7ZM61.7 54.56H53.42V56.56H61.7V54.56ZM52.42 55.56V78.6H54.42V55.56H52.42ZM53.42 77.6H37.82V79.6H53.42V77.6ZM36.82 78.6V87H38.82V78.6H36.82ZM37.82 88H52.58V86H37.82V88ZM51.605 86.7778C47.9016 103.025 40.3845 121.712 32.8246 131.634L34.4154 132.846C42.2155 122.608 49.8184 103.615 53.555 87.2222L51.605 86.7778ZM32.8093 132.825C34.3404 134.945 36.5637 138.701 37.4802 141.222L39.3598 140.538C38.3563 137.779 36.0196 133.855 34.4307 131.655L32.8093 132.825ZM39.2444 141.446C44.8486 133.283 50.2844 120.331 54.3762 106.973L52.4639 106.387C48.3956 119.669 43.0314 132.397 37.5956 140.314L39.2444 141.446ZM52.42 106.68V165.12H54.42V106.68H52.42ZM53.42 166.12H61.7V164.12H53.42V166.12ZM62.7 165.12V102.96H60.7V165.12H62.7ZM60.8242 103.443C64.059 109.313 67.6471 116.251 69.3138 119.823L71.1262 118.977C69.4329 115.349 65.821 108.367 62.5758 102.477L60.8242 103.443ZM70.9823 120.047L76.3823 113.687L74.8577 112.393L69.4577 118.753L70.9823 120.047ZM114.78 152.16V132.48H112.78V152.16H114.78ZM113.78 133.48H140.06V131.48H113.78V133.48ZM141.06 132.48V124.2H139.06V132.48H141.06ZM140.06 123.2H113.78V125.2H140.06V123.2ZM114.78 124.2V110.4H112.78V124.2H114.78ZM113.78 109.4H104.9V111.4H113.78V109.4ZM103.9 110.4V124.2H105.9V110.4H103.9ZM104.9 123.2H78.26V125.2H104.9V123.2ZM77.26 124.2V132.48H79.26V124.2H77.26ZM78.26 133.48H104.9V131.48H78.26V133.48ZM103.9 132.48V152.16H105.9V132.48H103.9ZM104.9 151.16H70.22V153.16H104.9V151.16ZM69.22 152.16V160.68H71.22V152.16H69.22ZM70.22 161.68H145.34V159.68H70.22V161.68ZM146.34 160.68V152.16H144.34V160.68H146.34ZM145.34 151.16H113.78V153.16H145.34V151.16Z" fill="#BA462D"/>
</g>
<defs>
<filter id="filter0_d" x="0" y="0" width="182.028" height="222.259" filterUnits="userSpaceOnUse" color-interpolation-filters="sRGB">
<feFlood flood-opacity="0" result="BackgroundImageFix"/>
<feColorMatrix in="SourceAlpha" type="matrix" values="0 0 0 0 0 0 0 0 0 0 0 0 0 0 0 0 0 0 127 0"/>
<feOffset dy="4"/>
<feGaussianBlur stdDeviation="2"/>
<feColorMatrix type="matrix" values="0 0 0 0 0 0 0 0 0 0 0 0 0 0 0 0 0 0 0.25 0"/>
<feBlend mode="normal" in2="BackgroundImageFix" result="effect1_dropShadow"/>
<feBlend mode="normal" in="SourceGraphic" in2="effect1_dropShadow" result="shape"/>
</filter>
<filter id="filter1_b" x="0" y="-4" width="182" height="211" filterUnits="userSpaceOnUse" color-interpolation-filters="sRGB">
<feFlood flood-opacity="0" result="BackgroundImageFix"/>
<feGaussianBlur in="BackgroundImage" stdDeviation="2"/>
<feComposite in2="SourceAlpha" operator="in" result="effect1_backgroundBlur"/>
<feBlend mode="normal" in="SourceGraphic" in2="effect1_backgroundBlur" result="shape"/>
</filter>
<filter id="filter2_i" x="32.375" y="54.56" width="113.965" height="115.56" filterUnits="userSpaceOnUse" color-interpolation-filters="sRGB">
<feFlood flood-opacity="0" result="BackgroundImageFix"/>
<feBlend mode="normal" in="SourceGraphic" in2="BackgroundImageFix" result="shape"/>
<feColorMatrix in="SourceAlpha" type="matrix" values="0 0 0 0 0 0 0 0 0 0 0 0 0 0 0 0 0 0 127 0" result="hardAlpha"/>
<feOffset dy="4"/>
<feGaussianBlur stdDeviation="2"/>
<feComposite in2="hardAlpha" operator="arithmetic" k2="-1" k3="1"/>
<feColorMatrix type="matrix" values="0 0 0 0 0 0 0 0 0 0 0 0 0 0 0 0 0 0 0.25 0"/>
<feBlend mode="normal" in2="shape" result="effect1_innerShadow"/>
</filter>
</defs>
</svg>
