<svg width="183" height="223" viewBox="0 0 183 223" fill="none" xmlns="http://www.w3.org/2000/svg">
<g filter="url(#filter0_d)">
<g filter="url(#filter1_b)">
<path d="M18.9143 29.4933L91.4971 0L163.086 29.4933L178 203H4L18.9143 29.4933Z" fill="#FAE5B1"/>
<path d="M4.54482 202.5L19.3862 29.8413L91.4958 0.540232L162.614 29.8396L177.455 202.5H4.54482Z" stroke="#FAE5B1"/>
</g>
<rect x="4" y="203" width="174.028" height="11.2593" fill="#CFB278"/>
<g filter="url(#filter2_i)">
<path d="M118.22 125.28V136.08H64.1V125.28H118.22ZM64.1 153.84V142.56H118.22V153.84H64.1ZM55.34 165.24H64.1V161.04H118.22V165H127.34V118.2H55.34V165.24ZM143.3 91.08V83.04H94.94V69.6C108.14 68.16 120.5 66.12 130.34 63.48L123.62 56.52C106.22 61.08 74.42 64.08 47.42 65.52C48.38 67.56 49.46 70.92 49.7 73.08C61.22 72.6 73.7 71.76 85.82 70.56V83.04H37.82V91.08H76.34C65.78 102.24 50.06 112.44 35.42 117.6C37.46 119.4 40.1 122.52 41.3 124.68C57.26 118.32 74.78 105.72 85.82 91.56V114.84H94.94V91.56C106.34 104.76 124.34 117 139.94 123.36C141.26 121.2 143.78 117.84 145.82 116.16C131.54 111.36 115.34 101.52 104.54 91.08H143.3Z" fill="#BA462D"/>
</g>
<path d="M118.22 125.28H119.22V124.28H118.22V125.28ZM118.22 136.08V137.08H119.22V136.08H118.22ZM64.1 136.08H63.1V137.08H64.1V136.08ZM64.1 125.28V124.28H63.1V125.28H64.1ZM64.1 153.84H63.1V154.84H64.1V153.84ZM64.1 142.56V141.56H63.1V142.56H64.1ZM118.22 142.56H119.22V141.56H118.22V142.56ZM118.22 153.84V154.84H119.22V153.84H118.22ZM55.34 165.24H54.34V166.24H55.34V165.24ZM64.1 165.24V166.24H65.1V165.24H64.1ZM64.1 161.04V160.04H63.1V161.04H64.1ZM118.22 161.04H119.22V160.04H118.22V161.04ZM118.22 165H117.22V166H118.22V165ZM127.34 165V166H128.34V165H127.34ZM127.34 118.2H128.34V117.2H127.34V118.2ZM55.34 118.2V117.2H54.34V118.2H55.34ZM143.3 91.08V92.08H144.3V91.08H143.3ZM143.3 83.04H144.3V82.04H143.3V83.04ZM94.94 83.04H93.94V84.04H94.94V83.04ZM94.94 69.6L94.8316 68.6059L93.94 68.7032V69.6H94.94ZM130.34 63.48L130.599 64.4458L132.238 64.0061L131.059 62.7854L130.34 63.48ZM123.62 56.52L124.339 55.8254L123.933 55.4043L123.366 55.5527L123.62 56.52ZM47.42 65.52L47.3667 64.5214L45.8821 64.6006L46.5152 65.9458L47.42 65.52ZM49.7 73.08L48.7061 73.1904L48.8092 74.118L49.7416 74.0791L49.7 73.08ZM85.82 70.56H86.82V69.4561L85.7215 69.5649L85.82 70.56ZM85.82 83.04V84.04H86.82V83.04H85.82ZM37.82 83.04V82.04H36.82V83.04H37.82ZM37.82 91.08H36.82V92.08H37.82V91.08ZM76.34 91.08L77.0664 91.7673L78.663 90.08H76.34V91.08ZM35.42 117.6L35.0876 116.657L33.4813 117.223L34.7584 118.35L35.42 117.6ZM41.3 124.68L40.4258 125.166L40.853 125.935L41.6702 125.609L41.3 124.68ZM85.82 91.56H86.82V88.651L85.0314 90.9451L85.82 91.56ZM85.82 114.84H84.82V115.84H85.82V114.84ZM94.94 114.84V115.84H95.94V114.84H94.94ZM94.94 91.56L95.6968 90.9064L93.94 88.8722V91.56H94.94ZM139.94 123.36L139.562 124.286L140.35 124.607L140.793 123.881L139.94 123.36ZM145.82 116.16L146.456 116.932L147.847 115.786L146.139 115.212L145.82 116.16ZM104.54 91.08V90.08H102.067L103.845 91.799L104.54 91.08ZM117.22 125.28V136.08H119.22V125.28H117.22ZM118.22 135.08H64.1V137.08H118.22V135.08ZM65.1 136.08V125.28H63.1V136.08H65.1ZM64.1 126.28H118.22V124.28H64.1V126.28ZM65.1 153.84V142.56H63.1V153.84H65.1ZM64.1 143.56H118.22V141.56H64.1V143.56ZM117.22 142.56V153.84H119.22V142.56H117.22ZM118.22 152.84H64.1V154.84H118.22V152.84ZM55.34 166.24H64.1V164.24H55.34V166.24ZM65.1 165.24V161.04H63.1V165.24H65.1ZM64.1 162.04H118.22V160.04H64.1V162.04ZM117.22 161.04V165H119.22V161.04H117.22ZM118.22 166H127.34V164H118.22V166ZM128.34 165V118.2H126.34V165H128.34ZM127.34 117.2H55.34V119.2H127.34V117.2ZM54.34 118.2V165.24H56.34V118.2H54.34ZM144.3 91.08V83.04H142.3V91.08H144.3ZM143.3 82.04H94.94V84.04H143.3V82.04ZM95.94 83.04V69.6H93.94V83.04H95.94ZM95.0484 70.5941C108.276 69.1511 120.691 67.1041 130.599 64.4458L130.081 62.5142C120.309 65.1359 108.004 67.1688 94.8316 68.6059L95.0484 70.5941ZM131.059 62.7854L124.339 55.8254L122.901 57.2146L129.621 64.1746L131.059 62.7854ZM123.366 55.5527C106.077 60.0838 74.371 63.0812 47.3667 64.5214L47.4733 66.5186C74.4691 65.0788 106.363 62.0762 123.874 57.4873L123.366 55.5527ZM46.5152 65.9458C47.4427 67.9167 48.4815 71.1688 48.7061 73.1904L50.6939 72.9696C50.4385 70.6712 49.3173 67.2033 48.3248 65.0942L46.5152 65.9458ZM49.7416 74.0791C61.2791 73.5984 73.7781 72.7572 85.9185 71.5551L85.7215 69.5649C73.6219 70.7628 61.1609 71.6016 49.6584 72.0809L49.7416 74.0791ZM84.82 70.56V83.04H86.82V70.56H84.82ZM85.82 82.04H37.82V84.04H85.82V82.04ZM36.82 83.04V91.08H38.82V83.04H36.82ZM37.82 92.08H76.34V90.08H37.82V92.08ZM75.6136 90.3927C65.1635 101.437 49.5788 111.549 35.0876 116.657L35.7524 118.543C50.5412 113.331 66.3965 103.043 77.0664 91.7673L75.6136 90.3927ZM34.7584 118.35C36.7327 120.092 39.2926 123.126 40.4258 125.166L42.1742 124.194C40.9074 121.914 38.1873 118.708 36.0816 116.85L34.7584 118.35ZM41.6702 125.609C57.7836 119.188 75.4521 106.484 86.6086 92.1749L85.0314 90.9451C74.1079 104.956 56.7364 117.452 40.9298 123.751L41.6702 125.609ZM84.82 91.56V114.84H86.82V91.56H84.82ZM85.82 115.84H94.94V113.84H85.82V115.84ZM95.94 114.84V91.56H93.94V114.84H95.94ZM94.1832 92.2136C105.697 105.546 123.833 117.873 139.562 124.286L140.318 122.434C124.847 116.127 106.983 103.974 95.6968 90.9064L94.1832 92.2136ZM140.793 123.881C142.09 121.76 144.541 118.509 146.456 116.932L145.184 115.388C143.019 117.171 140.43 120.64 139.087 122.839L140.793 123.881ZM146.139 115.212C131.999 110.459 115.928 100.697 105.235 90.361L103.845 91.799C114.752 102.343 131.081 112.261 145.501 117.108L146.139 115.212ZM104.54 92.08H143.3V90.08H104.54V92.08Z" fill="#BA462D"/>
</g>
<defs>
<filter id="filter0_d" x="0" y="0" width="182.028" height="222.259" filterUnits="userSpaceOnUse" color-interpolation-filters="sRGB">
<feFlood flood-opacity="0" result="BackgroundImageFix"/>
<feColorMatrix in="SourceAlpha" type="matrix" values="0 0 0 0 0 0 0 0 0 0 0 0 0 0 0 0 0 0 127 0"/>
<feOffset dy="4"/>
<feGaussianBlur stdDeviation="2"/>
<feColorMatrix type="matrix" values="0 0 0 0 0 0 0 0 0 0 0 0 0 0 0 0 0 0 0.25 0"/>
<feBlend mode="normal" in2="BackgroundImageFix" result="effect1_dropShadow"/>
<feBlend mode="normal" in="SourceGraphic" in2="effect1_dropShadow" result="shape"/>
</filter>
<filter id="filter1_b" x="0" y="-4" width="182" height="211" filterUnits="userSpaceOnUse" color-interpolation-filters="sRGB">
<feFlood flood-opacity="0" result="BackgroundImageFix"/>
<feGaussianBlur in="BackgroundImage" stdDeviation="2"/>
<feComposite in2="SourceAlpha" operator="in" result="effect1_backgroundBlur"/>
<feBlend mode="normal" in="SourceGraphic" in2="effect1_backgroundBlur" result="shape"/>
</filter>
<filter id="filter2_i" x="33.4813" y="55.4042" width="114.366" height="114.836" filterUnits="userSpaceOnUse" color-interpolation-filters="sRGB">
<feFlood flood-opacity="0" result="BackgroundImageFix"/>
<feBlend mode="normal" in="SourceGraphic" in2="BackgroundImageFix" result="shape"/>
<feColorMatrix in="SourceAlpha" type="matrix" values="0 0 0 0 0 0 0 0 0 0 0 0 0 0 0 0 0 0 127 0" result="hardAlpha"/>
<feOffset dy="4"/>
<feGaussianBlur stdDeviation="2"/>
<feComposite in2="hardAlpha" operator="arithmetic" k2="-1" k3="1"/>
<feColorMatrix type="matrix" values="0 0 0 0 0 0 0 0 0 0 0 0 0 0 0 0 0 0 0.25 0"/>
<feBlend mode="normal" in2="shape" result="effect1_innerShadow"/>
</filter>
</defs>
</svg>
