<svg width="179" height="212" viewBox="0 0 179 212" fill="none" xmlns="http://www.w3.org/2000/svg">
<g filter="url(#filter0_d)">
<g filter="url(#filter1_b)">
<path d="M21.9714 28.0405L89.9657 0L157.029 28.0405L171 193H8L21.9714 28.0405Z" fill="#FAE5B1"/>
<path d="M8.54414 192.5L22.4439 28.3865L89.9644 0.541393L156.556 28.3848L170.456 192.5H8.54414Z" stroke="#FAE5B1"/>
</g>
<rect x="8" y="193" width="163" height="11" fill="#CFB278"/>
<g filter="url(#filter2_i)">
<path d="M66.46 59.64L56.98 63.6C62.5 76.68 68.86 90.72 74.38 100.56C61.54 109.56 53.62 119.28 53.62 131.64C53.62 149.64 69.94 156.36 92.5 156.36C107.5 156.36 121.3 154.92 130.42 153.36V142.68C121.06 145.08 105.1 146.76 92.02 146.76C73.06 146.76 63.58 140.52 63.58 130.56C63.58 121.44 70.3 113.52 81.46 106.32C93.22 98.52 109.78 90.6 117.94 86.4C121.42 84.6 124.42 83.04 127.18 81.36L121.9 72.84C119.38 74.88 116.86 76.44 113.38 78.48C106.78 82.08 93.82 88.44 82.54 95.28C77.26 85.8 71.26 72.84 66.46 59.64Z" fill="#BA462D"/>
</g>
<path d="M66.46 59.64L67.3998 59.2983L67.0416 58.3133L66.0746 58.7173L66.46 59.64ZM56.98 63.6L56.5946 62.6773L55.6684 63.0641L56.0587 63.9888L56.98 63.6ZM74.38 100.56L74.954 101.379L75.6947 100.86L75.2521 100.071L74.38 100.56ZM130.42 153.36L130.589 154.346L131.42 154.203V153.36H130.42ZM130.42 142.68H131.42V141.391L130.172 141.711L130.42 142.68ZM81.46 106.32L82.0022 107.16L82.0127 107.153L81.46 106.32ZM117.94 86.4L118.398 87.2891L118.399 87.2882L117.94 86.4ZM127.18 81.36L127.7 82.2142L128.561 81.6901L128.03 80.8332L127.18 81.36ZM121.9 72.84L122.75 72.3132L122.152 71.349L121.271 72.0627L121.9 72.84ZM113.38 78.48L113.859 79.3579L113.872 79.3505L113.886 79.3427L113.38 78.48ZM82.54 95.28L81.6664 95.7666L82.1713 96.6731L83.0585 96.1351L82.54 95.28ZM66.0746 58.7173L56.5946 62.6773L57.3654 64.5227L66.8454 60.5627L66.0746 58.7173ZM56.0587 63.9888C61.5814 77.0753 67.9592 91.1581 73.5079 101.049L75.2521 100.071C69.7608 90.2819 63.4186 76.2847 57.9013 63.2112L56.0587 63.9888ZM73.806 99.7411C60.8831 108.799 52.62 118.78 52.62 131.64H54.62C54.62 119.78 62.1969 110.321 74.954 101.379L73.806 99.7411ZM52.62 131.64C52.62 141.016 56.9071 147.519 64.1051 151.619C71.2264 155.675 81.1513 157.36 92.5 157.36V155.36C81.2887 155.36 71.7736 153.685 65.0949 149.881C58.4929 146.121 54.62 140.264 54.62 131.64H52.62ZM92.5 157.36C107.558 157.36 121.414 155.915 130.589 154.346L130.251 152.374C121.186 153.925 107.442 155.36 92.5 155.36V157.36ZM131.42 153.36V142.68H129.42V153.36H131.42ZM130.172 141.711C120.917 144.084 105.045 145.76 92.02 145.76V147.76C105.155 147.76 121.203 146.076 130.668 143.649L130.172 141.711ZM92.02 145.76C82.6242 145.76 75.7199 144.21 71.1993 141.534C66.7368 138.894 64.58 135.157 64.58 130.56H62.58C62.58 135.923 65.1632 140.286 70.1807 143.256C75.1401 146.19 82.4558 147.76 92.02 147.76V145.76ZM64.58 130.56C64.58 121.98 70.904 114.32 82.0021 107.16L80.9179 105.48C69.696 112.72 62.58 120.9 62.58 130.56H64.58ZM82.0127 107.153C93.712 99.3936 110.191 91.5134 118.398 87.2891L117.482 85.5109C109.369 89.6866 92.728 97.6464 80.9073 105.487L82.0127 107.153ZM118.399 87.2882C121.874 85.491 124.905 83.9153 127.7 82.2142L126.66 80.5058C123.935 82.1647 120.966 83.7089 117.481 85.5118L118.399 87.2882ZM128.03 80.8332L122.75 72.3132L121.05 73.3668L126.33 81.8868L128.03 80.8332ZM121.271 72.0627C118.813 74.0523 116.348 75.5807 112.874 77.6173L113.886 79.3427C117.372 77.2993 119.947 75.7077 122.529 73.6172L121.271 72.0627ZM112.901 77.6021C106.363 81.1686 93.3234 87.5716 82.0215 94.4249L83.0585 96.1351C94.3166 89.3084 107.197 82.9914 113.859 79.3579L112.901 77.6021ZM83.4136 94.7934C78.1608 85.3622 72.1826 72.4509 67.3998 59.2983L65.5202 59.9817C70.3374 73.2291 76.3592 86.2378 81.6664 95.7666L83.4136 94.7934Z" fill="#BA462D"/>
</g>
<defs>
<filter id="filter0_d" x="4" y="0" width="171" height="212" filterUnits="userSpaceOnUse" color-interpolation-filters="sRGB">
<feFlood flood-opacity="0" result="BackgroundImageFix"/>
<feColorMatrix in="SourceAlpha" type="matrix" values="0 0 0 0 0 0 0 0 0 0 0 0 0 0 0 0 0 0 127 0"/>
<feOffset dy="4"/>
<feGaussianBlur stdDeviation="2"/>
<feColorMatrix type="matrix" values="0 0 0 0 0 0 0 0 0 0 0 0 0 0 0 0 0 0 0.25 0"/>
<feBlend mode="normal" in2="BackgroundImageFix" result="effect1_dropShadow"/>
<feBlend mode="normal" in="SourceGraphic" in2="effect1_dropShadow" result="shape"/>
</filter>
<filter id="filter1_b" x="4" y="-4" width="171" height="201" filterUnits="userSpaceOnUse" color-interpolation-filters="sRGB">
<feFlood flood-opacity="0" result="BackgroundImageFix"/>
<feGaussianBlur in="BackgroundImage" stdDeviation="2"/>
<feComposite in2="SourceAlpha" operator="in" result="effect1_backgroundBlur"/>
<feBlend mode="normal" in="SourceGraphic" in2="effect1_backgroundBlur" result="shape"/>
</filter>
<filter id="filter2_i" x="52.62" y="58.3133" width="78.8" height="103.047" filterUnits="userSpaceOnUse" color-interpolation-filters="sRGB">
<feFlood flood-opacity="0" result="BackgroundImageFix"/>
<feBlend mode="normal" in="SourceGraphic" in2="BackgroundImageFix" result="shape"/>
<feColorMatrix in="SourceAlpha" type="matrix" values="0 0 0 0 0 0 0 0 0 0 0 0 0 0 0 0 0 0 127 0" result="hardAlpha"/>
<feOffset dy="4"/>
<feGaussianBlur stdDeviation="2"/>
<feComposite in2="hardAlpha" operator="arithmetic" k2="-1" k3="1"/>
<feColorMatrix type="matrix" values="0 0 0 0 0 0 0 0 0 0 0 0 0 0 0 0 0 0 0.25 0"/>
<feBlend mode="normal" in2="shape" result="effect1_innerShadow"/>
</filter>
</defs>
</svg>
