<svg width="183" height="236" viewBox="0 0 183 236" fill="none" xmlns="http://www.w3.org/2000/svg">
<g filter="url(#filter0_d)">
<g filter="url(#filter1_b)">
<path d="M19 31.4897L92 0L164 31.4897L179 216.741H4L19 31.4897Z" fill="#FAE5B1"/>
<path d="M4.54212 216.241L19.4741 31.8297L91.9986 0.545129L163.526 31.828L178.458 216.241H4.54212Z" stroke="#FAE5B1"/>
</g>
<rect x="4" y="216.741" width="175" height="11.2593" fill="#CFB278"/>
<g filter="url(#filter2_i)">
<path d="M51.4 143.08V134.44H76.96V143.08H51.4ZM76.96 119.8V128.2H51.4V119.8H76.96ZM85.72 113.08H43V171.88H51.4V149.44H76.96V162.4C76.96 163.72 76.6 164.08 75.28 164.2C73.84 164.32 69.4 164.32 64.36 164.08C65.44 166.24 66.76 169.72 67.24 172C73.96 172 78.76 171.88 81.88 170.56C84.88 169.24 85.72 166.72 85.72 162.52V113.08ZM75.88 80.68H89.2V73H68.2V62.68H59.44V73H38.56V80.68H75.04C73.84 85.24 71.56 91.84 69.88 96.04L75.64 97.72H51.28L58 95.92C57.16 91.96 55.12 85.6 52.96 80.8L46 82.48C47.92 87.28 49.72 93.64 50.44 97.72H36.52V105.4H91.36V97.72H76.6C78.64 93.76 80.8 88 82.96 82.6L75.88 80.68ZM112.6 163.96C106.84 163.96 105.88 163.12 105.88 159.16V154.12H140.08V148.24H105.88V140.56H138.88V134.68H105.88V127.36H139.6V121.48H105.88V114.04H139.72V89.2H105.88V79.48H144.4V72.04H105.88V62.56H97.36V96.28H131.08V107.08H97.36V159.16C97.36 169.12 100.6 171.28 111.76 171.28H133.96C142.96 171.28 145.48 168.28 146.56 157.36C144.16 156.88 140.8 155.56 138.76 154.12C138.4 162.4 137.56 163.96 133.36 163.96H112.6Z" fill="#BA462D"/>
</g>
<path d="M51.4 143.08H50.4V144.08H51.4V143.08ZM51.4 134.44V133.44H50.4V134.44H51.4ZM76.96 134.44H77.96V133.44H76.96V134.44ZM76.96 143.08V144.08H77.96V143.08H76.96ZM76.96 119.8H77.96V118.8H76.96V119.8ZM76.96 128.2V129.2H77.96V128.2H76.96ZM51.4 128.2H50.4V129.2H51.4V128.2ZM51.4 119.8V118.8H50.4V119.8H51.4ZM85.72 113.08H86.72V112.08H85.72V113.08ZM43 113.08V112.08H42V113.08H43ZM43 171.88H42V172.88H43V171.88ZM51.4 171.88V172.88H52.4V171.88H51.4ZM51.4 149.44V148.44H50.4V149.44H51.4ZM76.96 149.44H77.96V148.44H76.96V149.44ZM75.28 164.2L75.363 165.197L75.3705 165.196L75.28 164.2ZM64.36 164.08L64.4076 163.081L62.7019 163L63.4656 164.527L64.36 164.08ZM67.24 172L66.2615 172.206L66.4286 173H67.24V172ZM81.88 170.56L82.2696 171.481L82.2762 171.478L82.2827 171.475L81.88 170.56ZM75.88 80.68V79.68L75.6183 81.6451L75.88 80.68ZM89.2 80.68V81.68H90.2V80.68H89.2ZM89.2 73H90.2V72H89.2V73ZM68.2 73H67.2V74H68.2V73ZM68.2 62.68H69.2V61.68H68.2V62.68ZM59.44 62.68V61.68H58.44V62.68H59.44ZM59.44 73V74H60.44V73H59.44ZM38.56 73V72H37.56V73H38.56ZM38.56 80.68H37.56V81.68H38.56V80.68ZM75.04 80.68L76.0071 80.9345L76.3372 79.68H75.04V80.68ZM69.88 96.04L68.9515 95.6686L68.5424 96.6915L69.6 97L69.88 96.04ZM75.64 97.72V98.72L75.92 96.76L75.64 97.72ZM51.28 97.72L51.0213 96.754L51.28 98.72V97.72ZM58 95.92L58.2587 96.8859L59.1751 96.6405L58.9782 95.7125L58 95.92ZM52.96 80.8L53.8719 80.3896L53.5316 79.6333L52.7254 79.8279L52.96 80.8ZM46 82.48L45.7654 81.5079L44.6425 81.7789L45.0715 82.8514L46 82.48ZM50.44 97.72V98.72H51.6319L51.4248 97.5462L50.44 97.72ZM36.52 97.72V96.72H35.52V97.72H36.52ZM36.52 105.4H35.52V106.4H36.52V105.4ZM91.36 105.4V106.4H92.36V105.4H91.36ZM91.36 97.72H92.36V96.72H91.36V97.72ZM76.6 97.72L75.711 97.262L74.96 98.72H76.6V97.72ZM82.96 82.6L83.8885 82.9714L84.3055 81.9288L83.2217 81.6349L82.96 82.6ZM105.88 154.12V153.12H104.88V154.12H105.88ZM140.08 154.12V155.12H141.08V154.12H140.08ZM140.08 148.24H141.08V147.24H140.08V148.24ZM105.88 148.24H104.88V149.24H105.88V148.24ZM105.88 140.56V139.56H104.88V140.56H105.88ZM138.88 140.56V141.56H139.88V140.56H138.88ZM138.88 134.68H139.88V133.68H138.88V134.68ZM105.88 134.68H104.88V135.68H105.88V134.68ZM105.88 127.36V126.36H104.88V127.36H105.88ZM139.6 127.36V128.36H140.6V127.36H139.6ZM139.6 121.48H140.6V120.48H139.6V121.48ZM105.88 121.48H104.88V122.48H105.88V121.48ZM105.88 114.04V113.04H104.88V114.04H105.88ZM139.72 114.04V115.04H140.72V114.04H139.72ZM139.72 89.2H140.72V88.2H139.72V89.2ZM105.88 89.2H104.88V90.2H105.88V89.2ZM105.88 79.48V78.48H104.88V79.48H105.88ZM144.4 79.48V80.48H145.4V79.48H144.4ZM144.4 72.04H145.4V71.04H144.4V72.04ZM105.88 72.04H104.88V73.04H105.88V72.04ZM105.88 62.56H106.88V61.56H105.88V62.56ZM97.36 62.56V61.56H96.36V62.56H97.36ZM97.36 96.28H96.36V97.28H97.36V96.28ZM131.08 96.28H132.08V95.28H131.08V96.28ZM131.08 107.08V108.08H132.08V107.08H131.08ZM97.36 107.08V106.08H96.36V107.08H97.36ZM146.56 157.36L147.555 157.458L147.644 156.557L146.756 156.379L146.56 157.36ZM138.76 154.12L139.337 153.303L137.841 152.247L137.761 154.077L138.76 154.12ZM52.4 143.08V134.44H50.4V143.08H52.4ZM51.4 135.44H76.96V133.44H51.4V135.44ZM75.96 134.44V143.08H77.96V134.44H75.96ZM76.96 142.08H51.4V144.08H76.96V142.08ZM75.96 119.8V128.2H77.96V119.8H75.96ZM76.96 127.2H51.4V129.2H76.96V127.2ZM52.4 128.2V119.8H50.4V128.2H52.4ZM51.4 120.8H76.96V118.8H51.4V120.8ZM85.72 112.08H43V114.08H85.72V112.08ZM42 113.08V171.88H44V113.08H42ZM43 172.88H51.4V170.88H43V172.88ZM52.4 171.88V149.44H50.4V171.88H52.4ZM51.4 150.44H76.96V148.44H51.4V150.44ZM75.96 149.44V162.4H77.96V149.44H75.96ZM75.96 162.4C75.96 163.035 75.8561 163.097 75.888 163.063C75.9053 163.045 75.8976 163.068 75.7905 163.103C75.6738 163.141 75.4883 163.177 75.1895 163.204L75.3705 165.196C76.0418 165.135 76.8094 165.001 77.342 164.437C77.8839 163.863 77.96 163.085 77.96 162.4H75.96ZM75.197 163.203C73.8278 163.318 69.4449 163.321 64.4076 163.081L64.3124 165.079C69.3551 165.319 73.8522 165.322 75.363 165.197L75.197 163.203ZM63.4656 164.527C64.5185 166.633 65.8036 170.031 66.2615 172.206L68.2186 171.794C67.7164 169.409 66.3615 165.847 65.2544 163.633L63.4656 164.527ZM67.24 173C70.5974 173 73.5148 172.97 75.99 172.772C78.4583 172.574 80.5634 172.203 82.2696 171.481L81.4904 169.639C80.0766 170.237 78.2217 170.586 75.83 170.778C73.4452 170.97 70.6026 171 67.24 171V173ZM82.2827 171.475C83.995 170.722 85.1465 169.588 85.8392 168.025C86.5098 166.512 86.72 164.664 86.72 162.52H84.72C84.72 164.576 84.5102 166.088 84.0108 167.215C83.5336 168.292 82.765 169.078 81.4773 169.645L82.2827 171.475ZM86.72 162.52V113.08H84.72V162.52H86.72ZM75.88 81.68H89.2V79.68H75.88V81.68ZM90.2 80.68V73H88.2V80.68H90.2ZM89.2 72H68.2V74H89.2V72ZM69.2 73V62.68H67.2V73H69.2ZM68.2 61.68H59.44V63.68H68.2V61.68ZM58.44 62.68V73H60.44V62.68H58.44ZM59.44 72H38.56V74H59.44V72ZM37.56 73V80.68H39.56V73H37.56ZM38.56 81.68H75.04V79.68H38.56V81.68ZM74.0729 80.4255C72.8858 84.9364 70.6204 91.4965 68.9515 95.6686L70.8085 96.4114C72.4997 92.1835 74.7942 85.5436 76.0071 80.9345L74.0729 80.4255ZM69.6 97L75.36 98.68L75.92 96.76L70.16 95.08L69.6 97ZM75.64 96.72H51.28V98.72H75.64V96.72ZM51.5387 98.6859L58.2587 96.8859L57.7413 94.9541L51.0213 96.754L51.5387 98.6859ZM58.9782 95.7125C58.1228 91.6795 56.0598 85.2517 53.8719 80.3896L52.0481 81.2104C54.1802 85.9483 56.1972 92.2405 57.0218 96.1275L58.9782 95.7125ZM52.7254 79.8279L45.7654 81.5079L46.2346 83.4521L53.1946 81.7721L52.7254 79.8279ZM45.0715 82.8514C46.9679 87.5922 48.748 93.8861 49.4552 97.8938L51.4248 97.5462C50.692 93.3939 48.8721 86.9678 46.9285 82.1086L45.0715 82.8514ZM50.44 96.72H36.52V98.72H50.44V96.72ZM35.52 97.72V105.4H37.52V97.72H35.52ZM36.52 106.4H91.36V104.4H36.52V106.4ZM92.36 105.4V97.72H90.36V105.4H92.36ZM91.36 96.72H76.6V98.72H91.36V96.72ZM77.489 98.178C79.5578 94.1621 81.7455 88.3289 83.8885 82.9714L82.0315 82.2286C79.8545 87.6711 77.7223 93.3579 75.711 97.262L77.489 98.178ZM83.2217 81.6349L76.1417 79.7149L75.6183 81.6451L82.6983 83.5651L83.2217 81.6349ZM112.6 162.96C111.174 162.96 110.096 162.907 109.274 162.779C108.449 162.65 107.968 162.457 107.672 162.239C107.155 161.859 106.88 161.163 106.88 159.16H104.88C104.88 161.117 105.085 162.821 106.488 163.851C107.152 164.338 107.991 164.603 108.966 164.755C109.944 164.908 111.146 164.96 112.6 164.96V162.96ZM106.88 159.16V154.12H104.88V159.16H106.88ZM105.88 155.12H140.08V153.12H105.88V155.12ZM141.08 154.12V148.24H139.08V154.12H141.08ZM140.08 147.24H105.88V149.24H140.08V147.24ZM106.88 148.24V140.56H104.88V148.24H106.88ZM105.88 141.56H138.88V139.56H105.88V141.56ZM139.88 140.56V134.68H137.88V140.56H139.88ZM138.88 133.68H105.88V135.68H138.88V133.68ZM106.88 134.68V127.36H104.88V134.68H106.88ZM105.88 128.36H139.6V126.36H105.88V128.36ZM140.6 127.36V121.48H138.6V127.36H140.6ZM139.6 120.48H105.88V122.48H139.6V120.48ZM106.88 121.48V114.04H104.88V121.48H106.88ZM105.88 115.04H139.72V113.04H105.88V115.04ZM140.72 114.04V89.2H138.72V114.04H140.72ZM139.72 88.2H105.88V90.2H139.72V88.2ZM106.88 89.2V79.48H104.88V89.2H106.88ZM105.88 80.48H144.4V78.48H105.88V80.48ZM145.4 79.48V72.04H143.4V79.48H145.4ZM144.4 71.04H105.88V73.04H144.4V71.04ZM106.88 72.04V62.56H104.88V72.04H106.88ZM105.88 61.56H97.36V63.56H105.88V61.56ZM96.36 62.56V96.28H98.36V62.56H96.36ZM97.36 97.28H131.08V95.28H97.36V97.28ZM130.08 96.28V107.08H132.08V96.28H130.08ZM131.08 106.08H97.36V108.08H131.08V106.08ZM96.36 107.08V159.16H98.36V107.08H96.36ZM96.36 159.16C96.36 164.176 97.1576 167.637 99.7458 169.732C101.02 170.764 102.646 171.393 104.614 171.769C106.579 172.145 108.948 172.28 111.76 172.28V170.28C108.992 170.28 106.771 170.145 104.99 169.805C103.212 169.465 101.935 168.931 101.004 168.178C99.1824 166.703 98.36 164.104 98.36 159.16H96.36ZM111.76 172.28H133.96V170.28H111.76V172.28ZM133.96 172.28C138.525 172.28 141.787 171.53 143.976 169.081C146.104 166.699 147.016 162.911 147.555 157.458L145.565 157.262C145.024 162.729 144.136 165.901 142.484 167.749C140.893 169.53 138.395 170.28 133.96 170.28V172.28ZM146.756 156.379C144.468 155.922 141.243 154.649 139.337 153.303L138.183 154.937C140.357 156.471 143.852 157.838 146.364 158.341L146.756 156.379ZM137.761 154.077C137.671 156.138 137.553 157.746 137.366 159.003C137.177 160.27 136.929 161.105 136.623 161.665C136.337 162.187 135.998 162.477 135.547 162.661C135.053 162.863 134.368 162.96 133.36 162.96V164.96C134.452 164.96 135.447 164.862 136.303 164.513C137.202 164.145 137.883 163.528 138.377 162.625C138.851 161.76 139.143 160.652 139.344 159.298C139.547 157.934 139.669 156.242 139.759 154.163L137.761 154.077ZM133.36 162.96H112.6V164.96H133.36V162.96Z" fill="#BA462D"/>
</g>
<defs>
<filter id="filter0_d" x="0" y="0" width="183" height="236" filterUnits="userSpaceOnUse" color-interpolation-filters="sRGB">
<feFlood flood-opacity="0" result="BackgroundImageFix"/>
<feColorMatrix in="SourceAlpha" type="matrix" values="0 0 0 0 0 0 0 0 0 0 0 0 0 0 0 0 0 0 127 0"/>
<feOffset dy="4"/>
<feGaussianBlur stdDeviation="2"/>
<feColorMatrix type="matrix" values="0 0 0 0 0 0 0 0 0 0 0 0 0 0 0 0 0 0 0.25 0"/>
<feBlend mode="normal" in2="BackgroundImageFix" result="effect1_dropShadow"/>
<feBlend mode="normal" in="SourceGraphic" in2="effect1_dropShadow" result="shape"/>
</filter>
<filter id="filter1_b" x="0" y="-4" width="183" height="224.741" filterUnits="userSpaceOnUse" color-interpolation-filters="sRGB">
<feFlood flood-opacity="0" result="BackgroundImageFix"/>
<feGaussianBlur in="BackgroundImage" stdDeviation="2"/>
<feComposite in2="SourceAlpha" operator="in" result="effect1_backgroundBlur"/>
<feBlend mode="normal" in="SourceGraphic" in2="effect1_backgroundBlur" result="shape"/>
</filter>
<filter id="filter2_i" x="35.52" y="61.56" width="112.124" height="115.44" filterUnits="userSpaceOnUse" color-interpolation-filters="sRGB">
<feFlood flood-opacity="0" result="BackgroundImageFix"/>
<feBlend mode="normal" in="SourceGraphic" in2="BackgroundImageFix" result="shape"/>
<feColorMatrix in="SourceAlpha" type="matrix" values="0 0 0 0 0 0 0 0 0 0 0 0 0 0 0 0 0 0 127 0" result="hardAlpha"/>
<feOffset dy="4"/>
<feGaussianBlur stdDeviation="2"/>
<feComposite in2="hardAlpha" operator="arithmetic" k2="-1" k3="1"/>
<feColorMatrix type="matrix" values="0 0 0 0 0 0 0 0 0 0 0 0 0 0 0 0 0 0 0.25 0"/>
<feBlend mode="normal" in2="shape" result="effect1_innerShadow"/>
</filter>
</defs>
</svg>
