<svg width="183" height="236" viewBox="0 0 183 236" fill="none" xmlns="http://www.w3.org/2000/svg">
<g filter="url(#filter0_d)">
<g filter="url(#filter1_b)">
<path d="M164 196.618L91 228L19 196.618L4 12L179 12L164 196.618Z" fill="#FAE5B1"/>
<path d="M178.458 12.5L163.526 196.277L91.0014 227.455L19.4741 196.279L4.54227 12.5L178.458 12.5Z" stroke="#FAE5B1"/>
</g>
<rect x="179" y="12" width="175" height="12" transform="rotate(-180 179 12)" fill="#CFB278"/>
<g filter="url(#filter2_i)">
<path d="M44 158.04C52.16 151.2 55.88 139.44 58.16 128.28L50.24 126.12C48.44 136.56 44.24 147.12 36.8 153.48L44 158.04ZM67.4 130.2C69.44 137.88 71 147.6 71.12 154.08L79.04 152.76C78.8 146.28 77.24 136.56 75.08 129L67.4 130.2ZM88.04 129.48C91.16 136.32 94.16 145.44 95 150.96L102.44 148.8C101.48 143.28 98.36 134.4 94.88 127.92L88.04 129.48ZM60.92 101.4H88.88V113.16H60.92V101.4ZM88.88 63.36V75.12H60.92V63.36H88.88ZM88.88 94.08H60.92V82.32H88.88V94.08ZM97.64 113.16V101.4H131.96V94.08H97.64V82.32H131.96V75.12H97.64V63.36H136.04V55.44H52.28V121.08H134.12C132.8 140.16 131.24 147.72 129.08 150.12C128.12 151.08 126.92 151.32 124.76 151.32C122.72 151.32 117.08 151.32 111.2 150.6C112.52 152.88 113.36 156.48 113.6 158.76C119.72 159.24 125.72 159.24 128.84 159C132.2 158.76 134.48 157.92 136.52 155.64C139.88 151.92 141.68 142.08 143.24 117C143.48 115.8 143.6 113.16 143.6 113.16H97.64ZM124.28 141.12C122.48 136.8 118.04 129.96 113.72 125.04L107.24 127.68C111.32 132.72 115.64 139.8 117.44 144.24L124.28 141.12Z" fill="#BA462D"/>
</g>
<path d="M44 158.04L43.4649 158.885L44.0823 159.276L44.6424 158.806L44 158.04ZM58.16 128.28L59.1398 128.48L59.3274 127.562L58.4231 127.315L58.16 128.28ZM50.24 126.12L50.5031 125.155L49.4415 124.866L49.2545 125.95L50.24 126.12ZM36.8 153.48L36.1502 152.72L35.1206 153.6L36.2649 154.325L36.8 153.48ZM67.4 130.2L67.2456 129.212L66.1484 129.383L66.4335 130.457L67.4 130.2ZM71.12 154.08L70.1202 154.099L70.1416 155.257L71.2844 155.066L71.12 154.08ZM79.04 152.76L79.2044 153.746L80.0719 153.602L80.0393 152.723L79.04 152.76ZM75.08 129L76.0415 128.725L75.7988 127.876L74.9256 128.012L75.08 129ZM88.04 129.48L87.8176 128.505L86.6207 128.778L87.1302 129.895L88.04 129.48ZM95 150.96L94.0114 151.11L94.183 152.238L95.2788 151.92L95 150.96ZM102.44 148.8L102.719 149.76L103.579 149.511L103.425 148.629L102.44 148.8ZM94.88 127.92L95.761 127.447L95.4005 126.776L94.6576 126.945L94.88 127.92ZM60.92 101.4V100.4H59.92V101.4H60.92ZM88.88 101.4H89.88V100.4H88.88V101.4ZM88.88 113.16V114.16H89.88V113.16H88.88ZM60.92 113.16H59.92V114.16H60.92V113.16ZM88.88 63.36H89.88V62.36H88.88V63.36ZM88.88 75.12V76.12H89.88V75.12H88.88ZM60.92 75.12H59.92V76.12H60.92V75.12ZM60.92 63.36V62.36H59.92V63.36H60.92ZM88.88 94.08V95.08H89.88V94.08H88.88ZM60.92 94.08H59.92V95.08H60.92V94.08ZM60.92 82.32V81.32H59.92V82.32H60.92ZM88.88 82.32H89.88V81.32H88.88V82.32ZM97.64 113.16H96.64V114.16H97.64V113.16ZM97.64 101.4V100.4H96.64V101.4H97.64ZM131.96 101.4V102.4H132.96V101.4H131.96ZM131.96 94.08H132.96V93.08H131.96V94.08ZM97.64 94.08H96.64V95.08H97.64V94.08ZM97.64 82.32V81.32H96.64V82.32H97.64ZM131.96 82.32V83.32H132.96V82.32H131.96ZM131.96 75.12H132.96V74.12H131.96V75.12ZM97.64 75.12H96.64V76.12H97.64V75.12ZM97.64 63.36V62.36H96.64V63.36H97.64ZM136.04 63.36V64.36H137.04V63.36H136.04ZM136.04 55.44H137.04V54.44H136.04V55.44ZM52.28 55.44V54.44H51.28V55.44H52.28ZM52.28 121.08H51.28V122.08H52.28V121.08ZM134.12 121.08L135.118 121.149L135.192 120.08H134.12V121.08ZM129.08 150.12L129.787 150.827L129.806 150.809L129.823 150.789L129.08 150.12ZM111.2 150.6L111.322 149.607L109.329 149.363L110.335 151.101L111.2 150.6ZM113.6 158.76L112.605 158.865L112.693 159.692L113.522 159.757L113.6 158.76ZM128.84 159L128.769 158.003L128.763 158.003L128.84 159ZM136.52 155.64L135.778 154.97L135.775 154.973L136.52 155.64ZM143.24 117L142.259 116.804L142.246 116.87L142.242 116.938L143.24 117ZM143.6 113.16L144.599 113.205L144.646 112.16H143.6V113.16ZM124.28 141.12L124.695 142.03L125.575 141.628L125.203 140.735L124.28 141.12ZM113.72 125.04L114.471 124.38L114.002 123.845L113.343 124.114L113.72 125.04ZM107.24 127.68L106.863 126.754L105.615 127.262L106.463 128.309L107.24 127.68ZM117.44 144.24L116.513 144.616L116.905 145.583L117.855 145.15L117.44 144.24ZM44.6424 158.806C53.0902 151.725 56.8583 139.647 59.1398 128.48L57.1802 128.08C54.9017 139.233 51.2298 150.675 43.3576 157.274L44.6424 158.806ZM58.4231 127.315L50.5031 125.155L49.9769 127.085L57.8969 129.245L58.4231 127.315ZM49.2545 125.95C47.4723 136.287 43.3349 146.578 36.1502 152.72L37.4498 154.24C45.1451 147.662 49.4077 136.833 51.2255 126.29L49.2545 125.95ZM36.2649 154.325L43.4649 158.885L44.5351 157.195L37.3351 152.635L36.2649 154.325ZM66.4335 130.457C68.459 138.082 70.0021 147.72 70.1202 154.099L72.1198 154.061C71.998 147.48 70.421 137.678 68.3665 129.943L66.4335 130.457ZM71.2844 155.066L79.2044 153.746L78.8756 151.774L70.9556 153.094L71.2844 155.066ZM80.0393 152.723C79.7961 146.155 78.2215 136.355 76.0415 128.725L74.1185 129.275C76.2585 136.765 77.8039 146.405 78.0407 152.797L80.0393 152.723ZM74.9256 128.012L67.2456 129.212L67.5544 131.188L75.2344 129.988L74.9256 128.012ZM87.1302 129.895C90.2272 136.685 93.1899 145.712 94.0114 151.11L95.9886 150.81C95.1301 145.168 92.0928 135.955 88.9498 129.065L87.1302 129.895ZM95.2788 151.92L102.719 149.76L102.161 147.84L94.7212 150L95.2788 151.92ZM103.425 148.629C102.444 142.988 99.2837 134.006 95.761 127.447L93.999 128.393C97.4363 134.794 100.516 143.572 101.455 148.971L103.425 148.629ZM94.6576 126.945L87.8176 128.505L88.2624 130.455L95.1024 128.895L94.6576 126.945ZM60.92 102.4H88.88V100.4H60.92V102.4ZM87.88 101.4V113.16H89.88V101.4H87.88ZM88.88 112.16H60.92V114.16H88.88V112.16ZM61.92 113.16V101.4H59.92V113.16H61.92ZM87.88 63.36V75.12H89.88V63.36H87.88ZM88.88 74.12H60.92V76.12H88.88V74.12ZM61.92 75.12V63.36H59.92V75.12H61.92ZM60.92 64.36H88.88V62.36H60.92V64.36ZM88.88 93.08H60.92V95.08H88.88V93.08ZM61.92 94.08V82.32H59.92V94.08H61.92ZM60.92 83.32H88.88V81.32H60.92V83.32ZM87.88 82.32V94.08H89.88V82.32H87.88ZM98.64 113.16V101.4H96.64V113.16H98.64ZM97.64 102.4H131.96V100.4H97.64V102.4ZM132.96 101.4V94.08H130.96V101.4H132.96ZM131.96 93.08H97.64V95.08H131.96V93.08ZM98.64 94.08V82.32H96.64V94.08H98.64ZM97.64 83.32H131.96V81.32H97.64V83.32ZM132.96 82.32V75.12H130.96V82.32H132.96ZM131.96 74.12H97.64V76.12H131.96V74.12ZM98.64 75.12V63.36H96.64V75.12H98.64ZM97.64 64.36H136.04V62.36H97.64V64.36ZM137.04 63.36V55.44H135.04V63.36H137.04ZM136.04 54.44H52.28V56.44H136.04V54.44ZM51.28 55.44V121.08H53.28V55.44H51.28ZM52.28 122.08H134.12V120.08H52.28V122.08ZM133.122 121.011C132.463 130.542 131.746 137.158 130.931 141.678C130.523 143.937 130.096 145.647 129.649 146.923C129.199 148.208 128.751 148.991 128.337 149.451L129.823 150.789C130.489 150.049 131.046 148.987 131.537 147.584C132.032 146.171 132.482 144.348 132.899 142.032C133.734 137.402 134.457 130.698 135.118 121.149L133.122 121.011ZM128.373 149.413C127.717 150.069 126.886 150.32 124.76 150.32V152.32C126.954 152.32 128.523 152.091 129.787 150.827L128.373 149.413ZM124.76 150.32C122.723 150.32 117.136 150.319 111.322 149.607L111.078 151.593C117.024 152.321 122.717 152.32 124.76 152.32V150.32ZM110.335 151.101C111.556 153.211 112.373 156.655 112.605 158.865L114.595 158.655C114.347 156.305 113.484 152.549 112.065 150.099L110.335 151.101ZM113.522 159.757C119.678 160.24 125.732 160.242 128.917 159.997L128.763 158.003C125.708 158.238 119.762 158.24 113.678 157.763L113.522 159.757ZM128.911 159.997C132.443 159.745 135.001 158.837 137.265 156.307L135.775 154.973C133.959 157.003 131.957 157.775 128.769 158.003L128.911 159.997ZM137.262 156.31C139.149 154.221 140.473 150.576 141.54 144.503C142.615 138.384 143.458 129.607 144.238 117.062L142.242 116.938C141.462 129.473 140.625 138.156 139.57 144.157C138.507 150.204 137.251 153.339 135.778 154.97L137.262 156.31ZM144.221 117.196C144.354 116.527 144.448 115.509 144.507 114.704C144.538 114.292 144.561 113.918 144.576 113.647C144.584 113.512 144.589 113.402 144.593 113.326C144.595 113.288 144.596 113.258 144.597 113.238C144.598 113.227 144.598 113.22 144.599 113.214C144.599 113.211 144.599 113.209 144.599 113.208C144.599 113.207 144.599 113.207 144.599 113.206C144.599 113.206 144.599 113.206 144.599 113.206C144.599 113.206 144.599 113.206 144.599 113.206C144.599 113.205 144.599 113.205 143.6 113.16C142.601 113.115 142.601 113.115 142.601 113.115C142.601 113.115 142.601 113.115 142.601 113.115C142.601 113.115 142.601 113.115 142.601 113.115C142.601 113.115 142.601 113.115 142.601 113.116C142.601 113.117 142.601 113.119 142.601 113.121C142.601 113.126 142.6 113.133 142.6 113.142C142.599 113.161 142.597 113.189 142.596 113.226C142.592 113.298 142.586 113.404 142.579 113.535C142.564 113.797 142.542 114.158 142.513 114.556C142.452 115.371 142.366 116.273 142.259 116.804L144.221 117.196ZM143.6 112.16H97.64V114.16H143.6V112.16ZM125.203 140.735C123.351 136.29 118.842 129.358 114.471 124.38L112.969 125.7C117.238 130.562 121.609 137.31 123.357 141.505L125.203 140.735ZM113.343 124.114L106.863 126.754L107.617 128.606L114.097 125.966L113.343 124.114ZM106.463 128.309C110.497 133.292 114.759 140.288 116.513 144.616L118.367 143.864C116.521 139.312 112.143 132.148 108.017 127.051L106.463 128.309ZM117.855 145.15L124.695 142.03L123.865 140.21L117.025 143.33L117.855 145.15Z" fill="#BA462D"/>
</g>
<defs>
<filter id="filter0_d" x="0" y="0" width="183" height="236" filterUnits="userSpaceOnUse" color-interpolation-filters="sRGB">
<feFlood flood-opacity="0" result="BackgroundImageFix"/>
<feColorMatrix in="SourceAlpha" type="matrix" values="0 0 0 0 0 0 0 0 0 0 0 0 0 0 0 0 0 0 127 0"/>
<feOffset dy="4"/>
<feGaussianBlur stdDeviation="2"/>
<feColorMatrix type="matrix" values="0 0 0 0 0 0 0 0 0 0 0 0 0 0 0 0 0 0 0.25 0"/>
<feBlend mode="normal" in2="BackgroundImageFix" result="effect1_dropShadow"/>
<feBlend mode="normal" in="SourceGraphic" in2="effect1_dropShadow" result="shape"/>
</filter>
<filter id="filter1_b" x="0" y="8" width="183" height="224" filterUnits="userSpaceOnUse" color-interpolation-filters="sRGB">
<feFlood flood-opacity="0" result="BackgroundImageFix"/>
<feGaussianBlur in="BackgroundImage" stdDeviation="2"/>
<feComposite in2="SourceAlpha" operator="in" result="effect1_backgroundBlur"/>
<feBlend mode="normal" in="SourceGraphic" in2="effect1_backgroundBlur" result="shape"/>
</filter>
<filter id="filter2_i" x="35.1206" y="54.44" width="109.526" height="109.718" filterUnits="userSpaceOnUse" color-interpolation-filters="sRGB">
<feFlood flood-opacity="0" result="BackgroundImageFix"/>
<feBlend mode="normal" in="SourceGraphic" in2="BackgroundImageFix" result="shape"/>
<feColorMatrix in="SourceAlpha" type="matrix" values="0 0 0 0 0 0 0 0 0 0 0 0 0 0 0 0 0 0 127 0" result="hardAlpha"/>
<feOffset dy="4"/>
<feGaussianBlur stdDeviation="2"/>
<feComposite in2="hardAlpha" operator="arithmetic" k2="-1" k3="1"/>
<feColorMatrix type="matrix" values="0 0 0 0 0 0 0 0 0 0 0 0 0 0 0 0 0 0 0.25 0"/>
<feBlend mode="normal" in2="shape" result="effect1_innerShadow"/>
</filter>
</defs>
</svg>
