<svg width="183" height="223" viewBox="0 0 183 223" fill="none" xmlns="http://www.w3.org/2000/svg">
<g filter="url(#filter0_d)">
<g filter="url(#filter1_b)">
<path d="M164.086 184.766L91.5029 214.259L19.9143 184.766L5 11.2593L179 11.2593L164.086 184.766Z" fill="#FAE5B1"/>
<path d="M178.455 11.7593L163.614 184.418L91.5042 213.719L20.3864 184.42L5.54483 11.7593L178.455 11.7593Z" stroke="#FAE5B1"/>
</g>
<rect x="179" y="11.2593" width="174.028" height="11.2593" transform="rotate(-180 179 11.2593)" fill="#CFB278"/>
<g filter="url(#filter2_i)">
<path d="M103.9 78.56H74.98V86.96H143.02V78.56H112.78V61.04H137.26V52.88H112.78V37.28H103.9V52.88H79.18V61.04H103.9V78.56ZM74.62 94.04C72.58 90.8 63.82 77.36 60.7 73.04V68H75.1V59.6H60.7V36.56H52.42V59.6H36.82V68H51.58C47.86 84.32 40.3 103.16 32.62 113.24C34.18 115.4 36.46 119.24 37.42 121.88C42.94 113.84 48.34 101 52.42 87.68V146.12H60.7V83.96C63.94 89.84 67.54 96.8 69.22 100.4L74.62 94.04ZM112.78 133.16V113.48H139.06V105.2H112.78V91.4H103.9V105.2H77.26V113.48H103.9V133.16H69.22V141.68H144.34V133.16H112.78Z" fill="#BA462D"/>
</g>
<path d="M103.9 78.56V79.56H104.9V78.56H103.9ZM74.98 78.56V77.56H73.98V78.56H74.98ZM74.98 86.96H73.98V87.96H74.98V86.96ZM143.02 86.96V87.96H144.02V86.96H143.02ZM143.02 78.56H144.02V77.56H143.02V78.56ZM112.78 78.56H111.78V79.56H112.78V78.56ZM112.78 61.04V60.04H111.78V61.04H112.78ZM137.26 61.04V62.04H138.26V61.04H137.26ZM137.26 52.88H138.26V51.88H137.26V52.88ZM112.78 52.88H111.78V53.88H112.78V52.88ZM112.78 37.28H113.78V36.28H112.78V37.28ZM103.9 37.28V36.28H102.9V37.28H103.9ZM103.9 52.88V53.88H104.9V52.88H103.9ZM79.18 52.88V51.88H78.18V52.88H79.18ZM79.18 61.04H78.18V62.04H79.18V61.04ZM103.9 61.04H104.9V60.04H103.9V61.04ZM74.62 94.04L75.3823 94.6872L75.8571 94.128L75.4662 93.5072L74.62 94.04ZM60.7 73.04H59.7V73.3633L59.8893 73.6255L60.7 73.04ZM60.7 68V67H59.7V68H60.7ZM75.1 68V69H76.1V68H75.1ZM75.1 59.6H76.1V58.6H75.1V59.6ZM60.7 59.6H59.7V60.6H60.7V59.6ZM60.7 36.56H61.7V35.56H60.7V36.56ZM52.42 36.56V35.56H51.42V36.56H52.42ZM52.42 59.6V60.6H53.42V59.6H52.42ZM36.82 59.6V58.6H35.82V59.6H36.82ZM36.82 68H35.82V69H36.82V68ZM51.58 68L52.555 68.2222L52.8336 67H51.58V68ZM32.62 113.24L31.8246 112.634L31.375 113.224L31.8093 113.825L32.62 113.24ZM37.42 121.88L36.4802 122.222L37.1444 124.048L38.2444 122.446L37.42 121.88ZM52.42 87.68H53.42L51.4639 87.3871L52.42 87.68ZM52.42 146.12H51.42V147.12H52.42V146.12ZM60.7 146.12V147.12H61.7V146.12H60.7ZM60.7 83.96L61.5758 83.4774L59.7 83.96H60.7ZM69.22 100.4L68.3138 100.823L68.9732 102.236L69.9823 101.047L69.22 100.4ZM112.78 133.16H111.78V134.16H112.78V133.16ZM112.78 113.48V112.48H111.78V113.48H112.78ZM139.06 113.48V114.48H140.06V113.48H139.06ZM139.06 105.2H140.06V104.2H139.06V105.2ZM112.78 105.2H111.78V106.2H112.78V105.2ZM112.78 91.4H113.78V90.4H112.78V91.4ZM103.9 91.4V90.4H102.9V91.4H103.9ZM103.9 105.2V106.2H104.9V105.2H103.9ZM77.26 105.2V104.2H76.26V105.2H77.26ZM77.26 113.48H76.26V114.48H77.26V113.48ZM103.9 113.48H104.9V112.48H103.9V113.48ZM103.9 133.16V134.16H104.9V133.16H103.9ZM69.22 133.16V132.16H68.22V133.16H69.22ZM69.22 141.68H68.22V142.68H69.22V141.68ZM144.34 141.68V142.68H145.34V141.68H144.34ZM144.34 133.16H145.34V132.16H144.34V133.16ZM103.9 77.56H74.98V79.56H103.9V77.56ZM73.98 78.56V86.96H75.98V78.56H73.98ZM74.98 87.96H143.02V85.96H74.98V87.96ZM144.02 86.96V78.56H142.02V86.96H144.02ZM143.02 77.56H112.78V79.56H143.02V77.56ZM113.78 78.56V61.04H111.78V78.56H113.78ZM112.78 62.04H137.26V60.04H112.78V62.04ZM138.26 61.04V52.88H136.26V61.04H138.26ZM137.26 51.88H112.78V53.88H137.26V51.88ZM113.78 52.88V37.28H111.78V52.88H113.78ZM112.78 36.28H103.9V38.28H112.78V36.28ZM102.9 37.28V52.88H104.9V37.28H102.9ZM103.9 51.88H79.18V53.88H103.9V51.88ZM78.18 52.88V61.04H80.18V52.88H78.18ZM79.18 62.04H103.9V60.04H79.18V62.04ZM102.9 61.04V78.56H104.9V61.04H102.9ZM75.4662 93.5072C73.4245 90.2644 64.6504 76.8018 61.5107 72.4545L59.8893 73.6255C62.9896 77.9182 71.7356 91.3356 73.7738 94.5728L75.4662 93.5072ZM61.7 73.04V68H59.7V73.04H61.7ZM60.7 69H75.1V67H60.7V69ZM76.1 68V59.6H74.1V68H76.1ZM75.1 58.6H60.7V60.6H75.1V58.6ZM61.7 59.6V36.56H59.7V59.6H61.7ZM60.7 35.56H52.42V37.56H60.7V35.56ZM51.42 36.56V59.6H53.42V36.56H51.42ZM52.42 58.6H36.82V60.6H52.42V58.6ZM35.82 59.6V68H37.82V59.6H35.82ZM36.82 69H51.58V67H36.82V69ZM50.605 67.7778C46.9016 84.0248 39.3845 102.712 31.8246 112.634L33.4154 113.846C41.2155 103.608 48.8184 84.6152 52.555 68.2222L50.605 67.7778ZM31.8093 113.825C33.3404 115.945 35.5637 119.701 36.4802 122.222L38.3598 121.538C37.3563 118.779 35.0196 114.855 33.4307 112.655L31.8093 113.825ZM38.2444 122.446C43.8486 114.283 49.2844 101.331 53.3762 87.9729L51.4639 87.3871C47.3956 100.669 42.0314 113.397 36.5956 121.314L38.2444 122.446ZM51.42 87.68V146.12H53.42V87.68H51.42ZM52.42 147.12H60.7V145.12H52.42V147.12ZM61.7 146.12V83.96H59.7V146.12H61.7ZM59.8242 84.4426C63.059 90.3132 66.6471 97.2514 68.3138 100.823L70.1262 99.9771C68.4329 96.3486 64.821 89.3668 61.5758 83.4774L59.8242 84.4426ZM69.9823 101.047L75.3823 94.6872L73.8577 93.3928L68.4577 99.7528L69.9823 101.047ZM113.78 133.16V113.48H111.78V133.16H113.78ZM112.78 114.48H139.06V112.48H112.78V114.48ZM140.06 113.48V105.2H138.06V113.48H140.06ZM139.06 104.2H112.78V106.2H139.06V104.2ZM113.78 105.2V91.4H111.78V105.2H113.78ZM112.78 90.4H103.9V92.4H112.78V90.4ZM102.9 91.4V105.2H104.9V91.4H102.9ZM103.9 104.2H77.26V106.2H103.9V104.2ZM76.26 105.2V113.48H78.26V105.2H76.26ZM77.26 114.48H103.9V112.48H77.26V114.48ZM102.9 113.48V133.16H104.9V113.48H102.9ZM103.9 132.16H69.22V134.16H103.9V132.16ZM68.22 133.16V141.68H70.22V133.16H68.22ZM69.22 142.68H144.34V140.68H69.22V142.68ZM145.34 141.68V133.16H143.34V141.68H145.34ZM144.34 132.16H112.78V134.16H144.34V132.16Z" fill="#BA462D"/>
</g>
<defs>
<filter id="filter0_d" x="0.972168" y="1.52588e-05" width="182.028" height="222.259" filterUnits="userSpaceOnUse" color-interpolation-filters="sRGB">
<feFlood flood-opacity="0" result="BackgroundImageFix"/>
<feColorMatrix in="SourceAlpha" type="matrix" values="0 0 0 0 0 0 0 0 0 0 0 0 0 0 0 0 0 0 127 0"/>
<feOffset dy="4"/>
<feGaussianBlur stdDeviation="2"/>
<feColorMatrix type="matrix" values="0 0 0 0 0 0 0 0 0 0 0 0 0 0 0 0 0 0 0.25 0"/>
<feBlend mode="normal" in2="BackgroundImageFix" result="effect1_dropShadow"/>
<feBlend mode="normal" in="SourceGraphic" in2="effect1_dropShadow" result="shape"/>
</filter>
<filter id="filter1_b" x="1" y="7.25928" width="182" height="211" filterUnits="userSpaceOnUse" color-interpolation-filters="sRGB">
<feFlood flood-opacity="0" result="BackgroundImageFix"/>
<feGaussianBlur in="BackgroundImage" stdDeviation="2"/>
<feComposite in2="SourceAlpha" operator="in" result="effect1_backgroundBlur"/>
<feBlend mode="normal" in="SourceGraphic" in2="effect1_backgroundBlur" result="shape"/>
</filter>
<filter id="filter2_i" x="31.375" y="35.56" width="113.965" height="115.56" filterUnits="userSpaceOnUse" color-interpolation-filters="sRGB">
<feFlood flood-opacity="0" result="BackgroundImageFix"/>
<feBlend mode="normal" in="SourceGraphic" in2="BackgroundImageFix" result="shape"/>
<feColorMatrix in="SourceAlpha" type="matrix" values="0 0 0 0 0 0 0 0 0 0 0 0 0 0 0 0 0 0 127 0" result="hardAlpha"/>
<feOffset dy="4"/>
<feGaussianBlur stdDeviation="2"/>
<feComposite in2="hardAlpha" operator="arithmetic" k2="-1" k3="1"/>
<feColorMatrix type="matrix" values="0 0 0 0 0 0 0 0 0 0 0 0 0 0 0 0 0 0 0.25 0"/>
<feBlend mode="normal" in2="shape" result="effect1_innerShadow"/>
</filter>
</defs>
</svg>
