<svg width="183" height="223" viewBox="0 0 183 223" fill="none" xmlns="http://www.w3.org/2000/svg">
<g filter="url(#filter0_d)">
<g filter="url(#filter1_b)">
<path d="M164.086 184.766L91.5029 214.259L19.9143 184.766L5 11.2593L179 11.2593L164.086 184.766Z" fill="#FAE5B1"/>
<path d="M178.455 11.7593L163.614 184.418L91.5042 213.719L20.3864 184.42L5.54483 11.7593L178.455 11.7593Z" stroke="#FAE5B1"/>
</g>
<rect x="179" y="11.2593" width="174.028" height="11.2593" transform="rotate(-180 179 11.2593)" fill="#CFB278"/>
<g filter="url(#filter2_i)">
<path d="M119.22 106.28V117.08H65.1V106.28H119.22ZM65.1 134.84V123.56H119.22V134.84H65.1ZM56.34 146.24H65.1V142.04H119.22V146H128.34V99.2H56.34V146.24ZM144.3 72.08V64.04H95.94V50.6C109.14 49.16 121.5 47.12 131.34 44.48L124.62 37.52C107.22 42.08 75.42 45.08 48.42 46.52C49.38 48.56 50.46 51.92 50.7 54.08C62.22 53.6 74.7 52.76 86.82 51.56V64.04H38.82V72.08H77.34C66.78 83.24 51.06 93.44 36.42 98.6C38.46 100.4 41.1 103.52 42.3 105.68C58.26 99.32 75.78 86.72 86.82 72.56V95.84H95.94V72.56C107.34 85.76 125.34 98 140.94 104.36C142.26 102.2 144.78 98.84 146.82 97.16C132.54 92.36 116.34 82.52 105.54 72.08H144.3Z" fill="#BA462D"/>
</g>
<path d="M119.22 106.28H120.22V105.28H119.22V106.28ZM119.22 117.08V118.08H120.22V117.08H119.22ZM65.1 117.08H64.1V118.08H65.1V117.08ZM65.1 106.28V105.28H64.1V106.28H65.1ZM65.1 134.84H64.1V135.84H65.1V134.84ZM65.1 123.56V122.56H64.1V123.56H65.1ZM119.22 123.56H120.22V122.56H119.22V123.56ZM119.22 134.84V135.84H120.22V134.84H119.22ZM56.34 146.24H55.34V147.24H56.34V146.24ZM65.1 146.24V147.24H66.1V146.24H65.1ZM65.1 142.04V141.04H64.1V142.04H65.1ZM119.22 142.04H120.22V141.04H119.22V142.04ZM119.22 146H118.22V147H119.22V146ZM128.34 146V147H129.34V146H128.34ZM128.34 99.2H129.34V98.2H128.34V99.2ZM56.34 99.2V98.2H55.34V99.2H56.34ZM144.3 72.08V73.08H145.3V72.08H144.3ZM144.3 64.04H145.3V63.04H144.3V64.04ZM95.94 64.04H94.94V65.04H95.94V64.04ZM95.94 50.6L95.8316 49.6059L94.94 49.7032V50.6H95.94ZM131.34 44.48L131.599 45.4458L133.238 45.0061L132.059 43.7854L131.34 44.48ZM124.62 37.52L125.339 36.8254L124.933 36.4043L124.366 36.5527L124.62 37.52ZM48.42 46.52L48.3667 45.5214L46.8821 45.6006L47.5152 46.9458L48.42 46.52ZM50.7 54.08L49.7061 54.1904L49.8092 55.118L50.7416 55.0791L50.7 54.08ZM86.82 51.56H87.82V50.4561L86.7215 50.5649L86.82 51.56ZM86.82 64.04V65.04H87.82V64.04H86.82ZM38.82 64.04V63.04H37.82V64.04H38.82ZM38.82 72.08H37.82V73.08H38.82V72.08ZM77.34 72.08L78.0664 72.7673L79.663 71.08H77.34V72.08ZM36.42 98.6L36.0876 97.6569L34.4813 98.223L35.7584 99.3498L36.42 98.6ZM42.3 105.68L41.4258 106.166L41.853 106.935L42.6702 106.609L42.3 105.68ZM86.82 72.56H87.82V69.651L86.0314 71.9451L86.82 72.56ZM86.82 95.84H85.82V96.84H86.82V95.84ZM95.94 95.84V96.84H96.94V95.84H95.94ZM95.94 72.56L96.6968 71.9064L94.94 69.8722V72.56H95.94ZM140.94 104.36L140.562 105.286L141.35 105.607L141.793 104.881L140.94 104.36ZM146.82 97.16L147.456 97.9319L148.847 96.7863L147.139 96.2121L146.82 97.16ZM105.54 72.08V71.08H103.067L104.845 72.799L105.54 72.08ZM118.22 106.28V117.08H120.22V106.28H118.22ZM119.22 116.08H65.1V118.08H119.22V116.08ZM66.1 117.08V106.28H64.1V117.08H66.1ZM65.1 107.28H119.22V105.28H65.1V107.28ZM66.1 134.84V123.56H64.1V134.84H66.1ZM65.1 124.56H119.22V122.56H65.1V124.56ZM118.22 123.56V134.84H120.22V123.56H118.22ZM119.22 133.84H65.1V135.84H119.22V133.84ZM56.34 147.24H65.1V145.24H56.34V147.24ZM66.1 146.24V142.04H64.1V146.24H66.1ZM65.1 143.04H119.22V141.04H65.1V143.04ZM118.22 142.04V146H120.22V142.04H118.22ZM119.22 147H128.34V145H119.22V147ZM129.34 146V99.2H127.34V146H129.34ZM128.34 98.2H56.34V100.2H128.34V98.2ZM55.34 99.2V146.24H57.34V99.2H55.34ZM145.3 72.08V64.04H143.3V72.08H145.3ZM144.3 63.04H95.94V65.04H144.3V63.04ZM96.94 64.04V50.6H94.94V64.04H96.94ZM96.0484 51.5941C109.276 50.1511 121.691 48.1041 131.599 45.4458L131.081 43.5142C121.309 46.1359 109.004 48.1688 95.8316 49.6059L96.0484 51.5941ZM132.059 43.7854L125.339 36.8254L123.901 38.2146L130.621 45.1746L132.059 43.7854ZM124.366 36.5527C107.077 41.0838 75.371 44.0812 48.3667 45.5214L48.4733 47.5186C75.4691 46.0788 107.363 43.0762 124.874 38.4873L124.366 36.5527ZM47.5152 46.9458C48.4427 48.9167 49.4815 52.1688 49.7061 54.1904L51.6939 53.9696C51.4385 51.6712 50.3173 48.2033 49.3248 46.0942L47.5152 46.9458ZM50.7416 55.0791C62.2791 54.5984 74.7781 53.7572 86.9185 52.5551L86.7215 50.5649C74.6219 51.7628 62.1609 52.6016 50.6584 53.0809L50.7416 55.0791ZM85.82 51.56V64.04H87.82V51.56H85.82ZM86.82 63.04H38.82V65.04H86.82V63.04ZM37.82 64.04V72.08H39.82V64.04H37.82ZM38.82 73.08H77.34V71.08H38.82V73.08ZM76.6136 71.3927C66.1635 82.4366 50.5788 92.5493 36.0876 97.6569L36.7524 99.5431C51.5412 94.3307 67.3965 84.0434 78.0664 72.7673L76.6136 71.3927ZM35.7584 99.3498C37.7327 101.092 40.2926 104.126 41.4258 106.166L43.1742 105.194C41.9074 102.914 39.1873 99.7081 37.0816 97.8502L35.7584 99.3498ZM42.6702 106.609C58.7836 100.188 76.4521 87.4843 87.6086 73.1749L86.0314 71.9451C75.1079 85.9557 57.7364 98.4522 41.9298 104.751L42.6702 106.609ZM85.82 72.56V95.84H87.82V72.56H85.82ZM86.82 96.84H95.94V94.84H86.82V96.84ZM96.94 95.84V72.56H94.94V95.84H96.94ZM95.1832 73.2136C106.697 86.5459 124.833 98.8732 140.562 105.286L141.318 103.434C125.847 97.1268 107.983 84.9741 96.6968 71.9064L95.1832 73.2136ZM141.793 104.881C143.09 102.76 145.541 99.5087 147.456 97.9319L146.184 96.3881C144.019 98.1712 141.43 101.64 140.087 103.839L141.793 104.881ZM147.139 96.2121C132.999 91.4593 116.928 81.6973 106.235 71.361L104.845 72.799C115.752 83.3427 132.081 93.2607 146.501 98.1079L147.139 96.2121ZM105.54 73.08H144.3V71.08H105.54V73.08Z" fill="#BA462D"/>
</g>
<defs>
<filter id="filter0_d" x="0.972168" y="3.05176e-05" width="182.028" height="222.259" filterUnits="userSpaceOnUse" color-interpolation-filters="sRGB">
<feFlood flood-opacity="0" result="BackgroundImageFix"/>
<feColorMatrix in="SourceAlpha" type="matrix" values="0 0 0 0 0 0 0 0 0 0 0 0 0 0 0 0 0 0 127 0"/>
<feOffset dy="4"/>
<feGaussianBlur stdDeviation="2"/>
<feColorMatrix type="matrix" values="0 0 0 0 0 0 0 0 0 0 0 0 0 0 0 0 0 0 0.25 0"/>
<feBlend mode="normal" in2="BackgroundImageFix" result="effect1_dropShadow"/>
<feBlend mode="normal" in="SourceGraphic" in2="effect1_dropShadow" result="shape"/>
</filter>
<filter id="filter1_b" x="1" y="7.25928" width="182" height="211" filterUnits="userSpaceOnUse" color-interpolation-filters="sRGB">
<feFlood flood-opacity="0" result="BackgroundImageFix"/>
<feGaussianBlur in="BackgroundImage" stdDeviation="2"/>
<feComposite in2="SourceAlpha" operator="in" result="effect1_backgroundBlur"/>
<feBlend mode="normal" in="SourceGraphic" in2="effect1_backgroundBlur" result="shape"/>
</filter>
<filter id="filter2_i" x="34.4813" y="36.4042" width="114.366" height="114.836" filterUnits="userSpaceOnUse" color-interpolation-filters="sRGB">
<feFlood flood-opacity="0" result="BackgroundImageFix"/>
<feBlend mode="normal" in="SourceGraphic" in2="BackgroundImageFix" result="shape"/>
<feColorMatrix in="SourceAlpha" type="matrix" values="0 0 0 0 0 0 0 0 0 0 0 0 0 0 0 0 0 0 127 0" result="hardAlpha"/>
<feOffset dy="4"/>
<feGaussianBlur stdDeviation="2"/>
<feComposite in2="hardAlpha" operator="arithmetic" k2="-1" k3="1"/>
<feColorMatrix type="matrix" values="0 0 0 0 0 0 0 0 0 0 0 0 0 0 0 0 0 0 0.25 0"/>
<feBlend mode="normal" in2="shape" result="effect1_innerShadow"/>
</filter>
</defs>
</svg>
