<svg width="179" height="212" viewBox="0 0 179 212" fill="none" xmlns="http://www.w3.org/2000/svg">
<g filter="url(#filter0_d)">
<g filter="url(#filter1_b)">
<path d="M157.029 175.96L89.0343 204L21.9714 175.96L8 11L171 11L157.029 175.96Z" fill="#FAE5B1"/>
<path d="M170.456 11.5L156.556 175.614L89.0356 203.459L22.4441 175.615L8.54414 11.5L170.456 11.5Z" stroke="#FAE5B1"/>
</g>
<rect x="171" y="11" width="163" height="11" transform="rotate(-180 171 11)" fill="#CFB278"/>
<g filter="url(#filter2_i)">
<path d="M66.46 39.64L56.98 43.6C62.5 56.68 68.86 70.72 74.38 80.56C61.54 89.56 53.62 99.28 53.62 111.64C53.62 129.64 69.94 136.36 92.5 136.36C107.5 136.36 121.3 134.92 130.42 133.36V122.68C121.06 125.08 105.1 126.76 92.02 126.76C73.06 126.76 63.58 120.52 63.58 110.56C63.58 101.44 70.3 93.52 81.46 86.32C93.22 78.52 109.78 70.6 117.94 66.4C121.42 64.6 124.42 63.04 127.18 61.36L121.9 52.84C119.38 54.88 116.86 56.44 113.38 58.48C106.78 62.08 93.82 68.44 82.54 75.28C77.26 65.8 71.26 52.84 66.46 39.64Z" fill="#BA462D"/>
</g>
<path d="M66.46 39.64L67.3998 39.2983L67.0416 38.3133L66.0746 38.7173L66.46 39.64ZM56.98 43.6L56.5946 42.6773L55.6684 43.0641L56.0587 43.9888L56.98 43.6ZM74.38 80.56L74.954 81.3789L75.6947 80.8597L75.2521 80.0707L74.38 80.56ZM130.42 133.36L130.589 134.346L131.42 134.203V133.36H130.42ZM130.42 122.68H131.42V121.391L130.172 121.711L130.42 122.68ZM81.46 86.32L82.0022 87.1604L82.0127 87.1534L81.46 86.32ZM117.94 66.4L118.398 67.2891L118.399 67.2882L117.94 66.4ZM127.18 61.36L127.7 62.2142L128.561 61.6901L128.03 60.8332L127.18 61.36ZM121.9 52.84L122.75 52.3132L122.152 51.349L121.271 52.0627L121.9 52.84ZM113.38 58.48L113.859 59.3579L113.872 59.3505L113.886 59.3427L113.38 58.48ZM82.54 75.28L81.6664 75.7666L82.1713 76.6731L83.0585 76.1351L82.54 75.28ZM66.0746 38.7173L56.5946 42.6773L57.3654 44.5227L66.8454 40.5627L66.0746 38.7173ZM56.0587 43.9888C61.5814 57.0753 67.9592 71.1581 73.5079 81.0493L75.2521 80.0707C69.7608 70.2819 63.4186 56.2847 57.9013 43.2112L56.0587 43.9888ZM73.806 79.7411C60.8831 88.7993 52.62 98.7801 52.62 111.64H54.62C54.62 99.7799 62.1969 90.3207 74.954 81.3789L73.806 79.7411ZM52.62 111.64C52.62 121.016 56.9071 127.519 64.1051 131.619C71.2264 135.675 81.1513 137.36 92.5 137.36V135.36C81.2887 135.36 71.7736 133.685 65.0949 129.881C58.4929 126.121 54.62 120.264 54.62 111.64H52.62ZM92.5 137.36C107.558 137.36 121.414 135.915 130.589 134.346L130.251 132.374C121.186 133.925 107.442 135.36 92.5 135.36V137.36ZM131.42 133.36V122.68H129.42V133.36H131.42ZM130.172 121.711C120.917 124.084 105.045 125.76 92.02 125.76V127.76C105.155 127.76 121.203 126.076 130.668 123.649L130.172 121.711ZM92.02 125.76C82.6242 125.76 75.7199 124.21 71.1993 121.534C66.7368 118.894 64.58 115.157 64.58 110.56H62.58C62.58 115.923 65.1632 120.286 70.1807 123.256C75.1401 126.19 82.4558 127.76 92.02 127.76V125.76ZM64.58 110.56C64.58 101.98 70.904 94.3204 82.0021 87.1603L80.9179 85.4797C69.696 92.7196 62.58 100.9 62.58 110.56H64.58ZM82.0127 87.1534C93.712 79.3936 110.191 71.5134 118.398 67.2891L117.482 65.5109C109.369 69.6866 92.728 77.6464 80.9073 85.4866L82.0127 87.1534ZM118.399 67.2882C121.874 65.491 124.905 63.9153 127.7 62.2142L126.66 60.5058C123.935 62.1647 120.966 63.7089 117.481 65.5118L118.399 67.2882ZM128.03 60.8332L122.75 52.3132L121.05 53.3668L126.33 61.8868L128.03 60.8332ZM121.271 52.0627C118.813 54.0523 116.348 55.5807 112.874 57.6173L113.886 59.3427C117.372 57.2993 119.947 55.7077 122.529 53.6172L121.271 52.0627ZM112.901 57.6021C106.363 61.1686 93.3234 67.5716 82.0215 74.4249L83.0585 76.1351C94.3166 69.3084 107.197 62.9914 113.859 59.3579L112.901 57.6021ZM83.4136 74.7934C78.1608 65.3622 72.1826 52.4509 67.3998 39.2983L65.5202 39.9817C70.3374 53.2291 76.3592 66.2378 81.6664 75.7666L83.4136 74.7934Z" fill="#BA462D"/>
</g>
<defs>
<filter id="filter0_d" x="4" y="0" width="171" height="212" filterUnits="userSpaceOnUse" color-interpolation-filters="sRGB">
<feFlood flood-opacity="0" result="BackgroundImageFix"/>
<feColorMatrix in="SourceAlpha" type="matrix" values="0 0 0 0 0 0 0 0 0 0 0 0 0 0 0 0 0 0 127 0"/>
<feOffset dy="4"/>
<feGaussianBlur stdDeviation="2"/>
<feColorMatrix type="matrix" values="0 0 0 0 0 0 0 0 0 0 0 0 0 0 0 0 0 0 0.25 0"/>
<feBlend mode="normal" in2="BackgroundImageFix" result="effect1_dropShadow"/>
<feBlend mode="normal" in="SourceGraphic" in2="effect1_dropShadow" result="shape"/>
</filter>
<filter id="filter1_b" x="4" y="7" width="171" height="201" filterUnits="userSpaceOnUse" color-interpolation-filters="sRGB">
<feFlood flood-opacity="0" result="BackgroundImageFix"/>
<feGaussianBlur in="BackgroundImage" stdDeviation="2"/>
<feComposite in2="SourceAlpha" operator="in" result="effect1_backgroundBlur"/>
<feBlend mode="normal" in="SourceGraphic" in2="effect1_backgroundBlur" result="shape"/>
</filter>
<filter id="filter2_i" x="52.62" y="38.3133" width="78.8" height="103.047" filterUnits="userSpaceOnUse" color-interpolation-filters="sRGB">
<feFlood flood-opacity="0" result="BackgroundImageFix"/>
<feBlend mode="normal" in="SourceGraphic" in2="BackgroundImageFix" result="shape"/>
<feColorMatrix in="SourceAlpha" type="matrix" values="0 0 0 0 0 0 0 0 0 0 0 0 0 0 0 0 0 0 127 0" result="hardAlpha"/>
<feOffset dy="4"/>
<feGaussianBlur stdDeviation="2"/>
<feComposite in2="hardAlpha" operator="arithmetic" k2="-1" k3="1"/>
<feColorMatrix type="matrix" values="0 0 0 0 0 0 0 0 0 0 0 0 0 0 0 0 0 0 0.25 0"/>
<feBlend mode="normal" in2="shape" result="effect1_innerShadow"/>
</filter>
</defs>
</svg>
