<svg width="183" height="236" viewBox="0 0 183 236" fill="none" xmlns="http://www.w3.org/2000/svg">
<g filter="url(#filter0_d)">
<g filter="url(#filter1_b)">
<path d="M164 196.618L91 228L19 196.618L4 12L179 12L164 196.618Z" fill="#FAE5B1"/>
<path d="M178.458 12.5L163.526 196.277L91.0014 227.455L19.4741 196.279L4.54227 12.5L178.458 12.5Z" stroke="#FAE5B1"/>
</g>
<rect x="179" y="12" width="175" height="12" transform="rotate(-180 179 12)" fill="#CFB278"/>
<g filter="url(#filter2_i)">
<path d="M52.4 130.08V121.44H77.96V130.08H52.4ZM77.96 106.8V115.2H52.4V106.8H77.96ZM86.72 100.08H44V158.88H52.4V136.44H77.96V149.4C77.96 150.72 77.6 151.08 76.28 151.2C74.84 151.32 70.4 151.32 65.36 151.08C66.44 153.24 67.76 156.72 68.24 159C74.96 159 79.76 158.88 82.88 157.56C85.88 156.24 86.72 153.72 86.72 149.52V100.08ZM76.88 67.68H90.2V60H69.2V49.68H60.44V60H39.56V67.68H76.04C74.84 72.24 72.56 78.84 70.88 83.04L76.64 84.72H52.28L59 82.92C58.16 78.96 56.12 72.6 53.96 67.8L47 69.48C48.92 74.28 50.72 80.64 51.44 84.72H37.52V92.4H92.36V84.72H77.6C79.64 80.76 81.8 75 83.96 69.6L76.88 67.68ZM113.6 150.96C107.84 150.96 106.88 150.12 106.88 146.16V141.12H141.08V135.24H106.88V127.56H139.88V121.68H106.88V114.36H140.6V108.48H106.88V101.04H140.72V76.2H106.88V66.48H145.4V59.04H106.88V49.56H98.36V83.28H132.08V94.08H98.36V146.16C98.36 156.12 101.6 158.28 112.76 158.28H134.96C143.96 158.28 146.48 155.28 147.56 144.36C145.16 143.88 141.8 142.56 139.76 141.12C139.4 149.4 138.56 150.96 134.36 150.96H113.6Z" fill="#BA462D"/>
</g>
<path d="M52.4 130.08H51.4V131.08H52.4V130.08ZM52.4 121.44V120.44H51.4V121.44H52.4ZM77.96 121.44H78.96V120.44H77.96V121.44ZM77.96 130.08V131.08H78.96V130.08H77.96ZM77.96 106.8H78.96V105.8H77.96V106.8ZM77.96 115.2V116.2H78.96V115.2H77.96ZM52.4 115.2H51.4V116.2H52.4V115.2ZM52.4 106.8V105.8H51.4V106.8H52.4ZM86.72 100.08H87.72V99.08H86.72V100.08ZM44 100.08V99.08H43V100.08H44ZM44 158.88H43V159.88H44V158.88ZM52.4 158.88V159.88H53.4V158.88H52.4ZM52.4 136.44V135.44H51.4V136.44H52.4ZM77.96 136.44H78.96V135.44H77.96V136.44ZM76.28 151.2L76.363 152.197L76.3705 152.196L76.28 151.2ZM65.36 151.08L65.4076 150.081L63.7019 150L64.4656 151.527L65.36 151.08ZM68.24 159L67.2615 159.206L67.4286 160H68.24V159ZM82.88 157.56L83.2696 158.481L83.2762 158.478L83.2827 158.475L82.88 157.56ZM76.88 67.68V66.68L76.6183 68.6451L76.88 67.68ZM90.2 67.68V68.68H91.2V67.68H90.2ZM90.2 60H91.2V59H90.2V60ZM69.2 60H68.2V61H69.2V60ZM69.2 49.68H70.2V48.68H69.2V49.68ZM60.44 49.68V48.68H59.44V49.68H60.44ZM60.44 60V61H61.44V60H60.44ZM39.56 60V59H38.56V60H39.56ZM39.56 67.68H38.56V68.68H39.56V67.68ZM76.04 67.68L77.0071 67.9345L77.3372 66.68H76.04V67.68ZM70.88 83.04L69.9515 82.6686L69.5424 83.6915L70.6 84L70.88 83.04ZM76.64 84.72V85.72L76.92 83.76L76.64 84.72ZM52.28 84.72L52.0213 83.754L52.28 85.72V84.72ZM59 82.92L59.2587 83.8859L60.1751 83.6405L59.9782 82.7125L59 82.92ZM53.96 67.8L54.8719 67.3896L54.5316 66.6333L53.7254 66.8279L53.96 67.8ZM47 69.48L46.7654 68.5079L45.6425 68.7789L46.0715 69.8514L47 69.48ZM51.44 84.72V85.72H52.6319L52.4248 84.5462L51.44 84.72ZM37.52 84.72V83.72H36.52V84.72H37.52ZM37.52 92.4H36.52V93.4H37.52V92.4ZM92.36 92.4V93.4H93.36V92.4H92.36ZM92.36 84.72H93.36V83.72H92.36V84.72ZM77.6 84.72L76.711 84.262L75.96 85.72H77.6V84.72ZM83.96 69.6L84.8885 69.9714L85.3055 68.9288L84.2217 68.6349L83.96 69.6ZM106.88 141.12V140.12H105.88V141.12H106.88ZM141.08 141.12V142.12H142.08V141.12H141.08ZM141.08 135.24H142.08V134.24H141.08V135.24ZM106.88 135.24H105.88V136.24H106.88V135.24ZM106.88 127.56V126.56H105.88V127.56H106.88ZM139.88 127.56V128.56H140.88V127.56H139.88ZM139.88 121.68H140.88V120.68H139.88V121.68ZM106.88 121.68H105.88V122.68H106.88V121.68ZM106.88 114.36V113.36H105.88V114.36H106.88ZM140.6 114.36V115.36H141.6V114.36H140.6ZM140.6 108.48H141.6V107.48H140.6V108.48ZM106.88 108.48H105.88V109.48H106.88V108.48ZM106.88 101.04V100.04H105.88V101.04H106.88ZM140.72 101.04V102.04H141.72V101.04H140.72ZM140.72 76.2H141.72V75.2H140.72V76.2ZM106.88 76.2H105.88V77.2H106.88V76.2ZM106.88 66.48V65.48H105.88V66.48H106.88ZM145.4 66.48V67.48H146.4V66.48H145.4ZM145.4 59.04H146.4V58.04H145.4V59.04ZM106.88 59.04H105.88V60.04H106.88V59.04ZM106.88 49.56H107.88V48.56H106.88V49.56ZM98.36 49.56V48.56H97.36V49.56H98.36ZM98.36 83.28H97.36V84.28H98.36V83.28ZM132.08 83.28H133.08V82.28H132.08V83.28ZM132.08 94.08V95.08H133.08V94.08H132.08ZM98.36 94.08V93.08H97.36V94.08H98.36ZM147.56 144.36L148.555 144.458L148.644 143.557L147.756 143.379L147.56 144.36ZM139.76 141.12L140.337 140.303L138.841 139.247L138.761 141.077L139.76 141.12ZM53.4 130.08V121.44H51.4V130.08H53.4ZM52.4 122.44H77.96V120.44H52.4V122.44ZM76.96 121.44V130.08H78.96V121.44H76.96ZM77.96 129.08H52.4V131.08H77.96V129.08ZM76.96 106.8V115.2H78.96V106.8H76.96ZM77.96 114.2H52.4V116.2H77.96V114.2ZM53.4 115.2V106.8H51.4V115.2H53.4ZM52.4 107.8H77.96V105.8H52.4V107.8ZM86.72 99.08H44V101.08H86.72V99.08ZM43 100.08V158.88H45V100.08H43ZM44 159.88H52.4V157.88H44V159.88ZM53.4 158.88V136.44H51.4V158.88H53.4ZM52.4 137.44H77.96V135.44H52.4V137.44ZM76.96 136.44V149.4H78.96V136.44H76.96ZM76.96 149.4C76.96 150.035 76.8561 150.097 76.888 150.063C76.9053 150.045 76.8976 150.068 76.7905 150.103C76.6738 150.141 76.4883 150.177 76.1895 150.204L76.3705 152.196C77.0418 152.135 77.8094 152.001 78.342 151.437C78.8839 150.863 78.96 150.085 78.96 149.4H76.96ZM76.197 150.203C74.8278 150.318 70.4449 150.321 65.4076 150.081L65.3124 152.079C70.3551 152.319 74.8522 152.322 76.363 152.197L76.197 150.203ZM64.4656 151.527C65.5185 153.633 66.8036 157.031 67.2615 159.206L69.2186 158.794C68.7164 156.409 67.3615 152.847 66.2544 150.633L64.4656 151.527ZM68.24 160C71.5974 160 74.5148 159.97 76.99 159.772C79.4583 159.574 81.5634 159.203 83.2696 158.481L82.4904 156.639C81.0766 157.237 79.2217 157.586 76.83 157.778C74.4452 157.97 71.6026 158 68.24 158V160ZM83.2827 158.475C84.995 157.722 86.1465 156.588 86.8392 155.025C87.5098 153.512 87.72 151.664 87.72 149.52H85.72C85.72 151.576 85.5102 153.088 85.0108 154.215C84.5336 155.292 83.765 156.078 82.4773 156.645L83.2827 158.475ZM87.72 149.52V100.08H85.72V149.52H87.72ZM76.88 68.68H90.2V66.68H76.88V68.68ZM91.2 67.68V60H89.2V67.68H91.2ZM90.2 59H69.2V61H90.2V59ZM70.2 60V49.68H68.2V60H70.2ZM69.2 48.68H60.44V50.68H69.2V48.68ZM59.44 49.68V60H61.44V49.68H59.44ZM60.44 59H39.56V61H60.44V59ZM38.56 60V67.68H40.56V60H38.56ZM39.56 68.68H76.04V66.68H39.56V68.68ZM75.0729 67.4255C73.8858 71.9364 71.6204 78.4965 69.9515 82.6686L71.8085 83.4114C73.4997 79.1835 75.7942 72.5436 77.0071 67.9345L75.0729 67.4255ZM70.6 84L76.36 85.68L76.92 83.76L71.16 82.08L70.6 84ZM76.64 83.72H52.28V85.72H76.64V83.72ZM52.5387 85.6859L59.2587 83.8859L58.7413 81.9541L52.0213 83.754L52.5387 85.6859ZM59.9782 82.7125C59.1228 78.6795 57.0598 72.2517 54.8719 67.3896L53.0481 68.2104C55.1802 72.9483 57.1972 79.2405 58.0218 83.1275L59.9782 82.7125ZM53.7254 66.8279L46.7654 68.5079L47.2346 70.4521L54.1946 68.7721L53.7254 66.8279ZM46.0715 69.8514C47.9679 74.5922 49.748 80.8861 50.4552 84.8938L52.4248 84.5462C51.692 80.3939 49.8721 73.9678 47.9285 69.1086L46.0715 69.8514ZM51.44 83.72H37.52V85.72H51.44V83.72ZM36.52 84.72V92.4H38.52V84.72H36.52ZM37.52 93.4H92.36V91.4H37.52V93.4ZM93.36 92.4V84.72H91.36V92.4H93.36ZM92.36 83.72H77.6V85.72H92.36V83.72ZM78.489 85.178C80.5578 81.1621 82.7455 75.3289 84.8885 69.9714L83.0315 69.2286C80.8545 74.6711 78.7223 80.3579 76.711 84.262L78.489 85.178ZM84.2217 68.6349L77.1417 66.7149L76.6183 68.6451L83.6983 70.5651L84.2217 68.6349ZM113.6 149.96C112.174 149.96 111.096 149.907 110.274 149.779C109.449 149.65 108.968 149.457 108.672 149.239C108.155 148.859 107.88 148.163 107.88 146.16H105.88C105.88 148.117 106.085 149.821 107.488 150.851C108.152 151.338 108.991 151.603 109.966 151.755C110.944 151.908 112.146 151.96 113.6 151.96V149.96ZM107.88 146.16V141.12H105.88V146.16H107.88ZM106.88 142.12H141.08V140.12H106.88V142.12ZM142.08 141.12V135.24H140.08V141.12H142.08ZM141.08 134.24H106.88V136.24H141.08V134.24ZM107.88 135.24V127.56H105.88V135.24H107.88ZM106.88 128.56H139.88V126.56H106.88V128.56ZM140.88 127.56V121.68H138.88V127.56H140.88ZM139.88 120.68H106.88V122.68H139.88V120.68ZM107.88 121.68V114.36H105.88V121.68H107.88ZM106.88 115.36H140.6V113.36H106.88V115.36ZM141.6 114.36V108.48H139.6V114.36H141.6ZM140.6 107.48H106.88V109.48H140.6V107.48ZM107.88 108.48V101.04H105.88V108.48H107.88ZM106.88 102.04H140.72V100.04H106.88V102.04ZM141.72 101.04V76.2H139.72V101.04H141.72ZM140.72 75.2H106.88V77.2H140.72V75.2ZM107.88 76.2V66.48H105.88V76.2H107.88ZM106.88 67.48H145.4V65.48H106.88V67.48ZM146.4 66.48V59.04H144.4V66.48H146.4ZM145.4 58.04H106.88V60.04H145.4V58.04ZM107.88 59.04V49.56H105.88V59.04H107.88ZM106.88 48.56H98.36V50.56H106.88V48.56ZM97.36 49.56V83.28H99.36V49.56H97.36ZM98.36 84.28H132.08V82.28H98.36V84.28ZM131.08 83.28V94.08H133.08V83.28H131.08ZM132.08 93.08H98.36V95.08H132.08V93.08ZM97.36 94.08V146.16H99.36V94.08H97.36ZM97.36 146.16C97.36 151.176 98.1576 154.637 100.746 156.732C102.02 157.764 103.646 158.393 105.614 158.769C107.579 159.145 109.948 159.28 112.76 159.28V157.28C109.992 157.28 107.771 157.145 105.99 156.805C104.212 156.465 102.935 155.931 102.004 155.178C100.182 153.703 99.36 151.104 99.36 146.16H97.36ZM112.76 159.28H134.96V157.28H112.76V159.28ZM134.96 159.28C139.525 159.28 142.787 158.53 144.976 156.081C147.104 153.699 148.016 149.911 148.555 144.458L146.565 144.262C146.024 149.729 145.136 152.901 143.484 154.749C141.893 156.53 139.395 157.28 134.96 157.28V159.28ZM147.756 143.379C145.468 142.922 142.243 141.649 140.337 140.303L139.183 141.937C141.357 143.471 144.852 144.838 147.364 145.341L147.756 143.379ZM138.761 141.077C138.671 143.138 138.553 144.746 138.366 146.003C138.177 147.27 137.929 148.105 137.623 148.665C137.337 149.187 136.998 149.477 136.547 149.661C136.053 149.863 135.368 149.96 134.36 149.96V151.96C135.452 151.96 136.447 151.862 137.303 151.513C138.202 151.145 138.883 150.528 139.377 149.625C139.851 148.76 140.143 147.652 140.344 146.298C140.547 144.934 140.669 143.242 140.759 141.163L138.761 141.077ZM134.36 149.96H113.6V151.96H134.36V149.96Z" fill="#BA462D"/>
</g>
<defs>
<filter id="filter0_d" x="0" y="0" width="183" height="236" filterUnits="userSpaceOnUse" color-interpolation-filters="sRGB">
<feFlood flood-opacity="0" result="BackgroundImageFix"/>
<feColorMatrix in="SourceAlpha" type="matrix" values="0 0 0 0 0 0 0 0 0 0 0 0 0 0 0 0 0 0 127 0"/>
<feOffset dy="4"/>
<feGaussianBlur stdDeviation="2"/>
<feColorMatrix type="matrix" values="0 0 0 0 0 0 0 0 0 0 0 0 0 0 0 0 0 0 0.25 0"/>
<feBlend mode="normal" in2="BackgroundImageFix" result="effect1_dropShadow"/>
<feBlend mode="normal" in="SourceGraphic" in2="effect1_dropShadow" result="shape"/>
</filter>
<filter id="filter1_b" x="0" y="8" width="183" height="224" filterUnits="userSpaceOnUse" color-interpolation-filters="sRGB">
<feFlood flood-opacity="0" result="BackgroundImageFix"/>
<feGaussianBlur in="BackgroundImage" stdDeviation="2"/>
<feComposite in2="SourceAlpha" operator="in" result="effect1_backgroundBlur"/>
<feBlend mode="normal" in="SourceGraphic" in2="effect1_backgroundBlur" result="shape"/>
</filter>
<filter id="filter2_i" x="36.52" y="48.56" width="112.124" height="115.44" filterUnits="userSpaceOnUse" color-interpolation-filters="sRGB">
<feFlood flood-opacity="0" result="BackgroundImageFix"/>
<feBlend mode="normal" in="SourceGraphic" in2="BackgroundImageFix" result="shape"/>
<feColorMatrix in="SourceAlpha" type="matrix" values="0 0 0 0 0 0 0 0 0 0 0 0 0 0 0 0 0 0 127 0" result="hardAlpha"/>
<feOffset dy="4"/>
<feGaussianBlur stdDeviation="2"/>
<feComposite in2="hardAlpha" operator="arithmetic" k2="-1" k3="1"/>
<feColorMatrix type="matrix" values="0 0 0 0 0 0 0 0 0 0 0 0 0 0 0 0 0 0 0.25 0"/>
<feBlend mode="normal" in2="shape" result="effect1_innerShadow"/>
</filter>
</defs>
</svg>
