<svg width="183" height="223" viewBox="0 0 183 223" fill="none" xmlns="http://www.w3.org/2000/svg">
<g filter="url(#filter0_d)">
<g filter="url(#filter1_b)">
<path d="M164.086 184.766L91.5029 214.259L19.9143 184.766L5 11.2593L179 11.2593L164.086 184.766Z" fill="#FAE5B1"/>
<path d="M178.455 11.7593L163.614 184.418L91.5042 213.719L20.3864 184.42L5.54483 11.7593L178.455 11.7593Z" stroke="#FAE5B1"/>
</g>
<rect x="179" y="11.2593" width="174.028" height="11.2593" transform="rotate(-180 179 11.2593)" fill="#CFB278"/>
<g filter="url(#filter2_i)">
<path d="M86.26 131.6L67.54 135.2V100.16H85.42V92.36H67.54V79.76H82.3V72.08H48.7C55.54 64.88 60.58 57.32 64.3 50.84C71.26 57.2 78.94 66.08 82.9 71.72L88.9 64.88C84.22 58.64 74.74 49.16 66.94 42.68H59.02C54.7 52.16 46.9 64.28 35.62 73.4C37.3 74.6 39.94 77.36 41.26 79.16C42.94 77.72 44.62 76.16 46.18 74.6V79.76H59.74V92.36H40.18V100.16H59.74V136.64C51.7 138.08 44.38 139.52 38.62 140.48L40.66 148.52C53.26 146 70.66 142.64 86.86 139.16L86.26 131.6ZM42.58 108.56C45.1 115.64 47.14 124.76 47.5 130.88L54.22 128.96C53.62 123.08 51.46 113.96 48.82 107L42.58 108.56ZM76.9 129.44C79.06 123.8 81.82 115.04 84.1 107.72L77.14 105.56C75.94 112.04 73.18 121.64 71.26 127.4L76.9 129.44ZM100.06 76.76H133.06V90.92H100.06V76.76ZM133.06 55.64V68.96H100.06V55.64H133.06ZM140.26 103.76C136.42 107.84 130.3 113 124.9 117.08C122.5 111.32 120.58 105.2 119.02 98.72H141.58V47.6H91.66V140.12C87.94 140.96 84.58 141.68 81.58 142.28L84.1 150.8C95.14 148.28 109.54 144.68 123.1 141.08L122.26 132.92C114.7 134.72 107.14 136.52 100.06 138.2V98.72H110.98C116.26 123.2 126.22 142.76 143.62 152.36C144.94 150.08 147.58 146.6 149.5 144.92C140.5 140.6 133.54 133.16 128.26 123.8C134.02 119.96 140.98 114.68 146.38 109.76L140.26 103.76Z" fill="#BA462D"/>
</g>
<path d="M86.26 131.6L87.2569 131.521L87.1685 130.407L86.0712 130.618L86.26 131.6ZM67.54 135.2H66.54V136.411L67.7289 136.182L67.54 135.2ZM67.54 100.16V99.16H66.54V100.16H67.54ZM85.42 100.16V101.16H86.42V100.16H85.42ZM85.42 92.36H86.42V91.36H85.42V92.36ZM67.54 92.36H66.54V93.36H67.54V92.36ZM67.54 79.76V78.76H66.54V79.76H67.54ZM82.3 79.76V80.76H83.3V79.76H82.3ZM82.3 72.08H83.3V71.08H82.3V72.08ZM48.7 72.08L47.975 71.3912L46.3707 73.08H48.7V72.08ZM64.3 50.84L64.9746 50.1018L64.0538 49.2604L63.4327 50.3421L64.3 50.84ZM82.9 71.72L82.0816 72.2946L82.8127 73.3359L83.6518 72.3794L82.9 71.72ZM88.9 64.88L89.6518 65.5394L90.187 64.9293L89.7 64.28L88.9 64.88ZM66.94 42.68L67.579 41.9108L67.3012 41.68H66.94V42.68ZM59.02 42.68V41.68H58.3768L58.11 42.2653L59.02 42.68ZM35.62 73.4L34.9913 72.6224L33.9685 73.4493L35.0388 74.2137L35.62 73.4ZM41.26 79.16L40.4536 79.7514L41.0916 80.6214L41.9108 79.9193L41.26 79.16ZM46.18 74.6H47.18V72.1858L45.4729 73.8929L46.18 74.6ZM46.18 79.76H45.18V80.76H46.18V79.76ZM59.74 79.76H60.74V78.76H59.74V79.76ZM59.74 92.36V93.36H60.74V92.36H59.74ZM40.18 92.36V91.36H39.18V92.36H40.18ZM40.18 100.16H39.18V101.16H40.18V100.16ZM59.74 100.16H60.74V99.16H59.74V100.16ZM59.74 136.64L59.9163 137.624L60.74 137.477V136.64H59.74ZM38.62 140.48L38.4556 139.494L37.3834 139.672L37.6507 140.726L38.62 140.48ZM40.66 148.52L39.6907 148.766L39.9244 149.687L40.8561 149.501L40.66 148.52ZM86.86 139.16L87.07 140.138L87.9261 139.954L87.8569 139.081L86.86 139.16ZM42.58 108.56L42.3375 107.59L41.2684 107.857L41.6379 108.895L42.58 108.56ZM47.5 130.88L46.5017 130.939L46.575 132.184L47.7747 131.842L47.5 130.88ZM54.22 128.96L54.4947 129.922L55.2998 129.691L55.2148 128.858L54.22 128.96ZM48.82 107L49.755 106.645L49.4398 105.814L48.5775 106.03L48.82 107ZM76.9 129.44L76.5599 130.38L77.4828 130.714L77.8339 129.798L76.9 129.44ZM84.1 107.72L85.0548 108.017L85.3524 107.062L84.3964 106.765L84.1 107.72ZM77.14 105.56L77.4364 104.605L76.3616 104.271L76.1567 105.378L77.14 105.56ZM71.26 127.4L70.3113 127.084L70.003 128.009L70.9199 128.34L71.26 127.4ZM100.06 76.76V75.76H99.06V76.76H100.06ZM133.06 76.76H134.06V75.76H133.06V76.76ZM133.06 90.92V91.92H134.06V90.92H133.06ZM100.06 90.92H99.06V91.92H100.06V90.92ZM133.06 55.64H134.06V54.64H133.06V55.64ZM133.06 68.96V69.96H134.06V68.96H133.06ZM100.06 68.96H99.06V69.96H100.06V68.96ZM100.06 55.64V54.64H99.06V55.64H100.06ZM140.26 103.76L140.96 103.046L140.231 102.331L139.532 103.075L140.26 103.76ZM124.9 117.08L123.977 117.465L124.473 118.656L125.503 117.878L124.9 117.08ZM119.02 98.72V97.72H117.751L118.048 98.9541L119.02 98.72ZM141.58 98.72V99.72H142.58V98.72H141.58ZM141.58 47.6H142.58V46.6H141.58V47.6ZM91.66 47.6V46.6H90.66V47.6H91.66ZM91.66 140.12L91.8803 141.095L92.66 140.919V140.12H91.66ZM81.58 142.28L81.3839 141.299L80.3106 141.514L80.6211 142.564L81.58 142.28ZM84.1 150.8L83.1411 151.084L83.4073 151.984L84.3225 151.775L84.1 150.8ZM123.1 141.08L123.357 142.047L124.182 141.827L124.095 140.978L123.1 141.08ZM122.26 132.92L123.255 132.818L123.138 131.683L122.028 131.947L122.26 132.92ZM100.06 138.2H99.06V139.465L100.291 139.173L100.06 138.2ZM100.06 98.72V97.72H99.06V98.72H100.06ZM110.98 98.72L111.958 98.5092L111.787 97.72H110.98V98.72ZM143.62 152.36L143.137 153.236L143.995 153.709L144.485 152.861L143.62 152.36ZM149.5 144.92L150.159 145.673L151.299 144.674L149.933 144.018L149.5 144.92ZM128.26 123.8L127.705 122.968L126.933 123.483L127.389 124.291L128.26 123.8ZM146.38 109.76L147.053 110.499L147.836 109.787L147.08 109.046L146.38 109.76ZM86.0712 130.618L67.3512 134.218L67.7289 136.182L86.4488 132.582L86.0712 130.618ZM68.54 135.2V100.16H66.54V135.2H68.54ZM67.54 101.16H85.42V99.16H67.54V101.16ZM86.42 100.16V92.36H84.42V100.16H86.42ZM85.42 91.36H67.54V93.36H85.42V91.36ZM68.54 92.36V79.76H66.54V92.36H68.54ZM67.54 80.76H82.3V78.76H67.54V80.76ZM83.3 79.76V72.08H81.3V79.76H83.3ZM82.3 71.08H48.7V73.08H82.3V71.08ZM49.425 72.7687C56.3357 65.4943 61.421 57.8636 65.1673 51.3379L63.4327 50.3421C59.739 56.7764 54.7443 64.2657 47.975 71.3912L49.425 72.7687ZM63.6254 51.5782C70.5338 57.891 78.165 66.7165 82.0816 72.2946L83.7184 71.1454C79.715 65.4435 71.9862 56.509 64.9746 50.1018L63.6254 51.5782ZM83.6518 72.3794L89.6518 65.5394L88.1482 64.2206L82.1482 71.0606L83.6518 72.3794ZM89.7 64.28C84.9577 57.9569 75.4154 48.421 67.579 41.9108L66.301 43.4492C74.0646 49.8989 83.4823 59.3231 88.1 65.48L89.7 64.28ZM66.94 41.68H59.02V43.68H66.94V41.68ZM58.11 42.2653C53.8364 51.6436 46.1209 63.6239 34.9913 72.6224L36.2487 74.1776C47.6791 64.9361 55.5636 52.6764 59.93 43.0947L58.11 42.2653ZM35.0388 74.2137C36.6113 75.3369 39.1789 78.0132 40.4536 79.7514L42.0664 78.5686C40.7011 76.7068 37.9887 73.863 36.2012 72.5863L35.0388 74.2137ZM41.9108 79.9193C43.6109 78.462 45.3096 76.8846 46.8871 75.3071L45.4729 73.8929C43.9304 75.4354 42.2691 76.978 40.6092 78.4007L41.9108 79.9193ZM45.18 74.6V79.76H47.18V74.6H45.18ZM46.18 80.76H59.74V78.76H46.18V80.76ZM58.74 79.76V92.36H60.74V79.76H58.74ZM59.74 91.36H40.18V93.36H59.74V91.36ZM39.18 92.36V100.16H41.18V92.36H39.18ZM40.18 101.16H59.74V99.16H40.18V101.16ZM58.74 100.16V136.64H60.74V100.16H58.74ZM59.5637 135.656C51.4948 137.101 44.212 138.534 38.4556 139.494L38.7844 141.466C44.548 140.506 51.9052 139.059 59.9163 137.624L59.5637 135.656ZM37.6507 140.726L39.6907 148.766L41.6293 148.274L39.5893 140.234L37.6507 140.726ZM40.8561 149.501C53.4468 146.982 70.8608 143.62 87.07 140.138L86.65 138.182C70.4592 141.66 53.0732 145.018 40.4639 147.539L40.8561 149.501ZM87.8569 139.081L87.2569 131.521L85.2631 131.679L85.8631 139.239L87.8569 139.081ZM41.6379 108.895C44.1346 115.91 46.1486 124.935 46.5017 130.939L48.4983 130.821C48.1314 124.585 46.0654 115.37 43.5221 108.225L41.6379 108.895ZM47.7747 131.842L54.4947 129.922L53.9453 127.998L47.2253 129.918L47.7747 131.842ZM55.2148 128.858C54.6051 122.883 52.4227 113.678 49.755 106.645L47.885 107.355C50.4973 114.242 52.6349 123.277 53.2252 129.062L55.2148 128.858ZM48.5775 106.03L42.3375 107.59L42.8225 109.53L49.0625 107.97L48.5775 106.03ZM77.8339 129.798C80.0076 124.122 82.7776 115.328 85.0548 108.017L83.1452 107.423C80.8624 114.752 78.1124 123.478 75.9661 129.082L77.8339 129.798ZM84.3964 106.765L77.4364 104.605L76.8436 106.515L83.8036 108.675L84.3964 106.765ZM76.1567 105.378C74.9685 111.794 72.2241 121.345 70.3113 127.084L72.2087 127.716C74.1359 121.935 76.9115 112.286 78.1233 105.742L76.1567 105.378ZM70.9199 128.34L76.5599 130.38L77.2401 128.5L71.6001 126.46L70.9199 128.34ZM100.06 77.76H133.06V75.76H100.06V77.76ZM132.06 76.76V90.92H134.06V76.76H132.06ZM133.06 89.92H100.06V91.92H133.06V89.92ZM101.06 90.92V76.76H99.06V90.92H101.06ZM132.06 55.64V68.96H134.06V55.64H132.06ZM133.06 67.96H100.06V69.96H133.06V67.96ZM101.06 68.96V55.64H99.06V68.96H101.06ZM100.06 56.64H133.06V54.64H100.06V56.64ZM139.532 103.075C135.747 107.096 129.677 112.217 124.297 116.282L125.503 117.878C130.923 113.783 137.093 108.584 140.988 104.445L139.532 103.075ZM125.823 116.695C123.447 110.993 121.542 104.924 119.992 98.4859L118.048 98.9541C119.618 105.476 121.553 111.647 123.977 117.465L125.823 116.695ZM119.02 99.72H141.58V97.72H119.02V99.72ZM142.58 98.72V47.6H140.58V98.72H142.58ZM141.58 46.6H91.66V48.6H141.58V46.6ZM90.66 47.6V140.12H92.66V47.6H90.66ZM91.4397 139.145C87.7259 139.983 84.3741 140.701 81.3839 141.299L81.7761 143.261C84.7859 142.659 88.1541 141.937 91.8803 141.095L91.4397 139.145ZM80.6211 142.564L83.1411 151.084L85.0589 150.516L82.5389 141.996L80.6211 142.564ZM84.3225 151.775C95.3769 149.252 109.789 145.649 123.357 142.047L122.843 140.113C109.291 143.711 94.9031 147.308 83.8775 149.825L84.3225 151.775ZM124.095 140.978L123.255 132.818L121.265 133.022L122.105 141.182L124.095 140.978ZM122.028 131.947C114.468 133.747 106.909 135.547 99.8291 137.227L100.291 139.173C107.371 137.493 114.932 135.693 122.492 133.893L122.028 131.947ZM101.06 138.2V98.72H99.06V138.2H101.06ZM100.06 99.72H110.98V97.72H100.06V99.72ZM110.002 98.9308C115.304 123.513 125.358 143.426 143.137 153.236L144.103 151.484C127.082 142.094 117.216 122.887 111.958 98.5092L110.002 98.9308ZM144.485 152.861C145.77 150.643 148.345 147.259 150.159 145.673L148.841 144.167C146.815 145.941 144.11 149.517 142.755 151.859L144.485 152.861ZM149.933 144.018C141.164 139.809 134.339 132.541 129.131 123.309L127.389 124.291C132.741 133.779 139.836 141.391 149.067 145.822L149.933 144.018ZM128.815 124.632C134.608 120.77 141.61 115.459 147.053 110.499L145.707 109.021C140.35 113.901 133.432 119.15 127.705 122.968L128.815 124.632ZM147.08 109.046L140.96 103.046L139.56 104.474L145.68 110.474L147.08 109.046Z" fill="#BA462D"/>
</g>
<defs>
<filter id="filter0_d" x="0.972229" y="1.52588e-05" width="182.028" height="222.259" filterUnits="userSpaceOnUse" color-interpolation-filters="sRGB">
<feFlood flood-opacity="0" result="BackgroundImageFix"/>
<feColorMatrix in="SourceAlpha" type="matrix" values="0 0 0 0 0 0 0 0 0 0 0 0 0 0 0 0 0 0 127 0"/>
<feOffset dy="4"/>
<feGaussianBlur stdDeviation="2"/>
<feColorMatrix type="matrix" values="0 0 0 0 0 0 0 0 0 0 0 0 0 0 0 0 0 0 0.25 0"/>
<feBlend mode="normal" in2="BackgroundImageFix" result="effect1_dropShadow"/>
<feBlend mode="normal" in="SourceGraphic" in2="effect1_dropShadow" result="shape"/>
</filter>
<filter id="filter1_b" x="1" y="7.25928" width="182" height="211" filterUnits="userSpaceOnUse" color-interpolation-filters="sRGB">
<feFlood flood-opacity="0" result="BackgroundImageFix"/>
<feGaussianBlur in="BackgroundImage" stdDeviation="2"/>
<feComposite in2="SourceAlpha" operator="in" result="effect1_backgroundBlur"/>
<feBlend mode="normal" in="SourceGraphic" in2="effect1_backgroundBlur" result="shape"/>
</filter>
<filter id="filter2_i" x="33.9685" y="41.68" width="117.331" height="116.029" filterUnits="userSpaceOnUse" color-interpolation-filters="sRGB">
<feFlood flood-opacity="0" result="BackgroundImageFix"/>
<feBlend mode="normal" in="SourceGraphic" in2="BackgroundImageFix" result="shape"/>
<feColorMatrix in="SourceAlpha" type="matrix" values="0 0 0 0 0 0 0 0 0 0 0 0 0 0 0 0 0 0 127 0" result="hardAlpha"/>
<feOffset dy="4"/>
<feGaussianBlur stdDeviation="2"/>
<feComposite in2="hardAlpha" operator="arithmetic" k2="-1" k3="1"/>
<feColorMatrix type="matrix" values="0 0 0 0 0 0 0 0 0 0 0 0 0 0 0 0 0 0 0.25 0"/>
<feBlend mode="normal" in2="shape" result="effect1_innerShadow"/>
</filter>
</defs>
</svg>
