<svg width="236" height="247" viewBox="0 0 236 247" fill="none" xmlns="http://www.w3.org/2000/svg">
<rect width="236" height="247" fill="#FF6262"/>
<g filter="url(#filter0_d)">
<g filter="url(#filter1_b)">
<path d="M17 31.4897L90 0L162 31.4897L177 216.741H2L17 31.4897Z" fill="#F5DA94"/>
<path d="M2.54212 216.241L17.4741 31.8297L89.9986 0.545129L161.526 31.828L176.458 216.241H2.54212Z" stroke="#F5DA94"/>
</g>
<rect x="2" y="216.741" width="175" height="11.2593" fill="#C5A05A"/>
<g filter="url(#filter2_i)">
<path d="M100.08 135.4V124H122.16V135.4H100.08ZM86.52 124V135.4H64.92C65.52 131.56 65.76 127.72 65.88 124H86.52ZM95.88 79.6C94.2 82.6 92.16 85.84 90.24 88.6H65.52C68.04 85.72 70.32 82.6 72.48 79.6H95.88ZM66 101.08H86.52V112H66V101.08ZM122.16 112H100.08V101.08H122.16V112ZM136.32 88.6H105.84C109.44 83.68 112.92 78.4 115.56 73.72L105.84 67.36L103.56 67.96H79.8C80.64 66.52 81.48 64.96 82.2 63.52L66.96 60.88C61.32 72.76 51 86.32 35.76 96.64C38.88 98.68 43.68 103.72 45.84 107.08C48 105.4 50.16 103.72 52.2 101.92V119.8C52.2 134.32 50.52 151.96 33.36 164.08C36.24 166 41.52 171.28 43.44 174.04C53.28 167.08 59.04 157.6 62.16 147.64H122.16V157.12C122.16 159.4 121.2 160.12 118.68 160.24C116.04 160.24 106.2 160.36 97.8 159.88C99.84 163.6 102.48 169.72 103.2 173.68C115.08 173.68 123.36 173.44 128.88 171.28C134.4 169 136.32 165.16 136.32 157.36V88.6Z" fill="black"/>
</g>
<path d="M100.08 135.4H99.08V136.4H100.08V135.4ZM100.08 124V123H99.08V124H100.08ZM122.16 124H123.16V123H122.16V124ZM122.16 135.4V136.4H123.16V135.4H122.16ZM86.52 124H87.52V123H86.52V124ZM86.52 135.4V136.4H87.52V135.4H86.52ZM64.92 135.4L63.932 135.246L63.7516 136.4H64.92V135.4ZM65.88 124V123H64.9117L64.8805 123.968L65.88 124ZM95.88 79.6L96.7525 80.0886L97.5861 78.6H95.88V79.6ZM90.24 88.6V89.6H90.7625L91.0609 89.1711L90.24 88.6ZM65.52 88.6L64.7674 87.9415L63.3162 89.6H65.52V88.6ZM72.48 79.6V78.6H71.9678L71.6685 79.0157L72.48 79.6ZM66 101.08V100.08H65V101.08H66ZM86.52 101.08H87.52V100.08H86.52V101.08ZM86.52 112V113H87.52V112H86.52ZM66 112H65V113H66V112ZM122.16 112V113H123.16V112H122.16ZM100.08 112H99.08V113H100.08V112ZM100.08 101.08V100.08H99.08V101.08H100.08ZM122.16 101.08H123.16V100.08H122.16V101.08ZM136.32 88.6H137.32V87.6H136.32V88.6ZM105.84 88.6L105.033 88.0095L103.869 89.6H105.84V88.6ZM115.56 73.72L116.431 74.2113L116.891 73.3958L116.108 72.8832L115.56 73.72ZM105.84 67.36L106.388 66.5232L106.015 66.2798L105.586 66.3929L105.84 67.36ZM103.56 67.96V68.96H103.689L103.814 68.9271L103.56 67.96ZM79.8 67.96L78.9362 67.4561L78.059 68.96H79.8V67.96ZM82.2 63.52L83.0944 63.9672L83.6959 62.7642L82.3707 62.5347L82.2 63.52ZM66.96 60.88L67.1307 59.8947L66.3824 59.765L66.0566 60.4511L66.96 60.88ZM35.76 96.64L35.1993 95.812L33.955 96.6546L35.2128 97.477L35.76 96.64ZM45.84 107.08L44.9988 107.621L45.5904 108.541L46.4539 107.869L45.84 107.08ZM52.2 101.92H53.2V99.704L51.5384 101.17L52.2 101.92ZM33.36 164.08L32.7831 163.263L31.5929 164.104L32.8053 164.912L33.36 164.08ZM43.44 174.04L42.6191 174.611L43.1946 175.438L44.0175 174.856L43.44 174.04ZM62.16 147.64V146.64H61.4253L61.2057 147.341L62.16 147.64ZM122.16 147.64H123.16V146.64H122.16V147.64ZM118.68 160.24V161.24H118.704L118.728 161.239L118.68 160.24ZM97.8 159.88L97.857 158.882L96.0556 158.779L96.9232 160.361L97.8 159.88ZM103.2 173.68L102.216 173.859L102.365 174.68H103.2V173.68ZM128.88 171.28L129.244 172.211L129.253 172.208L129.262 172.204L128.88 171.28ZM101.08 135.4V124H99.08V135.4H101.08ZM100.08 125H122.16V123H100.08V125ZM121.16 124V135.4H123.16V124H121.16ZM122.16 134.4H100.08V136.4H122.16V134.4ZM85.52 124V135.4H87.52V124H85.52ZM86.52 134.4H64.92V136.4H86.52V134.4ZM65.908 135.554C66.5171 131.657 66.7589 127.771 66.8795 124.032L64.8805 123.968C64.7611 127.669 64.5229 131.463 63.932 135.246L65.908 135.554ZM65.88 125H86.52V123H65.88V125ZM95.0075 79.1114C93.3441 82.0817 91.3215 85.2942 89.4191 88.0289L91.0609 89.1711C92.9985 86.3858 95.0559 83.1183 96.7525 80.0886L95.0075 79.1114ZM90.24 87.6H65.52V89.6H90.24V87.6ZM66.2726 89.2585C68.8273 86.3388 71.132 83.1836 73.2915 80.1843L71.6685 79.0157C69.508 82.0164 67.2527 85.1012 64.7674 87.9415L66.2726 89.2585ZM72.48 80.6H95.88V78.6H72.48V80.6ZM66 102.08H86.52V100.08H66V102.08ZM85.52 101.08V112H87.52V101.08H85.52ZM86.52 111H66V113H86.52V111ZM67 112V101.08H65V112H67ZM122.16 111H100.08V113H122.16V111ZM101.08 112V101.08H99.08V112H101.08ZM100.08 102.08H122.16V100.08H100.08V102.08ZM121.16 101.08V112H123.16V101.08H121.16ZM136.32 87.6H105.84V89.6H136.32V87.6ZM106.647 89.1905C110.264 84.2468 113.767 78.9333 116.431 74.2113L114.689 73.2287C112.073 77.8667 108.616 83.1132 105.033 88.0095L106.647 89.1905ZM116.108 72.8832L106.388 66.5232L105.292 68.1968L115.012 74.5568L116.108 72.8832ZM105.586 66.3929L103.306 66.9929L103.814 68.9271L106.094 68.3271L105.586 66.3929ZM103.56 66.96H79.8V68.96H103.56V66.96ZM80.6638 68.4639C81.5151 67.0045 82.3653 65.4255 83.0944 63.9672L81.3056 63.0728C80.5947 64.4945 79.7649 66.0355 78.9362 67.4561L80.6638 68.4639ZM82.3707 62.5347L67.1307 59.8947L66.7893 61.8653L82.0293 64.5053L82.3707 62.5347ZM66.0566 60.4511C60.4874 72.1822 50.2806 85.5994 35.1993 95.812L36.3207 97.468C51.7194 87.0406 62.1526 73.3378 67.8634 61.3089L66.0566 60.4511ZM35.2128 97.477C36.6807 98.4368 38.6002 100.145 40.4391 102.058C42.2737 103.967 43.9664 106.015 44.9988 107.621L46.6812 106.539C45.5536 104.785 43.7663 102.633 41.8809 100.672C39.9998 98.715 37.9593 96.8832 36.3072 95.803L35.2128 97.477ZM46.4539 107.869C48.6097 106.193 50.7945 104.494 52.8616 102.67L51.5384 101.17C49.5255 102.946 47.3903 104.607 45.2261 106.291L46.4539 107.869ZM51.2 101.92V119.8H53.2V101.92H51.2ZM51.2 119.8C51.2 134.267 49.5143 151.446 32.7831 163.263L33.9369 164.897C51.5257 152.474 53.2 134.373 53.2 119.8H51.2ZM32.8053 164.912C34.1628 165.817 36.1477 167.562 38.0557 169.455C39.9622 171.347 41.7113 173.306 42.6191 174.611L44.2609 173.469C43.2487 172.014 41.3978 169.953 39.4643 168.035C37.5323 166.118 35.4372 164.263 33.9147 163.248L32.8053 164.912ZM44.0175 174.856C54.07 167.746 59.9422 158.065 63.1143 147.939L61.2057 147.341C58.1378 157.135 52.49 166.414 42.8625 173.224L44.0175 174.856ZM62.16 148.64H122.16V146.64H62.16V148.64ZM121.16 147.64V157.12H123.16V147.64H121.16ZM121.16 157.12C121.16 158.147 120.94 158.535 120.711 158.734C120.428 158.978 119.86 159.183 118.632 159.241L118.728 161.239C120.02 161.177 121.192 160.962 122.019 160.246C122.9 159.485 123.16 158.373 123.16 157.12H121.16ZM118.68 159.24C116.021 159.24 106.22 159.36 97.857 158.882L97.7429 160.878C106.18 161.36 116.059 161.24 118.68 161.24V159.24ZM96.9232 160.361C98.943 164.044 101.524 170.054 102.216 173.859L104.184 173.501C103.436 169.386 100.737 163.156 98.6768 159.399L96.9232 160.361ZM103.2 174.68C109.139 174.68 114.214 174.62 118.503 174.287C122.785 173.954 126.349 173.344 129.244 172.211L128.516 170.349C125.891 171.376 122.555 171.966 118.348 172.293C114.146 172.62 109.141 172.68 103.2 172.68V174.68ZM129.262 172.204C132.182 170.998 134.25 169.331 135.555 166.856C136.837 164.423 137.32 161.32 137.32 157.36H135.32C135.32 161.2 134.843 163.917 133.785 165.924C132.75 167.889 131.098 169.282 128.498 170.356L129.262 172.204ZM137.32 157.36V88.6H135.32V157.36H137.32Z" fill="black"/>
</g>
<defs>
<filter id="filter0_d" x="2" y="0" width="194" height="247" filterUnits="userSpaceOnUse" color-interpolation-filters="sRGB">
<feFlood flood-opacity="0" result="BackgroundImageFix"/>
<feColorMatrix in="SourceAlpha" type="matrix" values="0 0 0 0 0 0 0 0 0 0 0 0 0 0 0 0 0 0 127 0"/>
<feOffset dx="15" dy="15"/>
<feGaussianBlur stdDeviation="2"/>
<feColorMatrix type="matrix" values="0 0 0 0 0 0 0 0 0 0 0 0 0 0 0 0 0 0 0.5 0"/>
<feBlend mode="normal" in2="BackgroundImageFix" result="effect1_dropShadow"/>
<feBlend mode="normal" in="SourceGraphic" in2="effect1_dropShadow" result="shape"/>
</filter>
<filter id="filter1_b" x="-2" y="-4" width="183" height="224.741" filterUnits="userSpaceOnUse" color-interpolation-filters="sRGB">
<feFlood flood-opacity="0" result="BackgroundImageFix"/>
<feGaussianBlur in="BackgroundImage" stdDeviation="2"/>
<feComposite in2="SourceAlpha" operator="in" result="effect1_backgroundBlur"/>
<feBlend mode="normal" in="SourceGraphic" in2="effect1_backgroundBlur" result="shape"/>
</filter>
<filter id="filter2_i" x="31.593" y="59.7651" width="105.727" height="119.673" filterUnits="userSpaceOnUse" color-interpolation-filters="sRGB">
<feFlood flood-opacity="0" result="BackgroundImageFix"/>
<feBlend mode="normal" in="SourceGraphic" in2="BackgroundImageFix" result="shape"/>
<feColorMatrix in="SourceAlpha" type="matrix" values="0 0 0 0 0 0 0 0 0 0 0 0 0 0 0 0 0 0 127 0" result="hardAlpha"/>
<feOffset dy="4"/>
<feGaussianBlur stdDeviation="2"/>
<feComposite in2="hardAlpha" operator="arithmetic" k2="-1" k3="1"/>
<feColorMatrix type="matrix" values="0 0 0 0 0 0 0 0 0 0 0 0 0 0 0 0 0 0 0.25 0"/>
<feBlend mode="normal" in2="shape" result="effect1_innerShadow"/>
</filter>
</defs>
</svg>
