<svg width="236" height="247" viewBox="0 0 236 247" fill="none" xmlns="http://www.w3.org/2000/svg">
<rect width="236" height="247" fill="#FF6262"/>
<g filter="url(#filter0_d)">
<g filter="url(#filter1_b)">
<path d="M45 41.4897L118 10L190 41.4897L205 226.741H30L45 41.4897Z" fill="#F5DA94"/>
<path d="M30.5421 226.241L45.4741 41.8297L117.999 10.5451L189.526 41.828L204.458 226.241H30.5421Z" stroke="#F5DA94"/>
</g>
<rect x="30" y="226.741" width="175" height="11.2593" fill="#C5A05A"/>
<g filter="url(#filter2_i)">
<path d="M128.08 145.4V134H150.16V145.4H128.08ZM114.52 134V145.4H92.92C93.52 141.56 93.76 137.72 93.88 134H114.52ZM123.88 89.6C122.2 92.6 120.16 95.84 118.24 98.6H93.52C96.04 95.72 98.32 92.6 100.48 89.6H123.88ZM94 111.08H114.52V122H94V111.08ZM150.16 122H128.08V111.08H150.16V122ZM164.32 98.6H133.84C137.44 93.68 140.92 88.4 143.56 83.72L133.84 77.36L131.56 77.96H107.8C108.64 76.52 109.48 74.96 110.2 73.52L94.96 70.88C89.32 82.76 79 96.32 63.76 106.64C66.88 108.68 71.68 113.72 73.84 117.08C76 115.4 78.16 113.72 80.2 111.92V129.8C80.2 144.32 78.52 161.96 61.36 174.08C64.24 176 69.52 181.28 71.44 184.04C81.28 177.08 87.04 167.6 90.16 157.64H150.16V167.12C150.16 169.4 149.2 170.12 146.68 170.24C144.04 170.24 134.2 170.36 125.8 169.88C127.84 173.6 130.48 179.72 131.2 183.68C143.08 183.68 151.36 183.44 156.88 181.28C162.4 179 164.32 175.16 164.32 167.36V98.6Z" fill="black"/>
</g>
<path d="M128.08 145.4H127.08V146.4H128.08V145.4ZM128.08 134V133H127.08V134H128.08ZM150.16 134H151.16V133H150.16V134ZM150.16 145.4V146.4H151.16V145.4H150.16ZM114.52 134H115.52V133H114.52V134ZM114.52 145.4V146.4H115.52V145.4H114.52ZM92.92 145.4L91.932 145.246L91.7516 146.4H92.92V145.4ZM93.88 134V133H92.9117L92.8805 133.968L93.88 134ZM123.88 89.6L124.753 90.0886L125.586 88.6H123.88V89.6ZM118.24 98.6V99.6H118.763L119.061 99.1711L118.24 98.6ZM93.52 98.6L92.7674 97.9415L91.3162 99.6H93.52V98.6ZM100.48 89.6V88.6H99.9678L99.6685 89.0157L100.48 89.6ZM94 111.08V110.08H93V111.08H94ZM114.52 111.08H115.52V110.08H114.52V111.08ZM114.52 122V123H115.52V122H114.52ZM94 122H93V123H94V122ZM150.16 122V123H151.16V122H150.16ZM128.08 122H127.08V123H128.08V122ZM128.08 111.08V110.08H127.08V111.08H128.08ZM150.16 111.08H151.16V110.08H150.16V111.08ZM164.32 98.6H165.32V97.6H164.32V98.6ZM133.84 98.6L133.033 98.0095L131.869 99.6H133.84V98.6ZM143.56 83.72L144.431 84.2113L144.891 83.3958L144.108 82.8832L143.56 83.72ZM133.84 77.36L134.388 76.5232L134.015 76.2798L133.586 76.3929L133.84 77.36ZM131.56 77.96V78.96H131.689L131.814 78.9271L131.56 77.96ZM107.8 77.96L106.936 77.4561L106.059 78.96H107.8V77.96ZM110.2 73.52L111.094 73.9672L111.696 72.7642L110.371 72.5347L110.2 73.52ZM94.96 70.88L95.1307 69.8947L94.3824 69.765L94.0566 70.4511L94.96 70.88ZM63.76 106.64L63.1993 105.812L61.955 106.655L63.2128 107.477L63.76 106.64ZM73.84 117.08L72.9988 117.621L73.5904 118.541L74.4539 117.869L73.84 117.08ZM80.2 111.92H81.2V109.704L79.5384 111.17L80.2 111.92ZM61.36 174.08L60.7831 173.263L59.5929 174.104L60.8053 174.912L61.36 174.08ZM71.44 184.04L70.6191 184.611L71.1946 185.438L72.0175 184.856L71.44 184.04ZM90.16 157.64V156.64H89.4253L89.2057 157.341L90.16 157.64ZM150.16 157.64H151.16V156.64H150.16V157.64ZM146.68 170.24V171.24H146.704L146.728 171.239L146.68 170.24ZM125.8 169.88L125.857 168.882L124.056 168.779L124.923 170.361L125.8 169.88ZM131.2 183.68L130.216 183.859L130.365 184.68H131.2V183.68ZM156.88 181.28L157.244 182.211L157.253 182.208L157.262 182.204L156.88 181.28ZM129.08 145.4V134H127.08V145.4H129.08ZM128.08 135H150.16V133H128.08V135ZM149.16 134V145.4H151.16V134H149.16ZM150.16 144.4H128.08V146.4H150.16V144.4ZM113.52 134V145.4H115.52V134H113.52ZM114.52 144.4H92.92V146.4H114.52V144.4ZM93.908 145.554C94.5171 141.657 94.7589 137.771 94.8795 134.032L92.8805 133.968C92.7611 137.669 92.5229 141.463 91.932 145.246L93.908 145.554ZM93.88 135H114.52V133H93.88V135ZM123.007 89.1114C121.344 92.0817 119.322 95.2942 117.419 98.0289L119.061 99.1711C120.998 96.3858 123.056 93.1183 124.753 90.0886L123.007 89.1114ZM118.24 97.6H93.52V99.6H118.24V97.6ZM94.2726 99.2585C96.8273 96.3388 99.132 93.1836 101.292 90.1843L99.6685 89.0157C97.508 92.0164 95.2527 95.1012 92.7674 97.9415L94.2726 99.2585ZM100.48 90.6H123.88V88.6H100.48V90.6ZM94 112.08H114.52V110.08H94V112.08ZM113.52 111.08V122H115.52V111.08H113.52ZM114.52 121H94V123H114.52V121ZM95 122V111.08H93V122H95ZM150.16 121H128.08V123H150.16V121ZM129.08 122V111.08H127.08V122H129.08ZM128.08 112.08H150.16V110.08H128.08V112.08ZM149.16 111.08V122H151.16V111.08H149.16ZM164.32 97.6H133.84V99.6H164.32V97.6ZM134.647 99.1905C138.264 94.2468 141.767 88.9333 144.431 84.2113L142.689 83.2287C140.073 87.8667 136.616 93.1132 133.033 98.0095L134.647 99.1905ZM144.108 82.8832L134.388 76.5232L133.292 78.1968L143.012 84.5568L144.108 82.8832ZM133.586 76.3929L131.306 76.9929L131.814 78.9271L134.094 78.3271L133.586 76.3929ZM131.56 76.96H107.8V78.96H131.56V76.96ZM108.664 78.4639C109.515 77.0045 110.365 75.4255 111.094 73.9672L109.306 73.0728C108.595 74.4945 107.765 76.0355 106.936 77.4561L108.664 78.4639ZM110.371 72.5347L95.1307 69.8947L94.7893 71.8653L110.029 74.5053L110.371 72.5347ZM94.0566 70.4511C88.4874 82.1822 78.2806 95.5994 63.1993 105.812L64.3207 107.468C79.7194 97.0406 90.1526 83.3378 95.8634 71.3089L94.0566 70.4511ZM63.2128 107.477C64.6807 108.437 66.6002 110.145 68.4391 112.058C70.2737 113.967 71.9664 116.015 72.9988 117.621L74.6812 116.539C73.5536 114.785 71.7663 112.633 69.8809 110.672C67.9998 108.715 65.9593 106.883 64.3072 105.803L63.2128 107.477ZM74.4539 117.869C76.6097 116.193 78.7945 114.494 80.8616 112.67L79.5384 111.17C77.5255 112.946 75.3903 114.607 73.2261 116.291L74.4539 117.869ZM79.2 111.92V129.8H81.2V111.92H79.2ZM79.2 129.8C79.2 144.267 77.5143 161.446 60.7831 173.263L61.9369 174.897C79.5257 162.474 81.2 144.373 81.2 129.8H79.2ZM60.8053 174.912C62.1628 175.817 64.1477 177.562 66.0557 179.455C67.9622 181.347 69.7113 183.306 70.6191 184.611L72.2609 183.469C71.2487 182.014 69.3978 179.953 67.4643 178.035C65.5323 176.118 63.4372 174.263 61.9147 173.248L60.8053 174.912ZM72.0175 184.856C82.07 177.746 87.9422 168.065 91.1143 157.939L89.2057 157.341C86.1378 167.135 80.49 176.414 70.8625 183.224L72.0175 184.856ZM90.16 158.64H150.16V156.64H90.16V158.64ZM149.16 157.64V167.12H151.16V157.64H149.16ZM149.16 167.12C149.16 168.147 148.94 168.535 148.711 168.734C148.428 168.978 147.86 169.183 146.632 169.241L146.728 171.239C148.02 171.177 149.192 170.962 150.019 170.246C150.9 169.485 151.16 168.373 151.16 167.12H149.16ZM146.68 169.24C144.021 169.24 134.22 169.36 125.857 168.882L125.743 170.878C134.18 171.36 144.059 171.24 146.68 171.24V169.24ZM124.923 170.361C126.943 174.044 129.524 180.054 130.216 183.859L132.184 183.501C131.436 179.386 128.737 173.156 126.677 169.399L124.923 170.361ZM131.2 184.68C137.139 184.68 142.214 184.62 146.503 184.287C150.785 183.954 154.349 183.344 157.244 182.211L156.516 180.349C153.891 181.376 150.555 181.966 146.348 182.293C142.146 182.62 137.141 182.68 131.2 182.68V184.68ZM157.262 182.204C160.182 180.998 162.25 179.331 163.555 176.856C164.837 174.423 165.32 171.32 165.32 167.36H163.32C163.32 171.2 162.843 173.917 161.785 175.924C160.75 177.889 159.098 179.282 156.498 180.356L157.262 182.204ZM165.32 167.36V98.6H163.32V167.36H165.32Z" fill="black"/>
</g>
<defs>
<filter id="filter0_d" x="26" y="10" width="183" height="236" filterUnits="userSpaceOnUse" color-interpolation-filters="sRGB">
<feFlood flood-opacity="0" result="BackgroundImageFix"/>
<feColorMatrix in="SourceAlpha" type="matrix" values="0 0 0 0 0 0 0 0 0 0 0 0 0 0 0 0 0 0 127 0"/>
<feOffset dy="4"/>
<feGaussianBlur stdDeviation="2"/>
<feColorMatrix type="matrix" values="0 0 0 0 0 0 0 0 0 0 0 0 0 0 0 0 0 0 0.25 0"/>
<feBlend mode="normal" in2="BackgroundImageFix" result="effect1_dropShadow"/>
<feBlend mode="normal" in="SourceGraphic" in2="effect1_dropShadow" result="shape"/>
</filter>
<filter id="filter1_b" x="26" y="6" width="183" height="224.741" filterUnits="userSpaceOnUse" color-interpolation-filters="sRGB">
<feFlood flood-opacity="0" result="BackgroundImageFix"/>
<feGaussianBlur in="BackgroundImage" stdDeviation="2"/>
<feComposite in2="SourceAlpha" operator="in" result="effect1_backgroundBlur"/>
<feBlend mode="normal" in="SourceGraphic" in2="effect1_backgroundBlur" result="shape"/>
</filter>
<filter id="filter2_i" x="59.5929" y="69.7651" width="105.727" height="119.673" filterUnits="userSpaceOnUse" color-interpolation-filters="sRGB">
<feFlood flood-opacity="0" result="BackgroundImageFix"/>
<feBlend mode="normal" in="SourceGraphic" in2="BackgroundImageFix" result="shape"/>
<feColorMatrix in="SourceAlpha" type="matrix" values="0 0 0 0 0 0 0 0 0 0 0 0 0 0 0 0 0 0 127 0" result="hardAlpha"/>
<feOffset dy="4"/>
<feGaussianBlur stdDeviation="2"/>
<feComposite in2="hardAlpha" operator="arithmetic" k2="-1" k3="1"/>
<feColorMatrix type="matrix" values="0 0 0 0 0 0 0 0 0 0 0 0 0 0 0 0 0 0 0.25 0"/>
<feBlend mode="normal" in2="shape" result="effect1_innerShadow"/>
</filter>
</defs>
</svg>
