<svg width="236" height="247" viewBox="0 0 236 247" fill="none" xmlns="http://www.w3.org/2000/svg">
<rect width="236" height="247" fill="#FDF1DB"/>
<g filter="url(#filter0_d)">
<g filter="url(#filter1_b)">
<path d="M45 41.4897L118 10L190 41.4897L205 226.741H30L45 41.4897Z" fill="#F5DA94"/>
<path d="M30.5421 226.241L45.4741 41.8297L117.999 10.5451L189.526 41.828L204.458 226.241H30.5421Z" stroke="#F5DA94"/>
</g>
<rect x="30" y="226.741" width="175" height="11.2593" fill="#C5A05A"/>
<g filter="url(#filter2_i)">
<path d="M121.96 168.68V130.64H160.96V121.88H121.96V89.24H165.64V80.48H70.6V89.24H112.6V121.88H75.64V130.64H112.6V168.68H64.72V177.44H171.52V168.68H121.96ZM132.88 141.32C140.32 148.28 149.92 158 154.72 163.76L161.44 157.88C156.52 152.24 146.68 143 139.24 136.28L132.88 141.32Z" fill="#3F3C31"/>
</g>
<path d="M121.96 168.68H120.96V169.68H121.96V168.68ZM121.96 130.64V129.64H120.96V130.64H121.96ZM160.96 130.64V131.64H161.96V130.64H160.96ZM160.96 121.88H161.96V120.88H160.96V121.88ZM121.96 121.88H120.96V122.88H121.96V121.88ZM121.96 89.24V88.24H120.96V89.24H121.96ZM165.64 89.24V90.24H166.64V89.24H165.64ZM165.64 80.48H166.64V79.48H165.64V80.48ZM70.6 80.48V79.48H69.6V80.48H70.6ZM70.6 89.24H69.6V90.24H70.6V89.24ZM112.6 89.24H113.6V88.24H112.6V89.24ZM112.6 121.88V122.88H113.6V121.88H112.6ZM75.64 121.88V120.88H74.64V121.88H75.64ZM75.64 130.64H74.64V131.64H75.64V130.64ZM112.6 130.64H113.6V129.64H112.6V130.64ZM112.6 168.68V169.68H113.6V168.68H112.6ZM64.72 168.68V167.68H63.72V168.68H64.72ZM64.72 177.44H63.72V178.44H64.72V177.44ZM171.52 177.44V178.44H172.52V177.44H171.52ZM171.52 168.68H172.52V167.68H171.52V168.68ZM132.88 141.32L132.259 140.536L131.349 141.257L132.197 142.05L132.88 141.32ZM154.72 163.76L153.952 164.4L154.608 165.187L155.379 164.513L154.72 163.76ZM161.44 157.88L162.099 158.633L162.85 157.975L162.194 157.223L161.44 157.88ZM139.24 136.28L139.91 135.538L139.282 134.971L138.619 135.496L139.24 136.28ZM122.96 168.68V130.64H120.96V168.68H122.96ZM121.96 131.64H160.96V129.64H121.96V131.64ZM161.96 130.64V121.88H159.96V130.64H161.96ZM160.96 120.88H121.96V122.88H160.96V120.88ZM122.96 121.88V89.24H120.96V121.88H122.96ZM121.96 90.24H165.64V88.24H121.96V90.24ZM166.64 89.24V80.48H164.64V89.24H166.64ZM165.64 79.48H70.6V81.48H165.64V79.48ZM69.6 80.48V89.24H71.6V80.48H69.6ZM70.6 90.24H112.6V88.24H70.6V90.24ZM111.6 89.24V121.88H113.6V89.24H111.6ZM112.6 120.88H75.64V122.88H112.6V120.88ZM74.64 121.88V130.64H76.64V121.88H74.64ZM75.64 131.64H112.6V129.64H75.64V131.64ZM111.6 130.64V168.68H113.6V130.64H111.6ZM112.6 167.68H64.72V169.68H112.6V167.68ZM63.72 168.68V177.44H65.72V168.68H63.72ZM64.72 178.44H171.52V176.44H64.72V178.44ZM172.52 177.44V168.68H170.52V177.44H172.52ZM171.52 167.68H121.96V169.68H171.52V167.68ZM132.197 142.05C139.626 149 149.191 158.687 153.952 164.4L155.488 163.12C150.649 157.313 141.014 147.56 133.563 140.59L132.197 142.05ZM155.379 164.513L162.099 158.633L160.782 157.127L154.062 163.007L155.379 164.513ZM162.194 157.223C157.229 151.531 147.346 142.254 139.91 135.538L138.57 137.022C146.014 143.746 155.811 152.949 160.686 158.537L162.194 157.223ZM138.619 135.496L132.259 140.536L133.501 142.104L139.861 137.064L138.619 135.496Z" fill="#3F3C31"/>
</g>
<rect width="236" height="247" fill="#FF6262"/>
<g filter="url(#filter3_d)">
<g filter="url(#filter4_b)">
<path d="M45.9143 46.4933L118.497 17L190.086 46.4933L205 220H31L45.9143 46.4933Z" fill="#F5DA94"/>
<path d="M31.5448 219.5L46.3862 46.8413L118.496 17.5402L189.614 46.8396L204.455 219.5H31.5448Z" stroke="#F5DA94"/>
</g>
<rect x="31" y="220" width="174.028" height="11.2593" fill="#C5A05A"/>
<g filter="url(#filter5_i)">
<path d="M109.34 143.72V167.72H93.14L102.98 163.52C101.18 158 96.5 149.84 91.94 143.72H109.34ZM95.78 107.12C104.42 99.92 111.86 92.12 117.02 84.92C122.3 92.12 130.22 99.92 139.1 107.12H95.78ZM141.02 143.72C138.38 150.08 133.58 158.84 129.62 164.48L137.42 167.72H124.34V143.72H161.3V131.48H124.34V119.6H147.26V113.36C153.26 117.68 159.5 121.64 165.5 124.76C168.14 120.32 171.38 115.52 174.98 111.92C156.02 104.24 136.7 89.12 123.74 71H108.98C100.1 85.4 80.9 103.4 60.5 113.36C63.62 116.36 67.58 121.52 69.38 124.88C75.5 121.64 81.62 117.8 87.26 113.72V119.6H109.34V131.48H72.86V143.72H91.22L80.3 148.4C84.5 154.28 88.46 162.32 90.26 167.72H66.86V179.96H168.38V167.72H141.26C145.46 162.68 150.14 155.36 154.7 148.76L141.02 143.72Z" fill="black"/>
</g>
<path d="M109.34 143.72H110.34V142.72H109.34V143.72ZM109.34 167.72V168.72H110.34V167.72H109.34ZM93.14 167.72L92.7474 166.8L93.14 168.72V167.72ZM102.98 163.52L103.373 164.44L104.215 164.08L103.931 163.21L102.98 163.52ZM91.94 143.72V142.72H89.9478L91.1381 144.317L91.94 143.72ZM95.78 107.12L95.1398 106.352L93.018 108.12H95.78V107.12ZM117.02 84.92L117.826 84.3286L117.011 83.2163L116.207 84.3375L117.02 84.92ZM139.1 107.12V108.12H141.921L139.73 106.343L139.1 107.12ZM141.02 143.72L141.366 142.782L140.465 142.45L140.096 143.337L141.02 143.72ZM129.62 164.48L128.802 163.905L128.085 164.925L129.236 165.403L129.62 164.48ZM137.42 167.72V168.72L137.804 166.797L137.42 167.72ZM124.34 167.72H123.34V168.72H124.34V167.72ZM124.34 143.72V142.72H123.34V143.72H124.34ZM161.3 143.72V144.72H162.3V143.72H161.3ZM161.3 131.48H162.3V130.48H161.3V131.48ZM124.34 131.48H123.34V132.48H124.34V131.48ZM124.34 119.6V118.6H123.34V119.6H124.34ZM147.26 119.6V120.6H148.26V119.6H147.26ZM147.26 113.36L147.844 112.548L146.26 111.408V113.36H147.26ZM165.5 124.76L165.039 125.647L165.877 126.083L166.36 125.271L165.5 124.76ZM174.98 111.92L175.687 112.627L176.754 111.56L175.355 110.993L174.98 111.92ZM123.74 71L124.553 70.4182L124.254 70H123.74V71ZM108.98 71V70H108.422L108.129 70.4751L108.98 71ZM60.5 113.36L60.0613 112.461L58.7755 113.089L59.8069 114.081L60.5 113.36ZM69.38 124.88L68.4985 125.352L68.9684 126.229L69.8479 125.764L69.38 124.88ZM87.26 113.72H88.26V111.762L86.6739 112.91L87.26 113.72ZM87.26 119.6H86.26V120.6H87.26V119.6ZM109.34 119.6H110.34V118.6H109.34V119.6ZM109.34 131.48V132.48H110.34V131.48H109.34ZM72.86 131.48V130.48H71.86V131.48H72.86ZM72.86 143.72H71.86V144.72H72.86V143.72ZM91.22 143.72L91.6139 144.639L91.22 142.72V143.72ZM80.3 148.4L79.9061 147.481L78.7641 147.97L79.4863 148.981L80.3 148.4ZM90.26 167.72V168.72H91.6474L91.2087 167.404L90.26 167.72ZM66.86 167.72V166.72H65.86V167.72H66.86ZM66.86 179.96H65.86V180.96H66.86V179.96ZM168.38 179.96V180.96H169.38V179.96H168.38ZM168.38 167.72H169.38V166.72H168.38V167.72ZM141.26 167.72L140.492 167.08L139.125 168.72H141.26V167.72ZM154.7 148.76L155.523 149.328L156.256 148.267L155.046 147.822L154.7 148.76ZM108.34 143.72V167.72H110.34V143.72H108.34ZM109.34 166.72H93.14V168.72H109.34V166.72ZM93.5326 168.64L103.373 164.44L102.587 162.6L92.7474 166.8L93.5326 168.64ZM103.931 163.21C102.084 157.547 97.3361 149.288 92.7419 143.123L91.1381 144.317C95.6639 150.392 100.276 158.453 102.029 163.83L103.931 163.21ZM91.94 144.72H109.34V142.72H91.94V144.72ZM96.4202 107.888C105.11 100.647 112.613 92.7859 117.833 85.5025L116.207 84.3375C111.107 91.4541 103.73 99.1934 95.1398 106.352L96.4202 107.888ZM116.214 85.5114C121.562 92.8043 129.551 100.665 138.47 107.897L139.73 106.343C130.889 99.1747 123.038 91.4357 117.826 84.3286L116.214 85.5114ZM139.1 106.12H95.78V108.12H139.1V106.12ZM140.096 143.337C137.484 149.63 132.719 158.326 128.802 163.905L130.438 165.055C134.441 159.354 139.276 150.53 141.944 144.103L140.096 143.337ZM129.236 165.403L137.036 168.643L137.804 166.797L130.004 163.557L129.236 165.403ZM137.42 166.72H124.34V168.72H137.42V166.72ZM125.34 167.72V143.72H123.34V167.72H125.34ZM124.34 144.72H161.3V142.72H124.34V144.72ZM162.3 143.72V131.48H160.3V143.72H162.3ZM161.3 130.48H124.34V132.48H161.3V130.48ZM125.34 131.48V119.6H123.34V131.48H125.34ZM124.34 120.6H147.26V118.6H124.34V120.6ZM148.26 119.6V113.36H146.26V119.6H148.26ZM146.676 114.172C152.705 118.513 158.986 122.5 165.039 125.647L165.961 123.873C160.014 120.78 153.815 116.847 147.844 112.548L146.676 114.172ZM166.36 125.271C168.986 120.855 172.175 116.139 175.687 112.627L174.273 111.213C170.585 114.901 167.295 119.785 164.64 124.249L166.36 125.271ZM175.355 110.993C156.576 103.386 137.406 88.3884 124.553 70.4182L122.927 71.5817C135.994 89.8516 155.464 105.094 174.605 112.847L175.355 110.993ZM123.74 70H108.98V72H123.74V70ZM108.129 70.4751C99.3539 84.7048 80.3012 102.58 60.0613 112.461L60.9387 114.259C81.4988 104.22 100.846 86.0952 109.831 71.5249L108.129 70.4751ZM59.8069 114.081C62.8591 117.016 66.7527 122.093 68.4985 125.352L70.2615 124.408C68.4073 120.947 64.3809 115.704 61.1931 112.639L59.8069 114.081ZM69.8479 125.764C76.0113 122.501 82.1707 118.636 87.8461 114.53L86.6739 112.91C81.0693 116.964 74.9887 120.779 68.9121 123.996L69.8479 125.764ZM86.26 113.72V119.6H88.26V113.72H86.26ZM87.26 120.6H109.34V118.6H87.26V120.6ZM108.34 119.6V131.48H110.34V119.6H108.34ZM109.34 130.48H72.86V132.48H109.34V130.48ZM71.86 131.48V143.72H73.86V131.48H71.86ZM72.86 144.72H91.22V142.72H72.86V144.72ZM90.8261 142.801L79.9061 147.481L80.6939 149.319L91.6139 144.639L90.8261 142.801ZM79.4863 148.981C83.628 154.78 87.5427 162.73 89.3113 168.036L91.2087 167.404C89.3773 161.91 85.372 153.78 81.1137 147.819L79.4863 148.981ZM90.26 166.72H66.86V168.72H90.26V166.72ZM65.86 167.72V179.96H67.86V167.72H65.86ZM66.86 180.96H168.38V178.96H66.86V180.96ZM169.38 179.96V167.72H167.38V179.96H169.38ZM168.38 166.72H141.26V168.72H168.38V166.72ZM142.028 168.36C146.267 163.274 150.998 155.877 155.523 149.328L153.877 148.192C149.282 154.843 144.653 162.086 140.492 167.08L142.028 168.36ZM155.046 147.822L141.366 142.782L140.674 144.658L154.354 149.698L155.046 147.822Z" fill="black"/>
</g>
<defs>
<filter id="filter0_d" x="26" y="10" width="183" height="236" filterUnits="userSpaceOnUse" color-interpolation-filters="sRGB">
<feFlood flood-opacity="0" result="BackgroundImageFix"/>
<feColorMatrix in="SourceAlpha" type="matrix" values="0 0 0 0 0 0 0 0 0 0 0 0 0 0 0 0 0 0 127 0"/>
<feOffset dy="4"/>
<feGaussianBlur stdDeviation="2"/>
<feColorMatrix type="matrix" values="0 0 0 0 0 0 0 0 0 0 0 0 0 0 0 0 0 0 0.25 0"/>
<feBlend mode="normal" in2="BackgroundImageFix" result="effect1_dropShadow"/>
<feBlend mode="normal" in="SourceGraphic" in2="effect1_dropShadow" result="shape"/>
</filter>
<filter id="filter1_b" x="26" y="6" width="183" height="224.741" filterUnits="userSpaceOnUse" color-interpolation-filters="sRGB">
<feFlood flood-opacity="0" result="BackgroundImageFix"/>
<feGaussianBlur in="BackgroundImage" stdDeviation="2"/>
<feComposite in2="SourceAlpha" operator="in" result="effect1_backgroundBlur"/>
<feBlend mode="normal" in="SourceGraphic" in2="effect1_backgroundBlur" result="shape"/>
</filter>
<filter id="filter2_i" x="63.72" y="79.48" width="108.8" height="102.96" filterUnits="userSpaceOnUse" color-interpolation-filters="sRGB">
<feFlood flood-opacity="0" result="BackgroundImageFix"/>
<feBlend mode="normal" in="SourceGraphic" in2="BackgroundImageFix" result="shape"/>
<feColorMatrix in="SourceAlpha" type="matrix" values="0 0 0 0 0 0 0 0 0 0 0 0 0 0 0 0 0 0 127 0" result="hardAlpha"/>
<feOffset dy="4"/>
<feGaussianBlur stdDeviation="2"/>
<feComposite in2="hardAlpha" operator="arithmetic" k2="-1" k3="1"/>
<feColorMatrix type="matrix" values="0 0 0 0 0 0 0 0 0 0 0 0 0 0 0 0 0 0 0.25 0"/>
<feBlend mode="normal" in2="shape" result="effect1_innerShadow"/>
</filter>
<filter id="filter3_d" x="27" y="17" width="182.028" height="222.259" filterUnits="userSpaceOnUse" color-interpolation-filters="sRGB">
<feFlood flood-opacity="0" result="BackgroundImageFix"/>
<feColorMatrix in="SourceAlpha" type="matrix" values="0 0 0 0 0 0 0 0 0 0 0 0 0 0 0 0 0 0 127 0"/>
<feOffset dy="4"/>
<feGaussianBlur stdDeviation="2"/>
<feColorMatrix type="matrix" values="0 0 0 0 0 0 0 0 0 0 0 0 0 0 0 0 0 0 0.25 0"/>
<feBlend mode="normal" in2="BackgroundImageFix" result="effect1_dropShadow"/>
<feBlend mode="normal" in="SourceGraphic" in2="effect1_dropShadow" result="shape"/>
</filter>
<filter id="filter4_b" x="27" y="13" width="182" height="211" filterUnits="userSpaceOnUse" color-interpolation-filters="sRGB">
<feFlood flood-opacity="0" result="BackgroundImageFix"/>
<feGaussianBlur in="BackgroundImage" stdDeviation="2"/>
<feComposite in2="SourceAlpha" operator="in" result="effect1_backgroundBlur"/>
<feBlend mode="normal" in="SourceGraphic" in2="effect1_backgroundBlur" result="shape"/>
</filter>
<filter id="filter5_i" x="58.7755" y="70" width="117.979" height="114.96" filterUnits="userSpaceOnUse" color-interpolation-filters="sRGB">
<feFlood flood-opacity="0" result="BackgroundImageFix"/>
<feBlend mode="normal" in="SourceGraphic" in2="BackgroundImageFix" result="shape"/>
<feColorMatrix in="SourceAlpha" type="matrix" values="0 0 0 0 0 0 0 0 0 0 0 0 0 0 0 0 0 0 127 0" result="hardAlpha"/>
<feOffset dy="4"/>
<feGaussianBlur stdDeviation="2"/>
<feComposite in2="hardAlpha" operator="arithmetic" k2="-1" k3="1"/>
<feColorMatrix type="matrix" values="0 0 0 0 0 0 0 0 0 0 0 0 0 0 0 0 0 0 0.25 0"/>
<feBlend mode="normal" in2="shape" result="effect1_innerShadow"/>
</filter>
</defs>
</svg>
