<svg width="238" height="247" viewBox="0 0 238 247" fill="none" xmlns="http://www.w3.org/2000/svg">
<rect x="2" width="236" height="247" fill="#FDF1DB"/>
<g filter="url(#filter0_d)">
<g filter="url(#filter1_b)">
<path d="M47 41.4897L120 10L192 41.4897L207 226.741H32L47 41.4897Z" fill="#F5DA94"/>
<path d="M32.5421 226.241L47.4741 41.8297L119.999 10.5451L191.526 41.828L206.458 226.241H32.5421Z" stroke="#F5DA94"/>
</g>
<rect x="32" y="226.741" width="175" height="11.2593" fill="#C5A05A"/>
<g filter="url(#filter2_i)">
<path d="M123.96 168.68V130.64H162.96V121.88H123.96V89.24H167.64V80.48H72.6V89.24H114.6V121.88H77.64V130.64H114.6V168.68H66.72V177.44H173.52V168.68H123.96ZM134.88 141.32C142.32 148.28 151.92 158 156.72 163.76L163.44 157.88C158.52 152.24 148.68 143 141.24 136.28L134.88 141.32Z" fill="#3F3C31"/>
</g>
<path d="M123.96 168.68H122.96V169.68H123.96V168.68ZM123.96 130.64V129.64H122.96V130.64H123.96ZM162.96 130.64V131.64H163.96V130.64H162.96ZM162.96 121.88H163.96V120.88H162.96V121.88ZM123.96 121.88H122.96V122.88H123.96V121.88ZM123.96 89.24V88.24H122.96V89.24H123.96ZM167.64 89.24V90.24H168.64V89.24H167.64ZM167.64 80.48H168.64V79.48H167.64V80.48ZM72.6 80.48V79.48H71.6V80.48H72.6ZM72.6 89.24H71.6V90.24H72.6V89.24ZM114.6 89.24H115.6V88.24H114.6V89.24ZM114.6 121.88V122.88H115.6V121.88H114.6ZM77.64 121.88V120.88H76.64V121.88H77.64ZM77.64 130.64H76.64V131.64H77.64V130.64ZM114.6 130.64H115.6V129.64H114.6V130.64ZM114.6 168.68V169.68H115.6V168.68H114.6ZM66.72 168.68V167.68H65.72V168.68H66.72ZM66.72 177.44H65.72V178.44H66.72V177.44ZM173.52 177.44V178.44H174.52V177.44H173.52ZM173.52 168.68H174.52V167.68H173.52V168.68ZM134.88 141.32L134.259 140.536L133.349 141.257L134.197 142.05L134.88 141.32ZM156.72 163.76L155.952 164.4L156.608 165.187L157.379 164.513L156.72 163.76ZM163.44 157.88L164.099 158.633L164.85 157.975L164.194 157.223L163.44 157.88ZM141.24 136.28L141.91 135.538L141.282 134.971L140.619 135.496L141.24 136.28ZM124.96 168.68V130.64H122.96V168.68H124.96ZM123.96 131.64H162.96V129.64H123.96V131.64ZM163.96 130.64V121.88H161.96V130.64H163.96ZM162.96 120.88H123.96V122.88H162.96V120.88ZM124.96 121.88V89.24H122.96V121.88H124.96ZM123.96 90.24H167.64V88.24H123.96V90.24ZM168.64 89.24V80.48H166.64V89.24H168.64ZM167.64 79.48H72.6V81.48H167.64V79.48ZM71.6 80.48V89.24H73.6V80.48H71.6ZM72.6 90.24H114.6V88.24H72.6V90.24ZM113.6 89.24V121.88H115.6V89.24H113.6ZM114.6 120.88H77.64V122.88H114.6V120.88ZM76.64 121.88V130.64H78.64V121.88H76.64ZM77.64 131.64H114.6V129.64H77.64V131.64ZM113.6 130.64V168.68H115.6V130.64H113.6ZM114.6 167.68H66.72V169.68H114.6V167.68ZM65.72 168.68V177.44H67.72V168.68H65.72ZM66.72 178.44H173.52V176.44H66.72V178.44ZM174.52 177.44V168.68H172.52V177.44H174.52ZM173.52 167.68H123.96V169.68H173.52V167.68ZM134.197 142.05C141.626 149 151.191 158.687 155.952 164.4L157.488 163.12C152.649 157.313 143.014 147.56 135.563 140.59L134.197 142.05ZM157.379 164.513L164.099 158.633L162.782 157.127L156.062 163.007L157.379 164.513ZM164.194 157.223C159.229 151.531 149.346 142.254 141.91 135.538L140.57 137.022C148.014 143.746 157.811 152.949 162.686 158.537L164.194 157.223ZM140.619 135.496L134.259 140.536L135.501 142.104L141.861 137.064L140.619 135.496Z" fill="#3F3C31"/>
</g>
<rect x="2" width="236" height="247" fill="#FF6262"/>
<g filter="url(#filter3_d)">
<g filter="url(#filter4_b)">
<path d="M17.9143 30.4933L90.4971 1L162.086 30.4933L177 204H3L17.9143 30.4933Z" fill="#F5DA94"/>
<path d="M3.54482 203.5L18.3862 30.8413L90.4958 1.54023L161.614 30.8396L176.455 203.5H3.54482Z" stroke="#F5DA94"/>
</g>
<rect x="3" y="204" width="174.028" height="11.2593" fill="#C5A05A"/>
<g filter="url(#filter5_i)">
<path d="M81.34 127.72V151.72H65.14L74.98 147.52C73.18 142 68.5 133.84 63.94 127.72H81.34ZM67.78 91.12C76.42 83.92 83.86 76.12 89.02 68.92C94.3 76.12 102.22 83.92 111.1 91.12H67.78ZM113.02 127.72C110.38 134.08 105.58 142.84 101.62 148.48L109.42 151.72H96.34V127.72H133.3V115.48H96.34V103.6H119.26V97.36C125.26 101.68 131.5 105.64 137.5 108.76C140.14 104.32 143.38 99.52 146.98 95.92C128.02 88.24 108.7 73.12 95.74 55H80.98C72.1 69.4 52.9 87.4 32.5 97.36C35.62 100.36 39.58 105.52 41.38 108.88C47.5 105.64 53.62 101.8 59.26 97.72V103.6H81.34V115.48H44.86V127.72H63.22L52.3 132.4C56.5 138.28 60.46 146.32 62.26 151.72H38.86V163.96H140.38V151.72H113.26C117.46 146.68 122.14 139.36 126.7 132.76L113.02 127.72Z" fill="black"/>
</g>
<path d="M81.34 127.72H82.34V126.72H81.34V127.72ZM81.34 151.72V152.72H82.34V151.72H81.34ZM65.14 151.72L64.7474 150.8L65.14 152.72V151.72ZM74.98 147.52L75.3726 148.44L76.2145 148.08L75.9307 147.21L74.98 147.52ZM63.94 127.72V126.72H61.9478L63.1381 128.317L63.94 127.72ZM67.78 91.12L67.1398 90.3518L65.018 92.12H67.78V91.12ZM89.02 68.92L89.8264 68.3286L89.0107 67.2163L88.2072 68.3375L89.02 68.92ZM111.1 91.12V92.12H113.921L111.73 90.3432L111.1 91.12ZM113.02 127.72L113.366 126.782L112.465 126.45L112.096 127.337L113.02 127.72ZM101.62 148.48L100.802 147.905L100.085 148.925L101.236 149.403L101.62 148.48ZM109.42 151.72V152.72L109.804 150.797L109.42 151.72ZM96.34 151.72H95.34V152.72H96.34V151.72ZM96.34 127.72V126.72H95.34V127.72H96.34ZM133.3 127.72V128.72H134.3V127.72H133.3ZM133.3 115.48H134.3V114.48H133.3V115.48ZM96.34 115.48H95.34V116.48H96.34V115.48ZM96.34 103.6V102.6H95.34V103.6H96.34ZM119.26 103.6V104.6H120.26V103.6H119.26ZM119.26 97.36L119.844 96.5485L118.26 95.4078V97.36H119.26ZM137.5 108.76L137.039 109.647L137.877 110.083L138.36 109.271L137.5 108.76ZM146.98 95.92L147.687 96.6271L148.754 95.5598L147.355 94.9931L146.98 95.92ZM95.74 55L96.5534 54.4182L96.2542 54H95.74V55ZM80.98 55V54H80.4218L80.1288 54.4751L80.98 55ZM32.5 97.36L32.0613 96.4614L30.7755 97.0891L31.8069 98.0808L32.5 97.36ZM41.38 108.88L40.4985 109.352L40.9684 110.229L41.8479 109.764L41.38 108.88ZM59.26 97.72H60.26V95.7624L58.6739 96.9098L59.26 97.72ZM59.26 103.6H58.26V104.6H59.26V103.6ZM81.34 103.6H82.34V102.6H81.34V103.6ZM81.34 115.48V116.48H82.34V115.48H81.34ZM44.86 115.48V114.48H43.86V115.48H44.86ZM44.86 127.72H43.86V128.72H44.86V127.72ZM63.22 127.72L63.6139 128.639L63.22 126.72V127.72ZM52.3 132.4L51.9061 131.481L50.7641 131.97L51.4863 132.981L52.3 132.4ZM62.26 151.72V152.72H63.6474L63.2087 151.404L62.26 151.72ZM38.86 151.72V150.72H37.86V151.72H38.86ZM38.86 163.96H37.86V164.96H38.86V163.96ZM140.38 163.96V164.96H141.38V163.96H140.38ZM140.38 151.72H141.38V150.72H140.38V151.72ZM113.26 151.72L112.492 151.08L111.125 152.72H113.26V151.72ZM126.7 132.76L127.523 133.328L128.256 132.267L127.046 131.822L126.7 132.76ZM80.34 127.72V151.72H82.34V127.72H80.34ZM81.34 150.72H65.14V152.72H81.34V150.72ZM65.5326 152.64L75.3726 148.44L74.5874 146.6L64.7474 150.8L65.5326 152.64ZM75.9307 147.21C74.0842 141.547 69.3361 133.288 64.7419 127.123L63.1381 128.317C67.6639 134.392 72.2758 142.453 74.0293 147.83L75.9307 147.21ZM63.94 128.72H81.34V126.72H63.94V128.72ZM68.4202 91.8882C77.1102 84.6466 84.613 76.7859 89.8328 69.5025L88.2072 68.3375C83.107 75.4541 75.7298 83.1934 67.1398 90.3518L68.4202 91.8882ZM88.2136 69.5114C93.5618 76.8043 101.551 84.6653 110.47 91.8968L111.73 90.3432C102.889 83.1747 95.0382 75.4357 89.8264 68.3286L88.2136 69.5114ZM111.1 90.12H67.78V92.12H111.1V90.12ZM112.096 127.337C109.484 133.63 104.719 142.326 100.802 147.905L102.438 149.055C106.441 143.354 111.276 134.53 113.944 128.103L112.096 127.337ZM101.236 149.403L109.036 152.643L109.804 150.797L102.004 147.557L101.236 149.403ZM109.42 150.72H96.34V152.72H109.42V150.72ZM97.34 151.72V127.72H95.34V151.72H97.34ZM96.34 128.72H133.3V126.72H96.34V128.72ZM134.3 127.72V115.48H132.3V127.72H134.3ZM133.3 114.48H96.34V116.48H133.3V114.48ZM97.34 115.48V103.6H95.34V115.48H97.34ZM96.34 104.6H119.26V102.6H96.34V104.6ZM120.26 103.6V97.36H118.26V103.6H120.26ZM118.676 98.1715C124.705 102.513 130.986 106.5 137.039 109.647L137.961 107.873C132.014 104.78 125.815 100.847 119.844 96.5485L118.676 98.1715ZM138.36 109.271C140.986 104.855 144.175 100.139 147.687 96.6271L146.273 95.2129C142.585 98.901 139.295 103.785 136.64 108.249L138.36 109.271ZM147.355 94.9931C128.576 87.3863 109.406 72.3884 96.5534 54.4182L94.9266 55.5817C107.994 73.8516 127.464 89.0937 146.605 96.8468L147.355 94.9931ZM95.74 54H80.98V56H95.74V54ZM80.1288 54.4751C71.3539 68.7048 52.3012 86.5795 32.0613 96.4614L32.9387 98.2586C53.4988 88.2205 72.8461 70.0952 81.8312 55.5249L80.1288 54.4751ZM31.8069 98.0808C34.8591 101.016 38.7527 106.093 40.4985 109.352L42.2615 108.408C40.4073 104.947 36.3809 99.7044 33.1931 96.6392L31.8069 98.0808ZM41.8479 109.764C48.0113 106.501 54.1707 102.636 59.8461 98.5302L58.6739 96.9098C53.0693 100.964 46.9887 104.779 40.9121 107.996L41.8479 109.764ZM58.26 97.72V103.6H60.26V97.72H58.26ZM59.26 104.6H81.34V102.6H59.26V104.6ZM80.34 103.6V115.48H82.34V103.6H80.34ZM81.34 114.48H44.86V116.48H81.34V114.48ZM43.86 115.48V127.72H45.86V115.48H43.86ZM44.86 128.72H63.22V126.72H44.86V128.72ZM62.8261 126.801L51.9061 131.481L52.6939 133.319L63.6139 128.639L62.8261 126.801ZM51.4863 132.981C55.628 138.78 59.5427 146.73 61.3113 152.036L63.2087 151.404C61.3773 145.91 57.372 137.78 53.1137 131.819L51.4863 132.981ZM62.26 150.72H38.86V152.72H62.26V150.72ZM37.86 151.72V163.96H39.86V151.72H37.86ZM38.86 164.96H140.38V162.96H38.86V164.96ZM141.38 163.96V151.72H139.38V163.96H141.38ZM140.38 150.72H113.26V152.72H140.38V150.72ZM114.028 152.36C118.267 147.274 122.998 139.877 127.523 133.328L125.877 132.192C121.282 138.843 116.653 146.086 112.492 151.08L114.028 152.36ZM127.046 131.822L113.366 126.782L112.674 128.658L126.354 133.698L127.046 131.822Z" fill="black"/>
</g>
<defs>
<filter id="filter0_d" x="28" y="10" width="183" height="236" filterUnits="userSpaceOnUse" color-interpolation-filters="sRGB">
<feFlood flood-opacity="0" result="BackgroundImageFix"/>
<feColorMatrix in="SourceAlpha" type="matrix" values="0 0 0 0 0 0 0 0 0 0 0 0 0 0 0 0 0 0 127 0"/>
<feOffset dy="4"/>
<feGaussianBlur stdDeviation="2"/>
<feColorMatrix type="matrix" values="0 0 0 0 0 0 0 0 0 0 0 0 0 0 0 0 0 0 0.25 0"/>
<feBlend mode="normal" in2="BackgroundImageFix" result="effect1_dropShadow"/>
<feBlend mode="normal" in="SourceGraphic" in2="effect1_dropShadow" result="shape"/>
</filter>
<filter id="filter1_b" x="28" y="6" width="183" height="224.741" filterUnits="userSpaceOnUse" color-interpolation-filters="sRGB">
<feFlood flood-opacity="0" result="BackgroundImageFix"/>
<feGaussianBlur in="BackgroundImage" stdDeviation="2"/>
<feComposite in2="SourceAlpha" operator="in" result="effect1_backgroundBlur"/>
<feBlend mode="normal" in="SourceGraphic" in2="effect1_backgroundBlur" result="shape"/>
</filter>
<filter id="filter2_i" x="65.72" y="79.48" width="108.8" height="102.96" filterUnits="userSpaceOnUse" color-interpolation-filters="sRGB">
<feFlood flood-opacity="0" result="BackgroundImageFix"/>
<feBlend mode="normal" in="SourceGraphic" in2="BackgroundImageFix" result="shape"/>
<feColorMatrix in="SourceAlpha" type="matrix" values="0 0 0 0 0 0 0 0 0 0 0 0 0 0 0 0 0 0 127 0" result="hardAlpha"/>
<feOffset dy="4"/>
<feGaussianBlur stdDeviation="2"/>
<feComposite in2="hardAlpha" operator="arithmetic" k2="-1" k3="1"/>
<feColorMatrix type="matrix" values="0 0 0 0 0 0 0 0 0 0 0 0 0 0 0 0 0 0 0.25 0"/>
<feBlend mode="normal" in2="shape" result="effect1_innerShadow"/>
</filter>
<filter id="filter3_d" x="3" y="1" width="193.028" height="233.259" filterUnits="userSpaceOnUse" color-interpolation-filters="sRGB">
<feFlood flood-opacity="0" result="BackgroundImageFix"/>
<feColorMatrix in="SourceAlpha" type="matrix" values="0 0 0 0 0 0 0 0 0 0 0 0 0 0 0 0 0 0 127 0"/>
<feOffset dx="15" dy="15"/>
<feGaussianBlur stdDeviation="2"/>
<feColorMatrix type="matrix" values="0 0 0 0 0 0 0 0 0 0 0 0 0 0 0 0 0 0 0.5 0"/>
<feBlend mode="normal" in2="BackgroundImageFix" result="effect1_dropShadow"/>
<feBlend mode="normal" in="SourceGraphic" in2="effect1_dropShadow" result="shape"/>
</filter>
<filter id="filter4_b" x="-1" y="-3" width="182" height="211" filterUnits="userSpaceOnUse" color-interpolation-filters="sRGB">
<feFlood flood-opacity="0" result="BackgroundImageFix"/>
<feGaussianBlur in="BackgroundImage" stdDeviation="2"/>
<feComposite in2="SourceAlpha" operator="in" result="effect1_backgroundBlur"/>
<feBlend mode="normal" in="SourceGraphic" in2="effect1_backgroundBlur" result="shape"/>
</filter>
<filter id="filter5_i" x="30.7755" y="54" width="117.979" height="114.96" filterUnits="userSpaceOnUse" color-interpolation-filters="sRGB">
<feFlood flood-opacity="0" result="BackgroundImageFix"/>
<feBlend mode="normal" in="SourceGraphic" in2="BackgroundImageFix" result="shape"/>
<feColorMatrix in="SourceAlpha" type="matrix" values="0 0 0 0 0 0 0 0 0 0 0 0 0 0 0 0 0 0 127 0" result="hardAlpha"/>
<feOffset dy="4"/>
<feGaussianBlur stdDeviation="2"/>
<feComposite in2="hardAlpha" operator="arithmetic" k2="-1" k3="1"/>
<feColorMatrix type="matrix" values="0 0 0 0 0 0 0 0 0 0 0 0 0 0 0 0 0 0 0.25 0"/>
<feBlend mode="normal" in2="shape" result="effect1_innerShadow"/>
</filter>
</defs>
</svg>
