<svg width="236" height="247" viewBox="0 0 236 247" fill="none" xmlns="http://www.w3.org/2000/svg">
<rect width="236" height="247" fill="#FDF1DB"/>
<g filter="url(#filter0_d)">
<g filter="url(#filter1_b)">
<path d="M45 41.4897L118 10L190 41.4897L205 226.741H30L45 41.4897Z" fill="#F5DA94"/>
<path d="M30.5421 226.241L45.4741 41.8297L117.999 10.5451L189.526 41.828L204.458 226.241H30.5421Z" stroke="#F5DA94"/>
</g>
<rect x="30" y="226.741" width="175" height="11.2593" fill="#C5A05A"/>
<g filter="url(#filter2_i)">
<path d="M124.96 165.44V132.8H161.8V118.88H124.96V92.48H167.08V78.44H69.16V92.48H109.24V118.88H74.92V132.8H109.24V165.44H63.88V179.36H172.6V165.44H124.96ZM132.52 142.64C139.12 149.36 148.36 158.72 152.68 164.36L163.48 154.76C158.8 149.24 149.32 140.48 142.84 134.36L132.52 142.64Z" fill="black"/>
</g>
<path d="M124.96 165.44H123.96V166.44H124.96V165.44ZM124.96 132.8V131.8H123.96V132.8H124.96ZM161.8 132.8V133.8H162.8V132.8H161.8ZM161.8 118.88H162.8V117.88H161.8V118.88ZM124.96 118.88H123.96V119.88H124.96V118.88ZM124.96 92.48V91.48H123.96V92.48H124.96ZM167.08 92.48V93.48H168.08V92.48H167.08ZM167.08 78.44H168.08V77.44H167.08V78.44ZM69.16 78.44V77.44H68.16V78.44H69.16ZM69.16 92.48H68.16V93.48H69.16V92.48ZM109.24 92.48H110.24V91.48H109.24V92.48ZM109.24 118.88V119.88H110.24V118.88H109.24ZM74.92 118.88V117.88H73.92V118.88H74.92ZM74.92 132.8H73.92V133.8H74.92V132.8ZM109.24 132.8H110.24V131.8H109.24V132.8ZM109.24 165.44V166.44H110.24V165.44H109.24ZM63.88 165.44V164.44H62.88V165.44H63.88ZM63.88 179.36H62.88V180.36H63.88V179.36ZM172.6 179.36V180.36H173.6V179.36H172.6ZM172.6 165.44H173.6V164.44H172.6V165.44ZM132.52 142.64L131.894 141.86L131.032 142.552L131.807 143.341L132.52 142.64ZM152.68 164.36L151.886 164.968L152.54 165.822L153.344 165.107L152.68 164.36ZM163.48 154.76L164.144 155.507L164.874 154.858L164.243 154.113L163.48 154.76ZM142.84 134.36L143.527 133.633L142.893 133.035L142.214 133.58L142.84 134.36ZM125.96 165.44V132.8H123.96V165.44H125.96ZM124.96 133.8H161.8V131.8H124.96V133.8ZM162.8 132.8V118.88H160.8V132.8H162.8ZM161.8 117.88H124.96V119.88H161.8V117.88ZM125.96 118.88V92.48H123.96V118.88H125.96ZM124.96 93.48H167.08V91.48H124.96V93.48ZM168.08 92.48V78.44H166.08V92.48H168.08ZM167.08 77.44H69.16V79.44H167.08V77.44ZM68.16 78.44V92.48H70.16V78.44H68.16ZM69.16 93.48H109.24V91.48H69.16V93.48ZM108.24 92.48V118.88H110.24V92.48H108.24ZM109.24 117.88H74.92V119.88H109.24V117.88ZM73.92 118.88V132.8H75.92V118.88H73.92ZM74.92 133.8H109.24V131.8H74.92V133.8ZM108.24 132.8V165.44H110.24V132.8H108.24ZM109.24 164.44H63.88V166.44H109.24V164.44ZM62.88 165.44V179.36H64.88V165.44H62.88ZM63.88 180.36H172.6V178.36H63.88V180.36ZM173.6 179.36V165.44H171.6V179.36H173.6ZM172.6 164.44H124.96V166.44H172.6V164.44ZM131.807 143.341C138.432 150.086 147.614 159.39 151.886 164.968L153.474 163.752C149.106 158.05 139.808 148.634 133.233 141.939L131.807 143.341ZM153.344 165.107L164.144 155.507L162.816 154.013L152.016 163.613L153.344 165.107ZM164.243 154.113C159.516 148.538 149.976 139.724 143.527 133.633L142.153 135.087C148.664 141.236 158.084 149.942 162.717 155.407L164.243 154.113ZM142.214 133.58L131.894 141.86L133.146 143.42L143.466 135.14L142.214 133.58Z" fill="black"/>
</g>
<defs>
<filter id="filter0_d" x="26" y="10" width="183" height="236" filterUnits="userSpaceOnUse" color-interpolation-filters="sRGB">
<feFlood flood-opacity="0" result="BackgroundImageFix"/>
<feColorMatrix in="SourceAlpha" type="matrix" values="0 0 0 0 0 0 0 0 0 0 0 0 0 0 0 0 0 0 127 0"/>
<feOffset dy="4"/>
<feGaussianBlur stdDeviation="2"/>
<feColorMatrix type="matrix" values="0 0 0 0 0 0 0 0 0 0 0 0 0 0 0 0 0 0 0.25 0"/>
<feBlend mode="normal" in2="BackgroundImageFix" result="effect1_dropShadow"/>
<feBlend mode="normal" in="SourceGraphic" in2="effect1_dropShadow" result="shape"/>
</filter>
<filter id="filter1_b" x="26" y="6" width="183" height="224.741" filterUnits="userSpaceOnUse" color-interpolation-filters="sRGB">
<feFlood flood-opacity="0" result="BackgroundImageFix"/>
<feGaussianBlur in="BackgroundImage" stdDeviation="2"/>
<feComposite in2="SourceAlpha" operator="in" result="effect1_backgroundBlur"/>
<feBlend mode="normal" in="SourceGraphic" in2="effect1_backgroundBlur" result="shape"/>
</filter>
<filter id="filter2_i" x="62.88" y="77.4399" width="110.72" height="106.92" filterUnits="userSpaceOnUse" color-interpolation-filters="sRGB">
<feFlood flood-opacity="0" result="BackgroundImageFix"/>
<feBlend mode="normal" in="SourceGraphic" in2="BackgroundImageFix" result="shape"/>
<feColorMatrix in="SourceAlpha" type="matrix" values="0 0 0 0 0 0 0 0 0 0 0 0 0 0 0 0 0 0 127 0" result="hardAlpha"/>
<feOffset dy="4"/>
<feGaussianBlur stdDeviation="2"/>
<feComposite in2="hardAlpha" operator="arithmetic" k2="-1" k3="1"/>
<feColorMatrix type="matrix" values="0 0 0 0 0 0 0 0 0 0 0 0 0 0 0 0 0 0 0.25 0"/>
<feBlend mode="normal" in2="shape" result="effect1_innerShadow"/>
</filter>
</defs>
</svg>
