<svg width="236" height="247" viewBox="0 0 236 247" fill="none" xmlns="http://www.w3.org/2000/svg">
<rect width="236" height="247" fill="#FF6262"/>
<g filter="url(#filter0_d)">
<g filter="url(#filter1_b)">
<path d="M17 31.4897L90 0L162 31.4897L177 216.741H2L17 31.4897Z" fill="#F5DA94"/>
<path d="M2.54212 216.241L17.4741 31.8297L89.9986 0.545129L161.526 31.828L176.458 216.241H2.54212Z" stroke="#F5DA94"/>
</g>
<rect x="2" y="216.741" width="175" height="11.2593" fill="#C5A05A"/>
<g filter="url(#filter2_i)">
<path d="M96.96 155.44V122.8H133.8V108.88H96.96V82.48H139.08V68.44H41.16V82.48H81.24V108.88H46.92V122.8H81.24V155.44H35.88V169.36H144.6V155.44H96.96ZM104.52 132.64C111.12 139.36 120.36 148.72 124.68 154.36L135.48 144.76C130.8 139.24 121.32 130.48 114.84 124.36L104.52 132.64Z" fill="black"/>
</g>
<path d="M96.96 155.44H95.96V156.44H96.96V155.44ZM96.96 122.8V121.8H95.96V122.8H96.96ZM133.8 122.8V123.8H134.8V122.8H133.8ZM133.8 108.88H134.8V107.88H133.8V108.88ZM96.96 108.88H95.96V109.88H96.96V108.88ZM96.96 82.48V81.48H95.96V82.48H96.96ZM139.08 82.48V83.48H140.08V82.48H139.08ZM139.08 68.44H140.08V67.44H139.08V68.44ZM41.16 68.44V67.44H40.16V68.44H41.16ZM41.16 82.48H40.16V83.48H41.16V82.48ZM81.24 82.48H82.24V81.48H81.24V82.48ZM81.24 108.88V109.88H82.24V108.88H81.24ZM46.92 108.88V107.88H45.92V108.88H46.92ZM46.92 122.8H45.92V123.8H46.92V122.8ZM81.24 122.8H82.24V121.8H81.24V122.8ZM81.24 155.44V156.44H82.24V155.44H81.24ZM35.88 155.44V154.44H34.88V155.44H35.88ZM35.88 169.36H34.88V170.36H35.88V169.36ZM144.6 169.36V170.36H145.6V169.36H144.6ZM144.6 155.44H145.6V154.44H144.6V155.44ZM104.52 132.64L103.894 131.86L103.032 132.552L103.807 133.341L104.52 132.64ZM124.68 154.36L123.886 154.968L124.54 155.822L125.344 155.107L124.68 154.36ZM135.48 144.76L136.144 145.507L136.874 144.858L136.243 144.113L135.48 144.76ZM114.84 124.36L115.527 123.633L114.893 123.035L114.214 123.58L114.84 124.36ZM97.96 155.44V122.8H95.96V155.44H97.96ZM96.96 123.8H133.8V121.8H96.96V123.8ZM134.8 122.8V108.88H132.8V122.8H134.8ZM133.8 107.88H96.96V109.88H133.8V107.88ZM97.96 108.88V82.48H95.96V108.88H97.96ZM96.96 83.48H139.08V81.48H96.96V83.48ZM140.08 82.48V68.44H138.08V82.48H140.08ZM139.08 67.44H41.16V69.44H139.08V67.44ZM40.16 68.44V82.48H42.16V68.44H40.16ZM41.16 83.48H81.24V81.48H41.16V83.48ZM80.24 82.48V108.88H82.24V82.48H80.24ZM81.24 107.88H46.92V109.88H81.24V107.88ZM45.92 108.88V122.8H47.92V108.88H45.92ZM46.92 123.8H81.24V121.8H46.92V123.8ZM80.24 122.8V155.44H82.24V122.8H80.24ZM81.24 154.44H35.88V156.44H81.24V154.44ZM34.88 155.44V169.36H36.88V155.44H34.88ZM35.88 170.36H144.6V168.36H35.88V170.36ZM145.6 169.36V155.44H143.6V169.36H145.6ZM144.6 154.44H96.96V156.44H144.6V154.44ZM103.807 133.341C110.432 140.086 119.614 149.39 123.886 154.968L125.474 153.752C121.106 148.05 111.808 138.634 105.233 131.939L103.807 133.341ZM125.344 155.107L136.144 145.507L134.816 144.013L124.016 153.613L125.344 155.107ZM136.243 144.113C131.516 138.538 121.976 129.724 115.527 123.633L114.153 125.087C120.664 131.236 130.084 139.942 134.717 145.407L136.243 144.113ZM114.214 123.58L103.894 131.86L105.146 133.42L115.466 125.14L114.214 123.58Z" fill="black"/>
</g>
<defs>
<filter id="filter0_d" x="2" y="0" width="194" height="247" filterUnits="userSpaceOnUse" color-interpolation-filters="sRGB">
<feFlood flood-opacity="0" result="BackgroundImageFix"/>
<feColorMatrix in="SourceAlpha" type="matrix" values="0 0 0 0 0 0 0 0 0 0 0 0 0 0 0 0 0 0 127 0"/>
<feOffset dx="15" dy="15"/>
<feGaussianBlur stdDeviation="2"/>
<feColorMatrix type="matrix" values="0 0 0 0 0 0 0 0 0 0 0 0 0 0 0 0 0 0 0.5 0"/>
<feBlend mode="normal" in2="BackgroundImageFix" result="effect1_dropShadow"/>
<feBlend mode="normal" in="SourceGraphic" in2="effect1_dropShadow" result="shape"/>
</filter>
<filter id="filter1_b" x="-2" y="-4" width="183" height="224.741" filterUnits="userSpaceOnUse" color-interpolation-filters="sRGB">
<feFlood flood-opacity="0" result="BackgroundImageFix"/>
<feGaussianBlur in="BackgroundImage" stdDeviation="2"/>
<feComposite in2="SourceAlpha" operator="in" result="effect1_backgroundBlur"/>
<feBlend mode="normal" in="SourceGraphic" in2="effect1_backgroundBlur" result="shape"/>
</filter>
<filter id="filter2_i" x="34.88" y="67.4399" width="110.72" height="106.92" filterUnits="userSpaceOnUse" color-interpolation-filters="sRGB">
<feFlood flood-opacity="0" result="BackgroundImageFix"/>
<feBlend mode="normal" in="SourceGraphic" in2="BackgroundImageFix" result="shape"/>
<feColorMatrix in="SourceAlpha" type="matrix" values="0 0 0 0 0 0 0 0 0 0 0 0 0 0 0 0 0 0 127 0" result="hardAlpha"/>
<feOffset dy="4"/>
<feGaussianBlur stdDeviation="2"/>
<feComposite in2="hardAlpha" operator="arithmetic" k2="-1" k3="1"/>
<feColorMatrix type="matrix" values="0 0 0 0 0 0 0 0 0 0 0 0 0 0 0 0 0 0 0.25 0"/>
<feBlend mode="normal" in2="shape" result="effect1_innerShadow"/>
</filter>
</defs>
</svg>
