<svg width="238" height="247" viewBox="0 0 238 247" fill="none" xmlns="http://www.w3.org/2000/svg">
<rect x="2" width="236" height="247" fill="#FF6262"/>
<g filter="url(#filter0_d)">
<g filter="url(#filter1_b)">
<path d="M17.9143 30.4933L90.4971 1L162.086 30.4933L177 204H3L17.9143 30.4933Z" fill="#F5DA94"/>
<path d="M3.54482 203.5L18.3862 30.8413L90.4958 1.54023L161.614 30.8396L176.455 203.5H3.54482Z" stroke="#F5DA94"/>
</g>
<rect x="3" y="204" width="174.028" height="11.2593" fill="#C5A05A"/>
<g filter="url(#filter2_i)">
<path d="M144.22 94.72H117.22V82.48H139.3V69.52H117.22V55.96H102.46V69.52H80.14V82.48H102.46V94.72H76.54V107.92H144.22V94.72ZM76.3 116.08C74.38 112.84 65.74 99.28 62.38 94.72V90.88H75.46V77.68H62.38V55.36H49.42V77.68H35.14V90.88H48.58C45.1 105.28 38.74 122.2 31.42 131.44C33.7 135.28 36.82 141.88 38.14 145.84C42.34 139.72 46.18 130.84 49.42 121.12V167.44H62.38V112.84C64.66 117.52 66.82 122.44 68.02 125.8L76.3 116.08ZM117.22 149.92V135.76H140.98V122.68H117.22V111.52H102.46V122.68H78.7V135.76H102.46V149.92H70.9V163.48H145.66V149.92H117.22Z" fill="black"/>
</g>
<path d="M144.22 94.72H145.22V93.72H144.22V94.72ZM117.22 94.72H116.22V95.72H117.22V94.72ZM117.22 82.48V81.48H116.22V82.48H117.22ZM139.3 82.48V83.48H140.3V82.48H139.3ZM139.3 69.52H140.3V68.52H139.3V69.52ZM117.22 69.52H116.22V70.52H117.22V69.52ZM117.22 55.96H118.22V54.96H117.22V55.96ZM102.46 55.96V54.96H101.46V55.96H102.46ZM102.46 69.52V70.52H103.46V69.52H102.46ZM80.14 69.52V68.52H79.14V69.52H80.14ZM80.14 82.48H79.14V83.48H80.14V82.48ZM102.46 82.48H103.46V81.48H102.46V82.48ZM102.46 94.72V95.72H103.46V94.72H102.46ZM76.54 94.72V93.72H75.54V94.72H76.54ZM76.54 107.92H75.54V108.92H76.54V107.92ZM144.22 107.92V108.92H145.22V107.92H144.22ZM76.3 116.08L77.0612 116.728L77.5244 116.185L77.1603 115.57L76.3 116.08ZM62.38 94.72H61.38V95.0486L61.5749 95.3132L62.38 94.72ZM62.38 90.88V89.88H61.38V90.88H62.38ZM75.46 90.88V91.88H76.46V90.88H75.46ZM75.46 77.68H76.46V76.68H75.46V77.68ZM62.38 77.68H61.38V78.68H62.38V77.68ZM62.38 55.36H63.38V54.36H62.38V55.36ZM49.42 55.36V54.36H48.42V55.36H49.42ZM49.42 77.68V78.68H50.42V77.68H49.42ZM35.14 77.68V76.68H34.14V77.68H35.14ZM35.14 90.88H34.14V91.88H35.14V90.88ZM48.58 90.88L49.552 91.1149L49.8505 89.88H48.58V90.88ZM31.42 131.44L30.6362 130.819L30.2087 131.359L30.5601 131.951L31.42 131.44ZM38.14 145.84L37.1913 146.156L37.827 148.063L38.9645 146.406L38.14 145.84ZM49.42 121.12H50.42L48.4713 120.804L49.42 121.12ZM49.42 167.44H48.42V168.44H49.42V167.44ZM62.38 167.44V168.44H63.38V167.44H62.38ZM62.38 112.84L63.279 112.402L61.38 112.84H62.38ZM68.02 125.8L67.0783 126.136L67.6599 127.765L68.7812 126.448L68.02 125.8ZM117.22 149.92H116.22V150.92H117.22V149.92ZM117.22 135.76V134.76H116.22V135.76H117.22ZM140.98 135.76V136.76H141.98V135.76H140.98ZM140.98 122.68H141.98V121.68H140.98V122.68ZM117.22 122.68H116.22V123.68H117.22V122.68ZM117.22 111.52H118.22V110.52H117.22V111.52ZM102.46 111.52V110.52H101.46V111.52H102.46ZM102.46 122.68V123.68H103.46V122.68H102.46ZM78.7 122.68V121.68H77.7V122.68H78.7ZM78.7 135.76H77.7V136.76H78.7V135.76ZM102.46 135.76H103.46V134.76H102.46V135.76ZM102.46 149.92V150.92H103.46V149.92H102.46ZM70.9 149.92V148.92H69.9V149.92H70.9ZM70.9 163.48H69.9V164.48H70.9V163.48ZM145.66 163.48V164.48H146.66V163.48H145.66ZM145.66 149.92H146.66V148.92H145.66V149.92ZM144.22 93.72H117.22V95.72H144.22V93.72ZM118.22 94.72V82.48H116.22V94.72H118.22ZM117.22 83.48H139.3V81.48H117.22V83.48ZM140.3 82.48V69.52H138.3V82.48H140.3ZM139.3 68.52H117.22V70.52H139.3V68.52ZM118.22 69.52V55.96H116.22V69.52H118.22ZM117.22 54.96H102.46V56.96H117.22V54.96ZM101.46 55.96V69.52H103.46V55.96H101.46ZM102.46 68.52H80.14V70.52H102.46V68.52ZM79.14 69.52V82.48H81.14V69.52H79.14ZM80.14 83.48H102.46V81.48H80.14V83.48ZM101.46 82.48V94.72H103.46V82.48H101.46ZM102.46 93.72H76.54V95.72H102.46V93.72ZM75.54 94.72V107.92H77.54V94.72H75.54ZM76.54 108.92H144.22V106.92H76.54V108.92ZM145.22 107.92V94.72H143.22V107.92H145.22ZM77.1603 115.57C75.2319 112.316 66.5728 98.7245 63.1851 94.1268L61.5749 95.3132C64.9072 99.8355 73.5281 113.364 75.4397 116.59L77.1603 115.57ZM63.38 94.72V90.88H61.38V94.72H63.38ZM62.38 91.88H75.46V89.88H62.38V91.88ZM76.46 90.88V77.68H74.46V90.88H76.46ZM75.46 76.68H62.38V78.68H75.46V76.68ZM63.38 77.68V55.36H61.38V77.68H63.38ZM62.38 54.36H49.42V56.36H62.38V54.36ZM48.42 55.36V77.68H50.42V55.36H48.42ZM49.42 76.68H35.14V78.68H49.42V76.68ZM34.14 77.68V90.88H36.14V77.68H34.14ZM35.14 91.88H48.58V89.88H35.14V91.88ZM47.608 90.6451C44.138 105.003 37.8192 121.752 30.6362 130.819L32.2038 132.061C39.6608 122.648 46.062 105.557 49.552 91.1149L47.608 90.6451ZM30.5601 131.951C32.8104 135.74 35.8977 142.275 37.1913 146.156L39.0887 145.524C37.7423 141.485 34.5896 134.82 32.2799 130.929L30.5601 131.951ZM38.9645 146.406C43.2428 140.172 47.1179 131.189 50.3687 121.436L48.4713 120.804C45.2421 130.491 41.4372 139.268 37.3155 145.274L38.9645 146.406ZM48.42 121.12V167.44H50.42V121.12H48.42ZM49.42 168.44H62.38V166.44H49.42V168.44ZM63.38 167.44V112.84H61.38V167.44H63.38ZM61.481 113.278C63.7535 117.943 65.8958 122.826 67.0783 126.136L68.9617 125.464C67.7442 122.054 65.5665 117.097 63.279 112.402L61.481 113.278ZM68.7812 126.448L77.0612 116.728L75.5388 115.432L67.2588 125.152L68.7812 126.448ZM118.22 149.92V135.76H116.22V149.92H118.22ZM117.22 136.76H140.98V134.76H117.22V136.76ZM141.98 135.76V122.68H139.98V135.76H141.98ZM140.98 121.68H117.22V123.68H140.98V121.68ZM118.22 122.68V111.52H116.22V122.68H118.22ZM117.22 110.52H102.46V112.52H117.22V110.52ZM101.46 111.52V122.68H103.46V111.52H101.46ZM102.46 121.68H78.7V123.68H102.46V121.68ZM77.7 122.68V135.76H79.7V122.68H77.7ZM78.7 136.76H102.46V134.76H78.7V136.76ZM101.46 135.76V149.92H103.46V135.76H101.46ZM102.46 148.92H70.9V150.92H102.46V148.92ZM69.9 149.92V163.48H71.9V149.92H69.9ZM70.9 164.48H145.66V162.48H70.9V164.48ZM146.66 163.48V149.92H144.66V163.48H146.66ZM145.66 148.92H117.22V150.92H145.66V148.92Z" fill="black"/>
</g>
<defs>
<filter id="filter0_d" x="3" y="1" width="193.028" height="233.259" filterUnits="userSpaceOnUse" color-interpolation-filters="sRGB">
<feFlood flood-opacity="0" result="BackgroundImageFix"/>
<feColorMatrix in="SourceAlpha" type="matrix" values="0 0 0 0 0 0 0 0 0 0 0 0 0 0 0 0 0 0 127 0"/>
<feOffset dx="15" dy="15"/>
<feGaussianBlur stdDeviation="2"/>
<feColorMatrix type="matrix" values="0 0 0 0 0 0 0 0 0 0 0 0 0 0 0 0 0 0 0.5 0"/>
<feBlend mode="normal" in2="BackgroundImageFix" result="effect1_dropShadow"/>
<feBlend mode="normal" in="SourceGraphic" in2="effect1_dropShadow" result="shape"/>
</filter>
<filter id="filter1_b" x="-1" y="-3" width="182" height="211" filterUnits="userSpaceOnUse" color-interpolation-filters="sRGB">
<feFlood flood-opacity="0" result="BackgroundImageFix"/>
<feGaussianBlur in="BackgroundImage" stdDeviation="2"/>
<feComposite in2="SourceAlpha" operator="in" result="effect1_backgroundBlur"/>
<feBlend mode="normal" in="SourceGraphic" in2="effect1_backgroundBlur" result="shape"/>
</filter>
<filter id="filter2_i" x="30.2087" y="54.3601" width="116.451" height="118.08" filterUnits="userSpaceOnUse" color-interpolation-filters="sRGB">
<feFlood flood-opacity="0" result="BackgroundImageFix"/>
<feBlend mode="normal" in="SourceGraphic" in2="BackgroundImageFix" result="shape"/>
<feColorMatrix in="SourceAlpha" type="matrix" values="0 0 0 0 0 0 0 0 0 0 0 0 0 0 0 0 0 0 127 0" result="hardAlpha"/>
<feOffset dy="4"/>
<feGaussianBlur stdDeviation="2"/>
<feComposite in2="hardAlpha" operator="arithmetic" k2="-1" k3="1"/>
<feColorMatrix type="matrix" values="0 0 0 0 0 0 0 0 0 0 0 0 0 0 0 0 0 0 0.25 0"/>
<feBlend mode="normal" in2="shape" result="effect1_innerShadow"/>
</filter>
</defs>
</svg>
