<svg width="236" height="247" viewBox="0 0 236 247" fill="none" xmlns="http://www.w3.org/2000/svg">
<rect width="236" height="247" fill="#FDF1DB"/>
<g filter="url(#filter0_d)">
<g filter="url(#filter1_b)">
<path d="M45.9143 46.4933L118.497 17L190.086 46.4933L205 220H31L45.9143 46.4933Z" fill="#F5DA94"/>
<path d="M31.5448 219.5L46.3862 46.8413L118.496 17.5402L189.614 46.8396L204.455 219.5H31.5448Z" stroke="#F5DA94"/>
</g>
<rect x="31" y="220" width="174.028" height="11.2593" fill="#C5A05A"/>
<g filter="url(#filter2_i)">
<path d="M85.46 135.32C94.7 129.68 103.22 122.6 110.06 114.68V132.56H124.94V114.8C132.62 122.72 141.86 129.8 151.58 135.32H85.46ZM95.54 168.92V162.32H140.78V168.92H95.54ZM140.78 152.6H95.54V146.12H140.78V152.6ZM171.14 111.32V98.6H124.94V88.76C136.94 87.32 148.46 85.52 158.42 83L148.34 71.6C130.34 76.04 100.46 78.92 74.18 79.88C75.62 83.12 77.3 88.52 77.66 92C88.22 91.76 99.14 91.16 110.06 90.2V98.6H64.1V111.32H96.62C86.9 119.84 73.82 127.28 60.74 131.24C63.74 134.12 67.82 139.52 69.98 143C73.82 141.56 77.54 139.76 81.26 137.72V183.44H95.54V179.72H140.78V183.32H155.78V137.6C159.14 139.28 162.26 140.72 165.62 142.04C167.66 138.56 171.74 133.28 174.74 130.52C161.9 126.56 148.58 119.36 138.5 111.32H171.14Z" fill="black"/>
</g>
<path d="M85.46 135.32L84.939 134.466L81.9023 136.32H85.46V135.32ZM110.06 114.68H111.06V111.992L109.303 114.026L110.06 114.68ZM110.06 132.56H109.06V133.56H110.06V132.56ZM124.94 132.56V133.56H125.94V132.56H124.94ZM124.94 114.8L125.658 114.104L123.94 112.332V114.8H124.94ZM151.58 135.32V136.32H155.366L152.074 134.45L151.58 135.32ZM95.54 168.92H94.54V169.92H95.54V168.92ZM95.54 162.32V161.32H94.54V162.32H95.54ZM140.78 162.32H141.78V161.32H140.78V162.32ZM140.78 168.92V169.92H141.78V168.92H140.78ZM140.78 152.6V153.6H141.78V152.6H140.78ZM95.54 152.6H94.54V153.6H95.54V152.6ZM95.54 146.12V145.12H94.54V146.12H95.54ZM140.78 146.12H141.78V145.12H140.78V146.12ZM171.14 111.32V112.32H172.14V111.32H171.14ZM171.14 98.6H172.14V97.6H171.14V98.6ZM124.94 98.6H123.94V99.6H124.94V98.6ZM124.94 88.76L124.821 87.7671L123.94 87.8728V88.76H124.94ZM158.42 83L158.665 83.9694L160.256 83.5669L159.169 82.3376L158.42 83ZM148.34 71.6L149.089 70.9376L148.688 70.4841L148.101 70.6291L148.34 71.6ZM74.18 79.88L74.1435 78.8807L72.6655 78.9347L73.2662 80.2861L74.18 79.88ZM77.66 92L76.6653 92.1029L76.7603 93.0207L77.6827 92.9997L77.66 92ZM110.06 90.2H111.06V89.1082L109.972 89.2038L110.06 90.2ZM110.06 98.6V99.6H111.06V98.6H110.06ZM64.1 98.6V97.6H63.1V98.6H64.1ZM64.1 111.32H63.1V112.32H64.1V111.32ZM96.62 111.32L97.2792 112.072L99.2779 110.32H96.62V111.32ZM60.74 131.24L60.4502 130.283L58.8148 130.778L60.0475 131.961L60.74 131.24ZM69.98 143L69.1304 143.527L69.563 144.224L70.3311 143.936L69.98 143ZM81.26 137.72H82.26V136.031L80.7792 136.843L81.26 137.72ZM81.26 183.44H80.26V184.44H81.26V183.44ZM95.54 183.44V184.44H96.54V183.44H95.54ZM95.54 179.72V178.72H94.54V179.72H95.54ZM140.78 179.72H141.78V178.72H140.78V179.72ZM140.78 183.32H139.78V184.32H140.78V183.32ZM155.78 183.32V184.32H156.78V183.32H155.78ZM155.78 137.6L156.227 136.706L154.78 135.982V137.6H155.78ZM165.62 142.04L165.254 142.971L166.05 143.283L166.483 142.546L165.62 142.04ZM174.74 130.52L175.417 131.256L176.698 130.077L175.035 129.564L174.74 130.52ZM138.5 111.32V110.32H135.643L137.876 112.102L138.5 111.32ZM85.981 136.174C95.302 130.484 103.904 123.338 110.817 115.334L109.303 114.026C102.536 121.862 94.098 128.876 84.939 134.466L85.981 136.174ZM109.06 114.68V132.56H111.06V114.68H109.06ZM110.06 133.56H124.94V131.56H110.06V133.56ZM125.94 132.56V114.8H123.94V132.56H125.94ZM124.222 115.496C131.971 123.487 141.287 130.625 151.086 136.19L152.074 134.45C142.433 128.975 133.269 121.953 125.658 114.104L124.222 115.496ZM151.58 134.32H85.46V136.32H151.58V134.32ZM96.54 168.92V162.32H94.54V168.92H96.54ZM95.54 163.32H140.78V161.32H95.54V163.32ZM139.78 162.32V168.92H141.78V162.32H139.78ZM140.78 167.92H95.54V169.92H140.78V167.92ZM140.78 151.6H95.54V153.6H140.78V151.6ZM96.54 152.6V146.12H94.54V152.6H96.54ZM95.54 147.12H140.78V145.12H95.54V147.12ZM139.78 146.12V152.6H141.78V146.12H139.78ZM172.14 111.32V98.6H170.14V111.32H172.14ZM171.14 97.6H124.94V99.6H171.14V97.6ZM125.94 98.6V88.76H123.94V98.6H125.94ZM125.059 89.7529C137.076 88.3109 148.645 86.5048 158.665 83.9694L158.175 82.0305C148.275 84.5352 136.804 86.3291 124.821 87.7671L125.059 89.7529ZM159.169 82.3376L149.089 70.9376L147.591 72.2624L157.671 83.6624L159.169 82.3376ZM148.101 70.6291C130.202 75.0439 100.405 77.9213 74.1435 78.8807L74.2165 80.8793C100.515 79.9187 130.478 77.036 148.579 72.5709L148.101 70.6291ZM73.2662 80.2861C74.6787 83.4643 76.3194 88.7594 76.6653 92.1029L78.6547 91.8971C78.2806 88.2806 76.5613 82.7757 75.0938 79.4739L73.2662 80.2861ZM77.6827 92.9997C88.2646 92.7592 99.2062 92.158 110.148 91.1962L109.972 89.2038C99.0738 90.162 88.1754 90.7607 77.6373 91.0003L77.6827 92.9997ZM109.06 90.2V98.6H111.06V90.2H109.06ZM110.06 97.6H64.1V99.6H110.06V97.6ZM63.1 98.6V111.32H65.1V98.6H63.1ZM64.1 112.32H96.62V110.32H64.1V112.32ZM95.9608 110.568C86.3451 118.997 73.3903 126.365 60.4502 130.283L61.0298 132.197C74.2497 128.195 87.4549 120.683 97.2792 112.072L95.9608 110.568ZM60.0475 131.961C62.9689 134.766 66.9986 140.093 69.1304 143.527L70.8296 142.473C68.6414 138.947 64.5111 133.474 61.4325 130.519L60.0475 131.961ZM70.3311 143.936C74.2282 142.475 77.9927 140.652 81.7408 138.597L80.7792 136.843C77.0873 138.868 73.4118 140.645 69.6289 142.064L70.3311 143.936ZM80.26 137.72V183.44H82.26V137.72H80.26ZM81.26 184.44H95.54V182.44H81.26V184.44ZM96.54 183.44V179.72H94.54V183.44H96.54ZM95.54 180.72H140.78V178.72H95.54V180.72ZM139.78 179.72V183.32H141.78V179.72H139.78ZM140.78 184.32H155.78V182.32H140.78V184.32ZM156.78 183.32V137.6H154.78V183.32H156.78ZM155.333 138.494C158.71 140.183 161.859 141.637 165.254 142.971L165.986 141.109C162.661 139.803 159.57 138.377 156.227 136.706L155.333 138.494ZM166.483 142.546C168.482 139.136 172.502 133.938 175.417 131.256L174.063 129.784C170.978 132.622 166.838 137.984 164.757 141.534L166.483 142.546ZM175.035 129.564C162.318 125.643 149.109 118.503 139.124 110.538L137.876 112.102C148.051 120.217 161.482 127.477 174.445 131.476L175.035 129.564ZM138.5 112.32H171.14V110.32H138.5V112.32Z" fill="black"/>
</g>
<defs>
<filter id="filter0_d" x="27" y="17" width="182.028" height="222.259" filterUnits="userSpaceOnUse" color-interpolation-filters="sRGB">
<feFlood flood-opacity="0" result="BackgroundImageFix"/>
<feColorMatrix in="SourceAlpha" type="matrix" values="0 0 0 0 0 0 0 0 0 0 0 0 0 0 0 0 0 0 127 0"/>
<feOffset dy="4"/>
<feGaussianBlur stdDeviation="2"/>
<feColorMatrix type="matrix" values="0 0 0 0 0 0 0 0 0 0 0 0 0 0 0 0 0 0 0.25 0"/>
<feBlend mode="normal" in2="BackgroundImageFix" result="effect1_dropShadow"/>
<feBlend mode="normal" in="SourceGraphic" in2="effect1_dropShadow" result="shape"/>
</filter>
<filter id="filter1_b" x="27" y="13" width="182" height="211" filterUnits="userSpaceOnUse" color-interpolation-filters="sRGB">
<feFlood flood-opacity="0" result="BackgroundImageFix"/>
<feGaussianBlur in="BackgroundImage" stdDeviation="2"/>
<feComposite in2="SourceAlpha" operator="in" result="effect1_backgroundBlur"/>
<feBlend mode="normal" in="SourceGraphic" in2="effect1_backgroundBlur" result="shape"/>
</filter>
<filter id="filter2_i" x="58.8148" y="70.4841" width="117.883" height="117.956" filterUnits="userSpaceOnUse" color-interpolation-filters="sRGB">
<feFlood flood-opacity="0" result="BackgroundImageFix"/>
<feBlend mode="normal" in="SourceGraphic" in2="BackgroundImageFix" result="shape"/>
<feColorMatrix in="SourceAlpha" type="matrix" values="0 0 0 0 0 0 0 0 0 0 0 0 0 0 0 0 0 0 127 0" result="hardAlpha"/>
<feOffset dy="4"/>
<feGaussianBlur stdDeviation="2"/>
<feComposite in2="hardAlpha" operator="arithmetic" k2="-1" k3="1"/>
<feColorMatrix type="matrix" values="0 0 0 0 0 0 0 0 0 0 0 0 0 0 0 0 0 0 0.25 0"/>
<feBlend mode="normal" in2="shape" result="effect1_innerShadow"/>
</filter>
</defs>
</svg>
