<svg width="236" height="247" viewBox="0 0 236 247" fill="none" xmlns="http://www.w3.org/2000/svg">
<rect width="236" height="247" fill="#FF6262"/>
<g filter="url(#filter0_d)">
<g filter="url(#filter1_b)">
<path d="M54.0127 47.1175L118.891 20L182.881 47.1175L196.212 206.648H40.6815L54.0127 47.1175Z" fill="#F5DA94"/>
<path d="M41.225 206.148L54.4857 47.4618L118.89 20.5425L182.408 47.4601L195.669 206.148H41.225Z" stroke="#F5DA94"/>
</g>
<rect x="40.6815" y="206.647" width="155.556" height="10.3523" fill="#C5A05A"/>
<g filter="url(#filter2_i)">
<path d="M112.12 134.493C112.12 135.543 111.595 135.858 110.02 135.963C108.55 135.963 102.775 135.963 98.155 135.753C99.73 138.903 101.41 143.628 101.935 146.988C109.495 146.988 115.06 146.988 119.26 145.308C123.355 143.628 124.51 140.478 124.51 134.808V115.278H165.145V103.518H124.72V93.7535H154.96V82.6235H124.72V72.7535H112.015V103.518H97.84V79.7885H85.135V103.518H71.065V115.278H112.12V134.493ZM90.28 116.538C85.87 124.308 78.31 132.393 70.75 137.328C73.795 139.113 79.36 142.998 81.88 145.413C89.335 139.428 97.84 129.873 103.195 120.528L90.28 116.538ZM165.88 138.378C161.89 131.763 152.755 122.523 145.195 116.118L135.01 122.523C138.79 125.883 142.885 130.083 146.56 134.178L136.48 131.343C127.87 150.978 109.075 157.173 79.045 159.378C81.565 162.528 83.98 167.568 85.03 171.558C117.685 167.568 138.16 159.483 148.66 136.698C151.285 139.848 153.49 142.998 154.855 145.518L165.88 138.378Z" fill="black"/>
</g>
<path d="M110.02 135.963V136.963H110.053L110.087 136.961L110.02 135.963ZM98.155 135.753L98.2004 134.755L96.4988 134.677L97.2606 136.201L98.155 135.753ZM101.935 146.988L100.947 147.143L101.079 147.988H101.935V146.988ZM119.26 145.308L119.631 146.237L119.64 146.234L119.26 145.308ZM124.51 115.278V114.278H123.51V115.278H124.51ZM165.145 115.278V116.278H166.145V115.278H165.145ZM165.145 103.518H166.145V102.518H165.145V103.518ZM124.72 103.518H123.72V104.518H124.72V103.518ZM124.72 93.7535V92.7535H123.72V93.7535H124.72ZM154.96 93.7535V94.7535H155.96V93.7535H154.96ZM154.96 82.6235H155.96V81.6235H154.96V82.6235ZM124.72 82.6235H123.72V83.6235H124.72V82.6235ZM124.72 72.7535H125.72V71.7535H124.72V72.7535ZM112.015 72.7535V71.7535H111.015V72.7535H112.015ZM112.015 103.518V104.518H113.015V103.518H112.015ZM97.84 103.518H96.84V104.518H97.84V103.518ZM97.84 79.7885H98.84V78.7885H97.84V79.7885ZM85.135 79.7885V78.7885H84.135V79.7885H85.135ZM85.135 103.518V104.518H86.135V103.518H85.135ZM71.065 103.518V102.518H70.065V103.518H71.065ZM71.065 115.278H70.065V116.278H71.065V115.278ZM112.12 115.278H113.12V114.278H112.12V115.278ZM90.28 116.538L90.5752 115.583L89.8071 115.346L89.4103 116.045L90.28 116.538ZM70.75 137.328L70.2034 136.491L68.8506 137.374L70.2443 138.191L70.75 137.328ZM81.88 145.413L81.1881 146.135L81.8217 146.743L82.506 146.193L81.88 145.413ZM103.195 120.528L104.063 121.026L104.684 119.942L103.49 119.573L103.195 120.528ZM165.88 138.378L166.424 139.218L167.237 138.691L166.736 137.862L165.88 138.378ZM145.195 116.118L145.841 115.356L145.283 114.882L144.663 115.272L145.195 116.118ZM135.01 122.523L134.478 121.677L133.35 122.386L134.346 123.271L135.01 122.523ZM146.56 134.178L146.289 135.141L149.604 136.074L147.304 133.511L146.56 134.178ZM136.48 131.343L136.751 130.381L135.913 130.145L135.564 130.942L136.48 131.343ZM79.045 159.378L78.9718 158.381L77.0778 158.52L78.2641 160.003L79.045 159.378ZM85.03 171.558L84.0629 171.813L84.285 172.657L85.1513 172.551L85.03 171.558ZM148.66 136.698L149.428 136.058L148.415 134.842L147.752 136.28L148.66 136.698ZM154.855 145.518L153.976 145.995L154.491 146.946L155.399 146.358L154.855 145.518ZM111.12 134.493C111.12 134.681 111.095 134.755 111.089 134.77C111.087 134.774 111.089 134.769 111.096 134.76C111.103 134.751 111.107 134.75 111.098 134.756C111.076 134.771 110.995 134.816 110.794 134.861C110.595 134.906 110.324 134.941 109.953 134.966L110.087 136.961C110.867 136.909 111.647 136.802 112.223 136.41C112.933 135.927 113.12 135.193 113.12 134.493H111.12ZM110.02 134.963C108.547 134.963 102.794 134.963 98.2004 134.755L98.1096 136.752C102.756 136.964 108.553 136.963 110.02 136.963V134.963ZM97.2606 136.201C98.8025 139.285 100.442 143.91 100.947 147.143L102.923 146.834C102.378 143.347 100.657 138.522 99.0494 135.306L97.2606 136.201ZM101.935 147.988C109.416 147.988 115.211 148.005 119.631 146.237L118.889 144.38C114.909 145.972 109.574 145.988 101.935 145.988V147.988ZM119.64 146.234C121.886 145.312 123.405 143.943 124.326 141.98C125.222 140.07 125.51 137.686 125.51 134.808H123.51C123.51 137.601 123.221 139.627 122.515 141.13C121.835 142.579 120.729 143.625 118.88 144.383L119.64 146.234ZM125.51 134.808V115.278H123.51V134.808H125.51ZM124.51 116.278H165.145V114.278H124.51V116.278ZM166.145 115.278V103.518H164.145V115.278H166.145ZM165.145 102.518H124.72V104.518H165.145V102.518ZM125.72 103.518V93.7535H123.72V103.518H125.72ZM124.72 94.7535H154.96V92.7535H124.72V94.7535ZM155.96 93.7535V82.6235H153.96V93.7535H155.96ZM154.96 81.6235H124.72V83.6235H154.96V81.6235ZM125.72 82.6235V72.7535H123.72V82.6235H125.72ZM124.72 71.7535H112.015V73.7535H124.72V71.7535ZM111.015 72.7535V103.518H113.015V72.7535H111.015ZM112.015 102.518H97.84V104.518H112.015V102.518ZM98.84 103.518V79.7885H96.84V103.518H98.84ZM97.84 78.7885H85.135V80.7885H97.84V78.7885ZM84.135 79.7885V103.518H86.135V79.7885H84.135ZM85.135 102.518H71.065V104.518H85.135V102.518ZM70.065 103.518V115.278H72.065V103.518H70.065ZM71.065 116.278H112.12V114.278H71.065V116.278ZM111.12 115.278V134.493H113.12V115.278H111.12ZM89.4103 116.045C85.0785 123.677 77.6289 131.644 70.2034 136.491L71.2966 138.166C78.9911 133.143 86.6615 124.94 91.1497 117.032L89.4103 116.045ZM70.2443 138.191C73.2542 139.956 78.7462 143.795 81.1881 146.135L82.5719 144.692C79.9738 142.202 74.3358 138.271 71.2557 136.466L70.2443 138.191ZM82.506 146.193C90.0518 140.135 98.6413 130.486 104.063 121.026L102.327 120.031C97.0387 129.261 88.6182 138.722 81.254 144.634L82.506 146.193ZM103.49 119.573L90.5752 115.583L89.9848 117.494L102.9 121.484L103.49 119.573ZM166.736 137.862C162.659 131.103 153.421 121.777 145.841 115.356L144.549 116.881C152.089 123.27 161.121 132.424 165.024 138.895L166.736 137.862ZM144.663 115.272L134.478 121.677L135.542 123.37L145.727 116.965L144.663 115.272ZM134.346 123.271C138.089 126.599 142.157 130.77 145.816 134.846L147.304 133.511C143.613 129.397 139.491 125.168 135.674 121.776L134.346 123.271ZM146.831 133.216L136.751 130.381L136.209 132.306L146.289 135.141L146.831 133.216ZM135.564 130.942C127.204 150.008 108.979 156.178 78.9718 158.381L79.1182 160.376C109.171 158.169 128.536 151.949 137.396 131.745L135.564 130.942ZM78.2641 160.003C80.6868 163.032 83.0441 167.942 84.0629 171.813L85.9971 171.304C84.9159 167.195 82.4432 162.025 79.8259 158.754L78.2641 160.003ZM85.1513 172.551C117.878 168.552 138.837 160.404 149.568 137.117L147.752 136.28C137.483 158.563 117.492 166.585 84.9087 170.566L85.1513 172.551ZM147.892 137.339C150.49 140.456 152.652 143.551 153.976 145.995L155.734 145.042C154.328 142.446 152.08 139.241 149.428 136.058L147.892 137.339ZM155.399 146.358L166.424 139.218L165.336 137.539L154.311 144.679L155.399 146.358Z" fill="black"/>
</g>
<defs>
<filter id="filter0_d" x="36.6815" y="20" width="163.556" height="205" filterUnits="userSpaceOnUse" color-interpolation-filters="sRGB">
<feFlood flood-opacity="0" result="BackgroundImageFix"/>
<feColorMatrix in="SourceAlpha" type="matrix" values="0 0 0 0 0 0 0 0 0 0 0 0 0 0 0 0 0 0 127 0"/>
<feOffset dy="4"/>
<feGaussianBlur stdDeviation="2"/>
<feColorMatrix type="matrix" values="0 0 0 0 0 0 0 0 0 0 0 0 0 0 0 0 0 0 0.25 0"/>
<feBlend mode="normal" in2="BackgroundImageFix" result="effect1_dropShadow"/>
<feBlend mode="normal" in="SourceGraphic" in2="effect1_dropShadow" result="shape"/>
</filter>
<filter id="filter1_b" x="36.6815" y="16" width="163.531" height="194.648" filterUnits="userSpaceOnUse" color-interpolation-filters="sRGB">
<feFlood flood-opacity="0" result="BackgroundImageFix"/>
<feGaussianBlur in="BackgroundImage" stdDeviation="2"/>
<feComposite in2="SourceAlpha" operator="in" result="effect1_backgroundBlur"/>
<feBlend mode="normal" in="SourceGraphic" in2="effect1_backgroundBlur" result="shape"/>
</filter>
<filter id="filter2_i" x="68.8506" y="71.7534" width="98.386" height="108.903" filterUnits="userSpaceOnUse" color-interpolation-filters="sRGB">
<feFlood flood-opacity="0" result="BackgroundImageFix"/>
<feBlend mode="normal" in="SourceGraphic" in2="BackgroundImageFix" result="shape"/>
<feColorMatrix in="SourceAlpha" type="matrix" values="0 0 0 0 0 0 0 0 0 0 0 0 0 0 0 0 0 0 127 0" result="hardAlpha"/>
<feOffset dy="8"/>
<feGaussianBlur stdDeviation="4"/>
<feComposite in2="hardAlpha" operator="arithmetic" k2="-1" k3="1"/>
<feColorMatrix type="matrix" values="0 0 0 0 0 0 0 0 0 0 0 0 0 0 0 0 0 0 0.35 0"/>
<feBlend mode="normal" in2="shape" result="effect1_innerShadow"/>
</filter>
</defs>
</svg>
