<svg width="236" height="247" viewBox="0 0 236 247" fill="none" xmlns="http://www.w3.org/2000/svg">
<rect width="236" height="247" fill="#FF6262"/>
<g filter="url(#filter0_d)">
<g filter="url(#filter1_b)">
<path d="M16.0127 28.1175L80.8913 1L144.881 28.1175L158.212 187.648H2.68152L16.0127 28.1175Z" fill="#F5DA94"/>
<path d="M3.22504 187.148L16.4857 28.4618L80.8899 1.54248L144.408 28.4601L157.669 187.148H3.22504Z" stroke="#F5DA94"/>
</g>
<rect x="2.68152" y="187.647" width="155.556" height="10.3523" fill="#C5A05A"/>
<g filter="url(#filter2_i)">
<path d="M74.12 115.493C74.12 116.543 73.595 116.858 72.02 116.963C70.55 116.963 64.775 116.963 60.155 116.753C61.73 119.903 63.41 124.628 63.935 127.988C71.495 127.988 77.06 127.988 81.26 126.308C85.355 124.628 86.51 121.478 86.51 115.808V96.2785H127.145V84.5185H86.72V74.7535H116.96V63.6235H86.72V53.7535H74.015V84.5185H59.84V60.7885H47.135V84.5185H33.065V96.2785H74.12V115.493ZM52.28 97.5385C47.87 105.308 40.31 113.393 32.75 118.328C35.795 120.113 41.36 123.998 43.88 126.413C51.335 120.428 59.84 110.873 65.195 101.528L52.28 97.5385ZM127.88 119.378C123.89 112.763 114.755 103.523 107.195 97.1185L97.01 103.523C100.79 106.883 104.885 111.083 108.56 115.178L98.48 112.343C89.87 131.978 71.075 138.173 41.045 140.378C43.565 143.528 45.98 148.568 47.03 152.558C79.685 148.568 100.16 140.483 110.66 117.698C113.285 120.848 115.49 123.998 116.855 126.518L127.88 119.378Z" fill="black"/>
</g>
<path d="M72.02 116.963V117.963H72.0533L72.0865 117.961L72.02 116.963ZM60.155 116.753L60.2004 115.755L58.4988 115.677L59.2606 117.201L60.155 116.753ZM63.935 127.988L62.947 128.143L63.0791 128.988H63.935V127.988ZM81.26 126.308L81.6314 127.237L81.6396 127.234L81.26 126.308ZM86.51 96.2785V95.2785H85.51V96.2785H86.51ZM127.145 96.2785V97.2785H128.145V96.2785H127.145ZM127.145 84.5185H128.145V83.5185H127.145V84.5185ZM86.72 84.5185H85.72V85.5185H86.72V84.5185ZM86.72 74.7535V73.7535H85.72V74.7535H86.72ZM116.96 74.7535V75.7535H117.96V74.7535H116.96ZM116.96 63.6235H117.96V62.6235H116.96V63.6235ZM86.72 63.6235H85.72V64.6235H86.72V63.6235ZM86.72 53.7535H87.72V52.7535H86.72V53.7535ZM74.015 53.7535V52.7535H73.015V53.7535H74.015ZM74.015 84.5185V85.5185H75.015V84.5185H74.015ZM59.84 84.5185H58.84V85.5185H59.84V84.5185ZM59.84 60.7885H60.84V59.7885H59.84V60.7885ZM47.135 60.7885V59.7885H46.135V60.7885H47.135ZM47.135 84.5185V85.5185H48.135V84.5185H47.135ZM33.065 84.5185V83.5185H32.065V84.5185H33.065ZM33.065 96.2785H32.065V97.2785H33.065V96.2785ZM74.12 96.2785H75.12V95.2785H74.12V96.2785ZM52.28 97.5385L52.5752 96.5831L51.8071 96.3458L51.4103 97.0449L52.28 97.5385ZM32.75 118.328L32.2034 117.491L30.8506 118.374L32.2443 119.191L32.75 118.328ZM43.88 126.413L43.1881 127.135L43.8217 127.743L44.506 127.193L43.88 126.413ZM65.195 101.528L66.0626 102.026L66.6837 100.942L65.4902 100.573L65.195 101.528ZM127.88 119.378L128.424 120.218L129.237 119.691L128.736 118.862L127.88 119.378ZM107.195 97.1185L107.841 96.3555L107.283 95.8821L106.663 96.272L107.195 97.1185ZM97.01 103.523L96.4777 102.677L95.3502 103.386L96.3456 104.271L97.01 103.523ZM108.56 115.178L108.289 116.141L111.604 117.074L109.304 114.511L108.56 115.178ZM98.48 112.343L98.7508 111.381L97.9135 111.145L97.5642 111.942L98.48 112.343ZM41.045 140.378L40.9718 139.381L39.0778 139.52L40.2641 141.003L41.045 140.378ZM47.03 152.558L46.0629 152.813L46.285 153.657L47.1513 153.551L47.03 152.558ZM110.66 117.698L111.428 117.058L110.415 115.842L109.752 117.28L110.66 117.698ZM116.855 126.518L115.976 126.995L116.491 127.946L117.399 127.358L116.855 126.518ZM73.12 115.493C73.12 115.681 73.0952 115.755 73.089 115.77C73.0872 115.774 73.0891 115.769 73.0963 115.76C73.1033 115.751 73.1067 115.75 73.0983 115.756C73.0755 115.771 72.9948 115.816 72.7938 115.861C72.5947 115.906 72.3241 115.941 71.9535 115.966L72.0865 117.961C72.8671 117.909 73.6468 117.802 74.2229 117.41C74.9329 116.927 75.12 116.193 75.12 115.493H73.12ZM72.02 115.963C70.5473 115.963 64.7943 115.963 60.2004 115.755L60.1096 117.752C64.7557 117.964 70.5527 117.963 72.02 117.963V115.963ZM59.2606 117.201C60.8025 120.285 62.4419 124.91 62.947 128.143L64.923 127.834C64.3781 124.347 62.6575 119.522 61.0494 116.306L59.2606 117.201ZM63.935 128.988C71.4155 128.988 77.2109 129.005 81.6314 127.237L80.8886 125.38C76.9091 126.972 71.5745 126.988 63.935 126.988V128.988ZM81.6396 127.234C83.8856 126.312 85.4046 124.943 86.3259 122.98C87.2218 121.07 87.51 118.686 87.51 115.808H85.51C85.51 118.601 85.2207 120.627 84.5153 122.13C83.8354 123.579 82.7294 124.625 80.8804 125.383L81.6396 127.234ZM87.51 115.808V96.2785H85.51V115.808H87.51ZM86.51 97.2785H127.145V95.2785H86.51V97.2785ZM128.145 96.2785V84.5185H126.145V96.2785H128.145ZM127.145 83.5185H86.72V85.5185H127.145V83.5185ZM87.72 84.5185V74.7535H85.72V84.5185H87.72ZM86.72 75.7535H116.96V73.7535H86.72V75.7535ZM117.96 74.7535V63.6235H115.96V74.7535H117.96ZM116.96 62.6235H86.72V64.6235H116.96V62.6235ZM87.72 63.6235V53.7535H85.72V63.6235H87.72ZM86.72 52.7535H74.015V54.7535H86.72V52.7535ZM73.015 53.7535V84.5185H75.015V53.7535H73.015ZM74.015 83.5185H59.84V85.5185H74.015V83.5185ZM60.84 84.5185V60.7885H58.84V84.5185H60.84ZM59.84 59.7885H47.135V61.7885H59.84V59.7885ZM46.135 60.7885V84.5185H48.135V60.7885H46.135ZM47.135 83.5185H33.065V85.5185H47.135V83.5185ZM32.065 84.5185V96.2785H34.065V84.5185H32.065ZM33.065 97.2785H74.12V95.2785H33.065V97.2785ZM73.12 96.2785V115.493H75.12V96.2785H73.12ZM51.4103 97.0449C47.0785 104.677 39.6289 112.644 32.2034 117.491L33.2966 119.166C40.9911 114.143 48.6615 105.94 53.1497 98.0321L51.4103 97.0449ZM32.2443 119.191C35.2542 120.956 40.7462 124.795 43.1881 127.135L44.5719 125.692C41.9738 123.202 36.3358 119.271 33.2557 117.466L32.2443 119.191ZM44.506 127.193C52.0518 121.135 60.6413 111.486 66.0626 102.026L64.3274 101.031C59.0387 110.261 50.6182 119.722 43.254 125.634L44.506 127.193ZM65.4902 100.573L52.5752 96.5831L51.9848 98.4939L64.8998 102.484L65.4902 100.573ZM128.736 118.862C124.659 112.103 115.421 102.777 107.841 96.3555L106.549 97.8815C114.089 104.27 123.121 113.424 127.024 119.895L128.736 118.862ZM106.663 96.272L96.4777 102.677L97.5424 104.37L107.727 97.965L106.663 96.272ZM96.3456 104.271C100.089 107.599 104.157 111.77 107.816 115.846L109.304 114.511C105.613 110.397 101.491 106.168 97.6744 102.776L96.3456 104.271ZM108.831 114.216L98.7508 111.381L98.2093 113.306L108.289 116.141L108.831 114.216ZM97.5642 111.942C89.2038 131.008 70.9786 137.178 40.9718 139.381L41.1182 141.376C71.1714 139.169 90.5362 132.949 99.3958 112.745L97.5642 111.942ZM40.2641 141.003C42.6868 144.032 45.0441 148.942 46.0629 152.813L47.9971 152.304C46.9159 148.195 44.4432 143.025 41.8259 139.754L40.2641 141.003ZM47.1513 153.551C79.8777 149.552 100.837 141.404 111.568 118.117L109.752 117.28C99.4832 139.563 79.4923 147.585 46.9087 151.566L47.1513 153.551ZM109.892 118.339C112.49 121.456 114.652 124.551 115.976 126.995L117.734 126.042C116.328 123.446 114.08 120.241 111.428 117.058L109.892 118.339ZM117.399 127.358L128.424 120.218L127.336 118.539L116.311 125.679L117.399 127.358Z" fill="black"/>
</g>
<defs>
<filter id="filter0_d" x="2.68152" y="1" width="174.556" height="216" filterUnits="userSpaceOnUse" color-interpolation-filters="sRGB">
<feFlood flood-opacity="0" result="BackgroundImageFix"/>
<feColorMatrix in="SourceAlpha" type="matrix" values="0 0 0 0 0 0 0 0 0 0 0 0 0 0 0 0 0 0 127 0"/>
<feOffset dx="15" dy="15"/>
<feGaussianBlur stdDeviation="2"/>
<feColorMatrix type="matrix" values="0 0 0 0 0 0 0 0 0 0 0 0 0 0 0 0 0 0 0.5 0"/>
<feBlend mode="normal" in2="BackgroundImageFix" result="effect1_dropShadow"/>
<feBlend mode="normal" in="SourceGraphic" in2="effect1_dropShadow" result="shape"/>
</filter>
<filter id="filter1_b" x="-1.31848" y="-3" width="163.531" height="194.648" filterUnits="userSpaceOnUse" color-interpolation-filters="sRGB">
<feFlood flood-opacity="0" result="BackgroundImageFix"/>
<feGaussianBlur in="BackgroundImage" stdDeviation="2"/>
<feComposite in2="SourceAlpha" operator="in" result="effect1_backgroundBlur"/>
<feBlend mode="normal" in="SourceGraphic" in2="effect1_backgroundBlur" result="shape"/>
</filter>
<filter id="filter2_i" x="30.8506" y="52.7534" width="98.386" height="108.903" filterUnits="userSpaceOnUse" color-interpolation-filters="sRGB">
<feFlood flood-opacity="0" result="BackgroundImageFix"/>
<feBlend mode="normal" in="SourceGraphic" in2="BackgroundImageFix" result="shape"/>
<feColorMatrix in="SourceAlpha" type="matrix" values="0 0 0 0 0 0 0 0 0 0 0 0 0 0 0 0 0 0 127 0" result="hardAlpha"/>
<feOffset dy="8"/>
<feGaussianBlur stdDeviation="4"/>
<feComposite in2="hardAlpha" operator="arithmetic" k2="-1" k3="1"/>
<feColorMatrix type="matrix" values="0 0 0 0 0 0 0 0 0 0 0 0 0 0 0 0 0 0 0.35 0"/>
<feBlend mode="normal" in2="shape" result="effect1_innerShadow"/>
</filter>
</defs>
</svg>
