<svg width="236" height="247" viewBox="0 0 236 247" fill="none" xmlns="http://www.w3.org/2000/svg">
<rect width="236" height="247" fill="#FF6262"/>
<g filter="url(#filter0_d)">
<g filter="url(#filter1_b)">
<path d="M17 31.4897L90 0L162 31.4897L177 216.741H2L17 31.4897Z" fill="#F5DA94"/>
<path d="M2.54212 216.241L17.4741 31.8297L89.9986 0.545129L161.526 31.828L176.458 216.241H2.54212Z" stroke="#F5DA94"/>
</g>
<rect x="2" y="216.741" width="175" height="11.2593" fill="#C5A05A"/>
<g filter="url(#filter2_i)">
<path d="M132.48 64C130.44 67.6 126.6 73.12 123.6 76.36L132 81.04C135.6 78.28 139.92 74.08 144.72 69.76L132.48 64ZM143.76 89.08C138.72 85 128.52 78.88 121.08 75.16L117.24 78.76C116.64 74.92 116.28 70.84 116.04 66.76H41.52V79.48H104.4C107.04 98.32 113.28 114.28 132.48 116.68C139.92 118.12 144.72 114.16 146.76 103.6C144.12 101.92 141 98.56 138.72 95.8C138 101.08 137.04 104.56 135.48 104.32C126.6 103.6 121.56 96.04 118.8 85.96C125.16 89.8 131.88 94.24 135.36 97.48L143.76 89.08ZM138.84 149.44C138.12 156.28 137.16 160.72 135.6 160.48C127.44 159.76 123.12 151.72 120.72 140.44C126.96 144.16 133.44 148.36 136.92 151.48L138.84 149.44ZM145.2 142.84C142.2 140.32 137.4 137.32 132.36 134.56C135.84 131.8 140.16 127.72 144.84 123.52L132.6 117.76C130.56 121.36 126.72 126.64 123.72 130L121.32 128.8L119.28 130.84C118.56 124.72 118.32 118.12 118.2 111.64H92.64V82.84H78.72V111.64H64.92V94.6H64.2C68.64 91.84 72.72 88.84 75.96 85.72L63.84 81.04C57.12 86.68 44.52 91.48 33.24 94.36C35.76 96.88 39.6 102.52 41.28 105.28C44.52 104.2 48 102.76 51.36 101.32V111.64H35.64V124.6H51.12C50.28 138.04 46.68 152.44 33.12 163.84C36.36 165.88 41.4 170.44 43.68 173.44C60 159.52 63.96 141.28 64.8 124.6H78.72V171.76H92.64V124.6H105.48C107.04 149.44 111.72 170.56 132.36 173.32C140.28 174.88 144.96 170.32 147 157.72C144.36 156.16 141.24 152.56 138.96 149.44L145.2 142.84Z" fill="black"/>
</g>
<path d="M132.48 64L132.906 63.0952L132.067 62.7005L131.61 63.507L132.48 64ZM123.6 76.36L122.866 75.6806L122.002 76.6143L123.113 77.2336L123.6 76.36ZM132 81.04L131.513 81.9136L132.087 82.2333L132.608 81.8336L132 81.04ZM144.72 69.76L145.389 70.5033L146.508 69.4962L145.146 68.8552L144.72 69.76ZM143.76 89.08L144.467 89.7871L145.253 89.0017L144.389 88.3027L143.76 89.08ZM121.08 75.16L121.527 74.2656L120.904 73.9541L120.396 74.4305L121.08 75.16ZM117.24 78.76L116.252 78.9144L116.544 80.7832L117.924 79.4895L117.24 78.76ZM116.04 66.76L117.038 66.7013L116.983 65.76H116.04V66.76ZM41.52 66.76V65.76H40.52V66.76H41.52ZM41.52 79.48H40.52V80.48H41.52V79.48ZM104.4 79.48L105.39 79.3412L105.27 78.48H104.4V79.48ZM132.48 116.68L132.67 115.698L132.637 115.692L132.604 115.688L132.48 116.68ZM146.76 103.6L147.742 103.79L147.871 103.122L147.297 102.756L146.76 103.6ZM138.72 95.8L139.491 95.1631L138.038 93.4037L137.729 95.6649L138.72 95.8ZM135.48 104.32L135.632 103.332L135.597 103.326L135.561 103.323L135.48 104.32ZM118.8 85.96L119.317 85.1039L117.175 83.8105L117.836 86.2241L118.8 85.96ZM135.36 97.48L134.679 98.2119L135.385 98.8694L136.067 98.1871L135.36 97.48ZM138.84 149.44L139.835 149.545L140.145 146.594L138.112 148.755L138.84 149.44ZM135.6 160.48L135.752 159.492L135.72 159.487L135.688 159.484L135.6 160.48ZM120.72 140.44L121.232 139.581L119.265 138.409L119.742 140.648L120.72 140.44ZM136.92 151.48L136.252 152.225L136.979 152.876L137.648 152.165L136.92 151.48ZM145.2 142.84L145.927 143.527L146.655 142.756L145.843 142.074L145.2 142.84ZM132.36 134.56L131.739 133.777L130.558 134.713L131.88 135.437L132.36 134.56ZM144.84 123.52L145.508 124.264L146.63 123.257L145.266 122.615L144.84 123.52ZM132.6 117.76L133.026 116.855L132.187 116.46L131.73 117.267L132.6 117.76ZM123.72 130L123.273 130.894L123.957 131.236L124.466 130.666L123.72 130ZM121.32 128.8L121.767 127.906L121.123 127.583L120.613 128.093L121.32 128.8ZM119.28 130.84L118.287 130.957L118.528 133.006L119.987 131.547L119.28 130.84ZM118.2 111.64L119.2 111.621L119.182 110.64H118.2V111.64ZM92.64 111.64H91.64V112.64H92.64V111.64ZM92.64 82.84H93.64V81.84H92.64V82.84ZM78.72 82.84V81.84H77.72V82.84H78.72ZM78.72 111.64V112.64H79.72V111.64H78.72ZM64.92 111.64H63.92V112.64H64.92V111.64ZM64.92 94.6H65.92V93.6H64.92V94.6ZM64.2 94.6L63.6721 93.7507L60.6971 95.6H64.2V94.6ZM75.96 85.72L76.6536 86.4403L77.7836 85.3522L76.3202 84.7871L75.96 85.72ZM63.84 81.04L64.2002 80.1071L63.6494 79.8944L63.1971 80.274L63.84 81.04ZM33.24 94.36L32.9926 93.3911L31.2913 93.8255L32.5329 95.0671L33.24 94.36ZM41.28 105.28L40.4258 105.8L40.8402 106.481L41.5962 106.229L41.28 105.28ZM51.36 101.32H52.36V99.8035L50.9661 100.401L51.36 101.32ZM51.36 111.64V112.64H52.36V111.64H51.36ZM35.64 111.64V110.64H34.64V111.64H35.64ZM35.64 124.6H34.64V125.6H35.64V124.6ZM51.12 124.6L52.1181 124.662L52.1845 123.6H51.12V124.6ZM33.12 163.84L32.4765 163.075L31.4278 163.956L32.5872 164.686L33.12 163.84ZM43.68 173.44L42.8838 174.045L43.524 174.887L44.3289 174.201L43.68 173.44ZM64.8 124.6V123.6H63.8491L63.8013 124.55L64.8 124.6ZM78.72 124.6H79.72V123.6H78.72V124.6ZM78.72 171.76H77.72V172.76H78.72V171.76ZM92.64 171.76V172.76H93.64V171.76H92.64ZM92.64 124.6V123.6H91.64V124.6H92.64ZM105.48 124.6L106.478 124.537L106.419 123.6H105.48V124.6ZM132.36 173.32L132.553 172.339L132.523 172.333L132.493 172.329L132.36 173.32ZM147 157.72L147.987 157.88L148.096 157.206L147.509 156.859L147 157.72ZM138.96 149.44L138.233 148.753L137.661 149.358L138.153 150.03L138.96 149.44ZM131.61 63.507C129.599 67.0557 125.803 72.5093 122.866 75.6806L124.334 77.0394C127.397 73.7307 131.281 68.1443 133.35 64.493L131.61 63.507ZM123.113 77.2336L131.513 81.9136L132.487 80.1664L124.087 75.4864L123.113 77.2336ZM132.608 81.8336C136.25 79.0419 140.637 74.7796 145.389 70.5033L144.051 69.0167C139.203 73.3804 134.95 77.5181 131.392 80.2464L132.608 81.8336ZM145.146 68.8552L132.906 63.0952L132.054 64.9048L144.294 70.6648L145.146 68.8552ZM144.389 88.3027C139.27 84.1587 128.999 78.0014 121.527 74.2656L120.633 76.0544C128.041 79.7586 138.17 85.8413 143.131 89.8572L144.389 88.3027ZM120.396 74.4305L116.556 78.0305L117.924 79.4895L121.764 75.8895L120.396 74.4305ZM118.228 78.6056C117.635 74.8093 117.277 70.7642 117.038 66.7013L115.042 66.8187C115.283 70.9158 115.645 75.0307 116.252 78.9144L118.228 78.6056ZM116.04 65.76H41.52V67.76H116.04V65.76ZM40.52 66.76V79.48H42.52V66.76H40.52ZM41.52 80.48H104.4V78.48H41.52V80.48ZM103.41 79.6188C104.736 89.0827 106.98 97.9572 111.39 104.787C115.834 111.671 122.451 116.434 132.356 117.672L132.604 115.688C123.309 114.526 117.206 110.109 113.07 103.703C108.9 97.2428 106.704 88.7173 105.39 79.3412L103.41 79.6188ZM132.29 117.662C136.234 118.425 139.637 117.774 142.311 115.386C144.934 113.043 146.704 109.16 147.742 103.79L145.778 103.41C144.776 108.6 143.126 111.977 140.979 113.894C138.883 115.766 136.166 116.375 132.67 115.698L132.29 117.662ZM147.297 102.756C144.802 101.169 141.768 97.9193 139.491 95.1631L137.949 96.4369C140.232 99.2007 143.438 102.671 146.223 104.444L147.297 102.756ZM137.729 95.6649C137.37 98.2953 136.961 100.401 136.471 101.8C136.224 102.507 135.984 102.947 135.783 103.183C135.688 103.294 135.629 103.327 135.615 103.333C135.61 103.336 135.612 103.334 135.621 103.332C135.63 103.331 135.635 103.332 135.632 103.332L135.328 105.308C136.173 105.438 136.844 105.02 137.303 104.482C137.743 103.968 138.081 103.253 138.359 102.46C138.919 100.859 139.35 98.5847 139.711 95.9351L137.729 95.6649ZM135.561 103.323C127.355 102.658 122.501 95.6896 119.764 85.6959L117.836 86.2241C120.619 96.3904 125.845 104.542 135.399 105.317L135.561 103.323ZM118.283 86.8161C124.648 90.6589 131.284 95.0512 134.679 98.2119L136.041 96.7481C132.476 93.4287 125.672 88.9411 119.317 85.1039L118.283 86.8161ZM136.067 98.1871L144.467 89.7871L143.053 88.3729L134.653 96.7729L136.067 98.1871ZM137.846 149.335C137.486 152.748 137.073 155.501 136.57 157.353C136.316 158.29 136.06 158.914 135.827 159.27C135.582 159.644 135.555 159.461 135.752 159.492L135.448 161.468C136.425 161.619 137.103 160.971 137.5 160.366C137.908 159.743 138.229 158.875 138.5 157.877C139.047 155.859 139.474 152.972 139.835 149.545L137.846 149.335ZM135.688 159.484C131.97 159.156 129.097 157.177 126.825 153.856C124.533 150.502 122.887 145.82 121.698 140.232L119.742 140.648C120.953 146.34 122.667 151.318 125.175 154.984C127.703 158.683 131.07 161.084 135.512 161.476L135.688 159.484ZM120.208 141.299C126.452 145.022 132.854 149.177 136.252 152.225L137.588 150.735C134.026 147.543 127.468 143.298 121.232 139.581L120.208 141.299ZM137.648 152.165L139.568 150.125L138.112 148.755L136.192 150.795L137.648 152.165ZM145.843 142.074C142.766 139.489 137.896 136.452 132.84 133.683L131.88 135.437C136.904 138.188 141.634 141.151 144.557 143.606L145.843 142.074ZM132.981 135.343C136.493 132.558 140.861 128.435 145.508 124.264L144.172 122.776C139.459 127.005 135.187 131.042 131.739 133.777L132.981 135.343ZM145.266 122.615L133.026 116.855L132.174 118.665L144.414 124.425L145.266 122.615ZM131.73 117.267C129.729 120.799 125.932 126.021 122.974 129.334L124.466 130.666C127.508 127.259 131.391 121.921 133.47 118.253L131.73 117.267ZM124.167 129.106L121.767 127.906L120.873 129.694L123.273 130.894L124.167 129.106ZM120.613 128.093L118.573 130.133L119.987 131.547L122.027 129.507L120.613 128.093ZM120.273 130.723C119.559 124.654 119.32 118.095 119.2 111.621L117.2 111.659C117.32 118.145 117.561 124.786 118.287 130.957L120.273 130.723ZM118.2 110.64H92.64V112.64H118.2V110.64ZM93.64 111.64V82.84H91.64V111.64H93.64ZM92.64 81.84H78.72V83.84H92.64V81.84ZM77.72 82.84V111.64H79.72V82.84H77.72ZM78.72 110.64H64.92V112.64H78.72V110.64ZM65.92 111.64V94.6H63.92V111.64H65.92ZM64.92 93.6H64.2V95.6H64.92V93.6ZM64.7279 95.4493C69.2055 92.6659 73.3473 89.6242 76.6536 86.4403L75.2664 84.9997C72.0927 88.0558 68.0745 91.0141 63.6721 93.7507L64.7279 95.4493ZM76.3202 84.7871L64.2002 80.1071L63.4798 81.9729L75.5998 86.6529L76.3202 84.7871ZM63.1971 80.274C56.659 85.7614 44.2463 90.5178 32.9926 93.3911L33.4874 95.3289C44.7937 92.4422 57.581 87.5986 64.4829 81.806L63.1971 80.274ZM32.5329 95.0671C34.9626 97.4968 38.7511 103.049 40.4258 105.8L42.1342 104.76C40.4489 101.991 36.5574 96.2632 33.9471 93.6529L32.5329 95.0671ZM41.5962 106.229C44.8786 105.135 48.3913 103.68 51.7539 102.239L50.9661 100.401C47.6087 101.84 44.1614 103.265 40.9638 104.331L41.5962 106.229ZM50.36 101.32V111.64H52.36V101.32H50.36ZM51.36 110.64H35.64V112.64H51.36V110.64ZM34.64 111.64V124.6H36.64V111.64H34.64ZM35.64 125.6H51.12V123.6H35.64V125.6ZM50.1219 124.538C49.2906 137.838 45.7429 151.921 32.4765 163.075L33.7635 164.605C47.6171 152.959 51.2694 138.242 52.1181 124.662L50.1219 124.538ZM32.5872 164.686C35.7307 166.665 40.68 171.145 42.8838 174.045L44.4762 172.835C42.12 169.735 36.9893 165.095 33.6528 162.994L32.5872 164.686ZM44.3289 174.201C60.9556 160.019 64.953 141.444 65.7987 124.65L63.8013 124.55C62.967 141.116 59.0444 159.021 43.0311 172.679L44.3289 174.201ZM64.8 125.6H78.72V123.6H64.8V125.6ZM77.72 124.6V171.76H79.72V124.6H77.72ZM78.72 172.76H92.64V170.76H78.72V172.76ZM93.64 171.76V124.6H91.64V171.76H93.64ZM92.64 125.6H105.48V123.6H92.64V125.6ZM104.482 124.663C105.263 137.095 106.828 148.744 110.854 157.652C114.91 166.629 121.498 172.876 132.227 174.311L132.493 172.329C122.582 171.004 116.51 165.311 112.676 156.828C108.812 148.276 107.257 136.945 106.478 124.537L104.482 124.663ZM132.167 174.301C136.374 175.13 139.9 174.346 142.607 171.522C145.237 168.778 146.958 164.238 147.987 157.88L146.013 157.56C145.002 163.802 143.363 167.842 141.163 170.138C139.04 172.354 136.266 173.07 132.553 172.339L132.167 174.301ZM147.509 156.859C145.061 155.413 142.044 151.965 139.767 148.85L138.153 150.03C140.436 153.155 143.659 156.907 146.491 158.581L147.509 156.859ZM139.687 150.127L145.927 143.527L144.473 142.153L138.233 148.753L139.687 150.127Z" fill="black"/>
</g>
<defs>
<filter id="filter0_d" x="2" y="0" width="194" height="247" filterUnits="userSpaceOnUse" color-interpolation-filters="sRGB">
<feFlood flood-opacity="0" result="BackgroundImageFix"/>
<feColorMatrix in="SourceAlpha" type="matrix" values="0 0 0 0 0 0 0 0 0 0 0 0 0 0 0 0 0 0 127 0"/>
<feOffset dx="15" dy="15"/>
<feGaussianBlur stdDeviation="2"/>
<feColorMatrix type="matrix" values="0 0 0 0 0 0 0 0 0 0 0 0 0 0 0 0 0 0 0.5 0"/>
<feBlend mode="normal" in2="BackgroundImageFix" result="effect1_dropShadow"/>
<feBlend mode="normal" in="SourceGraphic" in2="effect1_dropShadow" result="shape"/>
</filter>
<filter id="filter1_b" x="-2" y="-4" width="183" height="224.741" filterUnits="userSpaceOnUse" color-interpolation-filters="sRGB">
<feFlood flood-opacity="0" result="BackgroundImageFix"/>
<feGaussianBlur in="BackgroundImage" stdDeviation="2"/>
<feComposite in2="SourceAlpha" operator="in" result="effect1_backgroundBlur"/>
<feBlend mode="normal" in="SourceGraphic" in2="effect1_backgroundBlur" result="shape"/>
</filter>
<filter id="filter2_i" x="31.2913" y="62.7004" width="116.805" height="116.187" filterUnits="userSpaceOnUse" color-interpolation-filters="sRGB">
<feFlood flood-opacity="0" result="BackgroundImageFix"/>
<feBlend mode="normal" in="SourceGraphic" in2="BackgroundImageFix" result="shape"/>
<feColorMatrix in="SourceAlpha" type="matrix" values="0 0 0 0 0 0 0 0 0 0 0 0 0 0 0 0 0 0 127 0" result="hardAlpha"/>
<feOffset dy="4"/>
<feGaussianBlur stdDeviation="2"/>
<feComposite in2="hardAlpha" operator="arithmetic" k2="-1" k3="1"/>
<feColorMatrix type="matrix" values="0 0 0 0 0 0 0 0 0 0 0 0 0 0 0 0 0 0 0.25 0"/>
<feBlend mode="normal" in2="shape" result="effect1_innerShadow"/>
</filter>
</defs>
</svg>
