<svg width="236" height="247" viewBox="0 0 236 247" fill="none" xmlns="http://www.w3.org/2000/svg">
<rect width="236" height="247" fill="#FDF1DB"/>
<g filter="url(#filter0_d)">
<g filter="url(#filter1_b)">
<path d="M45 41.4897L118 10L190 41.4897L205 226.741H30L45 41.4897Z" fill="#F5DA94"/>
<path d="M30.5421 226.241L45.4741 41.8297L117.999 10.5451L189.526 41.828L204.458 226.241H30.5421Z" stroke="#F5DA94"/>
</g>
<rect x="30" y="226.741" width="175" height="11.2593" fill="#C5A05A"/>
<g filter="url(#filter2_i)">
<path d="M160.48 74C158.44 77.6 154.6 83.12 151.6 86.36L160 91.04C163.6 88.28 167.92 84.08 172.72 79.76L160.48 74ZM171.76 99.08C166.72 95 156.52 88.88 149.08 85.16L145.24 88.76C144.64 84.92 144.28 80.84 144.04 76.76H69.52V89.48H132.4C135.04 108.32 141.28 124.28 160.48 126.68C167.92 128.12 172.72 124.16 174.76 113.6C172.12 111.92 169 108.56 166.72 105.8C166 111.08 165.04 114.56 163.48 114.32C154.6 113.6 149.56 106.04 146.8 95.96C153.16 99.8 159.88 104.24 163.36 107.48L171.76 99.08ZM166.84 159.44C166.12 166.28 165.16 170.72 163.6 170.48C155.44 169.76 151.12 161.72 148.72 150.44C154.96 154.16 161.44 158.36 164.92 161.48L166.84 159.44ZM173.2 152.84C170.2 150.32 165.4 147.32 160.36 144.56C163.84 141.8 168.16 137.72 172.84 133.52L160.6 127.76C158.56 131.36 154.72 136.64 151.72 140L149.32 138.8L147.28 140.84C146.56 134.72 146.32 128.12 146.2 121.64H120.64V92.84H106.72V121.64H92.92V104.6H92.2C96.64 101.84 100.72 98.84 103.96 95.72L91.84 91.04C85.12 96.68 72.52 101.48 61.24 104.36C63.76 106.88 67.6 112.52 69.28 115.28C72.52 114.2 76 112.76 79.36 111.32V121.64H63.64V134.6H79.12C78.28 148.04 74.68 162.44 61.12 173.84C64.36 175.88 69.4 180.44 71.68 183.44C88 169.52 91.96 151.28 92.8 134.6H106.72V181.76H120.64V134.6H133.48C135.04 159.44 139.72 180.56 160.36 183.32C168.28 184.88 172.96 180.32 175 167.72C172.36 166.16 169.24 162.56 166.96 159.44L173.2 152.84Z" fill="black"/>
</g>
<path d="M160.48 74L160.906 73.0952L160.067 72.7005L159.61 73.507L160.48 74ZM151.6 86.36L150.866 85.6806L150.002 86.6143L151.113 87.2336L151.6 86.36ZM160 91.04L159.513 91.9136L160.087 92.2333L160.608 91.8336L160 91.04ZM172.72 79.76L173.389 80.5033L174.508 79.4962L173.146 78.8552L172.72 79.76ZM171.76 99.08L172.467 99.7871L173.253 99.0017L172.389 98.3027L171.76 99.08ZM149.08 85.16L149.527 84.2656L148.904 83.9541L148.396 84.4305L149.08 85.16ZM145.24 88.76L144.252 88.9144L144.544 90.7832L145.924 89.4895L145.24 88.76ZM144.04 76.76L145.038 76.7013L144.983 75.76H144.04V76.76ZM69.52 76.76V75.76H68.52V76.76H69.52ZM69.52 89.48H68.52V90.48H69.52V89.48ZM132.4 89.48L133.39 89.3412L133.27 88.48H132.4V89.48ZM160.48 126.68L160.67 125.698L160.637 125.692L160.604 125.688L160.48 126.68ZM174.76 113.6L175.742 113.79L175.871 113.122L175.297 112.756L174.76 113.6ZM166.72 105.8L167.491 105.163L166.038 103.404L165.729 105.665L166.72 105.8ZM163.48 114.32L163.632 113.332L163.597 113.326L163.561 113.323L163.48 114.32ZM146.8 95.96L147.317 95.1039L145.175 93.8105L145.836 96.2241L146.8 95.96ZM163.36 107.48L162.679 108.212L163.385 108.869L164.067 108.187L163.36 107.48ZM166.84 159.44L167.835 159.545L168.145 156.594L166.112 158.755L166.84 159.44ZM163.6 170.48L163.752 169.492L163.72 169.487L163.688 169.484L163.6 170.48ZM148.72 150.44L149.232 149.581L147.265 148.409L147.742 150.648L148.72 150.44ZM164.92 161.48L164.252 162.225L164.979 162.876L165.648 162.165L164.92 161.48ZM173.2 152.84L173.927 153.527L174.655 152.756L173.843 152.074L173.2 152.84ZM160.36 144.56L159.739 143.777L158.558 144.713L159.88 145.437L160.36 144.56ZM172.84 133.52L173.508 134.264L174.63 133.257L173.266 132.615L172.84 133.52ZM160.6 127.76L161.026 126.855L160.187 126.46L159.73 127.267L160.6 127.76ZM151.72 140L151.273 140.894L151.957 141.236L152.466 140.666L151.72 140ZM149.32 138.8L149.767 137.906L149.123 137.583L148.613 138.093L149.32 138.8ZM147.28 140.84L146.287 140.957L146.528 143.006L147.987 141.547L147.28 140.84ZM146.2 121.64L147.2 121.621L147.182 120.64H146.2V121.64ZM120.64 121.64H119.64V122.64H120.64V121.64ZM120.64 92.84H121.64V91.84H120.64V92.84ZM106.72 92.84V91.84H105.72V92.84H106.72ZM106.72 121.64V122.64H107.72V121.64H106.72ZM92.92 121.64H91.92V122.64H92.92V121.64ZM92.92 104.6H93.92V103.6H92.92V104.6ZM92.2 104.6L91.6721 103.751L88.6971 105.6H92.2V104.6ZM103.96 95.72L104.654 96.4403L105.784 95.3522L104.32 94.7871L103.96 95.72ZM91.84 91.04L92.2002 90.1071L91.6494 89.8944L91.1971 90.274L91.84 91.04ZM61.24 104.36L60.9926 103.391L59.2913 103.825L60.5329 105.067L61.24 104.36ZM69.28 115.28L68.4258 115.8L68.8402 116.481L69.5962 116.229L69.28 115.28ZM79.36 111.32H80.36V109.803L78.9661 110.401L79.36 111.32ZM79.36 121.64V122.64H80.36V121.64H79.36ZM63.64 121.64V120.64H62.64V121.64H63.64ZM63.64 134.6H62.64V135.6H63.64V134.6ZM79.12 134.6L80.1181 134.662L80.1845 133.6H79.12V134.6ZM61.12 173.84L60.4765 173.075L59.4278 173.956L60.5872 174.686L61.12 173.84ZM71.68 183.44L70.8838 184.045L71.524 184.887L72.3289 184.201L71.68 183.44ZM92.8 134.6V133.6H91.8491L91.8013 134.55L92.8 134.6ZM106.72 134.6H107.72V133.6H106.72V134.6ZM106.72 181.76H105.72V182.76H106.72V181.76ZM120.64 181.76V182.76H121.64V181.76H120.64ZM120.64 134.6V133.6H119.64V134.6H120.64ZM133.48 134.6L134.478 134.537L134.419 133.6H133.48V134.6ZM160.36 183.32L160.553 182.339L160.523 182.333L160.493 182.329L160.36 183.32ZM175 167.72L175.987 167.88L176.096 167.206L175.509 166.859L175 167.72ZM166.96 159.44L166.233 158.753L165.661 159.358L166.153 160.03L166.96 159.44ZM159.61 73.507C157.599 77.0557 153.803 82.5093 150.866 85.6806L152.334 87.0394C155.397 83.7307 159.281 78.1443 161.35 74.493L159.61 73.507ZM151.113 87.2336L159.513 91.9136L160.487 90.1664L152.087 85.4864L151.113 87.2336ZM160.608 91.8336C164.25 89.0419 168.637 84.7796 173.389 80.5033L172.051 79.0167C167.203 83.3804 162.95 87.5181 159.392 90.2464L160.608 91.8336ZM173.146 78.8552L160.906 73.0952L160.054 74.9048L172.294 80.6648L173.146 78.8552ZM172.389 98.3027C167.27 94.1587 156.999 88.0014 149.527 84.2656L148.633 86.0544C156.041 89.7586 166.17 95.8413 171.131 99.8572L172.389 98.3027ZM148.396 84.4305L144.556 88.0305L145.924 89.4895L149.764 85.8895L148.396 84.4305ZM146.228 88.6056C145.635 84.8093 145.277 80.7642 145.038 76.7013L143.042 76.8187C143.283 80.9158 143.645 85.0307 144.252 88.9144L146.228 88.6056ZM144.04 75.76H69.52V77.76H144.04V75.76ZM68.52 76.76V89.48H70.52V76.76H68.52ZM69.52 90.48H132.4V88.48H69.52V90.48ZM131.41 89.6188C132.736 99.0827 134.98 107.957 139.39 114.787C143.834 121.671 150.451 126.434 160.356 127.672L160.604 125.688C151.309 124.526 145.206 120.109 141.07 113.703C136.9 107.243 134.704 98.7173 133.39 89.3412L131.41 89.6188ZM160.29 127.662C164.234 128.425 167.637 127.774 170.311 125.386C172.934 123.043 174.704 119.16 175.742 113.79L173.778 113.41C172.776 118.6 171.126 121.977 168.979 123.894C166.883 125.766 164.166 126.375 160.67 125.698L160.29 127.662ZM175.297 112.756C172.802 111.169 169.768 107.919 167.491 105.163L165.949 106.437C168.232 109.201 171.438 112.671 174.223 114.444L175.297 112.756ZM165.729 105.665C165.37 108.295 164.961 110.401 164.471 111.8C164.224 112.507 163.984 112.947 163.783 113.183C163.688 113.294 163.629 113.327 163.615 113.333C163.61 113.336 163.612 113.334 163.621 113.332C163.63 113.331 163.635 113.332 163.632 113.332L163.328 115.308C164.173 115.438 164.844 115.02 165.303 114.482C165.743 113.968 166.081 113.253 166.359 112.46C166.919 110.859 167.35 108.585 167.711 105.935L165.729 105.665ZM163.561 113.323C155.355 112.658 150.501 105.69 147.764 95.6959L145.836 96.2241C148.619 106.39 153.845 114.542 163.399 115.317L163.561 113.323ZM146.283 96.8161C152.648 100.659 159.284 105.051 162.679 108.212L164.041 106.748C160.476 103.429 153.672 98.9411 147.317 95.1039L146.283 96.8161ZM164.067 108.187L172.467 99.7871L171.053 98.3729L162.653 106.773L164.067 108.187ZM165.846 159.335C165.486 162.748 165.073 165.501 164.57 167.353C164.316 168.29 164.06 168.914 163.827 169.27C163.582 169.644 163.555 169.461 163.752 169.492L163.448 171.468C164.425 171.619 165.103 170.971 165.5 170.366C165.908 169.743 166.229 168.875 166.5 167.877C167.047 165.859 167.474 162.972 167.835 159.545L165.846 159.335ZM163.688 169.484C159.97 169.156 157.097 167.177 154.825 163.856C152.533 160.502 150.887 155.82 149.698 150.232L147.742 150.648C148.953 156.34 150.667 161.318 153.175 164.984C155.703 168.683 159.07 171.084 163.512 171.476L163.688 169.484ZM148.208 151.299C154.452 155.022 160.854 159.177 164.252 162.225L165.588 160.735C162.026 157.543 155.468 153.298 149.232 149.581L148.208 151.299ZM165.648 162.165L167.568 160.125L166.112 158.755L164.192 160.795L165.648 162.165ZM173.843 152.074C170.766 149.489 165.896 146.452 160.84 143.683L159.88 145.437C164.904 148.188 169.634 151.151 172.557 153.606L173.843 152.074ZM160.981 145.343C164.493 142.558 168.861 138.435 173.508 134.264L172.172 132.776C167.459 137.005 163.187 141.042 159.739 143.777L160.981 145.343ZM173.266 132.615L161.026 126.855L160.174 128.665L172.414 134.425L173.266 132.615ZM159.73 127.267C157.729 130.799 153.932 136.021 150.974 139.334L152.466 140.666C155.508 137.259 159.391 131.921 161.47 128.253L159.73 127.267ZM152.167 139.106L149.767 137.906L148.873 139.694L151.273 140.894L152.167 139.106ZM148.613 138.093L146.573 140.133L147.987 141.547L150.027 139.507L148.613 138.093ZM148.273 140.723C147.559 134.654 147.32 128.095 147.2 121.621L145.2 121.659C145.32 128.145 145.561 134.786 146.287 140.957L148.273 140.723ZM146.2 120.64H120.64V122.64H146.2V120.64ZM121.64 121.64V92.84H119.64V121.64H121.64ZM120.64 91.84H106.72V93.84H120.64V91.84ZM105.72 92.84V121.64H107.72V92.84H105.72ZM106.72 120.64H92.92V122.64H106.72V120.64ZM93.92 121.64V104.6H91.92V121.64H93.92ZM92.92 103.6H92.2V105.6H92.92V103.6ZM92.7279 105.449C97.2055 102.666 101.347 99.6242 104.654 96.4403L103.266 94.9997C100.093 98.0558 96.0745 101.014 91.6721 103.751L92.7279 105.449ZM104.32 94.7871L92.2002 90.1071L91.4798 91.9729L103.6 96.6529L104.32 94.7871ZM91.1971 90.274C84.659 95.7614 72.2463 100.518 60.9926 103.391L61.4874 105.329C72.7937 102.442 85.581 97.5986 92.4829 91.806L91.1971 90.274ZM60.5329 105.067C62.9626 107.497 66.7511 113.049 68.4258 115.8L70.1342 114.76C68.4489 111.991 64.5574 106.263 61.9471 103.653L60.5329 105.067ZM69.5962 116.229C72.8786 115.135 76.3913 113.68 79.7539 112.239L78.9661 110.401C75.6087 111.84 72.1614 113.265 68.9638 114.331L69.5962 116.229ZM78.36 111.32V121.64H80.36V111.32H78.36ZM79.36 120.64H63.64V122.64H79.36V120.64ZM62.64 121.64V134.6H64.64V121.64H62.64ZM63.64 135.6H79.12V133.6H63.64V135.6ZM78.1219 134.538C77.2906 147.838 73.7429 161.921 60.4765 173.075L61.7635 174.605C75.6171 162.959 79.2694 148.242 80.1181 134.662L78.1219 134.538ZM60.5872 174.686C63.7307 176.665 68.68 181.145 70.8838 184.045L72.4762 182.835C70.12 179.735 64.9893 175.095 61.6528 172.994L60.5872 174.686ZM72.3289 184.201C88.9556 170.019 92.953 151.444 93.7987 134.65L91.8013 134.55C90.967 151.116 87.0444 169.021 71.0311 182.679L72.3289 184.201ZM92.8 135.6H106.72V133.6H92.8V135.6ZM105.72 134.6V181.76H107.72V134.6H105.72ZM106.72 182.76H120.64V180.76H106.72V182.76ZM121.64 181.76V134.6H119.64V181.76H121.64ZM120.64 135.6H133.48V133.6H120.64V135.6ZM132.482 134.663C133.263 147.095 134.828 158.744 138.854 167.652C142.91 176.629 149.498 182.876 160.227 184.311L160.493 182.329C150.582 181.004 144.51 175.311 140.676 166.828C136.812 158.276 135.257 146.945 134.478 134.537L132.482 134.663ZM160.167 184.301C164.374 185.13 167.9 184.346 170.607 181.522C173.237 178.778 174.958 174.238 175.987 167.88L174.013 167.56C173.002 173.802 171.363 177.842 169.163 180.138C167.04 182.354 164.266 183.07 160.553 182.339L160.167 184.301ZM175.509 166.859C173.061 165.413 170.044 161.965 167.767 158.85L166.153 160.03C168.436 163.155 171.659 166.907 174.491 168.581L175.509 166.859ZM167.687 160.127L173.927 153.527L172.473 152.153L166.233 158.753L167.687 160.127Z" fill="black"/>
</g>
<defs>
<filter id="filter0_d" x="26" y="10" width="183" height="236" filterUnits="userSpaceOnUse" color-interpolation-filters="sRGB">
<feFlood flood-opacity="0" result="BackgroundImageFix"/>
<feColorMatrix in="SourceAlpha" type="matrix" values="0 0 0 0 0 0 0 0 0 0 0 0 0 0 0 0 0 0 127 0"/>
<feOffset dy="4"/>
<feGaussianBlur stdDeviation="2"/>
<feColorMatrix type="matrix" values="0 0 0 0 0 0 0 0 0 0 0 0 0 0 0 0 0 0 0.25 0"/>
<feBlend mode="normal" in2="BackgroundImageFix" result="effect1_dropShadow"/>
<feBlend mode="normal" in="SourceGraphic" in2="effect1_dropShadow" result="shape"/>
</filter>
<filter id="filter1_b" x="26" y="6" width="183" height="224.741" filterUnits="userSpaceOnUse" color-interpolation-filters="sRGB">
<feFlood flood-opacity="0" result="BackgroundImageFix"/>
<feGaussianBlur in="BackgroundImage" stdDeviation="2"/>
<feComposite in2="SourceAlpha" operator="in" result="effect1_backgroundBlur"/>
<feBlend mode="normal" in="SourceGraphic" in2="effect1_backgroundBlur" result="shape"/>
</filter>
<filter id="filter2_i" x="59.2913" y="72.7004" width="116.805" height="116.187" filterUnits="userSpaceOnUse" color-interpolation-filters="sRGB">
<feFlood flood-opacity="0" result="BackgroundImageFix"/>
<feBlend mode="normal" in="SourceGraphic" in2="BackgroundImageFix" result="shape"/>
<feColorMatrix in="SourceAlpha" type="matrix" values="0 0 0 0 0 0 0 0 0 0 0 0 0 0 0 0 0 0 127 0" result="hardAlpha"/>
<feOffset dy="4"/>
<feGaussianBlur stdDeviation="2"/>
<feComposite in2="hardAlpha" operator="arithmetic" k2="-1" k3="1"/>
<feColorMatrix type="matrix" values="0 0 0 0 0 0 0 0 0 0 0 0 0 0 0 0 0 0 0.25 0"/>
<feBlend mode="normal" in2="shape" result="effect1_innerShadow"/>
</filter>
</defs>
</svg>
