<svg width="236" height="247" viewBox="0 0 236 247" fill="none" xmlns="http://www.w3.org/2000/svg">
<rect width="236" height="247" fill="#FF6262"/>
<g filter="url(#filter0_d)">
<g filter="url(#filter1_b)">
<path d="M17 31.4897L90 0L162 31.4897L177 216.741H2L17 31.4897Z" fill="#F5DA94"/>
<path d="M2.54212 216.241L17.4741 31.8297L89.9986 0.545129L161.526 31.828L176.458 216.241H2.54212Z" stroke="#F5DA94"/>
</g>
<rect x="2" y="216.741" width="175" height="11.2593" fill="#C5A05A"/>
<g filter="url(#filter2_i)">
<path d="M44.64 172.6C52.68 165.4 56.16 153.64 58.44 141.88L45.84 138.4C44.04 148.96 39.96 159.04 33.12 165.4L44.64 172.6ZM62.88 143.92C65.04 151.72 66.72 162.04 66.84 168.76L79.56 166.6C79.2 159.88 77.4 149.8 74.88 142L62.88 143.92ZM83.52 143.56C86.52 150.64 89.28 160 90 165.76L101.76 162.64C100.8 156.76 97.68 147.64 94.56 140.8L83.52 143.56ZM62.76 115.48H84.48V123.04H62.76V115.48ZM84.48 78.28V85.72H62.76V78.28H84.48ZM84.48 104.44H62.76V97H84.48V104.44ZM98.64 123.04V115.48H130.56V104.44H98.64V97H130.56V85.72H98.64V78.28H134.76V66.04H48.72V135.4H128.52C127.44 150.88 126.12 157.24 124.44 159.28C123.36 160.48 122.28 160.6 120.36 160.6C118.32 160.72 113.88 160.6 109.08 160.12C111.24 163.84 112.8 169.24 113.04 173.32C118.92 173.56 124.32 173.44 127.68 172.96C131.4 172.48 134.04 171.4 136.68 168.4C140.16 164.44 141.72 153.76 143.28 128.68C143.4 126.76 143.52 123.04 143.52 123.04H98.64ZM121.92 154.72C120.36 150.04 116.52 143.2 112.92 138.04L102.6 141.52C106.08 146.8 109.56 154.12 110.88 158.68L121.92 154.72Z" fill="#FF0000"/>
</g>
<path d="M44.64 172.6L44.11 173.448L44.7473 173.846L45.3071 173.345L44.64 172.6ZM58.44 141.88L59.4217 142.07L59.5978 141.162L58.7062 140.916L58.44 141.88ZM45.84 138.4L46.1062 137.436L45.0401 137.142L44.8542 138.232L45.84 138.4ZM33.12 165.4L32.4391 164.668L31.4833 165.556L32.59 166.248L33.12 165.4ZM62.88 143.92L62.722 142.933L61.6178 143.109L61.9163 144.187L62.88 143.92ZM66.84 168.76L65.8402 168.778L65.8609 169.941L67.0074 169.746L66.84 168.76ZM79.56 166.6L79.7274 167.586L80.6063 167.437L80.5586 166.547L79.56 166.6ZM74.88 142L75.8316 141.693L75.5681 140.877L74.722 141.013L74.88 142ZM83.52 143.56L83.2775 142.59L82.143 142.873L82.5992 143.95L83.52 143.56ZM90 165.76L89.0077 165.884L89.1497 167.02L90.2564 166.727L90 165.76ZM101.76 162.64L102.016 163.607L102.893 163.374L102.747 162.479L101.76 162.64ZM94.56 140.8L95.4698 140.385L95.1246 139.628L94.3175 139.83L94.56 140.8ZM62.76 115.48V114.48H61.76V115.48H62.76ZM84.48 115.48H85.48V114.48H84.48V115.48ZM84.48 123.04V124.04H85.48V123.04H84.48ZM62.76 123.04H61.76V124.04H62.76V123.04ZM84.48 78.28H85.48V77.28H84.48V78.28ZM84.48 85.72V86.72H85.48V85.72H84.48ZM62.76 85.72H61.76V86.72H62.76V85.72ZM62.76 78.28V77.28H61.76V78.28H62.76ZM84.48 104.44V105.44H85.48V104.44H84.48ZM62.76 104.44H61.76V105.44H62.76V104.44ZM62.76 97V96H61.76V97H62.76ZM84.48 97H85.48V96H84.48V97ZM98.64 123.04H97.64V124.04H98.64V123.04ZM98.64 115.48V114.48H97.64V115.48H98.64ZM130.56 115.48V116.48H131.56V115.48H130.56ZM130.56 104.44H131.56V103.44H130.56V104.44ZM98.64 104.44H97.64V105.44H98.64V104.44ZM98.64 97V96H97.64V97H98.64ZM130.56 97V98H131.56V97H130.56ZM130.56 85.72H131.56V84.72H130.56V85.72ZM98.64 85.72H97.64V86.72H98.64V85.72ZM98.64 78.28V77.28H97.64V78.28H98.64ZM134.76 78.28V79.28H135.76V78.28H134.76ZM134.76 66.04H135.76V65.04H134.76V66.04ZM48.72 66.04V65.04H47.72V66.04H48.72ZM48.72 135.4H47.72V136.4H48.72V135.4ZM128.52 135.4L129.518 135.47L129.592 134.4H128.52V135.4ZM124.44 159.28L125.183 159.949L125.198 159.933L125.212 159.916L124.44 159.28ZM120.36 160.6V159.6H120.331L120.301 159.602L120.36 160.6ZM109.08 160.12L109.18 159.125L107.233 158.93L108.215 160.622L109.08 160.12ZM113.04 173.32L112.042 173.379L112.095 174.282L112.999 174.319L113.04 173.32ZM127.68 172.96L127.552 171.968L127.539 171.97L127.68 172.96ZM136.68 168.4L137.431 169.061L137.431 169.06L136.68 168.4ZM143.28 128.68L142.282 128.618L142.282 128.618L143.28 128.68ZM143.52 123.04L144.519 123.072L144.553 122.04H143.52V123.04ZM121.92 154.72L122.258 155.661L123.178 155.331L122.869 154.404L121.92 154.72ZM112.92 138.04L113.74 137.468L113.311 136.853L112.6 137.092L112.92 138.04ZM102.6 141.52L102.28 140.572L101.051 140.987L101.765 142.07L102.6 141.52ZM110.88 158.68L109.919 158.958L110.215 159.981L111.218 159.621L110.88 158.68ZM45.3071 173.345C53.619 165.901 57.1415 153.832 59.4217 142.07L57.4583 141.69C55.1785 153.448 51.741 164.899 43.9729 171.855L45.3071 173.345ZM58.7062 140.916L46.1062 137.436L45.5738 139.364L58.1738 142.844L58.7062 140.916ZM44.8542 138.232C43.0729 148.682 39.0537 158.517 32.4391 164.668L33.8009 166.132C40.8663 159.563 45.0071 149.238 46.8258 138.568L44.8542 138.232ZM32.59 166.248L44.11 173.448L45.17 171.752L33.65 164.552L32.59 166.248ZM61.9163 144.187C64.0595 151.926 65.722 162.161 65.8402 168.778L67.8398 168.742C67.718 161.919 66.0205 151.514 63.8437 143.653L61.9163 144.187ZM67.0074 169.746L79.7274 167.586L79.3926 165.614L66.6726 167.774L67.0074 169.746ZM80.5586 166.547C80.1938 159.738 78.3774 149.573 75.8316 141.693L73.9284 142.307C76.4226 150.027 78.2062 160.022 78.5614 166.653L80.5586 166.547ZM74.722 141.013L62.722 142.933L63.038 144.907L75.038 142.987L74.722 141.013ZM82.5992 143.95C85.5759 150.975 88.3026 160.243 89.0077 165.884L90.9923 165.636C90.2574 159.757 87.4641 150.305 84.4408 143.17L82.5992 143.95ZM90.2564 166.727L102.016 163.607L101.504 161.673L89.7436 164.793L90.2564 166.727ZM102.747 162.479C101.767 156.479 98.6102 147.27 95.4698 140.385L93.6502 141.215C96.7498 148.01 99.8326 157.041 100.773 162.801L102.747 162.479ZM94.3175 139.83L83.2775 142.59L83.7625 144.53L94.8025 141.77L94.3175 139.83ZM62.76 116.48H84.48V114.48H62.76V116.48ZM83.48 115.48V123.04H85.48V115.48H83.48ZM84.48 122.04H62.76V124.04H84.48V122.04ZM63.76 123.04V115.48H61.76V123.04H63.76ZM83.48 78.28V85.72H85.48V78.28H83.48ZM84.48 84.72H62.76V86.72H84.48V84.72ZM63.76 85.72V78.28H61.76V85.72H63.76ZM62.76 79.28H84.48V77.28H62.76V79.28ZM84.48 103.44H62.76V105.44H84.48V103.44ZM63.76 104.44V97H61.76V104.44H63.76ZM62.76 98H84.48V96H62.76V98ZM83.48 97V104.44H85.48V97H83.48ZM99.64 123.04V115.48H97.64V123.04H99.64ZM98.64 116.48H130.56V114.48H98.64V116.48ZM131.56 115.48V104.44H129.56V115.48H131.56ZM130.56 103.44H98.64V105.44H130.56V103.44ZM99.64 104.44V97H97.64V104.44H99.64ZM98.64 98H130.56V96H98.64V98ZM131.56 97V85.72H129.56V97H131.56ZM130.56 84.72H98.64V86.72H130.56V84.72ZM99.64 85.72V78.28H97.64V85.72H99.64ZM98.64 79.28H134.76V77.28H98.64V79.28ZM135.76 78.28V66.04H133.76V78.28H135.76ZM134.76 65.04H48.72V67.04H134.76V65.04ZM47.72 66.04V135.4H49.72V66.04H47.72ZM48.72 136.4H128.52V134.4H48.72V136.4ZM127.522 135.33C126.983 143.059 126.386 148.477 125.721 152.204C125.388 154.068 125.042 155.486 124.686 156.547C124.327 157.619 123.977 158.269 123.668 158.644L125.212 159.916C125.743 159.271 126.188 158.361 126.583 157.183C126.981 155.994 127.347 154.472 127.689 152.556C128.374 148.723 128.977 143.221 129.518 135.47L127.522 135.33ZM123.697 158.611C123.273 159.082 122.894 159.302 122.446 159.427C121.949 159.566 121.325 159.6 120.36 159.6V161.6C121.315 161.6 122.191 161.574 122.984 161.353C123.826 161.118 124.527 160.678 125.183 159.949L123.697 158.611ZM120.301 159.602C118.335 159.717 113.953 159.602 109.18 159.125L108.981 161.115C113.807 161.598 118.305 161.723 120.419 161.598L120.301 159.602ZM108.215 160.622C110.294 164.202 111.811 169.45 112.042 173.379L114.038 173.261C113.789 169.03 112.186 163.478 109.945 159.618L108.215 160.622ZM112.999 174.319C118.899 174.56 124.371 174.443 127.821 173.95L127.539 171.97C124.269 172.437 118.941 172.56 113.081 172.321L112.999 174.319ZM127.808 173.952C129.731 173.704 131.436 173.293 133.021 172.525C134.613 171.753 136.036 170.645 137.431 169.061L135.929 167.739C134.684 169.155 133.467 170.087 132.149 170.725C130.824 171.367 129.349 171.736 127.552 171.968L127.808 173.952ZM137.431 169.06C139.379 166.844 140.667 162.918 141.687 156.62C142.716 150.266 143.498 141.283 144.278 128.742L142.282 128.618C141.502 141.157 140.724 150.054 139.713 156.3C138.693 162.602 137.461 165.996 135.929 167.74L137.431 169.06ZM144.278 128.742C144.339 127.769 144.399 126.348 144.444 125.178C144.467 124.592 144.486 124.066 144.499 123.686C144.505 123.496 144.511 123.343 144.514 123.237C144.516 123.184 144.517 123.143 144.518 123.115C144.519 123.101 144.519 123.09 144.519 123.083C144.519 123.08 144.519 123.077 144.519 123.075C144.519 123.074 144.519 123.073 144.519 123.073C144.519 123.073 144.519 123.073 144.519 123.072C144.519 123.072 144.519 123.072 144.519 123.072C144.519 123.072 144.519 123.072 143.52 123.04C142.521 123.008 142.521 123.008 142.521 123.008C142.521 123.008 142.521 123.008 142.521 123.008C142.521 123.008 142.521 123.008 142.521 123.008C142.52 123.009 142.52 123.009 142.52 123.01C142.52 123.012 142.52 123.015 142.52 123.018C142.52 123.025 142.52 123.036 142.519 123.049C142.518 123.077 142.517 123.118 142.515 123.17C142.512 123.275 142.507 123.428 142.5 123.617C142.487 123.994 142.468 124.518 142.446 125.102C142.401 126.272 142.341 127.671 142.282 128.618L144.278 128.742ZM143.52 122.04H98.64V124.04H143.52V122.04ZM122.869 154.404C121.265 149.594 117.366 142.664 113.74 137.468L112.1 138.612C115.674 143.736 119.455 150.486 120.971 155.036L122.869 154.404ZM112.6 137.092L102.28 140.572L102.92 142.468L113.24 138.988L112.6 137.092ZM101.765 142.07C105.202 147.285 108.633 154.514 109.919 158.958L111.841 158.402C110.487 153.726 106.958 146.315 103.435 140.97L101.765 142.07ZM111.218 159.621L122.258 155.661L121.582 153.779L110.542 157.739L111.218 159.621Z" fill="black"/>
</g>
<defs>
<filter id="filter0_d" x="2" y="0" width="194" height="247" filterUnits="userSpaceOnUse" color-interpolation-filters="sRGB">
<feFlood flood-opacity="0" result="BackgroundImageFix"/>
<feColorMatrix in="SourceAlpha" type="matrix" values="0 0 0 0 0 0 0 0 0 0 0 0 0 0 0 0 0 0 127 0"/>
<feOffset dx="15" dy="15"/>
<feGaussianBlur stdDeviation="2"/>
<feColorMatrix type="matrix" values="0 0 0 0 0 0 0 0 0 0 0 0 0 0 0 0 0 0 0.5 0"/>
<feBlend mode="normal" in2="BackgroundImageFix" result="effect1_dropShadow"/>
<feBlend mode="normal" in="SourceGraphic" in2="effect1_dropShadow" result="shape"/>
</filter>
<filter id="filter1_b" x="-2" y="-4" width="183" height="224.741" filterUnits="userSpaceOnUse" color-interpolation-filters="sRGB">
<feFlood flood-opacity="0" result="BackgroundImageFix"/>
<feGaussianBlur in="BackgroundImage" stdDeviation="2"/>
<feComposite in2="SourceAlpha" operator="in" result="effect1_backgroundBlur"/>
<feBlend mode="normal" in="SourceGraphic" in2="effect1_backgroundBlur" result="shape"/>
</filter>
<filter id="filter2_i" x="31.4834" y="65.04" width="113.069" height="117.4" filterUnits="userSpaceOnUse" color-interpolation-filters="sRGB">
<feFlood flood-opacity="0" result="BackgroundImageFix"/>
<feBlend mode="normal" in="SourceGraphic" in2="BackgroundImageFix" result="shape"/>
<feColorMatrix in="SourceAlpha" type="matrix" values="0 0 0 0 0 0 0 0 0 0 0 0 0 0 0 0 0 0 127 0" result="hardAlpha"/>
<feOffset dy="8"/>
<feGaussianBlur stdDeviation="4"/>
<feComposite in2="hardAlpha" operator="arithmetic" k2="-1" k3="1"/>
<feColorMatrix type="matrix" values="0 0 0 0 0 0 0 0 0 0 0 0 0 0 0 0 0 0 0.35 0"/>
<feBlend mode="normal" in2="shape" result="effect1_innerShadow"/>
</filter>
</defs>
</svg>
