<svg width="236" height="247" viewBox="0 0 236 247" fill="none" xmlns="http://www.w3.org/2000/svg">
<rect width="236" height="247" fill="#FDF1DB"/>
<g filter="url(#filter0_d)">
<g filter="url(#filter1_b)">
<path d="M45 41.4897L118 10L190 41.4897L205 226.741H30L45 41.4897Z" fill="#F5DA94"/>
<path d="M30.5421 226.241L45.4741 41.8297L117.999 10.5451L189.526 41.828L204.458 226.241H30.5421Z" stroke="#F5DA94"/>
</g>
<rect x="30" y="226.741" width="175" height="11.2593" fill="#C5A05A"/>
<g filter="url(#filter2_i)">
<path d="M72.64 182.6C80.68 175.4 84.16 163.64 86.44 151.88L73.84 148.4C72.04 158.96 67.96 169.04 61.12 175.4L72.64 182.6ZM90.88 153.92C93.04 161.72 94.72 172.04 94.84 178.76L107.56 176.6C107.2 169.88 105.4 159.8 102.88 152L90.88 153.92ZM111.52 153.56C114.52 160.64 117.28 170 118 175.76L129.76 172.64C128.8 166.76 125.68 157.64 122.56 150.8L111.52 153.56ZM90.76 125.48H112.48V133.04H90.76V125.48ZM112.48 88.28V95.72H90.76V88.28H112.48ZM112.48 114.44H90.76V107H112.48V114.44ZM126.64 133.04V125.48H158.56V114.44H126.64V107H158.56V95.72H126.64V88.28H162.76V76.04H76.72V145.4H156.52C155.44 160.88 154.12 167.24 152.44 169.28C151.36 170.48 150.28 170.6 148.36 170.6C146.32 170.72 141.88 170.6 137.08 170.12C139.24 173.84 140.8 179.24 141.04 183.32C146.92 183.56 152.32 183.44 155.68 182.96C159.4 182.48 162.04 181.4 164.68 178.4C168.16 174.44 169.72 163.76 171.28 138.68C171.4 136.76 171.52 133.04 171.52 133.04H126.64ZM149.92 164.72C148.36 160.04 144.52 153.2 140.92 148.04L130.6 151.52C134.08 156.8 137.56 164.12 138.88 168.68L149.92 164.72Z" fill="#FF0000"/>
</g>
<path d="M72.64 182.6L72.11 183.448L72.7473 183.846L73.3071 183.345L72.64 182.6ZM86.44 151.88L87.4217 152.07L87.5978 151.162L86.7062 150.916L86.44 151.88ZM73.84 148.4L74.1062 147.436L73.0401 147.142L72.8542 148.232L73.84 148.4ZM61.12 175.4L60.4391 174.668L59.4833 175.556L60.59 176.248L61.12 175.4ZM90.88 153.92L90.722 152.933L89.6178 153.109L89.9163 154.187L90.88 153.92ZM94.84 178.76L93.8402 178.778L93.8609 179.941L95.0074 179.746L94.84 178.76ZM107.56 176.6L107.727 177.586L108.606 177.437L108.559 176.547L107.56 176.6ZM102.88 152L103.832 151.693L103.568 150.877L102.722 151.013L102.88 152ZM111.52 153.56L111.277 152.59L110.143 152.873L110.599 153.95L111.52 153.56ZM118 175.76L117.008 175.884L117.15 177.02L118.256 176.727L118 175.76ZM129.76 172.64L130.016 173.607L130.893 173.374L130.747 172.479L129.76 172.64ZM122.56 150.8L123.47 150.385L123.125 149.628L122.317 149.83L122.56 150.8ZM90.76 125.48V124.48H89.76V125.48H90.76ZM112.48 125.48H113.48V124.48H112.48V125.48ZM112.48 133.04V134.04H113.48V133.04H112.48ZM90.76 133.04H89.76V134.04H90.76V133.04ZM112.48 88.28H113.48V87.28H112.48V88.28ZM112.48 95.72V96.72H113.48V95.72H112.48ZM90.76 95.72H89.76V96.72H90.76V95.72ZM90.76 88.28V87.28H89.76V88.28H90.76ZM112.48 114.44V115.44H113.48V114.44H112.48ZM90.76 114.44H89.76V115.44H90.76V114.44ZM90.76 107V106H89.76V107H90.76ZM112.48 107H113.48V106H112.48V107ZM126.64 133.04H125.64V134.04H126.64V133.04ZM126.64 125.48V124.48H125.64V125.48H126.64ZM158.56 125.48V126.48H159.56V125.48H158.56ZM158.56 114.44H159.56V113.44H158.56V114.44ZM126.64 114.44H125.64V115.44H126.64V114.44ZM126.64 107V106H125.64V107H126.64ZM158.56 107V108H159.56V107H158.56ZM158.56 95.72H159.56V94.72H158.56V95.72ZM126.64 95.72H125.64V96.72H126.64V95.72ZM126.64 88.28V87.28H125.64V88.28H126.64ZM162.76 88.28V89.28H163.76V88.28H162.76ZM162.76 76.04H163.76V75.04H162.76V76.04ZM76.72 76.04V75.04H75.72V76.04H76.72ZM76.72 145.4H75.72V146.4H76.72V145.4ZM156.52 145.4L157.518 145.47L157.592 144.4H156.52V145.4ZM152.44 169.28L153.183 169.949L153.198 169.933L153.212 169.916L152.44 169.28ZM148.36 170.6V169.6H148.331L148.301 169.602L148.36 170.6ZM137.08 170.12L137.18 169.125L135.233 168.93L136.215 170.622L137.08 170.12ZM141.04 183.32L140.042 183.379L140.095 184.282L140.999 184.319L141.04 183.32ZM155.68 182.96L155.552 181.968L155.539 181.97L155.68 182.96ZM164.68 178.4L165.431 179.061L165.431 179.06L164.68 178.4ZM171.28 138.68L170.282 138.618L170.282 138.618L171.28 138.68ZM171.52 133.04L172.519 133.072L172.553 132.04H171.52V133.04ZM149.92 164.72L150.258 165.661L151.178 165.331L150.869 164.404L149.92 164.72ZM140.92 148.04L141.74 147.468L141.311 146.853L140.6 147.092L140.92 148.04ZM130.6 151.52L130.28 150.572L129.051 150.987L129.765 152.07L130.6 151.52ZM138.88 168.68L137.919 168.958L138.215 169.981L139.218 169.621L138.88 168.68ZM73.3071 183.345C81.619 175.901 85.1415 163.832 87.4217 152.07L85.4583 151.69C83.1785 163.448 79.741 174.899 71.9729 181.855L73.3071 183.345ZM86.7062 150.916L74.1062 147.436L73.5738 149.364L86.1738 152.844L86.7062 150.916ZM72.8542 148.232C71.0729 158.682 67.0537 168.517 60.4391 174.668L61.8009 176.132C68.8663 169.563 73.0071 159.238 74.8258 148.568L72.8542 148.232ZM60.59 176.248L72.11 183.448L73.17 181.752L61.65 174.552L60.59 176.248ZM89.9163 154.187C92.0595 161.926 93.722 172.161 93.8402 178.778L95.8398 178.742C95.718 171.919 94.0205 161.514 91.8437 153.653L89.9163 154.187ZM95.0074 179.746L107.727 177.586L107.393 175.614L94.6726 177.774L95.0074 179.746ZM108.559 176.547C108.194 169.738 106.377 159.573 103.832 151.693L101.928 152.307C104.423 160.027 106.206 170.022 106.561 176.653L108.559 176.547ZM102.722 151.013L90.722 152.933L91.038 154.907L103.038 152.987L102.722 151.013ZM110.599 153.95C113.576 160.975 116.303 170.243 117.008 175.884L118.992 175.636C118.257 169.757 115.464 160.305 112.441 153.17L110.599 153.95ZM118.256 176.727L130.016 173.607L129.504 171.673L117.744 174.793L118.256 176.727ZM130.747 172.479C129.767 166.479 126.61 157.27 123.47 150.385L121.65 151.215C124.75 158.01 127.833 167.041 128.773 172.801L130.747 172.479ZM122.317 149.83L111.277 152.59L111.763 154.53L122.803 151.77L122.317 149.83ZM90.76 126.48H112.48V124.48H90.76V126.48ZM111.48 125.48V133.04H113.48V125.48H111.48ZM112.48 132.04H90.76V134.04H112.48V132.04ZM91.76 133.04V125.48H89.76V133.04H91.76ZM111.48 88.28V95.72H113.48V88.28H111.48ZM112.48 94.72H90.76V96.72H112.48V94.72ZM91.76 95.72V88.28H89.76V95.72H91.76ZM90.76 89.28H112.48V87.28H90.76V89.28ZM112.48 113.44H90.76V115.44H112.48V113.44ZM91.76 114.44V107H89.76V114.44H91.76ZM90.76 108H112.48V106H90.76V108ZM111.48 107V114.44H113.48V107H111.48ZM127.64 133.04V125.48H125.64V133.04H127.64ZM126.64 126.48H158.56V124.48H126.64V126.48ZM159.56 125.48V114.44H157.56V125.48H159.56ZM158.56 113.44H126.64V115.44H158.56V113.44ZM127.64 114.44V107H125.64V114.44H127.64ZM126.64 108H158.56V106H126.64V108ZM159.56 107V95.72H157.56V107H159.56ZM158.56 94.72H126.64V96.72H158.56V94.72ZM127.64 95.72V88.28H125.64V95.72H127.64ZM126.64 89.28H162.76V87.28H126.64V89.28ZM163.76 88.28V76.04H161.76V88.28H163.76ZM162.76 75.04H76.72V77.04H162.76V75.04ZM75.72 76.04V145.4H77.72V76.04H75.72ZM76.72 146.4H156.52V144.4H76.72V146.4ZM155.522 145.33C154.983 153.059 154.386 158.477 153.721 162.204C153.388 164.068 153.042 165.486 152.686 166.547C152.327 167.619 151.977 168.269 151.668 168.644L153.212 169.916C153.743 169.271 154.188 168.361 154.583 167.183C154.981 165.994 155.347 164.472 155.689 162.556C156.374 158.723 156.977 153.221 157.518 145.47L155.522 145.33ZM151.697 168.611C151.273 169.082 150.894 169.302 150.446 169.427C149.949 169.566 149.325 169.6 148.36 169.6V171.6C149.315 171.6 150.191 171.574 150.984 171.353C151.826 171.118 152.527 170.678 153.183 169.949L151.697 168.611ZM148.301 169.602C146.335 169.717 141.953 169.602 137.18 169.125L136.981 171.115C141.807 171.598 146.305 171.723 148.419 171.598L148.301 169.602ZM136.215 170.622C138.294 174.202 139.811 179.45 140.042 183.379L142.038 183.261C141.789 179.03 140.186 173.478 137.945 169.618L136.215 170.622ZM140.999 184.319C146.899 184.56 152.371 184.443 155.821 183.95L155.539 181.97C152.269 182.437 146.941 182.56 141.081 182.321L140.999 184.319ZM155.808 183.952C157.731 183.704 159.436 183.293 161.021 182.525C162.613 181.753 164.036 180.645 165.431 179.061L163.929 177.739C162.684 179.155 161.467 180.087 160.149 180.725C158.824 181.367 157.349 181.736 155.552 181.968L155.808 183.952ZM165.431 179.06C167.379 176.844 168.667 172.918 169.687 166.62C170.716 160.266 171.498 151.283 172.278 138.742L170.282 138.618C169.502 151.157 168.724 160.054 167.713 166.3C166.693 172.602 165.461 175.996 163.929 177.74L165.431 179.06ZM172.278 138.742C172.339 137.769 172.399 136.348 172.444 135.178C172.467 134.592 172.486 134.066 172.499 133.686C172.505 133.496 172.511 133.343 172.514 133.237C172.516 133.184 172.517 133.143 172.518 133.115C172.519 133.101 172.519 133.09 172.519 133.083C172.519 133.08 172.519 133.077 172.519 133.075C172.519 133.074 172.519 133.073 172.519 133.073C172.519 133.073 172.519 133.073 172.519 133.072C172.519 133.072 172.519 133.072 172.519 133.072C172.519 133.072 172.519 133.072 171.52 133.04C170.521 133.008 170.521 133.008 170.521 133.008C170.521 133.008 170.521 133.008 170.521 133.008C170.521 133.008 170.521 133.008 170.521 133.008C170.52 133.009 170.52 133.009 170.52 133.01C170.52 133.012 170.52 133.015 170.52 133.018C170.52 133.025 170.52 133.036 170.519 133.049C170.518 133.077 170.517 133.118 170.515 133.17C170.512 133.275 170.507 133.428 170.5 133.617C170.487 133.994 170.468 134.518 170.446 135.102C170.401 136.272 170.341 137.671 170.282 138.618L172.278 138.742ZM171.52 132.04H126.64V134.04H171.52V132.04ZM150.869 164.404C149.265 159.594 145.366 152.664 141.74 147.468L140.1 148.612C143.674 153.736 147.455 160.486 148.971 165.036L150.869 164.404ZM140.6 147.092L130.28 150.572L130.92 152.468L141.24 148.988L140.6 147.092ZM129.765 152.07C133.202 157.285 136.633 164.514 137.919 168.958L139.841 168.402C138.487 163.726 134.958 156.315 131.435 150.97L129.765 152.07ZM139.218 169.621L150.258 165.661L149.582 163.779L138.542 167.739L139.218 169.621Z" fill="black"/>
</g>
<defs>
<filter id="filter0_d" x="26" y="10" width="183" height="236" filterUnits="userSpaceOnUse" color-interpolation-filters="sRGB">
<feFlood flood-opacity="0" result="BackgroundImageFix"/>
<feColorMatrix in="SourceAlpha" type="matrix" values="0 0 0 0 0 0 0 0 0 0 0 0 0 0 0 0 0 0 127 0"/>
<feOffset dy="4"/>
<feGaussianBlur stdDeviation="2"/>
<feColorMatrix type="matrix" values="0 0 0 0 0 0 0 0 0 0 0 0 0 0 0 0 0 0 0.25 0"/>
<feBlend mode="normal" in2="BackgroundImageFix" result="effect1_dropShadow"/>
<feBlend mode="normal" in="SourceGraphic" in2="effect1_dropShadow" result="shape"/>
</filter>
<filter id="filter1_b" x="26" y="6" width="183" height="224.741" filterUnits="userSpaceOnUse" color-interpolation-filters="sRGB">
<feFlood flood-opacity="0" result="BackgroundImageFix"/>
<feGaussianBlur in="BackgroundImage" stdDeviation="2"/>
<feComposite in2="SourceAlpha" operator="in" result="effect1_backgroundBlur"/>
<feBlend mode="normal" in="SourceGraphic" in2="effect1_backgroundBlur" result="shape"/>
</filter>
<filter id="filter2_i" x="59.4833" y="75.04" width="113.069" height="117.4" filterUnits="userSpaceOnUse" color-interpolation-filters="sRGB">
<feFlood flood-opacity="0" result="BackgroundImageFix"/>
<feBlend mode="normal" in="SourceGraphic" in2="BackgroundImageFix" result="shape"/>
<feColorMatrix in="SourceAlpha" type="matrix" values="0 0 0 0 0 0 0 0 0 0 0 0 0 0 0 0 0 0 127 0" result="hardAlpha"/>
<feOffset dy="8"/>
<feGaussianBlur stdDeviation="4"/>
<feComposite in2="hardAlpha" operator="arithmetic" k2="-1" k3="1"/>
<feColorMatrix type="matrix" values="0 0 0 0 0 0 0 0 0 0 0 0 0 0 0 0 0 0 0.35 0"/>
<feBlend mode="normal" in2="shape" result="effect1_innerShadow"/>
</filter>
</defs>
</svg>
