<svg width="236" height="247" viewBox="0 0 236 247" fill="none" xmlns="http://www.w3.org/2000/svg">
<rect width="236" height="247" fill="#FF6262"/>
<g filter="url(#filter0_d)">
<g filter="url(#filter1_b)">
<path d="M45.9143 46.4933L118.497 17L190.086 46.4933L205 220H31L45.9143 46.4933Z" fill="#F5DA94"/>
<path d="M31.5448 219.5L46.3862 46.8413L118.496 17.5402L189.614 46.8396L204.455 219.5H31.5448Z" stroke="#F5DA94"/>
</g>
<rect x="31" y="220" width="174.028" height="11.2593" fill="#C5A05A"/>
<g filter="url(#filter2_i)">
<path d="M172.22 110.72H145.22V98.48H167.3V85.52H145.22V71.96H130.46V85.52H108.14V98.48H130.46V110.72H104.54V123.92H172.22V110.72ZM104.3 132.08C102.38 128.84 93.74 115.28 90.38 110.72V106.88H103.46V93.68H90.38V71.36H77.42V93.68H63.14V106.88H76.58C73.1 121.28 66.74 138.2 59.42 147.44C61.7 151.28 64.82 157.88 66.14 161.84C70.34 155.72 74.18 146.84 77.42 137.12V183.44H90.38V128.84C92.66 133.52 94.82 138.44 96.02 141.8L104.3 132.08ZM145.22 165.92V151.76H168.98V138.68H145.22V127.52H130.46V138.68H106.7V151.76H130.46V165.92H98.9V179.48H173.66V165.92H145.22Z" fill="#FF0000"/>
</g>
<path d="M172.22 110.72H173.22V109.72H172.22V110.72ZM145.22 110.72H144.22V111.72H145.22V110.72ZM145.22 98.48V97.48H144.22V98.48H145.22ZM167.3 98.48V99.48H168.3V98.48H167.3ZM167.3 85.52H168.3V84.52H167.3V85.52ZM145.22 85.52H144.22V86.52H145.22V85.52ZM145.22 71.96H146.22V70.96H145.22V71.96ZM130.46 71.96V70.96H129.46V71.96H130.46ZM130.46 85.52V86.52H131.46V85.52H130.46ZM108.14 85.52V84.52H107.14V85.52H108.14ZM108.14 98.48H107.14V99.48H108.14V98.48ZM130.46 98.48H131.46V97.48H130.46V98.48ZM130.46 110.72V111.72H131.46V110.72H130.46ZM104.54 110.72V109.72H103.54V110.72H104.54ZM104.54 123.92H103.54V124.92H104.54V123.92ZM172.22 123.92V124.92H173.22V123.92H172.22ZM104.3 132.08L105.061 132.728L105.524 132.185L105.16 131.57L104.3 132.08ZM90.38 110.72H89.38V111.049L89.5749 111.313L90.38 110.72ZM90.38 106.88V105.88H89.38V106.88H90.38ZM103.46 106.88V107.88H104.46V106.88H103.46ZM103.46 93.68H104.46V92.68H103.46V93.68ZM90.38 93.68H89.38V94.68H90.38V93.68ZM90.38 71.36H91.38V70.36H90.38V71.36ZM77.42 71.36V70.36H76.42V71.36H77.42ZM77.42 93.68V94.68H78.42V93.68H77.42ZM63.14 93.68V92.68H62.14V93.68H63.14ZM63.14 106.88H62.14V107.88H63.14V106.88ZM76.58 106.88L77.552 107.115L77.8505 105.88H76.58V106.88ZM59.42 147.44L58.6362 146.819L58.2087 147.359L58.5601 147.951L59.42 147.44ZM66.14 161.84L65.1913 162.156L65.827 164.063L66.9645 162.406L66.14 161.84ZM77.42 137.12H78.42L76.4713 136.804L77.42 137.12ZM77.42 183.44H76.42V184.44H77.42V183.44ZM90.38 183.44V184.44H91.38V183.44H90.38ZM90.38 128.84L91.279 128.402L89.38 128.84H90.38ZM96.02 141.8L95.0783 142.136L95.6599 143.765L96.7812 142.448L96.02 141.8ZM145.22 165.92H144.22V166.92H145.22V165.92ZM145.22 151.76V150.76H144.22V151.76H145.22ZM168.98 151.76V152.76H169.98V151.76H168.98ZM168.98 138.68H169.98V137.68H168.98V138.68ZM145.22 138.68H144.22V139.68H145.22V138.68ZM145.22 127.52H146.22V126.52H145.22V127.52ZM130.46 127.52V126.52H129.46V127.52H130.46ZM130.46 138.68V139.68H131.46V138.68H130.46ZM106.7 138.68V137.68H105.7V138.68H106.7ZM106.7 151.76H105.7V152.76H106.7V151.76ZM130.46 151.76H131.46V150.76H130.46V151.76ZM130.46 165.92V166.92H131.46V165.92H130.46ZM98.9 165.92V164.92H97.9V165.92H98.9ZM98.9 179.48H97.9V180.48H98.9V179.48ZM173.66 179.48V180.48H174.66V179.48H173.66ZM173.66 165.92H174.66V164.92H173.66V165.92ZM172.22 109.72H145.22V111.72H172.22V109.72ZM146.22 110.72V98.48H144.22V110.72H146.22ZM145.22 99.48H167.3V97.48H145.22V99.48ZM168.3 98.48V85.52H166.3V98.48H168.3ZM167.3 84.52H145.22V86.52H167.3V84.52ZM146.22 85.52V71.96H144.22V85.52H146.22ZM145.22 70.96H130.46V72.96H145.22V70.96ZM129.46 71.96V85.52H131.46V71.96H129.46ZM130.46 84.52H108.14V86.52H130.46V84.52ZM107.14 85.52V98.48H109.14V85.52H107.14ZM108.14 99.48H130.46V97.48H108.14V99.48ZM129.46 98.48V110.72H131.46V98.48H129.46ZM130.46 109.72H104.54V111.72H130.46V109.72ZM103.54 110.72V123.92H105.54V110.72H103.54ZM104.54 124.92H172.22V122.92H104.54V124.92ZM173.22 123.92V110.72H171.22V123.92H173.22ZM105.16 131.57C103.232 128.316 94.5728 114.725 91.1851 110.127L89.5749 111.313C92.9072 115.835 101.528 129.364 103.44 132.59L105.16 131.57ZM91.38 110.72V106.88H89.38V110.72H91.38ZM90.38 107.88H103.46V105.88H90.38V107.88ZM104.46 106.88V93.68H102.46V106.88H104.46ZM103.46 92.68H90.38V94.68H103.46V92.68ZM91.38 93.68V71.36H89.38V93.68H91.38ZM90.38 70.36H77.42V72.36H90.38V70.36ZM76.42 71.36V93.68H78.42V71.36H76.42ZM77.42 92.68H63.14V94.68H77.42V92.68ZM62.14 93.68V106.88H64.14V93.68H62.14ZM63.14 107.88H76.58V105.88H63.14V107.88ZM75.608 106.645C72.138 121.003 65.8192 137.752 58.6362 146.819L60.2038 148.061C67.6608 138.648 74.062 121.557 77.552 107.115L75.608 106.645ZM58.5601 147.951C60.8104 151.74 63.8977 158.275 65.1913 162.156L67.0887 161.524C65.7423 157.485 62.5896 150.82 60.2799 146.929L58.5601 147.951ZM66.9645 162.406C71.2428 156.172 75.1179 147.189 78.3687 137.436L76.4713 136.804C73.2421 146.491 69.4372 155.268 65.3155 161.274L66.9645 162.406ZM76.42 137.12V183.44H78.42V137.12H76.42ZM77.42 184.44H90.38V182.44H77.42V184.44ZM91.38 183.44V128.84H89.38V183.44H91.38ZM89.481 129.278C91.7535 133.943 93.8958 138.826 95.0783 142.136L96.9617 141.464C95.7442 138.054 93.5665 133.097 91.279 128.402L89.481 129.278ZM96.7812 142.448L105.061 132.728L103.539 131.432L95.2588 141.152L96.7812 142.448ZM146.22 165.92V151.76H144.22V165.92H146.22ZM145.22 152.76H168.98V150.76H145.22V152.76ZM169.98 151.76V138.68H167.98V151.76H169.98ZM168.98 137.68H145.22V139.68H168.98V137.68ZM146.22 138.68V127.52H144.22V138.68H146.22ZM145.22 126.52H130.46V128.52H145.22V126.52ZM129.46 127.52V138.68H131.46V127.52H129.46ZM130.46 137.68H106.7V139.68H130.46V137.68ZM105.7 138.68V151.76H107.7V138.68H105.7ZM106.7 152.76H130.46V150.76H106.7V152.76ZM129.46 151.76V165.92H131.46V151.76H129.46ZM130.46 164.92H98.9V166.92H130.46V164.92ZM97.9 165.92V179.48H99.9V165.92H97.9ZM98.9 180.48H173.66V178.48H98.9V180.48ZM174.66 179.48V165.92H172.66V179.48H174.66ZM173.66 164.92H145.22V166.92H173.66V164.92Z" fill="black"/>
</g>
<defs>
<filter id="filter0_d" x="27" y="17" width="182.028" height="222.259" filterUnits="userSpaceOnUse" color-interpolation-filters="sRGB">
<feFlood flood-opacity="0" result="BackgroundImageFix"/>
<feColorMatrix in="SourceAlpha" type="matrix" values="0 0 0 0 0 0 0 0 0 0 0 0 0 0 0 0 0 0 127 0"/>
<feOffset dy="4"/>
<feGaussianBlur stdDeviation="2"/>
<feColorMatrix type="matrix" values="0 0 0 0 0 0 0 0 0 0 0 0 0 0 0 0 0 0 0.25 0"/>
<feBlend mode="normal" in2="BackgroundImageFix" result="effect1_dropShadow"/>
<feBlend mode="normal" in="SourceGraphic" in2="effect1_dropShadow" result="shape"/>
</filter>
<filter id="filter1_b" x="27" y="13" width="182" height="211" filterUnits="userSpaceOnUse" color-interpolation-filters="sRGB">
<feFlood flood-opacity="0" result="BackgroundImageFix"/>
<feGaussianBlur in="BackgroundImage" stdDeviation="2"/>
<feComposite in2="SourceAlpha" operator="in" result="effect1_backgroundBlur"/>
<feBlend mode="normal" in="SourceGraphic" in2="effect1_backgroundBlur" result="shape"/>
</filter>
<filter id="filter2_i" x="58.2087" y="70.3601" width="116.451" height="122.08" filterUnits="userSpaceOnUse" color-interpolation-filters="sRGB">
<feFlood flood-opacity="0" result="BackgroundImageFix"/>
<feBlend mode="normal" in="SourceGraphic" in2="BackgroundImageFix" result="shape"/>
<feColorMatrix in="SourceAlpha" type="matrix" values="0 0 0 0 0 0 0 0 0 0 0 0 0 0 0 0 0 0 127 0" result="hardAlpha"/>
<feOffset dy="8"/>
<feGaussianBlur stdDeviation="4"/>
<feComposite in2="hardAlpha" operator="arithmetic" k2="-1" k3="1"/>
<feColorMatrix type="matrix" values="0 0 0 0 0 0 0 0 0 0 0 0 0 0 0 0 0 0 0.35 0"/>
<feBlend mode="normal" in2="shape" result="effect1_innerShadow"/>
</filter>
</defs>
</svg>
