<svg width="238" height="247" viewBox="0 0 238 247" fill="none" xmlns="http://www.w3.org/2000/svg">
<rect x="2" width="236" height="247" fill="#FF6262"/>
<g filter="url(#filter0_d)">
<g filter="url(#filter1_b)">
<path d="M17.9143 30.4933L90.4971 1L162.086 30.4933L177 204H3L17.9143 30.4933Z" fill="#F5DA94"/>
<path d="M3.54482 203.5L18.3862 30.8413L90.4958 1.54023L161.614 30.8396L176.455 203.5H3.54482Z" stroke="#F5DA94"/>
</g>
<rect x="3" y="204" width="174.028" height="11.2593" fill="#C5A05A"/>
<g filter="url(#filter2_i)">
<path d="M57.46 119.32C66.7 113.68 75.22 106.6 82.06 98.68V116.56H96.94V98.8C104.62 106.72 113.86 113.8 123.58 119.32H57.46ZM67.54 152.92V146.32H112.78V152.92H67.54ZM112.78 136.6H67.54V130.12H112.78V136.6ZM143.14 95.32V82.6H96.94V72.76C108.94 71.32 120.46 69.52 130.42 67L120.34 55.6C102.34 60.04 72.46 62.92 46.18 63.88C47.62 67.12 49.3 72.52 49.66 76C60.22 75.76 71.14 75.16 82.06 74.2V82.6H36.1V95.32H68.62C58.9 103.84 45.82 111.28 32.74 115.24C35.74 118.12 39.82 123.52 41.98 127C45.82 125.56 49.54 123.76 53.26 121.72V167.44H67.54V163.72H112.78V167.32H127.78V121.6C131.14 123.28 134.26 124.72 137.62 126.04C139.66 122.56 143.74 117.28 146.74 114.52C133.9 110.56 120.58 103.36 110.5 95.32H143.14Z" fill="#FF0000"/>
</g>
<path d="M57.46 119.32L56.939 118.466L53.9023 120.32H57.46V119.32ZM82.06 98.68H83.06V95.9922L81.3032 98.0264L82.06 98.68ZM82.06 116.56H81.06V117.56H82.06V116.56ZM96.94 116.56V117.56H97.94V116.56H96.94ZM96.94 98.8L97.6579 98.1039L95.94 96.3323V98.8H96.94ZM123.58 119.32V120.32H127.366L124.074 118.45L123.58 119.32ZM67.54 152.92H66.54V153.92H67.54V152.92ZM67.54 146.32V145.32H66.54V146.32H67.54ZM112.78 146.32H113.78V145.32H112.78V146.32ZM112.78 152.92V153.92H113.78V152.92H112.78ZM112.78 136.6V137.6H113.78V136.6H112.78ZM67.54 136.6H66.54V137.6H67.54V136.6ZM67.54 130.12V129.12H66.54V130.12H67.54ZM112.78 130.12H113.78V129.12H112.78V130.12ZM143.14 95.32V96.32H144.14V95.32H143.14ZM143.14 82.6H144.14V81.6H143.14V82.6ZM96.94 82.6H95.94V83.6H96.94V82.6ZM96.94 72.76L96.8209 71.7671L95.94 71.8728V72.76H96.94ZM130.42 67L130.665 67.9694L132.256 67.5669L131.169 66.3376L130.42 67ZM120.34 55.6L121.089 54.9376L120.688 54.4841L120.101 54.6291L120.34 55.6ZM46.18 63.88L46.1435 62.8807L44.6655 62.9347L45.2662 64.2861L46.18 63.88ZM49.66 76L48.6653 76.1029L48.7603 77.0207L49.6827 76.9997L49.66 76ZM82.06 74.2H83.06V73.1082L81.9724 73.2038L82.06 74.2ZM82.06 82.6V83.6H83.06V82.6H82.06ZM36.1 82.6V81.6H35.1V82.6H36.1ZM36.1 95.32H35.1V96.32H36.1V95.32ZM68.62 95.32L69.2792 96.072L71.2779 94.32H68.62V95.32ZM32.74 115.24L32.4502 114.283L30.8148 114.778L32.0475 115.961L32.74 115.24ZM41.98 127L41.1304 127.527L41.563 128.224L42.3311 127.936L41.98 127ZM53.26 121.72H54.26V120.031L52.7792 120.843L53.26 121.72ZM53.26 167.44H52.26V168.44H53.26V167.44ZM67.54 167.44V168.44H68.54V167.44H67.54ZM67.54 163.72V162.72H66.54V163.72H67.54ZM112.78 163.72H113.78V162.72H112.78V163.72ZM112.78 167.32H111.78V168.32H112.78V167.32ZM127.78 167.32V168.32H128.78V167.32H127.78ZM127.78 121.6L128.227 120.706L126.78 119.982V121.6H127.78ZM137.62 126.04L137.254 126.971L138.05 127.283L138.483 126.546L137.62 126.04ZM146.74 114.52L147.417 115.256L148.698 114.077L147.035 113.564L146.74 114.52ZM110.5 95.32V94.32H107.643L109.876 96.1018L110.5 95.32ZM57.981 120.174C67.302 114.484 75.9036 107.338 82.8168 99.3336L81.3032 98.0264C74.5364 105.862 66.098 112.876 56.939 118.466L57.981 120.174ZM81.06 98.68V116.56H83.06V98.68H81.06ZM82.06 117.56H96.94V115.56H82.06V117.56ZM97.94 116.56V98.8H95.94V116.56H97.94ZM96.2221 99.4961C103.971 107.487 113.287 114.625 123.086 120.19L124.074 118.45C114.433 112.975 105.269 105.953 97.6579 98.1039L96.2221 99.4961ZM123.58 118.32H57.46V120.32H123.58V118.32ZM68.54 152.92V146.32H66.54V152.92H68.54ZM67.54 147.32H112.78V145.32H67.54V147.32ZM111.78 146.32V152.92H113.78V146.32H111.78ZM112.78 151.92H67.54V153.92H112.78V151.92ZM112.78 135.6H67.54V137.6H112.78V135.6ZM68.54 136.6V130.12H66.54V136.6H68.54ZM67.54 131.12H112.78V129.12H67.54V131.12ZM111.78 130.12V136.6H113.78V130.12H111.78ZM144.14 95.32V82.6H142.14V95.32H144.14ZM143.14 81.6H96.94V83.6H143.14V81.6ZM97.94 82.6V72.76H95.94V82.6H97.94ZM97.0591 73.7529C109.076 72.3109 120.645 70.5048 130.665 67.9694L130.175 66.0305C120.275 68.5352 108.804 70.3291 96.8209 71.7671L97.0591 73.7529ZM131.169 66.3376L121.089 54.9376L119.591 56.2624L129.671 67.6624L131.169 66.3376ZM120.101 54.6291C102.202 59.0439 72.4051 61.9213 46.1435 62.8807L46.2165 64.8793C72.5149 63.9187 102.478 61.036 120.579 56.5709L120.101 54.6291ZM45.2662 64.2861C46.6787 67.4643 48.3194 72.7594 48.6653 76.1029L50.6547 75.8971C50.2806 72.2806 48.5613 66.7757 47.0938 63.4739L45.2662 64.2861ZM49.6827 76.9997C60.2646 76.7592 71.2062 76.158 82.1476 75.1962L81.9724 73.2038C71.0738 74.162 60.1754 74.7607 49.6373 75.0003L49.6827 76.9997ZM81.06 74.2V82.6H83.06V74.2H81.06ZM82.06 81.6H36.1V83.6H82.06V81.6ZM35.1 82.6V95.32H37.1V82.6H35.1ZM36.1 96.32H68.62V94.32H36.1V96.32ZM67.9608 94.568C58.3451 102.997 45.3903 110.365 32.4502 114.283L33.0298 116.197C46.2497 112.195 59.4549 104.683 69.2792 96.072L67.9608 94.568ZM32.0475 115.961C34.9689 118.766 38.9986 124.093 41.1304 127.527L42.8296 126.473C40.6414 122.947 36.5111 117.474 33.4325 114.519L32.0475 115.961ZM42.3311 127.936C46.2282 126.475 49.9927 124.652 53.7408 122.597L52.7792 120.843C49.0873 122.868 45.4118 124.645 41.6289 126.064L42.3311 127.936ZM52.26 121.72V167.44H54.26V121.72H52.26ZM53.26 168.44H67.54V166.44H53.26V168.44ZM68.54 167.44V163.72H66.54V167.44H68.54ZM67.54 164.72H112.78V162.72H67.54V164.72ZM111.78 163.72V167.32H113.78V163.72H111.78ZM112.78 168.32H127.78V166.32H112.78V168.32ZM128.78 167.32V121.6H126.78V167.32H128.78ZM127.333 122.494C130.71 124.183 133.859 125.637 137.254 126.971L137.986 125.109C134.661 123.803 131.57 122.377 128.227 120.706L127.333 122.494ZM138.483 126.546C140.482 123.136 144.502 117.938 147.417 115.256L146.063 113.784C142.978 116.622 138.838 121.984 136.757 125.534L138.483 126.546ZM147.035 113.564C134.318 109.643 121.109 102.503 111.124 94.5382L109.876 96.1018C120.051 104.217 133.482 111.477 146.445 115.476L147.035 113.564ZM110.5 96.32H143.14V94.32H110.5V96.32Z" fill="black"/>
</g>
<defs>
<filter id="filter0_d" x="3" y="1" width="193.028" height="233.259" filterUnits="userSpaceOnUse" color-interpolation-filters="sRGB">
<feFlood flood-opacity="0" result="BackgroundImageFix"/>
<feColorMatrix in="SourceAlpha" type="matrix" values="0 0 0 0 0 0 0 0 0 0 0 0 0 0 0 0 0 0 127 0"/>
<feOffset dx="15" dy="15"/>
<feGaussianBlur stdDeviation="2"/>
<feColorMatrix type="matrix" values="0 0 0 0 0 0 0 0 0 0 0 0 0 0 0 0 0 0 0.5 0"/>
<feBlend mode="normal" in2="BackgroundImageFix" result="effect1_dropShadow"/>
<feBlend mode="normal" in="SourceGraphic" in2="effect1_dropShadow" result="shape"/>
</filter>
<filter id="filter1_b" x="-1" y="-3" width="182" height="211" filterUnits="userSpaceOnUse" color-interpolation-filters="sRGB">
<feFlood flood-opacity="0" result="BackgroundImageFix"/>
<feGaussianBlur in="BackgroundImage" stdDeviation="2"/>
<feComposite in2="SourceAlpha" operator="in" result="effect1_backgroundBlur"/>
<feBlend mode="normal" in="SourceGraphic" in2="effect1_backgroundBlur" result="shape"/>
</filter>
<filter id="filter2_i" x="30.8147" y="54.4841" width="117.883" height="121.956" filterUnits="userSpaceOnUse" color-interpolation-filters="sRGB">
<feFlood flood-opacity="0" result="BackgroundImageFix"/>
<feBlend mode="normal" in="SourceGraphic" in2="BackgroundImageFix" result="shape"/>
<feColorMatrix in="SourceAlpha" type="matrix" values="0 0 0 0 0 0 0 0 0 0 0 0 0 0 0 0 0 0 127 0" result="hardAlpha"/>
<feOffset dy="8"/>
<feGaussianBlur stdDeviation="4"/>
<feComposite in2="hardAlpha" operator="arithmetic" k2="-1" k3="1"/>
<feColorMatrix type="matrix" values="0 0 0 0 0 0 0 0 0 0 0 0 0 0 0 0 0 0 0.35 0"/>
<feBlend mode="normal" in2="shape" result="effect1_innerShadow"/>
</filter>
</defs>
</svg>
