<svg width="236" height="247" viewBox="0 0 236 247" fill="none" xmlns="http://www.w3.org/2000/svg">
<rect width="236" height="247" fill="#FDF1DB"/>
<g filter="url(#filter0_d)">
<g filter="url(#filter1_b)">
<path d="M54.0127 47.1175L118.891 20L182.881 47.1175L196.212 206.648H40.6815L54.0127 47.1175Z" fill="#F5DA94"/>
<path d="M41.225 206.148L54.4857 47.4618L118.89 20.5425L182.408 47.4601L195.669 206.148H41.225Z" stroke="#F5DA94"/>
</g>
<rect x="40.6815" y="206.647" width="155.556" height="10.3523" fill="#C5A05A"/>
<g filter="url(#filter2_i)">
<path d="M100.15 77.8985L87.025 83.2535C91.75 94.3835 96.79 105.618 101.62 114.543C91.54 121.998 84.19 130.713 84.19 142.263C84.19 160.323 100.045 166.098 120.94 166.098C134.59 166.098 145.72 165.048 154.645 163.473L154.855 148.353C145.51 150.663 131.335 152.238 120.52 152.238C105.925 152.238 98.68 148.248 98.68 140.688C98.68 133.338 104.56 127.353 113.275 121.578C122.83 115.383 136.06 109.293 142.57 106.038C146.455 104.043 149.815 102.258 152.965 100.368L145.72 88.1885C142.99 90.4985 139.945 92.2835 135.955 94.5935C131.02 97.4285 121.885 101.943 113.275 106.983C109.075 98.8985 104.14 88.8185 100.15 77.8985Z" fill="#FF0000"/>
</g>
<path d="M100.15 77.8985L101.089 77.5553L100.733 76.5806L99.7722 76.9726L100.15 77.8985ZM87.025 83.2535L86.6472 82.3276L85.7082 82.7107L86.1045 83.6443L87.025 83.2535ZM101.62 114.543L102.215 115.347L102.913 114.831L102.499 114.068L101.62 114.543ZM154.645 163.473L154.819 164.458L155.633 164.315L155.645 163.487L154.645 163.473ZM154.855 148.353L155.855 148.367L155.873 147.072L154.615 147.383L154.855 148.353ZM113.275 121.578L112.731 120.739L112.723 120.745L113.275 121.578ZM142.57 106.038L143.017 106.933L143.027 106.928L142.57 106.038ZM152.965 100.368L153.48 101.226L154.334 100.713L153.824 99.8573L152.965 100.368ZM145.72 88.1885L146.579 87.6773L145.976 86.6622L145.074 87.4251L145.72 88.1885ZM135.955 94.5935L136.453 95.4606L136.456 95.4589L135.955 94.5935ZM113.275 106.983L112.388 107.444L112.872 108.378L113.78 107.847L113.275 106.983ZM99.7722 76.9726L86.6472 82.3276L87.4028 84.1794L100.528 78.8244L99.7722 76.9726ZM86.1045 83.6443C90.8319 94.78 95.887 106.051 100.741 115.019L102.499 114.068C97.693 105.186 92.6681 93.987 87.9455 82.8627L86.1045 83.6443ZM101.025 113.739C90.8665 121.253 83.19 130.228 83.19 142.263H85.19C85.19 131.199 92.2135 122.744 102.215 115.347L101.025 113.739ZM83.19 142.263C83.19 146.929 84.2154 150.857 86.132 154.114C88.0482 157.371 90.8231 159.902 94.2389 161.825C101.039 165.653 110.434 167.098 120.94 167.098V165.098C110.551 165.098 101.571 163.657 95.2199 160.082C92.06 158.303 89.5652 156.005 87.8557 153.1C86.1465 150.195 85.19 146.628 85.19 142.263H83.19ZM120.94 167.098C134.641 167.098 145.829 166.045 154.819 164.458L154.471 162.489C145.611 164.052 134.539 165.098 120.94 165.098V167.098ZM155.645 163.487L155.855 148.367L153.855 148.34L153.645 163.46L155.645 163.487ZM154.615 147.383C145.36 149.67 131.267 151.238 120.52 151.238V153.238C131.403 153.238 145.66 151.657 155.095 149.324L154.615 147.383ZM120.52 151.238C113.282 151.238 108.018 150.244 104.598 148.416C102.902 147.51 101.683 146.412 100.886 145.149C100.091 143.889 99.68 142.412 99.68 140.688H97.68C97.68 142.745 98.1749 144.601 99.1945 146.216C100.212 147.827 101.716 149.144 103.656 150.18C107.507 152.238 113.163 153.238 120.52 153.238V151.238ZM99.68 140.688C99.68 133.91 105.109 128.19 113.827 122.412L112.723 120.745C104.011 126.517 97.68 132.767 97.68 140.688H99.68ZM113.819 122.418C123.312 116.263 136.457 110.213 143.017 106.933L142.123 105.144C135.663 108.374 122.348 114.504 112.731 120.739L113.819 122.418ZM143.027 106.928C146.917 104.931 150.3 103.133 153.48 101.226L152.451 99.511C149.33 101.384 145.993 103.156 142.113 105.149L143.027 106.928ZM153.824 99.8573L146.579 87.6773L144.861 88.6997L152.106 100.88L153.824 99.8573ZM145.074 87.4251C142.423 89.668 139.457 91.4102 135.454 93.7281L136.456 95.4589C140.433 93.1567 143.557 91.329 146.366 88.9519L145.074 87.4251ZM135.457 93.7264C133.008 95.133 129.515 96.9581 125.524 99.0785C121.545 101.193 117.094 103.59 112.77 106.12L113.78 107.847C118.066 105.337 122.488 102.957 126.462 100.845C130.425 98.7389 133.967 96.8889 136.453 95.4606L135.457 93.7264ZM114.162 106.523C109.97 98.4523 105.058 88.4161 101.089 77.5553L99.2107 78.2417C103.222 89.2209 108.18 99.3447 112.388 107.444L114.162 106.523Z" fill="black"/>
</g>
<defs>
<filter id="filter0_d" x="36.6815" y="20" width="163.556" height="205" filterUnits="userSpaceOnUse" color-interpolation-filters="sRGB">
<feFlood flood-opacity="0" result="BackgroundImageFix"/>
<feColorMatrix in="SourceAlpha" type="matrix" values="0 0 0 0 0 0 0 0 0 0 0 0 0 0 0 0 0 0 127 0"/>
<feOffset dy="4"/>
<feGaussianBlur stdDeviation="2"/>
<feColorMatrix type="matrix" values="0 0 0 0 0 0 0 0 0 0 0 0 0 0 0 0 0 0 0.25 0"/>
<feBlend mode="normal" in2="BackgroundImageFix" result="effect1_dropShadow"/>
<feBlend mode="normal" in="SourceGraphic" in2="effect1_dropShadow" result="shape"/>
</filter>
<filter id="filter1_b" x="36.6815" y="16" width="163.531" height="194.648" filterUnits="userSpaceOnUse" color-interpolation-filters="sRGB">
<feFlood flood-opacity="0" result="BackgroundImageFix"/>
<feGaussianBlur in="BackgroundImage" stdDeviation="2"/>
<feComposite in2="SourceAlpha" operator="in" result="effect1_backgroundBlur"/>
<feBlend mode="normal" in="SourceGraphic" in2="effect1_backgroundBlur" result="shape"/>
</filter>
<filter id="filter2_i" x="83.1899" y="76.5806" width="72.6829" height="98.5179" filterUnits="userSpaceOnUse" color-interpolation-filters="sRGB">
<feFlood flood-opacity="0" result="BackgroundImageFix"/>
<feBlend mode="normal" in="SourceGraphic" in2="BackgroundImageFix" result="shape"/>
<feColorMatrix in="SourceAlpha" type="matrix" values="0 0 0 0 0 0 0 0 0 0 0 0 0 0 0 0 0 0 127 0" result="hardAlpha"/>
<feOffset dy="8"/>
<feGaussianBlur stdDeviation="4"/>
<feComposite in2="hardAlpha" operator="arithmetic" k2="-1" k3="1"/>
<feColorMatrix type="matrix" values="0 0 0 0 0 0 0 0 0 0 0 0 0 0 0 0 0 0 0.35 0"/>
<feBlend mode="normal" in2="shape" result="effect1_innerShadow"/>
</filter>
</defs>
</svg>
