<svg width="236" height="247" viewBox="0 0 236 247" fill="none" xmlns="http://www.w3.org/2000/svg">
<rect width="236" height="247" fill="#FF6262"/>
<g filter="url(#filter0_d)">
<g filter="url(#filter1_b)">
<path d="M16.0128 28.1175L80.8914 1L144.881 28.1175L158.212 187.648H2.68164L16.0128 28.1175Z" fill="#F5DA94"/>
<path d="M3.22517 187.148L16.4858 28.4618L80.89 1.54248L144.408 28.4601L157.669 187.148H3.22517Z" stroke="#F5DA94"/>
</g>
<rect x="2.68164" y="187.647" width="155.556" height="10.3523" fill="#C5A05A"/>
<g filter="url(#filter2_i)">
<path d="M62.15 58.8985L49.025 64.2535C53.75 75.3835 58.79 86.6185 63.62 95.5435C53.54 102.998 46.19 111.713 46.19 123.263C46.19 141.323 62.045 147.098 82.94 147.098C96.59 147.098 107.72 146.048 116.645 144.473L116.855 129.353C107.51 131.663 93.335 133.238 82.52 133.238C67.925 133.238 60.68 129.248 60.68 121.688C60.68 114.338 66.56 108.353 75.275 102.578C84.83 96.3835 98.06 90.2935 104.57 87.0385C108.455 85.0435 111.815 83.2585 114.965 81.3685L107.72 69.1885C104.99 71.4985 101.945 73.2835 97.955 75.5935C93.02 78.4285 83.885 82.9435 75.275 87.9835C71.075 79.8985 66.14 69.8185 62.15 58.8985Z" fill="#FF0000"/>
</g>
<path d="M62.15 58.8985L63.0893 58.5553L62.7331 57.5806L61.7722 57.9726L62.15 58.8985ZM49.025 64.2535L48.6472 63.3276L47.7082 63.7107L48.1045 64.6443L49.025 64.2535ZM63.62 95.5435L64.2146 96.3475L64.9127 95.8312L64.4995 95.0675L63.62 95.5435ZM116.645 144.473L116.819 145.458L117.633 145.315L117.645 144.487L116.645 144.473ZM116.855 129.353L117.855 129.367L117.873 128.072L116.615 128.383L116.855 129.353ZM75.275 102.578L74.731 101.739L74.7226 101.745L75.275 102.578ZM104.57 87.0385L105.017 87.933L105.027 87.9281L104.57 87.0385ZM114.965 81.3685L115.48 82.226L116.334 81.7135L115.824 80.8573L114.965 81.3685ZM107.72 69.1885L108.579 68.6773L107.976 67.6622L107.074 68.4251L107.72 69.1885ZM97.955 75.5935L98.4531 76.4606L98.456 76.4589L97.955 75.5935ZM75.275 87.9835L74.3876 88.4445L74.8725 89.3779L75.7802 88.8465L75.275 87.9835ZM61.7722 57.9726L48.6472 63.3276L49.4028 65.1794L62.5278 59.8244L61.7722 57.9726ZM48.1045 64.6443C52.8319 75.78 57.887 87.051 62.7405 96.0194L64.4995 95.0675C59.693 86.186 54.6681 74.987 49.9455 63.8627L48.1045 64.6443ZM63.0254 94.7395C52.8665 102.253 45.19 111.228 45.19 123.263H47.19C47.19 112.199 54.2135 103.744 64.2146 96.3475L63.0254 94.7395ZM45.19 123.263C45.19 127.929 46.2154 131.857 48.132 135.114C50.0482 138.371 52.8231 140.902 56.2389 142.825C63.039 146.653 72.434 148.098 82.94 148.098V146.098C72.551 146.098 63.571 144.657 57.2199 141.082C54.06 139.303 51.5652 137.005 49.8557 134.1C48.1465 131.195 47.19 127.628 47.19 123.263H45.19ZM82.94 148.098C96.6406 148.098 107.829 147.045 116.819 145.458L116.471 143.489C107.611 145.052 96.5394 146.098 82.94 146.098V148.098ZM117.645 144.487L117.855 129.367L115.855 129.34L115.645 144.46L117.645 144.487ZM116.615 128.383C107.36 130.67 93.2668 132.238 82.52 132.238V134.238C93.4032 134.238 107.66 132.657 117.095 130.324L116.615 128.383ZM82.52 132.238C75.2824 132.238 70.0184 131.244 66.5981 129.416C64.9019 128.51 63.6832 127.412 62.8857 126.149C62.0907 124.889 61.68 123.412 61.68 121.688H59.68C59.68 123.745 60.1749 125.601 61.1945 127.216C62.2115 128.827 63.7163 130.144 65.6556 131.18C69.5066 133.238 75.1626 134.238 82.52 134.238V132.238ZM61.68 121.688C61.68 114.91 67.1087 109.19 75.8274 103.412L74.7226 101.745C66.0113 107.517 59.68 113.767 59.68 121.688H61.68ZM75.819 103.418C85.312 97.2628 98.4566 91.2133 105.017 87.9329L104.123 86.1441C97.6635 89.3737 84.348 95.5042 74.731 101.739L75.819 103.418ZM105.027 87.9281C108.917 85.9306 112.3 84.1335 115.48 82.226L114.451 80.511C111.33 82.3835 107.993 84.1564 104.113 86.1489L105.027 87.9281ZM115.824 80.8573L108.579 68.6773L106.861 69.6997L114.106 81.8797L115.824 80.8573ZM107.074 68.4251C104.423 70.668 101.457 72.4102 97.454 74.7281L98.456 76.4589C102.433 74.1567 105.557 72.329 108.366 69.9519L107.074 68.4251ZM97.4569 74.7264C95.0082 76.133 91.5145 77.9581 87.5239 80.0785C83.5449 82.1928 79.0935 84.5895 74.7698 87.1205L75.7802 88.8465C80.0665 86.3375 84.4876 83.9567 88.4624 81.8447C92.4255 79.7389 95.9668 77.8889 98.4531 76.4606L97.4569 74.7264ZM76.1624 87.5225C71.9701 79.4523 67.0576 69.4161 63.0893 58.5553L61.2107 59.2417C65.2224 70.2209 70.1799 80.3447 74.3876 88.4445L76.1624 87.5225Z" fill="black"/>
</g>
<defs>
<filter id="filter0_d" x="2.68164" y="1" width="174.556" height="216" filterUnits="userSpaceOnUse" color-interpolation-filters="sRGB">
<feFlood flood-opacity="0" result="BackgroundImageFix"/>
<feColorMatrix in="SourceAlpha" type="matrix" values="0 0 0 0 0 0 0 0 0 0 0 0 0 0 0 0 0 0 127 0"/>
<feOffset dx="15" dy="15"/>
<feGaussianBlur stdDeviation="2"/>
<feColorMatrix type="matrix" values="0 0 0 0 0 0 0 0 0 0 0 0 0 0 0 0 0 0 0.5 0"/>
<feBlend mode="normal" in2="BackgroundImageFix" result="effect1_dropShadow"/>
<feBlend mode="normal" in="SourceGraphic" in2="effect1_dropShadow" result="shape"/>
</filter>
<filter id="filter1_b" x="-1.31836" y="-3" width="163.531" height="194.648" filterUnits="userSpaceOnUse" color-interpolation-filters="sRGB">
<feFlood flood-opacity="0" result="BackgroundImageFix"/>
<feGaussianBlur in="BackgroundImage" stdDeviation="2"/>
<feComposite in2="SourceAlpha" operator="in" result="effect1_backgroundBlur"/>
<feBlend mode="normal" in="SourceGraphic" in2="effect1_backgroundBlur" result="shape"/>
</filter>
<filter id="filter2_i" x="45.1899" y="57.5806" width="72.6829" height="98.5179" filterUnits="userSpaceOnUse" color-interpolation-filters="sRGB">
<feFlood flood-opacity="0" result="BackgroundImageFix"/>
<feBlend mode="normal" in="SourceGraphic" in2="BackgroundImageFix" result="shape"/>
<feColorMatrix in="SourceAlpha" type="matrix" values="0 0 0 0 0 0 0 0 0 0 0 0 0 0 0 0 0 0 127 0" result="hardAlpha"/>
<feOffset dy="8"/>
<feGaussianBlur stdDeviation="4"/>
<feComposite in2="hardAlpha" operator="arithmetic" k2="-1" k3="1"/>
<feColorMatrix type="matrix" values="0 0 0 0 0 0 0 0 0 0 0 0 0 0 0 0 0 0 0.35 0"/>
<feBlend mode="normal" in2="shape" result="effect1_innerShadow"/>
</filter>
</defs>
</svg>
