<svg width="236" height="247" viewBox="0 0 236 247" fill="none" xmlns="http://www.w3.org/2000/svg">
<rect width="236" height="247" fill="#FF6262"/>
<g filter="url(#filter0_d)">
<g filter="url(#filter1_b)">
<path d="M17 31.4897L90 0L162 31.4897L177 216.741H2L17 31.4897Z" fill="#F5DA94"/>
<path d="M2.54212 216.241L17.4741 31.8297L89.9986 0.545129L161.526 31.828L176.458 216.241H2.54212Z" stroke="#F5DA94"/>
</g>
<rect x="2" y="216.741" width="175" height="11.2593" fill="#C5A05A"/>
</g>
<g filter="url(#filter2_i)">
<path d="M53.4 141.88V136.24H71.88V141.88H53.4ZM71.88 121.6V127.12H53.4V121.6H71.88ZM85.8 111.52H40.2V173.2H53.4V151H71.88V159.16C71.88 160.48 71.4 160.84 69.96 160.96C68.76 161.08 64.44 161.08 60.6 160.84C62.4 164.2 64.32 169.48 65.04 173.2C71.88 173.2 76.92 173.08 80.88 170.92C84.72 168.76 85.8 165.4 85.8 159.52V111.52ZM70.08 82.12C69.24 85.84 67.68 90.28 66.6 93.64L70.08 94.48H55.08L57.84 93.76C57.36 90.64 55.92 86.08 54.48 82.12H70.08ZM79.2 82.12H88.32V70.24H69.36V61.48H55.32V70.24H36.36V82.12H46.8L42.72 83.08C43.92 86.44 45.12 90.88 45.84 94.48H34.44V106.36H90V94.48H78.24C79.56 91.24 81.24 87.16 83.04 82.96L79.2 82.12ZM114.48 161.2C109.44 161.2 108.72 160.48 108.72 156.04V154.72H134.52C133.92 160 132.84 161.2 129.48 161.2H114.48ZM140.28 146.32H108.72V141.52H139.08V133.24H108.72V128.44H139.68V120.16H108.72V115.48H139.56V87.52H108.72V80.92H144.12V69.4H108.72V61.36H94.8V98.08H125.88V104.8H94.8V156.16C94.8 169.12 98.88 172.6 112.44 172.6H130.8C141.6 172.6 145.32 168.88 146.76 156.64C144.96 156.28 142.56 155.56 140.28 154.72V146.32Z" fill="#FF0000"/>
</g>
<path d="M53.4 141.88H52.4V142.88H53.4V141.88ZM53.4 136.24V135.24H52.4V136.24H53.4ZM71.88 136.24H72.88V135.24H71.88V136.24ZM71.88 141.88V142.88H72.88V141.88H71.88ZM71.88 121.6H72.88V120.6H71.88V121.6ZM71.88 127.12V128.12H72.88V127.12H71.88ZM53.4 127.12H52.4V128.12H53.4V127.12ZM53.4 121.6V120.6H52.4V121.6H53.4ZM85.8 111.52H86.8V110.52H85.8V111.52ZM40.2 111.52V110.52H39.2V111.52H40.2ZM40.2 173.2H39.2V174.2H40.2V173.2ZM53.4 173.2V174.2H54.4V173.2H53.4ZM53.4 151V150H52.4V151H53.4ZM71.88 151H72.88V150H71.88V151ZM69.96 160.96L69.877 159.963L69.8687 159.964L69.8605 159.965L69.96 160.96ZM60.6 160.84L60.6624 159.842L58.8709 159.73L59.7185 161.312L60.6 160.84ZM65.04 173.2L64.0582 173.39L64.215 174.2H65.04V173.2ZM80.88 170.92L81.3589 171.798L81.3703 171.792L80.88 170.92ZM70.08 82.12L71.0554 82.3403L71.331 81.12H70.08V82.12ZM66.6 93.64L65.648 93.334L65.3184 94.3594L66.3654 94.6121L66.6 93.64ZM70.08 94.48V95.48L70.3146 93.5079L70.08 94.48ZM55.08 94.48L54.8276 93.5124L55.08 95.48V94.48ZM57.84 93.76L58.0924 94.7276L58.9656 94.4998L58.8284 93.6079L57.84 93.76ZM54.48 82.12V81.12H53.0523L53.5402 82.4617L54.48 82.12ZM79.2 82.12V81.12L78.9863 83.0969L79.2 82.12ZM88.32 82.12V83.12H89.32V82.12H88.32ZM88.32 70.24H89.32V69.24H88.32V70.24ZM69.36 70.24H68.36V71.24H69.36V70.24ZM69.36 61.48H70.36V60.48H69.36V61.48ZM55.32 61.48V60.48H54.32V61.48H55.32ZM55.32 70.24V71.24H56.32V70.24H55.32ZM36.36 70.24V69.24H35.36V70.24H36.36ZM36.36 82.12H35.36V83.12H36.36V82.12ZM46.8 82.12L47.029 83.0934L46.8 81.12V82.12ZM42.72 83.08L42.491 82.1066L41.402 82.3628L41.7783 83.4163L42.72 83.08ZM45.84 94.48V95.48H47.0598L46.8206 94.2839L45.84 94.48ZM34.44 94.48V93.48H33.44V94.48H34.44ZM34.44 106.36H33.44V107.36H34.44V106.36ZM90 106.36V107.36H91V106.36H90ZM90 94.48H91V93.48H90V94.48ZM78.24 94.48L77.3139 94.1027L76.7528 95.48H78.24V94.48ZM83.04 82.96L83.9591 83.3539L84.4358 82.2417L83.2537 81.9831L83.04 82.96ZM108.72 154.72V153.72H107.72V154.72H108.72ZM134.52 154.72L135.514 154.833L135.64 153.72H134.52V154.72ZM140.28 146.32H141.28V145.32H140.28V146.32ZM108.72 146.32H107.72V147.32H108.72V146.32ZM108.72 141.52V140.52H107.72V141.52H108.72ZM139.08 141.52V142.52H140.08V141.52H139.08ZM139.08 133.24H140.08V132.24H139.08V133.24ZM108.72 133.24H107.72V134.24H108.72V133.24ZM108.72 128.44V127.44H107.72V128.44H108.72ZM139.68 128.44V129.44H140.68V128.44H139.68ZM139.68 120.16H140.68V119.16H139.68V120.16ZM108.72 120.16H107.72V121.16H108.72V120.16ZM108.72 115.48V114.48H107.72V115.48H108.72ZM139.56 115.48V116.48H140.56V115.48H139.56ZM139.56 87.52H140.56V86.52H139.56V87.52ZM108.72 87.52H107.72V88.52H108.72V87.52ZM108.72 80.92V79.92H107.72V80.92H108.72ZM144.12 80.92V81.92H145.12V80.92H144.12ZM144.12 69.4H145.12V68.4H144.12V69.4ZM108.72 69.4H107.72V70.4H108.72V69.4ZM108.72 61.36H109.72V60.36H108.72V61.36ZM94.8 61.36V60.36H93.8V61.36H94.8ZM94.8 98.08H93.8V99.08H94.8V98.08ZM125.88 98.08H126.88V97.08H125.88V98.08ZM125.88 104.8V105.8H126.88V104.8H125.88ZM94.8 104.8V103.8H93.8V104.8H94.8ZM146.76 156.64L147.753 156.757L147.861 155.84L146.956 155.659L146.76 156.64ZM140.28 154.72H139.28V155.417L139.934 155.658L140.28 154.72ZM54.4 141.88V136.24H52.4V141.88H54.4ZM53.4 137.24H71.88V135.24H53.4V137.24ZM70.88 136.24V141.88H72.88V136.24H70.88ZM71.88 140.88H53.4V142.88H71.88V140.88ZM70.88 121.6V127.12H72.88V121.6H70.88ZM71.88 126.12H53.4V128.12H71.88V126.12ZM54.4 127.12V121.6H52.4V127.12H54.4ZM53.4 122.6H71.88V120.6H53.4V122.6ZM85.8 110.52H40.2V112.52H85.8V110.52ZM39.2 111.52V173.2H41.2V111.52H39.2ZM40.2 174.2H53.4V172.2H40.2V174.2ZM54.4 173.2V151H52.4V173.2H54.4ZM53.4 152H71.88V150H53.4V152ZM70.88 151V159.16H72.88V151H70.88ZM70.88 159.16C70.88 159.438 70.8535 159.599 70.826 159.689C70.8134 159.731 70.8026 159.751 70.7983 159.757C70.7948 159.763 70.7931 159.765 70.791 159.767C70.7868 159.771 70.7428 159.809 70.5909 159.853C70.4343 159.898 70.2084 159.936 69.877 159.963L70.043 161.957C70.7684 161.896 71.5587 161.767 72.129 161.253C72.7543 160.691 72.88 159.9 72.88 159.16H70.88ZM69.8605 159.965C68.7446 160.077 64.4912 160.081 60.6624 159.842L60.5376 161.838C64.3888 162.079 68.7754 162.083 70.0595 161.955L69.8605 159.965ZM59.7185 161.312C61.474 164.589 63.3584 169.775 64.0582 173.39L66.0218 173.01C65.2816 169.185 63.326 163.811 61.4815 160.368L59.7185 161.312ZM65.04 174.2C71.8125 174.2 77.1324 174.103 81.3589 171.798L80.4012 170.042C76.7077 172.057 71.9475 172.2 65.04 172.2V174.2ZM81.3703 171.792C83.4726 170.609 84.865 169.061 85.7064 166.992C86.5298 164.966 86.8 162.501 86.8 159.52H84.8C84.8 162.419 84.5302 164.574 83.8536 166.238C83.195 167.859 82.1274 169.071 80.3897 170.048L81.3703 171.792ZM86.8 159.52V111.52H84.8V159.52H86.8ZM69.1046 81.8997C68.2775 85.5623 66.7421 89.9301 65.648 93.334L67.552 93.946C68.6179 90.6299 70.2025 86.1177 71.0554 82.3403L69.1046 81.8997ZM66.3654 94.6121L69.8454 95.4521L70.3146 93.5079L66.8346 92.6679L66.3654 94.6121ZM70.08 93.48H55.08V95.48H70.08V93.48ZM55.3324 95.4476L58.0924 94.7276L57.5876 92.7924L54.8276 93.5124L55.3324 95.4476ZM58.8284 93.6079C58.3323 90.3832 56.8618 85.7438 55.4198 81.7783L53.5402 82.4617C54.9782 86.4162 56.3877 90.8968 56.8516 93.9121L58.8284 93.6079ZM54.48 83.12H70.08V81.12H54.48V83.12ZM79.2 83.12H88.32V81.12H79.2V83.12ZM89.32 82.12V70.24H87.32V82.12H89.32ZM88.32 69.24H69.36V71.24H88.32V69.24ZM70.36 70.24V61.48H68.36V70.24H70.36ZM69.36 60.48H55.32V62.48H69.36V60.48ZM54.32 61.48V70.24H56.32V61.48H54.32ZM55.32 69.24H36.36V71.24H55.32V69.24ZM35.36 70.24V82.12H37.36V70.24H35.36ZM36.36 83.12H46.8V81.12H36.36V83.12ZM46.571 81.1466L42.491 82.1066L42.949 84.0534L47.029 83.0934L46.571 81.1466ZM41.7783 83.4163C42.9602 86.7258 44.1479 91.1184 44.8594 94.6761L46.8206 94.2839C46.0921 90.6416 44.8798 86.1542 43.6617 82.7437L41.7783 83.4163ZM45.84 93.48H34.44V95.48H45.84V93.48ZM33.44 94.48V106.36H35.44V94.48H33.44ZM34.44 107.36H90V105.36H34.44V107.36ZM91 106.36V94.48H89V106.36H91ZM90 93.48H78.24V95.48H90V93.48ZM79.1661 94.8573C80.4851 91.6198 82.1625 87.546 83.9591 83.3539L82.1209 82.5661C80.3175 86.774 78.6349 90.8602 77.3139 94.1027L79.1661 94.8573ZM83.2537 81.9831L79.4137 81.1431L78.9863 83.0969L82.8263 83.9369L83.2537 81.9831ZM114.48 160.2C113.23 160.2 112.313 160.154 111.627 160.033C110.946 159.913 110.592 159.735 110.382 159.544C110.184 159.364 110.009 159.078 109.89 158.513C109.766 157.929 109.72 157.14 109.72 156.04H107.72C107.72 157.16 107.764 158.126 107.933 158.926C108.106 159.744 108.426 160.471 109.038 161.026C109.638 161.57 110.409 161.849 111.28 162.003C112.147 162.156 113.21 162.2 114.48 162.2V160.2ZM109.72 156.04V154.72H107.72V156.04H109.72ZM108.72 155.72H134.52V153.72H108.72V155.72ZM133.526 154.607C133.225 157.263 132.818 158.607 132.253 159.317C131.779 159.912 131.066 160.2 129.48 160.2V162.2C131.254 162.2 132.761 161.888 133.817 160.563C134.782 159.353 135.215 157.457 135.514 154.833L133.526 154.607ZM129.48 160.2H114.48V162.2H129.48V160.2ZM140.28 145.32H108.72V147.32H140.28V145.32ZM109.72 146.32V141.52H107.72V146.32H109.72ZM108.72 142.52H139.08V140.52H108.72V142.52ZM140.08 141.52V133.24H138.08V141.52H140.08ZM139.08 132.24H108.72V134.24H139.08V132.24ZM109.72 133.24V128.44H107.72V133.24H109.72ZM108.72 129.44H139.68V127.44H108.72V129.44ZM140.68 128.44V120.16H138.68V128.44H140.68ZM139.68 119.16H108.72V121.16H139.68V119.16ZM109.72 120.16V115.48H107.72V120.16H109.72ZM108.72 116.48H139.56V114.48H108.72V116.48ZM140.56 115.48V87.52H138.56V115.48H140.56ZM139.56 86.52H108.72V88.52H139.56V86.52ZM109.72 87.52V80.92H107.72V87.52H109.72ZM108.72 81.92H144.12V79.92H108.72V81.92ZM145.12 80.92V69.4H143.12V80.92H145.12ZM144.12 68.4H108.72V70.4H144.12V68.4ZM109.72 69.4V61.36H107.72V69.4H109.72ZM108.72 60.36H94.8V62.36H108.72V60.36ZM93.8 61.36V98.08H95.8V61.36H93.8ZM94.8 99.08H125.88V97.08H94.8V99.08ZM124.88 98.08V104.8H126.88V98.08H124.88ZM125.88 103.8H94.8V105.8H125.88V103.8ZM93.8 104.8V156.16H95.8V104.8H93.8ZM93.8 156.16C93.8 162.676 94.8085 167.179 97.8591 169.977C100.882 172.749 105.653 173.6 112.44 173.6V171.6C105.667 171.6 101.618 170.711 99.2109 168.503C96.8315 166.321 95.8 162.604 95.8 156.16H93.8ZM112.44 173.6H130.8V171.6H112.44V173.6ZM130.8 173.6C136.278 173.6 140.249 172.665 142.997 169.917C145.713 167.202 147.029 162.91 147.753 156.757L145.767 156.523C145.051 162.61 143.787 166.298 141.583 168.503C139.411 170.675 136.122 171.6 130.8 171.6V173.6ZM146.956 155.659C145.223 155.313 142.876 154.611 140.626 153.782L139.934 155.658C142.244 156.509 144.697 157.247 146.564 157.621L146.956 155.659ZM141.28 154.72V146.32H139.28V154.72H141.28Z" fill="#3F3C31"/>
<defs>
<filter id="filter0_d" x="2" y="0" width="194" height="247" filterUnits="userSpaceOnUse" color-interpolation-filters="sRGB">
<feFlood flood-opacity="0" result="BackgroundImageFix"/>
<feColorMatrix in="SourceAlpha" type="matrix" values="0 0 0 0 0 0 0 0 0 0 0 0 0 0 0 0 0 0 127 0"/>
<feOffset dx="15" dy="15"/>
<feGaussianBlur stdDeviation="2"/>
<feColorMatrix type="matrix" values="0 0 0 0 0 0 0 0 0 0 0 0 0 0 0 0 0 0 0.5 0"/>
<feBlend mode="normal" in2="BackgroundImageFix" result="effect1_dropShadow"/>
<feBlend mode="normal" in="SourceGraphic" in2="effect1_dropShadow" result="shape"/>
</filter>
<filter id="filter1_b" x="-2" y="-4" width="183" height="224.741" filterUnits="userSpaceOnUse" color-interpolation-filters="sRGB">
<feFlood flood-opacity="0" result="BackgroundImageFix"/>
<feGaussianBlur in="BackgroundImage" stdDeviation="2"/>
<feComposite in2="SourceAlpha" operator="in" result="effect1_backgroundBlur"/>
<feBlend mode="normal" in="SourceGraphic" in2="effect1_backgroundBlur" result="shape"/>
</filter>
<filter id="filter2_i" x="33.4399" y="60.3601" width="114.421" height="121.84" filterUnits="userSpaceOnUse" color-interpolation-filters="sRGB">
<feFlood flood-opacity="0" result="BackgroundImageFix"/>
<feBlend mode="normal" in="SourceGraphic" in2="BackgroundImageFix" result="shape"/>
<feColorMatrix in="SourceAlpha" type="matrix" values="0 0 0 0 0 0 0 0 0 0 0 0 0 0 0 0 0 0 127 0" result="hardAlpha"/>
<feOffset dy="8"/>
<feGaussianBlur stdDeviation="4"/>
<feComposite in2="hardAlpha" operator="arithmetic" k2="-1" k3="1"/>
<feColorMatrix type="matrix" values="0 0 0 0 0 0 0 0 0 0 0 0 0 0 0 0 0 0 0.35 0"/>
<feBlend mode="normal" in2="shape" result="effect1_innerShadow"/>
</filter>
</defs>
</svg>
