<svg width="236" height="247" viewBox="0 0 236 247" fill="none" xmlns="http://www.w3.org/2000/svg">
<rect width="236" height="247" fill="#FDF1DB"/>
<g filter="url(#filter0_d)">
<g filter="url(#filter1_b)">
<path d="M45 41.4897L118 10L190 41.4897L205 226.741H30L45 41.4897Z" fill="#F5DA94"/>
<path d="M30.5421 226.241L45.4741 41.8297L117.999 10.5451L189.526 41.828L204.458 226.241H30.5421Z" stroke="#F5DA94"/>
</g>
<rect x="30" y="226.741" width="175" height="11.2593" fill="#C5A05A"/>
<g filter="url(#filter2_i)">
<path d="M81.4 151.88V146.24H99.88V151.88H81.4ZM99.88 131.6V137.12H81.4V131.6H99.88ZM113.8 121.52H68.2V183.2H81.4V161H99.88V169.16C99.88 170.48 99.4 170.84 97.96 170.96C96.76 171.08 92.44 171.08 88.6 170.84C90.4 174.2 92.32 179.48 93.04 183.2C99.88 183.2 104.92 183.08 108.88 180.92C112.72 178.76 113.8 175.4 113.8 169.52V121.52ZM98.08 92.12C97.24 95.84 95.68 100.28 94.6 103.64L98.08 104.48H83.08L85.84 103.76C85.36 100.64 83.92 96.08 82.48 92.12H98.08ZM107.2 92.12H116.32V80.24H97.36V71.48H83.32V80.24H64.36V92.12H74.8L70.72 93.08C71.92 96.44 73.12 100.88 73.84 104.48H62.44V116.36H118V104.48H106.24C107.56 101.24 109.24 97.16 111.04 92.96L107.2 92.12ZM142.48 171.2C137.44 171.2 136.72 170.48 136.72 166.04V164.72H162.52C161.92 170 160.84 171.2 157.48 171.2H142.48ZM168.28 156.32H136.72V151.52H167.08V143.24H136.72V138.44H167.68V130.16H136.72V125.48H167.56V97.52H136.72V90.92H172.12V79.4H136.72V71.36H122.8V108.08H153.88V114.8H122.8V166.16C122.8 179.12 126.88 182.6 140.44 182.6H158.8C169.6 182.6 173.32 178.88 174.76 166.64C172.96 166.28 170.56 165.56 168.28 164.72V156.32Z" fill="#FF0000"/>
</g>
<path d="M81.4 151.88H80.4V152.88H81.4V151.88ZM81.4 146.24V145.24H80.4V146.24H81.4ZM99.88 146.24H100.88V145.24H99.88V146.24ZM99.88 151.88V152.88H100.88V151.88H99.88ZM99.88 131.6H100.88V130.6H99.88V131.6ZM99.88 137.12V138.12H100.88V137.12H99.88ZM81.4 137.12H80.4V138.12H81.4V137.12ZM81.4 131.6V130.6H80.4V131.6H81.4ZM113.8 121.52H114.8V120.52H113.8V121.52ZM68.2 121.52V120.52H67.2V121.52H68.2ZM68.2 183.2H67.2V184.2H68.2V183.2ZM81.4 183.2V184.2H82.4V183.2H81.4ZM81.4 161V160H80.4V161H81.4ZM99.88 161H100.88V160H99.88V161ZM97.96 170.96L97.877 169.963L97.8687 169.964L97.8605 169.965L97.96 170.96ZM88.6 170.84L88.6624 169.842L86.8709 169.73L87.7185 171.312L88.6 170.84ZM93.04 183.2L92.0582 183.39L92.215 184.2H93.04V183.2ZM108.88 180.92L109.359 181.798L109.37 181.792L108.88 180.92ZM98.08 92.12L99.0554 92.3403L99.331 91.12H98.08V92.12ZM94.6 103.64L93.648 103.334L93.3184 104.359L94.3654 104.612L94.6 103.64ZM98.08 104.48V105.48L98.3146 103.508L98.08 104.48ZM83.08 104.48L82.8276 103.512L83.08 105.48V104.48ZM85.84 103.76L86.0924 104.728L86.9656 104.5L86.8284 103.608L85.84 103.76ZM82.48 92.12V91.12H81.0523L81.5402 92.4617L82.48 92.12ZM107.2 92.12V91.12L106.986 93.0969L107.2 92.12ZM116.32 92.12V93.12H117.32V92.12H116.32ZM116.32 80.24H117.32V79.24H116.32V80.24ZM97.36 80.24H96.36V81.24H97.36V80.24ZM97.36 71.48H98.36V70.48H97.36V71.48ZM83.32 71.48V70.48H82.32V71.48H83.32ZM83.32 80.24V81.24H84.32V80.24H83.32ZM64.36 80.24V79.24H63.36V80.24H64.36ZM64.36 92.12H63.36V93.12H64.36V92.12ZM74.8 92.12L75.029 93.0934L74.8 91.12V92.12ZM70.72 93.08L70.491 92.1066L69.402 92.3628L69.7783 93.4163L70.72 93.08ZM73.84 104.48V105.48H75.0598L74.8206 104.284L73.84 104.48ZM62.44 104.48V103.48H61.44V104.48H62.44ZM62.44 116.36H61.44V117.36H62.44V116.36ZM118 116.36V117.36H119V116.36H118ZM118 104.48H119V103.48H118V104.48ZM106.24 104.48L105.314 104.103L104.753 105.48H106.24V104.48ZM111.04 92.96L111.959 93.3539L112.436 92.2417L111.254 91.9831L111.04 92.96ZM136.72 164.72V163.72H135.72V164.72H136.72ZM162.52 164.72L163.514 164.833L163.64 163.72H162.52V164.72ZM168.28 156.32H169.28V155.32H168.28V156.32ZM136.72 156.32H135.72V157.32H136.72V156.32ZM136.72 151.52V150.52H135.72V151.52H136.72ZM167.08 151.52V152.52H168.08V151.52H167.08ZM167.08 143.24H168.08V142.24H167.08V143.24ZM136.72 143.24H135.72V144.24H136.72V143.24ZM136.72 138.44V137.44H135.72V138.44H136.72ZM167.68 138.44V139.44H168.68V138.44H167.68ZM167.68 130.16H168.68V129.16H167.68V130.16ZM136.72 130.16H135.72V131.16H136.72V130.16ZM136.72 125.48V124.48H135.72V125.48H136.72ZM167.56 125.48V126.48H168.56V125.48H167.56ZM167.56 97.52H168.56V96.52H167.56V97.52ZM136.72 97.52H135.72V98.52H136.72V97.52ZM136.72 90.92V89.92H135.72V90.92H136.72ZM172.12 90.92V91.92H173.12V90.92H172.12ZM172.12 79.4H173.12V78.4H172.12V79.4ZM136.72 79.4H135.72V80.4H136.72V79.4ZM136.72 71.36H137.72V70.36H136.72V71.36ZM122.8 71.36V70.36H121.8V71.36H122.8ZM122.8 108.08H121.8V109.08H122.8V108.08ZM153.88 108.08H154.88V107.08H153.88V108.08ZM153.88 114.8V115.8H154.88V114.8H153.88ZM122.8 114.8V113.8H121.8V114.8H122.8ZM174.76 166.64L175.753 166.757L175.861 165.84L174.956 165.659L174.76 166.64ZM168.28 164.72H167.28V165.417L167.934 165.658L168.28 164.72ZM82.4 151.88V146.24H80.4V151.88H82.4ZM81.4 147.24H99.88V145.24H81.4V147.24ZM98.88 146.24V151.88H100.88V146.24H98.88ZM99.88 150.88H81.4V152.88H99.88V150.88ZM98.88 131.6V137.12H100.88V131.6H98.88ZM99.88 136.12H81.4V138.12H99.88V136.12ZM82.4 137.12V131.6H80.4V137.12H82.4ZM81.4 132.6H99.88V130.6H81.4V132.6ZM113.8 120.52H68.2V122.52H113.8V120.52ZM67.2 121.52V183.2H69.2V121.52H67.2ZM68.2 184.2H81.4V182.2H68.2V184.2ZM82.4 183.2V161H80.4V183.2H82.4ZM81.4 162H99.88V160H81.4V162ZM98.88 161V169.16H100.88V161H98.88ZM98.88 169.16C98.88 169.438 98.8535 169.599 98.826 169.689C98.8134 169.731 98.8026 169.751 98.7983 169.757C98.7948 169.763 98.7931 169.765 98.791 169.767C98.7868 169.771 98.7428 169.809 98.5909 169.853C98.4343 169.898 98.2084 169.936 97.877 169.963L98.043 171.957C98.7684 171.896 99.5587 171.767 100.129 171.253C100.754 170.691 100.88 169.9 100.88 169.16H98.88ZM97.8605 169.965C96.7446 170.077 92.4912 170.081 88.6624 169.842L88.5376 171.838C92.3888 172.079 96.7754 172.083 98.0595 171.955L97.8605 169.965ZM87.7185 171.312C89.474 174.589 91.3584 179.775 92.0582 183.39L94.0218 183.01C93.2816 179.185 91.326 173.811 89.4815 170.368L87.7185 171.312ZM93.04 184.2C99.8125 184.2 105.132 184.103 109.359 181.798L108.401 180.042C104.708 182.057 99.9475 182.2 93.04 182.2V184.2ZM109.37 181.792C111.473 180.609 112.865 179.061 113.706 176.992C114.53 174.966 114.8 172.501 114.8 169.52H112.8C112.8 172.419 112.53 174.574 111.854 176.238C111.195 177.859 110.127 179.071 108.39 180.048L109.37 181.792ZM114.8 169.52V121.52H112.8V169.52H114.8ZM97.1046 91.8997C96.2775 95.5623 94.7421 99.9301 93.648 103.334L95.552 103.946C96.6179 100.63 98.2025 96.1177 99.0554 92.3403L97.1046 91.8997ZM94.3654 104.612L97.8454 105.452L98.3146 103.508L94.8346 102.668L94.3654 104.612ZM98.08 103.48H83.08V105.48H98.08V103.48ZM83.3324 105.448L86.0924 104.728L85.5876 102.792L82.8276 103.512L83.3324 105.448ZM86.8284 103.608C86.3323 100.383 84.8618 95.7438 83.4198 91.7783L81.5402 92.4617C82.9782 96.4162 84.3877 100.897 84.8516 103.912L86.8284 103.608ZM82.48 93.12H98.08V91.12H82.48V93.12ZM107.2 93.12H116.32V91.12H107.2V93.12ZM117.32 92.12V80.24H115.32V92.12H117.32ZM116.32 79.24H97.36V81.24H116.32V79.24ZM98.36 80.24V71.48H96.36V80.24H98.36ZM97.36 70.48H83.32V72.48H97.36V70.48ZM82.32 71.48V80.24H84.32V71.48H82.32ZM83.32 79.24H64.36V81.24H83.32V79.24ZM63.36 80.24V92.12H65.36V80.24H63.36ZM64.36 93.12H74.8V91.12H64.36V93.12ZM74.571 91.1466L70.491 92.1066L70.949 94.0534L75.029 93.0934L74.571 91.1466ZM69.7783 93.4163C70.9602 96.7258 72.1479 101.118 72.8594 104.676L74.8206 104.284C74.0921 100.642 72.8798 96.1542 71.6617 92.7437L69.7783 93.4163ZM73.84 103.48H62.44V105.48H73.84V103.48ZM61.44 104.48V116.36H63.44V104.48H61.44ZM62.44 117.36H118V115.36H62.44V117.36ZM119 116.36V104.48H117V116.36H119ZM118 103.48H106.24V105.48H118V103.48ZM107.166 104.857C108.485 101.62 110.163 97.546 111.959 93.3539L110.121 92.5661C108.317 96.774 106.635 100.86 105.314 104.103L107.166 104.857ZM111.254 91.9831L107.414 91.1431L106.986 93.0969L110.826 93.9369L111.254 91.9831ZM142.48 170.2C141.23 170.2 140.313 170.154 139.627 170.033C138.946 169.913 138.592 169.735 138.382 169.544C138.184 169.364 138.009 169.078 137.89 168.513C137.766 167.929 137.72 167.14 137.72 166.04H135.72C135.72 167.16 135.764 168.126 135.933 168.926C136.106 169.744 136.426 170.471 137.038 171.026C137.638 171.57 138.409 171.849 139.28 172.003C140.147 172.156 141.21 172.2 142.48 172.2V170.2ZM137.72 166.04V164.72H135.72V166.04H137.72ZM136.72 165.72H162.52V163.72H136.72V165.72ZM161.526 164.607C161.225 167.263 160.818 168.607 160.253 169.317C159.779 169.912 159.066 170.2 157.48 170.2V172.2C159.254 172.2 160.761 171.888 161.817 170.563C162.782 169.353 163.215 167.457 163.514 164.833L161.526 164.607ZM157.48 170.2H142.48V172.2H157.48V170.2ZM168.28 155.32H136.72V157.32H168.28V155.32ZM137.72 156.32V151.52H135.72V156.32H137.72ZM136.72 152.52H167.08V150.52H136.72V152.52ZM168.08 151.52V143.24H166.08V151.52H168.08ZM167.08 142.24H136.72V144.24H167.08V142.24ZM137.72 143.24V138.44H135.72V143.24H137.72ZM136.72 139.44H167.68V137.44H136.72V139.44ZM168.68 138.44V130.16H166.68V138.44H168.68ZM167.68 129.16H136.72V131.16H167.68V129.16ZM137.72 130.16V125.48H135.72V130.16H137.72ZM136.72 126.48H167.56V124.48H136.72V126.48ZM168.56 125.48V97.52H166.56V125.48H168.56ZM167.56 96.52H136.72V98.52H167.56V96.52ZM137.72 97.52V90.92H135.72V97.52H137.72ZM136.72 91.92H172.12V89.92H136.72V91.92ZM173.12 90.92V79.4H171.12V90.92H173.12ZM172.12 78.4H136.72V80.4H172.12V78.4ZM137.72 79.4V71.36H135.72V79.4H137.72ZM136.72 70.36H122.8V72.36H136.72V70.36ZM121.8 71.36V108.08H123.8V71.36H121.8ZM122.8 109.08H153.88V107.08H122.8V109.08ZM152.88 108.08V114.8H154.88V108.08H152.88ZM153.88 113.8H122.8V115.8H153.88V113.8ZM121.8 114.8V166.16H123.8V114.8H121.8ZM121.8 166.16C121.8 172.676 122.808 177.179 125.859 179.977C128.882 182.749 133.653 183.6 140.44 183.6V181.6C133.667 181.6 129.618 180.711 127.211 178.503C124.832 176.321 123.8 172.604 123.8 166.16H121.8ZM140.44 183.6H158.8V181.6H140.44V183.6ZM158.8 183.6C164.278 183.6 168.249 182.665 170.997 179.917C173.713 177.202 175.029 172.91 175.753 166.757L173.767 166.523C173.051 172.61 171.787 176.298 169.583 178.503C167.411 180.675 164.122 181.6 158.8 181.6V183.6ZM174.956 165.659C173.223 165.313 170.876 164.611 168.626 163.782L167.934 165.658C170.244 166.509 172.697 167.247 174.564 167.621L174.956 165.659ZM169.28 164.72V156.32H167.28V164.72H169.28Z" fill="#3F3C31"/>
</g>
<defs>
<filter id="filter0_d" x="26" y="10" width="183" height="236" filterUnits="userSpaceOnUse" color-interpolation-filters="sRGB">
<feFlood flood-opacity="0" result="BackgroundImageFix"/>
<feColorMatrix in="SourceAlpha" type="matrix" values="0 0 0 0 0 0 0 0 0 0 0 0 0 0 0 0 0 0 127 0"/>
<feOffset dy="4"/>
<feGaussianBlur stdDeviation="2"/>
<feColorMatrix type="matrix" values="0 0 0 0 0 0 0 0 0 0 0 0 0 0 0 0 0 0 0.25 0"/>
<feBlend mode="normal" in2="BackgroundImageFix" result="effect1_dropShadow"/>
<feBlend mode="normal" in="SourceGraphic" in2="effect1_dropShadow" result="shape"/>
</filter>
<filter id="filter1_b" x="26" y="6" width="183" height="224.741" filterUnits="userSpaceOnUse" color-interpolation-filters="sRGB">
<feFlood flood-opacity="0" result="BackgroundImageFix"/>
<feGaussianBlur in="BackgroundImage" stdDeviation="2"/>
<feComposite in2="SourceAlpha" operator="in" result="effect1_backgroundBlur"/>
<feBlend mode="normal" in="SourceGraphic" in2="effect1_backgroundBlur" result="shape"/>
</filter>
<filter id="filter2_i" x="61.44" y="70.3601" width="114.421" height="121.84" filterUnits="userSpaceOnUse" color-interpolation-filters="sRGB">
<feFlood flood-opacity="0" result="BackgroundImageFix"/>
<feBlend mode="normal" in="SourceGraphic" in2="BackgroundImageFix" result="shape"/>
<feColorMatrix in="SourceAlpha" type="matrix" values="0 0 0 0 0 0 0 0 0 0 0 0 0 0 0 0 0 0 127 0" result="hardAlpha"/>
<feOffset dy="8"/>
<feGaussianBlur stdDeviation="4"/>
<feComposite in2="hardAlpha" operator="arithmetic" k2="-1" k3="1"/>
<feColorMatrix type="matrix" values="0 0 0 0 0 0 0 0 0 0 0 0 0 0 0 0 0 0 0.35 0"/>
<feBlend mode="normal" in2="shape" result="effect1_innerShadow"/>
</filter>
</defs>
</svg>
