<svg width="237" height="247" viewBox="0 0 237 247" fill="none" xmlns="http://www.w3.org/2000/svg">
<rect x="1" width="236" height="247" fill="#FF6262"/>
<g filter="url(#filter0_d)">
<g filter="url(#filter1_b)">
<path d="M17.9143 30.4933L90.4971 1L162.086 30.4933L177 204H3L17.9143 30.4933Z" fill="#F5DA94"/>
<path d="M3.54482 203.5L18.3862 30.8413L90.4958 1.54023L161.614 30.8396L176.455 203.5H3.54482Z" stroke="#F5DA94"/>
</g>
<rect x="3" y="204" width="174.028" height="11.2593" fill="#C5A05A"/>
<g filter="url(#filter2_i)">
<path d="M100.18 114.04H106.9C109.06 125.44 112.06 135.64 116.38 144.28C110.98 145.48 105.46 146.68 100.18 147.88V114.04ZM126.82 72.4V80.68H100.18V72.4H126.82ZM100.18 101.44V92.68H126.82V101.44H100.18ZM49.18 85C54.22 79.48 58.06 73.84 61.3 68.68C66.34 73.48 71.74 79.96 75.34 85H49.18ZM135.46 117.04C132.46 120.28 127.78 124.36 123.58 127.6C121.9 123.4 120.7 118.84 119.62 114.04H140.38V59.8H86.86V150.52L82.9 151.24L82.54 144.76C77.02 145.72 71.38 146.56 65.86 147.52V117.76H81.7V105.64H65.86V96.88H79.06V85.48L86.38 76.84C81.94 70.36 72.46 61.48 65.14 55.48H53.5C49.3 64.72 41.98 76 31.3 84.52C34.18 86.44 38.14 91.12 40.06 94L41.98 92.32V96.88H53.5V105.64H36.7V117.76H53.5V149.44C46.54 150.52 40.18 151.36 35.02 152.08L37.78 164.8C49.42 162.88 64.66 160.24 79.3 157.48L81.7 166.12C92.26 163.72 105.58 160.6 118.06 157.48L116.5 144.76C121.66 154.72 128.5 162.52 138.22 167.68C140.14 163.96 144.22 158.56 147.34 155.8C139.3 152.08 133.18 146.08 128.62 138.4C133.78 135.16 140.02 130.84 145.06 126.76L135.46 117.04ZM37.78 124.72C39.7 131.32 41.5 139.84 41.86 145.6L51.7 142.84C51.1 137.32 49.18 128.8 47.14 122.32L37.78 124.72ZM75.46 143.92C77.5 138.76 79.9 130.96 82.3 123.88L71.5 121.24C70.78 127.12 68.74 135.88 67.06 141.4L75.46 143.92Z" fill="#FF0000"/>
</g>
<path d="M100.18 114.04V113.04H99.18V114.04H100.18ZM106.9 114.04L107.883 113.854L107.728 113.04H106.9V114.04ZM116.38 144.28L116.597 145.256L117.847 144.978L117.274 143.833L116.38 144.28ZM100.18 147.88H99.18V149.133L100.402 148.855L100.18 147.88ZM126.82 72.4H127.82V71.4H126.82V72.4ZM126.82 80.68V81.68H127.82V80.68H126.82ZM100.18 80.68H99.18V81.68H100.18V80.68ZM100.18 72.4V71.4H99.18V72.4H100.18ZM100.18 101.44H99.18V102.44H100.18V101.44ZM100.18 92.68V91.68H99.18V92.68H100.18ZM126.82 92.68H127.82V91.68H126.82V92.68ZM126.82 101.44V102.44H127.82V101.44H126.82ZM49.18 85L48.4415 84.3257L46.9128 86H49.18V85ZM61.3 68.68L61.9897 67.9559L61.1037 67.1121L60.4531 68.1482L61.3 68.68ZM75.34 85V86H77.2832L76.1537 84.4188L75.34 85ZM135.46 117.04L136.171 116.337L135.437 115.593L134.726 116.361L135.46 117.04ZM123.58 127.6L122.652 127.971L123.143 129.2L124.191 128.392L123.58 127.6ZM119.62 114.04V113.04H118.37L118.644 114.26L119.62 114.04ZM140.38 114.04V115.04H141.38V114.04H140.38ZM140.38 59.8H141.38V58.8H140.38V59.8ZM86.86 59.8V58.8H85.86V59.8H86.86ZM86.86 150.52L87.0389 151.504L87.86 151.355V150.52H86.86ZM82.9 151.24L81.9015 151.295L81.9644 152.427L83.0789 152.224L82.9 151.24ZM82.54 144.76L83.5385 144.705L83.4761 143.582L82.3687 143.775L82.54 144.76ZM65.86 147.52H64.86V148.709L66.0313 148.505L65.86 147.52ZM65.86 117.76V116.76H64.86V117.76H65.86ZM81.7 117.76V118.76H82.7V117.76H81.7ZM81.7 105.64H82.7V104.64H81.7V105.64ZM65.86 105.64H64.86V106.64H65.86V105.64ZM65.86 96.88V95.88H64.86V96.88H65.86ZM79.06 96.88V97.88H80.06V96.88H79.06ZM79.06 85.48L78.297 84.8336L78.06 85.1133V85.48H79.06ZM86.38 76.84L87.143 77.4864L87.6362 76.9042L87.2049 76.2748L86.38 76.84ZM65.14 55.48L65.7739 54.7066L65.4975 54.48H65.14V55.48ZM53.5 55.48V54.48H52.8561L52.5896 55.0662L53.5 55.48ZM31.3 84.52L30.6764 83.7383L29.6058 84.5924L30.7453 85.352L31.3 84.52ZM40.06 94L39.228 94.5547L39.8604 95.5034L40.7185 94.7526L40.06 94ZM41.98 92.32H42.98V90.1162L41.3215 91.5674L41.98 92.32ZM41.98 96.88H40.98V97.88H41.98V96.88ZM53.5 96.88H54.5V95.88H53.5V96.88ZM53.5 105.64V106.64H54.5V105.64H53.5ZM36.7 105.64V104.64H35.7V105.64H36.7ZM36.7 117.76H35.7V118.76H36.7V117.76ZM53.5 117.76H54.5V116.76H53.5V117.76ZM53.5 149.44L53.6533 150.428L54.5 150.297V149.44H53.5ZM35.02 152.08L34.8818 151.09L33.8142 151.239L34.0427 152.292L35.02 152.08ZM37.78 164.8L36.8027 165.012L37.0044 165.941L37.9427 165.787L37.78 164.8ZM79.3 157.48L80.2635 157.212L80.0176 156.327L79.1147 156.497L79.3 157.48ZM81.7 166.12L80.7365 166.388L80.9917 167.306L81.9216 167.095L81.7 166.12ZM118.06 157.48L118.303 158.45L119.16 158.236L119.053 157.358L118.06 157.48ZM116.5 144.76L117.388 144.3L115.507 144.882L116.5 144.76ZM138.22 167.68L137.751 168.563L138.645 169.038L139.109 168.139L138.22 167.68ZM147.34 155.8L148.003 156.549L149.149 155.535L147.76 154.892L147.34 155.8ZM128.62 138.4L128.088 137.553L127.262 138.072L127.76 138.911L128.62 138.4ZM145.06 126.76L145.689 127.537L146.547 126.843L145.771 126.057L145.06 126.76ZM37.78 124.72L37.5316 123.751L36.5314 124.008L36.8198 124.999L37.78 124.72ZM41.86 145.6L40.8619 145.662L40.9391 146.897L42.1301 146.563L41.86 145.6ZM51.7 142.84L51.9701 143.803L52.7857 143.574L52.6941 142.732L51.7 142.84ZM47.14 122.32L48.0938 122.02L47.8094 121.116L46.8916 121.351L47.14 122.32ZM75.46 143.92L75.1727 144.878L76.0523 145.142L76.39 144.288L75.46 143.92ZM82.3 123.88L83.2471 124.201L83.5974 123.168L82.5375 122.909L82.3 123.88ZM71.5 121.24L71.7375 120.269L70.6442 120.001L70.5074 121.118L71.5 121.24ZM67.06 141.4L66.1033 141.109L65.811 142.069L66.7727 142.358L67.06 141.4ZM100.18 115.04H106.9V113.04H100.18V115.04ZM105.917 114.226C108.088 125.679 111.11 135.976 115.486 144.727L117.274 143.833C113.01 135.304 110.033 125.201 107.883 113.854L105.917 114.226ZM116.163 143.304C110.77 144.502 105.241 145.704 99.9584 146.905L100.402 148.855C105.679 147.656 111.19 146.458 116.597 145.256L116.163 143.304ZM101.18 147.88V114.04H99.18V147.88H101.18ZM125.82 72.4V80.68H127.82V72.4H125.82ZM126.82 79.68H100.18V81.68H126.82V79.68ZM101.18 80.68V72.4H99.18V80.68H101.18ZM100.18 73.4H126.82V71.4H100.18V73.4ZM101.18 101.44V92.68H99.18V101.44H101.18ZM100.18 93.68H126.82V91.68H100.18V93.68ZM125.82 92.68V101.44H127.82V92.68H125.82ZM126.82 100.44H100.18V102.44H126.82V100.44ZM49.9185 85.6743C55.0161 80.0911 58.8925 74.3946 62.1469 69.2118L60.4531 68.1482C57.2275 73.2854 53.4239 78.8689 48.4415 84.3257L49.9185 85.6743ZM60.6103 69.4041C65.5962 74.1526 70.9557 80.5824 74.5263 85.5812L76.1537 84.4188C72.5243 79.3376 67.0838 72.8074 61.9897 67.9559L60.6103 69.4041ZM75.34 84H49.18V86H75.34V84ZM134.726 116.361C131.778 119.545 127.144 123.587 122.969 126.808L124.191 128.392C128.416 125.133 133.142 121.015 136.194 117.719L134.726 116.361ZM124.508 127.229C122.858 123.103 121.672 118.604 120.596 113.82L118.644 114.26C119.728 119.076 120.942 123.697 122.652 127.971L124.508 127.229ZM119.62 115.04H140.38V113.04H119.62V115.04ZM141.38 114.04V59.8H139.38V114.04H141.38ZM140.38 58.8H86.86V60.8H140.38V58.8ZM85.86 59.8V150.52H87.86V59.8H85.86ZM86.6811 149.536L82.7211 150.256L83.0789 152.224L87.0389 151.504L86.6811 149.536ZM83.8985 151.185L83.5385 144.705L81.5415 144.815L81.9015 151.295L83.8985 151.185ZM82.3687 143.775C79.6157 144.254 76.8318 144.703 74.0408 145.153C71.2518 145.603 68.4557 146.054 65.6887 146.535L66.0313 148.505C68.7843 148.026 71.5682 147.577 74.3592 147.127C77.1482 146.677 79.9443 146.226 82.7113 145.745L82.3687 143.775ZM66.86 147.52V117.76H64.86V147.52H66.86ZM65.86 118.76H81.7V116.76H65.86V118.76ZM82.7 117.76V105.64H80.7V117.76H82.7ZM81.7 104.64H65.86V106.64H81.7V104.64ZM66.86 105.64V96.88H64.86V105.64H66.86ZM65.86 97.88H79.06V95.88H65.86V97.88ZM80.06 96.88V85.48H78.06V96.88H80.06ZM79.823 86.1264L87.143 77.4864L85.617 76.1936L78.297 84.8336L79.823 86.1264ZM87.2049 76.2748C82.6796 69.6703 73.1048 60.7155 65.7739 54.7066L64.5061 56.2534C71.8152 62.2445 81.2004 71.0497 85.5551 77.4052L87.2049 76.2748ZM65.14 54.48H53.5V56.48H65.14V54.48ZM52.5896 55.0662C48.4368 64.2025 41.2029 75.3407 30.6764 83.7383L31.9236 85.3017C42.7571 76.6593 50.1632 65.2375 54.4104 55.8938L52.5896 55.0662ZM30.7453 85.352C32.0793 86.2414 33.7224 87.8165 35.2961 89.5683C36.8594 91.3086 38.2987 93.1608 39.228 94.5547L40.8921 93.4453C39.9013 91.9591 38.4006 90.0314 36.7839 88.2317C35.1776 86.4435 33.4007 84.7186 31.8547 83.6879L30.7453 85.352ZM40.7185 94.7526L42.6385 93.0726L41.3215 91.5674L39.4015 93.2474L40.7185 94.7526ZM40.98 92.32V96.88H42.98V92.32H40.98ZM41.98 97.88H53.5V95.88H41.98V97.88ZM52.5 96.88V105.64H54.5V96.88H52.5ZM53.5 104.64H36.7V106.64H53.5V104.64ZM35.7 105.64V117.76H37.7V105.64H35.7ZM36.7 118.76H53.5V116.76H36.7V118.76ZM52.5 117.76V149.44H54.5V117.76H52.5ZM53.3467 148.452C46.3967 149.53 40.0505 150.368 34.8818 151.09L35.1582 153.07C40.3095 152.352 46.6833 151.51 53.6533 150.428L53.3467 148.452ZM34.0427 152.292L36.8027 165.012L38.7573 164.588L35.9973 151.868L34.0427 152.292ZM37.9427 165.787C49.5886 163.866 64.8363 161.224 79.4853 158.463L79.1147 156.497C64.4837 159.256 49.2514 161.894 37.6173 163.813L37.9427 165.787ZM78.3365 157.748L80.7365 166.388L82.6635 165.852L80.2635 157.212L78.3365 157.748ZM81.9216 167.095C92.4861 164.694 105.813 161.572 118.303 158.45L117.817 156.51C105.347 159.628 92.0339 162.746 81.4784 165.145L81.9216 167.095ZM119.053 157.358L117.493 144.638L115.507 144.882L117.067 157.602L119.053 157.358ZM115.612 145.22C120.844 155.319 127.815 163.288 137.751 168.563L138.689 166.797C129.185 161.752 122.476 154.121 117.388 144.3L115.612 145.22ZM139.109 168.139C140.978 164.517 144.984 159.219 148.003 156.549L146.677 155.051C143.456 157.901 139.302 163.403 137.331 167.221L139.109 168.139ZM147.76 154.892C139.929 151.269 133.952 145.422 129.48 137.889L127.76 138.911C132.408 146.738 138.671 152.891 146.92 156.708L147.76 154.892ZM129.152 139.247C134.337 135.991 140.611 131.648 145.689 127.537L144.431 125.983C139.429 130.032 133.223 134.329 128.088 137.553L129.152 139.247ZM145.771 126.057L136.171 116.337L134.749 117.743L144.349 127.463L145.771 126.057ZM36.8198 124.999C38.7295 131.564 40.5084 140.005 40.8619 145.662L42.8581 145.538C42.4916 139.675 40.6705 131.076 38.7402 124.441L36.8198 124.999ZM42.1301 146.563L51.9701 143.803L51.4299 141.877L41.5899 144.637L42.1301 146.563ZM52.6941 142.732C52.0853 137.131 50.148 128.545 48.0938 122.02L46.1862 122.62C48.212 129.055 50.1147 137.509 50.7059 142.948L52.6941 142.732ZM46.8916 121.351L37.5316 123.751L38.0284 125.689L47.3884 123.289L46.8916 121.351ZM76.39 144.288C78.4417 139.098 80.8635 131.233 83.2471 124.201L81.3529 123.559C78.9365 130.687 76.5583 138.422 74.53 143.552L76.39 144.288ZM82.5375 122.909L71.7375 120.269L71.2625 122.211L82.0626 124.851L82.5375 122.909ZM70.5074 121.118C69.7962 126.926 67.7714 135.628 66.1033 141.109L68.0167 141.691C69.7086 136.132 71.7638 127.314 72.4926 121.362L70.5074 121.118ZM66.7727 142.358L75.1727 144.878L75.7473 142.962L67.3474 140.442L66.7727 142.358Z" fill="black"/>
</g>
<defs>
<filter id="filter0_d" x="3" y="1" width="193.028" height="233.259" filterUnits="userSpaceOnUse" color-interpolation-filters="sRGB">
<feFlood flood-opacity="0" result="BackgroundImageFix"/>
<feColorMatrix in="SourceAlpha" type="matrix" values="0 0 0 0 0 0 0 0 0 0 0 0 0 0 0 0 0 0 127 0"/>
<feOffset dx="15" dy="15"/>
<feGaussianBlur stdDeviation="2"/>
<feColorMatrix type="matrix" values="0 0 0 0 0 0 0 0 0 0 0 0 0 0 0 0 0 0 0.5 0"/>
<feBlend mode="normal" in2="BackgroundImageFix" result="effect1_dropShadow"/>
<feBlend mode="normal" in="SourceGraphic" in2="effect1_dropShadow" result="shape"/>
</filter>
<filter id="filter1_b" x="-1" y="-3" width="182" height="211" filterUnits="userSpaceOnUse" color-interpolation-filters="sRGB">
<feFlood flood-opacity="0" result="BackgroundImageFix"/>
<feGaussianBlur in="BackgroundImage" stdDeviation="2"/>
<feComposite in2="SourceAlpha" operator="in" result="effect1_backgroundBlur"/>
<feBlend mode="normal" in="SourceGraphic" in2="effect1_backgroundBlur" result="shape"/>
</filter>
<filter id="filter2_i" x="29.6057" y="54.48" width="119.543" height="122.558" filterUnits="userSpaceOnUse" color-interpolation-filters="sRGB">
<feFlood flood-opacity="0" result="BackgroundImageFix"/>
<feBlend mode="normal" in="SourceGraphic" in2="BackgroundImageFix" result="shape"/>
<feColorMatrix in="SourceAlpha" type="matrix" values="0 0 0 0 0 0 0 0 0 0 0 0 0 0 0 0 0 0 127 0" result="hardAlpha"/>
<feOffset dy="8"/>
<feGaussianBlur stdDeviation="4"/>
<feComposite in2="hardAlpha" operator="arithmetic" k2="-1" k3="1"/>
<feColorMatrix type="matrix" values="0 0 0 0 0 0 0 0 0 0 0 0 0 0 0 0 0 0 0.35 0"/>
<feBlend mode="normal" in2="shape" result="effect1_innerShadow"/>
</filter>
</defs>
</svg>
