<svg width="236" height="247" viewBox="0 0 236 247" fill="none" xmlns="http://www.w3.org/2000/svg">
<rect width="236" height="247" fill="#FF6262"/>
<g filter="url(#filter0_d)">
<g filter="url(#filter1_b)">
<path d="M45.9143 46.4933L118.497 17L190.086 46.4933L205 220H31L45.9143 46.4933Z" fill="#F5DA94"/>
<path d="M31.5448 219.5L46.3862 46.8413L118.496 17.5402L189.614 46.8396L204.455 219.5H31.5448Z" stroke="#F5DA94"/>
</g>
<rect x="31" y="220" width="174.028" height="11.2593" fill="#C5A05A"/>
<g filter="url(#filter2_i)">
<path d="M128.18 130.04H134.9C137.06 141.44 140.06 151.64 144.38 160.28C138.98 161.48 133.46 162.68 128.18 163.88V130.04ZM154.82 88.4V96.68H128.18V88.4H154.82ZM128.18 117.44V108.68H154.82V117.44H128.18ZM77.18 101C82.22 95.48 86.06 89.84 89.3 84.68C94.34 89.48 99.74 95.96 103.34 101H77.18ZM163.46 133.04C160.46 136.28 155.78 140.36 151.58 143.6C149.9 139.4 148.7 134.84 147.62 130.04H168.38V75.8H114.86V166.52L110.9 167.24L110.54 160.76C105.02 161.72 99.38 162.56 93.86 163.52V133.76H109.7V121.64H93.86V112.88H107.06V101.48L114.38 92.84C109.94 86.36 100.46 77.48 93.14 71.48H81.5C77.3 80.72 69.98 92 59.3 100.52C62.18 102.44 66.14 107.12 68.06 110L69.98 108.32V112.88H81.5V121.64H64.7V133.76H81.5V165.44C74.54 166.52 68.18 167.36 63.02 168.08L65.78 180.8C77.42 178.88 92.66 176.24 107.3 173.48L109.7 182.12C120.26 179.72 133.58 176.6 146.06 173.48L144.5 160.76C149.66 170.72 156.5 178.52 166.22 183.68C168.14 179.96 172.22 174.56 175.34 171.8C167.3 168.08 161.18 162.08 156.62 154.4C161.78 151.16 168.02 146.84 173.06 142.76L163.46 133.04ZM65.78 140.72C67.7 147.32 69.5 155.84 69.86 161.6L79.7 158.84C79.1 153.32 77.18 144.8 75.14 138.32L65.78 140.72ZM103.46 159.92C105.5 154.76 107.9 146.96 110.3 139.88L99.5 137.24C98.78 143.12 96.74 151.88 95.06 157.4L103.46 159.92Z" fill="#FF0000"/>
</g>
<path d="M128.18 130.04V129.04H127.18V130.04H128.18ZM134.9 130.04L135.883 129.854L135.728 129.04H134.9V130.04ZM144.38 160.28L144.597 161.256L145.847 160.978L145.274 159.833L144.38 160.28ZM128.18 163.88H127.18V165.133L128.402 164.855L128.18 163.88ZM154.82 88.4H155.82V87.4H154.82V88.4ZM154.82 96.68V97.68H155.82V96.68H154.82ZM128.18 96.68H127.18V97.68H128.18V96.68ZM128.18 88.4V87.4H127.18V88.4H128.18ZM128.18 117.44H127.18V118.44H128.18V117.44ZM128.18 108.68V107.68H127.18V108.68H128.18ZM154.82 108.68H155.82V107.68H154.82V108.68ZM154.82 117.44V118.44H155.82V117.44H154.82ZM77.18 101L76.4415 100.326L74.9128 102H77.18V101ZM89.3 84.68L89.9897 83.9559L89.1037 83.1121L88.4531 84.1482L89.3 84.68ZM103.34 101V102H105.283L104.154 100.419L103.34 101ZM163.46 133.04L164.171 132.337L163.437 131.593L162.726 132.361L163.46 133.04ZM151.58 143.6L150.652 143.971L151.143 145.2L152.191 144.392L151.58 143.6ZM147.62 130.04V129.04H146.37L146.644 130.26L147.62 130.04ZM168.38 130.04V131.04H169.38V130.04H168.38ZM168.38 75.8H169.38V74.8H168.38V75.8ZM114.86 75.8V74.8H113.86V75.8H114.86ZM114.86 166.52L115.039 167.504L115.86 167.355V166.52H114.86ZM110.9 167.24L109.902 167.295L109.964 168.427L111.079 168.224L110.9 167.24ZM110.54 160.76L111.538 160.705L111.476 159.582L110.369 159.775L110.54 160.76ZM93.86 163.52H92.86V164.709L94.0313 164.505L93.86 163.52ZM93.86 133.76V132.76H92.86V133.76H93.86ZM109.7 133.76V134.76H110.7V133.76H109.7ZM109.7 121.64H110.7V120.64H109.7V121.64ZM93.86 121.64H92.86V122.64H93.86V121.64ZM93.86 112.88V111.88H92.86V112.88H93.86ZM107.06 112.88V113.88H108.06V112.88H107.06ZM107.06 101.48L106.297 100.834L106.06 101.113V101.48H107.06ZM114.38 92.84L115.143 93.4864L115.636 92.9042L115.205 92.2748L114.38 92.84ZM93.14 71.48L93.7739 70.7066L93.4975 70.48H93.14V71.48ZM81.5 71.48V70.48H80.8561L80.5896 71.0662L81.5 71.48ZM59.3 100.52L58.6764 99.7383L57.6058 100.592L58.7453 101.352L59.3 100.52ZM68.06 110L67.228 110.555L67.8604 111.503L68.7185 110.753L68.06 110ZM69.98 108.32H70.98V106.116L69.3215 107.567L69.98 108.32ZM69.98 112.88H68.98V113.88H69.98V112.88ZM81.5 112.88H82.5V111.88H81.5V112.88ZM81.5 121.64V122.64H82.5V121.64H81.5ZM64.7 121.64V120.64H63.7V121.64H64.7ZM64.7 133.76H63.7V134.76H64.7V133.76ZM81.5 133.76H82.5V132.76H81.5V133.76ZM81.5 165.44L81.6533 166.428L82.5 166.297V165.44H81.5ZM63.02 168.08L62.8818 167.09L61.8142 167.239L62.0427 168.292L63.02 168.08ZM65.78 180.8L64.8027 181.012L65.0044 181.941L65.9427 181.787L65.78 180.8ZM107.3 173.48L108.264 173.212L108.018 172.327L107.115 172.497L107.3 173.48ZM109.7 182.12L108.736 182.388L108.992 183.306L109.922 183.095L109.7 182.12ZM146.06 173.48L146.303 174.45L147.16 174.236L147.053 173.358L146.06 173.48ZM144.5 160.76L145.388 160.3L143.507 160.882L144.5 160.76ZM166.22 183.68L165.751 184.563L166.645 185.038L167.109 184.139L166.22 183.68ZM175.34 171.8L176.003 172.549L177.149 171.535L175.76 170.892L175.34 171.8ZM156.62 154.4L156.088 153.553L155.262 154.072L155.76 154.911L156.62 154.4ZM173.06 142.76L173.689 143.537L174.547 142.843L173.771 142.057L173.06 142.76ZM65.78 140.72L65.5316 139.751L64.5314 140.008L64.8198 140.999L65.78 140.72ZM69.86 161.6L68.8619 161.662L68.9391 162.897L70.1301 162.563L69.86 161.6ZM79.7 158.84L79.9701 159.803L80.7857 159.574L80.6941 158.732L79.7 158.84ZM75.14 138.32L76.0938 138.02L75.8094 137.116L74.8916 137.351L75.14 138.32ZM103.46 159.92L103.173 160.878L104.052 161.142L104.39 160.288L103.46 159.92ZM110.3 139.88L111.247 140.201L111.597 139.168L110.537 138.909L110.3 139.88ZM99.5 137.24L99.7375 136.269L98.6442 136.001L98.5074 137.118L99.5 137.24ZM95.06 157.4L94.1033 157.109L93.811 158.069L94.7727 158.358L95.06 157.4ZM128.18 131.04H134.9V129.04H128.18V131.04ZM133.917 130.226C136.088 141.679 139.11 151.976 143.486 160.727L145.274 159.833C141.01 151.304 138.033 141.201 135.883 129.854L133.917 130.226ZM144.163 159.304C138.77 160.502 133.241 161.704 127.958 162.905L128.402 164.855C133.679 163.656 139.19 162.458 144.597 161.256L144.163 159.304ZM129.18 163.88V130.04H127.18V163.88H129.18ZM153.82 88.4V96.68H155.82V88.4H153.82ZM154.82 95.68H128.18V97.68H154.82V95.68ZM129.18 96.68V88.4H127.18V96.68H129.18ZM128.18 89.4H154.82V87.4H128.18V89.4ZM129.18 117.44V108.68H127.18V117.44H129.18ZM128.18 109.68H154.82V107.68H128.18V109.68ZM153.82 108.68V117.44H155.82V108.68H153.82ZM154.82 116.44H128.18V118.44H154.82V116.44ZM77.9185 101.674C83.0161 96.0911 86.8925 90.3946 90.1469 85.2118L88.4531 84.1482C85.2275 89.2854 81.4239 94.8689 76.4415 100.326L77.9185 101.674ZM88.6103 85.4041C93.5962 90.1526 98.9557 96.5824 102.526 101.581L104.154 100.419C100.524 95.3376 95.0838 88.8074 89.9897 83.9559L88.6103 85.4041ZM103.34 100H77.18V102H103.34V100ZM162.726 132.361C159.778 135.545 155.144 139.587 150.969 142.808L152.191 144.392C156.416 141.133 161.142 137.015 164.194 133.719L162.726 132.361ZM152.508 143.229C150.858 139.103 149.672 134.604 148.596 129.82L146.644 130.26C147.728 135.076 148.942 139.697 150.652 143.971L152.508 143.229ZM147.62 131.04H168.38V129.04H147.62V131.04ZM169.38 130.04V75.8H167.38V130.04H169.38ZM168.38 74.8H114.86V76.8H168.38V74.8ZM113.86 75.8V166.52H115.86V75.8H113.86ZM114.681 165.536L110.721 166.256L111.079 168.224L115.039 167.504L114.681 165.536ZM111.898 167.185L111.538 160.705L109.542 160.815L109.902 167.295L111.898 167.185ZM110.369 159.775C107.616 160.254 104.832 160.703 102.041 161.153C99.2518 161.603 96.4557 162.054 93.6887 162.535L94.0313 164.505C96.7843 164.026 99.5682 163.577 102.359 163.127C105.148 162.677 107.944 162.226 110.711 161.745L110.369 159.775ZM94.86 163.52V133.76H92.86V163.52H94.86ZM93.86 134.76H109.7V132.76H93.86V134.76ZM110.7 133.76V121.64H108.7V133.76H110.7ZM109.7 120.64H93.86V122.64H109.7V120.64ZM94.86 121.64V112.88H92.86V121.64H94.86ZM93.86 113.88H107.06V111.88H93.86V113.88ZM108.06 112.88V101.48H106.06V112.88H108.06ZM107.823 102.126L115.143 93.4864L113.617 92.1936L106.297 100.834L107.823 102.126ZM115.205 92.2748C110.68 85.6703 101.105 76.7155 93.7739 70.7066L92.5061 72.2534C99.8152 78.2445 109.2 87.0497 113.555 93.4052L115.205 92.2748ZM93.14 70.48H81.5V72.48H93.14V70.48ZM80.5896 71.0662C76.4368 80.2025 69.2029 91.3407 58.6764 99.7383L59.9236 101.302C70.7571 92.6593 78.1632 81.2375 82.4104 71.8938L80.5896 71.0662ZM58.7453 101.352C60.0793 102.241 61.7224 103.816 63.2961 105.568C64.8594 107.309 66.2987 109.161 67.228 110.555L68.8921 109.445C67.9013 107.959 66.4006 106.031 64.7839 104.232C63.1776 102.444 61.4007 100.719 59.8547 99.6879L58.7453 101.352ZM68.7185 110.753L70.6385 109.073L69.3215 107.567L67.4015 109.247L68.7185 110.753ZM68.98 108.32V112.88H70.98V108.32H68.98ZM69.98 113.88H81.5V111.88H69.98V113.88ZM80.5 112.88V121.64H82.5V112.88H80.5ZM81.5 120.64H64.7V122.64H81.5V120.64ZM63.7 121.64V133.76H65.7V121.64H63.7ZM64.7 134.76H81.5V132.76H64.7V134.76ZM80.5 133.76V165.44H82.5V133.76H80.5ZM81.3467 164.452C74.3967 165.53 68.0505 166.368 62.8818 167.09L63.1582 169.07C68.3095 168.352 74.6833 167.51 81.6533 166.428L81.3467 164.452ZM62.0427 168.292L64.8027 181.012L66.7573 180.588L63.9973 167.868L62.0427 168.292ZM65.9427 181.787C77.5886 179.866 92.8363 177.224 107.485 174.463L107.115 172.497C92.4837 175.256 77.2514 177.894 65.6173 179.813L65.9427 181.787ZM106.336 173.748L108.736 182.388L110.664 181.852L108.264 173.212L106.336 173.748ZM109.922 183.095C120.486 180.694 133.813 177.572 146.303 174.45L145.817 172.51C133.347 175.628 120.034 178.746 109.478 181.145L109.922 183.095ZM147.053 173.358L145.493 160.638L143.507 160.882L145.067 173.602L147.053 173.358ZM143.612 161.22C148.844 171.319 155.815 179.288 165.751 184.563L166.689 182.797C157.185 177.752 150.476 170.121 145.388 160.3L143.612 161.22ZM167.109 184.139C168.978 180.517 172.984 175.219 176.003 172.549L174.677 171.051C171.456 173.901 167.302 179.403 165.331 183.221L167.109 184.139ZM175.76 170.892C167.929 167.269 161.952 161.422 157.48 153.889L155.76 154.911C160.408 162.738 166.671 168.891 174.92 172.708L175.76 170.892ZM157.152 155.247C162.337 151.991 168.611 147.648 173.689 143.537L172.431 141.983C167.429 146.032 161.223 150.329 156.088 153.553L157.152 155.247ZM173.771 142.057L164.171 132.337L162.749 133.743L172.349 143.463L173.771 142.057ZM64.8198 140.999C66.7295 147.564 68.5084 156.005 68.8619 161.662L70.8581 161.538C70.4916 155.675 68.6705 147.076 66.7402 140.441L64.8198 140.999ZM70.1301 162.563L79.9701 159.803L79.4299 157.877L69.5899 160.637L70.1301 162.563ZM80.6941 158.732C80.0853 153.131 78.148 144.545 76.0938 138.02L74.1862 138.62C76.212 145.055 78.1147 153.509 78.7059 158.948L80.6941 158.732ZM74.8916 137.351L65.5316 139.751L66.0284 141.689L75.3884 139.289L74.8916 137.351ZM104.39 160.288C106.442 155.098 108.864 147.233 111.247 140.201L109.353 139.559C106.937 146.687 104.558 154.422 102.53 159.552L104.39 160.288ZM110.537 138.909L99.7375 136.269L99.2625 138.211L110.063 140.851L110.537 138.909ZM98.5074 137.118C97.7962 142.926 95.7714 151.628 94.1033 157.109L96.0167 157.691C97.7086 152.132 99.7638 143.314 100.493 137.362L98.5074 137.118ZM94.7727 158.358L103.173 160.878L103.747 158.962L95.3474 156.442L94.7727 158.358Z" fill="black"/>
</g>
<defs>
<filter id="filter0_d" x="27" y="17" width="182.028" height="222.259" filterUnits="userSpaceOnUse" color-interpolation-filters="sRGB">
<feFlood flood-opacity="0" result="BackgroundImageFix"/>
<feColorMatrix in="SourceAlpha" type="matrix" values="0 0 0 0 0 0 0 0 0 0 0 0 0 0 0 0 0 0 127 0"/>
<feOffset dy="4"/>
<feGaussianBlur stdDeviation="2"/>
<feColorMatrix type="matrix" values="0 0 0 0 0 0 0 0 0 0 0 0 0 0 0 0 0 0 0.25 0"/>
<feBlend mode="normal" in2="BackgroundImageFix" result="effect1_dropShadow"/>
<feBlend mode="normal" in="SourceGraphic" in2="effect1_dropShadow" result="shape"/>
</filter>
<filter id="filter1_b" x="27" y="13" width="182" height="211" filterUnits="userSpaceOnUse" color-interpolation-filters="sRGB">
<feFlood flood-opacity="0" result="BackgroundImageFix"/>
<feGaussianBlur in="BackgroundImage" stdDeviation="2"/>
<feComposite in2="SourceAlpha" operator="in" result="effect1_backgroundBlur"/>
<feBlend mode="normal" in="SourceGraphic" in2="effect1_backgroundBlur" result="shape"/>
</filter>
<filter id="filter2_i" x="57.6057" y="70.48" width="119.543" height="122.558" filterUnits="userSpaceOnUse" color-interpolation-filters="sRGB">
<feFlood flood-opacity="0" result="BackgroundImageFix"/>
<feBlend mode="normal" in="SourceGraphic" in2="BackgroundImageFix" result="shape"/>
<feColorMatrix in="SourceAlpha" type="matrix" values="0 0 0 0 0 0 0 0 0 0 0 0 0 0 0 0 0 0 127 0" result="hardAlpha"/>
<feOffset dy="8"/>
<feGaussianBlur stdDeviation="4"/>
<feComposite in2="hardAlpha" operator="arithmetic" k2="-1" k3="1"/>
<feColorMatrix type="matrix" values="0 0 0 0 0 0 0 0 0 0 0 0 0 0 0 0 0 0 0.35 0"/>
<feBlend mode="normal" in2="shape" result="effect1_innerShadow"/>
</filter>
</defs>
</svg>
