<svg width="172" height="236" viewBox="0 0 172 236" fill="none" xmlns="http://www.w3.org/2000/svg">
<g filter="url(#filter0_d)">
<g filter="url(#filter1_b)">
<path d="M18.7 31.4897L86.4278 0L153.228 31.4897L167.144 216.741H4.78333L18.7 31.4897Z" fill="#524F48"/>
<path d="M5.3223 216.241L19.1766 31.8195L86.4263 0.552082L152.751 31.8177L166.605 216.241H5.3223Z" stroke="#524F48"/>
</g>
<rect x="4.78333" y="216.741" width="162.361" height="11.2593" fill="#272624"/>
<g filter="url(#filter2_d)">
<path d="M104.211 75.5356V82.8256H67.68V75.5356H104.211ZM67.68 94.8136V87.1996H104.211V94.8136H67.68ZM61.767 102.509H67.68V99.6736H104.211V102.347H110.367V70.7566H61.767V102.509ZM121.14 52.4506V47.0236H88.497V37.9516C97.407 36.9796 105.75 35.6026 112.392 33.8206L107.856 29.1226C96.111 32.2006 74.646 34.2256 56.421 35.1976C57.069 36.5746 57.798 38.8426 57.96 40.3006C65.736 39.9766 74.16 39.4096 82.341 38.5996V47.0236H49.941V52.4506H75.942C68.814 59.9836 58.203 66.8686 48.321 70.3516C49.698 71.5666 51.48 73.6726 52.29 75.1306C63.063 70.8376 74.889 62.3326 82.341 52.7746V68.4886H88.497V52.7746C96.192 61.6846 108.342 69.9466 118.872 74.2396C119.763 72.7816 121.464 70.5136 122.841 69.3796C113.202 66.1396 102.267 59.4976 94.977 52.4506H121.14ZM63.711 165.673V157.33H82.26V165.673H63.711ZM63.711 144.289H82.26V152.551H63.711V144.289ZM107.289 144.289V152.551H88.335V144.289H107.289ZM107.289 165.673H88.335V157.33H107.289V165.673ZM121.788 177.256H88.335V170.614H113.283V139.267H88.335V133.354H119.034V127.846H88.335V120.556H82.26V127.846H51.966V133.354H82.26V139.267H57.96V170.614H82.26V177.256H49.536V182.683H82.26V194.671H88.335V182.683H121.788V177.256Z" fill="#B1941A"/>
<path d="M104.211 75.5356H105.211V74.5356H104.211V75.5356ZM104.211 82.8256V83.8256H105.211V82.8256H104.211ZM67.68 82.8256H66.68V83.8256H67.68V82.8256ZM67.68 75.5356V74.5356H66.68V75.5356H67.68ZM67.68 94.8136H66.68V95.8136H67.68V94.8136ZM67.68 87.1996V86.1996H66.68V87.1996H67.68ZM104.211 87.1996H105.211V86.1996H104.211V87.1996ZM104.211 94.8136V95.8136H105.211V94.8136H104.211ZM61.767 102.509H60.767V103.509H61.767V102.509ZM67.68 102.509V103.509H68.68V102.509H67.68ZM67.68 99.6736V98.6736H66.68V99.6736H67.68ZM104.211 99.6736H105.211V98.6736H104.211V99.6736ZM104.211 102.347H103.211V103.347H104.211V102.347ZM110.367 102.347V103.347H111.367V102.347H110.367ZM110.367 70.7566H111.367V69.7566H110.367V70.7566ZM61.767 70.7566V69.7566H60.767V70.7566H61.767ZM121.14 52.4506V53.4506H122.14V52.4506H121.14ZM121.14 47.0236H122.14V46.0236H121.14V47.0236ZM88.497 47.0236H87.497V48.0236H88.497V47.0236ZM88.497 37.9516L88.3886 36.9575L87.497 37.0548V37.9516H88.497ZM112.392 33.8206L112.651 34.7864L114.29 34.3467L113.111 33.126L112.392 33.8206ZM107.856 29.1226L108.575 28.428L108.169 28.0069L107.602 28.1553L107.856 29.1226ZM56.421 35.1976L56.3677 34.199L54.8831 34.2782L55.5162 35.6234L56.421 35.1976ZM57.96 40.3006L56.9661 40.411L57.0692 41.3386L58.0016 41.2997L57.96 40.3006ZM82.341 38.5996H83.341V37.4957L82.2425 37.6045L82.341 38.5996ZM82.341 47.0236V48.0236H83.341V47.0236H82.341ZM49.941 47.0236V46.0236H48.941V47.0236H49.941ZM49.941 52.4506H48.941V53.4506H49.941V52.4506ZM75.942 52.4506L76.6684 53.1379L78.265 51.4506H75.942V52.4506ZM48.321 70.3516L47.9886 69.4085L46.3823 69.9746L47.6594 71.1014L48.321 70.3516ZM52.29 75.1306L51.4158 75.6162L51.843 76.3852L52.6602 76.0596L52.29 75.1306ZM82.341 52.7746H83.341V49.8656L81.5524 52.1597L82.341 52.7746ZM82.341 68.4886H81.341V69.4886H82.341V68.4886ZM88.497 68.4886V69.4886H89.497V68.4886H88.497ZM88.497 52.7746L89.2538 52.121L87.497 50.0868V52.7746H88.497ZM118.872 74.2396L118.494 75.1656L119.282 75.4866L119.725 74.7611L118.872 74.2396ZM122.841 69.3796L123.477 70.1515L124.868 69.0059L123.16 68.4317L122.841 69.3796ZM94.977 52.4506V51.4506H92.5037L94.282 53.1696L94.977 52.4506ZM103.211 75.5356V82.8256H105.211V75.5356H103.211ZM104.211 81.8256H67.68V83.8256H104.211V81.8256ZM68.68 82.8256V75.5356H66.68V82.8256H68.68ZM67.68 76.5356H104.211V74.5356H67.68V76.5356ZM68.68 94.8136V87.1996H66.68V94.8136H68.68ZM67.68 88.1996H104.211V86.1996H67.68V88.1996ZM103.211 87.1996V94.8136H105.211V87.1996H103.211ZM104.211 93.8136H67.68V95.8136H104.211V93.8136ZM61.767 103.509H67.68V101.509H61.767V103.509ZM68.68 102.509V99.6736H66.68V102.509H68.68ZM67.68 100.674H104.211V98.6736H67.68V100.674ZM103.211 99.6736V102.347H105.211V99.6736H103.211ZM104.211 103.347H110.367V101.347H104.211V103.347ZM111.367 102.347V70.7566H109.367V102.347H111.367ZM110.367 69.7566H61.767V71.7566H110.367V69.7566ZM60.767 70.7566V102.509H62.767V70.7566H60.767ZM122.14 52.4506V47.0236H120.14V52.4506H122.14ZM121.14 46.0236H88.497V48.0236H121.14V46.0236ZM89.497 47.0236V37.9516H87.497V47.0236H89.497ZM88.6054 38.9457C97.5426 37.9707 105.941 36.5867 112.651 34.7864L112.133 32.8548C105.559 34.6185 97.2714 35.9885 88.3886 36.9575L88.6054 38.9457ZM113.111 33.126L108.575 28.428L107.137 29.8172L111.673 34.5152L113.111 33.126ZM107.602 28.1553C95.9678 31.2044 74.597 33.2268 56.3677 34.199L56.4743 36.1962C74.695 35.2244 96.2542 33.1969 108.11 30.0899L107.602 28.1553ZM55.5162 35.6234C56.1317 36.9313 56.8195 39.0914 56.9661 40.411L58.9539 40.1902C58.7765 38.5938 58.0063 36.2179 57.3258 34.7718L55.5162 35.6234ZM58.0016 41.2997C65.7951 40.975 74.2381 40.4068 82.4395 39.5947L82.2425 37.6045C74.0819 38.4124 65.6769 38.9782 57.9184 39.3015L58.0016 41.2997ZM81.341 38.5996V47.0236H83.341V38.5996H81.341ZM82.341 46.0236H49.941V48.0236H82.341V46.0236ZM48.941 47.0236V52.4506H50.941V47.0236H48.941ZM49.941 53.4506H75.942V51.4506H49.941V53.4506ZM75.2156 51.7633C68.1975 59.1802 57.7218 65.9779 47.9886 69.4085L48.6534 71.2947C58.6842 67.7593 69.4305 60.787 76.6684 53.1379L75.2156 51.7633ZM47.6594 71.1014C48.9707 72.2585 50.6726 74.2784 51.4158 75.6162L53.1642 74.645C52.2874 73.0668 50.4253 70.8747 48.9826 69.6018L47.6594 71.1014ZM52.6602 76.0596C63.5866 71.7054 75.5611 63.0969 83.1296 53.3895L81.5524 52.1597C74.2169 61.5683 62.5394 69.9698 51.9198 74.2016L52.6602 76.0596ZM81.341 52.7746V68.4886H83.341V52.7746H81.341ZM82.341 69.4886H88.497V67.4886H82.341V69.4886ZM89.497 68.4886V52.7746H87.497V68.4886H89.497ZM87.7402 53.4282C95.5494 62.4705 107.835 70.8198 118.494 75.1656L119.25 73.3136C108.849 69.0734 96.8346 60.8987 89.2538 52.121L87.7402 53.4282ZM119.725 74.7611C120.593 73.3418 122.225 71.1824 123.477 70.1515L122.205 68.6077C120.703 69.8449 118.933 72.2214 118.019 73.7182L119.725 74.7611ZM123.16 68.4317C113.661 65.2389 102.855 58.6749 95.672 51.7316L94.282 53.1696C101.679 60.3203 112.743 67.0403 122.522 70.3275L123.16 68.4317ZM94.977 53.4506H121.14V51.4506H94.977V53.4506ZM63.711 165.673H62.711V166.673H63.711V165.673ZM63.711 157.33V156.33H62.711V157.33H63.711ZM82.26 157.33H83.26V156.33H82.26V157.33ZM82.26 165.673V166.673H83.26V165.673H82.26ZM63.711 144.289V143.289H62.711V144.289H63.711ZM82.26 144.289H83.26V143.289H82.26V144.289ZM82.26 152.551V153.551H83.26V152.551H82.26ZM63.711 152.551H62.711V153.551H63.711V152.551ZM107.289 144.289H108.289V143.289H107.289V144.289ZM107.289 152.551V153.551H108.289V152.551H107.289ZM88.335 152.551H87.335V153.551H88.335V152.551ZM88.335 144.289V143.289H87.335V144.289H88.335ZM107.289 165.673V166.673H108.289V165.673H107.289ZM88.335 165.673H87.335V166.673H88.335V165.673ZM88.335 157.33V156.33H87.335V157.33H88.335ZM107.289 157.33H108.289V156.33H107.289V157.33ZM121.788 177.256H122.788V176.256H121.788V177.256ZM88.335 177.256H87.335V178.256H88.335V177.256ZM88.335 170.614V169.614H87.335V170.614H88.335ZM113.283 170.614V171.614H114.283V170.614H113.283ZM113.283 139.267H114.283V138.267H113.283V139.267ZM88.335 139.267H87.335V140.267H88.335V139.267ZM88.335 133.354V132.354H87.335V133.354H88.335ZM119.034 133.354V134.354H120.034V133.354H119.034ZM119.034 127.846H120.034V126.846H119.034V127.846ZM88.335 127.846H87.335V128.846H88.335V127.846ZM88.335 120.556H89.335V119.556H88.335V120.556ZM82.26 120.556V119.556H81.26V120.556H82.26ZM82.26 127.846V128.846H83.26V127.846H82.26ZM51.966 127.846V126.846H50.966V127.846H51.966ZM51.966 133.354H50.966V134.354H51.966V133.354ZM82.26 133.354H83.26V132.354H82.26V133.354ZM82.26 139.267V140.267H83.26V139.267H82.26ZM57.96 139.267V138.267H56.96V139.267H57.96ZM57.96 170.614H56.96V171.614H57.96V170.614ZM82.26 170.614H83.26V169.614H82.26V170.614ZM82.26 177.256V178.256H83.26V177.256H82.26ZM49.536 177.256V176.256H48.536V177.256H49.536ZM49.536 182.683H48.536V183.683H49.536V182.683ZM82.26 182.683H83.26V181.683H82.26V182.683ZM82.26 194.671H81.26V195.671H82.26V194.671ZM88.335 194.671V195.671H89.335V194.671H88.335ZM88.335 182.683V181.683H87.335V182.683H88.335ZM121.788 182.683V183.683H122.788V182.683H121.788ZM64.711 165.673V157.33H62.711V165.673H64.711ZM63.711 158.33H82.26V156.33H63.711V158.33ZM81.26 157.33V165.673H83.26V157.33H81.26ZM82.26 164.673H63.711V166.673H82.26V164.673ZM63.711 145.289H82.26V143.289H63.711V145.289ZM81.26 144.289V152.551H83.26V144.289H81.26ZM82.26 151.551H63.711V153.551H82.26V151.551ZM64.711 152.551V144.289H62.711V152.551H64.711ZM106.289 144.289V152.551H108.289V144.289H106.289ZM107.289 151.551H88.335V153.551H107.289V151.551ZM89.335 152.551V144.289H87.335V152.551H89.335ZM88.335 145.289H107.289V143.289H88.335V145.289ZM107.289 164.673H88.335V166.673H107.289V164.673ZM89.335 165.673V157.33H87.335V165.673H89.335ZM88.335 158.33H107.289V156.33H88.335V158.33ZM106.289 157.33V165.673H108.289V157.33H106.289ZM121.788 176.256H88.335V178.256H121.788V176.256ZM89.335 177.256V170.614H87.335V177.256H89.335ZM88.335 171.614H113.283V169.614H88.335V171.614ZM114.283 170.614V139.267H112.283V170.614H114.283ZM113.283 138.267H88.335V140.267H113.283V138.267ZM89.335 139.267V133.354H87.335V139.267H89.335ZM88.335 134.354H119.034V132.354H88.335V134.354ZM120.034 133.354V127.846H118.034V133.354H120.034ZM119.034 126.846H88.335V128.846H119.034V126.846ZM89.335 127.846V120.556H87.335V127.846H89.335ZM88.335 119.556H82.26V121.556H88.335V119.556ZM81.26 120.556V127.846H83.26V120.556H81.26ZM82.26 126.846H51.966V128.846H82.26V126.846ZM50.966 127.846V133.354H52.966V127.846H50.966ZM51.966 134.354H82.26V132.354H51.966V134.354ZM81.26 133.354V139.267H83.26V133.354H81.26ZM82.26 138.267H57.96V140.267H82.26V138.267ZM56.96 139.267V170.614H58.96V139.267H56.96ZM57.96 171.614H82.26V169.614H57.96V171.614ZM81.26 170.614V177.256H83.26V170.614H81.26ZM82.26 176.256H49.536V178.256H82.26V176.256ZM48.536 177.256V182.683H50.536V177.256H48.536ZM49.536 183.683H82.26V181.683H49.536V183.683ZM81.26 182.683V194.671H83.26V182.683H81.26ZM82.26 195.671H88.335V193.671H82.26V195.671ZM89.335 194.671V182.683H87.335V194.671H89.335ZM88.335 183.683H121.788V181.683H88.335V183.683ZM122.788 182.683V177.256H120.788V182.683H122.788Z" fill="#B1941A"/>
</g>
</g>
<defs>
<filter id="filter0_d" x="0.783325" y="0" width="170.361" height="236" filterUnits="userSpaceOnUse" color-interpolation-filters="sRGB">
<feFlood flood-opacity="0" result="BackgroundImageFix"/>
<feColorMatrix in="SourceAlpha" type="matrix" values="0 0 0 0 0 0 0 0 0 0 0 0 0 0 0 0 0 0 127 0"/>
<feOffset dy="4"/>
<feGaussianBlur stdDeviation="2"/>
<feColorMatrix type="matrix" values="0 0 0 0 0 0 0 0 0 0 0 0 0 0 0 0 0 0 0.25 0"/>
<feBlend mode="normal" in2="BackgroundImageFix" result="effect1_dropShadow"/>
<feBlend mode="normal" in="SourceGraphic" in2="effect1_dropShadow" result="shape"/>
</filter>
<filter id="filter1_b" x="0.783325" y="-4" width="170.361" height="224.741" filterUnits="userSpaceOnUse" color-interpolation-filters="sRGB">
<feFlood flood-opacity="0" result="BackgroundImageFix"/>
<feGaussianBlur in="BackgroundImage" stdDeviation="2"/>
<feComposite in2="SourceAlpha" operator="in" result="effect1_backgroundBlur"/>
<feBlend mode="normal" in="SourceGraphic" in2="effect1_backgroundBlur" result="shape"/>
</filter>
<filter id="filter2_d" x="42.3823" y="28.0068" width="86.4855" height="175.664" filterUnits="userSpaceOnUse" color-interpolation-filters="sRGB">
<feFlood flood-opacity="0" result="BackgroundImageFix"/>
<feColorMatrix in="SourceAlpha" type="matrix" values="0 0 0 0 0 0 0 0 0 0 0 0 0 0 0 0 0 0 127 0"/>
<feOffset dy="4"/>
<feGaussianBlur stdDeviation="2"/>
<feColorMatrix type="matrix" values="0 0 0 0 0 0 0 0 0 0 0 0 0 0 0 0 0 0 0.25 0"/>
<feBlend mode="normal" in2="BackgroundImageFix" result="effect1_dropShadow"/>
<feBlend mode="normal" in="SourceGraphic" in2="effect1_dropShadow" result="shape"/>
</filter>
</defs>
</svg>
