<svg width="183" height="251" viewBox="0 0 183 251" fill="none" xmlns="http://www.w3.org/2000/svg">
<g filter="url(#filter0_d)">
<g filter="url(#filter1_b)">
<path d="M19 33.5614L92 0L164 33.5614L179 231H4L19 33.5614Z" fill="#524F48"/>
<path d="M4.53943 230.5L19.4763 33.8927L91.9986 0.550976L163.524 33.891L178.461 230.5H4.53943Z" stroke="#524F48"/>
</g>
<rect x="4" y="231" width="175" height="12" fill="#272624"/>
<g filter="url(#filter2_d)">
<path d="M59.32 99.064V92.152H79.768V99.064H59.32ZM79.768 80.44V87.16H59.32V80.44H79.768ZM86.776 75.064H52.6V122.104H59.32V104.152H79.768V114.52C79.768 115.576 79.48 115.864 78.424 115.96C77.272 116.056 73.72 116.056 69.688 115.864C70.552 117.592 71.608 120.376 71.992 122.2C77.368 122.2 81.208 122.104 83.704 121.048C86.104 119.992 86.776 117.976 86.776 114.616V75.064ZM78.904 49.144H89.56V43H72.76V34.744H65.752V43H49.048V49.144H78.232C77.272 52.792 75.448 58.072 74.104 61.432L78.712 62.776H59.224L64.6 61.336C63.928 58.168 62.296 53.08 60.568 49.24L55 50.584C56.536 54.424 57.976 59.512 58.552 62.776H47.416V68.92H91.288V62.776H79.48C81.112 59.608 82.84 55 84.568 50.68L78.904 49.144ZM108.28 115.768C103.672 115.768 102.904 115.096 102.904 111.928V107.896H130.264V103.192H102.904V97.048H129.304V92.344H102.904V86.488H129.88V81.784H102.904V75.832H129.976V55.96H102.904V48.184H133.72V42.232H102.904V34.648H96.088V61.624H123.064V70.264H96.088V111.928C96.088 119.896 98.68 121.624 107.608 121.624H125.368C132.568 121.624 134.584 119.224 135.448 110.488C133.528 110.104 130.84 109.048 129.208 107.896C128.92 114.52 128.248 115.768 124.888 115.768H108.28ZM52.6 217.432C59.128 211.96 62.104 202.552 63.928 193.624L57.592 191.896C56.152 200.248 52.792 208.696 46.84 213.784L52.6 217.432ZM71.32 195.16C72.952 201.304 74.2 209.08 74.296 214.264L80.632 213.208C80.44 208.024 79.192 200.248 77.464 194.2L71.32 195.16ZM87.832 194.584C90.328 200.056 92.728 207.352 93.4 211.768L99.352 210.04C98.584 205.624 96.088 198.52 93.304 193.336L87.832 194.584ZM66.136 172.12H88.504V181.528H66.136V172.12ZM88.504 141.688V151.096H66.136V141.688H88.504ZM88.504 166.264H66.136V156.856H88.504V166.264ZM95.512 181.528V172.12H122.968V166.264H95.512V156.856H122.968V151.096H95.512V141.688H126.232V135.352H59.224V187.864H124.696C123.64 203.128 122.392 209.176 120.664 211.096C119.896 211.864 118.936 212.056 117.208 212.056C115.576 212.056 111.064 212.056 106.36 211.48C107.416 213.304 108.088 216.184 108.28 218.008C113.176 218.392 117.976 218.392 120.472 218.2C123.16 218.008 124.984 217.336 126.616 215.512C129.304 212.536 130.744 204.664 131.992 184.6C132.184 183.64 132.28 181.528 132.28 181.528H95.512ZM116.824 203.896C115.384 200.44 111.832 194.968 108.376 191.032L103.192 193.144C106.456 197.176 109.912 202.84 111.352 206.392L116.824 203.896Z" fill="#B1941A"/>
<path d="M59.32 99.064H58.32V100.064H59.32V99.064ZM59.32 92.152V91.152H58.32V92.152H59.32ZM79.768 92.152H80.768V91.152H79.768V92.152ZM79.768 99.064V100.064H80.768V99.064H79.768ZM79.768 80.44H80.768V79.44H79.768V80.44ZM79.768 87.16V88.16H80.768V87.16H79.768ZM59.32 87.16H58.32V88.16H59.32V87.16ZM59.32 80.44V79.44H58.32V80.44H59.32ZM86.776 75.064H87.776V74.064H86.776V75.064ZM52.6 75.064V74.064H51.6V75.064H52.6ZM52.6 122.104H51.6V123.104H52.6V122.104ZM59.32 122.104V123.104H60.32V122.104H59.32ZM59.32 104.152V103.152H58.32V104.152H59.32ZM79.768 104.152H80.768V103.152H79.768V104.152ZM78.424 115.96L78.507 116.957L78.5145 116.956L78.424 115.96ZM69.688 115.864L69.7356 114.865L68.0299 114.784L68.7936 116.311L69.688 115.864ZM71.992 122.2L71.0135 122.406L71.1806 123.2H71.992V122.2ZM83.704 121.048L84.0936 121.969L84.1002 121.966L84.1067 121.963L83.704 121.048ZM78.904 49.144V48.144L78.6423 50.1091L78.904 49.144ZM89.56 49.144V50.144H90.56V49.144H89.56ZM89.56 43H90.56V42H89.56V43ZM72.76 43H71.76V44H72.76V43ZM72.76 34.744H73.76V33.744H72.76V34.744ZM65.752 34.744V33.744H64.752V34.744H65.752ZM65.752 43V44H66.752V43H65.752ZM49.048 43V42H48.048V43H49.048ZM49.048 49.144H48.048V50.144H49.048V49.144ZM78.232 49.144L79.1991 49.3985L79.5292 48.144H78.232V49.144ZM74.104 61.432L73.1755 61.0606L72.7664 62.0835L73.824 62.392L74.104 61.432ZM78.712 62.776V63.776L78.992 61.816L78.712 62.776ZM59.224 62.776L58.9653 61.81L59.224 63.776V62.776ZM64.6 61.336L64.8587 62.3019L65.7751 62.0565L65.5782 61.1285L64.6 61.336ZM60.568 49.24L61.4799 48.8296L61.1396 48.0733L60.3334 48.2679L60.568 49.24ZM55 50.584L54.7654 49.6119L53.6425 49.8829L54.0715 50.9554L55 50.584ZM58.552 62.776V63.776H59.7439L59.5368 62.6022L58.552 62.776ZM47.416 62.776V61.776H46.416V62.776H47.416ZM47.416 68.92H46.416V69.92H47.416V68.92ZM91.288 68.92V69.92H92.288V68.92H91.288ZM91.288 62.776H92.288V61.776H91.288V62.776ZM79.48 62.776L78.591 62.318L77.84 63.776H79.48V62.776ZM84.568 50.68L85.4965 51.0514L85.9135 50.0088L84.8297 49.7149L84.568 50.68ZM102.904 107.896V106.896H101.904V107.896H102.904ZM130.264 107.896V108.896H131.264V107.896H130.264ZM130.264 103.192H131.264V102.192H130.264V103.192ZM102.904 103.192H101.904V104.192H102.904V103.192ZM102.904 97.048V96.048H101.904V97.048H102.904ZM129.304 97.048V98.048H130.304V97.048H129.304ZM129.304 92.344H130.304V91.344H129.304V92.344ZM102.904 92.344H101.904V93.344H102.904V92.344ZM102.904 86.488V85.488H101.904V86.488H102.904ZM129.88 86.488V87.488H130.88V86.488H129.88ZM129.88 81.784H130.88V80.784H129.88V81.784ZM102.904 81.784H101.904V82.784H102.904V81.784ZM102.904 75.832V74.832H101.904V75.832H102.904ZM129.976 75.832V76.832H130.976V75.832H129.976ZM129.976 55.96H130.976V54.96H129.976V55.96ZM102.904 55.96H101.904V56.96H102.904V55.96ZM102.904 48.184V47.184H101.904V48.184H102.904ZM133.72 48.184V49.184H134.72V48.184H133.72ZM133.72 42.232H134.72V41.232H133.72V42.232ZM102.904 42.232H101.904V43.232H102.904V42.232ZM102.904 34.648H103.904V33.648H102.904V34.648ZM96.088 34.648V33.648H95.088V34.648H96.088ZM96.088 61.624H95.088V62.624H96.088V61.624ZM123.064 61.624H124.064V60.624H123.064V61.624ZM123.064 70.264V71.264H124.064V70.264H123.064ZM96.088 70.264V69.264H95.088V70.264H96.088ZM135.448 110.488L136.443 110.586L136.532 109.685L135.644 109.507L135.448 110.488ZM129.208 107.896L129.785 107.079L128.289 106.023L128.209 107.853L129.208 107.896ZM60.32 99.064V92.152H58.32V99.064H60.32ZM59.32 93.152H79.768V91.152H59.32V93.152ZM78.768 92.152V99.064H80.768V92.152H78.768ZM79.768 98.064H59.32V100.064H79.768V98.064ZM78.768 80.44V87.16H80.768V80.44H78.768ZM79.768 86.16H59.32V88.16H79.768V86.16ZM60.32 87.16V80.44H58.32V87.16H60.32ZM59.32 81.44H79.768V79.44H59.32V81.44ZM86.776 74.064H52.6V76.064H86.776V74.064ZM51.6 75.064V122.104H53.6V75.064H51.6ZM52.6 123.104H59.32V121.104H52.6V123.104ZM60.32 122.104V104.152H58.32V122.104H60.32ZM59.32 105.152H79.768V103.152H59.32V105.152ZM78.768 104.152V114.52H80.768V104.152H78.768ZM78.768 114.52C78.768 114.748 78.7514 114.873 78.7354 114.938C78.7224 114.991 78.7206 114.96 78.765 114.913C78.8078 114.868 78.8338 114.871 78.7706 114.892C78.6978 114.916 78.5663 114.943 78.3335 114.964L78.5145 116.956C79.0538 116.907 79.7374 116.797 80.219 116.287C80.7099 115.767 80.768 115.073 80.768 114.52H78.768ZM78.341 114.963C77.2598 115.054 73.7649 115.057 69.7356 114.865L69.6404 116.863C73.6751 117.055 77.2842 117.058 78.507 116.957L78.341 114.963ZM68.7936 116.311C69.6305 117.985 70.6516 120.687 71.0135 122.406L72.9706 121.994C72.5644 120.065 71.4735 117.199 70.5824 115.417L68.7936 116.311ZM71.992 123.2C74.6774 123.2 77.0188 123.176 79.008 123.017C80.9903 122.858 82.6994 122.559 84.0936 121.969L83.3144 120.127C82.2126 120.593 80.7537 120.87 78.848 121.023C76.9492 121.176 74.6826 121.2 71.992 121.2V123.2ZM84.1067 121.963C85.519 121.342 86.4784 120.4 87.0542 119.101C87.6078 117.852 87.776 116.34 87.776 114.616H85.776C85.776 116.252 85.6082 117.428 85.2258 118.291C84.8656 119.104 84.289 119.698 83.3013 120.133L84.1067 121.963ZM87.776 114.616V75.064H85.776V114.616H87.776ZM78.904 50.144H89.56V48.144H78.904V50.144ZM90.56 49.144V43H88.56V49.144H90.56ZM89.56 42H72.76V44H89.56V42ZM73.76 43V34.744H71.76V43H73.76ZM72.76 33.744H65.752V35.744H72.76V33.744ZM64.752 34.744V43H66.752V34.744H64.752ZM65.752 42H49.048V44H65.752V42ZM48.048 43V49.144H50.048V43H48.048ZM49.048 50.144H78.232V48.144H49.048V50.144ZM77.2649 48.8895C76.3178 52.4884 74.5084 57.7285 73.1755 61.0606L75.0325 61.8034C76.3876 58.4155 78.2262 53.0956 79.1991 49.3985L77.2649 48.8895ZM73.824 62.392L78.432 63.736L78.992 61.816L74.384 60.472L73.824 62.392ZM78.712 61.776H59.224V63.776H78.712V61.776ZM59.4827 63.7419L64.8587 62.3019L64.3413 60.3701L58.9653 61.81L59.4827 63.7419ZM65.5782 61.1285C64.8908 57.8875 63.2358 52.7317 61.4799 48.8296L59.6561 49.6504C61.3562 53.4283 62.9652 58.4485 63.6218 61.5435L65.5782 61.1285ZM60.3334 48.2679L54.7654 49.6119L55.2346 51.5561L60.8026 50.2121L60.3334 48.2679ZM54.0715 50.9554C55.5839 54.7362 57.004 59.7581 57.5672 62.9498L59.5368 62.6022C58.948 59.2659 57.4881 54.1118 55.9285 50.2126L54.0715 50.9554ZM58.552 61.776H47.416V63.776H58.552V61.776ZM46.416 62.776V68.92H48.416V62.776H46.416ZM47.416 69.92H91.288V67.92H47.416V69.92ZM92.288 68.92V62.776H90.288V68.92H92.288ZM91.288 61.776H79.48V63.776H91.288V61.776ZM80.369 63.234C82.0298 60.0101 83.7855 55.3289 85.4965 51.0514L83.6395 50.3086C81.8945 54.6711 80.1943 59.2059 78.591 62.318L80.369 63.234ZM84.8297 49.7149L79.1657 48.1789L78.6423 50.1091L84.3063 51.6451L84.8297 49.7149ZM108.28 114.768C107.142 114.768 106.292 114.726 105.65 114.625C105.005 114.525 104.656 114.377 104.456 114.23C104.131 113.991 103.904 113.535 103.904 111.928H101.904C101.904 113.489 102.061 114.953 103.272 115.842C103.84 116.259 104.547 116.477 105.342 116.602C106.14 116.726 107.114 116.768 108.28 116.768V114.768ZM103.904 111.928V107.896H101.904V111.928H103.904ZM102.904 108.896H130.264V106.896H102.904V108.896ZM131.264 107.896V103.192H129.264V107.896H131.264ZM130.264 102.192H102.904V104.192H130.264V102.192ZM103.904 103.192V97.048H101.904V103.192H103.904ZM102.904 98.048H129.304V96.048H102.904V98.048ZM130.304 97.048V92.344H128.304V97.048H130.304ZM129.304 91.344H102.904V93.344H129.304V91.344ZM103.904 92.344V86.488H101.904V92.344H103.904ZM102.904 87.488H129.88V85.488H102.904V87.488ZM130.88 86.488V81.784H128.88V86.488H130.88ZM129.88 80.784H102.904V82.784H129.88V80.784ZM103.904 81.784V75.832H101.904V81.784H103.904ZM102.904 76.832H129.976V74.832H102.904V76.832ZM130.976 75.832V55.96H128.976V75.832H130.976ZM129.976 54.96H102.904V56.96H129.976V54.96ZM103.904 55.96V48.184H101.904V55.96H103.904ZM102.904 49.184H133.72V47.184H102.904V49.184ZM134.72 48.184V42.232H132.72V48.184H134.72ZM133.72 41.232H102.904V43.232H133.72V41.232ZM103.904 42.232V34.648H101.904V42.232H103.904ZM102.904 33.648H96.088V35.648H102.904V33.648ZM95.088 34.648V61.624H97.088V34.648H95.088ZM96.088 62.624H123.064V60.624H96.088V62.624ZM122.064 61.624V70.264H124.064V61.624H122.064ZM123.064 69.264H96.088V71.264H123.064V69.264ZM95.088 70.264V111.928H97.088V70.264H95.088ZM95.088 111.928C95.088 115.948 95.7236 118.803 97.8708 120.541C98.9247 121.394 100.26 121.907 101.854 122.212C103.444 122.516 105.354 122.624 107.608 122.624V120.624C105.398 120.624 103.636 120.516 102.229 120.247C100.826 119.979 99.8393 119.562 99.1292 118.987C97.7484 117.869 97.088 115.876 97.088 111.928H95.088ZM107.608 122.624H125.368V120.624H107.608V122.624ZM125.368 122.624C129.033 122.624 131.719 122.024 133.53 119.998C135.28 118.039 136.012 114.947 136.443 110.586L134.453 110.39C134.02 114.765 133.312 117.241 132.038 118.666C130.825 120.024 128.903 120.624 125.368 120.624V122.624ZM135.644 109.507C133.836 109.146 131.283 108.137 129.785 107.079L128.631 108.713C130.397 109.959 133.22 111.062 135.252 111.469L135.644 109.507ZM128.209 107.853C128.137 109.5 128.043 110.778 127.895 111.773C127.745 112.778 127.551 113.419 127.323 113.836C127.115 114.216 126.878 114.415 126.562 114.544C126.203 114.69 125.686 114.768 124.888 114.768V116.768C125.77 116.768 126.597 116.69 127.318 116.395C128.082 116.083 128.661 115.556 129.077 114.796C129.473 114.073 129.711 113.16 129.873 112.068C130.037 110.966 130.135 109.604 130.207 107.939L128.209 107.853ZM124.888 114.768H108.28V116.768H124.888V114.768ZM52.6 217.432L52.0649 218.277L52.6823 218.668L53.2424 218.198L52.6 217.432ZM63.928 193.624L64.9078 193.824L65.0954 192.906L64.1911 192.659L63.928 193.624ZM57.592 191.896L57.8551 190.931L56.7935 190.642L56.6065 191.726L57.592 191.896ZM46.84 213.784L46.1902 213.024L45.1606 213.904L46.3049 214.629L46.84 213.784ZM71.32 195.16L71.1656 194.172L70.0684 194.343L70.3535 195.417L71.32 195.16ZM74.296 214.264L73.2962 214.283L73.3176 215.441L74.4604 215.25L74.296 214.264ZM80.632 213.208L80.7964 214.194L81.6639 214.05L81.6313 213.171L80.632 213.208ZM77.464 194.2L78.4255 193.925L78.1828 193.076L77.3096 193.212L77.464 194.2ZM87.832 194.584L87.6096 193.609L86.4127 193.882L86.9222 194.999L87.832 194.584ZM93.4 211.768L92.4114 211.918L92.583 213.046L93.6788 212.728L93.4 211.768ZM99.352 210.04L99.6308 211L100.491 210.751L100.337 209.869L99.352 210.04ZM93.304 193.336L94.185 192.863L93.8245 192.192L93.0816 192.361L93.304 193.336ZM66.136 172.12V171.12H65.136V172.12H66.136ZM88.504 172.12H89.504V171.12H88.504V172.12ZM88.504 181.528V182.528H89.504V181.528H88.504ZM66.136 181.528H65.136V182.528H66.136V181.528ZM88.504 141.688H89.504V140.688H88.504V141.688ZM88.504 151.096V152.096H89.504V151.096H88.504ZM66.136 151.096H65.136V152.096H66.136V151.096ZM66.136 141.688V140.688H65.136V141.688H66.136ZM88.504 166.264V167.264H89.504V166.264H88.504ZM66.136 166.264H65.136V167.264H66.136V166.264ZM66.136 156.856V155.856H65.136V156.856H66.136ZM88.504 156.856H89.504V155.856H88.504V156.856ZM95.512 181.528H94.512V182.528H95.512V181.528ZM95.512 172.12V171.12H94.512V172.12H95.512ZM122.968 172.12V173.12H123.968V172.12H122.968ZM122.968 166.264H123.968V165.264H122.968V166.264ZM95.512 166.264H94.512V167.264H95.512V166.264ZM95.512 156.856V155.856H94.512V156.856H95.512ZM122.968 156.856V157.856H123.968V156.856H122.968ZM122.968 151.096H123.968V150.096H122.968V151.096ZM95.512 151.096H94.512V152.096H95.512V151.096ZM95.512 141.688V140.688H94.512V141.688H95.512ZM126.232 141.688V142.688H127.232V141.688H126.232ZM126.232 135.352H127.232V134.352H126.232V135.352ZM59.224 135.352V134.352H58.224V135.352H59.224ZM59.224 187.864H58.224V188.864H59.224V187.864ZM124.696 187.864L125.694 187.933L125.768 186.864H124.696V187.864ZM120.664 211.096L121.371 211.803L121.39 211.785L121.407 211.765L120.664 211.096ZM106.36 211.48L106.482 210.487L104.489 210.243L105.495 211.981L106.36 211.48ZM108.28 218.008L107.285 218.113L107.373 218.94L108.202 219.005L108.28 218.008ZM120.472 218.2L120.401 217.203L120.395 217.203L120.472 218.2ZM126.616 215.512L125.874 214.842L125.871 214.845L126.616 215.512ZM131.992 184.6L131.011 184.404L130.998 184.47L130.994 184.538L131.992 184.6ZM132.28 181.528L133.279 181.573L133.326 180.528H132.28V181.528ZM116.824 203.896L117.239 204.806L118.119 204.404L117.747 203.511L116.824 203.896ZM108.376 191.032L109.127 190.372L108.658 189.837L107.999 190.106L108.376 191.032ZM103.192 193.144L102.815 192.218L101.567 192.726L102.415 193.773L103.192 193.144ZM111.352 206.392L110.425 206.768L110.817 207.735L111.767 207.302L111.352 206.392ZM53.2424 218.198C60.0582 212.485 63.0823 202.759 64.9078 193.824L62.9482 193.424C61.1257 202.345 58.1978 211.435 51.9576 216.666L53.2424 218.198ZM64.1911 192.659L57.8551 190.931L57.3289 192.861L63.6649 194.589L64.1911 192.659ZM56.6065 191.726C55.1843 199.975 51.8869 208.154 46.1902 213.024L47.4898 214.544C53.6971 209.238 57.1197 200.521 58.5775 192.066L56.6065 191.726ZM46.3049 214.629L52.0649 218.277L53.1351 216.587L47.3751 212.939L46.3049 214.629ZM70.3535 195.417C71.971 201.506 73.2021 209.2 73.2962 214.283L75.2958 214.245C75.198 208.96 73.933 201.102 72.2865 194.903L70.3535 195.417ZM74.4604 215.25L80.7964 214.194L80.4676 212.222L74.1316 213.278L74.4604 215.25ZM81.6313 213.171C81.4361 207.899 80.1735 200.043 78.4255 193.925L76.5025 194.475C78.2105 200.453 79.4439 208.149 79.6327 213.245L81.6313 213.171ZM77.3096 193.212L71.1656 194.172L71.4744 196.148L77.6184 195.188L77.3096 193.212ZM86.9222 194.999C89.3952 200.421 91.7579 207.624 92.4114 211.918L94.3886 211.618C93.6981 207.08 91.2608 199.691 88.7418 194.169L86.9222 194.999ZM93.6788 212.728L99.6308 211L99.0732 209.08L93.1212 210.808L93.6788 212.728ZM100.337 209.869C99.5482 205.332 97.0117 198.126 94.185 192.863L92.423 193.809C95.1643 198.914 97.6198 205.916 98.3668 210.211L100.337 209.869ZM93.0816 192.361L87.6096 193.609L88.0544 195.559L93.5264 194.311L93.0816 192.361ZM66.136 173.12H88.504V171.12H66.136V173.12ZM87.504 172.12V181.528H89.504V172.12H87.504ZM88.504 180.528H66.136V182.528H88.504V180.528ZM67.136 181.528V172.12H65.136V181.528H67.136ZM87.504 141.688V151.096H89.504V141.688H87.504ZM88.504 150.096H66.136V152.096H88.504V150.096ZM67.136 151.096V141.688H65.136V151.096H67.136ZM66.136 142.688H88.504V140.688H66.136V142.688ZM88.504 165.264H66.136V167.264H88.504V165.264ZM67.136 166.264V156.856H65.136V166.264H67.136ZM66.136 157.856H88.504V155.856H66.136V157.856ZM87.504 156.856V166.264H89.504V156.856H87.504ZM96.512 181.528V172.12H94.512V181.528H96.512ZM95.512 173.12H122.968V171.12H95.512V173.12ZM123.968 172.12V166.264H121.968V172.12H123.968ZM122.968 165.264H95.512V167.264H122.968V165.264ZM96.512 166.264V156.856H94.512V166.264H96.512ZM95.512 157.856H122.968V155.856H95.512V157.856ZM123.968 156.856V151.096H121.968V156.856H123.968ZM122.968 150.096H95.512V152.096H122.968V150.096ZM96.512 151.096V141.688H94.512V151.096H96.512ZM95.512 142.688H126.232V140.688H95.512V142.688ZM127.232 141.688V135.352H125.232V141.688H127.232ZM126.232 134.352H59.224V136.352H126.232V134.352ZM58.224 135.352V187.864H60.224V135.352H58.224ZM59.224 188.864H124.696V186.864H59.224V188.864ZM123.698 187.795C123.171 195.418 122.598 200.702 121.948 204.307C121.623 206.109 121.283 207.465 120.931 208.472C120.575 209.488 120.227 210.087 119.921 210.427L121.407 211.765C121.965 211.145 122.421 210.268 122.818 209.133C123.219 207.989 123.581 206.519 123.916 204.661C124.586 200.946 125.165 195.574 125.694 187.933L123.698 187.795ZM119.957 210.389C119.493 210.853 118.902 211.056 117.208 211.056V213.056C118.97 213.056 120.299 212.875 121.371 211.803L119.957 210.389ZM117.208 211.056C115.579 211.056 111.12 211.055 106.482 210.487L106.238 212.473C111.008 213.057 115.573 213.056 117.208 213.056V211.056ZM105.495 211.981C106.452 213.635 107.101 216.359 107.285 218.113L109.275 217.903C109.075 216.009 108.38 212.973 107.225 210.979L105.495 211.981ZM108.202 219.005C113.134 219.392 117.988 219.394 120.549 219.197L120.395 217.203C117.964 217.39 113.218 217.392 108.358 217.011L108.202 219.005ZM120.543 219.197C123.403 218.993 125.505 218.253 127.361 216.179L125.871 214.845C124.463 216.419 122.917 217.023 120.401 217.203L120.543 219.197ZM127.358 216.182C128.909 214.465 129.975 211.498 130.829 206.637C131.691 201.73 132.366 194.699 132.99 184.662L130.994 184.538C130.37 194.565 129.701 201.502 128.859 206.291C128.009 211.126 127.011 213.583 125.874 214.842L127.358 216.182ZM132.973 184.796C133.082 184.247 133.158 183.421 133.205 182.778C133.23 182.447 133.248 182.146 133.26 181.929C133.267 181.821 133.271 181.732 133.274 181.671C133.276 181.64 133.277 181.616 133.278 181.6C133.278 181.591 133.278 181.585 133.279 181.581C133.279 181.578 133.279 181.577 133.279 181.575C133.279 181.575 133.279 181.574 133.279 181.574C133.279 181.574 133.279 181.574 133.279 181.574C133.279 181.574 133.279 181.574 133.279 181.574C133.279 181.573 133.279 181.573 132.28 181.528C131.281 181.483 131.281 181.483 131.281 181.483C131.281 181.483 131.281 181.483 131.281 181.483C131.281 181.483 131.281 181.483 131.281 181.483C131.281 181.483 131.281 181.483 131.281 181.484C131.281 181.484 131.281 181.486 131.281 181.488C131.281 181.491 131.28 181.497 131.28 181.504C131.279 181.519 131.278 181.541 131.277 181.57C131.274 181.628 131.269 181.712 131.264 181.817C131.252 182.026 131.234 182.313 131.211 182.63C131.162 183.283 131.094 183.993 131.011 184.404L132.973 184.796ZM132.28 180.528H95.512V182.528H132.28V180.528ZM117.747 203.511C116.255 199.93 112.634 194.366 109.127 190.372L107.625 191.692C111.03 195.57 114.513 200.95 115.901 204.281L117.747 203.511ZM107.999 190.106L102.815 192.218L103.569 194.07L108.753 191.958L107.999 190.106ZM102.415 193.773C105.633 197.748 109.031 203.328 110.425 206.768L112.279 206.016C110.793 202.352 107.279 196.604 103.969 192.515L102.415 193.773ZM111.767 207.302L117.239 204.806L116.409 202.986L110.937 205.482L111.767 207.302Z" fill="#B1941A"/>
</g>
</g>
<defs>
<filter id="filter0_d" x="0" y="0" width="183" height="251" filterUnits="userSpaceOnUse" color-interpolation-filters="sRGB">
<feFlood flood-opacity="0" result="BackgroundImageFix"/>
<feColorMatrix in="SourceAlpha" type="matrix" values="0 0 0 0 0 0 0 0 0 0 0 0 0 0 0 0 0 0 127 0"/>
<feOffset dy="4"/>
<feGaussianBlur stdDeviation="2"/>
<feColorMatrix type="matrix" values="0 0 0 0 0 0 0 0 0 0 0 0 0 0 0 0 0 0 0.25 0"/>
<feBlend mode="normal" in2="BackgroundImageFix" result="effect1_dropShadow"/>
<feBlend mode="normal" in="SourceGraphic" in2="effect1_dropShadow" result="shape"/>
</filter>
<filter id="filter1_b" x="0" y="-4" width="183" height="239" filterUnits="userSpaceOnUse" color-interpolation-filters="sRGB">
<feFlood flood-opacity="0" result="BackgroundImageFix"/>
<feGaussianBlur in="BackgroundImage" stdDeviation="2"/>
<feComposite in2="SourceAlpha" operator="in" result="effect1_backgroundBlur"/>
<feBlend mode="normal" in="SourceGraphic" in2="effect1_backgroundBlur" result="shape"/>
</filter>
<filter id="filter2_d" x="41.1606" y="33.648" width="99.3717" height="193.678" filterUnits="userSpaceOnUse" color-interpolation-filters="sRGB">
<feFlood flood-opacity="0" result="BackgroundImageFix"/>
<feColorMatrix in="SourceAlpha" type="matrix" values="0 0 0 0 0 0 0 0 0 0 0 0 0 0 0 0 0 0 127 0"/>
<feOffset dy="4"/>
<feGaussianBlur stdDeviation="2"/>
<feColorMatrix type="matrix" values="0 0 0 0 0 0 0 0 0 0 0 0 0 0 0 0 0 0 0.25 0"/>
<feBlend mode="normal" in2="BackgroundImageFix" result="effect1_dropShadow"/>
<feBlend mode="normal" in="SourceGraphic" in2="effect1_dropShadow" result="shape"/>
</filter>
</defs>
</svg>
