<svg width="172" height="236" viewBox="0 0 172 236" fill="none" xmlns="http://www.w3.org/2000/svg">
<g filter="url(#filter0_d)">
<g filter="url(#filter1_b)">
<path d="M18.7 31.4897L86.4278 0L153.228 31.4897L167.144 216.741H4.78334L18.7 31.4897Z" fill="#524F48"/>
<path d="M5.32231 216.241L19.1766 31.8195L86.4263 0.552082L152.751 31.8177L166.605 216.241H5.32231Z" stroke="#524F48"/>
</g>
<rect x="4.78334" y="216.741" width="162.361" height="11.2593" fill="#272624"/>
<g filter="url(#filter2_d)">
<path d="M99.27 32.5246C104.373 35.2786 110.529 39.4096 113.607 42.2446L117.333 38.1136C114.174 35.2786 107.856 31.3906 102.834 28.8796L99.27 32.5246ZM110.772 54.3946C108.261 62.5756 104.778 69.8656 100.404 76.2646C98.217 68.5696 96.759 58.9306 95.949 48.1576H121.707V42.2446H95.544C95.301 37.8706 95.22 33.3346 95.22 28.6366H88.983C89.064 33.2536 89.145 37.7896 89.469 42.2446H55.692V64.8436C55.692 75.2926 54.963 89.1436 48.321 99.0256C49.698 99.7546 52.29 101.861 53.343 103.076C60.633 92.5456 61.848 76.2646 61.848 64.9246V64.2766H76.59C76.266 78.2086 75.861 83.3116 74.727 84.5266C74.241 85.2556 73.431 85.4176 72.297 85.4176C70.92 85.4176 67.437 85.3366 63.711 85.0126C64.683 86.5516 65.331 88.8196 65.412 90.6826C69.381 90.8446 73.026 90.8446 75.051 90.6826C77.319 90.4396 78.696 89.8726 79.911 88.3336C81.612 86.2276 82.098 79.4236 82.503 61.2796V58.6876H61.848V48.1576H89.793C90.846 61.1986 92.79 73.1056 95.706 82.2586C90.522 88.3336 84.285 93.3556 77.076 97.2436C78.453 98.3776 80.559 100.808 81.45 102.023C87.687 98.3776 93.276 93.8416 98.136 88.5766C101.862 96.9196 106.722 101.861 112.959 101.861C119.115 101.861 121.302 97.8916 122.436 84.1216C120.816 83.6356 118.629 82.2586 117.252 80.8816C116.685 91.6546 115.713 95.8666 113.445 95.8666C109.314 95.8666 105.588 91.2496 102.591 83.3116C108.585 75.6166 113.364 66.3826 116.847 55.9336L110.772 54.3946ZM104.211 167.536V174.826H67.68V167.536H104.211ZM67.68 186.814V179.2H104.211V186.814H67.68ZM61.767 194.509H67.68V191.674H104.211V194.347H110.367V162.757H61.767V194.509ZM121.14 144.451V139.024H88.497V129.952C97.407 128.98 105.75 127.603 112.392 125.821L107.856 121.123C96.111 124.201 74.646 126.226 56.421 127.198C57.069 128.575 57.798 130.843 57.96 132.301C65.736 131.977 74.16 131.41 82.341 130.6V139.024H49.941V144.451H75.942C68.814 151.984 58.203 158.869 48.321 162.352C49.698 163.567 51.48 165.673 52.29 167.131C63.063 162.838 74.889 154.333 82.341 144.775V160.489H88.497V144.775C96.192 153.685 108.342 161.947 118.872 166.24C119.763 164.782 121.464 162.514 122.841 161.38C113.202 158.14 102.267 151.498 94.977 144.451H121.14Z" fill="#B1941A"/>
<path d="M99.27 32.5246L98.555 31.8255L97.6272 32.7744L98.7951 33.4046L99.27 32.5246ZM113.607 42.2446L112.93 42.9801L113.673 43.6647L114.35 42.9144L113.607 42.2446ZM117.333 38.1136L118.076 38.7834L118.747 38.0389L118.001 37.3694L117.333 38.1136ZM102.834 28.8796L103.281 27.9852L102.629 27.659L102.119 28.1805L102.834 28.8796ZM110.772 54.3946L111.018 53.4252L110.095 53.1916L109.816 54.1012L110.772 54.3946ZM100.404 76.2646L99.4421 76.538L100.025 78.5905L101.23 76.8289L100.404 76.2646ZM95.949 48.1576V47.1576H94.871L94.9518 48.2326L95.949 48.1576ZM121.707 48.1576V49.1576H122.707V48.1576H121.707ZM121.707 42.2446H122.707V41.2446H121.707V42.2446ZM95.544 42.2446L94.5455 42.3001L94.598 43.2446H95.544V42.2446ZM95.22 28.6366H96.22V27.6366H95.22V28.6366ZM88.983 28.6366V27.6366H87.9653L87.9832 28.6541L88.983 28.6366ZM89.469 42.2446V43.2446H90.5444L90.4664 42.1721L89.469 42.2446ZM55.692 42.2446V41.2446H54.692V42.2446H55.692ZM48.321 99.0256L47.491 98.4678L46.8714 99.3897L47.8531 99.9094L48.321 99.0256ZM53.343 103.076L52.5873 103.731L53.4315 104.705L54.1652 103.645L53.343 103.076ZM61.848 64.2766V63.2766H60.848V64.2766H61.848ZM76.59 64.2766L77.5897 64.2999L77.6135 63.2766H76.59V64.2766ZM74.727 84.5266L73.9959 83.8443L73.9402 83.904L73.8949 83.9719L74.727 84.5266ZM63.711 85.0126L63.7976 84.0164L61.7887 83.8417L62.8655 85.5466L63.711 85.0126ZM65.412 90.6826L64.4129 90.726L64.4529 91.6443L65.3712 91.6818L65.412 90.6826ZM75.051 90.6826L75.1307 91.6794L75.1442 91.6783L75.1575 91.6769L75.051 90.6826ZM79.911 88.3336L79.133 87.7052L79.1261 87.714L79.911 88.3336ZM82.503 61.2796L83.5028 61.3019L83.503 61.2908V61.2796H82.503ZM82.503 58.6876H83.503V57.6876H82.503V58.6876ZM61.848 58.6876H60.848V59.6876H61.848V58.6876ZM61.848 48.1576V47.1576H60.848V48.1576H61.848ZM89.793 48.1576L90.7898 48.0771L90.7155 47.1576H89.793V48.1576ZM95.706 82.2586L96.4667 82.9077L96.8276 82.4848L96.6588 81.9551L95.706 82.2586ZM77.076 97.2436L76.6013 96.3635L75.2918 97.0697L76.4403 98.0155L77.076 97.2436ZM81.45 102.023L80.6436 102.614L81.1765 103.341L81.9546 102.886L81.45 102.023ZM98.136 88.5766L99.0491 88.1688L98.4304 86.7834L97.4012 87.8983L98.136 88.5766ZM122.436 84.1216L123.433 84.2037L123.499 83.3965L122.723 83.1638L122.436 84.1216ZM117.252 80.8816L117.959 80.1745L116.371 78.5868L116.253 80.829L117.252 80.8816ZM102.591 83.3116L101.802 82.6971L101.457 83.1398L101.655 83.6648L102.591 83.3116ZM116.847 55.9336L117.796 56.2498L118.136 55.2286L117.093 54.9642L116.847 55.9336ZM98.7951 33.4046C103.858 36.1368 109.935 40.2222 112.93 42.9801L114.284 41.5091C111.123 38.597 104.888 34.4204 99.7449 31.6446L98.7951 33.4046ZM114.35 42.9144L118.076 38.7834L116.59 37.4438L112.864 41.5748L114.35 42.9144ZM118.001 37.3694C114.745 34.4472 108.335 30.5123 103.281 27.9852L102.387 29.774C107.377 32.2689 113.603 36.11 116.665 38.8578L118.001 37.3694ZM102.119 28.1805L98.555 31.8255L99.985 33.2237L103.549 29.5787L102.119 28.1805ZM109.816 54.1012C107.332 62.1927 103.892 69.3903 99.5784 75.7003L101.23 76.8289C105.664 70.341 109.19 62.9585 111.728 54.688L109.816 54.1012ZM101.366 75.9912C99.2041 68.3848 97.7534 58.8188 96.9462 48.0826L94.9518 48.2326C95.7646 59.0424 97.2299 68.7544 99.4421 76.538L101.366 75.9912ZM95.949 49.1576H121.707V47.1576H95.949V49.1576ZM122.707 48.1576V42.2446H120.707V48.1576H122.707ZM121.707 41.2446H95.544V43.2446H121.707V41.2446ZM96.5425 42.1891C96.3009 37.8401 96.22 33.3241 96.22 28.6366H94.22C94.22 33.3452 94.3012 37.9011 94.5455 42.3001L96.5425 42.1891ZM95.22 27.6366H88.983V29.6366H95.22V27.6366ZM87.9832 28.6541C88.0641 33.2664 88.1453 37.8301 88.4716 42.3171L90.4664 42.1721C90.1447 37.7491 90.0639 33.2408 89.9828 28.6191L87.9832 28.6541ZM89.469 41.2446H55.692V43.2446H89.469V41.2446ZM54.692 42.2446V64.8436H56.692V42.2446H54.692ZM54.692 64.8436C54.692 75.3109 53.9434 88.8679 47.491 98.4678L49.151 99.5834C55.9826 89.4193 56.692 75.2744 56.692 64.8436H54.692ZM47.8531 99.9094C48.4547 100.228 49.3871 100.888 50.3248 101.646C51.2596 102.402 52.1179 103.189 52.5873 103.731L54.0987 102.421C53.5151 101.747 52.5509 100.874 51.5822 100.091C50.6164 99.3099 49.5643 98.5523 48.7889 98.1418L47.8531 99.9094ZM54.1652 103.645C57.9248 98.2143 60.0861 91.354 61.3137 84.4796C62.5431 77.5951 62.848 70.6252 62.848 64.9246H60.848C60.848 70.564 60.5454 77.4046 59.3448 84.1281C58.1424 90.8617 56.0512 97.4069 52.5208 102.506L54.1652 103.645ZM62.848 64.9246V64.2766H60.848V64.9246H62.848ZM61.848 65.2766H76.59V63.2766H61.848V65.2766ZM75.5903 64.2534C75.4282 71.222 75.2464 75.9496 74.9662 79.0814C74.826 80.6492 74.6639 81.7823 74.4771 82.5817C74.2821 83.4169 74.0908 83.7427 73.9959 83.8443L75.4581 85.2089C75.9302 84.703 76.2148 83.9353 76.4247 83.0366C76.643 82.1021 76.815 80.8608 76.9583 79.2596C77.2451 76.0531 77.4278 71.2632 77.5897 64.2999L75.5903 64.2534ZM73.8949 83.9719C73.7177 84.2377 73.4074 84.4176 72.297 84.4176V86.4176C73.4546 86.4176 74.7643 86.2735 75.5591 85.0813L73.8949 83.9719ZM72.297 84.4176C70.9446 84.4176 67.4908 84.3375 63.7976 84.0164L63.6244 86.0088C67.3832 86.3357 70.8954 86.4176 72.297 86.4176V84.4176ZM62.8655 85.5466C63.7332 86.9205 64.3385 89.0149 64.4129 90.726L66.4111 90.6392C66.3235 88.6243 65.6328 86.1827 64.5565 84.4786L62.8655 85.5466ZM65.3712 91.6818C69.3501 91.8442 73.0439 91.8464 75.1307 91.6794L74.9713 89.6858C73.0081 89.8428 69.4119 89.845 65.4528 89.6834L65.3712 91.6818ZM75.1575 91.6769C76.3446 91.5497 77.3786 91.3305 78.2994 90.9C79.2369 90.4617 80.0041 89.8296 80.6959 88.9533L79.1261 87.714C78.6029 88.3767 78.0741 88.7976 77.4523 89.0882C76.8139 89.3867 76.0254 89.5725 74.9445 89.6883L75.1575 91.6769ZM80.6889 88.9619C81.253 88.2635 81.6455 87.2722 81.9492 86.002C82.2566 84.7162 82.4948 83.0466 82.6889 80.9114C83.0772 76.6399 83.3004 70.3695 83.5028 61.3019L81.5033 61.2573C81.3007 70.3337 81.0783 76.5374 80.6971 80.7303C80.5065 82.8273 80.2789 84.3876 80.0041 85.5369C79.7256 86.7017 79.4195 87.3507 79.1331 87.7053L80.6889 88.9619ZM83.503 61.2796V58.6876H81.503V61.2796H83.503ZM82.503 57.6876H61.848V59.6876H82.503V57.6876ZM62.848 58.6876V48.1576H60.848V58.6876H62.848ZM61.848 49.1576H89.793V47.1576H61.848V49.1576ZM88.7962 48.2381C89.8523 61.3172 91.8049 73.3079 94.7532 82.5622L96.6588 81.9551C93.7751 72.9033 91.8397 61.08 90.7898 48.0771L88.7962 48.2381ZM94.9453 81.6095C89.8433 87.5884 83.7039 92.5328 76.6013 96.3635L77.5507 98.1238C84.8661 94.1784 91.2007 89.0788 96.4667 82.9077L94.9453 81.6095ZM76.4403 98.0155C77.7297 99.0774 79.7798 101.436 80.6436 102.614L82.2564 101.431C81.3382 100.179 79.1763 97.6778 77.7117 96.4717L76.4403 98.0155ZM81.9546 102.886C88.2794 99.1896 93.9455 94.5906 98.8708 89.2549L97.4012 87.8983C92.6065 93.0926 87.0946 97.5656 80.9454 101.159L81.9546 102.886ZM97.2229 88.9844C100.984 97.407 106.092 102.861 112.959 102.861V100.861C107.352 100.861 102.74 96.4322 99.0491 88.1688L97.2229 88.9844ZM112.959 102.861C114.601 102.861 116.071 102.597 117.352 101.905C118.645 101.208 119.659 100.122 120.462 98.6282C122.03 95.7086 122.867 91.0761 123.433 84.2037L121.439 84.0395C120.871 90.9371 120.047 95.1741 118.7 97.6815C118.045 98.9008 117.287 99.6681 116.403 100.145C115.507 100.628 114.395 100.861 112.959 100.861V102.861ZM122.723 83.1638C121.289 82.7333 119.241 81.4559 117.959 80.1745L116.545 81.5887C118.017 83.0613 120.343 84.5379 122.149 85.0794L122.723 83.1638ZM116.253 80.829C115.97 86.2177 115.588 89.8764 115.016 92.1724C114.729 93.3263 114.416 94.038 114.115 94.4433C113.845 94.8055 113.635 94.8666 113.445 94.8666V96.8666C114.389 96.8666 115.151 96.4012 115.719 95.637C116.256 94.9159 116.647 93.9013 116.957 92.6556C117.58 90.1523 117.967 86.3185 118.251 80.9342L116.253 80.829ZM113.445 94.8666C111.786 94.8666 110.075 93.9446 108.355 91.9186C106.636 89.8943 105.005 86.8735 103.527 82.9584L101.655 83.6648C103.174 87.6877 104.904 90.9444 106.83 93.2131C108.755 95.4801 110.973 96.8666 113.445 96.8666V94.8666ZM103.38 83.9261C109.454 76.1288 114.282 66.7902 117.796 56.2498L115.898 55.6174C112.446 65.975 107.716 75.1044 101.802 82.6971L103.38 83.9261ZM117.093 54.9642L111.018 53.4252L110.526 55.364L116.601 56.903L117.093 54.9642ZM104.211 167.536H105.211V166.536H104.211V167.536ZM104.211 174.826V175.826H105.211V174.826H104.211ZM67.68 174.826H66.68V175.826H67.68V174.826ZM67.68 167.536V166.536H66.68V167.536H67.68ZM67.68 186.814H66.68V187.814H67.68V186.814ZM67.68 179.2V178.2H66.68V179.2H67.68ZM104.211 179.2H105.211V178.2H104.211V179.2ZM104.211 186.814V187.814H105.211V186.814H104.211ZM61.767 194.509H60.767V195.509H61.767V194.509ZM67.68 194.509V195.509H68.68V194.509H67.68ZM67.68 191.674V190.674H66.68V191.674H67.68ZM104.211 191.674H105.211V190.674H104.211V191.674ZM104.211 194.347H103.211V195.347H104.211V194.347ZM110.367 194.347V195.347H111.367V194.347H110.367ZM110.367 162.757H111.367V161.757H110.367V162.757ZM61.767 162.757V161.757H60.767V162.757H61.767ZM121.14 144.451V145.451H122.14V144.451H121.14ZM121.14 139.024H122.14V138.024H121.14V139.024ZM88.497 139.024H87.497V140.024H88.497V139.024ZM88.497 129.952L88.3886 128.958L87.497 129.055V129.952H88.497ZM112.392 125.821L112.651 126.786L114.29 126.347L113.111 125.126L112.392 125.821ZM107.856 121.123L108.575 120.428L108.169 120.007L107.602 120.155L107.856 121.123ZM56.421 127.198L56.3677 126.199L54.8831 126.278L55.5162 127.623L56.421 127.198ZM57.96 132.301L56.9661 132.411L57.0692 133.339L58.0016 133.3L57.96 132.301ZM82.341 130.6H83.341V129.496L82.2425 129.604L82.341 130.6ZM82.341 139.024V140.024H83.341V139.024H82.341ZM49.941 139.024V138.024H48.941V139.024H49.941ZM49.941 144.451H48.941V145.451H49.941V144.451ZM75.942 144.451L76.6684 145.138L78.265 143.451H75.942V144.451ZM48.321 162.352L47.9886 161.408L46.3823 161.975L47.6594 163.101L48.321 162.352ZM52.29 167.131L51.4158 167.616L51.843 168.385L52.6602 168.06L52.29 167.131ZM82.341 144.775H83.341V141.866L81.5524 144.16L82.341 144.775ZM82.341 160.489H81.341V161.489H82.341V160.489ZM88.497 160.489V161.489H89.497V160.489H88.497ZM88.497 144.775L89.2538 144.121L87.497 142.087V144.775H88.497ZM118.872 166.24L118.494 167.166L119.282 167.487L119.725 166.761L118.872 166.24ZM122.841 161.38L123.477 162.152L124.868 161.006L123.16 160.432L122.841 161.38ZM94.977 144.451V143.451H92.5037L94.282 145.17L94.977 144.451ZM103.211 167.536V174.826H105.211V167.536H103.211ZM104.211 173.826H67.68V175.826H104.211V173.826ZM68.68 174.826V167.536H66.68V174.826H68.68ZM67.68 168.536H104.211V166.536H67.68V168.536ZM68.68 186.814V179.2H66.68V186.814H68.68ZM67.68 180.2H104.211V178.2H67.68V180.2ZM103.211 179.2V186.814H105.211V179.2H103.211ZM104.211 185.814H67.68V187.814H104.211V185.814ZM61.767 195.509H67.68V193.509H61.767V195.509ZM68.68 194.509V191.674H66.68V194.509H68.68ZM67.68 192.674H104.211V190.674H67.68V192.674ZM103.211 191.674V194.347H105.211V191.674H103.211ZM104.211 195.347H110.367V193.347H104.211V195.347ZM111.367 194.347V162.757H109.367V194.347H111.367ZM110.367 161.757H61.767V163.757H110.367V161.757ZM60.767 162.757V194.509H62.767V162.757H60.767ZM122.14 144.451V139.024H120.14V144.451H122.14ZM121.14 138.024H88.497V140.024H121.14V138.024ZM89.497 139.024V129.952H87.497V139.024H89.497ZM88.6054 130.946C97.5426 129.971 105.941 128.587 112.651 126.786L112.133 124.855C105.559 126.618 97.2714 127.988 88.3886 128.958L88.6054 130.946ZM113.111 125.126L108.575 120.428L107.137 121.817L111.673 126.515L113.111 125.126ZM107.602 120.155C95.9678 123.204 74.597 125.227 56.3677 126.199L56.4743 128.196C74.695 127.224 96.2542 125.197 108.11 122.09L107.602 120.155ZM55.5162 127.623C56.1317 128.931 56.8195 131.091 56.9661 132.411L58.9539 132.19C58.7765 130.594 58.0063 128.218 57.3258 126.772L55.5162 127.623ZM58.0016 133.3C65.7951 132.975 74.2381 132.407 82.4395 131.595L82.2425 129.604C74.0819 130.412 65.6769 130.978 57.9184 131.301L58.0016 133.3ZM81.341 130.6V139.024H83.341V130.6H81.341ZM82.341 138.024H49.941V140.024H82.341V138.024ZM48.941 139.024V144.451H50.941V139.024H48.941ZM49.941 145.451H75.942V143.451H49.941V145.451ZM75.2156 143.763C68.1975 151.18 57.7218 157.978 47.9886 161.408L48.6534 163.295C58.6842 159.759 69.4305 152.787 76.6684 145.138L75.2156 143.763ZM47.6594 163.101C48.9707 164.259 50.6726 166.278 51.4158 167.616L53.1642 166.645C52.2874 165.067 50.4253 162.875 48.9826 161.602L47.6594 163.101ZM52.6602 168.06C63.5866 163.705 75.5611 155.097 83.1296 145.389L81.5524 144.16C74.2169 153.568 62.5394 161.97 51.9198 166.202L52.6602 168.06ZM81.341 144.775V160.489H83.341V144.775H81.341ZM82.341 161.489H88.497V159.489H82.341V161.489ZM89.497 160.489V144.775H87.497V160.489H89.497ZM87.7402 145.428C95.5494 154.471 107.835 162.82 118.494 167.166L119.25 165.314C108.849 161.073 96.8346 152.899 89.2538 144.121L87.7402 145.428ZM119.725 166.761C120.593 165.342 122.225 163.182 123.477 162.152L122.205 160.608C120.703 161.845 118.933 164.221 118.019 165.718L119.725 166.761ZM123.16 160.432C113.661 157.239 102.855 150.675 95.672 143.732L94.282 145.17C101.679 152.32 112.743 159.04 122.522 162.327L123.16 160.432ZM94.977 145.451H121.14V143.451H94.977V145.451Z" fill="#B1941A"/>
</g>
</g>
<defs>
<filter id="filter0_d" x="0.78334" y="0" width="170.361" height="236" filterUnits="userSpaceOnUse" color-interpolation-filters="sRGB">
<feFlood flood-opacity="0" result="BackgroundImageFix"/>
<feColorMatrix in="SourceAlpha" type="matrix" values="0 0 0 0 0 0 0 0 0 0 0 0 0 0 0 0 0 0 127 0"/>
<feOffset dy="4"/>
<feGaussianBlur stdDeviation="2"/>
<feColorMatrix type="matrix" values="0 0 0 0 0 0 0 0 0 0 0 0 0 0 0 0 0 0 0.25 0"/>
<feBlend mode="normal" in2="BackgroundImageFix" result="effect1_dropShadow"/>
<feBlend mode="normal" in="SourceGraphic" in2="effect1_dropShadow" result="shape"/>
</filter>
<filter id="filter1_b" x="0.78334" y="-4" width="170.361" height="224.741" filterUnits="userSpaceOnUse" color-interpolation-filters="sRGB">
<feFlood flood-opacity="0" result="BackgroundImageFix"/>
<feGaussianBlur in="BackgroundImage" stdDeviation="2"/>
<feComposite in2="SourceAlpha" operator="in" result="effect1_backgroundBlur"/>
<feBlend mode="normal" in="SourceGraphic" in2="effect1_backgroundBlur" result="shape"/>
</filter>
<filter id="filter2_d" x="42.3823" y="27.6366" width="86.4855" height="175.872" filterUnits="userSpaceOnUse" color-interpolation-filters="sRGB">
<feFlood flood-opacity="0" result="BackgroundImageFix"/>
<feColorMatrix in="SourceAlpha" type="matrix" values="0 0 0 0 0 0 0 0 0 0 0 0 0 0 0 0 0 0 127 0"/>
<feOffset dy="4"/>
<feGaussianBlur stdDeviation="2"/>
<feColorMatrix type="matrix" values="0 0 0 0 0 0 0 0 0 0 0 0 0 0 0 0 0 0 0.25 0"/>
<feBlend mode="normal" in2="BackgroundImageFix" result="effect1_dropShadow"/>
<feBlend mode="normal" in="SourceGraphic" in2="effect1_dropShadow" result="shape"/>
</filter>
</defs>
</svg>
