<svg width="184" height="236" viewBox="0 0 184 236" fill="none" xmlns="http://www.w3.org/2000/svg">
<g filter="url(#filter0_d)">
<g filter="url(#filter1_b)">
<path d="M19.9 31.4897L92.4944 0L164.094 31.4897L179.011 216.741H4.98333L19.9 31.4897Z" fill="#524F48"/>
<path d="M5.52521 216.241L20.3743 31.829L92.4931 0.545613L163.62 31.8273L178.469 216.241H5.52521Z" stroke="#524F48"/>
</g>
<rect x="4.98333" y="216.741" width="174.028" height="11.2593" fill="#272624"/>
<g filter="url(#filter2_d)">
<path d="M105.27 32.5246C110.373 35.2786 116.529 39.4096 119.607 42.2446L123.333 38.1136C120.174 35.2786 113.856 31.3906 108.834 28.8796L105.27 32.5246ZM116.772 54.3946C114.261 62.5756 110.778 69.8656 106.404 76.2646C104.217 68.5696 102.759 58.9306 101.949 48.1576H127.707V42.2446H101.544C101.301 37.8706 101.22 33.3346 101.22 28.6366H94.983C95.064 33.2536 95.145 37.7896 95.469 42.2446H61.692V64.8436C61.692 75.2926 60.963 89.1436 54.321 99.0256C55.698 99.7546 58.29 101.861 59.343 103.076C66.633 92.5456 67.848 76.2646 67.848 64.9246V64.2766H82.59C82.266 78.2086 81.861 83.3116 80.727 84.5266C80.241 85.2556 79.431 85.4176 78.297 85.4176C76.92 85.4176 73.437 85.3366 69.711 85.0126C70.683 86.5516 71.331 88.8196 71.412 90.6826C75.381 90.8446 79.026 90.8446 81.051 90.6826C83.319 90.4396 84.696 89.8726 85.911 88.3336C87.612 86.2276 88.098 79.4236 88.503 61.2796V58.6876H67.848V48.1576H95.793C96.846 61.1986 98.79 73.1056 101.706 82.2586C96.522 88.3336 90.285 93.3556 83.076 97.2436C84.453 98.3776 86.559 100.808 87.45 102.023C93.687 98.3776 99.276 93.8416 104.136 88.5766C107.862 96.9196 112.722 101.861 118.959 101.861C125.115 101.861 127.302 97.8916 128.436 84.1216C126.816 83.6356 124.629 82.2586 123.252 80.8816C122.685 91.6546 121.713 95.8666 119.445 95.8666C115.314 95.8666 111.588 91.2496 108.591 83.3116C114.585 75.6166 119.364 66.3826 122.847 55.9336L116.772 54.3946ZM87.288 180.577L74.652 183.007V159.355H86.721V154.09H74.652V145.585H84.615V140.401H61.935C66.552 135.541 69.954 130.438 72.465 126.064C77.163 130.357 82.347 136.351 85.02 140.158L89.07 135.541C85.911 131.329 79.512 124.93 74.247 120.556H68.901C65.985 126.955 60.72 135.136 53.106 141.292C54.24 142.102 56.022 143.965 56.913 145.18C58.047 144.208 59.181 143.155 60.234 142.102V145.585H69.387V154.09H56.184V159.355H69.387V183.979C63.96 184.951 59.019 185.923 55.131 186.571L56.508 191.998C65.013 190.297 76.758 188.029 87.693 185.68L87.288 180.577ZM57.804 165.025C59.505 169.804 60.882 175.96 61.125 180.091L65.661 178.795C65.256 174.826 63.798 168.67 62.016 163.972L57.804 165.025ZM80.97 179.119C82.428 175.312 84.291 169.399 85.83 164.458L81.132 163C80.322 167.374 78.459 173.854 77.163 177.742L80.97 179.119ZM96.603 143.56H118.878V153.118H96.603V143.56ZM118.878 129.304V138.295H96.603V129.304H118.878ZM123.738 161.785C121.146 164.539 117.015 168.022 113.37 170.776C111.75 166.888 110.454 162.757 109.401 158.383H124.629V123.877H90.933V186.328C88.422 186.895 86.154 187.381 84.129 187.786L85.83 193.537C93.282 191.836 103.002 189.406 112.155 186.976L111.588 181.468C106.485 182.683 101.382 183.898 96.603 185.032V158.383H103.974C107.538 174.907 114.261 188.11 126.006 194.59C126.897 193.051 128.679 190.702 129.975 189.568C123.9 186.652 119.202 181.63 115.638 175.312C119.526 172.72 124.224 169.156 127.869 165.835L123.738 161.785Z" fill="#B1941A"/>
<path d="M105.27 32.5246L104.555 31.8255L103.627 32.7744L104.795 33.4046L105.27 32.5246ZM119.607 42.2446L118.93 42.9801L119.673 43.6647L120.35 42.9144L119.607 42.2446ZM123.333 38.1136L124.076 38.7834L124.747 38.0389L124.001 37.3694L123.333 38.1136ZM108.834 28.8796L109.281 27.9852L108.629 27.659L108.119 28.1805L108.834 28.8796ZM116.772 54.3946L117.018 53.4252L116.095 53.1916L115.816 54.1012L116.772 54.3946ZM106.404 76.2646L105.442 76.538L106.025 78.5905L107.23 76.8289L106.404 76.2646ZM101.949 48.1576V47.1576H100.871L100.952 48.2326L101.949 48.1576ZM127.707 48.1576V49.1576H128.707V48.1576H127.707ZM127.707 42.2446H128.707V41.2446H127.707V42.2446ZM101.544 42.2446L100.546 42.3001L100.598 43.2446H101.544V42.2446ZM101.22 28.6366H102.22V27.6366H101.22V28.6366ZM94.983 28.6366V27.6366H93.9653L93.9832 28.6541L94.983 28.6366ZM95.469 42.2446V43.2446H96.5444L96.4664 42.1721L95.469 42.2446ZM61.692 42.2446V41.2446H60.692V42.2446H61.692ZM54.321 99.0256L53.491 98.4678L52.8714 99.3897L53.8531 99.9094L54.321 99.0256ZM59.343 103.076L58.5873 103.731L59.4315 104.705L60.1652 103.645L59.343 103.076ZM67.848 64.2766V63.2766H66.848V64.2766H67.848ZM82.59 64.2766L83.5897 64.2999L83.6135 63.2766H82.59V64.2766ZM80.727 84.5266L79.9959 83.8443L79.9402 83.904L79.8949 83.9719L80.727 84.5266ZM69.711 85.0126L69.7976 84.0164L67.7887 83.8417L68.8655 85.5466L69.711 85.0126ZM71.412 90.6826L70.4129 90.726L70.4529 91.6443L71.3712 91.6818L71.412 90.6826ZM81.051 90.6826L81.1307 91.6794L81.1442 91.6783L81.1575 91.6769L81.051 90.6826ZM85.911 88.3336L85.133 87.7052L85.1261 87.714L85.911 88.3336ZM88.503 61.2796L89.5028 61.3019L89.503 61.2908V61.2796H88.503ZM88.503 58.6876H89.503V57.6876H88.503V58.6876ZM67.848 58.6876H66.848V59.6876H67.848V58.6876ZM67.848 48.1576V47.1576H66.848V48.1576H67.848ZM95.793 48.1576L96.7898 48.0771L96.7155 47.1576H95.793V48.1576ZM101.706 82.2586L102.467 82.9077L102.828 82.4848L102.659 81.9551L101.706 82.2586ZM83.076 97.2436L82.6013 96.3635L81.2918 97.0697L82.4403 98.0155L83.076 97.2436ZM87.45 102.023L86.6436 102.614L87.1765 103.341L87.9546 102.886L87.45 102.023ZM104.136 88.5766L105.049 88.1688L104.43 86.7834L103.401 87.8983L104.136 88.5766ZM128.436 84.1216L129.433 84.2037L129.499 83.3965L128.723 83.1638L128.436 84.1216ZM123.252 80.8816L123.959 80.1745L122.371 78.5868L122.253 80.829L123.252 80.8816ZM108.591 83.3116L107.802 82.6971L107.457 83.1398L107.655 83.6648L108.591 83.3116ZM122.847 55.9336L123.796 56.2498L124.136 55.2286L123.093 54.9642L122.847 55.9336ZM104.795 33.4046C109.858 36.1368 115.935 40.2222 118.93 42.9801L120.284 41.5091C117.123 38.597 110.888 34.4204 105.745 31.6446L104.795 33.4046ZM120.35 42.9144L124.076 38.7834L122.59 37.4438L118.864 41.5748L120.35 42.9144ZM124.001 37.3694C120.745 34.4472 114.335 30.5123 109.281 27.9852L108.387 29.774C113.377 32.2689 119.603 36.11 122.665 38.8578L124.001 37.3694ZM108.119 28.1805L104.555 31.8255L105.985 33.2237L109.549 29.5787L108.119 28.1805ZM115.816 54.1012C113.332 62.1927 109.892 69.3903 105.578 75.7003L107.23 76.8289C111.664 70.341 115.19 62.9585 117.728 54.688L115.816 54.1012ZM107.366 75.9912C105.204 68.3848 103.753 58.8188 102.946 48.0826L100.952 48.2326C101.765 59.0424 103.23 68.7544 105.442 76.538L107.366 75.9912ZM101.949 49.1576H127.707V47.1576H101.949V49.1576ZM128.707 48.1576V42.2446H126.707V48.1576H128.707ZM127.707 41.2446H101.544V43.2446H127.707V41.2446ZM102.542 42.1891C102.301 37.8401 102.22 33.3241 102.22 28.6366H100.22C100.22 33.3452 100.301 37.9011 100.546 42.3001L102.542 42.1891ZM101.22 27.6366H94.983V29.6366H101.22V27.6366ZM93.9832 28.6541C94.0641 33.2664 94.1453 37.8301 94.4716 42.3171L96.4664 42.1721C96.1447 37.7491 96.0639 33.2408 95.9828 28.6191L93.9832 28.6541ZM95.469 41.2446H61.692V43.2446H95.469V41.2446ZM60.692 42.2446V64.8436H62.692V42.2446H60.692ZM60.692 64.8436C60.692 75.3109 59.9434 88.8679 53.491 98.4678L55.151 99.5834C61.9826 89.4193 62.692 75.2744 62.692 64.8436H60.692ZM53.8531 99.9094C54.4547 100.228 55.3871 100.888 56.3248 101.646C57.2596 102.402 58.1179 103.189 58.5873 103.731L60.0987 102.421C59.5151 101.747 58.5509 100.874 57.5822 100.091C56.6164 99.3099 55.5643 98.5523 54.7889 98.1418L53.8531 99.9094ZM60.1652 103.645C63.9248 98.2143 66.0861 91.354 67.3137 84.4796C68.5431 77.5951 68.848 70.6252 68.848 64.9246H66.848C66.848 70.564 66.5454 77.4046 65.3448 84.1281C64.1424 90.8617 62.0512 97.4069 58.5208 102.506L60.1652 103.645ZM68.848 64.9246V64.2766H66.848V64.9246H68.848ZM67.848 65.2766H82.59V63.2766H67.848V65.2766ZM81.5903 64.2534C81.4282 71.222 81.2464 75.9496 80.9662 79.0814C80.826 80.6492 80.6639 81.7823 80.4771 82.5817C80.2821 83.4169 80.0908 83.7427 79.9959 83.8443L81.4581 85.2089C81.9302 84.703 82.2148 83.9353 82.4247 83.0366C82.643 82.1021 82.815 80.8608 82.9583 79.2596C83.2451 76.0531 83.4278 71.2632 83.5897 64.2999L81.5903 64.2534ZM79.8949 83.9719C79.7177 84.2377 79.4074 84.4176 78.297 84.4176V86.4176C79.4546 86.4176 80.7643 86.2735 81.5591 85.0813L79.8949 83.9719ZM78.297 84.4176C76.9446 84.4176 73.4908 84.3375 69.7976 84.0164L69.6244 86.0088C73.3832 86.3357 76.8954 86.4176 78.297 86.4176V84.4176ZM68.8655 85.5466C69.7332 86.9205 70.3385 89.0149 70.4129 90.726L72.4111 90.6392C72.3235 88.6243 71.6328 86.1827 70.5565 84.4786L68.8655 85.5466ZM71.3712 91.6818C75.3501 91.8442 79.0439 91.8464 81.1307 91.6794L80.9713 89.6858C79.0081 89.8428 75.4119 89.845 71.4528 89.6834L71.3712 91.6818ZM81.1575 91.6769C82.3446 91.5497 83.3786 91.3305 84.2994 90.9C85.2369 90.4617 86.0041 89.8296 86.6959 88.9533L85.1261 87.714C84.6029 88.3767 84.0741 88.7976 83.4523 89.0882C82.8139 89.3867 82.0254 89.5725 80.9445 89.6883L81.1575 91.6769ZM86.6889 88.9619C87.253 88.2635 87.6455 87.2722 87.9492 86.002C88.2566 84.7162 88.4948 83.0466 88.6889 80.9114C89.0772 76.6399 89.3004 70.3695 89.5028 61.3019L87.5033 61.2573C87.3007 70.3337 87.0783 76.5374 86.6971 80.7303C86.5065 82.8273 86.2789 84.3876 86.0041 85.5369C85.7256 86.7017 85.4195 87.3507 85.1331 87.7053L86.6889 88.9619ZM89.503 61.2796V58.6876H87.503V61.2796H89.503ZM88.503 57.6876H67.848V59.6876H88.503V57.6876ZM68.848 58.6876V48.1576H66.848V58.6876H68.848ZM67.848 49.1576H95.793V47.1576H67.848V49.1576ZM94.7962 48.2381C95.8523 61.3172 97.8049 73.3079 100.753 82.5622L102.659 81.9551C99.7751 72.9033 97.8397 61.08 96.7898 48.0771L94.7962 48.2381ZM100.945 81.6095C95.8433 87.5884 89.7039 92.5328 82.6013 96.3635L83.5507 98.1238C90.8661 94.1784 97.2007 89.0788 102.467 82.9077L100.945 81.6095ZM82.4403 98.0155C83.7297 99.0774 85.7798 101.436 86.6436 102.614L88.2564 101.431C87.3382 100.179 85.1763 97.6778 83.7117 96.4717L82.4403 98.0155ZM87.9546 102.886C94.2794 99.1896 99.9455 94.5906 104.871 89.2549L103.401 87.8983C98.6065 93.0926 93.0946 97.5656 86.9454 101.159L87.9546 102.886ZM103.223 88.9844C106.984 97.407 112.092 102.861 118.959 102.861V100.861C113.352 100.861 108.74 96.4322 105.049 88.1688L103.223 88.9844ZM118.959 102.861C120.601 102.861 122.071 102.597 123.352 101.905C124.645 101.208 125.659 100.122 126.462 98.6282C128.03 95.7086 128.867 91.0761 129.433 84.2037L127.439 84.0395C126.871 90.9371 126.047 95.1741 124.7 97.6815C124.045 98.9008 123.287 99.6681 122.403 100.145C121.507 100.628 120.395 100.861 118.959 100.861V102.861ZM128.723 83.1638C127.289 82.7333 125.241 81.4559 123.959 80.1745L122.545 81.5887C124.017 83.0613 126.343 84.5379 128.149 85.0794L128.723 83.1638ZM122.253 80.829C121.97 86.2177 121.588 89.8764 121.016 92.1724C120.729 93.3263 120.416 94.038 120.115 94.4433C119.845 94.8055 119.635 94.8666 119.445 94.8666V96.8666C120.389 96.8666 121.151 96.4012 121.719 95.637C122.256 94.9159 122.647 93.9013 122.957 92.6556C123.58 90.1523 123.967 86.3185 124.251 80.9342L122.253 80.829ZM119.445 94.8666C117.786 94.8666 116.075 93.9446 114.355 91.9186C112.636 89.8943 111.005 86.8735 109.527 82.9584L107.655 83.6648C109.174 87.6877 110.904 90.9444 112.83 93.2131C114.755 95.4801 116.973 96.8666 119.445 96.8666V94.8666ZM109.38 83.9261C115.454 76.1288 120.282 66.7902 123.796 56.2498L121.898 55.6174C118.446 65.975 113.716 75.1044 107.802 82.6971L109.38 83.9261ZM123.093 54.9642L117.018 53.4252L116.526 55.364L122.601 56.903L123.093 54.9642ZM87.288 180.577L88.2849 180.497L88.1965 179.384L87.0992 179.595L87.288 180.577ZM74.652 183.007H73.652V184.217L74.8408 183.989L74.652 183.007ZM74.652 159.355V158.355H73.652V159.355H74.652ZM86.721 159.355V160.355H87.721V159.355H86.721ZM86.721 154.09H87.721V153.09H86.721V154.09ZM74.652 154.09H73.652V155.09H74.652V154.09ZM74.652 145.585V144.585H73.652V145.585H74.652ZM84.615 145.585V146.585H85.615V145.585H84.615ZM84.615 140.401H85.615V139.401H84.615V140.401ZM61.935 140.401L61.21 139.712L59.6057 141.401H61.935V140.401ZM72.465 126.064L73.1396 125.325L72.2188 124.484L71.5977 125.566L72.465 126.064ZM85.02 140.158L84.2016 140.732L84.9327 141.774L85.7718 140.817L85.02 140.158ZM89.07 135.541L89.8218 136.2L90.357 135.59L89.87 134.941L89.07 135.541ZM74.247 120.556L74.886 119.786L74.6082 119.556H74.247V120.556ZM68.901 120.556V119.556H68.2578L67.991 120.141L68.901 120.556ZM53.106 141.292L52.4773 140.514L51.4545 141.341L52.5248 142.105L53.106 141.292ZM56.913 145.18L56.1066 145.771L56.7446 146.641L57.5638 145.939L56.913 145.18ZM60.234 142.102H61.234V139.687L59.5269 141.394L60.234 142.102ZM60.234 145.585H59.234V146.585H60.234V145.585ZM69.387 145.585H70.387V144.585H69.387V145.585ZM69.387 154.09V155.09H70.387V154.09H69.387ZM56.184 154.09V153.09H55.184V154.09H56.184ZM56.184 159.355H55.184V160.355H56.184V159.355ZM69.387 159.355H70.387V158.355H69.387V159.355ZM69.387 183.979L69.5633 184.963L70.387 184.815V183.979H69.387ZM55.131 186.571L54.9666 185.584L53.8944 185.763L54.1617 186.817L55.131 186.571ZM56.508 191.998L55.5387 192.244L55.7724 193.165L56.7041 192.978L56.508 191.998ZM87.693 185.68L87.903 186.657L88.7591 186.473L88.6899 185.6L87.693 185.68ZM57.804 165.025L57.5615 164.054L56.4924 164.322L56.8619 165.36L57.804 165.025ZM61.125 180.091L60.1267 180.149L60.2 181.395L61.3997 181.052L61.125 180.091ZM65.661 178.795L65.9357 179.756L66.7408 179.526L66.6558 178.693L65.661 178.795ZM62.016 163.972L62.951 163.617L62.6358 162.786L61.7735 163.001L62.016 163.972ZM80.97 179.119L80.6299 180.059L81.5528 180.393L81.9039 179.476L80.97 179.119ZM85.83 164.458L86.7848 164.755L87.0824 163.799L86.1264 163.503L85.83 164.458ZM81.132 163L81.4284 162.045L80.3536 161.711L80.1487 162.818L81.132 163ZM77.163 177.742L76.2143 177.425L75.906 178.35L76.8229 178.682L77.163 177.742ZM96.603 143.56V142.56H95.603V143.56H96.603ZM118.878 143.56H119.878V142.56H118.878V143.56ZM118.878 153.118V154.118H119.878V153.118H118.878ZM96.603 153.118H95.603V154.118H96.603V153.118ZM118.878 129.304H119.878V128.304H118.878V129.304ZM118.878 138.295V139.295H119.878V138.295H118.878ZM96.603 138.295H95.603V139.295H96.603V138.295ZM96.603 129.304V128.304H95.603V129.304H96.603ZM123.738 161.785L124.438 161.071L123.709 160.356L123.01 161.099L123.738 161.785ZM113.37 170.776L112.447 171.16L112.943 172.351L113.973 171.573L113.37 170.776ZM109.401 158.383V157.383H108.132L108.429 158.617L109.401 158.383ZM124.629 158.383V159.383H125.629V158.383H124.629ZM124.629 123.877H125.629V122.877H124.629V123.877ZM90.933 123.877V122.877H89.933V123.877H90.933ZM90.933 186.328L91.1533 187.303L91.933 187.127V186.328H90.933ZM84.129 187.786L83.9329 186.805L82.8596 187.02L83.1701 188.069L84.129 187.786ZM85.83 193.537L84.8711 193.82L85.1373 194.72L86.0525 194.512L85.83 193.537ZM112.155 186.976L112.412 187.942L113.237 187.723L113.15 186.873L112.155 186.976ZM111.588 181.468L112.583 181.365L112.466 180.231L111.356 180.495L111.588 181.468ZM96.603 185.032H95.603V186.297L96.8339 186.005L96.603 185.032ZM96.603 158.383V157.383H95.603V158.383H96.603ZM103.974 158.383L104.952 158.172L104.781 157.383H103.974V158.383ZM126.006 194.59L125.523 195.465L126.381 195.938L126.871 195.091L126.006 194.59ZM129.975 189.568L130.634 190.32L131.774 189.322L130.408 188.666L129.975 189.568ZM115.638 175.312L115.083 174.48L114.311 174.994L114.767 175.803L115.638 175.312ZM127.869 165.835L128.542 166.574L129.325 165.861L128.569 165.121L127.869 165.835ZM87.0992 179.595L74.4632 182.025L74.8408 183.989L87.4768 181.559L87.0992 179.595ZM75.652 183.007V159.355H73.652V183.007H75.652ZM74.652 160.355H86.721V158.355H74.652V160.355ZM87.721 159.355V154.09H85.721V159.355H87.721ZM86.721 153.09H74.652V155.09H86.721V153.09ZM75.652 154.09V145.585H73.652V154.09H75.652ZM74.652 146.585H84.615V144.585H74.652V146.585ZM85.615 145.585V140.401H83.615V145.585H85.615ZM84.615 139.401H61.935V141.401H84.615V139.401ZM62.66 141.089C67.3477 136.155 70.795 130.981 73.3323 126.561L71.5977 125.566C69.113 129.894 65.7563 134.926 61.21 139.712L62.66 141.089ZM71.7904 126.802C76.4368 131.048 81.572 136.987 84.2016 140.732L85.8384 139.583C83.122 135.714 77.8892 129.666 73.1396 125.325L71.7904 126.802ZM85.7718 140.817L89.8218 136.2L88.3182 134.881L84.2682 139.498L85.7718 140.817ZM89.87 134.941C86.6487 130.646 80.1874 124.191 74.886 119.786L73.608 121.325C78.8366 125.669 85.1733 132.012 88.27 136.141L89.87 134.941ZM74.247 119.556H68.901V121.556H74.247V119.556ZM67.991 120.141C65.1214 126.438 59.9409 134.48 52.4773 140.514L53.7347 142.069C61.4991 135.792 66.8486 127.471 69.811 120.97L67.991 120.141ZM52.5248 142.105C53.5513 142.839 55.2609 144.618 56.1066 145.771L57.7194 144.588C56.7831 143.311 54.9287 141.365 53.6872 140.478L52.5248 142.105ZM57.5638 145.939C58.7179 144.95 59.8706 143.879 60.9411 142.809L59.5269 141.394C58.4914 142.43 57.3761 143.466 56.2622 144.42L57.5638 145.939ZM59.234 142.102V145.585H61.234V142.102H59.234ZM60.234 146.585H69.387V144.585H60.234V146.585ZM68.387 145.585V154.09H70.387V145.585H68.387ZM69.387 153.09H56.184V155.09H69.387V153.09ZM55.184 154.09V159.355H57.184V154.09H55.184ZM56.184 160.355H69.387V158.355H56.184V160.355ZM68.387 159.355V183.979H70.387V159.355H68.387ZM69.2107 182.994C63.7548 183.971 58.851 184.937 54.9666 185.584L55.2954 187.557C59.187 186.908 64.1652 185.93 69.5633 184.963L69.2107 182.994ZM54.1617 186.817L55.5387 192.244L57.4773 191.752L56.1003 186.325L54.1617 186.817ZM56.7041 192.978C65.1998 191.279 76.9588 189.008 87.903 186.657L87.483 184.702C76.5572 187.049 64.8262 189.314 56.3119 191.017L56.7041 192.978ZM88.6899 185.6L88.2849 180.497L86.2911 180.656L86.6961 185.759L88.6899 185.6ZM56.8619 165.36C58.5396 170.073 59.8906 176.135 60.1267 180.149L62.1233 180.032C61.8734 175.784 60.4704 169.534 58.7461 164.689L56.8619 165.36ZM61.3997 181.052L65.9357 179.756L65.3863 177.833L60.8503 179.129L61.3997 181.052ZM66.6558 178.693C66.2411 174.629 64.7607 168.388 62.951 163.617L61.081 164.326C62.8353 168.951 64.2709 175.022 64.6662 178.896L66.6558 178.693ZM61.7735 163.001L57.5615 164.054L58.0465 165.995L62.2585 164.942L61.7735 163.001ZM81.9039 179.476C83.3756 175.633 85.2486 169.687 86.7848 164.755L84.8752 164.16C83.3334 169.11 81.4804 174.99 80.0361 178.761L81.9039 179.476ZM86.1264 163.503L81.4284 162.045L80.8356 163.955L85.5336 165.413L86.1264 163.503ZM80.1487 162.818C79.3505 167.128 77.5031 173.559 76.2143 177.425L78.1117 178.058C79.4149 174.148 81.2935 167.62 82.1153 163.182L80.1487 162.818ZM76.8229 178.682L80.6299 180.059L81.3101 178.178L77.5031 176.801L76.8229 178.682ZM96.603 144.56H118.878V142.56H96.603V144.56ZM117.878 143.56V153.118H119.878V143.56H117.878ZM118.878 152.118H96.603V154.118H118.878V152.118ZM97.603 153.118V143.56H95.603V153.118H97.603ZM117.878 129.304V138.295H119.878V129.304H117.878ZM118.878 137.295H96.603V139.295H118.878V137.295ZM97.603 138.295V129.304H95.603V138.295H97.603ZM96.603 130.304H118.878V128.304H96.603V130.304ZM123.01 161.099C120.473 163.794 116.392 167.239 112.767 169.978L113.973 171.573C117.638 168.805 121.819 165.283 124.466 162.47L123.01 161.099ZM114.293 170.391C112.697 166.56 111.416 162.481 110.373 158.149L108.429 158.617C109.492 163.032 110.803 167.215 112.447 171.16L114.293 170.391ZM109.401 159.383H124.629V157.383H109.401V159.383ZM125.629 158.383V123.877H123.629V158.383H125.629ZM124.629 122.877H90.933V124.877H124.629V122.877ZM89.933 123.877V186.328H91.933V123.877H89.933ZM90.7127 185.352C88.2079 185.918 85.9481 186.402 83.9329 186.805L84.3251 188.766C86.3599 188.359 88.6361 187.871 91.1533 187.303L90.7127 185.352ZM83.1701 188.069L84.8711 193.82L86.7889 193.253L85.0879 187.502L83.1701 188.069ZM86.0525 194.512C93.5189 192.807 103.251 190.374 112.412 187.942L111.898 186.009C102.753 188.437 93.0451 190.864 85.6075 192.562L86.0525 194.512ZM113.15 186.873L112.583 181.365L110.593 181.57L111.16 187.078L113.15 186.873ZM111.356 180.495C106.253 181.71 101.151 182.925 96.3721 184.059L96.8339 186.005C101.613 184.87 106.717 183.655 111.82 182.44L111.356 180.495ZM97.603 185.032V158.383H95.603V185.032H97.603ZM96.603 159.383H103.974V157.383H96.603V159.383ZM102.996 158.593C106.582 175.219 113.399 188.776 125.523 195.465L126.489 193.714C115.123 187.443 108.494 174.594 104.952 158.172L102.996 158.593ZM126.871 195.091C127.727 193.614 129.444 191.361 130.634 190.32L129.316 188.815C127.914 190.042 126.067 192.488 125.141 194.089L126.871 195.091ZM130.408 188.666C124.564 185.861 120.001 181.011 116.509 174.82L114.767 175.803C118.403 182.248 123.236 187.442 129.542 190.469L130.408 188.666ZM116.193 176.144C120.114 173.529 124.854 169.935 128.542 166.574L127.196 165.095C123.594 168.376 118.938 171.91 115.083 174.48L116.193 176.144ZM128.569 165.121L124.438 161.071L123.038 162.499L127.169 166.549L128.569 165.121Z" fill="#B1941A"/>
</g>
</g>
<defs>
<filter id="filter0_d" x="0.98333" y="0" width="182.028" height="236" filterUnits="userSpaceOnUse" color-interpolation-filters="sRGB">
<feFlood flood-opacity="0" result="BackgroundImageFix"/>
<feColorMatrix in="SourceAlpha" type="matrix" values="0 0 0 0 0 0 0 0 0 0 0 0 0 0 0 0 0 0 127 0"/>
<feOffset dy="4"/>
<feGaussianBlur stdDeviation="2"/>
<feColorMatrix type="matrix" values="0 0 0 0 0 0 0 0 0 0 0 0 0 0 0 0 0 0 0.25 0"/>
<feBlend mode="normal" in2="BackgroundImageFix" result="effect1_dropShadow"/>
<feBlend mode="normal" in="SourceGraphic" in2="effect1_dropShadow" result="shape"/>
</filter>
<filter id="filter1_b" x="0.98333" y="-4" width="182.028" height="224.741" filterUnits="userSpaceOnUse" color-interpolation-filters="sRGB">
<feFlood flood-opacity="0" result="BackgroundImageFix"/>
<feGaussianBlur in="BackgroundImage" stdDeviation="2"/>
<feComposite in2="SourceAlpha" operator="in" result="effect1_backgroundBlur"/>
<feBlend mode="normal" in="SourceGraphic" in2="effect1_backgroundBlur" result="shape"/>
</filter>
<filter id="filter2_d" x="47.4545" y="27.6366" width="88.3197" height="176.302" filterUnits="userSpaceOnUse" color-interpolation-filters="sRGB">
<feFlood flood-opacity="0" result="BackgroundImageFix"/>
<feColorMatrix in="SourceAlpha" type="matrix" values="0 0 0 0 0 0 0 0 0 0 0 0 0 0 0 0 0 0 127 0"/>
<feOffset dy="4"/>
<feGaussianBlur stdDeviation="2"/>
<feColorMatrix type="matrix" values="0 0 0 0 0 0 0 0 0 0 0 0 0 0 0 0 0 0 0.25 0"/>
<feBlend mode="normal" in2="BackgroundImageFix" result="effect1_dropShadow"/>
<feBlend mode="normal" in="SourceGraphic" in2="effect1_dropShadow" result="shape"/>
</filter>
</defs>
</svg>
