<svg width="184" height="236" viewBox="0 0 184 236" fill="none" xmlns="http://www.w3.org/2000/svg">
<g filter="url(#filter0_d)">
<g filter="url(#filter1_b)">
<path d="M19.9 31.4897L92.4944 0L164.094 31.4897L179.011 216.741H4.98334L19.9 31.4897Z" fill="#524F48"/>
<path d="M5.52522 216.241L20.3743 31.829L92.4931 0.545613L163.62 31.8273L178.469 216.241H5.52522Z" stroke="#524F48"/>
</g>
<rect x="4.98334" y="216.741" width="174.028" height="11.2593" fill="#272624"/>
<g filter="url(#filter2_d)">
<path d="M72.222 53.0176C80.16 47.0236 86.964 40.3006 91.176 34.2256C95.874 40.5436 103.164 47.2666 111.102 53.0176H72.222ZM94.254 74.4826H122.037V69.2176H94.254V58.3636H111.588V53.3416C116.043 56.5816 120.66 59.4976 125.115 61.7656C126.087 59.9836 127.545 57.9586 129.003 56.4196C116.448 50.8306 102.435 39.9766 93.849 28.3936H87.855C81.537 38.5186 68.253 50.4256 54.321 57.4726C55.617 58.6876 57.318 60.7936 57.966 62.1706C62.583 59.7406 67.119 56.8246 71.331 53.7466V58.3636H88.017V69.2176H60.882V74.4826H88.017V94.4896H57.237V99.8356H125.925V94.4896H94.254V74.4826ZM67.605 78.5326C70.764 83.1496 73.923 89.3866 74.976 93.4366L80.16 91.1686C79.026 87.1186 75.786 81.1246 72.465 76.6696L67.605 78.5326ZM105.432 93.4366C108.51 89.6296 112.317 83.7976 115.314 78.6946L109.644 76.5076C107.619 81.0436 103.893 87.4426 100.977 91.4116L105.432 93.4366ZM68.496 147.124C66.957 142.588 62.907 135.865 59.1 130.762L54.24 133.111C57.966 138.214 61.773 145.342 63.312 149.878L68.496 147.124ZM69.63 163.729C63.636 167.374 57.48 170.938 53.43 173.206L56.427 179.2C60.477 176.527 65.094 173.449 69.63 170.209V194.347H75.381V120.556H69.63V163.729ZM119.526 120.475C109.887 123.553 92.796 126.307 77.973 128.089C78.702 129.304 79.512 131.41 79.674 132.868C94.659 131.248 112.236 128.656 123.819 125.173L119.526 120.475ZM105.999 147.124C105.594 143.317 103.974 137.323 102.03 132.625L96.765 133.921C98.547 138.619 100.086 144.775 100.41 148.582L105.999 147.124ZM91.905 149.959C91.014 145.99 88.584 139.915 85.911 135.379L80.97 136.999C83.4 141.778 85.749 148.015 86.559 151.903L91.905 149.959ZM85.263 170.29C89.475 174.664 93.93 180.82 95.793 184.87L100.977 181.792C98.952 177.742 94.254 171.829 90.123 167.698L85.263 170.29ZM128.436 158.788H117.42V152.389H113.613C117.906 147.367 123.009 140.482 126.978 134.326L121.47 131.572C118.149 137.89 112.074 146.152 107.538 151.417L111.507 153.685V158.788H78.702V164.377H111.507V187.057C111.507 188.272 111.183 188.515 109.806 188.596C108.51 188.677 103.974 188.677 98.952 188.515C99.843 190.216 100.734 192.727 100.977 194.347C107.295 194.347 111.588 194.266 114.099 193.375C116.691 192.403 117.42 190.621 117.42 187.138V164.377H128.436V158.788Z" fill="#B1941A"/>
<path d="M72.222 53.0176L71.6194 52.2196L69.2382 54.0176H72.222V53.0176ZM91.176 34.2256L91.9785 33.6289L91.1476 32.5115L90.3542 33.6558L91.176 34.2256ZM111.102 53.0176V54.0176H114.187L111.689 52.2078L111.102 53.0176ZM94.254 74.4826V73.4826H93.254V74.4826H94.254ZM122.037 74.4826V75.4826H123.037V74.4826H122.037ZM122.037 69.2176H123.037V68.2176H122.037V69.2176ZM94.254 69.2176H93.254V70.2176H94.254V69.2176ZM94.254 58.3636V57.3636H93.254V58.3636H94.254ZM111.588 58.3636V59.3636H112.588V58.3636H111.588ZM111.588 53.3416L112.176 52.5329L110.588 51.3778V53.3416H111.588ZM125.115 61.7656L124.661 62.6568L125.527 63.0977L125.993 62.2445L125.115 61.7656ZM129.003 56.4196L129.729 57.1074L130.701 56.081L129.41 55.506L129.003 56.4196ZM93.849 28.3936L94.6524 27.7981L94.3525 27.3936H93.849V28.3936ZM87.855 28.3936V27.3936H87.3003L87.0066 27.8642L87.855 28.3936ZM54.321 57.4726L53.8696 56.5803L52.5948 57.2251L53.6371 58.2021L54.321 57.4726ZM57.966 62.1706L57.0612 62.5964L57.5064 63.5425L58.4317 63.0555L57.966 62.1706ZM71.331 53.7466H72.331V51.7773L70.741 52.9392L71.331 53.7466ZM71.331 58.3636H70.331V59.3636H71.331V58.3636ZM88.017 58.3636H89.017V57.3636H88.017V58.3636ZM88.017 69.2176V70.2176H89.017V69.2176H88.017ZM60.882 69.2176V68.2176H59.882V69.2176H60.882ZM60.882 74.4826H59.882V75.4826H60.882V74.4826ZM88.017 74.4826H89.017V73.4826H88.017V74.4826ZM88.017 94.4896V95.4896H89.017V94.4896H88.017ZM57.237 94.4896V93.4896H56.237V94.4896H57.237ZM57.237 99.8356H56.237V100.836H57.237V99.8356ZM125.925 99.8356V100.836H126.925V99.8356H125.925ZM125.925 94.4896H126.925V93.4896H125.925V94.4896ZM94.254 94.4896H93.254V95.4896H94.254V94.4896ZM67.605 78.5326L67.2471 77.5989L66.0646 78.0521L66.7797 79.0973L67.605 78.5326ZM74.976 93.4366L74.0082 93.6882L74.3031 94.8225L75.3768 94.3528L74.976 93.4366ZM80.16 91.1686L80.5608 92.0848L81.3574 91.7363L81.123 90.899L80.16 91.1686ZM72.465 76.6696L73.2667 76.0719L72.8142 75.4648L72.1071 75.7359L72.465 76.6696ZM105.432 93.4366L105.018 94.347L105.723 94.6673L106.21 94.0653L105.432 93.4366ZM115.314 78.6946L116.176 79.201L116.773 78.1855L115.674 77.7616L115.314 78.6946ZM109.644 76.5076L110.004 75.5746L109.118 75.2329L108.731 76.1L109.644 76.5076ZM100.977 91.4116L100.171 90.8195L99.4418 91.8122L100.563 92.322L100.977 91.4116ZM72.8246 53.8156C80.8183 47.7796 87.7076 40.9832 91.9978 34.7954L90.3542 33.6558C86.2204 39.618 79.5017 46.2676 71.6194 52.2196L72.8246 53.8156ZM90.3735 34.8223C95.1514 41.2477 102.526 48.0391 110.515 53.8274L111.689 52.2078C103.802 46.4941 96.5966 39.8395 91.9785 33.6289L90.3735 34.8223ZM111.102 52.0176H72.222V54.0176H111.102V52.0176ZM94.254 75.4826H122.037V73.4826H94.254V75.4826ZM123.037 74.4826V69.2176H121.037V74.4826H123.037ZM122.037 68.2176H94.254V70.2176H122.037V68.2176ZM95.254 69.2176V58.3636H93.254V69.2176H95.254ZM94.254 59.3636H111.588V57.3636H94.254V59.3636ZM112.588 58.3636V53.3416H110.588V58.3636H112.588ZM111 54.1503C115.487 57.414 120.15 60.3599 124.661 62.6568L125.569 60.8744C121.17 58.6354 116.599 55.7492 112.176 52.5329L111 54.1503ZM125.993 62.2445C126.924 60.5367 128.332 58.5822 129.729 57.1074L128.277 55.7319C126.758 57.335 125.25 59.4305 124.237 61.2868L125.993 62.2445ZM129.41 55.506C117.003 49.9833 103.13 39.2353 94.6524 27.7981L93.0456 28.9891C101.74 40.7179 115.893 51.6779 128.596 57.3332L129.41 55.506ZM93.849 27.3936H87.855V29.3936H93.849V27.3936ZM87.0066 27.8642C80.8005 37.8099 67.6663 49.6017 53.8696 56.5803L54.7724 58.3649C68.8398 51.2495 82.2735 39.2273 88.7034 28.923L87.0066 27.8642ZM53.6371 58.2021C54.8814 59.3687 56.4864 61.375 57.0612 62.5964L58.8708 61.7448C58.1496 60.2123 56.3526 58.0065 55.0049 56.7431L53.6371 58.2021ZM58.4317 63.0555C63.0998 60.5987 67.6773 57.6551 71.921 54.554L70.741 52.9392C66.5607 55.9941 62.0662 58.8825 57.5003 61.2857L58.4317 63.0555ZM70.331 53.7466V58.3636H72.331V53.7466H70.331ZM71.331 59.3636H88.017V57.3636H71.331V59.3636ZM87.017 58.3636V69.2176H89.017V58.3636H87.017ZM88.017 68.2176H60.882V70.2176H88.017V68.2176ZM59.882 69.2176V74.4826H61.882V69.2176H59.882ZM60.882 75.4826H88.017V73.4826H60.882V75.4826ZM87.017 74.4826V94.4896H89.017V74.4826H87.017ZM88.017 93.4896H57.237V95.4896H88.017V93.4896ZM56.237 94.4896V99.8356H58.237V94.4896H56.237ZM57.237 100.836H125.925V98.8356H57.237V100.836ZM126.925 99.8356V94.4896H124.925V99.8356H126.925ZM125.925 93.4896H94.254V95.4896H125.925V93.4896ZM95.254 94.4896V74.4826H93.254V94.4896H95.254ZM66.7797 79.0973C69.9028 83.6618 72.9949 89.7912 74.0082 93.6882L75.9438 93.185C74.8511 88.982 71.6252 82.6374 68.4303 77.9679L66.7797 79.0973ZM75.3768 94.3528L80.5608 92.0848L79.7592 90.2524L74.5752 92.5204L75.3768 94.3528ZM81.123 90.899C79.9447 86.691 76.6317 80.5859 73.2667 76.0719L71.6633 77.2673C74.9403 81.6633 78.1073 87.5462 79.197 91.4382L81.123 90.899ZM72.1071 75.7359L67.2471 77.5989L67.9629 79.4664L72.8229 77.6034L72.1071 75.7359ZM106.21 94.0653C109.332 90.203 113.168 84.323 116.176 79.201L114.452 78.1882C111.466 83.2722 107.688 89.0562 104.654 92.8079L106.21 94.0653ZM115.674 77.7616L110.004 75.5746L109.284 77.4406L114.954 79.6276L115.674 77.7616ZM108.731 76.1C106.735 80.5707 103.045 86.9079 100.171 90.8195L101.783 92.0037C104.741 87.9774 108.503 81.5165 110.557 76.9153L108.731 76.1ZM100.563 92.322L105.018 94.347L105.846 92.5262L101.391 90.5012L100.563 92.322ZM68.496 147.124L68.9652 148.007L69.7162 147.608L69.443 146.802L68.496 147.124ZM59.1 130.762L59.9015 130.164L59.408 129.502L58.6648 129.861L59.1 130.762ZM54.24 133.111L53.8048 132.21L52.7254 132.732L53.4324 133.7L54.24 133.111ZM63.312 149.878L62.365 150.199L62.7428 151.312L63.7812 150.761L63.312 149.878ZM69.63 163.729L70.1496 164.583L70.63 164.291V163.729H69.63ZM53.43 173.206L52.9414 172.333L52.1088 172.799L52.5356 173.653L53.43 173.206ZM56.427 179.2L55.5326 179.647L56.0368 180.655L56.9778 180.034L56.427 179.2ZM69.63 170.209H70.63V168.265L69.0488 169.395L69.63 170.209ZM69.63 194.347H68.63V195.347H69.63V194.347ZM75.381 194.347V195.347H76.381V194.347H75.381ZM75.381 120.556H76.381V119.556H75.381V120.556ZM69.63 120.556V119.556H68.63V120.556H69.63ZM119.526 120.475L120.264 119.8L119.832 119.327L119.222 119.522L119.526 120.475ZM77.973 128.089L77.8536 127.096L76.3216 127.28L77.1155 128.603L77.973 128.089ZM79.674 132.868L78.6801 132.978L78.7902 133.969L79.7815 133.862L79.674 132.868ZM123.819 125.173L124.107 126.13L125.63 125.672L124.557 124.498L123.819 125.173ZM105.999 147.124L106.251 148.091L107.084 147.874L106.993 147.018L105.999 147.124ZM102.03 132.625L102.954 132.242L102.625 131.448L101.791 131.654L102.03 132.625ZM96.765 133.921L96.526 132.95L95.4295 133.219L95.83 134.275L96.765 133.921ZM100.41 148.582L99.4136 148.666L99.5142 149.849L100.662 149.549L100.41 148.582ZM91.905 149.959L92.2467 150.898L93.0734 150.598L92.8807 149.74L91.905 149.959ZM85.911 135.379L86.7725 134.871L86.364 134.178L85.5995 134.428L85.911 135.379ZM80.97 136.999L80.6584 136.048L79.5498 136.412L80.0786 137.452L80.97 136.999ZM86.559 151.903L85.58 152.107L85.8155 153.237L86.9007 152.842L86.559 151.903ZM85.263 170.29L84.7924 169.407L83.6247 170.03L84.5427 170.983L85.263 170.29ZM95.793 184.87L94.8845 185.288L95.3486 186.296L96.3035 185.729L95.793 184.87ZM100.977 181.792L101.488 182.651L102.287 182.176L101.871 181.344L100.977 181.792ZM90.123 167.698L90.8301 166.99L90.3062 166.467L89.6524 166.815L90.123 167.698ZM128.436 158.788H129.436V157.788H128.436V158.788ZM117.42 158.788H116.42V159.788H117.42V158.788ZM117.42 152.389H118.42V151.389H117.42V152.389ZM113.613 152.389L112.853 151.739L111.443 153.389H113.613V152.389ZM126.978 134.326L127.818 134.867L128.423 133.93L127.425 133.431L126.978 134.326ZM121.47 131.572L121.917 130.677L121.041 130.239L120.585 131.106L121.47 131.572ZM107.538 151.417L106.78 150.764L105.989 151.683L107.042 152.285L107.538 151.417ZM111.507 153.685H112.507V153.104L112.003 152.816L111.507 153.685ZM111.507 158.788V159.788H112.507V158.788H111.507ZM78.702 158.788V157.788H77.702V158.788H78.702ZM78.702 164.377H77.702V165.377H78.702V164.377ZM111.507 164.377H112.507V163.377H111.507V164.377ZM109.806 188.596L109.747 187.597L109.744 187.598L109.806 188.596ZM98.952 188.515L98.9842 187.515L97.2706 187.46L98.0662 188.979L98.952 188.515ZM100.977 194.347L99.9881 194.495L100.116 195.347H100.977V194.347ZM114.099 193.375L114.433 194.317L114.442 194.314L114.45 194.311L114.099 193.375ZM117.42 164.377V163.377H116.42V164.377H117.42ZM128.436 164.377V165.377H129.436V164.377H128.436ZM69.443 146.802C67.8541 142.119 63.7314 135.297 59.9015 130.164L58.2985 131.36C62.0826 136.432 66.0599 143.056 67.549 147.445L69.443 146.802ZM58.6648 129.861L53.8048 132.21L54.6752 134.011L59.5352 131.662L58.6648 129.861ZM53.4324 133.7C57.1115 138.739 60.865 145.778 62.365 150.199L64.259 149.556C62.681 144.906 58.8205 137.688 55.0476 132.521L53.4324 133.7ZM63.7812 150.761L68.9652 148.007L68.0268 146.24L62.8428 148.994L63.7812 150.761ZM69.1104 162.874C63.127 166.513 56.9814 170.071 52.9414 172.333L53.9186 174.078C57.9786 171.804 64.145 168.234 70.1496 164.583L69.1104 162.874ZM52.5356 173.653L55.5326 179.647L57.3214 178.752L54.3244 172.758L52.5356 173.653ZM56.9778 180.034C61.0296 177.36 65.6594 174.274 70.2112 171.022L69.0488 169.395C64.5286 172.624 59.9244 175.693 55.8762 178.365L56.9778 180.034ZM68.63 170.209V194.347H70.63V170.209H68.63ZM69.63 195.347H75.381V193.347H69.63V195.347ZM76.381 194.347V120.556H74.381V194.347H76.381ZM75.381 119.556H69.63V121.556H75.381V119.556ZM68.63 120.556V163.729H70.63V120.556H68.63ZM119.222 119.522C109.683 122.568 92.6771 125.314 77.8536 127.096L78.0924 129.081C92.9149 127.3 110.091 124.537 119.83 121.427L119.222 119.522ZM77.1155 128.603C77.7884 129.725 78.5374 131.694 78.6801 132.978L80.6679 132.757C80.4866 131.125 79.6156 128.883 78.8305 127.574L77.1155 128.603ZM79.7815 133.862C94.7727 132.241 112.429 129.642 124.107 126.13L123.531 124.215C112.043 127.669 94.5453 130.254 79.5665 131.873L79.7815 133.862ZM124.557 124.498L120.264 119.8L118.788 121.149L123.081 125.847L124.557 124.498ZM106.993 147.018C106.576 143.094 104.925 137.006 102.954 132.242L101.106 133.007C103.023 137.639 104.612 143.539 105.005 147.229L106.993 147.018ZM101.791 131.654L96.526 132.95L97.004 134.892L102.269 133.596L101.791 131.654ZM95.83 134.275C97.5895 138.914 99.0996 144.977 99.4136 148.666L101.406 148.497C101.072 144.572 99.5045 138.323 97.7 133.566L95.83 134.275ZM100.662 149.549L106.251 148.091L105.747 146.156L100.158 147.614L100.662 149.549ZM92.8807 149.74C91.9639 145.656 89.4909 139.484 86.7725 134.871L85.0495 135.886C87.6771 140.345 90.0641 146.324 90.9293 150.178L92.8807 149.74ZM85.5995 134.428L80.6584 136.048L81.2816 137.949L86.2226 136.329L85.5995 134.428ZM80.0786 137.452C82.4825 142.18 84.7934 148.331 85.58 152.107L87.538 151.699C86.7046 147.698 84.3175 141.376 81.8614 136.545L80.0786 137.452ZM86.9007 152.842L92.2467 150.898L91.5633 149.019L86.2173 150.963L86.9007 152.842ZM84.5427 170.983C88.7042 175.305 93.0824 181.37 94.8845 185.288L96.7015 184.452C94.7777 180.269 90.2458 174.022 85.9833 169.596L84.5427 170.983ZM96.3035 185.729L101.488 182.651L100.466 180.932L95.2825 184.01L96.3035 185.729ZM101.871 181.344C99.7789 177.159 94.9986 171.159 90.8301 166.99L89.4159 168.405C93.5094 172.498 98.1251 178.324 100.083 182.239L101.871 181.344ZM89.6524 166.815L84.7924 169.407L85.7336 171.172L90.5936 168.58L89.6524 166.815ZM128.436 157.788H117.42V159.788H128.436V157.788ZM118.42 158.788V152.389H116.42V158.788H118.42ZM117.42 151.389H113.613V153.389H117.42V151.389ZM114.373 153.038C118.698 147.98 123.827 141.058 127.818 134.867L126.138 133.784C122.191 139.905 117.114 146.754 112.853 151.739L114.373 153.038ZM127.425 133.431L121.917 130.677L121.023 132.466L126.531 135.22L127.425 133.431ZM120.585 131.106C117.311 137.335 111.287 145.533 106.78 150.764L108.296 152.069C112.861 146.77 118.987 138.445 122.355 132.037L120.585 131.106ZM107.042 152.285L111.011 154.553L112.003 152.816L108.034 150.548L107.042 152.285ZM110.507 153.685V158.788H112.507V153.685H110.507ZM111.507 157.788H78.702V159.788H111.507V157.788ZM77.702 158.788V164.377H79.702V158.788H77.702ZM78.702 165.377H111.507V163.377H78.702V165.377ZM110.507 164.377V187.057H112.507V164.377H110.507ZM110.507 187.057C110.507 187.329 110.487 187.471 110.469 187.541C110.455 187.59 110.459 187.548 110.512 187.501C110.553 187.465 110.556 187.487 110.422 187.519C110.284 187.551 110.076 187.578 109.747 187.597L109.865 189.594C110.225 189.573 110.573 189.538 110.884 189.465C111.198 189.39 111.54 189.26 111.834 189.002C112.449 188.46 112.507 187.668 112.507 187.057H110.507ZM109.744 187.598C108.5 187.675 104.008 187.677 98.9842 187.515L98.9198 189.514C103.94 189.676 108.52 189.678 109.868 189.594L109.744 187.598ZM98.0662 188.979C98.9191 190.607 99.7655 193.011 99.9881 194.495L101.966 194.198C101.703 192.442 100.767 189.824 99.8378 188.051L98.0662 188.979ZM100.977 195.347C104.133 195.347 106.815 195.327 109.026 195.193C111.224 195.06 113.04 194.811 114.433 194.317L113.765 192.432C112.647 192.829 111.061 193.066 108.905 193.197C106.763 193.326 104.139 193.347 100.977 193.347V195.347ZM114.45 194.311C115.925 193.758 116.98 192.923 117.624 191.649C118.239 190.431 118.42 188.92 118.42 187.138H116.42C116.42 188.838 116.236 189.96 115.839 190.747C115.47 191.477 114.865 192.019 113.748 192.438L114.45 194.311ZM118.42 187.138V164.377H116.42V187.138H118.42ZM117.42 165.377H128.436V163.377H117.42V165.377ZM129.436 164.377V158.788H127.436V164.377H129.436Z" fill="#B1941A"/>
</g>
</g>
<defs>
<filter id="filter0_d" x="0.983337" y="0" width="182.028" height="236" filterUnits="userSpaceOnUse" color-interpolation-filters="sRGB">
<feFlood flood-opacity="0" result="BackgroundImageFix"/>
<feColorMatrix in="SourceAlpha" type="matrix" values="0 0 0 0 0 0 0 0 0 0 0 0 0 0 0 0 0 0 127 0"/>
<feOffset dy="4"/>
<feGaussianBlur stdDeviation="2"/>
<feColorMatrix type="matrix" values="0 0 0 0 0 0 0 0 0 0 0 0 0 0 0 0 0 0 0.25 0"/>
<feBlend mode="normal" in2="BackgroundImageFix" result="effect1_dropShadow"/>
<feBlend mode="normal" in="SourceGraphic" in2="effect1_dropShadow" result="shape"/>
</filter>
<filter id="filter1_b" x="0.983337" y="-4" width="182.028" height="224.741" filterUnits="userSpaceOnUse" color-interpolation-filters="sRGB">
<feFlood flood-opacity="0" result="BackgroundImageFix"/>
<feGaussianBlur in="BackgroundImage" stdDeviation="2"/>
<feComposite in2="SourceAlpha" operator="in" result="effect1_backgroundBlur"/>
<feBlend mode="normal" in="SourceGraphic" in2="effect1_backgroundBlur" result="shape"/>
</filter>
<filter id="filter2_d" x="48.1088" y="27.3936" width="86.5925" height="175.953" filterUnits="userSpaceOnUse" color-interpolation-filters="sRGB">
<feFlood flood-opacity="0" result="BackgroundImageFix"/>
<feColorMatrix in="SourceAlpha" type="matrix" values="0 0 0 0 0 0 0 0 0 0 0 0 0 0 0 0 0 0 127 0"/>
<feOffset dy="4"/>
<feGaussianBlur stdDeviation="2"/>
<feColorMatrix type="matrix" values="0 0 0 0 0 0 0 0 0 0 0 0 0 0 0 0 0 0 0.25 0"/>
<feBlend mode="normal" in2="BackgroundImageFix" result="effect1_dropShadow"/>
<feBlend mode="normal" in="SourceGraphic" in2="effect1_dropShadow" result="shape"/>
</filter>
</defs>
</svg>
