<svg width="184" height="236" viewBox="0 0 184 236" fill="none" xmlns="http://www.w3.org/2000/svg">
<g filter="url(#filter0_d)">
<g filter="url(#filter1_b)">
<path d="M19.9 31.4897L92.4944 0L164.094 31.4897L179.011 216.741H4.98334L19.9 31.4897Z" fill="#524F48"/>
<path d="M5.52522 216.241L20.3743 31.829L92.4931 0.545613L163.62 31.8273L178.469 216.241H5.52522Z" stroke="#524F48"/>
</g>
<rect x="4.98334" y="216.741" width="174.028" height="11.2593" fill="#272624"/>
<g filter="url(#filter2_d)">
<path d="M101.22 56.8246H81.699V62.4946H127.626V56.8246H107.214V44.9986H123.738V39.4906H107.214V28.9606H101.22V39.4906H84.534V44.9986H101.22V56.8246ZM81.456 67.2736C80.079 65.0866 74.166 56.0146 72.06 53.0986V49.6966H81.78V44.0266H72.06V28.4746H66.471V44.0266H55.941V49.6966H65.904C63.393 60.7126 58.29 73.4296 53.106 80.2336C54.159 81.6916 55.698 84.2836 56.346 86.0656C60.072 80.6386 63.717 71.9716 66.471 62.9806V102.428H72.06V60.4696C74.247 64.4386 76.677 69.1366 77.811 71.5666L81.456 67.2736ZM107.214 93.6796V80.3956H124.953V74.8066H107.214V65.4916H101.22V74.8066H83.238V80.3956H101.22V93.6796H77.811V99.4306H128.517V93.6796H107.214ZM59.1 193.699C64.608 189.082 67.119 181.144 68.658 173.611L63.312 172.153C62.097 179.2 59.262 186.328 54.24 190.621L59.1 193.699ZM74.895 174.907C76.272 180.091 77.325 186.652 77.406 191.026L82.752 190.135C82.59 185.761 81.537 179.2 80.079 174.097L74.895 174.907ZM88.827 174.421C90.933 179.038 92.958 185.194 93.525 188.92L98.547 187.462C97.899 183.736 95.793 177.742 93.444 173.368L88.827 174.421ZM70.521 155.467H89.394V163.405H70.521V155.467ZM89.394 129.79V137.728H70.521V129.79H89.394ZM89.394 150.526H70.521V142.588H89.394V150.526ZM95.307 163.405V155.467H118.473V150.526H95.307V142.588H118.473V137.728H95.307V129.79H121.227V124.444H64.689V168.751H119.931C119.04 181.63 117.987 186.733 116.529 188.353C115.881 189.001 115.071 189.163 113.613 189.163C112.236 189.163 108.429 189.163 104.46 188.677C105.351 190.216 105.918 192.646 106.08 194.185C110.211 194.509 114.261 194.509 116.367 194.347C118.635 194.185 120.174 193.618 121.551 192.079C123.819 189.568 125.034 182.926 126.087 165.997C126.249 165.187 126.33 163.405 126.33 163.405H95.307ZM113.289 182.278C112.074 179.362 109.077 174.745 106.161 171.424L101.787 173.206C104.541 176.608 107.457 181.387 108.672 184.384L113.289 182.278Z" fill="#B1941A"/>
<path d="M101.22 56.8246V57.8246H102.22V56.8246H101.22ZM81.699 56.8246V55.8246H80.699V56.8246H81.699ZM81.699 62.4946H80.699V63.4946H81.699V62.4946ZM127.626 62.4946V63.4946H128.626V62.4946H127.626ZM127.626 56.8246H128.626V55.8246H127.626V56.8246ZM107.214 56.8246H106.214V57.8246H107.214V56.8246ZM107.214 44.9986V43.9986H106.214V44.9986H107.214ZM123.738 44.9986V45.9986H124.738V44.9986H123.738ZM123.738 39.4906H124.738V38.4906H123.738V39.4906ZM107.214 39.4906H106.214V40.4906H107.214V39.4906ZM107.214 28.9606H108.214V27.9606H107.214V28.9606ZM101.22 28.9606V27.9606H100.22V28.9606H101.22ZM101.22 39.4906V40.4906H102.22V39.4906H101.22ZM84.534 39.4906V38.4906H83.534V39.4906H84.534ZM84.534 44.9986H83.534V45.9986H84.534V44.9986ZM101.22 44.9986H102.22V43.9986H101.22V44.9986ZM81.456 67.2736L82.2183 67.9208L82.6931 67.3616L82.3022 66.7408L81.456 67.2736ZM72.06 53.0986H71.06V53.422L71.2493 53.6841L72.06 53.0986ZM72.06 49.6966V48.6966H71.06V49.6966H72.06ZM81.78 49.6966V50.6966H82.78V49.6966H81.78ZM81.78 44.0266H82.78V43.0266H81.78V44.0266ZM72.06 44.0266H71.06V45.0266H72.06V44.0266ZM72.06 28.4746H73.06V27.4746H72.06V28.4746ZM66.471 28.4746V27.4746H65.471V28.4746H66.471ZM66.471 44.0266V45.0266H67.471V44.0266H66.471ZM55.941 44.0266V43.0266H54.941V44.0266H55.941ZM55.941 49.6966H54.941V50.6966H55.941V49.6966ZM65.904 49.6966L66.879 49.9188L67.1576 48.6966H65.904V49.6966ZM53.106 80.2336L52.3106 79.6276L51.861 80.2177L52.2953 80.8191L53.106 80.2336ZM56.346 86.0656L55.4062 86.4073L56.0704 88.2338L57.1704 86.6316L56.346 86.0656ZM66.471 62.9806H67.471L65.5149 62.6877L66.471 62.9806ZM66.471 102.428H65.471V103.428H66.471V102.428ZM72.06 102.428V103.428H73.06V102.428H72.06ZM72.06 60.4696L72.9358 59.987L71.06 60.4696H72.06ZM77.811 71.5666L76.9048 71.9895L77.5642 73.4024L78.5733 72.2138L77.811 71.5666ZM107.214 93.6796H106.214V94.6796H107.214V93.6796ZM107.214 80.3956V79.3956H106.214V80.3956H107.214ZM124.953 80.3956V81.3956H125.953V80.3956H124.953ZM124.953 74.8066H125.953V73.8066H124.953V74.8066ZM107.214 74.8066H106.214V75.8066H107.214V74.8066ZM107.214 65.4916H108.214V64.4916H107.214V65.4916ZM101.22 65.4916V64.4916H100.22V65.4916H101.22ZM101.22 74.8066V75.8066H102.22V74.8066H101.22ZM83.238 74.8066V73.8066H82.238V74.8066H83.238ZM83.238 80.3956H82.238V81.3956H83.238V80.3956ZM101.22 80.3956H102.22V79.3956H101.22V80.3956ZM101.22 93.6796V94.6796H102.22V93.6796H101.22ZM77.811 93.6796V92.6796H76.811V93.6796H77.811ZM77.811 99.4306H76.811V100.431H77.811V99.4306ZM128.517 99.4306V100.431H129.517V99.4306H128.517ZM128.517 93.6796H129.517V92.6796H128.517V93.6796ZM101.22 55.8246H81.699V57.8246H101.22V55.8246ZM80.699 56.8246V62.4946H82.699V56.8246H80.699ZM81.699 63.4946H127.626V61.4946H81.699V63.4946ZM128.626 62.4946V56.8246H126.626V62.4946H128.626ZM127.626 55.8246H107.214V57.8246H127.626V55.8246ZM108.214 56.8246V44.9986H106.214V56.8246H108.214ZM107.214 45.9986H123.738V43.9986H107.214V45.9986ZM124.738 44.9986V39.4906H122.738V44.9986H124.738ZM123.738 38.4906H107.214V40.4906H123.738V38.4906ZM108.214 39.4906V28.9606H106.214V39.4906H108.214ZM107.214 27.9606H101.22V29.9606H107.214V27.9606ZM100.22 28.9606V39.4906H102.22V28.9606H100.22ZM101.22 38.4906H84.534V40.4906H101.22V38.4906ZM83.534 39.4906V44.9986H85.534V39.4906H83.534ZM84.534 45.9986H101.22V43.9986H84.534V45.9986ZM100.22 44.9986V56.8246H102.22V44.9986H100.22ZM82.3022 66.7408C80.9235 64.551 74.9964 55.4564 72.8707 52.5131L71.2493 53.6841C73.3356 56.5728 79.2346 65.6222 80.6098 67.8064L82.3022 66.7408ZM73.06 53.0986V49.6966H71.06V53.0986H73.06ZM72.06 50.6966H81.78V48.6966H72.06V50.6966ZM82.78 49.6966V44.0266H80.78V49.6966H82.78ZM81.78 43.0266H72.06V45.0266H81.78V43.0266ZM73.06 44.0266V28.4746H71.06V44.0266H73.06ZM72.06 27.4746H66.471V29.4746H72.06V27.4746ZM65.471 28.4746V44.0266H67.471V28.4746H65.471ZM66.471 43.0266H55.941V45.0266H66.471V43.0266ZM54.941 44.0266V49.6966H56.941V44.0266H54.941ZM55.941 50.6966H65.904V48.6966H55.941V50.6966ZM64.929 49.4744C62.4346 60.4174 57.3745 72.9811 52.3106 79.6276L53.9014 80.8396C59.2055 73.8781 64.3514 61.0078 66.879 49.9188L64.929 49.4744ZM52.2953 80.8191C53.3194 82.237 54.8017 84.7449 55.4062 86.4073L57.2858 85.7239C56.5943 83.8223 54.9986 81.1462 53.9167 79.6481L52.2953 80.8191ZM57.1704 86.6316C60.9806 81.0819 64.6614 72.303 67.4272 63.2735L65.5149 62.6877C62.7726 71.6402 59.1634 80.1953 55.5216 85.4996L57.1704 86.6316ZM65.471 62.9806V102.428H67.471V62.9806H65.471ZM66.471 103.428H72.06V101.428H66.471V103.428ZM73.06 102.428V60.4696H71.06V102.428H73.06ZM71.1842 60.9522C73.366 64.9118 75.7841 69.588 76.9048 71.9895L78.7172 71.1437C77.5699 68.6852 75.128 63.9654 72.9358 59.987L71.1842 60.9522ZM78.5733 72.2138L82.2183 67.9208L80.6937 66.6264L77.0487 70.9194L78.5733 72.2138ZM108.214 93.6796V80.3956H106.214V93.6796H108.214ZM107.214 81.3956H124.953V79.3956H107.214V81.3956ZM125.953 80.3956V74.8066H123.953V80.3956H125.953ZM124.953 73.8066H107.214V75.8066H124.953V73.8066ZM108.214 74.8066V65.4916H106.214V74.8066H108.214ZM107.214 64.4916H101.22V66.4916H107.214V64.4916ZM100.22 65.4916V74.8066H102.22V65.4916H100.22ZM101.22 73.8066H83.238V75.8066H101.22V73.8066ZM82.238 74.8066V80.3956H84.238V74.8066H82.238ZM83.238 81.3956H101.22V79.3956H83.238V81.3956ZM100.22 80.3956V93.6796H102.22V80.3956H100.22ZM101.22 92.6796H77.811V94.6796H101.22V92.6796ZM76.811 93.6796V99.4306H78.811V93.6796H76.811ZM77.811 100.431H128.517V98.4306H77.811V100.431ZM129.517 99.4306V93.6796H127.517V99.4306H129.517ZM128.517 92.6796H107.214V94.6796H128.517V92.6796ZM59.1 193.699L58.5649 194.543L59.1823 194.934L59.7424 194.465L59.1 193.699ZM68.658 173.611L69.6378 173.811L69.8254 172.892L68.9211 172.646L68.658 173.611ZM63.312 172.153L63.5751 171.188L62.5135 170.898L62.3265 171.983L63.312 172.153ZM54.24 190.621L53.5902 189.86L52.5606 190.741L53.7049 191.465L54.24 190.621ZM74.895 174.907L74.7406 173.919L73.6434 174.09L73.9285 175.163L74.895 174.907ZM77.406 191.026L76.4062 191.044L76.4276 192.202L77.5704 192.012L77.406 191.026ZM82.752 190.135L82.9164 191.121L83.7839 190.976L83.7513 190.098L82.752 190.135ZM80.079 174.097L81.0405 173.822L80.7978 172.972L79.9246 173.109L80.079 174.097ZM88.827 174.421L88.6046 173.446L87.4077 173.719L87.9172 174.836L88.827 174.421ZM93.525 188.92L92.5364 189.07L92.708 190.198L93.8038 189.88L93.525 188.92ZM98.547 187.462L98.8258 188.422L99.6856 188.172L99.5322 187.29L98.547 187.462ZM93.444 173.368L94.325 172.894L93.9645 172.223L93.2216 172.393L93.444 173.368ZM70.521 155.467V154.467H69.521V155.467H70.521ZM89.394 155.467H90.394V154.467H89.394V155.467ZM89.394 163.405V164.405H90.394V163.405H89.394ZM70.521 163.405H69.521V164.405H70.521V163.405ZM89.394 129.79H90.394V128.79H89.394V129.79ZM89.394 137.728V138.728H90.394V137.728H89.394ZM70.521 137.728H69.521V138.728H70.521V137.728ZM70.521 129.79V128.79H69.521V129.79H70.521ZM89.394 150.526V151.526H90.394V150.526H89.394ZM70.521 150.526H69.521V151.526H70.521V150.526ZM70.521 142.588V141.588H69.521V142.588H70.521ZM89.394 142.588H90.394V141.588H89.394V142.588ZM95.307 163.405H94.307V164.405H95.307V163.405ZM95.307 155.467V154.467H94.307V155.467H95.307ZM118.473 155.467V156.467H119.473V155.467H118.473ZM118.473 150.526H119.473V149.526H118.473V150.526ZM95.307 150.526H94.307V151.526H95.307V150.526ZM95.307 142.588V141.588H94.307V142.588H95.307ZM118.473 142.588V143.588H119.473V142.588H118.473ZM118.473 137.728H119.473V136.728H118.473V137.728ZM95.307 137.728H94.307V138.728H95.307V137.728ZM95.307 129.79V128.79H94.307V129.79H95.307ZM121.227 129.79V130.79H122.227V129.79H121.227ZM121.227 124.444H122.227V123.444H121.227V124.444ZM64.689 124.444V123.444H63.689V124.444H64.689ZM64.689 168.751H63.689V169.751H64.689V168.751ZM119.931 168.751L120.929 168.82L121.003 167.751H119.931V168.751ZM116.529 188.353L117.236 189.06L117.255 189.041L117.272 189.022L116.529 188.353ZM104.46 188.677L104.582 187.684L102.589 187.44L103.595 189.178L104.46 188.677ZM106.08 194.185L105.085 194.289L105.173 195.117L106.002 195.182L106.08 194.185ZM116.367 194.347L116.296 193.349L116.29 193.35L116.367 194.347ZM121.551 192.079L120.809 191.408L120.806 191.412L121.551 192.079ZM126.087 165.997L125.106 165.8L125.093 165.867L125.089 165.935L126.087 165.997ZM126.33 163.405L127.329 163.45L127.376 162.405H126.33V163.405ZM113.289 182.278L113.704 183.187L114.584 182.786L114.212 181.893L113.289 182.278ZM106.161 171.424L106.912 170.764L106.443 170.229L105.784 170.498L106.161 171.424ZM101.787 173.206L101.41 172.28L100.162 172.788L101.01 173.835L101.787 173.206ZM108.672 184.384L107.745 184.759L108.137 185.727L109.087 185.293L108.672 184.384ZM59.7424 194.465C65.5382 189.607 68.0973 181.351 69.6378 173.811L67.6782 173.41C66.1407 180.936 63.6778 188.556 58.4576 192.932L59.7424 194.465ZM68.9211 172.646L63.5751 171.188L63.0489 173.117L68.3949 174.575L68.9211 172.646ZM62.3265 171.983C61.1293 178.927 58.3569 185.786 53.5902 189.86L54.8898 191.381C60.1671 186.87 63.0647 179.472 64.2975 172.323L62.3265 171.983ZM53.7049 191.465L58.5649 194.543L59.6351 192.854L54.7751 189.776L53.7049 191.465ZM73.9285 175.163C75.291 180.293 76.3271 186.772 76.4062 191.044L78.4058 191.007C78.323 186.532 77.253 179.888 75.8615 174.65L73.9285 175.163ZM77.5704 192.012L82.9164 191.121L82.5876 189.148L77.2416 190.039L77.5704 192.012ZM83.7513 190.098C83.5861 185.636 82.5185 178.995 81.0405 173.822L79.1175 174.371C80.5555 179.404 81.5939 185.886 81.7527 190.172L83.7513 190.098ZM79.9246 173.109L74.7406 173.919L75.0494 175.895L80.2334 175.085L79.9246 173.109ZM87.9172 174.836C90.0002 179.402 91.9879 185.466 92.5364 189.07L94.5136 188.769C93.9281 184.921 91.8658 178.673 89.7368 174.006L87.9172 174.836ZM93.8038 189.88L98.8258 188.422L98.2682 186.501L93.2462 187.959L93.8038 189.88ZM99.5322 187.29C98.8632 183.443 96.7167 177.348 94.325 172.894L92.563 173.841C94.8693 178.135 96.9348 184.028 97.5618 187.633L99.5322 187.29ZM93.2216 172.393L88.6046 173.446L89.0494 175.396L93.6664 174.343L93.2216 172.393ZM70.521 156.467H89.394V154.467H70.521V156.467ZM88.394 155.467V163.405H90.394V155.467H88.394ZM89.394 162.405H70.521V164.405H89.394V162.405ZM71.521 163.405V155.467H69.521V163.405H71.521ZM88.394 129.79V137.728H90.394V129.79H88.394ZM89.394 136.728H70.521V138.728H89.394V136.728ZM71.521 137.728V129.79H69.521V137.728H71.521ZM70.521 130.79H89.394V128.79H70.521V130.79ZM89.394 149.526H70.521V151.526H89.394V149.526ZM71.521 150.526V142.588H69.521V150.526H71.521ZM70.521 143.588H89.394V141.588H70.521V143.588ZM88.394 142.588V150.526H90.394V142.588H88.394ZM96.307 163.405V155.467H94.307V163.405H96.307ZM95.307 156.467H118.473V154.467H95.307V156.467ZM119.473 155.467V150.526H117.473V155.467H119.473ZM118.473 149.526H95.307V151.526H118.473V149.526ZM96.307 150.526V142.588H94.307V150.526H96.307ZM95.307 143.588H118.473V141.588H95.307V143.588ZM119.473 142.588V137.728H117.473V142.588H119.473ZM118.473 136.728H95.307V138.728H118.473V136.728ZM96.307 137.728V129.79H94.307V137.728H96.307ZM95.307 130.79H121.227V128.79H95.307V130.79ZM122.227 129.79V124.444H120.227V129.79H122.227ZM121.227 123.444H64.689V125.444H121.227V123.444ZM63.689 124.444V168.751H65.689V124.444H63.689ZM64.689 169.751H119.931V167.751H64.689V169.751ZM118.933 168.682C118.489 175.112 118.005 179.563 117.458 182.596C117.185 184.113 116.9 185.248 116.607 186.087C116.31 186.935 116.025 187.418 115.786 187.684L117.272 189.022C117.762 188.477 118.156 187.715 118.494 186.748C118.836 185.772 119.143 184.523 119.427 182.951C119.994 179.808 120.482 175.268 120.929 168.82L118.933 168.682ZM115.822 187.646C115.478 187.989 115.037 188.163 113.613 188.163V190.163C115.105 190.163 116.284 190.012 117.236 189.06L115.822 187.646ZM113.613 188.163C112.239 188.163 108.485 188.162 104.582 187.684L104.338 189.669C108.373 190.163 112.233 190.163 113.613 190.163V188.163ZM103.595 189.178C104.387 190.547 104.931 192.821 105.085 194.289L107.075 194.08C106.905 192.47 106.315 189.885 105.325 188.176L103.595 189.178ZM106.002 195.182C110.169 195.508 114.273 195.511 116.444 195.344L116.29 193.35C114.249 193.507 110.253 193.509 106.158 193.188L106.002 195.182ZM116.438 195.344C118.878 195.17 120.695 194.535 122.296 192.745L120.806 191.412C119.653 192.7 118.392 193.199 116.296 193.349L116.438 195.344ZM122.293 192.749C123.634 191.264 124.538 188.721 125.26 184.617C125.989 180.468 126.558 174.528 127.085 166.059L125.089 165.935C124.563 174.394 123.998 180.24 123.29 184.271C122.573 188.349 121.736 190.382 120.809 191.408L122.293 192.749ZM127.068 166.193C127.162 165.719 127.226 165.013 127.267 164.471C127.287 164.19 127.303 163.936 127.313 163.752C127.318 163.66 127.322 163.585 127.325 163.533C127.326 163.507 127.327 163.487 127.328 163.473C127.328 163.465 127.329 163.46 127.329 163.456C127.329 163.454 127.329 163.453 127.329 163.452C127.329 163.451 127.329 163.451 127.329 163.451C127.329 163.45 127.329 163.45 127.329 163.45C127.329 163.45 127.329 163.45 127.329 163.45C127.329 163.45 127.329 163.45 126.33 163.405C125.331 163.359 125.331 163.359 125.331 163.359C125.331 163.359 125.331 163.359 125.331 163.359C125.331 163.359 125.331 163.359 125.331 163.359C125.331 163.359 125.331 163.36 125.331 163.36C125.331 163.361 125.331 163.362 125.331 163.363C125.331 163.366 125.33 163.371 125.33 163.377C125.33 163.39 125.329 163.408 125.327 163.433C125.325 163.481 125.321 163.552 125.316 163.639C125.307 163.815 125.292 164.057 125.272 164.323C125.231 164.874 125.174 165.464 125.106 165.8L127.068 166.193ZM126.33 162.405H95.307V164.405H126.33V162.405ZM114.212 181.893C112.945 178.851 109.879 174.143 106.912 170.764L105.41 172.083C108.275 175.346 111.203 179.872 112.366 182.662L114.212 181.893ZM105.784 170.498L101.41 172.28L102.164 174.132L106.538 172.35L105.784 170.498ZM101.01 173.835C103.718 177.18 106.576 181.875 107.745 184.759L109.599 184.008C108.338 180.898 105.364 176.035 102.564 172.576L101.01 173.835ZM109.087 185.293L113.704 183.187L112.874 181.368L108.257 183.474L109.087 185.293Z" fill="#B1941A"/>
</g>
</g>
<defs>
<filter id="filter0_d" x="0.983337" y="0" width="182.028" height="236" filterUnits="userSpaceOnUse" color-interpolation-filters="sRGB">
<feFlood flood-opacity="0" result="BackgroundImageFix"/>
<feColorMatrix in="SourceAlpha" type="matrix" values="0 0 0 0 0 0 0 0 0 0 0 0 0 0 0 0 0 0 127 0"/>
<feOffset dy="4"/>
<feGaussianBlur stdDeviation="2"/>
<feColorMatrix type="matrix" values="0 0 0 0 0 0 0 0 0 0 0 0 0 0 0 0 0 0 0.25 0"/>
<feBlend mode="normal" in2="BackgroundImageFix" result="effect1_dropShadow"/>
<feBlend mode="normal" in="SourceGraphic" in2="effect1_dropShadow" result="shape"/>
</filter>
<filter id="filter1_b" x="0.983337" y="-4" width="182.028" height="224.741" filterUnits="userSpaceOnUse" color-interpolation-filters="sRGB">
<feFlood flood-opacity="0" result="BackgroundImageFix"/>
<feGaussianBlur in="BackgroundImage" stdDeviation="2"/>
<feComposite in2="SourceAlpha" operator="in" result="effect1_backgroundBlur"/>
<feBlend mode="normal" in="SourceGraphic" in2="effect1_backgroundBlur" result="shape"/>
</filter>
<filter id="filter2_d" x="47.861" y="27.4746" width="85.656" height="175.978" filterUnits="userSpaceOnUse" color-interpolation-filters="sRGB">
<feFlood flood-opacity="0" result="BackgroundImageFix"/>
<feColorMatrix in="SourceAlpha" type="matrix" values="0 0 0 0 0 0 0 0 0 0 0 0 0 0 0 0 0 0 127 0"/>
<feOffset dy="4"/>
<feGaussianBlur stdDeviation="2"/>
<feColorMatrix type="matrix" values="0 0 0 0 0 0 0 0 0 0 0 0 0 0 0 0 0 0 0.25 0"/>
<feBlend mode="normal" in2="BackgroundImageFix" result="effect1_dropShadow"/>
<feBlend mode="normal" in="SourceGraphic" in2="effect1_dropShadow" result="shape"/>
</filter>
</defs>
</svg>
