<svg width="172" height="236" viewBox="0 0 172 236" fill="none" xmlns="http://www.w3.org/2000/svg">
<g filter="url(#filter0_d)">
<g filter="url(#filter1_b)">
<path d="M18.7 31.4897L86.4278 0L153.228 31.4897L167.144 216.741H4.78333L18.7 31.4897Z" fill="#524F48"/>
<path d="M5.3223 216.241L19.1766 31.8195L86.4263 0.552082L152.751 31.8177L166.605 216.241H5.3223Z" stroke="#524F48"/>
</g>
<rect x="4.78333" y="216.741" width="162.361" height="11.2593" fill="#272624"/>
<g filter="url(#filter2_d)">
<path d="M66.384 62.1706C62.577 68.4076 56.502 74.5636 50.427 78.6136C51.966 79.5046 54.639 81.4486 55.773 82.4206C61.605 77.9656 68.166 70.9996 72.459 64.1146L66.384 62.1706ZM102.186 73.5916C95.949 88.7386 81.288 95.0566 56.502 97.3246C57.717 98.7826 58.932 101.213 59.418 103.076C85.581 99.9976 101.457 92.6266 108.18 75.4546L102.186 73.5916ZM100.161 65.1676C106.155 70.1896 113.04 77.5606 115.956 82.3396L121.14 78.9376C117.981 73.9156 111.015 66.9496 104.94 62.0896L100.161 65.1676ZM88.659 53.9896V43.4596H113.607V37.9516H88.659V28.5556H82.584V53.9896H67.68V34.8736H61.686V53.9896H49.779V59.5786H82.584V78.0466C82.584 79.0996 82.26 79.3426 81.045 79.4236C79.749 79.4236 75.537 79.4236 70.839 79.2616C71.568 80.9626 72.459 83.0686 72.702 84.7696C78.939 84.7696 82.908 84.7696 85.338 83.8786C87.849 82.9876 88.578 81.3676 88.578 78.2086V59.5786H121.383V53.9896H88.659ZM68.895 147.61H98.541V167.131H68.895V147.61ZM121.626 167.131H104.616V147.61H118.062V142.021H68.895V132.463C83.718 131.086 100.404 128.737 111.987 125.497L106.803 120.718C97.65 123.31 82.017 125.74 67.842 127.279L62.82 125.983V167.131H49.536V172.882H121.626V167.131ZM73.269 175.15C67.923 180.253 57.96 186.328 49.698 189.973C51.075 191.188 53.1 193.294 54.153 194.59C62.415 190.702 72.378 184.546 79.02 178.876L73.269 175.15ZM92.223 179.362C100.566 183.736 111.501 190.297 116.847 194.59L121.788 189.892C115.956 185.68 104.94 179.362 96.759 175.312L92.223 179.362Z" fill="#B1941A"/>
<path d="M66.384 62.1706L66.6888 61.2182L65.94 60.9786L65.5304 61.6496L66.384 62.1706ZM50.427 78.6136L49.8723 77.7816L48.5345 78.6734L49.926 79.479L50.427 78.6136ZM55.773 82.4206L55.1222 83.1799L55.7368 83.7066L56.38 83.2153L55.773 82.4206ZM72.459 64.1146L73.3076 64.6437L73.9872 63.5537L72.7638 63.1622L72.459 64.1146ZM102.186 73.5916L102.483 72.6367L101.61 72.3652L101.261 73.2109L102.186 73.5916ZM56.502 97.3246L56.4109 96.3288L54.515 96.5022L55.7338 97.9648L56.502 97.3246ZM59.418 103.076L58.4504 103.328L58.6702 104.17L59.5348 104.069L59.418 103.076ZM108.18 75.4546L109.111 75.8192L109.503 74.8186L108.477 74.4997L108.18 75.4546ZM100.161 65.1676L99.6195 64.3269L98.478 65.0621L99.5188 65.9341L100.161 65.1676ZM115.956 82.3396L115.102 82.8605L115.641 83.7427L116.505 83.1757L115.956 82.3396ZM121.14 78.9376L121.689 79.7737L122.509 79.2355L121.986 78.4052L121.14 78.9376ZM104.94 62.0896L105.565 61.3087L105.003 60.8595L104.399 61.2489L104.94 62.0896ZM88.659 53.9896H87.659V54.9896H88.659V53.9896ZM88.659 43.4596V42.4596H87.659V43.4596H88.659ZM113.607 43.4596V44.4596H114.607V43.4596H113.607ZM113.607 37.9516H114.607V36.9516H113.607V37.9516ZM88.659 37.9516H87.659V38.9516H88.659V37.9516ZM88.659 28.5556H89.659V27.5556H88.659V28.5556ZM82.584 28.5556V27.5556H81.584V28.5556H82.584ZM82.584 53.9896V54.9896H83.584V53.9896H82.584ZM67.68 53.9896H66.68V54.9896H67.68V53.9896ZM67.68 34.8736H68.68V33.8736H67.68V34.8736ZM61.686 34.8736V33.8736H60.686V34.8736H61.686ZM61.686 53.9896V54.9896H62.686V53.9896H61.686ZM49.779 53.9896V52.9896H48.779V53.9896H49.779ZM49.779 59.5786H48.779V60.5786H49.779V59.5786ZM82.584 59.5786H83.584V58.5786H82.584V59.5786ZM81.045 79.4236V80.4236H81.0783L81.1115 80.4214L81.045 79.4236ZM70.839 79.2616L70.8735 78.2622L69.2995 78.2079L69.9199 79.6555L70.839 79.2616ZM72.702 84.7696L71.7121 84.911L71.8347 85.7696H72.702V84.7696ZM85.338 83.8786L85.0036 82.9361L84.9937 82.9397L85.338 83.8786ZM88.578 59.5786V58.5786H87.578V59.5786H88.578ZM121.383 59.5786V60.5786H122.383V59.5786H121.383ZM121.383 53.9896H122.383V52.9896H121.383V53.9896ZM65.5304 61.6496C61.8043 67.7541 55.8347 73.8067 49.8723 77.7816L50.9817 79.4457C57.1693 75.3206 63.3497 69.0611 67.2376 62.6916L65.5304 61.6496ZM49.926 79.479C51.4058 80.3358 54.0291 82.2429 55.1222 83.1799L56.4238 81.6613C55.2489 80.6543 52.5262 78.6734 50.928 77.7482L49.926 79.479ZM56.38 83.2153C62.3017 78.6918 68.9467 71.6375 73.3076 64.6437L71.6104 63.5855C67.3853 70.3617 60.9083 77.2394 55.166 81.6259L56.38 83.2153ZM72.7638 63.1622L66.6888 61.2182L66.0792 63.123L72.1542 65.067L72.7638 63.1622ZM101.261 73.2109C95.2539 87.8004 81.133 94.0666 56.4109 96.3288L56.5931 98.3204C81.443 96.0466 96.6441 89.6768 103.111 73.9724L101.261 73.2109ZM55.7338 97.9648C56.8483 99.3022 57.9989 101.597 58.4504 103.328L60.3856 102.823C59.8651 100.828 58.5857 98.263 57.2702 96.6844L55.7338 97.9648ZM59.5348 104.069C85.7833 100.981 102.175 93.536 109.111 75.8192L107.249 75.09C100.739 91.7172 85.3787 99.0145 59.3012 102.082L59.5348 104.069ZM108.477 74.4997L102.483 72.6367L101.889 74.5465L107.883 76.4095L108.477 74.4997ZM99.5188 65.9341C105.47 70.9202 112.265 78.2107 115.102 82.8605L116.81 81.8187C113.815 76.9105 106.84 69.459 100.803 64.4011L99.5188 65.9341ZM116.505 83.1757L121.689 79.7737L120.591 78.1016L115.407 81.5036L116.505 83.1757ZM121.986 78.4052C118.741 73.2457 111.676 66.1978 105.565 61.3087L104.315 62.8705C110.354 67.7014 117.221 74.5855 120.294 79.4701L121.986 78.4052ZM104.399 61.2489L99.6195 64.3269L100.702 66.0083L105.481 62.9303L104.399 61.2489ZM89.659 53.9896V43.4596H87.659V53.9896H89.659ZM88.659 44.4596H113.607V42.4596H88.659V44.4596ZM114.607 43.4596V37.9516H112.607V43.4596H114.607ZM113.607 36.9516H88.659V38.9516H113.607V36.9516ZM89.659 37.9516V28.5556H87.659V37.9516H89.659ZM88.659 27.5556H82.584V29.5556H88.659V27.5556ZM81.584 28.5556V53.9896H83.584V28.5556H81.584ZM82.584 52.9896H67.68V54.9896H82.584V52.9896ZM68.68 53.9896V34.8736H66.68V53.9896H68.68ZM67.68 33.8736H61.686V35.8736H67.68V33.8736ZM60.686 34.8736V53.9896H62.686V34.8736H60.686ZM61.686 52.9896H49.779V54.9896H61.686V52.9896ZM48.779 53.9896V59.5786H50.779V53.9896H48.779ZM49.779 60.5786H82.584V58.5786H49.779V60.5786ZM81.584 59.5786V78.0466H83.584V59.5786H81.584ZM81.584 78.0466C81.584 78.2706 81.5653 78.3767 81.5531 78.419C81.5468 78.4411 81.5588 78.393 81.6139 78.345C81.6564 78.3081 81.6649 78.3247 81.5541 78.3526C81.4397 78.3813 81.2617 78.4069 80.9785 78.4258L81.1115 80.4214C81.6909 80.3828 82.4086 80.3044 82.9263 79.8542C83.5143 79.3429 83.584 78.6108 83.584 78.0466H81.584ZM81.045 78.4236C79.7511 78.4236 75.5534 78.4236 70.8735 78.2622L70.8045 80.261C75.5206 80.4236 79.7469 80.4236 81.045 80.4236V78.4236ZM69.9199 79.6555C70.6641 81.3922 71.4916 83.3676 71.7121 84.911L73.692 84.6282C73.4264 82.7696 72.4719 80.533 71.7581 78.8677L69.9199 79.6555ZM72.702 85.7696C75.8107 85.7696 78.3928 85.7699 80.5012 85.6568C82.5989 85.5442 84.3218 85.3163 85.6823 84.8175L84.9937 82.9397C83.9243 83.3319 82.4476 83.5495 80.394 83.6597C78.3512 83.7693 75.8303 83.7696 72.702 83.7696V85.7696ZM85.6724 84.821C87.0925 84.3171 88.1335 83.5558 88.7779 82.3723C89.3958 81.2373 89.578 79.8374 89.578 78.2086H87.578C87.578 79.7389 87.3957 80.7284 87.0214 81.4159C86.6735 82.0549 86.0945 82.5491 85.0036 82.9362L85.6724 84.821ZM89.578 78.2086V59.5786H87.578V78.2086H89.578ZM88.578 60.5786H121.383V58.5786H88.578V60.5786ZM122.383 59.5786V53.9896H120.383V59.5786H122.383ZM121.383 52.9896H88.659V54.9896H121.383V52.9896ZM68.895 147.61V146.61H67.895V147.61H68.895ZM98.541 147.61H99.541V146.61H98.541V147.61ZM98.541 167.131V168.131H99.541V167.131H98.541ZM68.895 167.131H67.895V168.131H68.895V167.131ZM121.626 167.131H122.626V166.131H121.626V167.131ZM104.616 167.131H103.616V168.131H104.616V167.131ZM104.616 147.61V146.61H103.616V147.61H104.616ZM118.062 147.61V148.61H119.062V147.61H118.062ZM118.062 142.021H119.062V141.021H118.062V142.021ZM68.895 142.021H67.895V143.021H68.895V142.021ZM68.895 132.463L68.8025 131.467L67.895 131.551V132.463H68.895ZM111.987 125.497L112.256 126.46L113.983 125.977L112.665 124.761L111.987 125.497ZM106.803 120.718L107.481 119.982L107.069 119.603L106.531 119.755L106.803 120.718ZM67.842 127.279L67.5921 128.247L67.7687 128.292L67.9499 128.273L67.842 127.279ZM62.82 125.983L63.0699 125.014L61.82 124.692V125.983H62.82ZM62.82 167.131V168.131H63.82V167.131H62.82ZM49.536 167.131V166.131H48.536V167.131H49.536ZM49.536 172.882H48.536V173.882H49.536V172.882ZM121.626 172.882V173.882H122.626V172.882H121.626ZM73.269 175.15L73.8127 174.31L73.1499 173.881L72.5785 174.426L73.269 175.15ZM49.698 189.973L49.2944 189.058L47.8646 189.688L49.0364 190.722L49.698 189.973ZM54.153 194.59L53.3769 195.22L53.8705 195.828L54.5788 195.494L54.153 194.59ZM79.02 178.876L79.6693 179.636L80.6892 178.766L79.5637 178.036L79.02 178.876ZM92.223 179.362L91.557 178.616L90.4803 179.577L91.7587 180.247L92.223 179.362ZM116.847 194.59L116.221 195.369L116.903 195.917L117.536 195.314L116.847 194.59ZM121.788 189.892L122.477 190.616L123.35 189.786L122.373 189.081L121.788 189.892ZM96.759 175.312L97.2027 174.415L96.5971 174.116L96.093 174.566L96.759 175.312ZM68.895 148.61H98.541V146.61H68.895V148.61ZM97.541 147.61V167.131H99.541V147.61H97.541ZM98.541 166.131H68.895V168.131H98.541V166.131ZM69.895 167.131V147.61H67.895V167.131H69.895ZM121.626 166.131H104.616V168.131H121.626V166.131ZM105.616 167.131V147.61H103.616V167.131H105.616ZM104.616 148.61H118.062V146.61H104.616V148.61ZM119.062 147.61V142.021H117.062V147.61H119.062ZM118.062 141.021H68.895V143.021H118.062V141.021ZM69.895 142.021V132.463H67.895V142.021H69.895ZM68.9875 133.458C83.827 132.08 100.585 129.724 112.256 126.46L111.718 124.534C100.223 127.749 83.609 130.091 68.8025 131.467L68.9875 133.458ZM112.665 124.761L107.481 119.982L106.125 121.453L111.309 126.232L112.665 124.761ZM106.531 119.755C97.4621 122.323 81.8983 124.747 67.7341 126.284L67.9499 128.273C82.1357 126.733 97.8379 124.296 107.075 121.68L106.531 119.755ZM68.0919 126.31L63.0699 125.014L62.5701 126.951L67.5921 128.247L68.0919 126.31ZM61.82 125.983V167.131H63.82V125.983H61.82ZM62.82 166.131H49.536V168.131H62.82V166.131ZM48.536 167.131V172.882H50.536V167.131H48.536ZM49.536 173.882H121.626V171.882H49.536V173.882ZM122.626 172.882V167.131H120.626V172.882H122.626ZM72.5785 174.426C67.3444 179.422 57.4929 185.441 49.2944 189.058L50.1016 190.888C58.4271 187.215 68.5016 181.083 73.9595 175.873L72.5785 174.426ZM49.0364 190.722C50.3739 191.903 52.3603 193.969 53.3769 195.22L54.9291 193.959C53.8397 192.618 51.7761 190.473 50.3596 189.223L49.0364 190.722ZM54.5788 195.494C62.9054 191.576 72.9473 185.374 79.6693 179.636L78.3707 178.115C71.8087 183.717 61.9246 189.827 53.7272 193.685L54.5788 195.494ZM79.5637 178.036L73.8127 174.31L72.7253 175.989L78.4763 179.715L79.5637 178.036ZM91.7587 180.247C100.086 184.613 110.952 191.138 116.221 195.369L117.473 193.81C112.05 189.455 101.047 182.858 92.6873 178.476L91.7587 180.247ZM117.536 195.314L122.477 190.616L121.099 189.167L116.158 193.865L117.536 195.314ZM122.373 189.081C116.48 184.824 105.411 178.479 97.2027 174.415L96.3153 176.208C104.469 180.245 115.432 186.535 121.203 190.702L122.373 189.081ZM96.093 174.566L91.557 178.616L92.889 180.108L97.425 176.058L96.093 174.566Z" fill="#B1941A"/>
</g>
</g>
<defs>
<filter id="filter0_d" x="0.783325" y="0" width="170.361" height="236" filterUnits="userSpaceOnUse" color-interpolation-filters="sRGB">
<feFlood flood-opacity="0" result="BackgroundImageFix"/>
<feColorMatrix in="SourceAlpha" type="matrix" values="0 0 0 0 0 0 0 0 0 0 0 0 0 0 0 0 0 0 127 0"/>
<feOffset dy="4"/>
<feGaussianBlur stdDeviation="2"/>
<feColorMatrix type="matrix" values="0 0 0 0 0 0 0 0 0 0 0 0 0 0 0 0 0 0 0.25 0"/>
<feBlend mode="normal" in2="BackgroundImageFix" result="effect1_dropShadow"/>
<feBlend mode="normal" in="SourceGraphic" in2="effect1_dropShadow" result="shape"/>
</filter>
<filter id="filter1_b" x="0.783325" y="-4" width="170.361" height="224.741" filterUnits="userSpaceOnUse" color-interpolation-filters="sRGB">
<feFlood flood-opacity="0" result="BackgroundImageFix"/>
<feGaussianBlur in="BackgroundImage" stdDeviation="2"/>
<feComposite in2="SourceAlpha" operator="in" result="effect1_backgroundBlur"/>
<feBlend mode="normal" in="SourceGraphic" in2="effect1_backgroundBlur" result="shape"/>
</filter>
<filter id="filter2_d" x="43.8646" y="27.5557" width="83.4855" height="176.361" filterUnits="userSpaceOnUse" color-interpolation-filters="sRGB">
<feFlood flood-opacity="0" result="BackgroundImageFix"/>
<feColorMatrix in="SourceAlpha" type="matrix" values="0 0 0 0 0 0 0 0 0 0 0 0 0 0 0 0 0 0 127 0"/>
<feOffset dy="4"/>
<feGaussianBlur stdDeviation="2"/>
<feColorMatrix type="matrix" values="0 0 0 0 0 0 0 0 0 0 0 0 0 0 0 0 0 0 0.25 0"/>
<feBlend mode="normal" in2="BackgroundImageFix" result="effect1_dropShadow"/>
<feBlend mode="normal" in="SourceGraphic" in2="effect1_dropShadow" result="shape"/>
</filter>
</defs>
</svg>
