<svg width="183" height="251" viewBox="0 0 183 251" fill="none" xmlns="http://www.w3.org/2000/svg">
<g filter="url(#filter0_d)">
<g filter="url(#filter1_b)">
<path d="M19 33.5614L92 0L164 33.5614L179 231H4L19 33.5614Z" fill="#524F48"/>
<path d="M4.53943 230.5L19.4763 33.8927L91.9986 0.550976L163.524 33.891L178.461 230.5H4.53943Z" stroke="#524F48"/>
</g>
<rect x="4" y="231" width="175" height="12" fill="#272624"/>
<g filter="url(#filter2_d)">
<path d="M125.944 37.144C124.12 40.408 120.568 45.112 117.88 47.992L122.2 50.68C125.08 47.992 128.632 44.152 131.896 40.408L125.944 37.144ZM132.664 58.648C128.824 55.48 121.24 51.064 115.384 48.376L112.6 51.064C111.928 47.416 111.544 43.576 111.352 39.64H53.56V46.072H105.304C107.224 62.392 111.736 76.312 126.424 78.04C131.032 78.808 133.624 75.832 134.776 67.96C133.336 67.192 131.608 65.656 130.36 64.312C129.88 69.208 129.112 71.896 127.768 71.704C119.512 71.128 115.096 63.448 112.984 53.272C118.648 56.248 125.176 60.28 128.44 63.256L132.664 58.648ZM122.2 93.304C125.176 90.808 128.92 86.872 132.376 83.128L126.328 79.96C124.408 83.128 120.568 88.024 117.88 90.808L122.2 93.304ZM133.72 101.656C129.592 98.296 121.528 93.784 115.384 91L113.56 92.824C112.792 87.448 112.408 81.496 112.312 75.352H91.288V49.144H84.28V75.352H68.632V59.032C72.28 56.824 75.64 54.424 78.328 51.928L72.184 49.624C66.328 54.712 55.864 59.224 46.648 61.912C47.992 63.256 50.104 66.136 50.872 67.48C54.424 66.232 58.168 64.6 61.816 62.776V75.352H47.992V81.88H61.72C61.144 93.976 58.456 107.128 46.552 117.688C48.28 118.744 50.776 120.952 51.832 122.392C65.08 110.68 68.056 95.704 68.536 81.88H84.28V121.432H91.288V81.88H105.976C107.128 102.904 110.488 120.472 126.904 122.296C131.992 123.256 134.488 119.704 135.64 110.008C134.2 109.24 132.376 107.608 131.032 106.072C130.648 112.312 129.784 116.056 128.44 115.864C120.184 115.192 116.152 107.416 114.136 96.376C119.8 99.448 126.136 103.288 129.496 106.264L133.72 101.656ZM65.176 184.216V174.328H87.16V184.216H65.176ZM65.176 158.872H87.16V168.664H65.176V158.872ZM116.824 158.872V168.664H94.36V158.872H116.824ZM116.824 184.216H94.36V174.328H116.824V184.216ZM134.008 197.944H94.36V190.072H123.928V152.92H94.36V145.912H130.744V139.384H94.36V130.744H87.16V139.384H51.256V145.912H87.16V152.92H58.36V190.072H87.16V197.944H48.376V204.376H87.16V218.584H94.36V204.376H134.008V197.944Z" fill="#B1941A"/>
<path d="M125.944 37.144L126.425 36.2672L125.555 35.7902L125.071 36.6562L125.944 37.144ZM117.88 47.992L117.149 47.3097L116.319 48.1986L117.352 48.8411L117.88 47.992ZM122.2 50.68L121.672 51.5291L122.322 51.9338L122.882 51.4111L122.2 50.68ZM131.896 40.408L132.65 41.0651L133.466 40.1286L132.377 39.5312L131.896 40.408ZM132.664 58.648L133.401 59.3237L134.113 58.5471L133.3 57.8766L132.664 58.648ZM115.384 48.376L115.801 47.4672L115.181 47.1823L114.689 47.6566L115.384 48.376ZM112.6 51.064L111.617 51.2452L111.954 53.0777L113.295 51.7834L112.6 51.064ZM111.352 39.64L112.351 39.5913L112.304 38.64H111.352V39.64ZM53.56 39.64V38.64H52.56V39.64H53.56ZM53.56 46.072H52.56V47.072H53.56V46.072ZM105.304 46.072L106.297 45.9552L106.193 45.072H105.304V46.072ZM126.424 78.04L126.588 77.0536L126.565 77.0497L126.541 77.0468L126.424 78.04ZM134.776 67.96L135.765 68.1048L135.867 67.4087L135.247 67.0776L134.776 67.96ZM130.36 64.312L131.093 63.6315L129.581 62.004L129.365 64.2144L130.36 64.312ZM127.768 71.704L127.909 70.714L127.874 70.7089L127.838 70.7064L127.768 71.704ZM112.984 53.272L113.449 52.3868L111.575 51.4018L112.005 53.4752L112.984 53.272ZM128.44 63.256L127.766 63.995L128.503 64.6669L129.177 63.9317L128.44 63.256ZM122.2 93.304L121.7 94.1699L122.306 94.5202L122.843 94.0702L122.2 93.304ZM132.376 83.128L133.111 83.8063L133.996 82.8476L132.84 82.2422L132.376 83.128ZM126.328 79.96L126.792 79.0742L125.96 78.6382L125.473 79.4417L126.328 79.96ZM117.88 90.808L117.161 90.1134L116.272 91.0338L117.38 91.6739L117.88 90.808ZM133.72 101.656L134.457 102.332L135.174 101.55L134.351 100.88L133.72 101.656ZM115.384 91L115.797 90.0891L115.166 89.8035L114.677 90.2929L115.384 91ZM113.56 92.824L112.57 92.9654L112.853 94.9453L114.267 93.5311L113.56 92.824ZM112.312 75.352L113.312 75.3364L113.297 74.352H112.312V75.352ZM91.288 75.352H90.288V76.352H91.288V75.352ZM91.288 49.144H92.288V48.144H91.288V49.144ZM84.28 49.144V48.144H83.28V49.144H84.28ZM84.28 75.352V76.352H85.28V75.352H84.28ZM68.632 75.352H67.632V76.352H68.632V75.352ZM68.632 59.032L68.1142 58.1765L67.632 58.4684V59.032H68.632ZM78.328 51.928L79.0085 52.6608L80.1941 51.5598L78.6791 50.9917L78.328 51.928ZM72.184 49.624L72.5351 48.6877L71.9776 48.4786L71.5281 48.8691L72.184 49.624ZM46.648 61.912L46.368 60.952L44.7467 61.4249L45.9409 62.6191L46.648 61.912ZM50.872 67.48L50.0038 67.9761L50.4172 68.6997L51.2035 68.4235L50.872 67.48ZM61.816 62.776H62.816V61.158L61.3688 61.8816L61.816 62.776ZM61.816 75.352V76.352H62.816V75.352H61.816ZM47.992 75.352V74.352H46.992V75.352H47.992ZM47.992 81.88H46.992V82.88H47.992V81.88ZM61.72 81.88L62.7189 81.9276L62.7688 80.88H61.72V81.88ZM46.552 117.688L45.8884 116.94L44.8775 117.837L46.0306 118.541L46.552 117.688ZM51.832 122.392L51.0256 122.983L51.6735 123.867L52.4943 123.141L51.832 122.392ZM68.536 81.88V80.88H67.5701L67.5366 81.8453L68.536 81.88ZM84.28 81.88H85.28V80.88H84.28V81.88ZM84.28 121.432H83.28V122.432H84.28V121.432ZM91.288 121.432V122.432H92.288V121.432H91.288ZM91.288 81.88V80.88H90.288V81.88H91.288ZM105.976 81.88L106.975 81.8253L106.923 80.88H105.976V81.88ZM126.904 122.296L127.089 121.313L127.052 121.306L127.014 121.302L126.904 122.296ZM135.64 110.008L136.633 110.126L136.714 109.447L136.111 109.126L135.64 110.008ZM131.032 106.072L131.785 105.413L130.183 103.583L130.034 106.011L131.032 106.072ZM128.44 115.864L128.581 114.874L128.551 114.87L128.521 114.867L128.44 115.864ZM114.136 96.376L114.613 95.497L112.777 94.5014L113.152 96.5556L114.136 96.376ZM129.496 106.264L128.833 107.013L129.569 107.664L130.233 106.94L129.496 106.264ZM125.071 36.6562C123.293 39.8373 119.793 44.477 117.149 47.3097L118.611 48.6743C121.343 45.747 124.947 40.9787 126.817 37.6318L125.071 36.6562ZM117.352 48.8411L121.672 51.5291L122.728 49.8309L118.408 47.1429L117.352 48.8411ZM122.882 51.4111C125.8 48.6882 129.378 44.8182 132.65 41.0651L131.142 39.7509C127.886 43.4858 124.36 47.2958 121.518 49.9489L122.882 51.4111ZM132.377 39.5312L126.425 36.2672L125.463 38.0208L131.415 41.2848L132.377 39.5312ZM133.3 57.8766C129.369 54.6331 121.7 50.1749 115.801 47.4672L114.967 49.2848C120.78 51.9531 128.279 56.3269 132.028 59.4194L133.3 57.8766ZM114.689 47.6566L111.905 50.3446L113.295 51.7834L116.079 49.0954L114.689 47.6566ZM113.583 50.8828C112.922 47.2896 112.541 43.4956 112.351 39.5913L110.353 39.6887C110.547 43.6564 110.934 47.5424 111.617 51.2452L113.583 50.8828ZM111.352 38.64H53.56V40.64H111.352V38.64ZM52.56 39.64V46.072H54.56V39.64H52.56ZM53.56 47.072H105.304V45.072H53.56V47.072ZM104.311 46.1888C105.274 54.3785 106.899 62.1013 110.203 68.0157C113.539 73.9884 118.598 78.1262 126.307 79.0331L126.541 77.0468C119.562 76.2258 115.021 72.5395 111.949 67.0403C108.845 61.4827 107.254 54.0855 106.297 45.9552L104.311 46.1888ZM126.26 79.0264C127.528 79.2379 128.722 79.2021 129.819 78.8475C130.924 78.4901 131.87 77.8283 132.662 76.8824C134.215 75.0301 135.183 72.0861 135.765 68.1048L133.787 67.8152C133.217 71.7059 132.313 74.1859 131.13 75.5976C130.554 76.2837 129.916 76.7138 129.203 76.9445C128.482 77.1779 127.624 77.2261 126.588 77.0536L126.26 79.0264ZM135.247 67.0776C133.951 66.3865 132.312 64.9443 131.093 63.6315L129.627 64.9925C130.904 66.3677 132.721 67.9975 134.305 68.8424L135.247 67.0776ZM129.365 64.2144C129.126 66.6513 128.822 68.4527 128.439 69.5998C128.246 70.1804 128.061 70.5012 127.926 70.6534C127.822 70.7701 127.835 70.7035 127.909 70.714L127.627 72.6939C128.373 72.8005 128.986 72.4699 129.419 71.9836C129.821 71.5328 130.11 70.9116 130.337 70.2322C130.794 68.8593 131.114 66.8687 131.355 64.4096L129.365 64.2144ZM127.838 70.7064C124.052 70.4423 121.135 68.566 118.878 65.4956C116.598 62.3947 115.005 58.088 113.963 53.0688L112.005 53.4752C113.075 58.632 114.746 63.2533 117.266 66.6804C119.809 70.138 123.228 72.3897 127.698 72.7016L127.838 70.7064ZM112.519 54.1572C118.169 57.1257 124.601 61.1094 127.766 63.995L129.114 62.517C125.751 59.4506 119.127 55.3702 113.449 52.3868L112.519 54.1572ZM129.177 63.9317L133.401 59.3237L131.927 57.9723L127.703 62.5803L129.177 63.9317ZM122.843 94.0702C125.875 91.5269 129.66 87.5443 133.111 83.8063L131.641 82.4497C128.18 86.1997 124.477 90.0891 121.557 92.5378L122.843 94.0702ZM132.84 82.2422L126.792 79.0742L125.864 80.8458L131.912 84.0138L132.84 82.2422ZM125.473 79.4417C123.596 82.539 119.803 87.3766 117.161 90.1134L118.599 91.5026C121.333 88.6714 125.22 83.717 127.183 80.4783L125.473 79.4417ZM117.38 91.6739L121.7 94.1699L122.7 92.4381L118.38 89.9421L117.38 91.6739ZM134.351 100.88C130.127 97.4418 121.974 92.8881 115.797 90.0891L114.971 91.9109C121.082 94.6799 129.057 99.1502 133.089 102.432L134.351 100.88ZM114.677 90.2929L112.853 92.1169L114.267 93.5311L116.091 91.7071L114.677 90.2929ZM114.55 92.6826C113.79 87.3595 113.407 81.4515 113.312 75.3364L111.312 75.3676C111.409 81.5405 111.794 87.5365 112.57 92.9654L114.55 92.6826ZM112.312 74.352H91.288V76.352H112.312V74.352ZM92.288 75.352V49.144H90.288V75.352H92.288ZM91.288 48.144H84.28V50.144H91.288V48.144ZM83.28 49.144V75.352H85.28V49.144H83.28ZM84.28 74.352H68.632V76.352H84.28V74.352ZM69.632 75.352V59.032H67.632V75.352H69.632ZM69.1498 59.8875C72.8348 57.6571 76.2552 55.2174 79.0085 52.6608L77.6476 51.1952C75.0248 53.6306 71.7252 55.9909 68.1142 58.1765L69.1498 59.8875ZM78.6791 50.9917L72.5351 48.6877L71.8329 50.5603L77.9769 52.8643L78.6791 50.9917ZM71.5281 48.8691C65.8366 53.8142 55.5396 58.2769 46.368 60.952L46.928 62.872C56.1884 60.1711 66.8194 55.6098 72.8399 50.3789L71.5281 48.8691ZM45.9409 62.6191C47.214 63.8922 49.2738 66.6987 50.0038 67.9761L51.7402 66.9839C50.9342 65.5733 48.77 62.6198 47.3551 61.2049L45.9409 62.6191ZM51.2035 68.4235C54.8028 67.1588 58.5859 65.5091 62.2632 63.6704L61.3688 61.8816C57.7501 63.6909 54.0452 65.3052 50.5405 66.5365L51.2035 68.4235ZM60.816 62.776V75.352H62.816V62.776H60.816ZM61.816 74.352H47.992V76.352H61.816V74.352ZM46.992 75.352V81.88H48.992V75.352H46.992ZM47.992 82.88H61.72V80.88H47.992V82.88ZM60.7211 81.8324C60.1505 93.8148 57.4984 106.641 45.8884 116.94L47.2156 118.436C59.4136 107.615 62.1375 94.1372 62.7189 81.9276L60.7211 81.8324ZM46.0306 118.541C47.6675 119.542 50.0594 121.666 51.0256 122.983L52.6384 121.801C51.4926 120.238 48.8925 117.946 47.0734 116.835L46.0306 118.541ZM52.4943 123.141C66.0439 111.163 69.0515 95.8515 69.5354 81.9147L67.5366 81.8453C67.0605 95.5565 64.1161 110.197 51.1697 121.643L52.4943 123.141ZM68.536 82.88H84.28V80.88H68.536V82.88ZM83.28 81.88V121.432H85.28V81.88H83.28ZM84.28 122.432H91.288V120.432H84.28V122.432ZM92.288 121.432V81.88H90.288V121.432H92.288ZM91.288 82.88H105.976V80.88H91.288V82.88ZM104.977 81.9347C105.554 92.4497 106.685 102.252 109.794 109.674C111.354 113.4 113.431 116.571 116.225 118.932C119.029 121.301 122.507 122.814 126.794 123.29L127.014 121.302C123.093 120.866 119.995 119.499 117.516 117.404C115.027 115.301 113.114 112.424 111.638 108.902C108.675 101.828 107.55 92.3343 106.975 81.8253L104.977 81.9347ZM126.719 123.279C128.113 123.542 129.413 123.511 130.593 123.085C131.783 122.655 132.764 121.854 133.564 120.726C135.124 118.526 136.055 114.992 136.633 110.126L134.647 109.89C134.073 114.72 133.18 117.81 131.932 119.57C131.328 120.422 130.659 120.935 129.914 121.204C129.159 121.477 128.239 121.53 127.089 121.313L126.719 123.279ZM136.111 109.126C134.822 108.439 133.091 106.907 131.785 105.413L130.279 106.731C131.661 108.309 133.578 110.041 135.169 110.89L136.111 109.126ZM130.034 106.011C129.843 109.113 129.535 111.533 129.127 113.133C128.92 113.943 128.707 114.461 128.521 114.745C128.327 115.041 128.343 114.84 128.581 114.874L128.299 116.854C129.209 116.984 129.837 116.387 130.195 115.84C130.561 115.281 130.84 114.509 131.065 113.627C131.521 111.843 131.837 109.271 132.03 106.133L130.034 106.011ZM128.521 114.867C124.746 114.56 121.93 112.65 119.778 109.45C117.598 106.209 116.118 101.663 115.12 96.1964L113.152 96.5556C114.17 102.129 115.714 106.991 118.118 110.566C120.55 114.182 123.878 116.496 128.359 116.861L128.521 114.867ZM113.659 97.255C119.323 100.327 125.567 104.12 128.833 107.013L130.159 105.515C126.705 102.456 120.277 98.5692 114.613 95.497L113.659 97.255ZM130.233 106.94L134.457 102.332L132.983 100.98L128.759 105.588L130.233 106.94ZM65.176 184.216H64.176V185.216H65.176V184.216ZM65.176 174.328V173.328H64.176V174.328H65.176ZM87.16 174.328H88.16V173.328H87.16V174.328ZM87.16 184.216V185.216H88.16V184.216H87.16ZM65.176 158.872V157.872H64.176V158.872H65.176ZM87.16 158.872H88.16V157.872H87.16V158.872ZM87.16 168.664V169.664H88.16V168.664H87.16ZM65.176 168.664H64.176V169.664H65.176V168.664ZM116.824 158.872H117.824V157.872H116.824V158.872ZM116.824 168.664V169.664H117.824V168.664H116.824ZM94.36 168.664H93.36V169.664H94.36V168.664ZM94.36 158.872V157.872H93.36V158.872H94.36ZM116.824 184.216V185.216H117.824V184.216H116.824ZM94.36 184.216H93.36V185.216H94.36V184.216ZM94.36 174.328V173.328H93.36V174.328H94.36ZM116.824 174.328H117.824V173.328H116.824V174.328ZM134.008 197.944H135.008V196.944H134.008V197.944ZM94.36 197.944H93.36V198.944H94.36V197.944ZM94.36 190.072V189.072H93.36V190.072H94.36ZM123.928 190.072V191.072H124.928V190.072H123.928ZM123.928 152.92H124.928V151.92H123.928V152.92ZM94.36 152.92H93.36V153.92H94.36V152.92ZM94.36 145.912V144.912H93.36V145.912H94.36ZM130.744 145.912V146.912H131.744V145.912H130.744ZM130.744 139.384H131.744V138.384H130.744V139.384ZM94.36 139.384H93.36V140.384H94.36V139.384ZM94.36 130.744H95.36V129.744H94.36V130.744ZM87.16 130.744V129.744H86.16V130.744H87.16ZM87.16 139.384V140.384H88.16V139.384H87.16ZM51.256 139.384V138.384H50.256V139.384H51.256ZM51.256 145.912H50.256V146.912H51.256V145.912ZM87.16 145.912H88.16V144.912H87.16V145.912ZM87.16 152.92V153.92H88.16V152.92H87.16ZM58.36 152.92V151.92H57.36V152.92H58.36ZM58.36 190.072H57.36V191.072H58.36V190.072ZM87.16 190.072H88.16V189.072H87.16V190.072ZM87.16 197.944V198.944H88.16V197.944H87.16ZM48.376 197.944V196.944H47.376V197.944H48.376ZM48.376 204.376H47.376V205.376H48.376V204.376ZM87.16 204.376H88.16V203.376H87.16V204.376ZM87.16 218.584H86.16V219.584H87.16V218.584ZM94.36 218.584V219.584H95.36V218.584H94.36ZM94.36 204.376V203.376H93.36V204.376H94.36ZM134.008 204.376V205.376H135.008V204.376H134.008ZM66.176 184.216V174.328H64.176V184.216H66.176ZM65.176 175.328H87.16V173.328H65.176V175.328ZM86.16 174.328V184.216H88.16V174.328H86.16ZM87.16 183.216H65.176V185.216H87.16V183.216ZM65.176 159.872H87.16V157.872H65.176V159.872ZM86.16 158.872V168.664H88.16V158.872H86.16ZM87.16 167.664H65.176V169.664H87.16V167.664ZM66.176 168.664V158.872H64.176V168.664H66.176ZM115.824 158.872V168.664H117.824V158.872H115.824ZM116.824 167.664H94.36V169.664H116.824V167.664ZM95.36 168.664V158.872H93.36V168.664H95.36ZM94.36 159.872H116.824V157.872H94.36V159.872ZM116.824 183.216H94.36V185.216H116.824V183.216ZM95.36 184.216V174.328H93.36V184.216H95.36ZM94.36 175.328H116.824V173.328H94.36V175.328ZM115.824 174.328V184.216H117.824V174.328H115.824ZM134.008 196.944H94.36V198.944H134.008V196.944ZM95.36 197.944V190.072H93.36V197.944H95.36ZM94.36 191.072H123.928V189.072H94.36V191.072ZM124.928 190.072V152.92H122.928V190.072H124.928ZM123.928 151.92H94.36V153.92H123.928V151.92ZM95.36 152.92V145.912H93.36V152.92H95.36ZM94.36 146.912H130.744V144.912H94.36V146.912ZM131.744 145.912V139.384H129.744V145.912H131.744ZM130.744 138.384H94.36V140.384H130.744V138.384ZM95.36 139.384V130.744H93.36V139.384H95.36ZM94.36 129.744H87.16V131.744H94.36V129.744ZM86.16 130.744V139.384H88.16V130.744H86.16ZM87.16 138.384H51.256V140.384H87.16V138.384ZM50.256 139.384V145.912H52.256V139.384H50.256ZM51.256 146.912H87.16V144.912H51.256V146.912ZM86.16 145.912V152.92H88.16V145.912H86.16ZM87.16 151.92H58.36V153.92H87.16V151.92ZM57.36 152.92V190.072H59.36V152.92H57.36ZM58.36 191.072H87.16V189.072H58.36V191.072ZM86.16 190.072V197.944H88.16V190.072H86.16ZM87.16 196.944H48.376V198.944H87.16V196.944ZM47.376 197.944V204.376H49.376V197.944H47.376ZM48.376 205.376H87.16V203.376H48.376V205.376ZM86.16 204.376V218.584H88.16V204.376H86.16ZM87.16 219.584H94.36V217.584H87.16V219.584ZM95.36 218.584V204.376H93.36V218.584H95.36ZM94.36 205.376H134.008V203.376H94.36V205.376ZM135.008 204.376V197.944H133.008V204.376H135.008Z" fill="#B1941A"/>
</g>
</g>
<defs>
<filter id="filter0_d" x="0" y="0" width="183" height="251" filterUnits="userSpaceOnUse" color-interpolation-filters="sRGB">
<feFlood flood-opacity="0" result="BackgroundImageFix"/>
<feColorMatrix in="SourceAlpha" type="matrix" values="0 0 0 0 0 0 0 0 0 0 0 0 0 0 0 0 0 0 127 0"/>
<feOffset dy="4"/>
<feGaussianBlur stdDeviation="2"/>
<feColorMatrix type="matrix" values="0 0 0 0 0 0 0 0 0 0 0 0 0 0 0 0 0 0 0.25 0"/>
<feBlend mode="normal" in2="BackgroundImageFix" result="effect1_dropShadow"/>
<feBlend mode="normal" in="SourceGraphic" in2="effect1_dropShadow" result="shape"/>
</filter>
<filter id="filter1_b" x="0" y="-4" width="183" height="239" filterUnits="userSpaceOnUse" color-interpolation-filters="sRGB">
<feFlood flood-opacity="0" result="BackgroundImageFix"/>
<feGaussianBlur in="BackgroundImage" stdDeviation="2"/>
<feComposite in2="SourceAlpha" operator="in" result="effect1_backgroundBlur"/>
<feBlend mode="normal" in="SourceGraphic" in2="effect1_backgroundBlur" result="shape"/>
</filter>
<filter id="filter2_d" x="40.7467" y="35.7902" width="99.967" height="191.794" filterUnits="userSpaceOnUse" color-interpolation-filters="sRGB">
<feFlood flood-opacity="0" result="BackgroundImageFix"/>
<feColorMatrix in="SourceAlpha" type="matrix" values="0 0 0 0 0 0 0 0 0 0 0 0 0 0 0 0 0 0 127 0"/>
<feOffset dy="4"/>
<feGaussianBlur stdDeviation="2"/>
<feColorMatrix type="matrix" values="0 0 0 0 0 0 0 0 0 0 0 0 0 0 0 0 0 0 0.25 0"/>
<feBlend mode="normal" in2="BackgroundImageFix" result="effect1_dropShadow"/>
<feBlend mode="normal" in="SourceGraphic" in2="effect1_dropShadow" result="shape"/>
</filter>
</defs>
</svg>
