<svg width="184" height="236" viewBox="0 0 184 236" fill="none" xmlns="http://www.w3.org/2000/svg">
<g filter="url(#filter0_d)">
<g filter="url(#filter1_b)">
<path d="M19.9 31.4897L92.4944 0L164.094 31.4897L179.011 216.741H4.98334L19.9 31.4897Z" fill="#524F48"/>
<path d="M5.52522 216.241L20.3743 31.829L92.4931 0.545613L163.62 31.8273L178.469 216.241H5.52522Z" stroke="#524F48"/>
</g>
<rect x="4.98334" y="216.741" width="174.028" height="11.2593" fill="#272624"/>
<g filter="url(#filter2_d)">
<path d="M87.288 88.5766L74.652 91.0066V67.3546H86.721V62.0896H74.652V53.5846H84.615V48.4006H61.935C66.552 43.5406 69.954 38.4376 72.465 34.0636C77.163 38.3566 82.347 44.3506 85.02 48.1576L89.07 43.5406C85.911 39.3286 79.512 32.9296 74.247 28.5556H68.901C65.985 34.9546 60.72 43.1356 53.106 49.2916C54.24 50.1016 56.022 51.9646 56.913 53.1796C58.047 52.2076 59.181 51.1546 60.234 50.1016V53.5846H69.387V62.0896H56.184V67.3546H69.387V91.9786C63.96 92.9506 59.019 93.9226 55.131 94.5706L56.508 99.9976C65.013 98.2966 76.758 96.0286 87.693 93.6796L87.288 88.5766ZM57.804 73.0246C59.505 77.8036 60.882 83.9596 61.125 88.0906L65.661 86.7946C65.256 82.8256 63.798 76.6696 62.016 71.9716L57.804 73.0246ZM80.97 87.1186C82.428 83.3116 84.291 77.3986 85.83 72.4576L81.132 70.9996C80.322 75.3736 78.459 81.8536 77.163 85.7416L80.97 87.1186ZM96.603 51.5596H118.878V61.1176H96.603V51.5596ZM118.878 37.3036V46.2946H96.603V37.3036H118.878ZM123.738 69.7846C121.146 72.5386 117.015 76.0216 113.37 78.7756C111.75 74.8876 110.454 70.7566 109.401 66.3826H124.629V31.8766H90.933V94.3276C88.422 94.8946 86.154 95.3806 84.129 95.7856L85.83 101.537C93.282 99.8356 103.002 97.4056 112.155 94.9756L111.588 89.4676C106.485 90.6826 101.382 91.8976 96.603 93.0316V66.3826H103.974C107.538 82.9066 114.261 96.1096 126.006 102.59C126.897 101.051 128.679 98.7016 129.975 97.5676C123.9 94.6516 119.202 89.6296 115.638 83.3116C119.526 80.7196 124.224 77.1556 127.869 73.8346L123.738 69.7846ZM68.496 147.124C66.957 142.588 62.907 135.865 59.1 130.762L54.24 133.111C57.966 138.214 61.773 145.342 63.312 149.878L68.496 147.124ZM69.63 163.729C63.636 167.374 57.48 170.938 53.43 173.206L56.427 179.2C60.477 176.527 65.094 173.449 69.63 170.209V194.347H75.381V120.556H69.63V163.729ZM119.526 120.475C109.887 123.553 92.796 126.307 77.973 128.089C78.702 129.304 79.512 131.41 79.674 132.868C94.659 131.248 112.236 128.656 123.819 125.173L119.526 120.475ZM105.999 147.124C105.594 143.317 103.974 137.323 102.03 132.625L96.765 133.921C98.547 138.619 100.086 144.775 100.41 148.582L105.999 147.124ZM91.905 149.959C91.014 145.99 88.584 139.915 85.911 135.379L80.97 136.999C83.4 141.778 85.749 148.015 86.559 151.903L91.905 149.959ZM85.263 170.29C89.475 174.664 93.93 180.82 95.793 184.87L100.977 181.792C98.952 177.742 94.254 171.829 90.123 167.698L85.263 170.29ZM128.436 158.788H117.42V152.389H113.613C117.906 147.367 123.009 140.482 126.978 134.326L121.47 131.572C118.149 137.89 112.074 146.152 107.538 151.417L111.507 153.685V158.788H78.702V164.377H111.507V187.057C111.507 188.272 111.183 188.515 109.806 188.596C108.51 188.677 103.974 188.677 98.952 188.515C99.843 190.216 100.734 192.727 100.977 194.347C107.295 194.347 111.588 194.266 114.099 193.375C116.691 192.403 117.42 190.621 117.42 187.138V164.377H128.436V158.788Z" fill="#B1941A"/>
<path d="M87.288 88.5766L88.2849 88.4975L88.1965 87.3836L87.0992 87.5946L87.288 88.5766ZM74.652 91.0066H73.652V92.2172L74.8408 91.9886L74.652 91.0066ZM74.652 67.3546V66.3546H73.652V67.3546H74.652ZM86.721 67.3546V68.3546H87.721V67.3546H86.721ZM86.721 62.0896H87.721V61.0896H86.721V62.0896ZM74.652 62.0896H73.652V63.0896H74.652V62.0896ZM74.652 53.5846V52.5846H73.652V53.5846H74.652ZM84.615 53.5846V54.5846H85.615V53.5846H84.615ZM84.615 48.4006H85.615V47.4006H84.615V48.4006ZM61.935 48.4006L61.21 47.7119L59.6057 49.4006H61.935V48.4006ZM72.465 34.0636L73.1396 33.3254L72.2188 32.484L71.5977 33.5657L72.465 34.0636ZM85.02 48.1576L84.2016 48.7322L84.9327 49.7735L85.7718 48.817L85.02 48.1576ZM89.07 43.5406L89.8218 44.2L90.357 43.5899L89.87 42.9406L89.07 43.5406ZM74.247 28.5556L74.886 27.7864L74.6082 27.5556H74.247V28.5556ZM68.901 28.5556V27.5556H68.2578L67.991 28.1409L68.901 28.5556ZM53.106 49.2916L52.4773 48.514L51.4545 49.3409L52.5248 50.1053L53.106 49.2916ZM56.913 53.1796L56.1066 53.771L56.7446 54.641L57.5638 53.9389L56.913 53.1796ZM60.234 50.1016H61.234V47.6874L59.5269 49.3945L60.234 50.1016ZM60.234 53.5846H59.234V54.5846H60.234V53.5846ZM69.387 53.5846H70.387V52.5846H69.387V53.5846ZM69.387 62.0896V63.0896H70.387V62.0896H69.387ZM56.184 62.0896V61.0896H55.184V62.0896H56.184ZM56.184 67.3546H55.184V68.3546H56.184V67.3546ZM69.387 67.3546H70.387V66.3546H69.387V67.3546ZM69.387 91.9786L69.5633 92.9629L70.387 92.8154V91.9786H69.387ZM55.131 94.5706L54.9666 93.5842L53.8944 93.7629L54.1617 94.8165L55.131 94.5706ZM56.508 99.9976L55.5387 100.244L55.7724 101.165L56.7041 100.978L56.508 99.9976ZM87.693 93.6796L87.903 94.6573L88.7591 94.4734L88.6899 93.6005L87.693 93.6796ZM57.804 73.0246L57.5615 72.0545L56.4924 72.3217L56.8619 73.3599L57.804 73.0246ZM61.125 88.0906L60.1267 88.1493L60.2 89.3949L61.3997 89.0521L61.125 88.0906ZM65.661 86.7946L65.9357 87.7561L66.7408 87.5261L66.6558 86.6931L65.661 86.7946ZM62.016 71.9716L62.951 71.617L62.6358 70.7859L61.7735 71.0015L62.016 71.9716ZM80.97 87.1186L80.6299 88.059L81.5528 88.3928L81.9039 87.4763L80.97 87.1186ZM85.83 72.4576L86.7848 72.755L87.0824 71.7992L86.1264 71.5025L85.83 72.4576ZM81.132 70.9996L81.4284 70.0445L80.3536 69.711L80.1487 70.8175L81.132 70.9996ZM77.163 85.7416L76.2143 85.4254L75.906 86.3503L76.8229 86.682L77.163 85.7416ZM96.603 51.5596V50.5596H95.603V51.5596H96.603ZM118.878 51.5596H119.878V50.5596H118.878V51.5596ZM118.878 61.1176V62.1176H119.878V61.1176H118.878ZM96.603 61.1176H95.603V62.1176H96.603V61.1176ZM118.878 37.3036H119.878V36.3036H118.878V37.3036ZM118.878 46.2946V47.2946H119.878V46.2946H118.878ZM96.603 46.2946H95.603V47.2946H96.603V46.2946ZM96.603 37.3036V36.3036H95.603V37.3036H96.603ZM123.738 69.7846L124.438 69.0705L123.709 68.356L123.01 69.0992L123.738 69.7846ZM113.37 78.7756L112.447 79.1602L112.943 80.3514L113.973 79.5735L113.37 78.7756ZM109.401 66.3826V65.3826H108.132L108.429 66.6167L109.401 66.3826ZM124.629 66.3826V67.3826H125.629V66.3826H124.629ZM124.629 31.8766H125.629V30.8766H124.629V31.8766ZM90.933 31.8766V30.8766H89.933V31.8766H90.933ZM90.933 94.3276L91.1533 95.303L91.933 95.127V94.3276H90.933ZM84.129 95.7856L83.9329 94.805L82.8596 95.0197L83.1701 96.0692L84.129 95.7856ZM85.83 101.537L84.8711 101.82L85.1373 102.72L86.0525 102.512L85.83 101.537ZM112.155 94.9756L112.412 95.9421L113.237 95.7229L113.15 94.8732L112.155 94.9756ZM111.588 89.4676L112.583 89.3652L112.466 88.2306L111.356 88.4948L111.588 89.4676ZM96.603 93.0316H95.603V94.2967L96.8339 94.0046L96.603 93.0316ZM96.603 66.3826V65.3826H95.603V66.3826H96.603ZM103.974 66.3826L104.952 66.1718L104.781 65.3826H103.974V66.3826ZM126.006 102.59L125.523 103.465L126.381 103.938L126.871 103.091L126.006 102.59ZM129.975 97.5676L130.634 98.3202L131.774 97.322L130.408 96.6661L129.975 97.5676ZM115.638 83.3116L115.083 82.4796L114.311 82.9945L114.767 83.8029L115.638 83.3116ZM127.869 73.8346L128.542 74.5738L129.325 73.8612L128.569 73.1205L127.869 73.8346ZM87.0992 87.5946L74.4632 90.0246L74.8408 91.9886L87.4768 89.5586L87.0992 87.5946ZM75.652 91.0066V67.3546H73.652V91.0066H75.652ZM74.652 68.3546H86.721V66.3546H74.652V68.3546ZM87.721 67.3546V62.0896H85.721V67.3546H87.721ZM86.721 61.0896H74.652V63.0896H86.721V61.0896ZM75.652 62.0896V53.5846H73.652V62.0896H75.652ZM74.652 54.5846H84.615V52.5846H74.652V54.5846ZM85.615 53.5846V48.4006H83.615V53.5846H85.615ZM84.615 47.4006H61.935V49.4006H84.615V47.4006ZM62.66 49.0894C67.3477 44.1549 70.795 38.9812 73.3323 34.5615L71.5977 33.5657C69.113 37.894 65.7563 42.9263 61.21 47.7119L62.66 49.0894ZM71.7904 34.8018C76.4368 39.0476 81.572 44.9871 84.2016 48.7322L85.8384 47.583C83.122 43.7141 77.8892 37.6656 73.1396 33.3254L71.7904 34.8018ZM85.7718 48.817L89.8218 44.2L88.3182 42.8812L84.2682 47.4982L85.7718 48.817ZM89.87 42.9406C86.6487 38.6455 80.1874 32.1906 74.886 27.7864L73.608 29.3248C78.8366 33.6686 85.1733 40.0117 88.27 44.1406L89.87 42.9406ZM74.247 27.5556H68.901V29.5556H74.247V27.5556ZM67.991 28.1409C65.1214 34.4382 59.9409 42.4795 52.4773 48.514L53.7347 50.0692C61.4991 43.7917 66.8486 35.471 69.811 28.9703L67.991 28.1409ZM52.5248 50.1053C53.5513 50.8386 55.2609 52.6178 56.1066 53.771L57.7194 52.5882C56.7831 51.3114 54.9287 49.3647 53.6872 48.4779L52.5248 50.1053ZM57.5638 53.9389C58.7179 52.9496 59.8706 51.8792 60.9411 50.8087L59.5269 49.3945C58.4914 50.43 57.3761 51.4656 56.2622 52.4204L57.5638 53.9389ZM59.234 50.1016V53.5846H61.234V50.1016H59.234ZM60.234 54.5846H69.387V52.5846H60.234V54.5846ZM68.387 53.5846V62.0896H70.387V53.5846H68.387ZM69.387 61.0896H56.184V63.0896H69.387V61.0896ZM55.184 62.0896V67.3546H57.184V62.0896H55.184ZM56.184 68.3546H69.387V66.3546H56.184V68.3546ZM68.387 67.3546V91.9786H70.387V67.3546H68.387ZM69.2107 90.9943C63.7548 91.9715 58.851 92.9368 54.9666 93.5842L55.2954 95.557C59.187 94.9084 64.1652 93.9298 69.5633 92.9629L69.2107 90.9943ZM54.1617 94.8165L55.5387 100.244L57.4773 99.7517L56.1003 94.3247L54.1617 94.8165ZM56.7041 100.978C65.1998 99.279 76.9588 97.0083 87.903 94.6573L87.483 92.7019C76.5572 95.0489 64.8262 97.3142 56.3119 99.017L56.7041 100.978ZM88.6899 93.6005L88.2849 88.4975L86.2911 88.6557L86.6961 93.7587L88.6899 93.6005ZM56.8619 73.3599C58.5396 78.0734 59.8906 84.1348 60.1267 88.1493L62.1233 88.0319C61.8734 83.7844 60.4704 77.5338 58.7461 72.6893L56.8619 73.3599ZM61.3997 89.0521L65.9357 87.7561L65.3863 85.8331L60.8503 87.1291L61.3997 89.0521ZM66.6558 86.6931C66.2411 82.629 64.7607 76.388 62.951 71.617L61.081 72.3263C62.8353 76.9512 64.2709 83.0222 64.6662 86.8961L66.6558 86.6931ZM61.7735 71.0015L57.5615 72.0545L58.0465 73.9947L62.2585 72.9417L61.7735 71.0015ZM81.9039 87.4763C83.3756 83.6333 85.2486 77.6869 86.7848 72.755L84.8752 72.1602C83.3334 77.1103 81.4804 82.9899 80.0361 86.761L81.9039 87.4763ZM86.1264 71.5025L81.4284 70.0445L80.8356 71.9547L85.5336 73.4127L86.1264 71.5025ZM80.1487 70.8175C79.3505 75.1277 77.5031 81.559 76.2143 85.4254L78.1117 86.0578C79.4149 82.1482 81.2935 75.6195 82.1153 71.1817L80.1487 70.8175ZM76.8229 86.682L80.6299 88.059L81.3101 86.1782L77.5031 84.8012L76.8229 86.682ZM96.603 52.5596H118.878V50.5596H96.603V52.5596ZM117.878 51.5596V61.1176H119.878V51.5596H117.878ZM118.878 60.1176H96.603V62.1176H118.878V60.1176ZM97.603 61.1176V51.5596H95.603V61.1176H97.603ZM117.878 37.3036V46.2946H119.878V37.3036H117.878ZM118.878 45.2946H96.603V47.2946H118.878V45.2946ZM97.603 46.2946V37.3036H95.603V46.2946H97.603ZM96.603 38.3036H118.878V36.3036H96.603V38.3036ZM123.01 69.0992C120.473 71.7944 116.392 75.2387 112.767 77.9777L113.973 79.5735C117.638 76.8045 121.819 73.2828 124.466 70.47L123.01 69.0992ZM114.293 78.391C112.697 74.5601 111.416 70.4807 110.373 66.1486L108.429 66.6167C109.492 71.0325 110.803 75.2151 112.447 79.1602L114.293 78.391ZM109.401 67.3826H124.629V65.3826H109.401V67.3826ZM125.629 66.3826V31.8766H123.629V66.3826H125.629ZM124.629 30.8766H90.933V32.8766H124.629V30.8766ZM89.933 31.8766V94.3276H91.933V31.8766H89.933ZM90.7127 93.3522C88.2079 93.9178 85.9481 94.402 83.9329 94.805L84.3251 96.7662C86.3599 96.3592 88.6361 95.8714 91.1533 95.303L90.7127 93.3522ZM83.1701 96.0692L84.8711 101.82L86.7889 101.253L85.0879 95.502L83.1701 96.0692ZM86.0525 102.512C93.5189 100.807 103.251 98.3742 112.412 95.9421L111.898 94.0091C102.753 96.437 93.0451 98.864 85.6075 100.562L86.0525 102.512ZM113.15 94.8732L112.583 89.3652L110.593 89.57L111.16 95.078L113.15 94.8732ZM111.356 88.4948C106.253 89.7098 101.151 90.9247 96.3721 92.0586L96.8339 94.0046C101.613 92.8705 106.717 91.6554 111.82 90.4404L111.356 88.4948ZM97.603 93.0316V66.3826H95.603V93.0316H97.603ZM96.603 67.3826H103.974V65.3826H96.603V67.3826ZM102.996 66.5934C106.582 83.2195 113.399 96.7759 125.523 103.465L126.489 101.714C115.123 95.4433 108.494 82.5937 104.952 66.1718L102.996 66.5934ZM126.871 103.091C127.727 101.614 129.444 99.361 130.634 98.3202L129.316 96.815C127.914 98.0422 126.067 100.488 125.141 102.089L126.871 103.091ZM130.408 96.6661C124.564 93.861 120.001 89.0108 116.509 82.8203L114.767 83.8029C118.403 90.2484 123.236 95.4422 129.542 98.4691L130.408 96.6661ZM116.193 84.1437C120.114 81.5292 124.854 77.9348 128.542 74.5738L127.196 73.0954C123.594 76.3764 118.938 79.91 115.083 82.4796L116.193 84.1437ZM128.569 73.1205L124.438 69.0705L123.038 70.4987L127.169 74.5487L128.569 73.1205ZM68.496 147.124L68.9652 148.007L69.7162 147.608L69.443 146.802L68.496 147.124ZM59.1 130.762L59.9015 130.164L59.408 129.502L58.6648 129.861L59.1 130.762ZM54.24 133.111L53.8048 132.21L52.7254 132.732L53.4324 133.7L54.24 133.111ZM63.312 149.878L62.365 150.199L62.7428 151.312L63.7812 150.761L63.312 149.878ZM69.63 163.729L70.1496 164.583L70.63 164.291V163.729H69.63ZM53.43 173.206L52.9414 172.333L52.1088 172.799L52.5356 173.653L53.43 173.206ZM56.427 179.2L55.5326 179.647L56.0368 180.655L56.9778 180.034L56.427 179.2ZM69.63 170.209H70.63V168.265L69.0488 169.395L69.63 170.209ZM69.63 194.347H68.63V195.347H69.63V194.347ZM75.381 194.347V195.347H76.381V194.347H75.381ZM75.381 120.556H76.381V119.556H75.381V120.556ZM69.63 120.556V119.556H68.63V120.556H69.63ZM119.526 120.475L120.264 119.8L119.832 119.327L119.222 119.522L119.526 120.475ZM77.973 128.089L77.8536 127.096L76.3216 127.28L77.1155 128.603L77.973 128.089ZM79.674 132.868L78.6801 132.978L78.7902 133.969L79.7815 133.862L79.674 132.868ZM123.819 125.173L124.107 126.13L125.63 125.672L124.557 124.498L123.819 125.173ZM105.999 147.124L106.251 148.091L107.084 147.874L106.993 147.018L105.999 147.124ZM102.03 132.625L102.954 132.242L102.625 131.448L101.791 131.654L102.03 132.625ZM96.765 133.921L96.526 132.95L95.4295 133.219L95.83 134.275L96.765 133.921ZM100.41 148.582L99.4136 148.666L99.5142 149.849L100.662 149.549L100.41 148.582ZM91.905 149.959L92.2467 150.898L93.0734 150.598L92.8807 149.74L91.905 149.959ZM85.911 135.379L86.7725 134.871L86.364 134.178L85.5995 134.428L85.911 135.379ZM80.97 136.999L80.6584 136.048L79.5498 136.412L80.0786 137.452L80.97 136.999ZM86.559 151.903L85.58 152.107L85.8155 153.237L86.9007 152.842L86.559 151.903ZM85.263 170.29L84.7924 169.407L83.6247 170.03L84.5427 170.983L85.263 170.29ZM95.793 184.87L94.8845 185.288L95.3486 186.296L96.3035 185.729L95.793 184.87ZM100.977 181.792L101.488 182.651L102.287 182.176L101.871 181.344L100.977 181.792ZM90.123 167.698L90.8301 166.99L90.3062 166.467L89.6524 166.815L90.123 167.698ZM128.436 158.788H129.436V157.788H128.436V158.788ZM117.42 158.788H116.42V159.788H117.42V158.788ZM117.42 152.389H118.42V151.389H117.42V152.389ZM113.613 152.389L112.853 151.739L111.443 153.389H113.613V152.389ZM126.978 134.326L127.818 134.867L128.423 133.93L127.425 133.431L126.978 134.326ZM121.47 131.572L121.917 130.677L121.041 130.239L120.585 131.106L121.47 131.572ZM107.538 151.417L106.78 150.764L105.989 151.683L107.042 152.285L107.538 151.417ZM111.507 153.685H112.507V153.104L112.003 152.816L111.507 153.685ZM111.507 158.788V159.788H112.507V158.788H111.507ZM78.702 158.788V157.788H77.702V158.788H78.702ZM78.702 164.377H77.702V165.377H78.702V164.377ZM111.507 164.377H112.507V163.377H111.507V164.377ZM109.806 188.596L109.747 187.597L109.744 187.598L109.806 188.596ZM98.952 188.515L98.9842 187.515L97.2706 187.46L98.0662 188.979L98.952 188.515ZM100.977 194.347L99.9881 194.495L100.116 195.347H100.977V194.347ZM114.099 193.375L114.433 194.317L114.442 194.314L114.45 194.311L114.099 193.375ZM117.42 164.377V163.377H116.42V164.377H117.42ZM128.436 164.377V165.377H129.436V164.377H128.436ZM69.443 146.802C67.8541 142.119 63.7314 135.297 59.9015 130.164L58.2985 131.36C62.0826 136.432 66.0599 143.056 67.549 147.445L69.443 146.802ZM58.6648 129.861L53.8048 132.21L54.6752 134.011L59.5352 131.662L58.6648 129.861ZM53.4324 133.7C57.1115 138.739 60.865 145.778 62.365 150.199L64.259 149.556C62.681 144.906 58.8205 137.688 55.0476 132.521L53.4324 133.7ZM63.7812 150.761L68.9652 148.007L68.0268 146.24L62.8428 148.994L63.7812 150.761ZM69.1104 162.874C63.127 166.513 56.9814 170.071 52.9414 172.333L53.9186 174.078C57.9786 171.804 64.145 168.234 70.1496 164.583L69.1104 162.874ZM52.5356 173.653L55.5326 179.647L57.3214 178.752L54.3244 172.758L52.5356 173.653ZM56.9778 180.034C61.0296 177.36 65.6594 174.274 70.2112 171.022L69.0488 169.395C64.5286 172.624 59.9244 175.693 55.8762 178.365L56.9778 180.034ZM68.63 170.209V194.347H70.63V170.209H68.63ZM69.63 195.347H75.381V193.347H69.63V195.347ZM76.381 194.347V120.556H74.381V194.347H76.381ZM75.381 119.556H69.63V121.556H75.381V119.556ZM68.63 120.556V163.729H70.63V120.556H68.63ZM119.222 119.522C109.683 122.568 92.6771 125.314 77.8536 127.096L78.0924 129.081C92.9149 127.3 110.091 124.537 119.83 121.427L119.222 119.522ZM77.1155 128.603C77.7884 129.725 78.5374 131.694 78.6801 132.978L80.6679 132.757C80.4866 131.125 79.6156 128.883 78.8305 127.574L77.1155 128.603ZM79.7815 133.862C94.7727 132.241 112.429 129.642 124.107 126.13L123.531 124.215C112.043 127.669 94.5453 130.254 79.5665 131.873L79.7815 133.862ZM124.557 124.498L120.264 119.8L118.788 121.149L123.081 125.847L124.557 124.498ZM106.993 147.018C106.576 143.094 104.925 137.006 102.954 132.242L101.106 133.007C103.023 137.639 104.612 143.539 105.005 147.229L106.993 147.018ZM101.791 131.654L96.526 132.95L97.004 134.892L102.269 133.596L101.791 131.654ZM95.83 134.275C97.5895 138.914 99.0996 144.977 99.4136 148.666L101.406 148.497C101.072 144.572 99.5045 138.323 97.7 133.566L95.83 134.275ZM100.662 149.549L106.251 148.091L105.747 146.156L100.158 147.614L100.662 149.549ZM92.8807 149.74C91.9639 145.656 89.4909 139.484 86.7725 134.871L85.0495 135.886C87.6771 140.345 90.0641 146.324 90.9293 150.178L92.8807 149.74ZM85.5995 134.428L80.6584 136.048L81.2816 137.949L86.2226 136.329L85.5995 134.428ZM80.0786 137.452C82.4825 142.18 84.7934 148.331 85.58 152.107L87.538 151.699C86.7046 147.698 84.3175 141.376 81.8614 136.545L80.0786 137.452ZM86.9007 152.842L92.2467 150.898L91.5633 149.019L86.2173 150.963L86.9007 152.842ZM84.5427 170.983C88.7042 175.305 93.0824 181.37 94.8845 185.288L96.7015 184.452C94.7777 180.269 90.2458 174.022 85.9833 169.596L84.5427 170.983ZM96.3035 185.729L101.488 182.651L100.466 180.932L95.2825 184.01L96.3035 185.729ZM101.871 181.344C99.7789 177.159 94.9986 171.159 90.8301 166.99L89.4159 168.405C93.5094 172.498 98.1251 178.324 100.083 182.239L101.871 181.344ZM89.6524 166.815L84.7924 169.407L85.7336 171.172L90.5936 168.58L89.6524 166.815ZM128.436 157.788H117.42V159.788H128.436V157.788ZM118.42 158.788V152.389H116.42V158.788H118.42ZM117.42 151.389H113.613V153.389H117.42V151.389ZM114.373 153.038C118.698 147.98 123.827 141.058 127.818 134.867L126.138 133.784C122.191 139.905 117.114 146.754 112.853 151.739L114.373 153.038ZM127.425 133.431L121.917 130.677L121.023 132.466L126.531 135.22L127.425 133.431ZM120.585 131.106C117.311 137.335 111.287 145.533 106.78 150.764L108.296 152.069C112.861 146.77 118.987 138.445 122.355 132.037L120.585 131.106ZM107.042 152.285L111.011 154.553L112.003 152.816L108.034 150.548L107.042 152.285ZM110.507 153.685V158.788H112.507V153.685H110.507ZM111.507 157.788H78.702V159.788H111.507V157.788ZM77.702 158.788V164.377H79.702V158.788H77.702ZM78.702 165.377H111.507V163.377H78.702V165.377ZM110.507 164.377V187.057H112.507V164.377H110.507ZM110.507 187.057C110.507 187.329 110.487 187.471 110.469 187.541C110.455 187.59 110.459 187.548 110.512 187.501C110.553 187.465 110.556 187.487 110.422 187.519C110.284 187.551 110.076 187.578 109.747 187.597L109.865 189.594C110.225 189.573 110.573 189.538 110.884 189.465C111.198 189.39 111.54 189.26 111.834 189.002C112.449 188.46 112.507 187.668 112.507 187.057H110.507ZM109.744 187.598C108.5 187.675 104.008 187.677 98.9842 187.515L98.9198 189.514C103.94 189.676 108.52 189.678 109.868 189.594L109.744 187.598ZM98.0662 188.979C98.9191 190.607 99.7655 193.011 99.9881 194.495L101.966 194.198C101.703 192.442 100.767 189.824 99.8378 188.051L98.0662 188.979ZM100.977 195.347C104.133 195.347 106.815 195.327 109.026 195.193C111.224 195.06 113.04 194.811 114.433 194.317L113.765 192.432C112.647 192.829 111.061 193.066 108.905 193.197C106.763 193.326 104.139 193.347 100.977 193.347V195.347ZM114.45 194.311C115.925 193.758 116.98 192.923 117.624 191.649C118.239 190.431 118.42 188.92 118.42 187.138H116.42C116.42 188.838 116.236 189.96 115.839 190.747C115.47 191.477 114.865 192.019 113.748 192.438L114.45 194.311ZM118.42 187.138V164.377H116.42V187.138H118.42ZM117.42 165.377H128.436V163.377H117.42V165.377ZM129.436 164.377V158.788H127.436V164.377H129.436Z" fill="#B1941A"/>
</g>
</g>
<defs>
<filter id="filter0_d" x="0.983337" y="0" width="182.028" height="236" filterUnits="userSpaceOnUse" color-interpolation-filters="sRGB">
<feFlood flood-opacity="0" result="BackgroundImageFix"/>
<feColorMatrix in="SourceAlpha" type="matrix" values="0 0 0 0 0 0 0 0 0 0 0 0 0 0 0 0 0 0 127 0"/>
<feOffset dy="4"/>
<feGaussianBlur stdDeviation="2"/>
<feColorMatrix type="matrix" values="0 0 0 0 0 0 0 0 0 0 0 0 0 0 0 0 0 0 0.25 0"/>
<feBlend mode="normal" in2="BackgroundImageFix" result="effect1_dropShadow"/>
<feBlend mode="normal" in="SourceGraphic" in2="effect1_dropShadow" result="shape"/>
</filter>
<filter id="filter1_b" x="0.983337" y="-4" width="182.028" height="224.741" filterUnits="userSpaceOnUse" color-interpolation-filters="sRGB">
<feFlood flood-opacity="0" result="BackgroundImageFix"/>
<feGaussianBlur in="BackgroundImage" stdDeviation="2"/>
<feComposite in2="SourceAlpha" operator="in" result="effect1_backgroundBlur"/>
<feBlend mode="normal" in="SourceGraphic" in2="effect1_backgroundBlur" result="shape"/>
</filter>
<filter id="filter2_d" x="47.4545" y="27.5556" width="88.3197" height="175.791" filterUnits="userSpaceOnUse" color-interpolation-filters="sRGB">
<feFlood flood-opacity="0" result="BackgroundImageFix"/>
<feColorMatrix in="SourceAlpha" type="matrix" values="0 0 0 0 0 0 0 0 0 0 0 0 0 0 0 0 0 0 127 0"/>
<feOffset dy="4"/>
<feGaussianBlur stdDeviation="2"/>
<feColorMatrix type="matrix" values="0 0 0 0 0 0 0 0 0 0 0 0 0 0 0 0 0 0 0.25 0"/>
<feBlend mode="normal" in2="BackgroundImageFix" result="effect1_dropShadow"/>
<feBlend mode="normal" in="SourceGraphic" in2="effect1_dropShadow" result="shape"/>
</filter>
</defs>
</svg>
