<svg width="184" height="236" viewBox="0 0 184 236" fill="none" xmlns="http://www.w3.org/2000/svg">
<g filter="url(#filter0_d)">
<g filter="url(#filter1_b)">
<path d="M19.9 31.4897L92.4944 0L164.094 31.4897L179.011 216.741H4.98333L19.9 31.4897Z" fill="#524F48"/>
<path d="M5.52521 216.241L20.3743 31.829L92.4931 0.545613L163.62 31.8273L178.469 216.241H5.52521Z" stroke="#524F48"/>
</g>
<rect x="4.98333" y="216.741" width="174.028" height="11.2593" fill="#272624"/>
<g filter="url(#filter2_d)">
<path d="M105.27 32.5246C110.373 35.2786 116.529 39.4096 119.607 42.2446L123.333 38.1136C120.174 35.2786 113.856 31.3906 108.834 28.8796L105.27 32.5246ZM116.772 54.3946C114.261 62.5756 110.778 69.8656 106.404 76.2646C104.217 68.5696 102.759 58.9306 101.949 48.1576H127.707V42.2446H101.544C101.301 37.8706 101.22 33.3346 101.22 28.6366H94.983C95.064 33.2536 95.145 37.7896 95.469 42.2446H61.692V64.8436C61.692 75.2926 60.963 89.1436 54.321 99.0256C55.698 99.7546 58.29 101.861 59.343 103.076C66.633 92.5456 67.848 76.2646 67.848 64.9246V64.2766H82.59C82.266 78.2086 81.861 83.3116 80.727 84.5266C80.241 85.2556 79.431 85.4176 78.297 85.4176C76.92 85.4176 73.437 85.3366 69.711 85.0126C70.683 86.5516 71.331 88.8196 71.412 90.6826C75.381 90.8446 79.026 90.8446 81.051 90.6826C83.319 90.4396 84.696 89.8726 85.911 88.3336C87.612 86.2276 88.098 79.4236 88.503 61.2796V58.6876H67.848V48.1576H95.793C96.846 61.1986 98.79 73.1056 101.706 82.2586C96.522 88.3336 90.285 93.3556 83.076 97.2436C84.453 98.3776 86.559 100.808 87.45 102.023C93.687 98.3776 99.276 93.8416 104.136 88.5766C107.862 96.9196 112.722 101.861 118.959 101.861C125.115 101.861 127.302 97.8916 128.436 84.1216C126.816 83.6356 124.629 82.2586 123.252 80.8816C122.685 91.6546 121.713 95.8666 119.445 95.8666C115.314 95.8666 111.588 91.2496 108.591 83.3116C114.585 75.6166 119.364 66.3826 122.847 55.9336L116.772 54.3946ZM101.22 148.825H81.699V154.495H127.626V148.825H107.214V136.999H123.738V131.491H107.214V120.961H101.22V131.491H84.534V136.999H101.22V148.825ZM81.456 159.274C80.079 157.087 74.166 148.015 72.06 145.099V141.697H81.78V136.027H72.06V120.475H66.471V136.027H55.941V141.697H65.904C63.393 152.713 58.29 165.43 53.106 172.234C54.159 173.692 55.698 176.284 56.346 178.066C60.072 172.639 63.717 163.972 66.471 154.981V194.428H72.06V152.47C74.247 156.439 76.677 161.137 77.811 163.567L81.456 159.274ZM107.214 185.68V172.396H124.953V166.807H107.214V157.492H101.22V166.807H83.238V172.396H101.22V185.68H77.811V191.431H128.517V185.68H107.214Z" fill="#B1941A"/>
<path d="M105.27 32.5246L104.555 31.8255L103.627 32.7744L104.795 33.4046L105.27 32.5246ZM119.607 42.2446L118.93 42.9801L119.673 43.6647L120.35 42.9144L119.607 42.2446ZM123.333 38.1136L124.076 38.7834L124.747 38.0389L124.001 37.3694L123.333 38.1136ZM108.834 28.8796L109.281 27.9852L108.629 27.659L108.119 28.1805L108.834 28.8796ZM116.772 54.3946L117.018 53.4252L116.095 53.1916L115.816 54.1012L116.772 54.3946ZM106.404 76.2646L105.442 76.538L106.025 78.5905L107.23 76.8289L106.404 76.2646ZM101.949 48.1576V47.1576H100.871L100.952 48.2326L101.949 48.1576ZM127.707 48.1576V49.1576H128.707V48.1576H127.707ZM127.707 42.2446H128.707V41.2446H127.707V42.2446ZM101.544 42.2446L100.546 42.3001L100.598 43.2446H101.544V42.2446ZM101.22 28.6366H102.22V27.6366H101.22V28.6366ZM94.983 28.6366V27.6366H93.9653L93.9832 28.6541L94.983 28.6366ZM95.469 42.2446V43.2446H96.5444L96.4664 42.1721L95.469 42.2446ZM61.692 42.2446V41.2446H60.692V42.2446H61.692ZM54.321 99.0256L53.491 98.4678L52.8714 99.3897L53.8531 99.9094L54.321 99.0256ZM59.343 103.076L58.5873 103.731L59.4315 104.705L60.1652 103.645L59.343 103.076ZM67.848 64.2766V63.2766H66.848V64.2766H67.848ZM82.59 64.2766L83.5897 64.2999L83.6135 63.2766H82.59V64.2766ZM80.727 84.5266L79.9959 83.8443L79.9402 83.904L79.8949 83.9719L80.727 84.5266ZM69.711 85.0126L69.7976 84.0164L67.7887 83.8417L68.8655 85.5466L69.711 85.0126ZM71.412 90.6826L70.4129 90.726L70.4529 91.6443L71.3712 91.6818L71.412 90.6826ZM81.051 90.6826L81.1307 91.6794L81.1442 91.6783L81.1575 91.6769L81.051 90.6826ZM85.911 88.3336L85.133 87.7052L85.1261 87.714L85.911 88.3336ZM88.503 61.2796L89.5028 61.3019L89.503 61.2908V61.2796H88.503ZM88.503 58.6876H89.503V57.6876H88.503V58.6876ZM67.848 58.6876H66.848V59.6876H67.848V58.6876ZM67.848 48.1576V47.1576H66.848V48.1576H67.848ZM95.793 48.1576L96.7898 48.0771L96.7155 47.1576H95.793V48.1576ZM101.706 82.2586L102.467 82.9077L102.828 82.4848L102.659 81.9551L101.706 82.2586ZM83.076 97.2436L82.6013 96.3635L81.2918 97.0697L82.4403 98.0155L83.076 97.2436ZM87.45 102.023L86.6436 102.614L87.1765 103.341L87.9546 102.886L87.45 102.023ZM104.136 88.5766L105.049 88.1688L104.43 86.7834L103.401 87.8983L104.136 88.5766ZM128.436 84.1216L129.433 84.2037L129.499 83.3965L128.723 83.1638L128.436 84.1216ZM123.252 80.8816L123.959 80.1745L122.371 78.5868L122.253 80.829L123.252 80.8816ZM108.591 83.3116L107.802 82.6971L107.457 83.1398L107.655 83.6648L108.591 83.3116ZM122.847 55.9336L123.796 56.2498L124.136 55.2286L123.093 54.9642L122.847 55.9336ZM104.795 33.4046C109.858 36.1368 115.935 40.2222 118.93 42.9801L120.284 41.5091C117.123 38.597 110.888 34.4204 105.745 31.6446L104.795 33.4046ZM120.35 42.9144L124.076 38.7834L122.59 37.4438L118.864 41.5748L120.35 42.9144ZM124.001 37.3694C120.745 34.4472 114.335 30.5123 109.281 27.9852L108.387 29.774C113.377 32.2689 119.603 36.11 122.665 38.8578L124.001 37.3694ZM108.119 28.1805L104.555 31.8255L105.985 33.2237L109.549 29.5787L108.119 28.1805ZM115.816 54.1012C113.332 62.1927 109.892 69.3903 105.578 75.7003L107.23 76.8289C111.664 70.341 115.19 62.9585 117.728 54.688L115.816 54.1012ZM107.366 75.9912C105.204 68.3848 103.753 58.8188 102.946 48.0826L100.952 48.2326C101.765 59.0424 103.23 68.7544 105.442 76.538L107.366 75.9912ZM101.949 49.1576H127.707V47.1576H101.949V49.1576ZM128.707 48.1576V42.2446H126.707V48.1576H128.707ZM127.707 41.2446H101.544V43.2446H127.707V41.2446ZM102.542 42.1891C102.301 37.8401 102.22 33.3241 102.22 28.6366H100.22C100.22 33.3452 100.301 37.9011 100.546 42.3001L102.542 42.1891ZM101.22 27.6366H94.983V29.6366H101.22V27.6366ZM93.9832 28.6541C94.0641 33.2664 94.1453 37.8301 94.4716 42.3171L96.4664 42.1721C96.1447 37.7491 96.0639 33.2408 95.9828 28.6191L93.9832 28.6541ZM95.469 41.2446H61.692V43.2446H95.469V41.2446ZM60.692 42.2446V64.8436H62.692V42.2446H60.692ZM60.692 64.8436C60.692 75.3109 59.9434 88.8679 53.491 98.4678L55.151 99.5834C61.9826 89.4193 62.692 75.2744 62.692 64.8436H60.692ZM53.8531 99.9094C54.4547 100.228 55.3871 100.888 56.3248 101.646C57.2596 102.402 58.1179 103.189 58.5873 103.731L60.0987 102.421C59.5151 101.747 58.5509 100.874 57.5822 100.091C56.6164 99.3099 55.5643 98.5523 54.7889 98.1418L53.8531 99.9094ZM60.1652 103.645C63.9248 98.2143 66.0861 91.354 67.3137 84.4796C68.5431 77.5951 68.848 70.6252 68.848 64.9246H66.848C66.848 70.564 66.5454 77.4046 65.3448 84.1281C64.1424 90.8617 62.0512 97.4069 58.5208 102.506L60.1652 103.645ZM68.848 64.9246V64.2766H66.848V64.9246H68.848ZM67.848 65.2766H82.59V63.2766H67.848V65.2766ZM81.5903 64.2534C81.4282 71.222 81.2464 75.9496 80.9662 79.0814C80.826 80.6492 80.6639 81.7823 80.4771 82.5817C80.2821 83.4169 80.0908 83.7427 79.9959 83.8443L81.4581 85.2089C81.9302 84.703 82.2148 83.9353 82.4247 83.0366C82.643 82.1021 82.815 80.8608 82.9583 79.2596C83.2451 76.0531 83.4278 71.2632 83.5897 64.2999L81.5903 64.2534ZM79.8949 83.9719C79.7177 84.2377 79.4074 84.4176 78.297 84.4176V86.4176C79.4546 86.4176 80.7643 86.2735 81.5591 85.0813L79.8949 83.9719ZM78.297 84.4176C76.9446 84.4176 73.4908 84.3375 69.7976 84.0164L69.6244 86.0088C73.3832 86.3357 76.8954 86.4176 78.297 86.4176V84.4176ZM68.8655 85.5466C69.7332 86.9205 70.3385 89.0149 70.4129 90.726L72.4111 90.6392C72.3235 88.6243 71.6328 86.1827 70.5565 84.4786L68.8655 85.5466ZM71.3712 91.6818C75.3501 91.8442 79.0439 91.8464 81.1307 91.6794L80.9713 89.6858C79.0081 89.8428 75.4119 89.845 71.4528 89.6834L71.3712 91.6818ZM81.1575 91.6769C82.3446 91.5497 83.3786 91.3305 84.2994 90.9C85.2369 90.4617 86.0041 89.8296 86.6959 88.9533L85.1261 87.714C84.6029 88.3767 84.0741 88.7976 83.4523 89.0882C82.8139 89.3867 82.0254 89.5725 80.9445 89.6883L81.1575 91.6769ZM86.6889 88.9619C87.253 88.2635 87.6455 87.2722 87.9492 86.002C88.2566 84.7162 88.4948 83.0466 88.6889 80.9114C89.0772 76.6399 89.3004 70.3695 89.5028 61.3019L87.5033 61.2573C87.3007 70.3337 87.0783 76.5374 86.6971 80.7303C86.5065 82.8273 86.2789 84.3876 86.0041 85.5369C85.7256 86.7017 85.4195 87.3507 85.1331 87.7053L86.6889 88.9619ZM89.503 61.2796V58.6876H87.503V61.2796H89.503ZM88.503 57.6876H67.848V59.6876H88.503V57.6876ZM68.848 58.6876V48.1576H66.848V58.6876H68.848ZM67.848 49.1576H95.793V47.1576H67.848V49.1576ZM94.7962 48.2381C95.8523 61.3172 97.8049 73.3079 100.753 82.5622L102.659 81.9551C99.7751 72.9033 97.8397 61.08 96.7898 48.0771L94.7962 48.2381ZM100.945 81.6095C95.8433 87.5884 89.7039 92.5328 82.6013 96.3635L83.5507 98.1238C90.8661 94.1784 97.2007 89.0788 102.467 82.9077L100.945 81.6095ZM82.4403 98.0155C83.7297 99.0774 85.7798 101.436 86.6436 102.614L88.2564 101.431C87.3382 100.179 85.1763 97.6778 83.7117 96.4717L82.4403 98.0155ZM87.9546 102.886C94.2794 99.1896 99.9455 94.5906 104.871 89.2549L103.401 87.8983C98.6065 93.0926 93.0946 97.5656 86.9454 101.159L87.9546 102.886ZM103.223 88.9844C106.984 97.407 112.092 102.861 118.959 102.861V100.861C113.352 100.861 108.74 96.4322 105.049 88.1688L103.223 88.9844ZM118.959 102.861C120.601 102.861 122.071 102.597 123.352 101.905C124.645 101.208 125.659 100.122 126.462 98.6282C128.03 95.7086 128.867 91.0761 129.433 84.2037L127.439 84.0395C126.871 90.9371 126.047 95.1741 124.7 97.6815C124.045 98.9008 123.287 99.6681 122.403 100.145C121.507 100.628 120.395 100.861 118.959 100.861V102.861ZM128.723 83.1638C127.289 82.7333 125.241 81.4559 123.959 80.1745L122.545 81.5887C124.017 83.0613 126.343 84.5379 128.149 85.0794L128.723 83.1638ZM122.253 80.829C121.97 86.2177 121.588 89.8764 121.016 92.1724C120.729 93.3263 120.416 94.038 120.115 94.4433C119.845 94.8055 119.635 94.8666 119.445 94.8666V96.8666C120.389 96.8666 121.151 96.4012 121.719 95.637C122.256 94.9159 122.647 93.9013 122.957 92.6556C123.58 90.1523 123.967 86.3185 124.251 80.9342L122.253 80.829ZM119.445 94.8666C117.786 94.8666 116.075 93.9446 114.355 91.9186C112.636 89.8943 111.005 86.8735 109.527 82.9584L107.655 83.6648C109.174 87.6877 110.904 90.9444 112.83 93.2131C114.755 95.4801 116.973 96.8666 119.445 96.8666V94.8666ZM109.38 83.9261C115.454 76.1288 120.282 66.7902 123.796 56.2498L121.898 55.6174C118.446 65.975 113.716 75.1044 107.802 82.6971L109.38 83.9261ZM123.093 54.9642L117.018 53.4252L116.526 55.364L122.601 56.903L123.093 54.9642ZM101.22 148.825V149.825H102.22V148.825H101.22ZM81.699 148.825V147.825H80.699V148.825H81.699ZM81.699 154.495H80.699V155.495H81.699V154.495ZM127.626 154.495V155.495H128.626V154.495H127.626ZM127.626 148.825H128.626V147.825H127.626V148.825ZM107.214 148.825H106.214V149.825H107.214V148.825ZM107.214 136.999V135.999H106.214V136.999H107.214ZM123.738 136.999V137.999H124.738V136.999H123.738ZM123.738 131.491H124.738V130.491H123.738V131.491ZM107.214 131.491H106.214V132.491H107.214V131.491ZM107.214 120.961H108.214V119.961H107.214V120.961ZM101.22 120.961V119.961H100.22V120.961H101.22ZM101.22 131.491V132.491H102.22V131.491H101.22ZM84.534 131.491V130.491H83.534V131.491H84.534ZM84.534 136.999H83.534V137.999H84.534V136.999ZM101.22 136.999H102.22V135.999H101.22V136.999ZM81.456 159.274L82.2183 159.921L82.6931 159.362L82.3022 158.741L81.456 159.274ZM72.06 145.099H71.06V145.422L71.2493 145.684L72.06 145.099ZM72.06 141.697V140.697H71.06V141.697H72.06ZM81.78 141.697V142.697H82.78V141.697H81.78ZM81.78 136.027H82.78V135.027H81.78V136.027ZM72.06 136.027H71.06V137.027H72.06V136.027ZM72.06 120.475H73.06V119.475H72.06V120.475ZM66.471 120.475V119.475H65.471V120.475H66.471ZM66.471 136.027V137.027H67.471V136.027H66.471ZM55.941 136.027V135.027H54.941V136.027H55.941ZM55.941 141.697H54.941V142.697H55.941V141.697ZM65.904 141.697L66.879 141.919L67.1576 140.697H65.904V141.697ZM53.106 172.234L52.3106 171.628L51.861 172.218L52.2953 172.819L53.106 172.234ZM56.346 178.066L55.4062 178.407L56.0704 180.234L57.1704 178.632L56.346 178.066ZM66.471 154.981H67.471L65.5149 154.688L66.471 154.981ZM66.471 194.428H65.471V195.428H66.471V194.428ZM72.06 194.428V195.428H73.06V194.428H72.06ZM72.06 152.47L72.9358 151.987L71.06 152.47H72.06ZM77.811 163.567L76.9048 163.989L77.5642 165.402L78.5733 164.214L77.811 163.567ZM107.214 185.68H106.214V186.68H107.214V185.68ZM107.214 172.396V171.396H106.214V172.396H107.214ZM124.953 172.396V173.396H125.953V172.396H124.953ZM124.953 166.807H125.953V165.807H124.953V166.807ZM107.214 166.807H106.214V167.807H107.214V166.807ZM107.214 157.492H108.214V156.492H107.214V157.492ZM101.22 157.492V156.492H100.22V157.492H101.22ZM101.22 166.807V167.807H102.22V166.807H101.22ZM83.238 166.807V165.807H82.238V166.807H83.238ZM83.238 172.396H82.238V173.396H83.238V172.396ZM101.22 172.396H102.22V171.396H101.22V172.396ZM101.22 185.68V186.68H102.22V185.68H101.22ZM77.811 185.68V184.68H76.811V185.68H77.811ZM77.811 191.431H76.811V192.431H77.811V191.431ZM128.517 191.431V192.431H129.517V191.431H128.517ZM128.517 185.68H129.517V184.68H128.517V185.68ZM101.22 147.825H81.699V149.825H101.22V147.825ZM80.699 148.825V154.495H82.699V148.825H80.699ZM81.699 155.495H127.626V153.495H81.699V155.495ZM128.626 154.495V148.825H126.626V154.495H128.626ZM127.626 147.825H107.214V149.825H127.626V147.825ZM108.214 148.825V136.999H106.214V148.825H108.214ZM107.214 137.999H123.738V135.999H107.214V137.999ZM124.738 136.999V131.491H122.738V136.999H124.738ZM123.738 130.491H107.214V132.491H123.738V130.491ZM108.214 131.491V120.961H106.214V131.491H108.214ZM107.214 119.961H101.22V121.961H107.214V119.961ZM100.22 120.961V131.491H102.22V120.961H100.22ZM101.22 130.491H84.534V132.491H101.22V130.491ZM83.534 131.491V136.999H85.534V131.491H83.534ZM84.534 137.999H101.22V135.999H84.534V137.999ZM100.22 136.999V148.825H102.22V136.999H100.22ZM82.3022 158.741C80.9235 156.551 74.9964 147.456 72.8707 144.513L71.2493 145.684C73.3356 148.573 79.2346 157.622 80.6098 159.806L82.3022 158.741ZM73.06 145.099V141.697H71.06V145.099H73.06ZM72.06 142.697H81.78V140.697H72.06V142.697ZM82.78 141.697V136.027H80.78V141.697H82.78ZM81.78 135.027H72.06V137.027H81.78V135.027ZM73.06 136.027V120.475H71.06V136.027H73.06ZM72.06 119.475H66.471V121.475H72.06V119.475ZM65.471 120.475V136.027H67.471V120.475H65.471ZM66.471 135.027H55.941V137.027H66.471V135.027ZM54.941 136.027V141.697H56.941V136.027H54.941ZM55.941 142.697H65.904V140.697H55.941V142.697ZM64.929 141.474C62.4346 152.417 57.3745 164.981 52.3106 171.628L53.9014 172.84C59.2055 165.878 64.3514 153.008 66.879 141.919L64.929 141.474ZM52.2953 172.819C53.3194 174.237 54.8017 176.745 55.4062 178.407L57.2858 177.724C56.5943 175.822 54.9986 173.146 53.9167 171.648L52.2953 172.819ZM57.1704 178.632C60.9806 173.082 64.6614 164.303 67.4272 155.273L65.5149 154.688C62.7726 163.64 59.1634 172.195 55.5216 177.5L57.1704 178.632ZM65.471 154.981V194.428H67.471V154.981H65.471ZM66.471 195.428H72.06V193.428H66.471V195.428ZM73.06 194.428V152.47H71.06V194.428H73.06ZM71.1842 152.952C73.366 156.912 75.7841 161.588 76.9048 163.989L78.7172 163.144C77.5699 160.685 75.128 155.965 72.9358 151.987L71.1842 152.952ZM78.5733 164.214L82.2183 159.921L80.6937 158.626L77.0487 162.919L78.5733 164.214ZM108.214 185.68V172.396H106.214V185.68H108.214ZM107.214 173.396H124.953V171.396H107.214V173.396ZM125.953 172.396V166.807H123.953V172.396H125.953ZM124.953 165.807H107.214V167.807H124.953V165.807ZM108.214 166.807V157.492H106.214V166.807H108.214ZM107.214 156.492H101.22V158.492H107.214V156.492ZM100.22 157.492V166.807H102.22V157.492H100.22ZM101.22 165.807H83.238V167.807H101.22V165.807ZM82.238 166.807V172.396H84.238V166.807H82.238ZM83.238 173.396H101.22V171.396H83.238V173.396ZM100.22 172.396V185.68H102.22V172.396H100.22ZM101.22 184.68H77.811V186.68H101.22V184.68ZM76.811 185.68V191.431H78.811V185.68H76.811ZM77.811 192.431H128.517V190.431H77.811V192.431ZM129.517 191.431V185.68H127.517V191.431H129.517ZM128.517 184.68H107.214V186.68H128.517V184.68Z" fill="#B1941A"/>
</g>
</g>
<defs>
<filter id="filter0_d" x="0.98333" y="0" width="182.028" height="236" filterUnits="userSpaceOnUse" color-interpolation-filters="sRGB">
<feFlood flood-opacity="0" result="BackgroundImageFix"/>
<feColorMatrix in="SourceAlpha" type="matrix" values="0 0 0 0 0 0 0 0 0 0 0 0 0 0 0 0 0 0 127 0"/>
<feOffset dy="4"/>
<feGaussianBlur stdDeviation="2"/>
<feColorMatrix type="matrix" values="0 0 0 0 0 0 0 0 0 0 0 0 0 0 0 0 0 0 0.25 0"/>
<feBlend mode="normal" in2="BackgroundImageFix" result="effect1_dropShadow"/>
<feBlend mode="normal" in="SourceGraphic" in2="effect1_dropShadow" result="shape"/>
</filter>
<filter id="filter1_b" x="0.98333" y="-4" width="182.028" height="224.741" filterUnits="userSpaceOnUse" color-interpolation-filters="sRGB">
<feFlood flood-opacity="0" result="BackgroundImageFix"/>
<feGaussianBlur in="BackgroundImage" stdDeviation="2"/>
<feComposite in2="SourceAlpha" operator="in" result="effect1_backgroundBlur"/>
<feBlend mode="normal" in="SourceGraphic" in2="effect1_backgroundBlur" result="shape"/>
</filter>
<filter id="filter2_d" x="47.861" y="27.6366" width="85.656" height="175.791" filterUnits="userSpaceOnUse" color-interpolation-filters="sRGB">
<feFlood flood-opacity="0" result="BackgroundImageFix"/>
<feColorMatrix in="SourceAlpha" type="matrix" values="0 0 0 0 0 0 0 0 0 0 0 0 0 0 0 0 0 0 127 0"/>
<feOffset dy="4"/>
<feGaussianBlur stdDeviation="2"/>
<feColorMatrix type="matrix" values="0 0 0 0 0 0 0 0 0 0 0 0 0 0 0 0 0 0 0.25 0"/>
<feBlend mode="normal" in2="BackgroundImageFix" result="effect1_dropShadow"/>
<feBlend mode="normal" in="SourceGraphic" in2="effect1_dropShadow" result="shape"/>
</filter>
</defs>
</svg>
