<svg width="172" height="236" viewBox="0 0 172 236" fill="none" xmlns="http://www.w3.org/2000/svg">
<g filter="url(#filter0_d)">
<g filter="url(#filter1_b)">
<path d="M18.7 31.4897L86.4278 0L153.228 31.4897L167.144 216.741H4.78334L18.7 31.4897Z" fill="#524F48"/>
<path d="M5.32231 216.241L19.1766 31.8195L86.4263 0.552082L152.751 31.8177L166.605 216.241H5.32231Z" stroke="#524F48"/>
</g>
<rect x="4.78334" y="216.741" width="162.361" height="11.2593" fill="#272624"/>
<g filter="url(#filter2_d)">
<path d="M69.948 79.2536L63.549 81.9266C67.275 90.7556 71.568 100.233 75.294 106.875C66.627 112.95 61.281 119.511 61.281 127.854C61.281 140.004 72.297 144.54 87.525 144.54C97.65 144.54 106.965 143.568 113.121 142.515V135.306C106.803 136.926 96.03 138.06 87.201 138.06C74.403 138.06 68.004 133.848 68.004 127.125C68.004 120.969 72.54 115.623 80.073 110.763C88.011 105.498 99.189 100.152 104.697 97.3166C107.046 96.1016 109.071 95.0486 110.934 93.9146L107.37 88.1636C105.669 89.5406 103.968 90.5936 101.619 91.9706C97.164 94.4006 88.416 98.6936 80.802 103.311C77.238 96.9116 73.188 88.1636 69.948 79.2536Z" fill="#B1941A"/>
<path d="M69.948 79.2536L70.8878 78.9119L70.5296 77.9269L69.5626 78.3309L69.948 79.2536ZM63.549 81.9266L63.1636 81.0039L62.2374 81.3907L62.6277 82.3154L63.549 81.9266ZM75.294 106.875L75.868 107.693L76.6087 107.174L76.1661 106.385L75.294 106.875ZM113.121 142.515L113.29 143.5L114.121 143.358V142.515H113.121ZM113.121 135.306H114.121V134.017L112.873 134.337L113.121 135.306ZM80.073 110.763L80.6152 111.603L80.6257 111.596L80.073 110.763ZM104.697 97.3166L105.155 98.2057L105.156 98.2048L104.697 97.3166ZM110.934 93.9146L111.454 94.7688L112.315 94.2447L111.784 93.3878L110.934 93.9146ZM107.37 88.1636L108.22 87.6368L107.622 86.6726L106.741 87.3864L107.37 88.1636ZM101.619 91.9706L102.098 92.8485L102.111 92.8411L102.125 92.8333L101.619 91.9706ZM80.802 103.311L79.9284 103.797L80.4333 104.704L81.3205 104.166L80.802 103.311ZM69.5626 78.3309L63.1636 81.0039L63.9344 82.8493L70.3334 80.1763L69.5626 78.3309ZM62.6277 82.3154C66.3564 91.1509 70.6672 100.671 74.4219 107.364L76.1661 106.385C72.4688 99.7945 68.1936 90.3603 64.4703 81.5378L62.6277 82.3154ZM74.72 106.056C65.9701 112.189 60.281 119.011 60.281 127.854H62.281C62.281 120.01 67.2839 113.71 75.868 107.693L74.72 106.056ZM60.281 127.854C60.281 134.304 63.2421 138.799 68.1976 141.622C73.0764 144.401 79.8423 145.54 87.525 145.54V143.54C79.9797 143.54 73.6236 142.411 69.1874 139.884C64.8279 137.401 62.281 133.553 62.281 127.854H60.281ZM87.525 145.54C97.7077 145.54 107.079 144.563 113.29 143.5L112.952 141.529C106.851 142.573 97.5923 143.54 87.525 143.54V145.54ZM114.121 142.515V135.306H112.121V142.515H114.121ZM112.873 134.337C106.66 135.93 95.9751 137.06 87.201 137.06V139.06C96.0849 139.06 106.946 137.921 113.369 136.274L112.873 134.337ZM87.201 137.06C80.8862 137.06 76.2927 136.016 73.3125 134.253C70.3905 132.523 69.004 130.103 69.004 127.125H67.004C67.004 130.869 68.817 133.916 72.294 135.974C75.7128 137.997 80.7178 139.06 87.201 139.06V137.06ZM69.004 127.125C69.004 121.508 73.144 116.423 80.6151 111.603L79.5309 109.922C71.936 114.822 67.004 120.429 67.004 127.125H69.004ZM80.6257 111.596C88.503 106.371 99.5995 101.065 105.155 98.2057L104.239 96.4275C98.7785 99.2382 87.519 104.624 79.5203 109.929L80.6257 111.596ZM105.156 98.2048C107.5 96.9927 109.556 95.9239 111.454 94.7688L110.414 93.0604C108.586 94.1733 106.592 95.2106 104.238 96.4284L105.156 98.2048ZM111.784 93.3878L108.22 87.6368L106.52 88.6904L110.084 94.4414L111.784 93.3878ZM106.741 87.3864C105.102 88.7129 103.456 89.7343 101.113 91.1079L102.125 92.8333C104.48 91.4529 106.236 90.3683 107.999 88.9408L106.741 87.3864ZM101.14 91.0927C96.7465 93.4892 87.9194 97.8252 80.2835 102.456L81.3205 104.166C88.9126 99.562 97.5815 95.312 102.098 92.8485L101.14 91.0927ZM81.6756 102.824C78.1388 96.4738 74.1106 87.7745 70.8878 78.9119L69.0082 79.5953C72.2654 88.5527 76.3372 97.3494 79.9284 103.797L81.6756 102.824Z" fill="#B1941A"/>
</g>
</g>
<defs>
<filter id="filter0_d" x="0.78334" y="0" width="170.361" height="236" filterUnits="userSpaceOnUse" color-interpolation-filters="sRGB">
<feFlood flood-opacity="0" result="BackgroundImageFix"/>
<feColorMatrix in="SourceAlpha" type="matrix" values="0 0 0 0 0 0 0 0 0 0 0 0 0 0 0 0 0 0 127 0"/>
<feOffset dy="4"/>
<feGaussianBlur stdDeviation="2"/>
<feColorMatrix type="matrix" values="0 0 0 0 0 0 0 0 0 0 0 0 0 0 0 0 0 0 0.25 0"/>
<feBlend mode="normal" in2="BackgroundImageFix" result="effect1_dropShadow"/>
<feBlend mode="normal" in="SourceGraphic" in2="effect1_dropShadow" result="shape"/>
</filter>
<filter id="filter1_b" x="0.78334" y="-4" width="170.361" height="224.741" filterUnits="userSpaceOnUse" color-interpolation-filters="sRGB">
<feFlood flood-opacity="0" result="BackgroundImageFix"/>
<feGaussianBlur in="BackgroundImage" stdDeviation="2"/>
<feComposite in2="SourceAlpha" operator="in" result="effect1_backgroundBlur"/>
<feBlend mode="normal" in="SourceGraphic" in2="effect1_backgroundBlur" result="shape"/>
</filter>
<filter id="filter2_d" x="56.281" y="77.9269" width="61.84" height="75.6127" filterUnits="userSpaceOnUse" color-interpolation-filters="sRGB">
<feFlood flood-opacity="0" result="BackgroundImageFix"/>
<feColorMatrix in="SourceAlpha" type="matrix" values="0 0 0 0 0 0 0 0 0 0 0 0 0 0 0 0 0 0 127 0"/>
<feOffset dy="4"/>
<feGaussianBlur stdDeviation="2"/>
<feColorMatrix type="matrix" values="0 0 0 0 0 0 0 0 0 0 0 0 0 0 0 0 0 0 0.25 0"/>
<feBlend mode="normal" in2="BackgroundImageFix" result="effect1_dropShadow"/>
<feBlend mode="normal" in="SourceGraphic" in2="effect1_dropShadow" result="shape"/>
</filter>
</defs>
</svg>
