<svg width="183" height="251" viewBox="0 0 183 251" fill="none" xmlns="http://www.w3.org/2000/svg">
<g filter="url(#filter0_d)">
<g filter="url(#filter1_b)">
<path d="M19 33.5614L92 0L164 33.5614L179 231H4L19 33.5614Z" fill="#524F48"/>
<path d="M4.53943 230.5L19.4763 33.8927L91.9986 0.550976L163.524 33.891L178.461 230.5H4.53943Z" stroke="#524F48"/>
</g>
<rect x="4" y="231" width="175" height="12" fill="#272624"/>
<g filter="url(#filter2_d)">
<path d="M59.32 99.064V92.152H79.768V99.064H59.32ZM79.768 80.44V87.16H59.32V80.44H79.768ZM86.776 75.064H52.6V122.104H59.32V104.152H79.768V114.52C79.768 115.576 79.48 115.864 78.424 115.96C77.272 116.056 73.72 116.056 69.688 115.864C70.552 117.592 71.608 120.376 71.992 122.2C77.368 122.2 81.208 122.104 83.704 121.048C86.104 119.992 86.776 117.976 86.776 114.616V75.064ZM78.904 49.144H89.56V43H72.76V34.744H65.752V43H49.048V49.144H78.232C77.272 52.792 75.448 58.072 74.104 61.432L78.712 62.776H59.224L64.6 61.336C63.928 58.168 62.296 53.08 60.568 49.24L55 50.584C56.536 54.424 57.976 59.512 58.552 62.776H47.416V68.92H91.288V62.776H79.48C81.112 59.608 82.84 55 84.568 50.68L78.904 49.144ZM108.28 115.768C103.672 115.768 102.904 115.096 102.904 111.928V107.896H130.264V103.192H102.904V97.048H129.304V92.344H102.904V86.488H129.88V81.784H102.904V75.832H129.976V55.96H102.904V48.184H133.72V42.232H102.904V34.648H96.088V61.624H123.064V70.264H96.088V111.928C96.088 119.896 98.68 121.624 107.608 121.624H125.368C132.568 121.624 134.584 119.224 135.448 110.488C133.528 110.104 130.84 109.048 129.208 107.896C128.92 114.52 128.248 115.768 124.888 115.768H108.28ZM125.924 142.456V145.144V147.832H110.948H96.1641V159.16V170.68H108.26H120.356V173.176V175.864H108.26H96.1641V187.576C96.1641 195.256 96.0361 199.608 95.7801 200.632C95.6521 201.4 95.3961 202.104 95.0121 202.744C94.7561 203.256 94.4361 203.768 94.0521 204.28C93.6681 204.792 93.5401 205.048 93.6681 205.048C93.9241 205.048 94.3081 205.048 94.8201 205.048C95.4601 205.048 101.732 205.112 113.636 205.24H131.684V207.928V210.616H90.7881H50.0841V207.928C50.0841 206.136 50.2121 205.24 50.4681 205.24C52.9001 205.24 59.1721 205.176 69.2841 205.048H87.7161V190.456V175.864H74.4681H61.2201L61.4121 173.368V170.68H74.6601H87.7161V159.16V147.832H71.7801H55.8441V145.144V142.456H90.7881H125.924Z" fill="#B1941A"/>
<path d="M59.32 99.064H58.32V100.064H59.32V99.064ZM59.32 92.152V91.152H58.32V92.152H59.32ZM79.768 92.152H80.768V91.152H79.768V92.152ZM79.768 99.064V100.064H80.768V99.064H79.768ZM79.768 80.44H80.768V79.44H79.768V80.44ZM79.768 87.16V88.16H80.768V87.16H79.768ZM59.32 87.16H58.32V88.16H59.32V87.16ZM59.32 80.44V79.44H58.32V80.44H59.32ZM86.776 75.064H87.776V74.064H86.776V75.064ZM52.6 75.064V74.064H51.6V75.064H52.6ZM52.6 122.104H51.6V123.104H52.6V122.104ZM59.32 122.104V123.104H60.32V122.104H59.32ZM59.32 104.152V103.152H58.32V104.152H59.32ZM79.768 104.152H80.768V103.152H79.768V104.152ZM78.424 115.96L78.507 116.957L78.5145 116.956L78.424 115.96ZM69.688 115.864L69.7356 114.865L68.0299 114.784L68.7936 116.311L69.688 115.864ZM71.992 122.2L71.0135 122.406L71.1806 123.2H71.992V122.2ZM83.704 121.048L84.0936 121.969L84.1002 121.966L84.1067 121.963L83.704 121.048ZM78.904 49.144V48.144L78.6423 50.1091L78.904 49.144ZM89.56 49.144V50.144H90.56V49.144H89.56ZM89.56 43H90.56V42H89.56V43ZM72.76 43H71.76V44H72.76V43ZM72.76 34.744H73.76V33.744H72.76V34.744ZM65.752 34.744V33.744H64.752V34.744H65.752ZM65.752 43V44H66.752V43H65.752ZM49.048 43V42H48.048V43H49.048ZM49.048 49.144H48.048V50.144H49.048V49.144ZM78.232 49.144L79.1991 49.3985L79.5292 48.144H78.232V49.144ZM74.104 61.432L73.1755 61.0606L72.7664 62.0835L73.824 62.392L74.104 61.432ZM78.712 62.776V63.776L78.992 61.816L78.712 62.776ZM59.224 62.776L58.9653 61.81L59.224 63.776V62.776ZM64.6 61.336L64.8587 62.3019L65.7751 62.0565L65.5782 61.1285L64.6 61.336ZM60.568 49.24L61.4799 48.8296L61.1396 48.0733L60.3334 48.2679L60.568 49.24ZM55 50.584L54.7654 49.6119L53.6425 49.8829L54.0715 50.9554L55 50.584ZM58.552 62.776V63.776H59.7439L59.5368 62.6022L58.552 62.776ZM47.416 62.776V61.776H46.416V62.776H47.416ZM47.416 68.92H46.416V69.92H47.416V68.92ZM91.288 68.92V69.92H92.288V68.92H91.288ZM91.288 62.776H92.288V61.776H91.288V62.776ZM79.48 62.776L78.591 62.318L77.84 63.776H79.48V62.776ZM84.568 50.68L85.4965 51.0514L85.9135 50.0088L84.8297 49.7149L84.568 50.68ZM102.904 107.896V106.896H101.904V107.896H102.904ZM130.264 107.896V108.896H131.264V107.896H130.264ZM130.264 103.192H131.264V102.192H130.264V103.192ZM102.904 103.192H101.904V104.192H102.904V103.192ZM102.904 97.048V96.048H101.904V97.048H102.904ZM129.304 97.048V98.048H130.304V97.048H129.304ZM129.304 92.344H130.304V91.344H129.304V92.344ZM102.904 92.344H101.904V93.344H102.904V92.344ZM102.904 86.488V85.488H101.904V86.488H102.904ZM129.88 86.488V87.488H130.88V86.488H129.88ZM129.88 81.784H130.88V80.784H129.88V81.784ZM102.904 81.784H101.904V82.784H102.904V81.784ZM102.904 75.832V74.832H101.904V75.832H102.904ZM129.976 75.832V76.832H130.976V75.832H129.976ZM129.976 55.96H130.976V54.96H129.976V55.96ZM102.904 55.96H101.904V56.96H102.904V55.96ZM102.904 48.184V47.184H101.904V48.184H102.904ZM133.72 48.184V49.184H134.72V48.184H133.72ZM133.72 42.232H134.72V41.232H133.72V42.232ZM102.904 42.232H101.904V43.232H102.904V42.232ZM102.904 34.648H103.904V33.648H102.904V34.648ZM96.088 34.648V33.648H95.088V34.648H96.088ZM96.088 61.624H95.088V62.624H96.088V61.624ZM123.064 61.624H124.064V60.624H123.064V61.624ZM123.064 70.264V71.264H124.064V70.264H123.064ZM96.088 70.264V69.264H95.088V70.264H96.088ZM135.448 110.488L136.443 110.586L136.532 109.685L135.644 109.507L135.448 110.488ZM129.208 107.896L129.785 107.079L128.289 106.023L128.209 107.853L129.208 107.896ZM60.32 99.064V92.152H58.32V99.064H60.32ZM59.32 93.152H79.768V91.152H59.32V93.152ZM78.768 92.152V99.064H80.768V92.152H78.768ZM79.768 98.064H59.32V100.064H79.768V98.064ZM78.768 80.44V87.16H80.768V80.44H78.768ZM79.768 86.16H59.32V88.16H79.768V86.16ZM60.32 87.16V80.44H58.32V87.16H60.32ZM59.32 81.44H79.768V79.44H59.32V81.44ZM86.776 74.064H52.6V76.064H86.776V74.064ZM51.6 75.064V122.104H53.6V75.064H51.6ZM52.6 123.104H59.32V121.104H52.6V123.104ZM60.32 122.104V104.152H58.32V122.104H60.32ZM59.32 105.152H79.768V103.152H59.32V105.152ZM78.768 104.152V114.52H80.768V104.152H78.768ZM78.768 114.52C78.768 114.748 78.7514 114.873 78.7354 114.938C78.7224 114.991 78.7206 114.96 78.765 114.913C78.8078 114.868 78.8338 114.871 78.7706 114.892C78.6978 114.916 78.5663 114.943 78.3335 114.964L78.5145 116.956C79.0538 116.907 79.7374 116.797 80.219 116.287C80.7099 115.767 80.768 115.073 80.768 114.52H78.768ZM78.341 114.963C77.2598 115.054 73.7649 115.057 69.7356 114.865L69.6404 116.863C73.6751 117.055 77.2842 117.058 78.507 116.957L78.341 114.963ZM68.7936 116.311C69.6305 117.985 70.6516 120.687 71.0135 122.406L72.9706 121.994C72.5644 120.065 71.4735 117.199 70.5824 115.417L68.7936 116.311ZM71.992 123.2C74.6774 123.2 77.0188 123.176 79.008 123.017C80.9903 122.858 82.6994 122.559 84.0936 121.969L83.3144 120.127C82.2126 120.593 80.7537 120.87 78.848 121.023C76.9492 121.176 74.6826 121.2 71.992 121.2V123.2ZM84.1067 121.963C85.519 121.342 86.4784 120.4 87.0542 119.101C87.6078 117.852 87.776 116.34 87.776 114.616H85.776C85.776 116.252 85.6082 117.428 85.2258 118.291C84.8656 119.104 84.289 119.698 83.3013 120.133L84.1067 121.963ZM87.776 114.616V75.064H85.776V114.616H87.776ZM78.904 50.144H89.56V48.144H78.904V50.144ZM90.56 49.144V43H88.56V49.144H90.56ZM89.56 42H72.76V44H89.56V42ZM73.76 43V34.744H71.76V43H73.76ZM72.76 33.744H65.752V35.744H72.76V33.744ZM64.752 34.744V43H66.752V34.744H64.752ZM65.752 42H49.048V44H65.752V42ZM48.048 43V49.144H50.048V43H48.048ZM49.048 50.144H78.232V48.144H49.048V50.144ZM77.2649 48.8895C76.3178 52.4884 74.5084 57.7285 73.1755 61.0606L75.0325 61.8034C76.3876 58.4155 78.2262 53.0956 79.1991 49.3985L77.2649 48.8895ZM73.824 62.392L78.432 63.736L78.992 61.816L74.384 60.472L73.824 62.392ZM78.712 61.776H59.224V63.776H78.712V61.776ZM59.4827 63.7419L64.8587 62.3019L64.3413 60.3701L58.9653 61.81L59.4827 63.7419ZM65.5782 61.1285C64.8908 57.8875 63.2358 52.7317 61.4799 48.8296L59.6561 49.6504C61.3562 53.4283 62.9652 58.4485 63.6218 61.5435L65.5782 61.1285ZM60.3334 48.2679L54.7654 49.6119L55.2346 51.5561L60.8026 50.2121L60.3334 48.2679ZM54.0715 50.9554C55.5839 54.7362 57.004 59.7581 57.5672 62.9498L59.5368 62.6022C58.948 59.2659 57.4881 54.1118 55.9285 50.2126L54.0715 50.9554ZM58.552 61.776H47.416V63.776H58.552V61.776ZM46.416 62.776V68.92H48.416V62.776H46.416ZM47.416 69.92H91.288V67.92H47.416V69.92ZM92.288 68.92V62.776H90.288V68.92H92.288ZM91.288 61.776H79.48V63.776H91.288V61.776ZM80.369 63.234C82.0298 60.0101 83.7855 55.3289 85.4965 51.0514L83.6395 50.3086C81.8945 54.6711 80.1943 59.2059 78.591 62.318L80.369 63.234ZM84.8297 49.7149L79.1657 48.1789L78.6423 50.1091L84.3063 51.6451L84.8297 49.7149ZM108.28 114.768C107.142 114.768 106.292 114.726 105.65 114.625C105.005 114.525 104.656 114.377 104.456 114.23C104.131 113.991 103.904 113.535 103.904 111.928H101.904C101.904 113.489 102.061 114.953 103.272 115.842C103.84 116.259 104.547 116.477 105.342 116.602C106.14 116.726 107.114 116.768 108.28 116.768V114.768ZM103.904 111.928V107.896H101.904V111.928H103.904ZM102.904 108.896H130.264V106.896H102.904V108.896ZM131.264 107.896V103.192H129.264V107.896H131.264ZM130.264 102.192H102.904V104.192H130.264V102.192ZM103.904 103.192V97.048H101.904V103.192H103.904ZM102.904 98.048H129.304V96.048H102.904V98.048ZM130.304 97.048V92.344H128.304V97.048H130.304ZM129.304 91.344H102.904V93.344H129.304V91.344ZM103.904 92.344V86.488H101.904V92.344H103.904ZM102.904 87.488H129.88V85.488H102.904V87.488ZM130.88 86.488V81.784H128.88V86.488H130.88ZM129.88 80.784H102.904V82.784H129.88V80.784ZM103.904 81.784V75.832H101.904V81.784H103.904ZM102.904 76.832H129.976V74.832H102.904V76.832ZM130.976 75.832V55.96H128.976V75.832H130.976ZM129.976 54.96H102.904V56.96H129.976V54.96ZM103.904 55.96V48.184H101.904V55.96H103.904ZM102.904 49.184H133.72V47.184H102.904V49.184ZM134.72 48.184V42.232H132.72V48.184H134.72ZM133.72 41.232H102.904V43.232H133.72V41.232ZM103.904 42.232V34.648H101.904V42.232H103.904ZM102.904 33.648H96.088V35.648H102.904V33.648ZM95.088 34.648V61.624H97.088V34.648H95.088ZM96.088 62.624H123.064V60.624H96.088V62.624ZM122.064 61.624V70.264H124.064V61.624H122.064ZM123.064 69.264H96.088V71.264H123.064V69.264ZM95.088 70.264V111.928H97.088V70.264H95.088ZM95.088 111.928C95.088 115.948 95.7236 118.803 97.8708 120.541C98.9247 121.394 100.26 121.907 101.854 122.212C103.444 122.516 105.354 122.624 107.608 122.624V120.624C105.398 120.624 103.636 120.516 102.229 120.247C100.826 119.979 99.8393 119.562 99.1292 118.987C97.7484 117.869 97.088 115.876 97.088 111.928H95.088ZM107.608 122.624H125.368V120.624H107.608V122.624ZM125.368 122.624C129.033 122.624 131.719 122.024 133.53 119.998C135.28 118.039 136.012 114.947 136.443 110.586L134.453 110.39C134.02 114.765 133.312 117.241 132.038 118.666C130.825 120.024 128.903 120.624 125.368 120.624V122.624ZM135.644 109.507C133.836 109.146 131.283 108.137 129.785 107.079L128.631 108.713C130.397 109.959 133.22 111.062 135.252 111.469L135.644 109.507ZM128.209 107.853C128.137 109.5 128.043 110.778 127.895 111.773C127.745 112.778 127.551 113.419 127.323 113.836C127.115 114.216 126.878 114.415 126.562 114.544C126.203 114.69 125.686 114.768 124.888 114.768V116.768C125.77 116.768 126.597 116.69 127.318 116.395C128.082 116.083 128.661 115.556 129.077 114.796C129.473 114.073 129.711 113.16 129.873 112.068C130.037 110.966 130.135 109.604 130.207 107.939L128.209 107.853ZM124.888 114.768H108.28V116.768H124.888V114.768ZM125.924 142.456H126.924V141.456H125.924V142.456ZM125.924 147.832V148.832H126.924V147.832H125.924ZM96.1641 147.832V146.832H95.1641V147.832H96.1641ZM96.1641 170.68H95.1641V171.68H96.1641V170.68ZM120.356 170.68H121.356V169.68H120.356V170.68ZM120.356 175.864V176.864H121.356V175.864H120.356ZM96.1641 175.864V174.864H95.1641V175.864H96.1641ZM95.7801 200.632L94.81 200.389L94.8003 200.428L94.7937 200.468L95.7801 200.632ZM95.0121 202.744L94.1546 202.23L94.1349 202.262L94.1177 202.297L95.0121 202.744ZM94.0521 204.28L94.8521 204.88L94.8521 204.88L94.0521 204.28ZM113.636 205.24L113.625 206.24H113.636V205.24ZM131.684 205.24H132.684V204.24H131.684V205.24ZM131.684 210.616V211.616H132.684V210.616H131.684ZM50.0841 210.616H49.0841V211.616H50.0841V210.616ZM69.2841 205.048V204.048L69.2715 204.048L69.2841 205.048ZM87.7161 205.048V206.048H88.7161V205.048H87.7161ZM87.7161 175.864H88.7161V174.864H87.7161V175.864ZM61.2201 175.864L60.2231 175.787L60.1402 176.864H61.2201V175.864ZM61.4121 173.368L62.4092 173.445L62.4121 173.406V173.368H61.4121ZM61.4121 170.68V169.68H60.4121V170.68H61.4121ZM87.7161 170.68V171.68H88.7161V170.68H87.7161ZM87.7161 147.832H88.7161V146.832H87.7161V147.832ZM55.8441 147.832H54.8441V148.832H55.8441V147.832ZM55.8441 142.456V141.456H54.8441V142.456H55.8441ZM124.924 142.456V145.144H126.924V142.456H124.924ZM124.924 145.144V147.832H126.924V145.144H124.924ZM125.924 146.832H110.948V148.832H125.924V146.832ZM110.948 146.832H96.1641V148.832H110.948V146.832ZM95.1641 147.832V159.16H97.1641V147.832H95.1641ZM95.1641 159.16V170.68H97.1641V159.16H95.1641ZM96.1641 171.68H108.26V169.68H96.1641V171.68ZM108.26 171.68H120.356V169.68H108.26V171.68ZM119.356 170.68V173.176H121.356V170.68H119.356ZM119.356 173.176V175.864H121.356V173.176H119.356ZM120.356 174.864H108.26V176.864H120.356V174.864ZM108.26 174.864H96.1641V176.864H108.26V174.864ZM95.1641 175.864V187.576H97.1641V175.864H95.1641ZM95.1641 187.576C95.1641 191.412 95.1321 194.409 95.0686 196.571C95.0368 197.652 94.9973 198.516 94.9507 199.169C94.9024 199.845 94.8503 200.228 94.81 200.389L96.7503 200.875C96.838 200.524 96.8979 199.979 96.9456 199.311C96.995 198.62 97.0355 197.724 97.0677 196.629C97.1321 194.439 97.1641 191.42 97.1641 187.576H95.1641ZM94.7937 200.468C94.6855 201.117 94.4713 201.702 94.1546 202.23L95.8696 203.258C96.3209 202.506 96.6188 201.683 96.7665 200.796L94.7937 200.468ZM94.1177 202.297C93.8915 202.749 93.6043 203.21 93.2521 203.68L94.8521 204.88C95.268 204.326 95.6208 203.763 95.9066 203.191L94.1177 202.297ZM93.2521 203.68C93.0571 203.94 92.8812 204.194 92.7737 204.409C92.7378 204.481 92.6201 204.713 92.6201 205C92.6201 205.17 92.6633 205.481 92.925 205.743C93.1867 206.005 93.498 206.048 93.6681 206.048V204.048C93.8063 204.048 94.0936 204.083 94.3392 204.329C94.5849 204.575 94.6201 204.862 94.6201 205C94.6201 205.135 94.5894 205.23 94.5808 205.256C94.5691 205.291 94.5598 205.309 94.5626 205.303C94.5831 205.262 94.6632 205.132 94.8521 204.88L93.2521 203.68ZM93.6681 206.048C93.6686 206.048 93.6691 206.048 93.6696 206.048C93.6701 206.048 93.6706 206.048 93.6711 206.048C93.6716 206.048 93.6721 206.048 93.6726 206.048C93.6731 206.048 93.6736 206.048 93.6742 206.048C93.6747 206.048 93.6752 206.048 93.6757 206.048C93.6762 206.048 93.6767 206.048 93.6772 206.048C93.6777 206.048 93.6782 206.048 93.6787 206.048C93.6792 206.048 93.6797 206.048 93.6802 206.048C93.6807 206.048 93.6812 206.048 93.6817 206.048C93.6823 206.048 93.6828 206.048 93.6833 206.048C93.6838 206.048 93.6843 206.048 93.6848 206.048C93.6853 206.048 93.6858 206.048 93.6863 206.048C93.6868 206.048 93.6874 206.048 93.6879 206.048C93.6884 206.048 93.6889 206.048 93.6894 206.048C93.6899 206.048 93.6904 206.048 93.691 206.048C93.6915 206.048 93.692 206.048 93.6925 206.048C93.693 206.048 93.6935 206.048 93.6941 206.048C93.6946 206.048 93.6951 206.048 93.6956 206.048C93.6961 206.048 93.6966 206.048 93.6972 206.048C93.6977 206.048 93.6982 206.048 93.6987 206.048C93.6992 206.048 93.6998 206.048 93.7003 206.048C93.7008 206.048 93.7013 206.048 93.7018 206.048C93.7024 206.048 93.7029 206.048 93.7034 206.048C93.7039 206.048 93.7044 206.048 93.705 206.048C93.7055 206.048 93.706 206.048 93.7065 206.048C93.7071 206.048 93.7076 206.048 93.7081 206.048C93.7086 206.048 93.7092 206.048 93.7097 206.048C93.7102 206.048 93.7107 206.048 93.7113 206.048C93.7118 206.048 93.7123 206.048 93.7129 206.048C93.7134 206.048 93.7139 206.048 93.7144 206.048C93.715 206.048 93.7155 206.048 93.716 206.048C93.7166 206.048 93.7171 206.048 93.7176 206.048C93.7182 206.048 93.7187 206.048 93.7192 206.048C93.7198 206.048 93.7203 206.048 93.7208 206.048C93.7214 206.048 93.7219 206.048 93.7224 206.048C93.723 206.048 93.7235 206.048 93.724 206.048C93.7246 206.048 93.7251 206.048 93.7256 206.048C93.7262 206.048 93.7267 206.048 93.7272 206.048C93.7278 206.048 93.7283 206.048 93.7289 206.048C93.7294 206.048 93.7299 206.048 93.7305 206.048C93.731 206.048 93.7315 206.048 93.7321 206.048C93.7326 206.048 93.7332 206.048 93.7337 206.048C93.7343 206.048 93.7348 206.048 93.7353 206.048C93.7359 206.048 93.7364 206.048 93.737 206.048C93.7375 206.048 93.738 206.048 93.7386 206.048C93.7391 206.048 93.7397 206.048 93.7402 206.048C93.7408 206.048 93.7413 206.048 93.7419 206.048C93.7424 206.048 93.743 206.048 93.7435 206.048C93.744 206.048 93.7446 206.048 93.7451 206.048C93.7457 206.048 93.7462 206.048 93.7468 206.048C93.7473 206.048 93.7479 206.048 93.7484 206.048C93.749 206.048 93.7495 206.048 93.7501 206.048C93.7506 206.048 93.7512 206.048 93.7517 206.048C93.7523 206.048 93.7528 206.048 93.7534 206.048C93.754 206.048 93.7545 206.048 93.7551 206.048C93.7556 206.048 93.7562 206.048 93.7567 206.048C93.7573 206.048 93.7578 206.048 93.7584 206.048C93.7589 206.048 93.7595 206.048 93.7601 206.048C93.7606 206.048 93.7612 206.048 93.7617 206.048C93.7623 206.048 93.7628 206.048 93.7634 206.048C93.764 206.048 93.7645 206.048 93.7651 206.048C93.7656 206.048 93.7662 206.048 93.7668 206.048C93.7673 206.048 93.7679 206.048 93.7684 206.048C93.769 206.048 93.7696 206.048 93.7701 206.048C93.7707 206.048 93.7713 206.048 93.7718 206.048C93.7724 206.048 93.7729 206.048 93.7735 206.048C93.7741 206.048 93.7746 206.048 93.7752 206.048C93.7758 206.048 93.7763 206.048 93.7769 206.048C93.7775 206.048 93.778 206.048 93.7786 206.048C93.7792 206.048 93.7797 206.048 93.7803 206.048C93.7809 206.048 93.7814 206.048 93.782 206.048C93.7826 206.048 93.7832 206.048 93.7837 206.048C93.7843 206.048 93.7849 206.048 93.7854 206.048C93.786 206.048 93.7866 206.048 93.7871 206.048C93.7877 206.048 93.7883 206.048 93.7889 206.048C93.7894 206.048 93.79 206.048 93.7906 206.048C93.7912 206.048 93.7917 206.048 93.7923 206.048C93.7929 206.048 93.7935 206.048 93.794 206.048C93.7946 206.048 93.7952 206.048 93.7958 206.048C93.7963 206.048 93.7969 206.048 93.7975 206.048C93.7981 206.048 93.7987 206.048 93.7992 206.048C93.7998 206.048 93.8004 206.048 93.801 206.048C93.8016 206.048 93.8021 206.048 93.8027 206.048C93.8033 206.048 93.8039 206.048 93.8045 206.048C93.805 206.048 93.8056 206.048 93.8062 206.048C93.8068 206.048 93.8074 206.048 93.808 206.048C93.8085 206.048 93.8091 206.048 93.8097 206.048C93.8103 206.048 93.8109 206.048 93.8115 206.048C93.8121 206.048 93.8126 206.048 93.8132 206.048C93.8138 206.048 93.8144 206.048 93.815 206.048C93.8156 206.048 93.8162 206.048 93.8168 206.048C93.8173 206.048 93.8179 206.048 93.8185 206.048C93.8191 206.048 93.8197 206.048 93.8203 206.048C93.8209 206.048 93.8215 206.048 93.8221 206.048C93.8227 206.048 93.8233 206.048 93.8238 206.048C93.8244 206.048 93.825 206.048 93.8256 206.048C93.8262 206.048 93.8268 206.048 93.8274 206.048C93.828 206.048 93.8286 206.048 93.8292 206.048C93.8298 206.048 93.8304 206.048 93.831 206.048C93.8316 206.048 93.8322 206.048 93.8328 206.048C93.8334 206.048 93.834 206.048 93.8346 206.048C93.8352 206.048 93.8358 206.048 93.8364 206.048C93.837 206.048 93.8376 206.048 93.8382 206.048C93.8388 206.048 93.8394 206.048 93.84 206.048C93.8406 206.048 93.8412 206.048 93.8418 206.048C93.8424 206.048 93.843 206.048 93.8436 206.048C93.8442 206.048 93.8448 206.048 93.8454 206.048C93.846 206.048 93.8466 206.048 93.8472 206.048C93.8478 206.048 93.8484 206.048 93.849 206.048C93.8496 206.048 93.8502 206.048 93.8509 206.048C93.8515 206.048 93.8521 206.048 93.8527 206.048C93.8533 206.048 93.8539 206.048 93.8545 206.048C93.8551 206.048 93.8557 206.048 93.8563 206.048C93.8569 206.048 93.8576 206.048 93.8582 206.048C93.8588 206.048 93.8594 206.048 93.86 206.048C93.8606 206.048 93.8612 206.048 93.8618 206.048C93.8625 206.048 93.8631 206.048 93.8637 206.048C93.8643 206.048 93.8649 206.048 93.8655 206.048C93.8661 206.048 93.8668 206.048 93.8674 206.048C93.868 206.048 93.8686 206.048 93.8692 206.048C93.8698 206.048 93.8705 206.048 93.8711 206.048C93.8717 206.048 93.8723 206.048 93.8729 206.048C93.8735 206.048 93.8742 206.048 93.8748 206.048C93.8754 206.048 93.876 206.048 93.8767 206.048C93.8773 206.048 93.8779 206.048 93.8785 206.048C93.8791 206.048 93.8798 206.048 93.8804 206.048C93.881 206.048 93.8816 206.048 93.8823 206.048C93.8829 206.048 93.8835 206.048 93.8841 206.048C93.8848 206.048 93.8854 206.048 93.886 206.048C93.8866 206.048 93.8873 206.048 93.8879 206.048C93.8885 206.048 93.8891 206.048 93.8898 206.048C93.8904 206.048 93.891 206.048 93.8917 206.048C93.8923 206.048 93.8929 206.048 93.8935 206.048C93.8942 206.048 93.8948 206.048 93.8954 206.048C93.8961 206.048 93.8967 206.048 93.8973 206.048C93.898 206.048 93.8986 206.048 93.8992 206.048C93.8999 206.048 93.9005 206.048 93.9011 206.048C93.9018 206.048 93.9024 206.048 93.903 206.048C93.9037 206.048 93.9043 206.048 93.9049 206.048C93.9056 206.048 93.9062 206.048 93.9068 206.048C93.9075 206.048 93.9081 206.048 93.9088 206.048C93.9094 206.048 93.91 206.048 93.9107 206.048C93.9113 206.048 93.9119 206.048 93.9126 206.048C93.9132 206.048 93.9139 206.048 93.9145 206.048C93.9151 206.048 93.9158 206.048 93.9164 206.048C93.9171 206.048 93.9177 206.048 93.9184 206.048C93.919 206.048 93.9196 206.048 93.9203 206.048C93.9209 206.048 93.9216 206.048 93.9222 206.048C93.9229 206.048 93.9235 206.048 93.9241 206.048C93.9248 206.048 93.9254 206.048 93.9261 206.048C93.9267 206.048 93.9274 206.048 93.928 206.048C93.9287 206.048 93.9293 206.048 93.93 206.048C93.9306 206.048 93.9313 206.048 93.9319 206.048C93.9326 206.048 93.9332 206.048 93.9339 206.048C93.9345 206.048 93.9352 206.048 93.9358 206.048C93.9365 206.048 93.9371 206.048 93.9378 206.048C93.9384 206.048 93.9391 206.048 93.9397 206.048C93.9404 206.048 93.941 206.048 93.9417 206.048C93.9424 206.048 93.943 206.048 93.9437 206.048C93.9443 206.048 93.945 206.048 93.9456 206.048C93.9463 206.048 93.9469 206.048 93.9476 206.048C93.9483 206.048 93.9489 206.048 93.9496 206.048C93.9502 206.048 93.9509 206.048 93.9515 206.048C93.9522 206.048 93.9529 206.048 93.9535 206.048C93.9542 206.048 93.9548 206.048 93.9555 206.048C93.9562 206.048 93.9568 206.048 93.9575 206.048C93.9582 206.048 93.9588 206.048 93.9595 206.048C93.9601 206.048 93.9608 206.048 93.9615 206.048C93.9621 206.048 93.9628 206.048 93.9635 206.048C93.9641 206.048 93.9648 206.048 93.9655 206.048C93.9661 206.048 93.9668 206.048 93.9675 206.048C93.9681 206.048 93.9688 206.048 93.9695 206.048C93.9701 206.048 93.9708 206.048 93.9715 206.048C93.9721 206.048 93.9728 206.048 93.9735 206.048C93.9741 206.048 93.9748 206.048 93.9755 206.048C93.9762 206.048 93.9768 206.048 93.9775 206.048C93.9782 206.048 93.9788 206.048 93.9795 206.048C93.9802 206.048 93.9809 206.048 93.9815 206.048C93.9822 206.048 93.9829 206.048 93.9836 206.048C93.9842 206.048 93.9849 206.048 93.9856 206.048C93.9863 206.048 93.9869 206.048 93.9876 206.048C93.9883 206.048 93.989 206.048 93.9896 206.048C93.9903 206.048 93.991 206.048 93.9917 206.048C93.9924 206.048 93.993 206.048 93.9937 206.048C93.9944 206.048 93.9951 206.048 93.9958 206.048C93.9964 206.048 93.9971 206.048 93.9978 206.048C93.9985 206.048 93.9992 206.048 93.9999 206.048C94.0005 206.048 94.0012 206.048 94.0019 206.048C94.0026 206.048 94.0033 206.048 94.004 206.048C94.0046 206.048 94.0053 206.048 94.006 206.048C94.0067 206.048 94.0074 206.048 94.0081 206.048C94.0088 206.048 94.0094 206.048 94.0101 206.048C94.0108 206.048 94.0115 206.048 94.0122 206.048C94.0129 206.048 94.0136 206.048 94.0143 206.048C94.0149 206.048 94.0156 206.048 94.0163 206.048C94.017 206.048 94.0177 206.048 94.0184 206.048C94.0191 206.048 94.0198 206.048 94.0205 206.048C94.0212 206.048 94.0219 206.048 94.0226 206.048C94.0232 206.048 94.0239 206.048 94.0246 206.048C94.0253 206.048 94.026 206.048 94.0267 206.048C94.0274 206.048 94.0281 206.048 94.0288 206.048C94.0295 206.048 94.0302 206.048 94.0309 206.048C94.0316 206.048 94.0323 206.048 94.033 206.048C94.0337 206.048 94.0344 206.048 94.0351 206.048C94.0358 206.048 94.0365 206.048 94.0372 206.048C94.0379 206.048 94.0386 206.048 94.0393 206.048C94.04 206.048 94.0407 206.048 94.0414 206.048C94.0421 206.048 94.0428 206.048 94.0435 206.048C94.0442 206.048 94.0449 206.048 94.0456 206.048C94.0463 206.048 94.047 206.048 94.0477 206.048C94.0484 206.048 94.0491 206.048 94.0498 206.048C94.0506 206.048 94.0513 206.048 94.052 206.048C94.0527 206.048 94.0534 206.048 94.0541 206.048C94.0548 206.048 94.0555 206.048 94.0562 206.048C94.0569 206.048 94.0576 206.048 94.0583 206.048C94.0591 206.048 94.0598 206.048 94.0605 206.048C94.0612 206.048 94.0619 206.048 94.0626 206.048C94.0633 206.048 94.064 206.048 94.0647 206.048C94.0655 206.048 94.0662 206.048 94.0669 206.048C94.0676 206.048 94.0683 206.048 94.069 206.048C94.0697 206.048 94.0705 206.048 94.0712 206.048C94.0719 206.048 94.0726 206.048 94.0733 206.048C94.074 206.048 94.0748 206.048 94.0755 206.048C94.0762 206.048 94.0769 206.048 94.0776 206.048C94.0783 206.048 94.0791 206.048 94.0798 206.048C94.0805 206.048 94.0812 206.048 94.0819 206.048C94.0827 206.048 94.0834 206.048 94.0841 206.048C94.0848 206.048 94.0856 206.048 94.0863 206.048C94.087 206.048 94.0877 206.048 94.0884 206.048C94.0892 206.048 94.0899 206.048 94.0906 206.048C94.0913 206.048 94.0921 206.048 94.0928 206.048C94.0935 206.048 94.0942 206.048 94.095 206.048C94.0957 206.048 94.0964 206.048 94.0972 206.048C94.0979 206.048 94.0986 206.048 94.0993 206.048C94.1001 206.048 94.1008 206.048 94.1015 206.048C94.1023 206.048 94.103 206.048 94.1037 206.048C94.1044 206.048 94.1052 206.048 94.1059 206.048C94.1066 206.048 94.1074 206.048 94.1081 206.048C94.1088 206.048 94.1096 206.048 94.1103 206.048C94.111 206.048 94.1118 206.048 94.1125 206.048C94.1132 206.048 94.114 206.048 94.1147 206.048C94.1154 206.048 94.1162 206.048 94.1169 206.048C94.1177 206.048 94.1184 206.048 94.1191 206.048C94.1199 206.048 94.1206 206.048 94.1213 206.048C94.1221 206.048 94.1228 206.048 94.1236 206.048C94.1243 206.048 94.125 206.048 94.1258 206.048C94.1265 206.048 94.1273 206.048 94.128 206.048C94.1287 206.048 94.1295 206.048 94.1302 206.048C94.131 206.048 94.1317 206.048 94.1324 206.048C94.1332 206.048 94.1339 206.048 94.1347 206.048C94.1354 206.048 94.1362 206.048 94.1369 206.048C94.1377 206.048 94.1384 206.048 94.1392 206.048C94.1399 206.048 94.1406 206.048 94.1414 206.048C94.1421 206.048 94.1429 206.048 94.1436 206.048C94.1444 206.048 94.1451 206.048 94.1459 206.048C94.1466 206.048 94.1474 206.048 94.1481 206.048C94.1489 206.048 94.1496 206.048 94.1504 206.048C94.1511 206.048 94.1519 206.048 94.1526 206.048C94.1534 206.048 94.1541 206.048 94.1549 206.048C94.1556 206.048 94.1564 206.048 94.1572 206.048C94.1579 206.048 94.1587 206.048 94.1594 206.048C94.1602 206.048 94.1609 206.048 94.1617 206.048C94.1624 206.048 94.1632 206.048 94.1639 206.048C94.1647 206.048 94.1655 206.048 94.1662 206.048C94.167 206.048 94.1677 206.048 94.1685 206.048C94.1693 206.048 94.17 206.048 94.1708 206.048C94.1715 206.048 94.1723 206.048 94.1731 206.048C94.1738 206.048 94.1746 206.048 94.1753 206.048C94.1761 206.048 94.1769 206.048 94.1776 206.048C94.1784 206.048 94.1792 206.048 94.1799 206.048C94.1807 206.048 94.1814 206.048 94.1822 206.048C94.183 206.048 94.1837 206.048 94.1845 206.048C94.1853 206.048 94.186 206.048 94.1868 206.048C94.1876 206.048 94.1883 206.048 94.1891 206.048C94.1899 206.048 94.1906 206.048 94.1914 206.048C94.1922 206.048 94.1929 206.048 94.1937 206.048C94.1945 206.048 94.1953 206.048 94.196 206.048C94.1968 206.048 94.1976 206.048 94.1983 206.048C94.1991 206.048 94.1999 206.048 94.2007 206.048C94.2014 206.048 94.2022 206.048 94.203 206.048C94.2037 206.048 94.2045 206.048 94.2053 206.048C94.2061 206.048 94.2068 206.048 94.2076 206.048C94.2084 206.048 94.2092 206.048 94.2099 206.048C94.2107 206.048 94.2115 206.048 94.2123 206.048C94.2131 206.048 94.2138 206.048 94.2146 206.048C94.2154 206.048 94.2162 206.048 94.2169 206.048C94.2177 206.048 94.2185 206.048 94.2193 206.048C94.2201 206.048 94.2208 206.048 94.2216 206.048C94.2224 206.048 94.2232 206.048 94.224 206.048C94.2248 206.048 94.2255 206.048 94.2263 206.048C94.2271 206.048 94.2279 206.048 94.2287 206.048C94.2295 206.048 94.2302 206.048 94.231 206.048C94.2318 206.048 94.2326 206.048 94.2334 206.048C94.2342 206.048 94.235 206.048 94.2357 206.048C94.2365 206.048 94.2373 206.048 94.2381 206.048C94.2389 206.048 94.2397 206.048 94.2405 206.048C94.2413 206.048 94.2421 206.048 94.2428 206.048C94.2436 206.048 94.2444 206.048 94.2452 206.048C94.246 206.048 94.2468 206.048 94.2476 206.048C94.2484 206.048 94.2492 206.048 94.25 206.048C94.2508 206.048 94.2516 206.048 94.2523 206.048C94.2531 206.048 94.2539 206.048 94.2547 206.048C94.2555 206.048 94.2563 206.048 94.2571 206.048C94.2579 206.048 94.2587 206.048 94.2595 206.048C94.2603 206.048 94.2611 206.048 94.2619 206.048C94.2627 206.048 94.2635 206.048 94.2643 206.048C94.2651 206.048 94.2659 206.048 94.2667 206.048C94.2675 206.048 94.2683 206.048 94.2691 206.048C94.2699 206.048 94.2707 206.048 94.2715 206.048C94.2723 206.048 94.2731 206.048 94.2739 206.048C94.2747 206.048 94.2755 206.048 94.2763 206.048C94.2771 206.048 94.2779 206.048 94.2787 206.048C94.2795 206.048 94.2803 206.048 94.2811 206.048C94.2819 206.048 94.2827 206.048 94.2836 206.048C94.2844 206.048 94.2852 206.048 94.286 206.048C94.2868 206.048 94.2876 206.048 94.2884 206.048C94.2892 206.048 94.29 206.048 94.2908 206.048C94.2916 206.048 94.2924 206.048 94.2933 206.048C94.2941 206.048 94.2949 206.048 94.2957 206.048C94.2965 206.048 94.2973 206.048 94.2981 206.048C94.2989 206.048 94.2998 206.048 94.3006 206.048C94.3014 206.048 94.3022 206.048 94.303 206.048C94.3038 206.048 94.3046 206.048 94.3055 206.048C94.3063 206.048 94.3071 206.048 94.3079 206.048C94.3087 206.048 94.3095 206.048 94.3104 206.048C94.3112 206.048 94.312 206.048 94.3128 206.048C94.3136 206.048 94.3144 206.048 94.3153 206.048C94.3161 206.048 94.3169 206.048 94.3177 206.048C94.3185 206.048 94.3194 206.048 94.3202 206.048C94.321 206.048 94.3218 206.048 94.3226 206.048C94.3235 206.048 94.3243 206.048 94.3251 206.048C94.3259 206.048 94.3268 206.048 94.3276 206.048C94.3284 206.048 94.3292 206.048 94.3301 206.048C94.3309 206.048 94.3317 206.048 94.3325 206.048C94.3334 206.048 94.3342 206.048 94.335 206.048C94.3358 206.048 94.3367 206.048 94.3375 206.048C94.3383 206.048 94.3392 206.048 94.34 206.048C94.3408 206.048 94.3416 206.048 94.3425 206.048C94.3433 206.048 94.3441 206.048 94.345 206.048C94.3458 206.048 94.3466 206.048 94.3475 206.048C94.3483 206.048 94.3491 206.048 94.35 206.048C94.3508 206.048 94.3516 206.048 94.3525 206.048C94.3533 206.048 94.3541 206.048 94.355 206.048C94.3558 206.048 94.3566 206.048 94.3575 206.048C94.3583 206.048 94.3591 206.048 94.36 206.048C94.3608 206.048 94.3617 206.048 94.3625 206.048C94.3633 206.048 94.3642 206.048 94.365 206.048C94.3658 206.048 94.3667 206.048 94.3675 206.048C94.3684 206.048 94.3692 206.048 94.37 206.048C94.3709 206.048 94.3717 206.048 94.3726 206.048C94.3734 206.048 94.3743 206.048 94.3751 206.048C94.3759 206.048 94.3768 206.048 94.3776 206.048C94.3785 206.048 94.3793 206.048 94.3802 206.048C94.381 206.048 94.3819 206.048 94.3827 206.048C94.3835 206.048 94.3844 206.048 94.3852 206.048C94.3861 206.048 94.3869 206.048 94.3878 206.048C94.3886 206.048 94.3895 206.048 94.3903 206.048C94.3912 206.048 94.392 206.048 94.3929 206.048C94.3937 206.048 94.3946 206.048 94.3954 206.048C94.3963 206.048 94.3971 206.048 94.398 206.048C94.3988 206.048 94.3997 206.048 94.4005 206.048C94.4014 206.048 94.4022 206.048 94.4031 206.048C94.4039 206.048 94.4048 206.048 94.4056 206.048C94.4065 206.048 94.4074 206.048 94.4082 206.048C94.4091 206.048 94.4099 206.048 94.4108 206.048C94.4116 206.048 94.4125 206.048 94.4134 206.048C94.4142 206.048 94.4151 206.048 94.4159 206.048C94.4168 206.048 94.4176 206.048 94.4185 206.048C94.4194 206.048 94.4202 206.048 94.4211 206.048C94.4219 206.048 94.4228 206.048 94.4237 206.048C94.4245 206.048 94.4254 206.048 94.4263 206.048C94.4271 206.048 94.428 206.048 94.4288 206.048C94.4297 206.048 94.4306 206.048 94.4314 206.048C94.4323 206.048 94.4332 206.048 94.434 206.048C94.4349 206.048 94.4358 206.048 94.4366 206.048C94.4375 206.048 94.4384 206.048 94.4392 206.048C94.4401 206.048 94.441 206.048 94.4418 206.048C94.4427 206.048 94.4436 206.048 94.4444 206.048C94.4453 206.048 94.4462 206.048 94.447 206.048C94.4479 206.048 94.4488 206.048 94.4497 206.048C94.4505 206.048 94.4514 206.048 94.4523 206.048C94.4531 206.048 94.454 206.048 94.4549 206.048C94.4558 206.048 94.4566 206.048 94.4575 206.048C94.4584 206.048 94.4593 206.048 94.4601 206.048C94.461 206.048 94.4619 206.048 94.4628 206.048C94.4636 206.048 94.4645 206.048 94.4654 206.048C94.4663 206.048 94.4671 206.048 94.468 206.048C94.4689 206.048 94.4698 206.048 94.4707 206.048C94.4715 206.048 94.4724 206.048 94.4733 206.048C94.4742 206.048 94.4751 206.048 94.4759 206.048C94.4768 206.048 94.4777 206.048 94.4786 206.048C94.4795 206.048 94.4803 206.048 94.4812 206.048C94.4821 206.048 94.483 206.048 94.4839 206.048C94.4848 206.048 94.4856 206.048 94.4865 206.048C94.4874 206.048 94.4883 206.048 94.4892 206.048C94.4901 206.048 94.491 206.048 94.4918 206.048C94.4927 206.048 94.4936 206.048 94.4945 206.048C94.4954 206.048 94.4963 206.048 94.4972 206.048C94.4981 206.048 94.4989 206.048 94.4998 206.048C94.5007 206.048 94.5016 206.048 94.5025 206.048C94.5034 206.048 94.5043 206.048 94.5052 206.048C94.5061 206.048 94.507 206.048 94.5079 206.048C94.5087 206.048 94.5096 206.048 94.5105 206.048C94.5114 206.048 94.5123 206.048 94.5132 206.048C94.5141 206.048 94.515 206.048 94.5159 206.048C94.5168 206.048 94.5177 206.048 94.5186 206.048C94.5195 206.048 94.5204 206.048 94.5213 206.048C94.5222 206.048 94.5231 206.048 94.524 206.048C94.5249 206.048 94.5258 206.048 94.5267 206.048C94.5276 206.048 94.5285 206.048 94.5294 206.048C94.5303 206.048 94.5312 206.048 94.5321 206.048C94.533 206.048 94.5339 206.048 94.5348 206.048C94.5357 206.048 94.5366 206.048 94.5375 206.048C94.5384 206.048 94.5393 206.048 94.5402 206.048C94.5411 206.048 94.542 206.048 94.5429 206.048C94.5438 206.048 94.5447 206.048 94.5456 206.048C94.5465 206.048 94.5474 206.048 94.5483 206.048C94.5493 206.048 94.5502 206.048 94.5511 206.048C94.552 206.048 94.5529 206.048 94.5538 206.048C94.5547 206.048 94.5556 206.048 94.5565 206.048C94.5574 206.048 94.5583 206.048 94.5593 206.048C94.5602 206.048 94.5611 206.048 94.562 206.048C94.5629 206.048 94.5638 206.048 94.5647 206.048C94.5656 206.048 94.5666 206.048 94.5675 206.048C94.5684 206.048 94.5693 206.048 94.5702 206.048C94.5711 206.048 94.572 206.048 94.573 206.048C94.5739 206.048 94.5748 206.048 94.5757 206.048C94.5766 206.048 94.5775 206.048 94.5785 206.048C94.5794 206.048 94.5803 206.048 94.5812 206.048C94.5821 206.048 94.5831 206.048 94.584 206.048C94.5849 206.048 94.5858 206.048 94.5867 206.048C94.5877 206.048 94.5886 206.048 94.5895 206.048C94.5904 206.048 94.5913 206.048 94.5923 206.048C94.5932 206.048 94.5941 206.048 94.595 206.048C94.596 206.048 94.5969 206.048 94.5978 206.048C94.5987 206.048 94.5997 206.048 94.6006 206.048C94.6015 206.048 94.6024 206.048 94.6034 206.048C94.6043 206.048 94.6052 206.048 94.6062 206.048C94.6071 206.048 94.608 206.048 94.6089 206.048C94.6099 206.048 94.6108 206.048 94.6117 206.048C94.6127 206.048 94.6136 206.048 94.6145 206.048C94.6154 206.048 94.6164 206.048 94.6173 206.048C94.6182 206.048 94.6192 206.048 94.6201 206.048C94.621 206.048 94.622 206.048 94.6229 206.048C94.6238 206.048 94.6248 206.048 94.6257 206.048C94.6266 206.048 94.6276 206.048 94.6285 206.048C94.6294 206.048 94.6304 206.048 94.6313 206.048C94.6323 206.048 94.6332 206.048 94.6341 206.048C94.6351 206.048 94.636 206.048 94.6369 206.048C94.6379 206.048 94.6388 206.048 94.6398 206.048C94.6407 206.048 94.6416 206.048 94.6426 206.048C94.6435 206.048 94.6445 206.048 94.6454 206.048C94.6463 206.048 94.6473 206.048 94.6482 206.048C94.6492 206.048 94.6501 206.048 94.6511 206.048C94.652 206.048 94.6529 206.048 94.6539 206.048C94.6548 206.048 94.6558 206.048 94.6567 206.048C94.6577 206.048 94.6586 206.048 94.6596 206.048C94.6605 206.048 94.6615 206.048 94.6624 206.048C94.6633 206.048 94.6643 206.048 94.6652 206.048C94.6662 206.048 94.6671 206.048 94.6681 206.048C94.669 206.048 94.67 206.048 94.6709 206.048C94.6719 206.048 94.6728 206.048 94.6738 206.048C94.6747 206.048 94.6757 206.048 94.6766 206.048C94.6776 206.048 94.6786 206.048 94.6795 206.048C94.6805 206.048 94.6814 206.048 94.6824 206.048C94.6833 206.048 94.6843 206.048 94.6852 206.048C94.6862 206.048 94.6871 206.048 94.6881 206.048C94.6891 206.048 94.69 206.048 94.691 206.048C94.6919 206.048 94.6929 206.048 94.6938 206.048C94.6948 206.048 94.6958 206.048 94.6967 206.048C94.6977 206.048 94.6986 206.048 94.6996 206.048C94.7006 206.048 94.7015 206.048 94.7025 206.048C94.7034 206.048 94.7044 206.048 94.7054 206.048C94.7063 206.048 94.7073 206.048 94.7082 206.048C94.7092 206.048 94.7102 206.048 94.7111 206.048C94.7121 206.048 94.7131 206.048 94.714 206.048C94.715 206.048 94.716 206.048 94.7169 206.048C94.7179 206.048 94.7189 206.048 94.7198 206.048C94.7208 206.048 94.7218 206.048 94.7227 206.048C94.7237 206.048 94.7247 206.048 94.7256 206.048C94.7266 206.048 94.7276 206.048 94.7285 206.048C94.7295 206.048 94.7305 206.048 94.7314 206.048C94.7324 206.048 94.7334 206.048 94.7344 206.048C94.7353 206.048 94.7363 206.048 94.7373 206.048C94.7383 206.048 94.7392 206.048 94.7402 206.048C94.7412 206.048 94.7421 206.048 94.7431 206.048C94.7441 206.048 94.7451 206.048 94.746 206.048C94.747 206.048 94.748 206.048 94.749 206.048C94.7499 206.048 94.7509 206.048 94.7519 206.048C94.7529 206.048 94.7539 206.048 94.7548 206.048C94.7558 206.048 94.7568 206.048 94.7578 206.048C94.7588 206.048 94.7597 206.048 94.7607 206.048C94.7617 206.048 94.7627 206.048 94.7637 206.048C94.7646 206.048 94.7656 206.048 94.7666 206.048C94.7676 206.048 94.7686 206.048 94.7696 206.048C94.7705 206.048 94.7715 206.048 94.7725 206.048C94.7735 206.048 94.7745 206.048 94.7755 206.048C94.7764 206.048 94.7774 206.048 94.7784 206.048C94.7794 206.048 94.7804 206.048 94.7814 206.048C94.7824 206.048 94.7834 206.048 94.7843 206.048C94.7853 206.048 94.7863 206.048 94.7873 206.048C94.7883 206.048 94.7893 206.048 94.7903 206.048C94.7913 206.048 94.7923 206.048 94.7932 206.048C94.7942 206.048 94.7952 206.048 94.7962 206.048C94.7972 206.048 94.7982 206.048 94.7992 206.048C94.8002 206.048 94.8012 206.048 94.8022 206.048C94.8032 206.048 94.8042 206.048 94.8052 206.048C94.8062 206.048 94.8072 206.048 94.8082 206.048C94.8091 206.048 94.8101 206.048 94.8111 206.048C94.8121 206.048 94.8131 206.048 94.8141 206.048C94.8151 206.048 94.8161 206.048 94.8171 206.048C94.8181 206.048 94.8191 206.048 94.8201 206.048V204.048C94.8191 204.048 94.8181 204.048 94.8171 204.048C94.8161 204.048 94.8151 204.048 94.8141 204.048C94.8131 204.048 94.8121 204.048 94.8111 204.048C94.8101 204.048 94.8091 204.048 94.8082 204.048C94.8072 204.048 94.8062 204.048 94.8052 204.048C94.8042 204.048 94.8032 204.048 94.8022 204.048C94.8012 204.048 94.8002 204.048 94.7992 204.048C94.7982 204.048 94.7972 204.048 94.7962 204.048C94.7952 204.048 94.7942 204.048 94.7932 204.048C94.7923 204.048 94.7913 204.048 94.7903 204.048C94.7893 204.048 94.7883 204.048 94.7873 204.048C94.7863 204.048 94.7853 204.048 94.7843 204.048C94.7834 204.048 94.7824 204.048 94.7814 204.048C94.7804 204.048 94.7794 204.048 94.7784 204.048C94.7774 204.048 94.7764 204.048 94.7755 204.048C94.7745 204.048 94.7735 204.048 94.7725 204.048C94.7715 204.048 94.7705 204.048 94.7696 204.048C94.7686 204.048 94.7676 204.048 94.7666 204.048C94.7656 204.048 94.7646 204.048 94.7637 204.048C94.7627 204.048 94.7617 204.048 94.7607 204.048C94.7597 204.048 94.7588 204.048 94.7578 204.048C94.7568 204.048 94.7558 204.048 94.7548 204.048C94.7539 204.048 94.7529 204.048 94.7519 204.048C94.7509 204.048 94.7499 204.048 94.749 204.048C94.748 204.048 94.747 204.048 94.746 204.048C94.7451 204.048 94.7441 204.048 94.7431 204.048C94.7421 204.048 94.7412 204.048 94.7402 204.048C94.7392 204.048 94.7383 204.048 94.7373 204.048C94.7363 204.048 94.7353 204.048 94.7344 204.048C94.7334 204.048 94.7324 204.048 94.7314 204.048C94.7305 204.048 94.7295 204.048 94.7285 204.048C94.7276 204.048 94.7266 204.048 94.7256 204.048C94.7247 204.048 94.7237 204.048 94.7227 204.048C94.7218 204.048 94.7208 204.048 94.7198 204.048C94.7189 204.048 94.7179 204.048 94.7169 204.048C94.716 204.048 94.715 204.048 94.714 204.048C94.7131 204.048 94.7121 204.048 94.7111 204.048C94.7102 204.048 94.7092 204.048 94.7082 204.048C94.7073 204.048 94.7063 204.048 94.7054 204.048C94.7044 204.048 94.7034 204.048 94.7025 204.048C94.7015 204.048 94.7006 204.048 94.6996 204.048C94.6986 204.048 94.6977 204.048 94.6967 204.048C94.6958 204.048 94.6948 204.048 94.6938 204.048C94.6929 204.048 94.6919 204.048 94.691 204.048C94.69 204.048 94.6891 204.048 94.6881 204.048C94.6871 204.048 94.6862 204.048 94.6852 204.048C94.6843 204.048 94.6833 204.048 94.6824 204.048C94.6814 204.048 94.6805 204.048 94.6795 204.048C94.6786 204.048 94.6776 204.048 94.6766 204.048C94.6757 204.048 94.6747 204.048 94.6738 204.048C94.6728 204.048 94.6719 204.048 94.6709 204.048C94.67 204.048 94.669 204.048 94.6681 204.048C94.6671 204.048 94.6662 204.048 94.6652 204.048C94.6643 204.048 94.6633 204.048 94.6624 204.048C94.6615 204.048 94.6605 204.048 94.6596 204.048C94.6586 204.048 94.6577 204.048 94.6567 204.048C94.6558 204.048 94.6548 204.048 94.6539 204.048C94.6529 204.048 94.652 204.048 94.6511 204.048C94.6501 204.048 94.6492 204.048 94.6482 204.048C94.6473 204.048 94.6463 204.048 94.6454 204.048C94.6445 204.048 94.6435 204.048 94.6426 204.048C94.6416 204.048 94.6407 204.048 94.6398 204.048C94.6388 204.048 94.6379 204.048 94.6369 204.048C94.636 204.048 94.6351 204.048 94.6341 204.048C94.6332 204.048 94.6323 204.048 94.6313 204.048C94.6304 204.048 94.6294 204.048 94.6285 204.048C94.6276 204.048 94.6266 204.048 94.6257 204.048C94.6248 204.048 94.6238 204.048 94.6229 204.048C94.622 204.048 94.621 204.048 94.6201 204.048C94.6192 204.048 94.6182 204.048 94.6173 204.048C94.6164 204.048 94.6154 204.048 94.6145 204.048C94.6136 204.048 94.6127 204.048 94.6117 204.048C94.6108 204.048 94.6099 204.048 94.6089 204.048C94.608 204.048 94.6071 204.048 94.6062 204.048C94.6052 204.048 94.6043 204.048 94.6034 204.048C94.6024 204.048 94.6015 204.048 94.6006 204.048C94.5997 204.048 94.5987 204.048 94.5978 204.048C94.5969 204.048 94.596 204.048 94.595 204.048C94.5941 204.048 94.5932 204.048 94.5923 204.048C94.5913 204.048 94.5904 204.048 94.5895 204.048C94.5886 204.048 94.5877 204.048 94.5867 204.048C94.5858 204.048 94.5849 204.048 94.584 204.048C94.5831 204.048 94.5821 204.048 94.5812 204.048C94.5803 204.048 94.5794 204.048 94.5785 204.048C94.5775 204.048 94.5766 204.048 94.5757 204.048C94.5748 204.048 94.5739 204.048 94.573 204.048C94.572 204.048 94.5711 204.048 94.5702 204.048C94.5693 204.048 94.5684 204.048 94.5675 204.048C94.5666 204.048 94.5656 204.048 94.5647 204.048C94.5638 204.048 94.5629 204.048 94.562 204.048C94.5611 204.048 94.5602 204.048 94.5593 204.048C94.5583 204.048 94.5574 204.048 94.5565 204.048C94.5556 204.048 94.5547 204.048 94.5538 204.048C94.5529 204.048 94.552 204.048 94.5511 204.048C94.5502 204.048 94.5493 204.048 94.5483 204.048C94.5474 204.048 94.5465 204.048 94.5456 204.048C94.5447 204.048 94.5438 204.048 94.5429 204.048C94.542 204.048 94.5411 204.048 94.5402 204.048C94.5393 204.048 94.5384 204.048 94.5375 204.048C94.5366 204.048 94.5357 204.048 94.5348 204.048C94.5339 204.048 94.533 204.048 94.5321 204.048C94.5312 204.048 94.5303 204.048 94.5294 204.048C94.5285 204.048 94.5276 204.048 94.5267 204.048C94.5258 204.048 94.5249 204.048 94.524 204.048C94.5231 204.048 94.5222 204.048 94.5213 204.048C94.5204 204.048 94.5195 204.048 94.5186 204.048C94.5177 204.048 94.5168 204.048 94.5159 204.048C94.515 204.048 94.5141 204.048 94.5132 204.048C94.5123 204.048 94.5114 204.048 94.5105 204.048C94.5096 204.048 94.5087 204.048 94.5079 204.048C94.507 204.048 94.5061 204.048 94.5052 204.048C94.5043 204.048 94.5034 204.048 94.5025 204.048C94.5016 204.048 94.5007 204.048 94.4998 204.048C94.4989 204.048 94.4981 204.048 94.4972 204.048C94.4963 204.048 94.4954 204.048 94.4945 204.048C94.4936 204.048 94.4927 204.048 94.4918 204.048C94.491 204.048 94.4901 204.048 94.4892 204.048C94.4883 204.048 94.4874 204.048 94.4865 204.048C94.4856 204.048 94.4848 204.048 94.4839 204.048C94.483 204.048 94.4821 204.048 94.4812 204.048C94.4803 204.048 94.4795 204.048 94.4786 204.048C94.4777 204.048 94.4768 204.048 94.4759 204.048C94.4751 204.048 94.4742 204.048 94.4733 204.048C94.4724 204.048 94.4715 204.048 94.4707 204.048C94.4698 204.048 94.4689 204.048 94.468 204.048C94.4671 204.048 94.4663 204.048 94.4654 204.048C94.4645 204.048 94.4636 204.048 94.4628 204.048C94.4619 204.048 94.461 204.048 94.4601 204.048C94.4593 204.048 94.4584 204.048 94.4575 204.048C94.4566 204.048 94.4558 204.048 94.4549 204.048C94.454 204.048 94.4531 204.048 94.4523 204.048C94.4514 204.048 94.4505 204.048 94.4497 204.048C94.4488 204.048 94.4479 204.048 94.447 204.048C94.4462 204.048 94.4453 204.048 94.4444 204.048C94.4436 204.048 94.4427 204.048 94.4418 204.048C94.441 204.048 94.4401 204.048 94.4392 204.048C94.4384 204.048 94.4375 204.048 94.4366 204.048C94.4358 204.048 94.4349 204.048 94.434 204.048C94.4332 204.048 94.4323 204.048 94.4314 204.048C94.4306 204.048 94.4297 204.048 94.4288 204.048C94.428 204.048 94.4271 204.048 94.4263 204.048C94.4254 204.048 94.4245 204.048 94.4237 204.048C94.4228 204.048 94.4219 204.048 94.4211 204.048C94.4202 204.048 94.4194 204.048 94.4185 204.048C94.4176 204.048 94.4168 204.048 94.4159 204.048C94.4151 204.048 94.4142 204.048 94.4134 204.048C94.4125 204.048 94.4116 204.048 94.4108 204.048C94.4099 204.048 94.4091 204.048 94.4082 204.048C94.4074 204.048 94.4065 204.048 94.4056 204.048C94.4048 204.048 94.4039 204.048 94.4031 204.048C94.4022 204.048 94.4014 204.048 94.4005 204.048C94.3997 204.048 94.3988 204.048 94.398 204.048C94.3971 204.048 94.3963 204.048 94.3954 204.048C94.3946 204.048 94.3937 204.048 94.3929 204.048C94.392 204.048 94.3912 204.048 94.3903 204.048C94.3895 204.048 94.3886 204.048 94.3878 204.048C94.3869 204.048 94.3861 204.048 94.3852 204.048C94.3844 204.048 94.3835 204.048 94.3827 204.048C94.3819 204.048 94.381 204.048 94.3802 204.048C94.3793 204.048 94.3785 204.048 94.3776 204.048C94.3768 204.048 94.3759 204.048 94.3751 204.048C94.3743 204.048 94.3734 204.048 94.3726 204.048C94.3717 204.048 94.3709 204.048 94.37 204.048C94.3692 204.048 94.3684 204.048 94.3675 204.048C94.3667 204.048 94.3658 204.048 94.365 204.048C94.3642 204.048 94.3633 204.048 94.3625 204.048C94.3617 204.048 94.3608 204.048 94.36 204.048C94.3591 204.048 94.3583 204.048 94.3575 204.048C94.3566 204.048 94.3558 204.048 94.355 204.048C94.3541 204.048 94.3533 204.048 94.3525 204.048C94.3516 204.048 94.3508 204.048 94.35 204.048C94.3491 204.048 94.3483 204.048 94.3475 204.048C94.3466 204.048 94.3458 204.048 94.345 204.048C94.3441 204.048 94.3433 204.048 94.3425 204.048C94.3416 204.048 94.3408 204.048 94.34 204.048C94.3392 204.048 94.3383 204.048 94.3375 204.048C94.3367 204.048 94.3358 204.048 94.335 204.048C94.3342 204.048 94.3334 204.048 94.3325 204.048C94.3317 204.048 94.3309 204.048 94.3301 204.048C94.3292 204.048 94.3284 204.048 94.3276 204.048C94.3268 204.048 94.3259 204.048 94.3251 204.048C94.3243 204.048 94.3235 204.048 94.3226 204.048C94.3218 204.048 94.321 204.048 94.3202 204.048C94.3194 204.048 94.3185 204.048 94.3177 204.048C94.3169 204.048 94.3161 204.048 94.3153 204.048C94.3144 204.048 94.3136 204.048 94.3128 204.048C94.312 204.048 94.3112 204.048 94.3104 204.048C94.3095 204.048 94.3087 204.048 94.3079 204.048C94.3071 204.048 94.3063 204.048 94.3055 204.048C94.3046 204.048 94.3038 204.048 94.303 204.048C94.3022 204.048 94.3014 204.048 94.3006 204.048C94.2998 204.048 94.2989 204.048 94.2981 204.048C94.2973 204.048 94.2965 204.048 94.2957 204.048C94.2949 204.048 94.2941 204.048 94.2933 204.048C94.2924 204.048 94.2916 204.048 94.2908 204.048C94.29 204.048 94.2892 204.048 94.2884 204.048C94.2876 204.048 94.2868 204.048 94.286 204.048C94.2852 204.048 94.2844 204.048 94.2836 204.048C94.2827 204.048 94.2819 204.048 94.2811 204.048C94.2803 204.048 94.2795 204.048 94.2787 204.048C94.2779 204.048 94.2771 204.048 94.2763 204.048C94.2755 204.048 94.2747 204.048 94.2739 204.048C94.2731 204.048 94.2723 204.048 94.2715 204.048C94.2707 204.048 94.2699 204.048 94.2691 204.048C94.2683 204.048 94.2675 204.048 94.2667 204.048C94.2659 204.048 94.2651 204.048 94.2643 204.048C94.2635 204.048 94.2627 204.048 94.2619 204.048C94.2611 204.048 94.2603 204.048 94.2595 204.048C94.2587 204.048 94.2579 204.048 94.2571 204.048C94.2563 204.048 94.2555 204.048 94.2547 204.048C94.2539 204.048 94.2531 204.048 94.2523 204.048C94.2516 204.048 94.2508 204.048 94.25 204.048C94.2492 204.048 94.2484 204.048 94.2476 204.048C94.2468 204.048 94.246 204.048 94.2452 204.048C94.2444 204.048 94.2436 204.048 94.2428 204.048C94.2421 204.048 94.2413 204.048 94.2405 204.048C94.2397 204.048 94.2389 204.048 94.2381 204.048C94.2373 204.048 94.2365 204.048 94.2357 204.048C94.235 204.048 94.2342 204.048 94.2334 204.048C94.2326 204.048 94.2318 204.048 94.231 204.048C94.2302 204.048 94.2295 204.048 94.2287 204.048C94.2279 204.048 94.2271 204.048 94.2263 204.048C94.2255 204.048 94.2248 204.048 94.224 204.048C94.2232 204.048 94.2224 204.048 94.2216 204.048C94.2208 204.048 94.2201 204.048 94.2193 204.048C94.2185 204.048 94.2177 204.048 94.2169 204.048C94.2162 204.048 94.2154 204.048 94.2146 204.048C94.2138 204.048 94.2131 204.048 94.2123 204.048C94.2115 204.048 94.2107 204.048 94.2099 204.048C94.2092 204.048 94.2084 204.048 94.2076 204.048C94.2068 204.048 94.2061 204.048 94.2053 204.048C94.2045 204.048 94.2037 204.048 94.203 204.048C94.2022 204.048 94.2014 204.048 94.2007 204.048C94.1999 204.048 94.1991 204.048 94.1983 204.048C94.1976 204.048 94.1968 204.048 94.196 204.048C94.1953 204.048 94.1945 204.048 94.1937 204.048C94.1929 204.048 94.1922 204.048 94.1914 204.048C94.1906 204.048 94.1899 204.048 94.1891 204.048C94.1883 204.048 94.1876 204.048 94.1868 204.048C94.186 204.048 94.1853 204.048 94.1845 204.048C94.1837 204.048 94.183 204.048 94.1822 204.048C94.1814 204.048 94.1807 204.048 94.1799 204.048C94.1792 204.048 94.1784 204.048 94.1776 204.048C94.1769 204.048 94.1761 204.048 94.1753 204.048C94.1746 204.048 94.1738 204.048 94.1731 204.048C94.1723 204.048 94.1715 204.048 94.1708 204.048C94.17 204.048 94.1693 204.048 94.1685 204.048C94.1677 204.048 94.167 204.048 94.1662 204.048C94.1655 204.048 94.1647 204.048 94.1639 204.048C94.1632 204.048 94.1624 204.048 94.1617 204.048C94.1609 204.048 94.1602 204.048 94.1594 204.048C94.1587 204.048 94.1579 204.048 94.1572 204.048C94.1564 204.048 94.1556 204.048 94.1549 204.048C94.1541 204.048 94.1534 204.048 94.1526 204.048C94.1519 204.048 94.1511 204.048 94.1504 204.048C94.1496 204.048 94.1489 204.048 94.1481 204.048C94.1474 204.048 94.1466 204.048 94.1459 204.048C94.1451 204.048 94.1444 204.048 94.1436 204.048C94.1429 204.048 94.1421 204.048 94.1414 204.048C94.1406 204.048 94.1399 204.048 94.1392 204.048C94.1384 204.048 94.1377 204.048 94.1369 204.048C94.1362 204.048 94.1354 204.048 94.1347 204.048C94.1339 204.048 94.1332 204.048 94.1324 204.048C94.1317 204.048 94.131 204.048 94.1302 204.048C94.1295 204.048 94.1287 204.048 94.128 204.048C94.1273 204.048 94.1265 204.048 94.1258 204.048C94.125 204.048 94.1243 204.048 94.1236 204.048C94.1228 204.048 94.1221 204.048 94.1213 204.048C94.1206 204.048 94.1199 204.048 94.1191 204.048C94.1184 204.048 94.1177 204.048 94.1169 204.048C94.1162 204.048 94.1154 204.048 94.1147 204.048C94.114 204.048 94.1132 204.048 94.1125 204.048C94.1118 204.048 94.111 204.048 94.1103 204.048C94.1096 204.048 94.1088 204.048 94.1081 204.048C94.1074 204.048 94.1066 204.048 94.1059 204.048C94.1052 204.048 94.1044 204.048 94.1037 204.048C94.103 204.048 94.1023 204.048 94.1015 204.048C94.1008 204.048 94.1001 204.048 94.0993 204.048C94.0986 204.048 94.0979 204.048 94.0972 204.048C94.0964 204.048 94.0957 204.048 94.095 204.048C94.0942 204.048 94.0935 204.048 94.0928 204.048C94.0921 204.048 94.0913 204.048 94.0906 204.048C94.0899 204.048 94.0892 204.048 94.0884 204.048C94.0877 204.048 94.087 204.048 94.0863 204.048C94.0856 204.048 94.0848 204.048 94.0841 204.048C94.0834 204.048 94.0827 204.048 94.0819 204.048C94.0812 204.048 94.0805 204.048 94.0798 204.048C94.0791 204.048 94.0783 204.048 94.0776 204.048C94.0769 204.048 94.0762 204.048 94.0755 204.048C94.0748 204.048 94.074 204.048 94.0733 204.048C94.0726 204.048 94.0719 204.048 94.0712 204.048C94.0705 204.048 94.0697 204.048 94.069 204.048C94.0683 204.048 94.0676 204.048 94.0669 204.048C94.0662 204.048 94.0655 204.048 94.0647 204.048C94.064 204.048 94.0633 204.048 94.0626 204.048C94.0619 204.048 94.0612 204.048 94.0605 204.048C94.0598 204.048 94.0591 204.048 94.0583 204.048C94.0576 204.048 94.0569 204.048 94.0562 204.048C94.0555 204.048 94.0548 204.048 94.0541 204.048C94.0534 204.048 94.0527 204.048 94.052 204.048C94.0513 204.048 94.0506 204.048 94.0498 204.048C94.0491 204.048 94.0484 204.048 94.0477 204.048C94.047 204.048 94.0463 204.048 94.0456 204.048C94.0449 204.048 94.0442 204.048 94.0435 204.048C94.0428 204.048 94.0421 204.048 94.0414 204.048C94.0407 204.048 94.04 204.048 94.0393 204.048C94.0386 204.048 94.0379 204.048 94.0372 204.048C94.0365 204.048 94.0358 204.048 94.0351 204.048C94.0344 204.048 94.0337 204.048 94.033 204.048C94.0323 204.048 94.0316 204.048 94.0309 204.048C94.0302 204.048 94.0295 204.048 94.0288 204.048C94.0281 204.048 94.0274 204.048 94.0267 204.048C94.026 204.048 94.0253 204.048 94.0246 204.048C94.0239 204.048 94.0232 204.048 94.0226 204.048C94.0219 204.048 94.0212 204.048 94.0205 204.048C94.0198 204.048 94.0191 204.048 94.0184 204.048C94.0177 204.048 94.017 204.048 94.0163 204.048C94.0156 204.048 94.0149 204.048 94.0143 204.048C94.0136 204.048 94.0129 204.048 94.0122 204.048C94.0115 204.048 94.0108 204.048 94.0101 204.048C94.0094 204.048 94.0088 204.048 94.0081 204.048C94.0074 204.048 94.0067 204.048 94.006 204.048C94.0053 204.048 94.0046 204.048 94.004 204.048C94.0033 204.048 94.0026 204.048 94.0019 204.048C94.0012 204.048 94.0005 204.048 93.9999 204.048C93.9992 204.048 93.9985 204.048 93.9978 204.048C93.9971 204.048 93.9964 204.048 93.9958 204.048C93.9951 204.048 93.9944 204.048 93.9937 204.048C93.993 204.048 93.9924 204.048 93.9917 204.048C93.991 204.048 93.9903 204.048 93.9896 204.048C93.989 204.048 93.9883 204.048 93.9876 204.048C93.9869 204.048 93.9863 204.048 93.9856 204.048C93.9849 204.048 93.9842 204.048 93.9836 204.048C93.9829 204.048 93.9822 204.048 93.9815 204.048C93.9809 204.048 93.9802 204.048 93.9795 204.048C93.9788 204.048 93.9782 204.048 93.9775 204.048C93.9768 204.048 93.9762 204.048 93.9755 204.048C93.9748 204.048 93.9741 204.048 93.9735 204.048C93.9728 204.048 93.9721 204.048 93.9715 204.048C93.9708 204.048 93.9701 204.048 93.9695 204.048C93.9688 204.048 93.9681 204.048 93.9675 204.048C93.9668 204.048 93.9661 204.048 93.9655 204.048C93.9648 204.048 93.9641 204.048 93.9635 204.048C93.9628 204.048 93.9621 204.048 93.9615 204.048C93.9608 204.048 93.9601 204.048 93.9595 204.048C93.9588 204.048 93.9582 204.048 93.9575 204.048C93.9568 204.048 93.9562 204.048 93.9555 204.048C93.9548 204.048 93.9542 204.048 93.9535 204.048C93.9529 204.048 93.9522 204.048 93.9515 204.048C93.9509 204.048 93.9502 204.048 93.9496 204.048C93.9489 204.048 93.9483 204.048 93.9476 204.048C93.9469 204.048 93.9463 204.048 93.9456 204.048C93.945 204.048 93.9443 204.048 93.9437 204.048C93.943 204.048 93.9424 204.048 93.9417 204.048C93.941 204.048 93.9404 204.048 93.9397 204.048C93.9391 204.048 93.9384 204.048 93.9378 204.048C93.9371 204.048 93.9365 204.048 93.9358 204.048C93.9352 204.048 93.9345 204.048 93.9339 204.048C93.9332 204.048 93.9326 204.048 93.9319 204.048C93.9313 204.048 93.9306 204.048 93.93 204.048C93.9293 204.048 93.9287 204.048 93.928 204.048C93.9274 204.048 93.9267 204.048 93.9261 204.048C93.9254 204.048 93.9248 204.048 93.9241 204.048C93.9235 204.048 93.9229 204.048 93.9222 204.048C93.9216 204.048 93.9209 204.048 93.9203 204.048C93.9196 204.048 93.919 204.048 93.9184 204.048C93.9177 204.048 93.9171 204.048 93.9164 204.048C93.9158 204.048 93.9151 204.048 93.9145 204.048C93.9139 204.048 93.9132 204.048 93.9126 204.048C93.9119 204.048 93.9113 204.048 93.9107 204.048C93.91 204.048 93.9094 204.048 93.9088 204.048C93.9081 204.048 93.9075 204.048 93.9068 204.048C93.9062 204.048 93.9056 204.048 93.9049 204.048C93.9043 204.048 93.9037 204.048 93.903 204.048C93.9024 204.048 93.9018 204.048 93.9011 204.048C93.9005 204.048 93.8999 204.048 93.8992 204.048C93.8986 204.048 93.898 204.048 93.8973 204.048C93.8967 204.048 93.8961 204.048 93.8954 204.048C93.8948 204.048 93.8942 204.048 93.8935 204.048C93.8929 204.048 93.8923 204.048 93.8917 204.048C93.891 204.048 93.8904 204.048 93.8898 204.048C93.8891 204.048 93.8885 204.048 93.8879 204.048C93.8873 204.048 93.8866 204.048 93.886 204.048C93.8854 204.048 93.8848 204.048 93.8841 204.048C93.8835 204.048 93.8829 204.048 93.8823 204.048C93.8816 204.048 93.881 204.048 93.8804 204.048C93.8798 204.048 93.8791 204.048 93.8785 204.048C93.8779 204.048 93.8773 204.048 93.8767 204.048C93.876 204.048 93.8754 204.048 93.8748 204.048C93.8742 204.048 93.8735 204.048 93.8729 204.048C93.8723 204.048 93.8717 204.048 93.8711 204.048C93.8705 204.048 93.8698 204.048 93.8692 204.048C93.8686 204.048 93.868 204.048 93.8674 204.048C93.8668 204.048 93.8661 204.048 93.8655 204.048C93.8649 204.048 93.8643 204.048 93.8637 204.048C93.8631 204.048 93.8625 204.048 93.8618 204.048C93.8612 204.048 93.8606 204.048 93.86 204.048C93.8594 204.048 93.8588 204.048 93.8582 204.048C93.8576 204.048 93.8569 204.048 93.8563 204.048C93.8557 204.048 93.8551 204.048 93.8545 204.048C93.8539 204.048 93.8533 204.048 93.8527 204.048C93.8521 204.048 93.8515 204.048 93.8509 204.048C93.8502 204.048 93.8496 204.048 93.849 204.048C93.8484 204.048 93.8478 204.048 93.8472 204.048C93.8466 204.048 93.846 204.048 93.8454 204.048C93.8448 204.048 93.8442 204.048 93.8436 204.048C93.843 204.048 93.8424 204.048 93.8418 204.048C93.8412 204.048 93.8406 204.048 93.84 204.048C93.8394 204.048 93.8388 204.048 93.8382 204.048C93.8376 204.048 93.837 204.048 93.8364 204.048C93.8358 204.048 93.8352 204.048 93.8346 204.048C93.834 204.048 93.8334 204.048 93.8328 204.048C93.8322 204.048 93.8316 204.048 93.831 204.048C93.8304 204.048 93.8298 204.048 93.8292 204.048C93.8286 204.048 93.828 204.048 93.8274 204.048C93.8268 204.048 93.8262 204.048 93.8256 204.048C93.825 204.048 93.8244 204.048 93.8238 204.048C93.8233 204.048 93.8227 204.048 93.8221 204.048C93.8215 204.048 93.8209 204.048 93.8203 204.048C93.8197 204.048 93.8191 204.048 93.8185 204.048C93.8179 204.048 93.8173 204.048 93.8168 204.048C93.8162 204.048 93.8156 204.048 93.815 204.048C93.8144 204.048 93.8138 204.048 93.8132 204.048C93.8126 204.048 93.8121 204.048 93.8115 204.048C93.8109 204.048 93.8103 204.048 93.8097 204.048C93.8091 204.048 93.8085 204.048 93.808 204.048C93.8074 204.048 93.8068 204.048 93.8062 204.048C93.8056 204.048 93.805 204.048 93.8045 204.048C93.8039 204.048 93.8033 204.048 93.8027 204.048C93.8021 204.048 93.8016 204.048 93.801 204.048C93.8004 204.048 93.7998 204.048 93.7992 204.048C93.7987 204.048 93.7981 204.048 93.7975 204.048C93.7969 204.048 93.7963 204.048 93.7958 204.048C93.7952 204.048 93.7946 204.048 93.794 204.048C93.7935 204.048 93.7929 204.048 93.7923 204.048C93.7917 204.048 93.7912 204.048 93.7906 204.048C93.79 204.048 93.7894 204.048 93.7889 204.048C93.7883 204.048 93.7877 204.048 93.7871 204.048C93.7866 204.048 93.786 204.048 93.7854 204.048C93.7849 204.048 93.7843 204.048 93.7837 204.048C93.7832 204.048 93.7826 204.048 93.782 204.048C93.7814 204.048 93.7809 204.048 93.7803 204.048C93.7797 204.048 93.7792 204.048 93.7786 204.048C93.778 204.048 93.7775 204.048 93.7769 204.048C93.7763 204.048 93.7758 204.048 93.7752 204.048C93.7746 204.048 93.7741 204.048 93.7735 204.048C93.7729 204.048 93.7724 204.048 93.7718 204.048C93.7713 204.048 93.7707 204.048 93.7701 204.048C93.7696 204.048 93.769 204.048 93.7684 204.048C93.7679 204.048 93.7673 204.048 93.7668 204.048C93.7662 204.048 93.7656 204.048 93.7651 204.048C93.7645 204.048 93.764 204.048 93.7634 204.048C93.7628 204.048 93.7623 204.048 93.7617 204.048C93.7612 204.048 93.7606 204.048 93.7601 204.048C93.7595 204.048 93.7589 204.048 93.7584 204.048C93.7578 204.048 93.7573 204.048 93.7567 204.048C93.7562 204.048 93.7556 204.048 93.7551 204.048C93.7545 204.048 93.754 204.048 93.7534 204.048C93.7528 204.048 93.7523 204.048 93.7517 204.048C93.7512 204.048 93.7506 204.048 93.7501 204.048C93.7495 204.048 93.749 204.048 93.7484 204.048C93.7479 204.048 93.7473 204.048 93.7468 204.048C93.7462 204.048 93.7457 204.048 93.7451 204.048C93.7446 204.048 93.744 204.048 93.7435 204.048C93.743 204.048 93.7424 204.048 93.7419 204.048C93.7413 204.048 93.7408 204.048 93.7402 204.048C93.7397 204.048 93.7391 204.048 93.7386 204.048C93.738 204.048 93.7375 204.048 93.737 204.048C93.7364 204.048 93.7359 204.048 93.7353 204.048C93.7348 204.048 93.7343 204.048 93.7337 204.048C93.7332 204.048 93.7326 204.048 93.7321 204.048C93.7315 204.048 93.731 204.048 93.7305 204.048C93.7299 204.048 93.7294 204.048 93.7289 204.048C93.7283 204.048 93.7278 204.048 93.7272 204.048C93.7267 204.048 93.7262 204.048 93.7256 204.048C93.7251 204.048 93.7246 204.048 93.724 204.048C93.7235 204.048 93.723 204.048 93.7224 204.048C93.7219 204.048 93.7214 204.048 93.7208 204.048C93.7203 204.048 93.7198 204.048 93.7192 204.048C93.7187 204.048 93.7182 204.048 93.7176 204.048C93.7171 204.048 93.7166 204.048 93.716 204.048C93.7155 204.048 93.715 204.048 93.7144 204.048C93.7139 204.048 93.7134 204.048 93.7129 204.048C93.7123 204.048 93.7118 204.048 93.7113 204.048C93.7107 204.048 93.7102 204.048 93.7097 204.048C93.7092 204.048 93.7086 204.048 93.7081 204.048C93.7076 204.048 93.7071 204.048 93.7065 204.048C93.706 204.048 93.7055 204.048 93.705 204.048C93.7044 204.048 93.7039 204.048 93.7034 204.048C93.7029 204.048 93.7024 204.048 93.7018 204.048C93.7013 204.048 93.7008 204.048 93.7003 204.048C93.6998 204.048 93.6992 204.048 93.6987 204.048C93.6982 204.048 93.6977 204.048 93.6972 204.048C93.6966 204.048 93.6961 204.048 93.6956 204.048C93.6951 204.048 93.6946 204.048 93.6941 204.048C93.6935 204.048 93.693 204.048 93.6925 204.048C93.692 204.048 93.6915 204.048 93.691 204.048C93.6904 204.048 93.6899 204.048 93.6894 204.048C93.6889 204.048 93.6884 204.048 93.6879 204.048C93.6874 204.048 93.6868 204.048 93.6863 204.048C93.6858 204.048 93.6853 204.048 93.6848 204.048C93.6843 204.048 93.6838 204.048 93.6833 204.048C93.6828 204.048 93.6823 204.048 93.6817 204.048C93.6812 204.048 93.6807 204.048 93.6802 204.048C93.6797 204.048 93.6792 204.048 93.6787 204.048C93.6782 204.048 93.6777 204.048 93.6772 204.048C93.6767 204.048 93.6762 204.048 93.6757 204.048C93.6752 204.048 93.6747 204.048 93.6742 204.048C93.6736 204.048 93.6731 204.048 93.6726 204.048C93.6721 204.048 93.6716 204.048 93.6711 204.048C93.6706 204.048 93.6701 204.048 93.6696 204.048C93.6691 204.048 93.6686 204.048 93.6681 204.048V206.048ZM94.8201 206.048C95.453 206.048 101.716 206.112 113.625 206.24L113.647 204.24C101.749 204.112 95.4673 204.048 94.8201 204.048V206.048ZM113.636 206.24H131.684V204.24H113.636V206.24ZM130.684 205.24V207.928H132.684V205.24H130.684ZM130.684 207.928V210.616H132.684V207.928H130.684ZM131.684 209.616H90.7881V211.616H131.684V209.616ZM90.7881 209.616H50.0841V211.616H90.7881V209.616ZM51.0841 210.616V207.928H49.0841V210.616H51.0841ZM51.0841 207.928C51.0841 207.043 51.1165 206.429 51.1701 206.053C51.1983 205.856 51.2237 205.792 51.2193 205.802C51.2173 205.806 51.1822 205.892 51.0852 205.989C50.9729 206.101 50.7614 206.24 50.4681 206.24V204.24C49.7324 204.24 49.4406 204.875 49.381 205.014C49.2805 205.248 49.2259 205.52 49.1902 205.771C49.1158 206.291 49.0841 207.021 49.0841 207.928H51.0841ZM50.4681 206.24C52.9079 206.24 59.1873 206.176 69.2968 206.048L69.2715 204.048C59.1569 204.176 52.8923 204.24 50.4681 204.24V206.24ZM69.2841 206.048H87.7161V204.048H69.2841V206.048ZM88.7161 205.048V190.456H86.7161V205.048H88.7161ZM88.7161 190.456V175.864H86.7161V190.456H88.7161ZM87.7161 174.864H74.4681V176.864H87.7161V174.864ZM74.4681 174.864H61.2201V176.864H74.4681V174.864ZM62.2172 175.941L62.4092 173.445L60.4151 173.291L60.2231 175.787L62.2172 175.941ZM62.4121 173.368V170.68H60.4121V173.368H62.4121ZM61.4121 171.68H74.6601V169.68H61.4121V171.68ZM74.6601 171.68H87.7161V169.68H74.6601V171.68ZM88.7161 170.68V159.16H86.7161V170.68H88.7161ZM88.7161 159.16V147.832H86.7161V159.16H88.7161ZM87.7161 146.832H71.7801V148.832H87.7161V146.832ZM71.7801 146.832H55.8441V148.832H71.7801V146.832ZM56.8441 147.832V145.144H54.8441V147.832H56.8441ZM56.8441 145.144V142.456H54.8441V145.144H56.8441ZM55.8441 143.456H90.7881V141.456H55.8441V143.456ZM90.7881 143.456H125.924V141.456H90.7881V143.456Z" fill="#B1941A"/>
</g>
</g>
<defs>
<filter id="filter0_d" x="0" y="0" width="183" height="251" filterUnits="userSpaceOnUse" color-interpolation-filters="sRGB">
<feFlood flood-opacity="0" result="BackgroundImageFix"/>
<feColorMatrix in="SourceAlpha" type="matrix" values="0 0 0 0 0 0 0 0 0 0 0 0 0 0 0 0 0 0 127 0"/>
<feOffset dy="4"/>
<feGaussianBlur stdDeviation="2"/>
<feColorMatrix type="matrix" values="0 0 0 0 0 0 0 0 0 0 0 0 0 0 0 0 0 0 0.25 0"/>
<feBlend mode="normal" in2="BackgroundImageFix" result="effect1_dropShadow"/>
<feBlend mode="normal" in="SourceGraphic" in2="effect1_dropShadow" result="shape"/>
</filter>
<filter id="filter1_b" x="0" y="-4" width="183" height="239" filterUnits="userSpaceOnUse" color-interpolation-filters="sRGB">
<feFlood flood-opacity="0" result="BackgroundImageFix"/>
<feGaussianBlur in="BackgroundImage" stdDeviation="2"/>
<feComposite in2="SourceAlpha" operator="in" result="effect1_backgroundBlur"/>
<feBlend mode="normal" in="SourceGraphic" in2="effect1_backgroundBlur" result="shape"/>
</filter>
<filter id="filter2_d" x="42.416" y="33.648" width="98.1163" height="185.968" filterUnits="userSpaceOnUse" color-interpolation-filters="sRGB">
<feFlood flood-opacity="0" result="BackgroundImageFix"/>
<feColorMatrix in="SourceAlpha" type="matrix" values="0 0 0 0 0 0 0 0 0 0 0 0 0 0 0 0 0 0 127 0"/>
<feOffset dy="4"/>
<feGaussianBlur stdDeviation="2"/>
<feColorMatrix type="matrix" values="0 0 0 0 0 0 0 0 0 0 0 0 0 0 0 0 0 0 0.25 0"/>
<feBlend mode="normal" in2="BackgroundImageFix" result="effect1_dropShadow"/>
<feBlend mode="normal" in="SourceGraphic" in2="effect1_dropShadow" result="shape"/>
</filter>
</defs>
</svg>
